G04 #@! TF.GenerationSoftware,KiCad,Pcbnew,(5.1.5-0-10_14)*
G04 #@! TF.CreationDate,2021-02-01T23:30:03+09:00*
G04 #@! TF.ProjectId,LedClock,4c656443-6c6f-4636-9b2e-6b696361645f,1.1*
G04 #@! TF.SameCoordinates,Original*
G04 #@! TF.FileFunction,Legend,Top*
G04 #@! TF.FilePolarity,Positive*
%FSLAX46Y46*%
G04 Gerber Fmt 4.6, Leading zero omitted, Abs format (unit mm)*
G04 Created by KiCad (PCBNEW (5.1.5-0-10_14)) date 2021-02-01 23:30:03*
%MOMM*%
%LPD*%
G04 APERTURE LIST*
%ADD10C,0.200000*%
%ADD11C,0.120000*%
%ADD12C,0.100000*%
G04 APERTURE END LIST*
D10*
X100000Y21700000D02*
G75*
G03X100000Y21700000I-100000J0D01*
G01*
D11*
X-800000Y20800000D02*
X-800000Y19200000D01*
X800000Y20800000D02*
X800000Y19200000D01*
D12*
X-3741596Y29064774D02*
X-2349265Y29211114D01*
X-6783473Y28506180D02*
X-5414067Y28797256D01*
X-9736269Y27633105D02*
X-8404790Y28065729D01*
X-12570500Y26464379D02*
X-11291536Y27033810D01*
X-15266558Y25008782D02*
X-14054122Y25708782D01*
X-17804706Y23275061D02*
X-16672082Y24097961D01*
X-20135073Y21291942D02*
X-19094670Y22228725D01*
X-22257655Y19068145D02*
X-21320872Y20108547D01*
X-24122315Y16642395D02*
X-23299416Y17775019D01*
X-25728782Y14033442D02*
X-25028782Y15245878D01*
X-27056657Y11270069D02*
X-26487226Y12549033D01*
X-28085416Y8381107D02*
X-27652792Y9712586D01*
X-28804414Y5405450D02*
X-28513337Y6774857D01*
X-29212895Y2362064D02*
X-29066555Y3754395D01*
X-29300000Y-700000D02*
X-29300000Y700000D01*
X-29064774Y-3741596D02*
X-29211114Y-2349265D01*
X-28516180Y-6763473D02*
X-28807256Y-5394067D01*
X-27643105Y-9716269D02*
X-28075729Y-8384790D01*
X-26474379Y-12560500D02*
X-27043810Y-11281536D01*
X-25018782Y-15256558D02*
X-25718782Y-14044122D01*
X-23285061Y-17784706D02*
X-24107961Y-16652082D01*
X-21291942Y-20125073D02*
X-22228725Y-19084670D01*
X-19068145Y-22247655D02*
X-20108547Y-21310872D01*
X-16642395Y-24122315D02*
X-17775019Y-23299416D01*
X-14033442Y-25728782D02*
X-15245878Y-25028782D01*
X-11270069Y-27056657D02*
X-12549033Y-26487226D01*
X-8381107Y-28085416D02*
X-9712586Y-27652792D01*
X-5405450Y-28804414D02*
X-6774857Y-28513337D01*
X-2362064Y-29212895D02*
X-3754395Y-29066555D01*
X700000Y-29300000D02*
X-700000Y-29300000D01*
X3781596Y-29064774D02*
X2389265Y-29211114D01*
X6783473Y-28516180D02*
X5414067Y-28807256D01*
X9726269Y-27653105D02*
X8394790Y-28085729D01*
X12560500Y-26484379D02*
X11281536Y-27053810D01*
X15256558Y-25028782D02*
X14044122Y-25728782D01*
X17784706Y-23295061D02*
X16652082Y-24117961D01*
X20125073Y-21301942D02*
X19084670Y-22238725D01*
X22237655Y-19078145D02*
X21300872Y-20118547D01*
X24112315Y-16652395D02*
X23289416Y-17785019D01*
X25728782Y-14033442D02*
X25028782Y-15245878D01*
X27056657Y-11270069D02*
X26487226Y-12549033D01*
X28085416Y-8381107D02*
X27652792Y-9712586D01*
X28804414Y-5405450D02*
X28513337Y-6774857D01*
X29212895Y-2362064D02*
X29066555Y-3754395D01*
X29300000Y700000D02*
X29300000Y-700000D01*
X29064774Y3751596D02*
X29211114Y2359265D01*
X28516180Y6763473D02*
X28807256Y5394067D01*
X27653105Y9696269D02*
X28085729Y8364790D01*
X26484379Y12540500D02*
X27053810Y11261536D01*
X25028782Y15236558D02*
X25728782Y14024122D01*
X23285061Y17784706D02*
X24107961Y16652082D01*
X21301942Y20115073D02*
X22238725Y19074670D01*
X19078145Y22239755D02*
X20118547Y21302972D01*
X16652395Y24112315D02*
X17785019Y23289416D01*
X14043442Y25718782D02*
X15255878Y25018782D01*
X11280069Y27046657D02*
X12559033Y26477226D01*
X8401107Y28075416D02*
X9732586Y27642792D01*
X5425450Y28794414D02*
X6794857Y28503337D01*
X2382064Y29212895D02*
X3774395Y29066555D01*
X-690000Y29300000D02*
X710000Y29300000D01*
M02*
