G04 #@! TF.GenerationSoftware,KiCad,Pcbnew,(5.1.5-0-10_14)*
G04 #@! TF.CreationDate,2021-02-01T23:30:03+09:00*
G04 #@! TF.ProjectId,LedClock,4c656443-6c6f-4636-9b2e-6b696361645f,1.1*
G04 #@! TF.SameCoordinates,Original*
G04 #@! TF.FileFunction,Paste,Top*
G04 #@! TF.FilePolarity,Positive*
%FSLAX46Y46*%
G04 Gerber Fmt 4.6, Leading zero omitted, Abs format (unit mm)*
G04 Created by KiCad (PCBNEW (5.1.5-0-10_14)) date 2021-02-01 23:30:03*
%MOMM*%
%LPD*%
G04 APERTURE LIST*
%ADD10C,1.000000*%
G04 APERTURE END LIST*
D10*
X-2422435Y29907280D03*
X-3814766Y29760940D03*
X-5559605Y29481960D03*
X-6929012Y29190883D03*
X-8621102Y28731469D03*
X-9952581Y28298845D03*
X-11576252Y27673292D03*
X-12855215Y27103861D03*
X-14404122Y26315000D03*
X-15616558Y25615000D03*
X-17083531Y24664273D03*
X-18216155Y23841373D03*
X-19563061Y22748926D03*
X-20603464Y21812144D03*
X-21841074Y20576939D03*
X-22777856Y19536536D03*
X-23865727Y18186469D03*
X-24688627Y17053845D03*
X-25635000Y15595878D03*
X-26335000Y14383442D03*
X-27126708Y12833748D03*
X-27696139Y11554785D03*
X-28318531Y9928898D03*
X-28751155Y8597419D03*
X-29198040Y6920395D03*
X-29489117Y5550988D03*
X-29762720Y3827565D03*
X-29909060Y2435234D03*
X-30000000Y700000D03*
X-30000000Y-700000D03*
X-29907280Y-2422435D03*
X-29760940Y-3814766D03*
X-29491960Y-5539605D03*
X-29200883Y-6909012D03*
X-28741469Y-8601102D03*
X-28308845Y-9932581D03*
X-27683292Y-11566252D03*
X-27113861Y-12845215D03*
X-26325000Y-14394122D03*
X-25625000Y-15606558D03*
X-24674273Y-17063531D03*
X-23851373Y-18196155D03*
X-22748926Y-19553061D03*
X-21812144Y-20593464D03*
X-20576939Y-21831074D03*
X-19536536Y-22767856D03*
X-18186469Y-23865727D03*
X-17053845Y-24688627D03*
X-15595878Y-25635000D03*
X-14383442Y-26335000D03*
X-12833748Y-27126708D03*
X-11554785Y-27696139D03*
X-9928898Y-28318531D03*
X-8597419Y-28751155D03*
X-6920395Y-29198040D03*
X-5550988Y-29489117D03*
X-3827565Y-29762720D03*
X-2435234Y-29909060D03*
X-700000Y-30000000D03*
X700000Y-30000000D03*
X2462435Y-29907280D03*
X3854766Y-29760940D03*
X5559605Y-29491960D03*
X6929012Y-29200883D03*
X8611102Y-28751469D03*
X9942581Y-28318845D03*
X11566252Y-27693292D03*
X12845215Y-27123861D03*
X14394122Y-26335000D03*
X15606558Y-25635000D03*
X17063531Y-24684273D03*
X18196155Y-23861373D03*
X19553061Y-22758926D03*
X20593464Y-21822144D03*
X21821074Y-20586939D03*
X22757856Y-19546536D03*
X23855727Y-18196469D03*
X24678627Y-17063845D03*
X25635000Y-15595878D03*
X26335000Y-14383442D03*
X27126708Y-12833748D03*
X27696139Y-11554785D03*
X28318531Y-9928898D03*
X28751155Y-8597419D03*
X29198040Y-6920395D03*
X29489117Y-5550988D03*
X29762720Y-3827565D03*
X29909060Y-2435234D03*
X30000000Y-700000D03*
X30000000Y700000D03*
X29907280Y2432435D03*
X29760940Y3824766D03*
X29491960Y5539605D03*
X29200883Y6909012D03*
X28751469Y8581102D03*
X28318845Y9912581D03*
X27693292Y11546252D03*
X27123861Y12825215D03*
X26335000Y14374122D03*
X25635000Y15586558D03*
X24674273Y17063531D03*
X23851373Y18196155D03*
X22758926Y19543061D03*
X21822144Y20583464D03*
X20586939Y21823174D03*
X19546536Y22759956D03*
X18196469Y23855727D03*
X17063845Y24678627D03*
X15605878Y25625000D03*
X14393442Y26325000D03*
X12843748Y27116708D03*
X11564785Y27686139D03*
X9948898Y28308531D03*
X8617419Y28741155D03*
X6940395Y29188040D03*
X5570988Y29479117D03*
X3847565Y29762720D03*
X2455234Y29909060D03*
X710000Y30000000D03*
X-690000Y30000000D03*
M02*
