M48
; DRILL file {KiCad (5.1.5-0-10_14)} date 2021 February 01, Monday 23:30:08
; FORMAT={-:-/ absolute / metric / decimal}
; #@! TF.CreationDate,2021-02-01T23:30:08+09:00
; #@! TF.GenerationSoftware,Kicad,Pcbnew,(5.1.5-0-10_14)
FMAT,2
METRIC
T1C0.305
T2C0.600
T3C0.700
T4C1.000
T5C1.100
T6C0.762
T7C7.000
%
G90
G05
T1
X-25.75Y7.5
X-25.75Y6.0
X-25.75Y4.5
X-25.75Y3.0
X-25.75Y1.5
X-25.75Y0.0
X-25.75Y-1.5
X-25.75Y-3.0
X-25.75Y-4.5
X-25.75Y-6.0
X-25.75Y-7.5
X-24.375Y13.0
X-24.375Y12.0
X-24.375Y-12.0
X-24.375Y-13.0
X-19.844Y1.933
X-18.427Y0.456
X-17.673Y-21.142
X-17.121Y-2.201
X-16.964Y-3.904
X-16.47Y-1.562
X-15.335Y0.796
X-15.17Y-9.665
X-14.532Y-19.771
X-13.903Y-0.32
X-13.225Y14.55
X-13.0Y24.375
X-13.0Y-24.375
X-12.0Y24.375
X-12.0Y-24.375
X-11.925Y-10.689
X-11.911Y-9.703
X-11.525Y-5.416
X-11.258Y16.763
X-10.584Y-18.219
X-10.27Y-1.874
X-10.014Y12.511
X-8.877Y4.358
X-7.5Y25.75
X-7.5Y-25.75
X-6.99Y9.244
X-6.0Y25.75
X-6.0Y-25.75
X-4.5Y25.75
X-4.5Y-25.75
X-3.0Y25.75
X-3.0Y-25.75
X-1.716Y-21.574
X-1.5Y25.75
X-1.5Y-25.75
X0.0Y25.75
X0.0Y-25.75
X1.5Y25.75
X1.5Y-25.75
X3.0Y25.75
X3.0Y-25.75
X4.5Y25.75
X4.5Y-25.75
X6.0Y25.75
X6.0Y-25.75
X6.854Y21.61
X7.5Y25.75
X7.5Y-25.75
X9.658Y12.144
X10.616Y18.846
X11.459Y-16.781
X11.544Y22.443
X12.0Y24.375
X12.0Y-24.375
X12.495Y10.232
X12.575Y-15.065
X13.0Y24.375
X13.0Y-24.375
X14.711Y21.354
X16.515Y22.443
X24.375Y13.0
X24.375Y12.0
X24.375Y-12.0
X24.375Y-13.0
X25.75Y7.5
X25.75Y6.0
X25.75Y4.5
X25.75Y3.0
X25.75Y1.5
X25.75Y0.0
X25.75Y-1.5
X25.75Y-3.0
X25.75Y-4.5
X25.75Y-6.0
X25.75Y-7.5
T3
X6.02Y8.7
X7.29Y8.7
X8.56Y8.7
X9.83Y8.7
X11.1Y8.7
X0.0Y20.75
X0.0Y19.25
T4
X-3.0Y8.05
X-1.0Y8.05
X1.0Y8.05
X3.0Y8.05
T5
X-2.5Y-7.5
X0.0Y-7.5
X2.5Y-7.5
T6
X-4.1Y-5.1
X4.1Y5.1
T7
X0.0Y0.0
T2
G00X-3.55Y-17.45
M15
G01X-3.55Y-16.95
M16
G05
G00X3.55Y-17.45
M15
G01X3.55Y-16.95
M16
G05
T0
M30
