M48
; DRILL file {KiCad (5.1.5-0-10_14)} date 2021 January 17, Sunday 15:29:51
; FORMAT={-:-/ absolute / metric / decimal}
; #@! TF.CreationDate,2021-01-17T15:29:51+09:00
; #@! TF.GenerationSoftware,Kicad,Pcbnew,(5.1.5-0-10_14)
FMAT,2
METRIC
T1C0.305
T2C0.600
T3C0.650
T4C0.700
T5C1.000
T6C1.100
T7C7.000
%
G90
G05
T1
X-38.292Y2.066
X-38.128Y6.074
X-37.447Y9.971
X-37.31Y12.668
X-36.169Y-2.997
X-35.687Y16.018
X-35.432Y-10.847
X-35.182Y4.82
X-34.654Y-13.691
X-34.311Y-17.33
X-34.225Y-25.678
X-33.57Y25.69
X-33.442Y-23.019
X-33.441Y20.709
X-33.4Y-5.713
X-33.354Y-31.459
X-33.105Y-17.175
X-32.937Y8.562
X-32.925Y23.642
X-32.852Y-20.813
X-32.562Y31.761
X-32.464Y-15.233
X-32.451Y30.04
X-32.45Y30.854
X-32.375Y34.314
X-32.275Y-34.314
X-32.188Y15.248
X-32.143Y-31.508
X-32.128Y9.836
X-31.675Y0.8
X-31.663Y-14.82
X-31.492Y34.359
X-31.492Y-35.788
X-30.875Y9.0
X-30.875Y-13.0
X-30.325Y-25.274
X-30.199Y13.057
X-28.999Y-23.723
X-28.578Y-36.465
X-28.337Y23.708
X-27.77Y-24.91
X-27.464Y-16.2
X-26.508Y-17.155
X-25.613Y-38.088
X-24.456Y18.867
X-21.254Y24.292
X-18.507Y2.175
X-16.164Y2.654
X-15.588Y-29.755
X-15.148Y30.231
X-14.909Y33.057
X-14.9Y-1.697
X-14.069Y1.252
X-13.0Y31.436
X-13.0Y-30.766
X-12.725Y-3.409
X-12.536Y37.514
X-11.626Y-32.501
X-11.418Y34.293
X-11.358Y-35.444
X-11.241Y-33.862
X-10.106Y35.538
X-9.179Y-33.976
X-8.777Y-36.059
X-6.097Y-38.095
X-5.975Y37.346
X-5.684Y35.98
X-4.545Y-36.113
X-2.695Y34.616
X-2.14Y11.063
X-0.736Y-37.083
X0.0Y33.194
X2.607Y-36.174
X4.651Y35.6
X5.941Y-37.581
X5.952Y-33.521
X7.868Y38.679
X8.341Y35.758
X9.847Y-37.129
X10.36Y-35.442
X11.358Y35.444
X12.146Y38.41
X12.146Y33.949
X12.146Y32.674
X12.146Y-33.852
X13.0Y30.767
X13.0Y-31.246
X14.181Y-32.66
X15.588Y-30.185
X17.709Y27.846
X22.932Y-25.563
X24.456Y-4.34
X25.577Y37.722
X25.747Y24.292
X25.775Y-18.4
X26.425Y-25.563
X28.016Y37.199
X29.393Y-17.501
X29.453Y30.707
X29.522Y22.171
X30.767Y-13.0
X30.875Y13.0
X31.492Y35.81
X31.492Y-36.02
X31.534Y-30.352
X31.589Y2.947
X31.59Y23.959
X32.029Y-14.859
X32.109Y14.339
X32.261Y31.609
X32.275Y34.315
X32.275Y-34.308
X32.301Y-10.947
X32.312Y-24.163
X32.329Y-8.611
X32.489Y7.5
X32.552Y-3.396
X32.589Y-5.691
X32.595Y-29.537
X32.613Y-31.788
X32.744Y12.428
X32.868Y-22.333
X32.901Y20.9
X33.082Y0.001
X33.401Y6.073
X33.575Y24.838
X33.575Y-25.681
X34.225Y25.69
X34.323Y19.239
X34.365Y-19.198
X34.587Y-0.399
X35.431Y9.11
X35.431Y-3.193
X35.435Y-10.931
X35.481Y5.251
X35.534Y-8.021
T3
X-22.68Y18.47
X-22.68Y17.2
X-21.41Y18.47
X-21.41Y17.2
X-20.14Y18.47
X-20.14Y17.2
X-18.87Y18.47
X-18.87Y17.2
X-17.6Y18.47
X-17.6Y17.2
T4
X0.0Y20.75
X0.0Y19.25
T5
X-3.0Y7.0
X-1.0Y7.0
X1.0Y7.0
X3.0Y7.0
T6
X-2.5Y-7.5
X0.0Y-7.5
X2.5Y-7.5
T7
X0.0Y0.0
T2
G00X-3.55Y-18.65
M15
G01X-3.55Y-18.15
M16
G05
G00X3.55Y-18.65
M15
G01X3.55Y-18.15
M16
G05
T0
M30
