G04 #@! TF.GenerationSoftware,KiCad,Pcbnew,(5.1.5-0-10_14)*
G04 #@! TF.CreationDate,2021-01-17T15:29:47+09:00*
G04 #@! TF.ProjectId,LedClock,4c656443-6c6f-4636-9b2e-6b696361645f,1.0*
G04 #@! TF.SameCoordinates,Original*
G04 #@! TF.FileFunction,Soldermask,Bot*
G04 #@! TF.FilePolarity,Negative*
%FSLAX46Y46*%
G04 Gerber Fmt 4.6, Leading zero omitted, Abs format (unit mm)*
G04 Created by KiCad (PCBNEW (5.1.5-0-10_14)) date 2021-01-17 15:29:47*
%MOMM*%
%LPD*%
G04 APERTURE LIST*
%ADD10C,0.100000*%
G04 APERTURE END LIST*
D10*
G36*
X34426000Y-33849000D02*
G01*
X33374000Y-33849000D01*
X33374000Y-32247000D01*
X34426000Y-32247000D01*
X34426000Y-33849000D01*
G37*
G36*
X33122000Y-33849000D02*
G01*
X25574000Y-33849000D01*
X25574000Y-32247000D01*
X33122000Y-32247000D01*
X33122000Y-33849000D01*
G37*
G36*
X-25574000Y-33849000D02*
G01*
X-34426000Y-33849000D01*
X-34426000Y-32247000D01*
X-25574000Y-32247000D01*
X-25574000Y-33849000D01*
G37*
G36*
X-13635501Y-30303445D02*
G01*
X-13598005Y-30314820D01*
X-13563446Y-30333292D01*
X-13533153Y-30358153D01*
X-13508292Y-30388446D01*
X-13489820Y-30423005D01*
X-13478445Y-30460501D01*
X-13474000Y-30505638D01*
X-13474000Y-31244362D01*
X-13478445Y-31289499D01*
X-13489820Y-31326995D01*
X-13508292Y-31361554D01*
X-13533153Y-31391847D01*
X-13563446Y-31416708D01*
X-13598005Y-31435180D01*
X-13635501Y-31446555D01*
X-13680638Y-31451000D01*
X-14319362Y-31451000D01*
X-14364499Y-31446555D01*
X-14401995Y-31435180D01*
X-14436554Y-31416708D01*
X-14466847Y-31391847D01*
X-14491708Y-31361554D01*
X-14510180Y-31326995D01*
X-14521555Y-31289499D01*
X-14526000Y-31244362D01*
X-14526000Y-30505638D01*
X-14521555Y-30460501D01*
X-14510180Y-30423005D01*
X-14491708Y-30388446D01*
X-14466847Y-30358153D01*
X-14436554Y-30333292D01*
X-14401995Y-30314820D01*
X-14364499Y-30303445D01*
X-14319362Y-30299000D01*
X-13680638Y-30299000D01*
X-13635501Y-30303445D01*
G37*
G36*
X-11635501Y-30303445D02*
G01*
X-11598005Y-30314820D01*
X-11563446Y-30333292D01*
X-11533153Y-30358153D01*
X-11508292Y-30388446D01*
X-11489820Y-30423005D01*
X-11478445Y-30460501D01*
X-11474000Y-30505638D01*
X-11474000Y-31244362D01*
X-11478445Y-31289499D01*
X-11489820Y-31326995D01*
X-11508292Y-31361554D01*
X-11533153Y-31391847D01*
X-11563446Y-31416708D01*
X-11598005Y-31435180D01*
X-11635501Y-31446555D01*
X-11680638Y-31451000D01*
X-12319362Y-31451000D01*
X-12364499Y-31446555D01*
X-12401995Y-31435180D01*
X-12436554Y-31416708D01*
X-12466847Y-31391847D01*
X-12491708Y-31361554D01*
X-12510180Y-31326995D01*
X-12521555Y-31289499D01*
X-12526000Y-31244362D01*
X-12526000Y-30505638D01*
X-12521555Y-30460501D01*
X-12510180Y-30423005D01*
X-12491708Y-30388446D01*
X-12466847Y-30358153D01*
X-12436554Y-30333292D01*
X-12401995Y-30314820D01*
X-12364499Y-30303445D01*
X-12319362Y-30299000D01*
X-11680638Y-30299000D01*
X-11635501Y-30303445D01*
G37*
G36*
X-9635501Y-30303445D02*
G01*
X-9598005Y-30314820D01*
X-9563446Y-30333292D01*
X-9533153Y-30358153D01*
X-9508292Y-30388446D01*
X-9489820Y-30423005D01*
X-9478445Y-30460501D01*
X-9474000Y-30505638D01*
X-9474000Y-31244362D01*
X-9478445Y-31289499D01*
X-9489820Y-31326995D01*
X-9508292Y-31361554D01*
X-9533153Y-31391847D01*
X-9563446Y-31416708D01*
X-9598005Y-31435180D01*
X-9635501Y-31446555D01*
X-9680638Y-31451000D01*
X-10319362Y-31451000D01*
X-10364499Y-31446555D01*
X-10401995Y-31435180D01*
X-10436554Y-31416708D01*
X-10466847Y-31391847D01*
X-10491708Y-31361554D01*
X-10510180Y-31326995D01*
X-10521555Y-31289499D01*
X-10526000Y-31244362D01*
X-10526000Y-30505638D01*
X-10521555Y-30460501D01*
X-10510180Y-30423005D01*
X-10491708Y-30388446D01*
X-10466847Y-30358153D01*
X-10436554Y-30333292D01*
X-10401995Y-30314820D01*
X-10364499Y-30303445D01*
X-10319362Y-30299000D01*
X-9680638Y-30299000D01*
X-9635501Y-30303445D01*
G37*
G36*
X-7635501Y-30303445D02*
G01*
X-7598005Y-30314820D01*
X-7563446Y-30333292D01*
X-7533153Y-30358153D01*
X-7508292Y-30388446D01*
X-7489820Y-30423005D01*
X-7478445Y-30460501D01*
X-7474000Y-30505638D01*
X-7474000Y-31244362D01*
X-7478445Y-31289499D01*
X-7489820Y-31326995D01*
X-7508292Y-31361554D01*
X-7533153Y-31391847D01*
X-7563446Y-31416708D01*
X-7598005Y-31435180D01*
X-7635501Y-31446555D01*
X-7680638Y-31451000D01*
X-8319362Y-31451000D01*
X-8364499Y-31446555D01*
X-8401995Y-31435180D01*
X-8436554Y-31416708D01*
X-8466847Y-31391847D01*
X-8491708Y-31361554D01*
X-8510180Y-31326995D01*
X-8521555Y-31289499D01*
X-8526000Y-31244362D01*
X-8526000Y-30505638D01*
X-8521555Y-30460501D01*
X-8510180Y-30423005D01*
X-8491708Y-30388446D01*
X-8466847Y-30358153D01*
X-8436554Y-30333292D01*
X-8401995Y-30314820D01*
X-8364499Y-30303445D01*
X-8319362Y-30299000D01*
X-7680638Y-30299000D01*
X-7635501Y-30303445D01*
G37*
G36*
X-5635501Y-30303445D02*
G01*
X-5598005Y-30314820D01*
X-5563446Y-30333292D01*
X-5533153Y-30358153D01*
X-5508292Y-30388446D01*
X-5489820Y-30423005D01*
X-5478445Y-30460501D01*
X-5474000Y-30505638D01*
X-5474000Y-31244362D01*
X-5478445Y-31289499D01*
X-5489820Y-31326995D01*
X-5508292Y-31361554D01*
X-5533153Y-31391847D01*
X-5563446Y-31416708D01*
X-5598005Y-31435180D01*
X-5635501Y-31446555D01*
X-5680638Y-31451000D01*
X-6319362Y-31451000D01*
X-6364499Y-31446555D01*
X-6401995Y-31435180D01*
X-6436554Y-31416708D01*
X-6466847Y-31391847D01*
X-6491708Y-31361554D01*
X-6510180Y-31326995D01*
X-6521555Y-31289499D01*
X-6526000Y-31244362D01*
X-6526000Y-30505638D01*
X-6521555Y-30460501D01*
X-6510180Y-30423005D01*
X-6491708Y-30388446D01*
X-6466847Y-30358153D01*
X-6436554Y-30333292D01*
X-6401995Y-30314820D01*
X-6364499Y-30303445D01*
X-6319362Y-30299000D01*
X-5680638Y-30299000D01*
X-5635501Y-30303445D01*
G37*
G36*
X-3635501Y-30303445D02*
G01*
X-3598005Y-30314820D01*
X-3563446Y-30333292D01*
X-3533153Y-30358153D01*
X-3508292Y-30388446D01*
X-3489820Y-30423005D01*
X-3478445Y-30460501D01*
X-3474000Y-30505638D01*
X-3474000Y-31244362D01*
X-3478445Y-31289499D01*
X-3489820Y-31326995D01*
X-3508292Y-31361554D01*
X-3533153Y-31391847D01*
X-3563446Y-31416708D01*
X-3598005Y-31435180D01*
X-3635501Y-31446555D01*
X-3680638Y-31451000D01*
X-4319362Y-31451000D01*
X-4364499Y-31446555D01*
X-4401995Y-31435180D01*
X-4436554Y-31416708D01*
X-4466847Y-31391847D01*
X-4491708Y-31361554D01*
X-4510180Y-31326995D01*
X-4521555Y-31289499D01*
X-4526000Y-31244362D01*
X-4526000Y-30505638D01*
X-4521555Y-30460501D01*
X-4510180Y-30423005D01*
X-4491708Y-30388446D01*
X-4466847Y-30358153D01*
X-4436554Y-30333292D01*
X-4401995Y-30314820D01*
X-4364499Y-30303445D01*
X-4319362Y-30299000D01*
X-3680638Y-30299000D01*
X-3635501Y-30303445D01*
G37*
G36*
X-1635501Y-30303445D02*
G01*
X-1598005Y-30314820D01*
X-1563446Y-30333292D01*
X-1533153Y-30358153D01*
X-1508292Y-30388446D01*
X-1489820Y-30423005D01*
X-1478445Y-30460501D01*
X-1474000Y-30505638D01*
X-1474000Y-31244362D01*
X-1478445Y-31289499D01*
X-1489820Y-31326995D01*
X-1508292Y-31361554D01*
X-1533153Y-31391847D01*
X-1563446Y-31416708D01*
X-1598005Y-31435180D01*
X-1635501Y-31446555D01*
X-1680638Y-31451000D01*
X-2319362Y-31451000D01*
X-2364499Y-31446555D01*
X-2401995Y-31435180D01*
X-2436554Y-31416708D01*
X-2466847Y-31391847D01*
X-2491708Y-31361554D01*
X-2510180Y-31326995D01*
X-2521555Y-31289499D01*
X-2526000Y-31244362D01*
X-2526000Y-30505638D01*
X-2521555Y-30460501D01*
X-2510180Y-30423005D01*
X-2491708Y-30388446D01*
X-2466847Y-30358153D01*
X-2436554Y-30333292D01*
X-2401995Y-30314820D01*
X-2364499Y-30303445D01*
X-2319362Y-30299000D01*
X-1680638Y-30299000D01*
X-1635501Y-30303445D01*
G37*
G36*
X364499Y-30303445D02*
G01*
X401995Y-30314820D01*
X436554Y-30333292D01*
X466847Y-30358153D01*
X491708Y-30388446D01*
X510180Y-30423005D01*
X521555Y-30460501D01*
X526000Y-30505638D01*
X526000Y-31244362D01*
X521555Y-31289499D01*
X510180Y-31326995D01*
X491708Y-31361554D01*
X466847Y-31391847D01*
X436554Y-31416708D01*
X401995Y-31435180D01*
X364499Y-31446555D01*
X319362Y-31451000D01*
X-319362Y-31451000D01*
X-364499Y-31446555D01*
X-401995Y-31435180D01*
X-436554Y-31416708D01*
X-466847Y-31391847D01*
X-491708Y-31361554D01*
X-510180Y-31326995D01*
X-521555Y-31289499D01*
X-526000Y-31244362D01*
X-526000Y-30505638D01*
X-521555Y-30460501D01*
X-510180Y-30423005D01*
X-491708Y-30388446D01*
X-466847Y-30358153D01*
X-436554Y-30333292D01*
X-401995Y-30314820D01*
X-364499Y-30303445D01*
X-319362Y-30299000D01*
X319362Y-30299000D01*
X364499Y-30303445D01*
G37*
G36*
X2364499Y-30303445D02*
G01*
X2401995Y-30314820D01*
X2436554Y-30333292D01*
X2466847Y-30358153D01*
X2491708Y-30388446D01*
X2510180Y-30423005D01*
X2521555Y-30460501D01*
X2526000Y-30505638D01*
X2526000Y-31244362D01*
X2521555Y-31289499D01*
X2510180Y-31326995D01*
X2491708Y-31361554D01*
X2466847Y-31391847D01*
X2436554Y-31416708D01*
X2401995Y-31435180D01*
X2364499Y-31446555D01*
X2319362Y-31451000D01*
X1680638Y-31451000D01*
X1635501Y-31446555D01*
X1598005Y-31435180D01*
X1563446Y-31416708D01*
X1533153Y-31391847D01*
X1508292Y-31361554D01*
X1489820Y-31326995D01*
X1478445Y-31289499D01*
X1474000Y-31244362D01*
X1474000Y-30505638D01*
X1478445Y-30460501D01*
X1489820Y-30423005D01*
X1508292Y-30388446D01*
X1533153Y-30358153D01*
X1563446Y-30333292D01*
X1598005Y-30314820D01*
X1635501Y-30303445D01*
X1680638Y-30299000D01*
X2319362Y-30299000D01*
X2364499Y-30303445D01*
G37*
G36*
X4364499Y-30303445D02*
G01*
X4401995Y-30314820D01*
X4436554Y-30333292D01*
X4466847Y-30358153D01*
X4491708Y-30388446D01*
X4510180Y-30423005D01*
X4521555Y-30460501D01*
X4526000Y-30505638D01*
X4526000Y-31244362D01*
X4521555Y-31289499D01*
X4510180Y-31326995D01*
X4491708Y-31361554D01*
X4466847Y-31391847D01*
X4436554Y-31416708D01*
X4401995Y-31435180D01*
X4364499Y-31446555D01*
X4319362Y-31451000D01*
X3680638Y-31451000D01*
X3635501Y-31446555D01*
X3598005Y-31435180D01*
X3563446Y-31416708D01*
X3533153Y-31391847D01*
X3508292Y-31361554D01*
X3489820Y-31326995D01*
X3478445Y-31289499D01*
X3474000Y-31244362D01*
X3474000Y-30505638D01*
X3478445Y-30460501D01*
X3489820Y-30423005D01*
X3508292Y-30388446D01*
X3533153Y-30358153D01*
X3563446Y-30333292D01*
X3598005Y-30314820D01*
X3635501Y-30303445D01*
X3680638Y-30299000D01*
X4319362Y-30299000D01*
X4364499Y-30303445D01*
G37*
G36*
X6364499Y-30303445D02*
G01*
X6401995Y-30314820D01*
X6436554Y-30333292D01*
X6466847Y-30358153D01*
X6491708Y-30388446D01*
X6510180Y-30423005D01*
X6521555Y-30460501D01*
X6526000Y-30505638D01*
X6526000Y-31244362D01*
X6521555Y-31289499D01*
X6510180Y-31326995D01*
X6491708Y-31361554D01*
X6466847Y-31391847D01*
X6436554Y-31416708D01*
X6401995Y-31435180D01*
X6364499Y-31446555D01*
X6319362Y-31451000D01*
X5680638Y-31451000D01*
X5635501Y-31446555D01*
X5598005Y-31435180D01*
X5563446Y-31416708D01*
X5533153Y-31391847D01*
X5508292Y-31361554D01*
X5489820Y-31326995D01*
X5478445Y-31289499D01*
X5474000Y-31244362D01*
X5474000Y-30505638D01*
X5478445Y-30460501D01*
X5489820Y-30423005D01*
X5508292Y-30388446D01*
X5533153Y-30358153D01*
X5563446Y-30333292D01*
X5598005Y-30314820D01*
X5635501Y-30303445D01*
X5680638Y-30299000D01*
X6319362Y-30299000D01*
X6364499Y-30303445D01*
G37*
G36*
X8364499Y-30303445D02*
G01*
X8401995Y-30314820D01*
X8436554Y-30333292D01*
X8466847Y-30358153D01*
X8491708Y-30388446D01*
X8510180Y-30423005D01*
X8521555Y-30460501D01*
X8526000Y-30505638D01*
X8526000Y-31244362D01*
X8521555Y-31289499D01*
X8510180Y-31326995D01*
X8491708Y-31361554D01*
X8466847Y-31391847D01*
X8436554Y-31416708D01*
X8401995Y-31435180D01*
X8364499Y-31446555D01*
X8319362Y-31451000D01*
X7680638Y-31451000D01*
X7635501Y-31446555D01*
X7598005Y-31435180D01*
X7563446Y-31416708D01*
X7533153Y-31391847D01*
X7508292Y-31361554D01*
X7489820Y-31326995D01*
X7478445Y-31289499D01*
X7474000Y-31244362D01*
X7474000Y-30505638D01*
X7478445Y-30460501D01*
X7489820Y-30423005D01*
X7508292Y-30388446D01*
X7533153Y-30358153D01*
X7563446Y-30333292D01*
X7598005Y-30314820D01*
X7635501Y-30303445D01*
X7680638Y-30299000D01*
X8319362Y-30299000D01*
X8364499Y-30303445D01*
G37*
G36*
X10364499Y-30303445D02*
G01*
X10401995Y-30314820D01*
X10436554Y-30333292D01*
X10466847Y-30358153D01*
X10491708Y-30388446D01*
X10510180Y-30423005D01*
X10521555Y-30460501D01*
X10526000Y-30505638D01*
X10526000Y-31244362D01*
X10521555Y-31289499D01*
X10510180Y-31326995D01*
X10491708Y-31361554D01*
X10466847Y-31391847D01*
X10436554Y-31416708D01*
X10401995Y-31435180D01*
X10364499Y-31446555D01*
X10319362Y-31451000D01*
X9680638Y-31451000D01*
X9635501Y-31446555D01*
X9598005Y-31435180D01*
X9563446Y-31416708D01*
X9533153Y-31391847D01*
X9508292Y-31361554D01*
X9489820Y-31326995D01*
X9478445Y-31289499D01*
X9474000Y-31244362D01*
X9474000Y-30505638D01*
X9478445Y-30460501D01*
X9489820Y-30423005D01*
X9508292Y-30388446D01*
X9533153Y-30358153D01*
X9563446Y-30333292D01*
X9598005Y-30314820D01*
X9635501Y-30303445D01*
X9680638Y-30299000D01*
X10319362Y-30299000D01*
X10364499Y-30303445D01*
G37*
G36*
X14364499Y-30303445D02*
G01*
X14401995Y-30314820D01*
X14436554Y-30333292D01*
X14466847Y-30358153D01*
X14491708Y-30388446D01*
X14510180Y-30423005D01*
X14521555Y-30460501D01*
X14526000Y-30505638D01*
X14526000Y-31244362D01*
X14521555Y-31289499D01*
X14510180Y-31326995D01*
X14491708Y-31361554D01*
X14466847Y-31391847D01*
X14436554Y-31416708D01*
X14401995Y-31435180D01*
X14364499Y-31446555D01*
X14319362Y-31451000D01*
X13680638Y-31451000D01*
X13635501Y-31446555D01*
X13598005Y-31435180D01*
X13563446Y-31416708D01*
X13533153Y-31391847D01*
X13508292Y-31361554D01*
X13489820Y-31326995D01*
X13478445Y-31289499D01*
X13474000Y-31244362D01*
X13474000Y-30505638D01*
X13478445Y-30460501D01*
X13489820Y-30423005D01*
X13508292Y-30388446D01*
X13533153Y-30358153D01*
X13563446Y-30333292D01*
X13598005Y-30314820D01*
X13635501Y-30303445D01*
X13680638Y-30299000D01*
X14319362Y-30299000D01*
X14364499Y-30303445D01*
G37*
G36*
X12364499Y-30303445D02*
G01*
X12401995Y-30314820D01*
X12436554Y-30333292D01*
X12466847Y-30358153D01*
X12491708Y-30388446D01*
X12510180Y-30423005D01*
X12521555Y-30460501D01*
X12526000Y-30505638D01*
X12526000Y-31244362D01*
X12521555Y-31289499D01*
X12510180Y-31326995D01*
X12491708Y-31361554D01*
X12466847Y-31391847D01*
X12436554Y-31416708D01*
X12401995Y-31435180D01*
X12364499Y-31446555D01*
X12319362Y-31451000D01*
X11680638Y-31451000D01*
X11635501Y-31446555D01*
X11598005Y-31435180D01*
X11563446Y-31416708D01*
X11533153Y-31391847D01*
X11508292Y-31361554D01*
X11489820Y-31326995D01*
X11478445Y-31289499D01*
X11474000Y-31244362D01*
X11474000Y-30505638D01*
X11478445Y-30460501D01*
X11489820Y-30423005D01*
X11508292Y-30388446D01*
X11533153Y-30358153D01*
X11563446Y-30333292D01*
X11598005Y-30314820D01*
X11635501Y-30303445D01*
X11680638Y-30299000D01*
X12319362Y-30299000D01*
X12364499Y-30303445D01*
G37*
G36*
X-3635501Y-28553445D02*
G01*
X-3598005Y-28564820D01*
X-3563446Y-28583292D01*
X-3533153Y-28608153D01*
X-3508292Y-28638446D01*
X-3489820Y-28673005D01*
X-3478445Y-28710501D01*
X-3474000Y-28755638D01*
X-3474000Y-29494362D01*
X-3478445Y-29539499D01*
X-3489820Y-29576995D01*
X-3508292Y-29611554D01*
X-3533153Y-29641847D01*
X-3563446Y-29666708D01*
X-3598005Y-29685180D01*
X-3635501Y-29696555D01*
X-3680638Y-29701000D01*
X-4319362Y-29701000D01*
X-4364499Y-29696555D01*
X-4401995Y-29685180D01*
X-4436554Y-29666708D01*
X-4466847Y-29641847D01*
X-4491708Y-29611554D01*
X-4510180Y-29576995D01*
X-4521555Y-29539499D01*
X-4526000Y-29494362D01*
X-4526000Y-28755638D01*
X-4521555Y-28710501D01*
X-4510180Y-28673005D01*
X-4491708Y-28638446D01*
X-4466847Y-28608153D01*
X-4436554Y-28583292D01*
X-4401995Y-28564820D01*
X-4364499Y-28553445D01*
X-4319362Y-28549000D01*
X-3680638Y-28549000D01*
X-3635501Y-28553445D01*
G37*
G36*
X-1635501Y-28553445D02*
G01*
X-1598005Y-28564820D01*
X-1563446Y-28583292D01*
X-1533153Y-28608153D01*
X-1508292Y-28638446D01*
X-1489820Y-28673005D01*
X-1478445Y-28710501D01*
X-1474000Y-28755638D01*
X-1474000Y-29494362D01*
X-1478445Y-29539499D01*
X-1489820Y-29576995D01*
X-1508292Y-29611554D01*
X-1533153Y-29641847D01*
X-1563446Y-29666708D01*
X-1598005Y-29685180D01*
X-1635501Y-29696555D01*
X-1680638Y-29701000D01*
X-2319362Y-29701000D01*
X-2364499Y-29696555D01*
X-2401995Y-29685180D01*
X-2436554Y-29666708D01*
X-2466847Y-29641847D01*
X-2491708Y-29611554D01*
X-2510180Y-29576995D01*
X-2521555Y-29539499D01*
X-2526000Y-29494362D01*
X-2526000Y-28755638D01*
X-2521555Y-28710501D01*
X-2510180Y-28673005D01*
X-2491708Y-28638446D01*
X-2466847Y-28608153D01*
X-2436554Y-28583292D01*
X-2401995Y-28564820D01*
X-2364499Y-28553445D01*
X-2319362Y-28549000D01*
X-1680638Y-28549000D01*
X-1635501Y-28553445D01*
G37*
G36*
X-5635501Y-28553445D02*
G01*
X-5598005Y-28564820D01*
X-5563446Y-28583292D01*
X-5533153Y-28608153D01*
X-5508292Y-28638446D01*
X-5489820Y-28673005D01*
X-5478445Y-28710501D01*
X-5474000Y-28755638D01*
X-5474000Y-29494362D01*
X-5478445Y-29539499D01*
X-5489820Y-29576995D01*
X-5508292Y-29611554D01*
X-5533153Y-29641847D01*
X-5563446Y-29666708D01*
X-5598005Y-29685180D01*
X-5635501Y-29696555D01*
X-5680638Y-29701000D01*
X-6319362Y-29701000D01*
X-6364499Y-29696555D01*
X-6401995Y-29685180D01*
X-6436554Y-29666708D01*
X-6466847Y-29641847D01*
X-6491708Y-29611554D01*
X-6510180Y-29576995D01*
X-6521555Y-29539499D01*
X-6526000Y-29494362D01*
X-6526000Y-28755638D01*
X-6521555Y-28710501D01*
X-6510180Y-28673005D01*
X-6491708Y-28638446D01*
X-6466847Y-28608153D01*
X-6436554Y-28583292D01*
X-6401995Y-28564820D01*
X-6364499Y-28553445D01*
X-6319362Y-28549000D01*
X-5680638Y-28549000D01*
X-5635501Y-28553445D01*
G37*
G36*
X364499Y-28553445D02*
G01*
X401995Y-28564820D01*
X436554Y-28583292D01*
X466847Y-28608153D01*
X491708Y-28638446D01*
X510180Y-28673005D01*
X521555Y-28710501D01*
X526000Y-28755638D01*
X526000Y-29494362D01*
X521555Y-29539499D01*
X510180Y-29576995D01*
X491708Y-29611554D01*
X466847Y-29641847D01*
X436554Y-29666708D01*
X401995Y-29685180D01*
X364499Y-29696555D01*
X319362Y-29701000D01*
X-319362Y-29701000D01*
X-364499Y-29696555D01*
X-401995Y-29685180D01*
X-436554Y-29666708D01*
X-466847Y-29641847D01*
X-491708Y-29611554D01*
X-510180Y-29576995D01*
X-521555Y-29539499D01*
X-526000Y-29494362D01*
X-526000Y-28755638D01*
X-521555Y-28710501D01*
X-510180Y-28673005D01*
X-491708Y-28638446D01*
X-466847Y-28608153D01*
X-436554Y-28583292D01*
X-401995Y-28564820D01*
X-364499Y-28553445D01*
X-319362Y-28549000D01*
X319362Y-28549000D01*
X364499Y-28553445D01*
G37*
G36*
X-7635501Y-28553445D02*
G01*
X-7598005Y-28564820D01*
X-7563446Y-28583292D01*
X-7533153Y-28608153D01*
X-7508292Y-28638446D01*
X-7489820Y-28673005D01*
X-7478445Y-28710501D01*
X-7474000Y-28755638D01*
X-7474000Y-29494362D01*
X-7478445Y-29539499D01*
X-7489820Y-29576995D01*
X-7508292Y-29611554D01*
X-7533153Y-29641847D01*
X-7563446Y-29666708D01*
X-7598005Y-29685180D01*
X-7635501Y-29696555D01*
X-7680638Y-29701000D01*
X-8319362Y-29701000D01*
X-8364499Y-29696555D01*
X-8401995Y-29685180D01*
X-8436554Y-29666708D01*
X-8466847Y-29641847D01*
X-8491708Y-29611554D01*
X-8510180Y-29576995D01*
X-8521555Y-29539499D01*
X-8526000Y-29494362D01*
X-8526000Y-28755638D01*
X-8521555Y-28710501D01*
X-8510180Y-28673005D01*
X-8491708Y-28638446D01*
X-8466847Y-28608153D01*
X-8436554Y-28583292D01*
X-8401995Y-28564820D01*
X-8364499Y-28553445D01*
X-8319362Y-28549000D01*
X-7680638Y-28549000D01*
X-7635501Y-28553445D01*
G37*
G36*
X2364499Y-28553445D02*
G01*
X2401995Y-28564820D01*
X2436554Y-28583292D01*
X2466847Y-28608153D01*
X2491708Y-28638446D01*
X2510180Y-28673005D01*
X2521555Y-28710501D01*
X2526000Y-28755638D01*
X2526000Y-29494362D01*
X2521555Y-29539499D01*
X2510180Y-29576995D01*
X2491708Y-29611554D01*
X2466847Y-29641847D01*
X2436554Y-29666708D01*
X2401995Y-29685180D01*
X2364499Y-29696555D01*
X2319362Y-29701000D01*
X1680638Y-29701000D01*
X1635501Y-29696555D01*
X1598005Y-29685180D01*
X1563446Y-29666708D01*
X1533153Y-29641847D01*
X1508292Y-29611554D01*
X1489820Y-29576995D01*
X1478445Y-29539499D01*
X1474000Y-29494362D01*
X1474000Y-28755638D01*
X1478445Y-28710501D01*
X1489820Y-28673005D01*
X1508292Y-28638446D01*
X1533153Y-28608153D01*
X1563446Y-28583292D01*
X1598005Y-28564820D01*
X1635501Y-28553445D01*
X1680638Y-28549000D01*
X2319362Y-28549000D01*
X2364499Y-28553445D01*
G37*
G36*
X-9635501Y-28553445D02*
G01*
X-9598005Y-28564820D01*
X-9563446Y-28583292D01*
X-9533153Y-28608153D01*
X-9508292Y-28638446D01*
X-9489820Y-28673005D01*
X-9478445Y-28710501D01*
X-9474000Y-28755638D01*
X-9474000Y-29494362D01*
X-9478445Y-29539499D01*
X-9489820Y-29576995D01*
X-9508292Y-29611554D01*
X-9533153Y-29641847D01*
X-9563446Y-29666708D01*
X-9598005Y-29685180D01*
X-9635501Y-29696555D01*
X-9680638Y-29701000D01*
X-10319362Y-29701000D01*
X-10364499Y-29696555D01*
X-10401995Y-29685180D01*
X-10436554Y-29666708D01*
X-10466847Y-29641847D01*
X-10491708Y-29611554D01*
X-10510180Y-29576995D01*
X-10521555Y-29539499D01*
X-10526000Y-29494362D01*
X-10526000Y-28755638D01*
X-10521555Y-28710501D01*
X-10510180Y-28673005D01*
X-10491708Y-28638446D01*
X-10466847Y-28608153D01*
X-10436554Y-28583292D01*
X-10401995Y-28564820D01*
X-10364499Y-28553445D01*
X-10319362Y-28549000D01*
X-9680638Y-28549000D01*
X-9635501Y-28553445D01*
G37*
G36*
X4364499Y-28553445D02*
G01*
X4401995Y-28564820D01*
X4436554Y-28583292D01*
X4466847Y-28608153D01*
X4491708Y-28638446D01*
X4510180Y-28673005D01*
X4521555Y-28710501D01*
X4526000Y-28755638D01*
X4526000Y-29494362D01*
X4521555Y-29539499D01*
X4510180Y-29576995D01*
X4491708Y-29611554D01*
X4466847Y-29641847D01*
X4436554Y-29666708D01*
X4401995Y-29685180D01*
X4364499Y-29696555D01*
X4319362Y-29701000D01*
X3680638Y-29701000D01*
X3635501Y-29696555D01*
X3598005Y-29685180D01*
X3563446Y-29666708D01*
X3533153Y-29641847D01*
X3508292Y-29611554D01*
X3489820Y-29576995D01*
X3478445Y-29539499D01*
X3474000Y-29494362D01*
X3474000Y-28755638D01*
X3478445Y-28710501D01*
X3489820Y-28673005D01*
X3508292Y-28638446D01*
X3533153Y-28608153D01*
X3563446Y-28583292D01*
X3598005Y-28564820D01*
X3635501Y-28553445D01*
X3680638Y-28549000D01*
X4319362Y-28549000D01*
X4364499Y-28553445D01*
G37*
G36*
X-11635501Y-28553445D02*
G01*
X-11598005Y-28564820D01*
X-11563446Y-28583292D01*
X-11533153Y-28608153D01*
X-11508292Y-28638446D01*
X-11489820Y-28673005D01*
X-11478445Y-28710501D01*
X-11474000Y-28755638D01*
X-11474000Y-29494362D01*
X-11478445Y-29539499D01*
X-11489820Y-29576995D01*
X-11508292Y-29611554D01*
X-11533153Y-29641847D01*
X-11563446Y-29666708D01*
X-11598005Y-29685180D01*
X-11635501Y-29696555D01*
X-11680638Y-29701000D01*
X-12319362Y-29701000D01*
X-12364499Y-29696555D01*
X-12401995Y-29685180D01*
X-12436554Y-29666708D01*
X-12466847Y-29641847D01*
X-12491708Y-29611554D01*
X-12510180Y-29576995D01*
X-12521555Y-29539499D01*
X-12526000Y-29494362D01*
X-12526000Y-28755638D01*
X-12521555Y-28710501D01*
X-12510180Y-28673005D01*
X-12491708Y-28638446D01*
X-12466847Y-28608153D01*
X-12436554Y-28583292D01*
X-12401995Y-28564820D01*
X-12364499Y-28553445D01*
X-12319362Y-28549000D01*
X-11680638Y-28549000D01*
X-11635501Y-28553445D01*
G37*
G36*
X6364499Y-28553445D02*
G01*
X6401995Y-28564820D01*
X6436554Y-28583292D01*
X6466847Y-28608153D01*
X6491708Y-28638446D01*
X6510180Y-28673005D01*
X6521555Y-28710501D01*
X6526000Y-28755638D01*
X6526000Y-29494362D01*
X6521555Y-29539499D01*
X6510180Y-29576995D01*
X6491708Y-29611554D01*
X6466847Y-29641847D01*
X6436554Y-29666708D01*
X6401995Y-29685180D01*
X6364499Y-29696555D01*
X6319362Y-29701000D01*
X5680638Y-29701000D01*
X5635501Y-29696555D01*
X5598005Y-29685180D01*
X5563446Y-29666708D01*
X5533153Y-29641847D01*
X5508292Y-29611554D01*
X5489820Y-29576995D01*
X5478445Y-29539499D01*
X5474000Y-29494362D01*
X5474000Y-28755638D01*
X5478445Y-28710501D01*
X5489820Y-28673005D01*
X5508292Y-28638446D01*
X5533153Y-28608153D01*
X5563446Y-28583292D01*
X5598005Y-28564820D01*
X5635501Y-28553445D01*
X5680638Y-28549000D01*
X6319362Y-28549000D01*
X6364499Y-28553445D01*
G37*
G36*
X-13635501Y-28553445D02*
G01*
X-13598005Y-28564820D01*
X-13563446Y-28583292D01*
X-13533153Y-28608153D01*
X-13508292Y-28638446D01*
X-13489820Y-28673005D01*
X-13478445Y-28710501D01*
X-13474000Y-28755638D01*
X-13474000Y-29494362D01*
X-13478445Y-29539499D01*
X-13489820Y-29576995D01*
X-13508292Y-29611554D01*
X-13533153Y-29641847D01*
X-13563446Y-29666708D01*
X-13598005Y-29685180D01*
X-13635501Y-29696555D01*
X-13680638Y-29701000D01*
X-14319362Y-29701000D01*
X-14364499Y-29696555D01*
X-14401995Y-29685180D01*
X-14436554Y-29666708D01*
X-14466847Y-29641847D01*
X-14491708Y-29611554D01*
X-14510180Y-29576995D01*
X-14521555Y-29539499D01*
X-14526000Y-29494362D01*
X-14526000Y-28755638D01*
X-14521555Y-28710501D01*
X-14510180Y-28673005D01*
X-14491708Y-28638446D01*
X-14466847Y-28608153D01*
X-14436554Y-28583292D01*
X-14401995Y-28564820D01*
X-14364499Y-28553445D01*
X-14319362Y-28549000D01*
X-13680638Y-28549000D01*
X-13635501Y-28553445D01*
G37*
G36*
X8364499Y-28553445D02*
G01*
X8401995Y-28564820D01*
X8436554Y-28583292D01*
X8466847Y-28608153D01*
X8491708Y-28638446D01*
X8510180Y-28673005D01*
X8521555Y-28710501D01*
X8526000Y-28755638D01*
X8526000Y-29494362D01*
X8521555Y-29539499D01*
X8510180Y-29576995D01*
X8491708Y-29611554D01*
X8466847Y-29641847D01*
X8436554Y-29666708D01*
X8401995Y-29685180D01*
X8364499Y-29696555D01*
X8319362Y-29701000D01*
X7680638Y-29701000D01*
X7635501Y-29696555D01*
X7598005Y-29685180D01*
X7563446Y-29666708D01*
X7533153Y-29641847D01*
X7508292Y-29611554D01*
X7489820Y-29576995D01*
X7478445Y-29539499D01*
X7474000Y-29494362D01*
X7474000Y-28755638D01*
X7478445Y-28710501D01*
X7489820Y-28673005D01*
X7508292Y-28638446D01*
X7533153Y-28608153D01*
X7563446Y-28583292D01*
X7598005Y-28564820D01*
X7635501Y-28553445D01*
X7680638Y-28549000D01*
X8319362Y-28549000D01*
X8364499Y-28553445D01*
G37*
G36*
X10364499Y-28553445D02*
G01*
X10401995Y-28564820D01*
X10436554Y-28583292D01*
X10466847Y-28608153D01*
X10491708Y-28638446D01*
X10510180Y-28673005D01*
X10521555Y-28710501D01*
X10526000Y-28755638D01*
X10526000Y-29494362D01*
X10521555Y-29539499D01*
X10510180Y-29576995D01*
X10491708Y-29611554D01*
X10466847Y-29641847D01*
X10436554Y-29666708D01*
X10401995Y-29685180D01*
X10364499Y-29696555D01*
X10319362Y-29701000D01*
X9680638Y-29701000D01*
X9635501Y-29696555D01*
X9598005Y-29685180D01*
X9563446Y-29666708D01*
X9533153Y-29641847D01*
X9508292Y-29611554D01*
X9489820Y-29576995D01*
X9478445Y-29539499D01*
X9474000Y-29494362D01*
X9474000Y-28755638D01*
X9478445Y-28710501D01*
X9489820Y-28673005D01*
X9508292Y-28638446D01*
X9533153Y-28608153D01*
X9563446Y-28583292D01*
X9598005Y-28564820D01*
X9635501Y-28553445D01*
X9680638Y-28549000D01*
X10319362Y-28549000D01*
X10364499Y-28553445D01*
G37*
G36*
X12364499Y-28553445D02*
G01*
X12401995Y-28564820D01*
X12436554Y-28583292D01*
X12466847Y-28608153D01*
X12491708Y-28638446D01*
X12510180Y-28673005D01*
X12521555Y-28710501D01*
X12526000Y-28755638D01*
X12526000Y-29494362D01*
X12521555Y-29539499D01*
X12510180Y-29576995D01*
X12491708Y-29611554D01*
X12466847Y-29641847D01*
X12436554Y-29666708D01*
X12401995Y-29685180D01*
X12364499Y-29696555D01*
X12319362Y-29701000D01*
X11680638Y-29701000D01*
X11635501Y-29696555D01*
X11598005Y-29685180D01*
X11563446Y-29666708D01*
X11533153Y-29641847D01*
X11508292Y-29611554D01*
X11489820Y-29576995D01*
X11478445Y-29539499D01*
X11474000Y-29494362D01*
X11474000Y-28755638D01*
X11478445Y-28710501D01*
X11489820Y-28673005D01*
X11508292Y-28638446D01*
X11533153Y-28608153D01*
X11563446Y-28583292D01*
X11598005Y-28564820D01*
X11635501Y-28553445D01*
X11680638Y-28549000D01*
X12319362Y-28549000D01*
X12364499Y-28553445D01*
G37*
G36*
X14364499Y-28553445D02*
G01*
X14401995Y-28564820D01*
X14436554Y-28583292D01*
X14466847Y-28608153D01*
X14491708Y-28638446D01*
X14510180Y-28673005D01*
X14521555Y-28710501D01*
X14526000Y-28755638D01*
X14526000Y-29494362D01*
X14521555Y-29539499D01*
X14510180Y-29576995D01*
X14491708Y-29611554D01*
X14466847Y-29641847D01*
X14436554Y-29666708D01*
X14401995Y-29685180D01*
X14364499Y-29696555D01*
X14319362Y-29701000D01*
X13680638Y-29701000D01*
X13635501Y-29696555D01*
X13598005Y-29685180D01*
X13563446Y-29666708D01*
X13533153Y-29641847D01*
X13508292Y-29611554D01*
X13489820Y-29576995D01*
X13478445Y-29539499D01*
X13474000Y-29494362D01*
X13474000Y-28755638D01*
X13478445Y-28710501D01*
X13489820Y-28673005D01*
X13508292Y-28638446D01*
X13533153Y-28608153D01*
X13563446Y-28583292D01*
X13598005Y-28564820D01*
X13635501Y-28553445D01*
X13680638Y-28549000D01*
X14319362Y-28549000D01*
X14364499Y-28553445D01*
G37*
G36*
X34426000Y-27753000D02*
G01*
X25574000Y-27753000D01*
X25574000Y-26151000D01*
X34426000Y-26151000D01*
X34426000Y-27753000D01*
G37*
G36*
X-25574000Y-27753000D02*
G01*
X-33122000Y-27753000D01*
X-33122000Y-26151000D01*
X-25574000Y-26151000D01*
X-25574000Y-27753000D01*
G37*
G36*
X-33374000Y-27753000D02*
G01*
X-34426000Y-27753000D01*
X-34426000Y-26151000D01*
X-33374000Y-26151000D01*
X-33374000Y-27753000D01*
G37*
G36*
X-14949000Y-18181713D02*
G01*
X-14946598Y-18206099D01*
X-14939485Y-18229548D01*
X-14928006Y-18251050D01*
X-14780004Y-18473053D01*
X-14771500Y-18483437D01*
X-14765148Y-18495336D01*
X-14526480Y-18853338D01*
X-14510955Y-18872296D01*
X-14492029Y-18887861D01*
X-14470431Y-18899435D01*
X-14449000Y-18905961D01*
X-14449000Y-18931712D01*
X-14446598Y-18956098D01*
X-14439485Y-18979547D01*
X-14428006Y-19001049D01*
X-14391393Y-19055968D01*
X-14393447Y-19057066D01*
X-14412389Y-19072611D01*
X-14427934Y-19091553D01*
X-14439485Y-19113164D01*
X-14446598Y-19136613D01*
X-14449000Y-19160999D01*
X-14449000Y-23011000D01*
X-16551000Y-23011000D01*
X-16551000Y-19160999D01*
X-16553402Y-19136613D01*
X-16560515Y-19113164D01*
X-16572066Y-19091553D01*
X-16587611Y-19072611D01*
X-16606553Y-19057066D01*
X-16608607Y-19055968D01*
X-16571994Y-19001049D01*
X-16560465Y-18979426D01*
X-16553376Y-18955970D01*
X-16551000Y-18931712D01*
X-16551000Y-18905949D01*
X-16529690Y-18899485D01*
X-16508079Y-18887934D01*
X-16489137Y-18872389D01*
X-16473520Y-18853338D01*
X-16234852Y-18495336D01*
X-16228507Y-18483435D01*
X-16219996Y-18473053D01*
X-16071994Y-18251050D01*
X-16060465Y-18229427D01*
X-16053376Y-18205971D01*
X-16051000Y-18181713D01*
X-16051000Y-15699000D01*
X-14949000Y-15699000D01*
X-14949000Y-18181713D01*
G37*
G36*
X-9224438Y-19240681D02*
G01*
X-9189519Y-19251274D01*
X-9157337Y-19268476D01*
X-9129127Y-19291627D01*
X-9105976Y-19319837D01*
X-9088774Y-19352019D01*
X-9078181Y-19386938D01*
X-9074000Y-19429395D01*
X-9074000Y-20570605D01*
X-9078181Y-20613062D01*
X-9088774Y-20647981D01*
X-9105976Y-20680163D01*
X-9129127Y-20708373D01*
X-9157337Y-20731524D01*
X-9189519Y-20748726D01*
X-9224438Y-20759319D01*
X-9266895Y-20763500D01*
X-10733105Y-20763500D01*
X-10775562Y-20759319D01*
X-10810481Y-20748726D01*
X-10842663Y-20731524D01*
X-10870873Y-20708373D01*
X-10894024Y-20680163D01*
X-10911226Y-20647981D01*
X-10921819Y-20613062D01*
X-10926000Y-20570605D01*
X-10926000Y-19429395D01*
X-10921819Y-19386938D01*
X-10911226Y-19352019D01*
X-10894024Y-19319837D01*
X-10870873Y-19291627D01*
X-10842663Y-19268476D01*
X-10810481Y-19251274D01*
X-10775562Y-19240681D01*
X-10733105Y-19236500D01*
X-9266895Y-19236500D01*
X-9224438Y-19240681D01*
G37*
G36*
X-3402778Y-17409867D02*
G01*
X-3261214Y-17452810D01*
X-3130748Y-17522546D01*
X-3100960Y-17546992D01*
X-3016393Y-17616393D01*
X-2969954Y-17672981D01*
X-2922546Y-17730748D01*
X-2852810Y-17861214D01*
X-2809867Y-18002778D01*
X-2799000Y-18113113D01*
X-2799000Y-18686887D01*
X-2809867Y-18797222D01*
X-2852810Y-18938785D01*
X-2852811Y-18938788D01*
X-2874533Y-18979426D01*
X-2922546Y-19069252D01*
X-2925303Y-19072611D01*
X-3016393Y-19183606D01*
X-3080585Y-19236286D01*
X-3130749Y-19277454D01*
X-3261215Y-19347190D01*
X-3402779Y-19390133D01*
X-3550000Y-19404633D01*
X-3697222Y-19390133D01*
X-3838786Y-19347190D01*
X-3969252Y-19277454D01*
X-4019155Y-19236500D01*
X-4083606Y-19183607D01*
X-4159151Y-19091553D01*
X-4177454Y-19069251D01*
X-4247190Y-18938785D01*
X-4290133Y-18797221D01*
X-4301000Y-18686886D01*
X-4301000Y-18113113D01*
X-4290133Y-18002778D01*
X-4247190Y-17861214D01*
X-4177454Y-17730748D01*
X-4144182Y-17690206D01*
X-4083606Y-17616393D01*
X-3999039Y-17546992D01*
X-3969251Y-17522546D01*
X-3838785Y-17452810D01*
X-3697221Y-17409867D01*
X-3550000Y-17395367D01*
X-3402778Y-17409867D01*
G37*
G36*
X3697222Y-17409867D02*
G01*
X3838786Y-17452810D01*
X3969252Y-17522546D01*
X3999040Y-17546992D01*
X4083607Y-17616393D01*
X4130046Y-17672981D01*
X4177454Y-17730748D01*
X4247190Y-17861214D01*
X4290133Y-18002778D01*
X4301000Y-18113113D01*
X4301000Y-18686887D01*
X4290133Y-18797222D01*
X4247190Y-18938785D01*
X4247189Y-18938788D01*
X4225467Y-18979426D01*
X4177454Y-19069252D01*
X4174697Y-19072611D01*
X4083607Y-19183606D01*
X4019415Y-19236286D01*
X3969251Y-19277454D01*
X3838785Y-19347190D01*
X3697221Y-19390133D01*
X3550000Y-19404633D01*
X3402778Y-19390133D01*
X3261214Y-19347190D01*
X3130748Y-19277454D01*
X3080845Y-19236500D01*
X3016394Y-19183607D01*
X2940849Y-19091553D01*
X2922546Y-19069251D01*
X2852810Y-18938785D01*
X2809867Y-18797221D01*
X2799000Y-18686886D01*
X2799000Y-18113113D01*
X2809867Y-18002778D01*
X2852810Y-17861214D01*
X2922546Y-17730748D01*
X2955818Y-17690206D01*
X3016394Y-17616393D01*
X3100961Y-17546992D01*
X3130749Y-17522546D01*
X3261215Y-17452810D01*
X3402779Y-17409867D01*
X3550000Y-17395367D01*
X3697222Y-17409867D01*
G37*
G36*
X-13449000Y-18301000D02*
G01*
X-14551000Y-18301000D01*
X-14551000Y-15699000D01*
X-13449000Y-15699000D01*
X-13449000Y-18301000D01*
G37*
G36*
X-16449000Y-18301000D02*
G01*
X-17551000Y-18301000D01*
X-17551000Y-15699000D01*
X-16449000Y-15699000D01*
X-16449000Y-18301000D01*
G37*
G36*
X-9224438Y-16265681D02*
G01*
X-9189519Y-16276274D01*
X-9157337Y-16293476D01*
X-9129127Y-16316627D01*
X-9105976Y-16344837D01*
X-9088774Y-16377019D01*
X-9078181Y-16411938D01*
X-9074000Y-16454395D01*
X-9074000Y-17595605D01*
X-9078181Y-17638062D01*
X-9088774Y-17672981D01*
X-9105976Y-17705163D01*
X-9129127Y-17733373D01*
X-9157337Y-17756524D01*
X-9189519Y-17773726D01*
X-9224438Y-17784319D01*
X-9266895Y-17788500D01*
X-10733105Y-17788500D01*
X-10775562Y-17784319D01*
X-10810481Y-17773726D01*
X-10842663Y-17756524D01*
X-10870873Y-17733373D01*
X-10894024Y-17705163D01*
X-10911226Y-17672981D01*
X-10921819Y-17638062D01*
X-10926000Y-17595605D01*
X-10926000Y-16454395D01*
X-10921819Y-16411938D01*
X-10911226Y-16377019D01*
X-10894024Y-16344837D01*
X-10870873Y-16316627D01*
X-10842663Y-16293476D01*
X-10810481Y-16276274D01*
X-10775562Y-16265681D01*
X-10733105Y-16261500D01*
X-9266895Y-16261500D01*
X-9224438Y-16265681D01*
G37*
G36*
X-13635501Y-13928445D02*
G01*
X-13598005Y-13939820D01*
X-13563446Y-13958292D01*
X-13533153Y-13983153D01*
X-13508292Y-14013446D01*
X-13489820Y-14048005D01*
X-13478445Y-14085501D01*
X-13474000Y-14130638D01*
X-13474000Y-14869362D01*
X-13478445Y-14914499D01*
X-13489820Y-14951995D01*
X-13508292Y-14986554D01*
X-13533153Y-15016847D01*
X-13563446Y-15041708D01*
X-13598005Y-15060180D01*
X-13635501Y-15071555D01*
X-13680638Y-15076000D01*
X-14319362Y-15076000D01*
X-14364499Y-15071555D01*
X-14401995Y-15060180D01*
X-14436554Y-15041708D01*
X-14466847Y-15016847D01*
X-14491708Y-14986554D01*
X-14510180Y-14951995D01*
X-14521555Y-14914499D01*
X-14526000Y-14869362D01*
X-14526000Y-14130638D01*
X-14521555Y-14085501D01*
X-14510180Y-14048005D01*
X-14491708Y-14013446D01*
X-14466847Y-13983153D01*
X-14436554Y-13958292D01*
X-14401995Y-13939820D01*
X-14364499Y-13928445D01*
X-14319362Y-13924000D01*
X-13680638Y-13924000D01*
X-13635501Y-13928445D01*
G37*
G36*
X-16635501Y-13928445D02*
G01*
X-16598005Y-13939820D01*
X-16563446Y-13958292D01*
X-16533153Y-13983153D01*
X-16508292Y-14013446D01*
X-16489820Y-14048005D01*
X-16478445Y-14085501D01*
X-16474000Y-14130638D01*
X-16474000Y-14869362D01*
X-16478445Y-14914499D01*
X-16489820Y-14951995D01*
X-16508292Y-14986554D01*
X-16533153Y-15016847D01*
X-16563446Y-15041708D01*
X-16598005Y-15060180D01*
X-16635501Y-15071555D01*
X-16680638Y-15076000D01*
X-17319362Y-15076000D01*
X-17364499Y-15071555D01*
X-17401995Y-15060180D01*
X-17436554Y-15041708D01*
X-17466847Y-15016847D01*
X-17491708Y-14986554D01*
X-17510180Y-14951995D01*
X-17521555Y-14914499D01*
X-17526000Y-14869362D01*
X-17526000Y-14130638D01*
X-17521555Y-14085501D01*
X-17510180Y-14048005D01*
X-17491708Y-14013446D01*
X-17466847Y-13983153D01*
X-17436554Y-13958292D01*
X-17401995Y-13939820D01*
X-17364499Y-13928445D01*
X-17319362Y-13924000D01*
X-16680638Y-13924000D01*
X-16635501Y-13928445D01*
G37*
G36*
X-799000Y-14801000D02*
G01*
X-1801000Y-14801000D01*
X-1801000Y-10199000D01*
X-799000Y-10199000D01*
X-799000Y-14801000D01*
G37*
G36*
X1801000Y-14801000D02*
G01*
X799000Y-14801000D01*
X799000Y-10199000D01*
X1801000Y-10199000D01*
X1801000Y-14801000D01*
G37*
G36*
X-28710501Y-13478445D02*
G01*
X-28673005Y-13489820D01*
X-28638446Y-13508292D01*
X-28608153Y-13533153D01*
X-28583292Y-13563446D01*
X-28564820Y-13598005D01*
X-28553445Y-13635501D01*
X-28549000Y-13680638D01*
X-28549000Y-14319362D01*
X-28553445Y-14364499D01*
X-28564820Y-14401995D01*
X-28583292Y-14436554D01*
X-28608153Y-14466847D01*
X-28638446Y-14491708D01*
X-28673005Y-14510180D01*
X-28710501Y-14521555D01*
X-28755638Y-14526000D01*
X-29494362Y-14526000D01*
X-29539499Y-14521555D01*
X-29576995Y-14510180D01*
X-29611554Y-14491708D01*
X-29641847Y-14466847D01*
X-29666708Y-14436554D01*
X-29685180Y-14401995D01*
X-29696555Y-14364499D01*
X-29701000Y-14319362D01*
X-29701000Y-13680638D01*
X-29696555Y-13635501D01*
X-29685180Y-13598005D01*
X-29666708Y-13563446D01*
X-29641847Y-13533153D01*
X-29611554Y-13508292D01*
X-29576995Y-13489820D01*
X-29539499Y-13478445D01*
X-29494362Y-13474000D01*
X-28755638Y-13474000D01*
X-28710501Y-13478445D01*
G37*
G36*
X-30460501Y-13478445D02*
G01*
X-30423005Y-13489820D01*
X-30388446Y-13508292D01*
X-30358153Y-13533153D01*
X-30333292Y-13563446D01*
X-30314820Y-13598005D01*
X-30303445Y-13635501D01*
X-30299000Y-13680638D01*
X-30299000Y-14319362D01*
X-30303445Y-14364499D01*
X-30314820Y-14401995D01*
X-30333292Y-14436554D01*
X-30358153Y-14466847D01*
X-30388446Y-14491708D01*
X-30423005Y-14510180D01*
X-30460501Y-14521555D01*
X-30505638Y-14526000D01*
X-31244362Y-14526000D01*
X-31289499Y-14521555D01*
X-31326995Y-14510180D01*
X-31361554Y-14491708D01*
X-31391847Y-14466847D01*
X-31416708Y-14436554D01*
X-31435180Y-14401995D01*
X-31446555Y-14364499D01*
X-31451000Y-14319362D01*
X-31451000Y-13680638D01*
X-31446555Y-13635501D01*
X-31435180Y-13598005D01*
X-31416708Y-13563446D01*
X-31391847Y-13533153D01*
X-31361554Y-13508292D01*
X-31326995Y-13489820D01*
X-31289499Y-13478445D01*
X-31244362Y-13474000D01*
X-30505638Y-13474000D01*
X-30460501Y-13478445D01*
G37*
G36*
X29539499Y-13478445D02*
G01*
X29576995Y-13489820D01*
X29611554Y-13508292D01*
X29641847Y-13533153D01*
X29666708Y-13563446D01*
X29685180Y-13598005D01*
X29696555Y-13635501D01*
X29701000Y-13680638D01*
X29701000Y-14319362D01*
X29696555Y-14364499D01*
X29685180Y-14401995D01*
X29666708Y-14436554D01*
X29641847Y-14466847D01*
X29611554Y-14491708D01*
X29576995Y-14510180D01*
X29539499Y-14521555D01*
X29494362Y-14526000D01*
X28755638Y-14526000D01*
X28710501Y-14521555D01*
X28673005Y-14510180D01*
X28638446Y-14491708D01*
X28608153Y-14466847D01*
X28583292Y-14436554D01*
X28564820Y-14401995D01*
X28553445Y-14364499D01*
X28549000Y-14319362D01*
X28549000Y-13680638D01*
X28553445Y-13635501D01*
X28564820Y-13598005D01*
X28583292Y-13563446D01*
X28608153Y-13533153D01*
X28638446Y-13508292D01*
X28673005Y-13489820D01*
X28710501Y-13478445D01*
X28755638Y-13474000D01*
X29494362Y-13474000D01*
X29539499Y-13478445D01*
G37*
G36*
X31289499Y-13478445D02*
G01*
X31326995Y-13489820D01*
X31361554Y-13508292D01*
X31391847Y-13533153D01*
X31416708Y-13563446D01*
X31435180Y-13598005D01*
X31446555Y-13635501D01*
X31451000Y-13680638D01*
X31451000Y-14319362D01*
X31446555Y-14364499D01*
X31435180Y-14401995D01*
X31416708Y-14436554D01*
X31391847Y-14466847D01*
X31361554Y-14491708D01*
X31326995Y-14510180D01*
X31289499Y-14521555D01*
X31244362Y-14526000D01*
X30505638Y-14526000D01*
X30460501Y-14521555D01*
X30423005Y-14510180D01*
X30388446Y-14491708D01*
X30358153Y-14466847D01*
X30333292Y-14436554D01*
X30314820Y-14401995D01*
X30303445Y-14364499D01*
X30299000Y-14319362D01*
X30299000Y-13680638D01*
X30303445Y-13635501D01*
X30314820Y-13598005D01*
X30333292Y-13563446D01*
X30358153Y-13533153D01*
X30388446Y-13508292D01*
X30423005Y-13489820D01*
X30460501Y-13478445D01*
X30505638Y-13474000D01*
X31244362Y-13474000D01*
X31289499Y-13478445D01*
G37*
G36*
X-16635501Y-12178445D02*
G01*
X-16598005Y-12189820D01*
X-16563446Y-12208292D01*
X-16533153Y-12233153D01*
X-16508292Y-12263446D01*
X-16489820Y-12298005D01*
X-16478445Y-12335501D01*
X-16474000Y-12380638D01*
X-16474000Y-13119362D01*
X-16478445Y-13164499D01*
X-16489820Y-13201995D01*
X-16508292Y-13236554D01*
X-16533153Y-13266847D01*
X-16563446Y-13291708D01*
X-16598005Y-13310180D01*
X-16635501Y-13321555D01*
X-16680638Y-13326000D01*
X-17319362Y-13326000D01*
X-17364499Y-13321555D01*
X-17401995Y-13310180D01*
X-17436554Y-13291708D01*
X-17466847Y-13266847D01*
X-17491708Y-13236554D01*
X-17510180Y-13201995D01*
X-17521555Y-13164499D01*
X-17526000Y-13119362D01*
X-17526000Y-12380638D01*
X-17521555Y-12335501D01*
X-17510180Y-12298005D01*
X-17491708Y-12263446D01*
X-17466847Y-12233153D01*
X-17436554Y-12208292D01*
X-17401995Y-12189820D01*
X-17364499Y-12178445D01*
X-17319362Y-12174000D01*
X-16680638Y-12174000D01*
X-16635501Y-12178445D01*
G37*
G36*
X-13635501Y-12178445D02*
G01*
X-13598005Y-12189820D01*
X-13563446Y-12208292D01*
X-13533153Y-12233153D01*
X-13508292Y-12263446D01*
X-13489820Y-12298005D01*
X-13478445Y-12335501D01*
X-13474000Y-12380638D01*
X-13474000Y-13119362D01*
X-13478445Y-13164499D01*
X-13489820Y-13201995D01*
X-13508292Y-13236554D01*
X-13533153Y-13266847D01*
X-13563446Y-13291708D01*
X-13598005Y-13310180D01*
X-13635501Y-13321555D01*
X-13680638Y-13326000D01*
X-14319362Y-13326000D01*
X-14364499Y-13321555D01*
X-14401995Y-13310180D01*
X-14436554Y-13291708D01*
X-14466847Y-13266847D01*
X-14491708Y-13236554D01*
X-14510180Y-13201995D01*
X-14521555Y-13164499D01*
X-14526000Y-13119362D01*
X-14526000Y-12380638D01*
X-14521555Y-12335501D01*
X-14510180Y-12298005D01*
X-14491708Y-12263446D01*
X-14466847Y-12233153D01*
X-14436554Y-12208292D01*
X-14401995Y-12189820D01*
X-14364499Y-12178445D01*
X-14319362Y-12174000D01*
X-13680638Y-12174000D01*
X-13635501Y-12178445D01*
G37*
G36*
X31289499Y-11478445D02*
G01*
X31326995Y-11489820D01*
X31361554Y-11508292D01*
X31391847Y-11533153D01*
X31416708Y-11563446D01*
X31435180Y-11598005D01*
X31446555Y-11635501D01*
X31451000Y-11680638D01*
X31451000Y-12319362D01*
X31446555Y-12364499D01*
X31435180Y-12401995D01*
X31416708Y-12436554D01*
X31391847Y-12466847D01*
X31361554Y-12491708D01*
X31326995Y-12510180D01*
X31289499Y-12521555D01*
X31244362Y-12526000D01*
X30505638Y-12526000D01*
X30460501Y-12521555D01*
X30423005Y-12510180D01*
X30388446Y-12491708D01*
X30358153Y-12466847D01*
X30333292Y-12436554D01*
X30314820Y-12401995D01*
X30303445Y-12364499D01*
X30299000Y-12319362D01*
X30299000Y-11680638D01*
X30303445Y-11635501D01*
X30314820Y-11598005D01*
X30333292Y-11563446D01*
X30358153Y-11533153D01*
X30388446Y-11508292D01*
X30423005Y-11489820D01*
X30460501Y-11478445D01*
X30505638Y-11474000D01*
X31244362Y-11474000D01*
X31289499Y-11478445D01*
G37*
G36*
X-28710501Y-11478445D02*
G01*
X-28673005Y-11489820D01*
X-28638446Y-11508292D01*
X-28608153Y-11533153D01*
X-28583292Y-11563446D01*
X-28564820Y-11598005D01*
X-28553445Y-11635501D01*
X-28549000Y-11680638D01*
X-28549000Y-12319362D01*
X-28553445Y-12364499D01*
X-28564820Y-12401995D01*
X-28583292Y-12436554D01*
X-28608153Y-12466847D01*
X-28638446Y-12491708D01*
X-28673005Y-12510180D01*
X-28710501Y-12521555D01*
X-28755638Y-12526000D01*
X-29494362Y-12526000D01*
X-29539499Y-12521555D01*
X-29576995Y-12510180D01*
X-29611554Y-12491708D01*
X-29641847Y-12466847D01*
X-29666708Y-12436554D01*
X-29685180Y-12401995D01*
X-29696555Y-12364499D01*
X-29701000Y-12319362D01*
X-29701000Y-11680638D01*
X-29696555Y-11635501D01*
X-29685180Y-11598005D01*
X-29666708Y-11563446D01*
X-29641847Y-11533153D01*
X-29611554Y-11508292D01*
X-29576995Y-11489820D01*
X-29539499Y-11478445D01*
X-29494362Y-11474000D01*
X-28755638Y-11474000D01*
X-28710501Y-11478445D01*
G37*
G36*
X29539499Y-11478445D02*
G01*
X29576995Y-11489820D01*
X29611554Y-11508292D01*
X29641847Y-11533153D01*
X29666708Y-11563446D01*
X29685180Y-11598005D01*
X29696555Y-11635501D01*
X29701000Y-11680638D01*
X29701000Y-12319362D01*
X29696555Y-12364499D01*
X29685180Y-12401995D01*
X29666708Y-12436554D01*
X29641847Y-12466847D01*
X29611554Y-12491708D01*
X29576995Y-12510180D01*
X29539499Y-12521555D01*
X29494362Y-12526000D01*
X28755638Y-12526000D01*
X28710501Y-12521555D01*
X28673005Y-12510180D01*
X28638446Y-12491708D01*
X28608153Y-12466847D01*
X28583292Y-12436554D01*
X28564820Y-12401995D01*
X28553445Y-12364499D01*
X28549000Y-12319362D01*
X28549000Y-11680638D01*
X28553445Y-11635501D01*
X28564820Y-11598005D01*
X28583292Y-11563446D01*
X28608153Y-11533153D01*
X28638446Y-11508292D01*
X28673005Y-11489820D01*
X28710501Y-11478445D01*
X28755638Y-11474000D01*
X29494362Y-11474000D01*
X29539499Y-11478445D01*
G37*
G36*
X-30460501Y-11478445D02*
G01*
X-30423005Y-11489820D01*
X-30388446Y-11508292D01*
X-30358153Y-11533153D01*
X-30333292Y-11563446D01*
X-30314820Y-11598005D01*
X-30303445Y-11635501D01*
X-30299000Y-11680638D01*
X-30299000Y-12319362D01*
X-30303445Y-12364499D01*
X-30314820Y-12401995D01*
X-30333292Y-12436554D01*
X-30358153Y-12466847D01*
X-30388446Y-12491708D01*
X-30423005Y-12510180D01*
X-30460501Y-12521555D01*
X-30505638Y-12526000D01*
X-31244362Y-12526000D01*
X-31289499Y-12521555D01*
X-31326995Y-12510180D01*
X-31361554Y-12491708D01*
X-31391847Y-12466847D01*
X-31416708Y-12436554D01*
X-31435180Y-12401995D01*
X-31446555Y-12364499D01*
X-31451000Y-12319362D01*
X-31451000Y-11680638D01*
X-31446555Y-11635501D01*
X-31435180Y-11598005D01*
X-31416708Y-11563446D01*
X-31391847Y-11533153D01*
X-31361554Y-11508292D01*
X-31326995Y-11489820D01*
X-31289499Y-11478445D01*
X-31244362Y-11474000D01*
X-30505638Y-11474000D01*
X-30460501Y-11478445D01*
G37*
G36*
X-5635501Y-9678445D02*
G01*
X-5598005Y-9689820D01*
X-5563446Y-9708292D01*
X-5533153Y-9733153D01*
X-5508292Y-9763446D01*
X-5489820Y-9798005D01*
X-5478445Y-9835501D01*
X-5474000Y-9880638D01*
X-5474000Y-10619362D01*
X-5478445Y-10664499D01*
X-5489820Y-10701995D01*
X-5508292Y-10736554D01*
X-5533153Y-10766847D01*
X-5563446Y-10791708D01*
X-5598005Y-10810180D01*
X-5635501Y-10821555D01*
X-5680638Y-10826000D01*
X-6319362Y-10826000D01*
X-6364499Y-10821555D01*
X-6401995Y-10810180D01*
X-6436554Y-10791708D01*
X-6466847Y-10766847D01*
X-6491708Y-10736554D01*
X-6510180Y-10701995D01*
X-6521555Y-10664499D01*
X-6526000Y-10619362D01*
X-6526000Y-9880638D01*
X-6521555Y-9835501D01*
X-6510180Y-9798005D01*
X-6491708Y-9763446D01*
X-6466847Y-9733153D01*
X-6436554Y-9708292D01*
X-6401995Y-9689820D01*
X-6364499Y-9678445D01*
X-6319362Y-9674000D01*
X-5680638Y-9674000D01*
X-5635501Y-9678445D01*
G37*
G36*
X-7635501Y-9678445D02*
G01*
X-7598005Y-9689820D01*
X-7563446Y-9708292D01*
X-7533153Y-9733153D01*
X-7508292Y-9763446D01*
X-7489820Y-9798005D01*
X-7478445Y-9835501D01*
X-7474000Y-9880638D01*
X-7474000Y-10619362D01*
X-7478445Y-10664499D01*
X-7489820Y-10701995D01*
X-7508292Y-10736554D01*
X-7533153Y-10766847D01*
X-7563446Y-10791708D01*
X-7598005Y-10810180D01*
X-7635501Y-10821555D01*
X-7680638Y-10826000D01*
X-8319362Y-10826000D01*
X-8364499Y-10821555D01*
X-8401995Y-10810180D01*
X-8436554Y-10791708D01*
X-8466847Y-10766847D01*
X-8491708Y-10736554D01*
X-8510180Y-10701995D01*
X-8521555Y-10664499D01*
X-8526000Y-10619362D01*
X-8526000Y-9880638D01*
X-8521555Y-9835501D01*
X-8510180Y-9798005D01*
X-8491708Y-9763446D01*
X-8466847Y-9733153D01*
X-8436554Y-9708292D01*
X-8401995Y-9689820D01*
X-8364499Y-9678445D01*
X-8319362Y-9674000D01*
X-7680638Y-9674000D01*
X-7635501Y-9678445D01*
G37*
G36*
X-28710501Y-9478445D02*
G01*
X-28673005Y-9489820D01*
X-28638446Y-9508292D01*
X-28608153Y-9533153D01*
X-28583292Y-9563446D01*
X-28564820Y-9598005D01*
X-28553445Y-9635501D01*
X-28549000Y-9680638D01*
X-28549000Y-10319362D01*
X-28553445Y-10364499D01*
X-28564820Y-10401995D01*
X-28583292Y-10436554D01*
X-28608153Y-10466847D01*
X-28638446Y-10491708D01*
X-28673005Y-10510180D01*
X-28710501Y-10521555D01*
X-28755638Y-10526000D01*
X-29494362Y-10526000D01*
X-29539499Y-10521555D01*
X-29576995Y-10510180D01*
X-29611554Y-10491708D01*
X-29641847Y-10466847D01*
X-29666708Y-10436554D01*
X-29685180Y-10401995D01*
X-29696555Y-10364499D01*
X-29701000Y-10319362D01*
X-29701000Y-9680638D01*
X-29696555Y-9635501D01*
X-29685180Y-9598005D01*
X-29666708Y-9563446D01*
X-29641847Y-9533153D01*
X-29611554Y-9508292D01*
X-29576995Y-9489820D01*
X-29539499Y-9478445D01*
X-29494362Y-9474000D01*
X-28755638Y-9474000D01*
X-28710501Y-9478445D01*
G37*
G36*
X31289499Y-9478445D02*
G01*
X31326995Y-9489820D01*
X31361554Y-9508292D01*
X31391847Y-9533153D01*
X31416708Y-9563446D01*
X31435180Y-9598005D01*
X31446555Y-9635501D01*
X31451000Y-9680638D01*
X31451000Y-10319362D01*
X31446555Y-10364499D01*
X31435180Y-10401995D01*
X31416708Y-10436554D01*
X31391847Y-10466847D01*
X31361554Y-10491708D01*
X31326995Y-10510180D01*
X31289499Y-10521555D01*
X31244362Y-10526000D01*
X30505638Y-10526000D01*
X30460501Y-10521555D01*
X30423005Y-10510180D01*
X30388446Y-10491708D01*
X30358153Y-10466847D01*
X30333292Y-10436554D01*
X30314820Y-10401995D01*
X30303445Y-10364499D01*
X30299000Y-10319362D01*
X30299000Y-9680638D01*
X30303445Y-9635501D01*
X30314820Y-9598005D01*
X30333292Y-9563446D01*
X30358153Y-9533153D01*
X30388446Y-9508292D01*
X30423005Y-9489820D01*
X30460501Y-9478445D01*
X30505638Y-9474000D01*
X31244362Y-9474000D01*
X31289499Y-9478445D01*
G37*
G36*
X29539499Y-9478445D02*
G01*
X29576995Y-9489820D01*
X29611554Y-9508292D01*
X29641847Y-9533153D01*
X29666708Y-9563446D01*
X29685180Y-9598005D01*
X29696555Y-9635501D01*
X29701000Y-9680638D01*
X29701000Y-10319362D01*
X29696555Y-10364499D01*
X29685180Y-10401995D01*
X29666708Y-10436554D01*
X29641847Y-10466847D01*
X29611554Y-10491708D01*
X29576995Y-10510180D01*
X29539499Y-10521555D01*
X29494362Y-10526000D01*
X28755638Y-10526000D01*
X28710501Y-10521555D01*
X28673005Y-10510180D01*
X28638446Y-10491708D01*
X28608153Y-10466847D01*
X28583292Y-10436554D01*
X28564820Y-10401995D01*
X28553445Y-10364499D01*
X28549000Y-10319362D01*
X28549000Y-9680638D01*
X28553445Y-9635501D01*
X28564820Y-9598005D01*
X28583292Y-9563446D01*
X28608153Y-9533153D01*
X28638446Y-9508292D01*
X28673005Y-9489820D01*
X28710501Y-9478445D01*
X28755638Y-9474000D01*
X29494362Y-9474000D01*
X29539499Y-9478445D01*
G37*
G36*
X-30460501Y-9478445D02*
G01*
X-30423005Y-9489820D01*
X-30388446Y-9508292D01*
X-30358153Y-9533153D01*
X-30333292Y-9563446D01*
X-30314820Y-9598005D01*
X-30303445Y-9635501D01*
X-30299000Y-9680638D01*
X-30299000Y-10319362D01*
X-30303445Y-10364499D01*
X-30314820Y-10401995D01*
X-30333292Y-10436554D01*
X-30358153Y-10466847D01*
X-30388446Y-10491708D01*
X-30423005Y-10510180D01*
X-30460501Y-10521555D01*
X-30505638Y-10526000D01*
X-31244362Y-10526000D01*
X-31289499Y-10521555D01*
X-31326995Y-10510180D01*
X-31361554Y-10491708D01*
X-31391847Y-10466847D01*
X-31416708Y-10436554D01*
X-31435180Y-10401995D01*
X-31446555Y-10364499D01*
X-31451000Y-10319362D01*
X-31451000Y-9680638D01*
X-31446555Y-9635501D01*
X-31435180Y-9598005D01*
X-31416708Y-9563446D01*
X-31391847Y-9533153D01*
X-31361554Y-9508292D01*
X-31326995Y-9489820D01*
X-31289499Y-9478445D01*
X-31244362Y-9474000D01*
X-30505638Y-9474000D01*
X-30460501Y-9478445D01*
G37*
G36*
X-20735501Y-7978445D02*
G01*
X-20698005Y-7989820D01*
X-20663446Y-8008292D01*
X-20633153Y-8033153D01*
X-20608292Y-8063446D01*
X-20589820Y-8098005D01*
X-20578445Y-8135501D01*
X-20574000Y-8180638D01*
X-20574000Y-8919362D01*
X-20578445Y-8964499D01*
X-20589820Y-9001995D01*
X-20608292Y-9036554D01*
X-20633153Y-9066847D01*
X-20663446Y-9091708D01*
X-20698005Y-9110180D01*
X-20735501Y-9121555D01*
X-20780638Y-9126000D01*
X-21419362Y-9126000D01*
X-21464499Y-9121555D01*
X-21501995Y-9110180D01*
X-21536554Y-9091708D01*
X-21566847Y-9066847D01*
X-21591708Y-9036554D01*
X-21610180Y-9001995D01*
X-21621555Y-8964499D01*
X-21626000Y-8919362D01*
X-21626000Y-8180638D01*
X-21621555Y-8135501D01*
X-21610180Y-8098005D01*
X-21591708Y-8063446D01*
X-21566847Y-8033153D01*
X-21536554Y-8008292D01*
X-21501995Y-7989820D01*
X-21464499Y-7978445D01*
X-21419362Y-7974000D01*
X-20780638Y-7974000D01*
X-20735501Y-7978445D01*
G37*
G36*
X-7635501Y-7928445D02*
G01*
X-7598005Y-7939820D01*
X-7563446Y-7958292D01*
X-7533153Y-7983153D01*
X-7508292Y-8013446D01*
X-7489820Y-8048005D01*
X-7478445Y-8085501D01*
X-7474000Y-8130638D01*
X-7474000Y-8869362D01*
X-7478445Y-8914499D01*
X-7489820Y-8951995D01*
X-7508292Y-8986554D01*
X-7533153Y-9016847D01*
X-7563446Y-9041708D01*
X-7598005Y-9060180D01*
X-7635501Y-9071555D01*
X-7680638Y-9076000D01*
X-8319362Y-9076000D01*
X-8364499Y-9071555D01*
X-8401995Y-9060180D01*
X-8436554Y-9041708D01*
X-8466847Y-9016847D01*
X-8491708Y-8986554D01*
X-8510180Y-8951995D01*
X-8521555Y-8914499D01*
X-8526000Y-8869362D01*
X-8526000Y-8130638D01*
X-8521555Y-8085501D01*
X-8510180Y-8048005D01*
X-8491708Y-8013446D01*
X-8466847Y-7983153D01*
X-8436554Y-7958292D01*
X-8401995Y-7939820D01*
X-8364499Y-7928445D01*
X-8319362Y-7924000D01*
X-7680638Y-7924000D01*
X-7635501Y-7928445D01*
G37*
G36*
X-5635501Y-7928445D02*
G01*
X-5598005Y-7939820D01*
X-5563446Y-7958292D01*
X-5533153Y-7983153D01*
X-5508292Y-8013446D01*
X-5489820Y-8048005D01*
X-5478445Y-8085501D01*
X-5474000Y-8130638D01*
X-5474000Y-8869362D01*
X-5478445Y-8914499D01*
X-5489820Y-8951995D01*
X-5508292Y-8986554D01*
X-5533153Y-9016847D01*
X-5563446Y-9041708D01*
X-5598005Y-9060180D01*
X-5635501Y-9071555D01*
X-5680638Y-9076000D01*
X-6319362Y-9076000D01*
X-6364499Y-9071555D01*
X-6401995Y-9060180D01*
X-6436554Y-9041708D01*
X-6466847Y-9016847D01*
X-6491708Y-8986554D01*
X-6510180Y-8951995D01*
X-6521555Y-8914499D01*
X-6526000Y-8869362D01*
X-6526000Y-8130638D01*
X-6521555Y-8085501D01*
X-6510180Y-8048005D01*
X-6491708Y-8013446D01*
X-6466847Y-7983153D01*
X-6436554Y-7958292D01*
X-6401995Y-7939820D01*
X-6364499Y-7928445D01*
X-6319362Y-7924000D01*
X-5680638Y-7924000D01*
X-5635501Y-7928445D01*
G37*
G36*
X-30460501Y-7478445D02*
G01*
X-30423005Y-7489820D01*
X-30388446Y-7508292D01*
X-30358153Y-7533153D01*
X-30333292Y-7563446D01*
X-30314820Y-7598005D01*
X-30303445Y-7635501D01*
X-30299000Y-7680638D01*
X-30299000Y-8319362D01*
X-30303445Y-8364499D01*
X-30314820Y-8401995D01*
X-30333292Y-8436554D01*
X-30358153Y-8466847D01*
X-30388446Y-8491708D01*
X-30423005Y-8510180D01*
X-30460501Y-8521555D01*
X-30505638Y-8526000D01*
X-31244362Y-8526000D01*
X-31289499Y-8521555D01*
X-31326995Y-8510180D01*
X-31361554Y-8491708D01*
X-31391847Y-8466847D01*
X-31416708Y-8436554D01*
X-31435180Y-8401995D01*
X-31446555Y-8364499D01*
X-31451000Y-8319362D01*
X-31451000Y-7680638D01*
X-31446555Y-7635501D01*
X-31435180Y-7598005D01*
X-31416708Y-7563446D01*
X-31391847Y-7533153D01*
X-31361554Y-7508292D01*
X-31326995Y-7489820D01*
X-31289499Y-7478445D01*
X-31244362Y-7474000D01*
X-30505638Y-7474000D01*
X-30460501Y-7478445D01*
G37*
G36*
X-28710501Y-7478445D02*
G01*
X-28673005Y-7489820D01*
X-28638446Y-7508292D01*
X-28608153Y-7533153D01*
X-28583292Y-7563446D01*
X-28564820Y-7598005D01*
X-28553445Y-7635501D01*
X-28549000Y-7680638D01*
X-28549000Y-8319362D01*
X-28553445Y-8364499D01*
X-28564820Y-8401995D01*
X-28583292Y-8436554D01*
X-28608153Y-8466847D01*
X-28638446Y-8491708D01*
X-28673005Y-8510180D01*
X-28710501Y-8521555D01*
X-28755638Y-8526000D01*
X-29494362Y-8526000D01*
X-29539499Y-8521555D01*
X-29576995Y-8510180D01*
X-29611554Y-8491708D01*
X-29641847Y-8466847D01*
X-29666708Y-8436554D01*
X-29685180Y-8401995D01*
X-29696555Y-8364499D01*
X-29701000Y-8319362D01*
X-29701000Y-7680638D01*
X-29696555Y-7635501D01*
X-29685180Y-7598005D01*
X-29666708Y-7563446D01*
X-29641847Y-7533153D01*
X-29611554Y-7508292D01*
X-29576995Y-7489820D01*
X-29539499Y-7478445D01*
X-29494362Y-7474000D01*
X-28755638Y-7474000D01*
X-28710501Y-7478445D01*
G37*
G36*
X29539499Y-7478445D02*
G01*
X29576995Y-7489820D01*
X29611554Y-7508292D01*
X29641847Y-7533153D01*
X29666708Y-7563446D01*
X29685180Y-7598005D01*
X29696555Y-7635501D01*
X29701000Y-7680638D01*
X29701000Y-8319362D01*
X29696555Y-8364499D01*
X29685180Y-8401995D01*
X29666708Y-8436554D01*
X29641847Y-8466847D01*
X29611554Y-8491708D01*
X29576995Y-8510180D01*
X29539499Y-8521555D01*
X29494362Y-8526000D01*
X28755638Y-8526000D01*
X28710501Y-8521555D01*
X28673005Y-8510180D01*
X28638446Y-8491708D01*
X28608153Y-8466847D01*
X28583292Y-8436554D01*
X28564820Y-8401995D01*
X28553445Y-8364499D01*
X28549000Y-8319362D01*
X28549000Y-7680638D01*
X28553445Y-7635501D01*
X28564820Y-7598005D01*
X28583292Y-7563446D01*
X28608153Y-7533153D01*
X28638446Y-7508292D01*
X28673005Y-7489820D01*
X28710501Y-7478445D01*
X28755638Y-7474000D01*
X29494362Y-7474000D01*
X29539499Y-7478445D01*
G37*
G36*
X31289499Y-7478445D02*
G01*
X31326995Y-7489820D01*
X31361554Y-7508292D01*
X31391847Y-7533153D01*
X31416708Y-7563446D01*
X31435180Y-7598005D01*
X31446555Y-7635501D01*
X31451000Y-7680638D01*
X31451000Y-8319362D01*
X31446555Y-8364499D01*
X31435180Y-8401995D01*
X31416708Y-8436554D01*
X31391847Y-8466847D01*
X31361554Y-8491708D01*
X31326995Y-8510180D01*
X31289499Y-8521555D01*
X31244362Y-8526000D01*
X30505638Y-8526000D01*
X30460501Y-8521555D01*
X30423005Y-8510180D01*
X30388446Y-8491708D01*
X30358153Y-8466847D01*
X30333292Y-8436554D01*
X30314820Y-8401995D01*
X30303445Y-8364499D01*
X30299000Y-8319362D01*
X30299000Y-7680638D01*
X30303445Y-7635501D01*
X30314820Y-7598005D01*
X30333292Y-7563446D01*
X30358153Y-7533153D01*
X30388446Y-7508292D01*
X30423005Y-7489820D01*
X30460501Y-7478445D01*
X30505638Y-7474000D01*
X31244362Y-7474000D01*
X31289499Y-7478445D01*
G37*
G36*
X-2208019Y-6537468D02*
G01*
X-2025849Y-6612926D01*
X-1861900Y-6722473D01*
X-1722473Y-6861900D01*
X-1612926Y-7025849D01*
X-1553480Y-7169362D01*
X-1537468Y-7208020D01*
X-1504938Y-7371555D01*
X-1499000Y-7401410D01*
X-1499000Y-7598590D01*
X-1537468Y-7791981D01*
X-1612926Y-7974151D01*
X-1722473Y-8138100D01*
X-1861900Y-8277527D01*
X-2025849Y-8387074D01*
X-2208019Y-8462532D01*
X-2304267Y-8481677D01*
X-2401409Y-8501000D01*
X-2598591Y-8501000D01*
X-2695733Y-8481677D01*
X-2791981Y-8462532D01*
X-2974151Y-8387074D01*
X-3138100Y-8277527D01*
X-3277527Y-8138100D01*
X-3387074Y-7974151D01*
X-3462532Y-7791981D01*
X-3501000Y-7598590D01*
X-3501000Y-7401410D01*
X-3495061Y-7371555D01*
X-3462532Y-7208020D01*
X-3446519Y-7169362D01*
X-3387074Y-7025849D01*
X-3277527Y-6861900D01*
X-3138100Y-6722473D01*
X-2974151Y-6612926D01*
X-2791981Y-6537468D01*
X-2598591Y-6499000D01*
X-2401409Y-6499000D01*
X-2208019Y-6537468D01*
G37*
G36*
X291981Y-6537468D02*
G01*
X474151Y-6612926D01*
X638100Y-6722473D01*
X777527Y-6861900D01*
X887074Y-7025849D01*
X946520Y-7169362D01*
X962532Y-7208020D01*
X995062Y-7371555D01*
X1001000Y-7401410D01*
X1001000Y-7598590D01*
X962532Y-7791981D01*
X887074Y-7974151D01*
X777527Y-8138100D01*
X638100Y-8277527D01*
X474151Y-8387074D01*
X291981Y-8462532D01*
X195733Y-8481677D01*
X98591Y-8501000D01*
X-98591Y-8501000D01*
X-195733Y-8481677D01*
X-291981Y-8462532D01*
X-474151Y-8387074D01*
X-638100Y-8277527D01*
X-777527Y-8138100D01*
X-887074Y-7974151D01*
X-962532Y-7791981D01*
X-1001000Y-7598590D01*
X-1001000Y-7401410D01*
X-995061Y-7371555D01*
X-962532Y-7208020D01*
X-946519Y-7169362D01*
X-887074Y-7025849D01*
X-777527Y-6861900D01*
X-638100Y-6722473D01*
X-474151Y-6612926D01*
X-291981Y-6537468D01*
X-98591Y-6499000D01*
X98591Y-6499000D01*
X291981Y-6537468D01*
G37*
G36*
X2791981Y-6537468D02*
G01*
X2974151Y-6612926D01*
X3138100Y-6722473D01*
X3277527Y-6861900D01*
X3387074Y-7025849D01*
X3446520Y-7169362D01*
X3462532Y-7208020D01*
X3495062Y-7371555D01*
X3501000Y-7401410D01*
X3501000Y-7598590D01*
X3462532Y-7791981D01*
X3387074Y-7974151D01*
X3277527Y-8138100D01*
X3138100Y-8277527D01*
X2974151Y-8387074D01*
X2791981Y-8462532D01*
X2695733Y-8481677D01*
X2598591Y-8501000D01*
X2401409Y-8501000D01*
X2304267Y-8481677D01*
X2208019Y-8462532D01*
X2025849Y-8387074D01*
X1861900Y-8277527D01*
X1722473Y-8138100D01*
X1612926Y-7974151D01*
X1537468Y-7791981D01*
X1499000Y-7598590D01*
X1499000Y-7401410D01*
X1504939Y-7371555D01*
X1537468Y-7208020D01*
X1553481Y-7169362D01*
X1612926Y-7025849D01*
X1722473Y-6861900D01*
X1861900Y-6722473D01*
X2025849Y-6612926D01*
X2208019Y-6537468D01*
X2401409Y-6499000D01*
X2598591Y-6499000D01*
X2791981Y-6537468D01*
G37*
G36*
X-20735501Y-6228445D02*
G01*
X-20698005Y-6239820D01*
X-20663446Y-6258292D01*
X-20633153Y-6283153D01*
X-20608292Y-6313446D01*
X-20589820Y-6348005D01*
X-20578445Y-6385501D01*
X-20574000Y-6430638D01*
X-20574000Y-7169362D01*
X-20578445Y-7214499D01*
X-20589820Y-7251995D01*
X-20608292Y-7286554D01*
X-20633153Y-7316847D01*
X-20663446Y-7341708D01*
X-20698005Y-7360180D01*
X-20735501Y-7371555D01*
X-20780638Y-7376000D01*
X-21419362Y-7376000D01*
X-21464499Y-7371555D01*
X-21501995Y-7360180D01*
X-21536554Y-7341708D01*
X-21566847Y-7316847D01*
X-21591708Y-7286554D01*
X-21610180Y-7251995D01*
X-21621555Y-7214499D01*
X-21626000Y-7169362D01*
X-21626000Y-6430638D01*
X-21621555Y-6385501D01*
X-21610180Y-6348005D01*
X-21591708Y-6313446D01*
X-21566847Y-6283153D01*
X-21536554Y-6258292D01*
X-21501995Y-6239820D01*
X-21464499Y-6228445D01*
X-21419362Y-6224000D01*
X-20780638Y-6224000D01*
X-20735501Y-6228445D01*
G37*
G36*
X-28710501Y-5478445D02*
G01*
X-28673005Y-5489820D01*
X-28638446Y-5508292D01*
X-28608153Y-5533153D01*
X-28583292Y-5563446D01*
X-28564820Y-5598005D01*
X-28553445Y-5635501D01*
X-28549000Y-5680638D01*
X-28549000Y-6319362D01*
X-28553445Y-6364499D01*
X-28564820Y-6401995D01*
X-28583292Y-6436554D01*
X-28608153Y-6466847D01*
X-28638446Y-6491708D01*
X-28673005Y-6510180D01*
X-28710501Y-6521555D01*
X-28755638Y-6526000D01*
X-29494362Y-6526000D01*
X-29539499Y-6521555D01*
X-29576995Y-6510180D01*
X-29611554Y-6491708D01*
X-29641847Y-6466847D01*
X-29666708Y-6436554D01*
X-29685180Y-6401995D01*
X-29696555Y-6364499D01*
X-29701000Y-6319362D01*
X-29701000Y-5680638D01*
X-29696555Y-5635501D01*
X-29685180Y-5598005D01*
X-29666708Y-5563446D01*
X-29641847Y-5533153D01*
X-29611554Y-5508292D01*
X-29576995Y-5489820D01*
X-29539499Y-5478445D01*
X-29494362Y-5474000D01*
X-28755638Y-5474000D01*
X-28710501Y-5478445D01*
G37*
G36*
X-30460501Y-5478445D02*
G01*
X-30423005Y-5489820D01*
X-30388446Y-5508292D01*
X-30358153Y-5533153D01*
X-30333292Y-5563446D01*
X-30314820Y-5598005D01*
X-30303445Y-5635501D01*
X-30299000Y-5680638D01*
X-30299000Y-6319362D01*
X-30303445Y-6364499D01*
X-30314820Y-6401995D01*
X-30333292Y-6436554D01*
X-30358153Y-6466847D01*
X-30388446Y-6491708D01*
X-30423005Y-6510180D01*
X-30460501Y-6521555D01*
X-30505638Y-6526000D01*
X-31244362Y-6526000D01*
X-31289499Y-6521555D01*
X-31326995Y-6510180D01*
X-31361554Y-6491708D01*
X-31391847Y-6466847D01*
X-31416708Y-6436554D01*
X-31435180Y-6401995D01*
X-31446555Y-6364499D01*
X-31451000Y-6319362D01*
X-31451000Y-5680638D01*
X-31446555Y-5635501D01*
X-31435180Y-5598005D01*
X-31416708Y-5563446D01*
X-31391847Y-5533153D01*
X-31361554Y-5508292D01*
X-31326995Y-5489820D01*
X-31289499Y-5478445D01*
X-31244362Y-5474000D01*
X-30505638Y-5474000D01*
X-30460501Y-5478445D01*
G37*
G36*
X31289499Y-5478445D02*
G01*
X31326995Y-5489820D01*
X31361554Y-5508292D01*
X31391847Y-5533153D01*
X31416708Y-5563446D01*
X31435180Y-5598005D01*
X31446555Y-5635501D01*
X31451000Y-5680638D01*
X31451000Y-6319362D01*
X31446555Y-6364499D01*
X31435180Y-6401995D01*
X31416708Y-6436554D01*
X31391847Y-6466847D01*
X31361554Y-6491708D01*
X31326995Y-6510180D01*
X31289499Y-6521555D01*
X31244362Y-6526000D01*
X30505638Y-6526000D01*
X30460501Y-6521555D01*
X30423005Y-6510180D01*
X30388446Y-6491708D01*
X30358153Y-6466847D01*
X30333292Y-6436554D01*
X30314820Y-6401995D01*
X30303445Y-6364499D01*
X30299000Y-6319362D01*
X30299000Y-5680638D01*
X30303445Y-5635501D01*
X30314820Y-5598005D01*
X30333292Y-5563446D01*
X30358153Y-5533153D01*
X30388446Y-5508292D01*
X30423005Y-5489820D01*
X30460501Y-5478445D01*
X30505638Y-5474000D01*
X31244362Y-5474000D01*
X31289499Y-5478445D01*
G37*
G36*
X29539499Y-5478445D02*
G01*
X29576995Y-5489820D01*
X29611554Y-5508292D01*
X29641847Y-5533153D01*
X29666708Y-5563446D01*
X29685180Y-5598005D01*
X29696555Y-5635501D01*
X29701000Y-5680638D01*
X29701000Y-6319362D01*
X29696555Y-6364499D01*
X29685180Y-6401995D01*
X29666708Y-6436554D01*
X29641847Y-6466847D01*
X29611554Y-6491708D01*
X29576995Y-6510180D01*
X29539499Y-6521555D01*
X29494362Y-6526000D01*
X28755638Y-6526000D01*
X28710501Y-6521555D01*
X28673005Y-6510180D01*
X28638446Y-6491708D01*
X28608153Y-6466847D01*
X28583292Y-6436554D01*
X28564820Y-6401995D01*
X28553445Y-6364499D01*
X28549000Y-6319362D01*
X28549000Y-5680638D01*
X28553445Y-5635501D01*
X28564820Y-5598005D01*
X28583292Y-5563446D01*
X28608153Y-5533153D01*
X28638446Y-5508292D01*
X28673005Y-5489820D01*
X28710501Y-5478445D01*
X28755638Y-5474000D01*
X29494362Y-5474000D01*
X29539499Y-5478445D01*
G37*
G36*
X-17899830Y-3275803D02*
G01*
X-17888125Y-3279354D01*
X-17877335Y-3285121D01*
X-17867881Y-3292881D01*
X-17860121Y-3302335D01*
X-17854354Y-3313125D01*
X-17850803Y-3324830D01*
X-17849000Y-3343138D01*
X-17849000Y-4806862D01*
X-17850803Y-4825170D01*
X-17854354Y-4836875D01*
X-17860121Y-4847665D01*
X-17867881Y-4857119D01*
X-17877335Y-4864879D01*
X-17888125Y-4870646D01*
X-17899830Y-4874197D01*
X-17918138Y-4876000D01*
X-18281862Y-4876000D01*
X-18300170Y-4874197D01*
X-18311875Y-4870646D01*
X-18322665Y-4864879D01*
X-18332119Y-4857119D01*
X-18339879Y-4847665D01*
X-18345646Y-4836875D01*
X-18349197Y-4825170D01*
X-18351000Y-4806862D01*
X-18351000Y-3343138D01*
X-18349197Y-3324830D01*
X-18345646Y-3313125D01*
X-18339879Y-3302335D01*
X-18332119Y-3292881D01*
X-18322665Y-3285121D01*
X-18311875Y-3279354D01*
X-18300170Y-3275803D01*
X-18281862Y-3274000D01*
X-17918138Y-3274000D01*
X-17899830Y-3275803D01*
G37*
G36*
X-13899830Y-3275803D02*
G01*
X-13888125Y-3279354D01*
X-13877335Y-3285121D01*
X-13867881Y-3292881D01*
X-13860121Y-3302335D01*
X-13854354Y-3313125D01*
X-13850803Y-3324830D01*
X-13849000Y-3343138D01*
X-13849000Y-4806862D01*
X-13850803Y-4825170D01*
X-13854354Y-4836875D01*
X-13860121Y-4847665D01*
X-13867881Y-4857119D01*
X-13877335Y-4864879D01*
X-13888125Y-4870646D01*
X-13899830Y-4874197D01*
X-13918138Y-4876000D01*
X-14281862Y-4876000D01*
X-14300170Y-4874197D01*
X-14311875Y-4870646D01*
X-14322665Y-4864879D01*
X-14332119Y-4857119D01*
X-14339879Y-4847665D01*
X-14345646Y-4836875D01*
X-14349197Y-4825170D01*
X-14351000Y-4806862D01*
X-14351000Y-3343138D01*
X-14349197Y-3324830D01*
X-14345646Y-3313125D01*
X-14339879Y-3302335D01*
X-14332119Y-3292881D01*
X-14322665Y-3285121D01*
X-14311875Y-3279354D01*
X-14300170Y-3275803D01*
X-14281862Y-3274000D01*
X-13918138Y-3274000D01*
X-13899830Y-3275803D01*
G37*
G36*
X-14699830Y-3275803D02*
G01*
X-14688125Y-3279354D01*
X-14677335Y-3285121D01*
X-14667881Y-3292881D01*
X-14660121Y-3302335D01*
X-14654354Y-3313125D01*
X-14650803Y-3324830D01*
X-14649000Y-3343138D01*
X-14649000Y-4806862D01*
X-14650803Y-4825170D01*
X-14654354Y-4836875D01*
X-14660121Y-4847665D01*
X-14667881Y-4857119D01*
X-14677335Y-4864879D01*
X-14688125Y-4870646D01*
X-14699830Y-4874197D01*
X-14718138Y-4876000D01*
X-15081862Y-4876000D01*
X-15100170Y-4874197D01*
X-15111875Y-4870646D01*
X-15122665Y-4864879D01*
X-15132119Y-4857119D01*
X-15139879Y-4847665D01*
X-15145646Y-4836875D01*
X-15149197Y-4825170D01*
X-15151000Y-4806862D01*
X-15151000Y-3343138D01*
X-15149197Y-3324830D01*
X-15145646Y-3313125D01*
X-15139879Y-3302335D01*
X-15132119Y-3292881D01*
X-15122665Y-3285121D01*
X-15111875Y-3279354D01*
X-15100170Y-3275803D01*
X-15081862Y-3274000D01*
X-14718138Y-3274000D01*
X-14699830Y-3275803D01*
G37*
G36*
X-15499830Y-3275803D02*
G01*
X-15488125Y-3279354D01*
X-15477335Y-3285121D01*
X-15467881Y-3292881D01*
X-15460121Y-3302335D01*
X-15454354Y-3313125D01*
X-15450803Y-3324830D01*
X-15449000Y-3343138D01*
X-15449000Y-4806862D01*
X-15450803Y-4825170D01*
X-15454354Y-4836875D01*
X-15460121Y-4847665D01*
X-15467881Y-4857119D01*
X-15477335Y-4864879D01*
X-15488125Y-4870646D01*
X-15499830Y-4874197D01*
X-15518138Y-4876000D01*
X-15881862Y-4876000D01*
X-15900170Y-4874197D01*
X-15911875Y-4870646D01*
X-15922665Y-4864879D01*
X-15932119Y-4857119D01*
X-15939879Y-4847665D01*
X-15945646Y-4836875D01*
X-15949197Y-4825170D01*
X-15951000Y-4806862D01*
X-15951000Y-3343138D01*
X-15949197Y-3324830D01*
X-15945646Y-3313125D01*
X-15939879Y-3302335D01*
X-15932119Y-3292881D01*
X-15922665Y-3285121D01*
X-15911875Y-3279354D01*
X-15900170Y-3275803D01*
X-15881862Y-3274000D01*
X-15518138Y-3274000D01*
X-15499830Y-3275803D01*
G37*
G36*
X-16299830Y-3275803D02*
G01*
X-16288125Y-3279354D01*
X-16277335Y-3285121D01*
X-16267881Y-3292881D01*
X-16260121Y-3302335D01*
X-16254354Y-3313125D01*
X-16250803Y-3324830D01*
X-16249000Y-3343138D01*
X-16249000Y-4806862D01*
X-16250803Y-4825170D01*
X-16254354Y-4836875D01*
X-16260121Y-4847665D01*
X-16267881Y-4857119D01*
X-16277335Y-4864879D01*
X-16288125Y-4870646D01*
X-16299830Y-4874197D01*
X-16318138Y-4876000D01*
X-16681862Y-4876000D01*
X-16700170Y-4874197D01*
X-16711875Y-4870646D01*
X-16722665Y-4864879D01*
X-16732119Y-4857119D01*
X-16739879Y-4847665D01*
X-16745646Y-4836875D01*
X-16749197Y-4825170D01*
X-16751000Y-4806862D01*
X-16751000Y-3343138D01*
X-16749197Y-3324830D01*
X-16745646Y-3313125D01*
X-16739879Y-3302335D01*
X-16732119Y-3292881D01*
X-16722665Y-3285121D01*
X-16711875Y-3279354D01*
X-16700170Y-3275803D01*
X-16681862Y-3274000D01*
X-16318138Y-3274000D01*
X-16299830Y-3275803D01*
G37*
G36*
X-17099830Y-3275803D02*
G01*
X-17088125Y-3279354D01*
X-17077335Y-3285121D01*
X-17067881Y-3292881D01*
X-17060121Y-3302335D01*
X-17054354Y-3313125D01*
X-17050803Y-3324830D01*
X-17049000Y-3343138D01*
X-17049000Y-4806862D01*
X-17050803Y-4825170D01*
X-17054354Y-4836875D01*
X-17060121Y-4847665D01*
X-17067881Y-4857119D01*
X-17077335Y-4864879D01*
X-17088125Y-4870646D01*
X-17099830Y-4874197D01*
X-17118138Y-4876000D01*
X-17481862Y-4876000D01*
X-17500170Y-4874197D01*
X-17511875Y-4870646D01*
X-17522665Y-4864879D01*
X-17532119Y-4857119D01*
X-17539879Y-4847665D01*
X-17545646Y-4836875D01*
X-17549197Y-4825170D01*
X-17551000Y-4806862D01*
X-17551000Y-3343138D01*
X-17549197Y-3324830D01*
X-17545646Y-3313125D01*
X-17539879Y-3302335D01*
X-17532119Y-3292881D01*
X-17522665Y-3285121D01*
X-17511875Y-3279354D01*
X-17500170Y-3275803D01*
X-17481862Y-3274000D01*
X-17118138Y-3274000D01*
X-17099830Y-3275803D01*
G37*
G36*
X-18699830Y-3275803D02*
G01*
X-18688125Y-3279354D01*
X-18677335Y-3285121D01*
X-18667881Y-3292881D01*
X-18660121Y-3302335D01*
X-18654354Y-3313125D01*
X-18650803Y-3324830D01*
X-18649000Y-3343138D01*
X-18649000Y-4806862D01*
X-18650803Y-4825170D01*
X-18654354Y-4836875D01*
X-18660121Y-4847665D01*
X-18667881Y-4857119D01*
X-18677335Y-4864879D01*
X-18688125Y-4870646D01*
X-18699830Y-4874197D01*
X-18718138Y-4876000D01*
X-19081862Y-4876000D01*
X-19100170Y-4874197D01*
X-19111875Y-4870646D01*
X-19122665Y-4864879D01*
X-19132119Y-4857119D01*
X-19139879Y-4847665D01*
X-19145646Y-4836875D01*
X-19149197Y-4825170D01*
X-19151000Y-4806862D01*
X-19151000Y-3343138D01*
X-19149197Y-3324830D01*
X-19145646Y-3313125D01*
X-19139879Y-3302335D01*
X-19132119Y-3292881D01*
X-19122665Y-3285121D01*
X-19111875Y-3279354D01*
X-19100170Y-3275803D01*
X-19081862Y-3274000D01*
X-18718138Y-3274000D01*
X-18699830Y-3275803D01*
G37*
G36*
X-19499830Y-3275803D02*
G01*
X-19488125Y-3279354D01*
X-19477335Y-3285121D01*
X-19467881Y-3292881D01*
X-19460121Y-3302335D01*
X-19454354Y-3313125D01*
X-19450803Y-3324830D01*
X-19449000Y-3343138D01*
X-19449000Y-4806862D01*
X-19450803Y-4825170D01*
X-19454354Y-4836875D01*
X-19460121Y-4847665D01*
X-19467881Y-4857119D01*
X-19477335Y-4864879D01*
X-19488125Y-4870646D01*
X-19499830Y-4874197D01*
X-19518138Y-4876000D01*
X-19881862Y-4876000D01*
X-19900170Y-4874197D01*
X-19911875Y-4870646D01*
X-19922665Y-4864879D01*
X-19932119Y-4857119D01*
X-19939879Y-4847665D01*
X-19945646Y-4836875D01*
X-19949197Y-4825170D01*
X-19951000Y-4806862D01*
X-19951000Y-3343138D01*
X-19949197Y-3324830D01*
X-19945646Y-3313125D01*
X-19939879Y-3302335D01*
X-19932119Y-3292881D01*
X-19922665Y-3285121D01*
X-19911875Y-3279354D01*
X-19900170Y-3275803D01*
X-19881862Y-3274000D01*
X-19518138Y-3274000D01*
X-19499830Y-3275803D01*
G37*
G36*
X-30460501Y-3478445D02*
G01*
X-30423005Y-3489820D01*
X-30388446Y-3508292D01*
X-30358153Y-3533153D01*
X-30333292Y-3563446D01*
X-30314820Y-3598005D01*
X-30303445Y-3635501D01*
X-30299000Y-3680638D01*
X-30299000Y-4319362D01*
X-30303445Y-4364499D01*
X-30314820Y-4401995D01*
X-30333292Y-4436554D01*
X-30358153Y-4466847D01*
X-30388446Y-4491708D01*
X-30423005Y-4510180D01*
X-30460501Y-4521555D01*
X-30505638Y-4526000D01*
X-31244362Y-4526000D01*
X-31289499Y-4521555D01*
X-31326995Y-4510180D01*
X-31361554Y-4491708D01*
X-31391847Y-4466847D01*
X-31416708Y-4436554D01*
X-31435180Y-4401995D01*
X-31446555Y-4364499D01*
X-31451000Y-4319362D01*
X-31451000Y-3680638D01*
X-31446555Y-3635501D01*
X-31435180Y-3598005D01*
X-31416708Y-3563446D01*
X-31391847Y-3533153D01*
X-31361554Y-3508292D01*
X-31326995Y-3489820D01*
X-31289499Y-3478445D01*
X-31244362Y-3474000D01*
X-30505638Y-3474000D01*
X-30460501Y-3478445D01*
G37*
G36*
X31289499Y-3478445D02*
G01*
X31326995Y-3489820D01*
X31361554Y-3508292D01*
X31391847Y-3533153D01*
X31416708Y-3563446D01*
X31435180Y-3598005D01*
X31446555Y-3635501D01*
X31451000Y-3680638D01*
X31451000Y-4319362D01*
X31446555Y-4364499D01*
X31435180Y-4401995D01*
X31416708Y-4436554D01*
X31391847Y-4466847D01*
X31361554Y-4491708D01*
X31326995Y-4510180D01*
X31289499Y-4521555D01*
X31244362Y-4526000D01*
X30505638Y-4526000D01*
X30460501Y-4521555D01*
X30423005Y-4510180D01*
X30388446Y-4491708D01*
X30358153Y-4466847D01*
X30333292Y-4436554D01*
X30314820Y-4401995D01*
X30303445Y-4364499D01*
X30299000Y-4319362D01*
X30299000Y-3680638D01*
X30303445Y-3635501D01*
X30314820Y-3598005D01*
X30333292Y-3563446D01*
X30358153Y-3533153D01*
X30388446Y-3508292D01*
X30423005Y-3489820D01*
X30460501Y-3478445D01*
X30505638Y-3474000D01*
X31244362Y-3474000D01*
X31289499Y-3478445D01*
G37*
G36*
X29539499Y-3478445D02*
G01*
X29576995Y-3489820D01*
X29611554Y-3508292D01*
X29641847Y-3533153D01*
X29666708Y-3563446D01*
X29685180Y-3598005D01*
X29696555Y-3635501D01*
X29701000Y-3680638D01*
X29701000Y-4319362D01*
X29696555Y-4364499D01*
X29685180Y-4401995D01*
X29666708Y-4436554D01*
X29641847Y-4466847D01*
X29611554Y-4491708D01*
X29576995Y-4510180D01*
X29539499Y-4521555D01*
X29494362Y-4526000D01*
X28755638Y-4526000D01*
X28710501Y-4521555D01*
X28673005Y-4510180D01*
X28638446Y-4491708D01*
X28608153Y-4466847D01*
X28583292Y-4436554D01*
X28564820Y-4401995D01*
X28553445Y-4364499D01*
X28549000Y-4319362D01*
X28549000Y-3680638D01*
X28553445Y-3635501D01*
X28564820Y-3598005D01*
X28583292Y-3563446D01*
X28608153Y-3533153D01*
X28638446Y-3508292D01*
X28673005Y-3489820D01*
X28710501Y-3478445D01*
X28755638Y-3474000D01*
X29494362Y-3474000D01*
X29539499Y-3478445D01*
G37*
G36*
X-28710501Y-3478445D02*
G01*
X-28673005Y-3489820D01*
X-28638446Y-3508292D01*
X-28608153Y-3533153D01*
X-28583292Y-3563446D01*
X-28564820Y-3598005D01*
X-28553445Y-3635501D01*
X-28549000Y-3680638D01*
X-28549000Y-4319362D01*
X-28553445Y-4364499D01*
X-28564820Y-4401995D01*
X-28583292Y-4436554D01*
X-28608153Y-4466847D01*
X-28638446Y-4491708D01*
X-28673005Y-4510180D01*
X-28710501Y-4521555D01*
X-28755638Y-4526000D01*
X-29494362Y-4526000D01*
X-29539499Y-4521555D01*
X-29576995Y-4510180D01*
X-29611554Y-4491708D01*
X-29641847Y-4466847D01*
X-29666708Y-4436554D01*
X-29685180Y-4401995D01*
X-29696555Y-4364499D01*
X-29701000Y-4319362D01*
X-29701000Y-3680638D01*
X-29696555Y-3635501D01*
X-29685180Y-3598005D01*
X-29666708Y-3563446D01*
X-29641847Y-3533153D01*
X-29611554Y-3508292D01*
X-29576995Y-3489820D01*
X-29539499Y-3478445D01*
X-29494362Y-3474000D01*
X-28755638Y-3474000D01*
X-28710501Y-3478445D01*
G37*
G36*
X1035787Y3414538D02*
G01*
X1035790Y3414537D01*
X1035789Y3414537D01*
X1682029Y3146856D01*
X2263631Y2758242D01*
X2758242Y2263631D01*
X3146856Y1682029D01*
X3336135Y1225068D01*
X3414538Y1035787D01*
X3551000Y349744D01*
X3551000Y-349744D01*
X3414538Y-1035787D01*
X3414537Y-1035789D01*
X3146856Y-1682029D01*
X2758242Y-2263631D01*
X2263631Y-2758242D01*
X1682029Y-3146856D01*
X1252361Y-3324830D01*
X1035787Y-3414538D01*
X349744Y-3551000D01*
X-349744Y-3551000D01*
X-1035787Y-3414538D01*
X-1252361Y-3324830D01*
X-1682029Y-3146856D01*
X-2263631Y-2758242D01*
X-2758242Y-2263631D01*
X-3146856Y-1682029D01*
X-3414537Y-1035789D01*
X-3414538Y-1035787D01*
X-3551000Y-349744D01*
X-3551000Y349744D01*
X-3414538Y1035787D01*
X-3336135Y1225068D01*
X-3146856Y1682029D01*
X-2758242Y2263631D01*
X-2263631Y2758242D01*
X-1682029Y3146856D01*
X-1035789Y3414537D01*
X-1035790Y3414537D01*
X-1035787Y3414538D01*
X-349744Y3551000D01*
X349744Y3551000D01*
X1035787Y3414538D01*
G37*
G36*
X-11974830Y-2450803D02*
G01*
X-11963125Y-2454354D01*
X-11952335Y-2460121D01*
X-11942881Y-2467881D01*
X-11935121Y-2477335D01*
X-11929354Y-2488125D01*
X-11925803Y-2499830D01*
X-11924000Y-2518138D01*
X-11924000Y-2881862D01*
X-11925803Y-2900170D01*
X-11929354Y-2911875D01*
X-11935121Y-2922665D01*
X-11942881Y-2932119D01*
X-11952335Y-2939879D01*
X-11963125Y-2945646D01*
X-11974830Y-2949197D01*
X-11993138Y-2951000D01*
X-13456862Y-2951000D01*
X-13475170Y-2949197D01*
X-13486875Y-2945646D01*
X-13497665Y-2939879D01*
X-13507119Y-2932119D01*
X-13514879Y-2922665D01*
X-13520646Y-2911875D01*
X-13524197Y-2900170D01*
X-13526000Y-2881862D01*
X-13526000Y-2518138D01*
X-13524197Y-2499830D01*
X-13520646Y-2488125D01*
X-13514879Y-2477335D01*
X-13507119Y-2467881D01*
X-13497665Y-2460121D01*
X-13486875Y-2454354D01*
X-13475170Y-2450803D01*
X-13456862Y-2449000D01*
X-11993138Y-2449000D01*
X-11974830Y-2450803D01*
G37*
G36*
X-20324830Y-2450803D02*
G01*
X-20313125Y-2454354D01*
X-20302335Y-2460121D01*
X-20292881Y-2467881D01*
X-20285121Y-2477335D01*
X-20279354Y-2488125D01*
X-20275803Y-2499830D01*
X-20274000Y-2518138D01*
X-20274000Y-2881862D01*
X-20275803Y-2900170D01*
X-20279354Y-2911875D01*
X-20285121Y-2922665D01*
X-20292881Y-2932119D01*
X-20302335Y-2939879D01*
X-20313125Y-2945646D01*
X-20324830Y-2949197D01*
X-20343138Y-2951000D01*
X-21806862Y-2951000D01*
X-21825170Y-2949197D01*
X-21836875Y-2945646D01*
X-21847665Y-2939879D01*
X-21857119Y-2932119D01*
X-21864879Y-2922665D01*
X-21870646Y-2911875D01*
X-21874197Y-2900170D01*
X-21876000Y-2881862D01*
X-21876000Y-2518138D01*
X-21874197Y-2499830D01*
X-21870646Y-2488125D01*
X-21864879Y-2477335D01*
X-21857119Y-2467881D01*
X-21847665Y-2460121D01*
X-21836875Y-2454354D01*
X-21825170Y-2450803D01*
X-21806862Y-2449000D01*
X-20343138Y-2449000D01*
X-20324830Y-2450803D01*
G37*
G36*
X-30460501Y-1478445D02*
G01*
X-30423005Y-1489820D01*
X-30388446Y-1508292D01*
X-30358153Y-1533153D01*
X-30333292Y-1563446D01*
X-30314820Y-1598005D01*
X-30303445Y-1635501D01*
X-30299000Y-1680638D01*
X-30299000Y-2319362D01*
X-30303445Y-2364499D01*
X-30314820Y-2401995D01*
X-30333292Y-2436554D01*
X-30358153Y-2466847D01*
X-30388446Y-2491708D01*
X-30423005Y-2510180D01*
X-30460501Y-2521555D01*
X-30505638Y-2526000D01*
X-31244362Y-2526000D01*
X-31289499Y-2521555D01*
X-31326995Y-2510180D01*
X-31361554Y-2491708D01*
X-31391847Y-2466847D01*
X-31416708Y-2436554D01*
X-31435180Y-2401995D01*
X-31446555Y-2364499D01*
X-31451000Y-2319362D01*
X-31451000Y-1680638D01*
X-31446555Y-1635501D01*
X-31435180Y-1598005D01*
X-31416708Y-1563446D01*
X-31391847Y-1533153D01*
X-31361554Y-1508292D01*
X-31326995Y-1489820D01*
X-31289499Y-1478445D01*
X-31244362Y-1474000D01*
X-30505638Y-1474000D01*
X-30460501Y-1478445D01*
G37*
G36*
X29539499Y-1478445D02*
G01*
X29576995Y-1489820D01*
X29611554Y-1508292D01*
X29641847Y-1533153D01*
X29666708Y-1563446D01*
X29685180Y-1598005D01*
X29696555Y-1635501D01*
X29701000Y-1680638D01*
X29701000Y-2319362D01*
X29696555Y-2364499D01*
X29685180Y-2401995D01*
X29666708Y-2436554D01*
X29641847Y-2466847D01*
X29611554Y-2491708D01*
X29576995Y-2510180D01*
X29539499Y-2521555D01*
X29494362Y-2526000D01*
X28755638Y-2526000D01*
X28710501Y-2521555D01*
X28673005Y-2510180D01*
X28638446Y-2491708D01*
X28608153Y-2466847D01*
X28583292Y-2436554D01*
X28564820Y-2401995D01*
X28553445Y-2364499D01*
X28549000Y-2319362D01*
X28549000Y-1680638D01*
X28553445Y-1635501D01*
X28564820Y-1598005D01*
X28583292Y-1563446D01*
X28608153Y-1533153D01*
X28638446Y-1508292D01*
X28673005Y-1489820D01*
X28710501Y-1478445D01*
X28755638Y-1474000D01*
X29494362Y-1474000D01*
X29539499Y-1478445D01*
G37*
G36*
X31289499Y-1478445D02*
G01*
X31326995Y-1489820D01*
X31361554Y-1508292D01*
X31391847Y-1533153D01*
X31416708Y-1563446D01*
X31435180Y-1598005D01*
X31446555Y-1635501D01*
X31451000Y-1680638D01*
X31451000Y-2319362D01*
X31446555Y-2364499D01*
X31435180Y-2401995D01*
X31416708Y-2436554D01*
X31391847Y-2466847D01*
X31361554Y-2491708D01*
X31326995Y-2510180D01*
X31289499Y-2521555D01*
X31244362Y-2526000D01*
X30505638Y-2526000D01*
X30460501Y-2521555D01*
X30423005Y-2510180D01*
X30388446Y-2491708D01*
X30358153Y-2466847D01*
X30333292Y-2436554D01*
X30314820Y-2401995D01*
X30303445Y-2364499D01*
X30299000Y-2319362D01*
X30299000Y-1680638D01*
X30303445Y-1635501D01*
X30314820Y-1598005D01*
X30333292Y-1563446D01*
X30358153Y-1533153D01*
X30388446Y-1508292D01*
X30423005Y-1489820D01*
X30460501Y-1478445D01*
X30505638Y-1474000D01*
X31244362Y-1474000D01*
X31289499Y-1478445D01*
G37*
G36*
X-28710501Y-1478445D02*
G01*
X-28673005Y-1489820D01*
X-28638446Y-1508292D01*
X-28608153Y-1533153D01*
X-28583292Y-1563446D01*
X-28564820Y-1598005D01*
X-28553445Y-1635501D01*
X-28549000Y-1680638D01*
X-28549000Y-2319362D01*
X-28553445Y-2364499D01*
X-28564820Y-2401995D01*
X-28583292Y-2436554D01*
X-28608153Y-2466847D01*
X-28638446Y-2491708D01*
X-28673005Y-2510180D01*
X-28710501Y-2521555D01*
X-28755638Y-2526000D01*
X-29494362Y-2526000D01*
X-29539499Y-2521555D01*
X-29576995Y-2510180D01*
X-29611554Y-2491708D01*
X-29641847Y-2466847D01*
X-29666708Y-2436554D01*
X-29685180Y-2401995D01*
X-29696555Y-2364499D01*
X-29701000Y-2319362D01*
X-29701000Y-1680638D01*
X-29696555Y-1635501D01*
X-29685180Y-1598005D01*
X-29666708Y-1563446D01*
X-29641847Y-1533153D01*
X-29611554Y-1508292D01*
X-29576995Y-1489820D01*
X-29539499Y-1478445D01*
X-29494362Y-1474000D01*
X-28755638Y-1474000D01*
X-28710501Y-1478445D01*
G37*
G36*
X-11974830Y-1650803D02*
G01*
X-11963125Y-1654354D01*
X-11952335Y-1660121D01*
X-11942881Y-1667881D01*
X-11935121Y-1677335D01*
X-11929354Y-1688125D01*
X-11925803Y-1699830D01*
X-11924000Y-1718138D01*
X-11924000Y-2081862D01*
X-11925803Y-2100170D01*
X-11929354Y-2111875D01*
X-11935121Y-2122665D01*
X-11942881Y-2132119D01*
X-11952335Y-2139879D01*
X-11963125Y-2145646D01*
X-11974830Y-2149197D01*
X-11993138Y-2151000D01*
X-13456862Y-2151000D01*
X-13475170Y-2149197D01*
X-13486875Y-2145646D01*
X-13497665Y-2139879D01*
X-13507119Y-2132119D01*
X-13514879Y-2122665D01*
X-13520646Y-2111875D01*
X-13524197Y-2100170D01*
X-13526000Y-2081862D01*
X-13526000Y-1718138D01*
X-13524197Y-1699830D01*
X-13520646Y-1688125D01*
X-13514879Y-1677335D01*
X-13507119Y-1667881D01*
X-13497665Y-1660121D01*
X-13486875Y-1654354D01*
X-13475170Y-1650803D01*
X-13456862Y-1649000D01*
X-11993138Y-1649000D01*
X-11974830Y-1650803D01*
G37*
G36*
X-20324830Y-1650803D02*
G01*
X-20313125Y-1654354D01*
X-20302335Y-1660121D01*
X-20292881Y-1667881D01*
X-20285121Y-1677335D01*
X-20279354Y-1688125D01*
X-20275803Y-1699830D01*
X-20274000Y-1718138D01*
X-20274000Y-2081862D01*
X-20275803Y-2100170D01*
X-20279354Y-2111875D01*
X-20285121Y-2122665D01*
X-20292881Y-2132119D01*
X-20302335Y-2139879D01*
X-20313125Y-2145646D01*
X-20324830Y-2149197D01*
X-20343138Y-2151000D01*
X-21806862Y-2151000D01*
X-21825170Y-2149197D01*
X-21836875Y-2145646D01*
X-21847665Y-2139879D01*
X-21857119Y-2132119D01*
X-21864879Y-2122665D01*
X-21870646Y-2111875D01*
X-21874197Y-2100170D01*
X-21876000Y-2081862D01*
X-21876000Y-1718138D01*
X-21874197Y-1699830D01*
X-21870646Y-1688125D01*
X-21864879Y-1677335D01*
X-21857119Y-1667881D01*
X-21847665Y-1660121D01*
X-21836875Y-1654354D01*
X-21825170Y-1650803D01*
X-21806862Y-1649000D01*
X-20343138Y-1649000D01*
X-20324830Y-1650803D01*
G37*
G36*
X-8063121Y-631956D02*
G01*
X-8040163Y-638921D01*
X-8018999Y-650233D01*
X-8000453Y-665453D01*
X-7985233Y-683999D01*
X-7973921Y-705163D01*
X-7966956Y-728121D01*
X-7964000Y-758140D01*
X-7964000Y-1241860D01*
X-7966956Y-1271879D01*
X-7973921Y-1294837D01*
X-7985233Y-1316001D01*
X-8000453Y-1334547D01*
X-8018999Y-1349767D01*
X-8040163Y-1361079D01*
X-8063121Y-1368044D01*
X-8093140Y-1371000D01*
X-8936860Y-1371000D01*
X-8966879Y-1368044D01*
X-8989837Y-1361079D01*
X-9011001Y-1349767D01*
X-9029547Y-1334547D01*
X-9044767Y-1316001D01*
X-9056079Y-1294837D01*
X-9063044Y-1271879D01*
X-9066000Y-1241860D01*
X-9066000Y-758140D01*
X-9063044Y-728121D01*
X-9056079Y-705163D01*
X-9044767Y-683999D01*
X-9029547Y-665453D01*
X-9011001Y-650233D01*
X-8989837Y-638921D01*
X-8966879Y-631956D01*
X-8936860Y-629000D01*
X-8093140Y-629000D01*
X-8063121Y-631956D01*
G37*
G36*
X-9433121Y-631956D02*
G01*
X-9410163Y-638921D01*
X-9388999Y-650233D01*
X-9370453Y-665453D01*
X-9355233Y-683999D01*
X-9343921Y-705163D01*
X-9336956Y-728121D01*
X-9334000Y-758140D01*
X-9334000Y-1241860D01*
X-9336956Y-1271879D01*
X-9343921Y-1294837D01*
X-9355233Y-1316001D01*
X-9370453Y-1334547D01*
X-9388999Y-1349767D01*
X-9410163Y-1361079D01*
X-9433121Y-1368044D01*
X-9463140Y-1371000D01*
X-10306860Y-1371000D01*
X-10336879Y-1368044D01*
X-10359837Y-1361079D01*
X-10381001Y-1349767D01*
X-10399547Y-1334547D01*
X-10414767Y-1316001D01*
X-10426079Y-1294837D01*
X-10433044Y-1271879D01*
X-10436000Y-1241860D01*
X-10436000Y-758140D01*
X-10433044Y-728121D01*
X-10426079Y-705163D01*
X-10414767Y-683999D01*
X-10399547Y-665453D01*
X-10381001Y-650233D01*
X-10359837Y-638921D01*
X-10336879Y-631956D01*
X-10306860Y-629000D01*
X-9463140Y-629000D01*
X-9433121Y-631956D01*
G37*
G36*
X-11974830Y-850803D02*
G01*
X-11963125Y-854354D01*
X-11952335Y-860121D01*
X-11942881Y-867881D01*
X-11935121Y-877335D01*
X-11929354Y-888125D01*
X-11925803Y-899830D01*
X-11924000Y-918138D01*
X-11924000Y-1281862D01*
X-11925803Y-1300170D01*
X-11929354Y-1311875D01*
X-11935121Y-1322665D01*
X-11942881Y-1332119D01*
X-11952335Y-1339879D01*
X-11963125Y-1345646D01*
X-11974830Y-1349197D01*
X-11993138Y-1351000D01*
X-13456862Y-1351000D01*
X-13475170Y-1349197D01*
X-13486875Y-1345646D01*
X-13497665Y-1339879D01*
X-13507119Y-1332119D01*
X-13514879Y-1322665D01*
X-13520646Y-1311875D01*
X-13524197Y-1300170D01*
X-13526000Y-1281862D01*
X-13526000Y-918138D01*
X-13524197Y-899830D01*
X-13520646Y-888125D01*
X-13514879Y-877335D01*
X-13507119Y-867881D01*
X-13497665Y-860121D01*
X-13486875Y-854354D01*
X-13475170Y-850803D01*
X-13456862Y-849000D01*
X-11993138Y-849000D01*
X-11974830Y-850803D01*
G37*
G36*
X-20324830Y-850803D02*
G01*
X-20313125Y-854354D01*
X-20302335Y-860121D01*
X-20292881Y-867881D01*
X-20285121Y-877335D01*
X-20279354Y-888125D01*
X-20275803Y-899830D01*
X-20274000Y-918138D01*
X-20274000Y-1281862D01*
X-20275803Y-1300170D01*
X-20279354Y-1311875D01*
X-20285121Y-1322665D01*
X-20292881Y-1332119D01*
X-20302335Y-1339879D01*
X-20313125Y-1345646D01*
X-20324830Y-1349197D01*
X-20343138Y-1351000D01*
X-21806862Y-1351000D01*
X-21825170Y-1349197D01*
X-21836875Y-1345646D01*
X-21847665Y-1339879D01*
X-21857119Y-1332119D01*
X-21864879Y-1322665D01*
X-21870646Y-1311875D01*
X-21874197Y-1300170D01*
X-21876000Y-1281862D01*
X-21876000Y-918138D01*
X-21874197Y-899830D01*
X-21870646Y-888125D01*
X-21864879Y-877335D01*
X-21857119Y-867881D01*
X-21847665Y-860121D01*
X-21836875Y-854354D01*
X-21825170Y-850803D01*
X-21806862Y-849000D01*
X-20343138Y-849000D01*
X-20324830Y-850803D01*
G37*
G36*
X-11974830Y-50803D02*
G01*
X-11963125Y-54354D01*
X-11952335Y-60121D01*
X-11942881Y-67881D01*
X-11935121Y-77335D01*
X-11929354Y-88125D01*
X-11925803Y-99830D01*
X-11924000Y-118138D01*
X-11924000Y-481862D01*
X-11925803Y-500170D01*
X-11929354Y-511875D01*
X-11935121Y-522665D01*
X-11942881Y-532119D01*
X-11952335Y-539879D01*
X-11963125Y-545646D01*
X-11974830Y-549197D01*
X-11993138Y-551000D01*
X-13456862Y-551000D01*
X-13475170Y-549197D01*
X-13486875Y-545646D01*
X-13497665Y-539879D01*
X-13507119Y-532119D01*
X-13514879Y-522665D01*
X-13520646Y-511875D01*
X-13524197Y-500170D01*
X-13526000Y-481862D01*
X-13526000Y-118138D01*
X-13524197Y-99830D01*
X-13520646Y-88125D01*
X-13514879Y-77335D01*
X-13507119Y-67881D01*
X-13497665Y-60121D01*
X-13486875Y-54354D01*
X-13475170Y-50803D01*
X-13456862Y-49000D01*
X-11993138Y-49000D01*
X-11974830Y-50803D01*
G37*
G36*
X-20324830Y-50803D02*
G01*
X-20313125Y-54354D01*
X-20302335Y-60121D01*
X-20292881Y-67881D01*
X-20285121Y-77335D01*
X-20279354Y-88125D01*
X-20275803Y-99830D01*
X-20274000Y-118138D01*
X-20274000Y-481862D01*
X-20275803Y-500170D01*
X-20279354Y-511875D01*
X-20285121Y-522665D01*
X-20292881Y-532119D01*
X-20302335Y-539879D01*
X-20313125Y-545646D01*
X-20324830Y-549197D01*
X-20343138Y-551000D01*
X-21806862Y-551000D01*
X-21825170Y-549197D01*
X-21836875Y-545646D01*
X-21847665Y-539879D01*
X-21857119Y-532119D01*
X-21864879Y-522665D01*
X-21870646Y-511875D01*
X-21874197Y-500170D01*
X-21876000Y-481862D01*
X-21876000Y-118138D01*
X-21874197Y-99830D01*
X-21870646Y-88125D01*
X-21864879Y-77335D01*
X-21857119Y-67881D01*
X-21847665Y-60121D01*
X-21836875Y-54354D01*
X-21825170Y-50803D01*
X-21806862Y-49000D01*
X-20343138Y-49000D01*
X-20324830Y-50803D01*
G37*
G36*
X-28710501Y521555D02*
G01*
X-28673005Y510180D01*
X-28638446Y491708D01*
X-28608153Y466847D01*
X-28583292Y436554D01*
X-28564820Y401995D01*
X-28553445Y364499D01*
X-28549000Y319362D01*
X-28549000Y-319362D01*
X-28553445Y-364499D01*
X-28564820Y-401995D01*
X-28583292Y-436554D01*
X-28608153Y-466847D01*
X-28638446Y-491708D01*
X-28673005Y-510180D01*
X-28710501Y-521555D01*
X-28755638Y-526000D01*
X-29494362Y-526000D01*
X-29539499Y-521555D01*
X-29576995Y-510180D01*
X-29611554Y-491708D01*
X-29641847Y-466847D01*
X-29666708Y-436554D01*
X-29685180Y-401995D01*
X-29696555Y-364499D01*
X-29701000Y-319362D01*
X-29701000Y319362D01*
X-29696555Y364499D01*
X-29685180Y401995D01*
X-29666708Y436554D01*
X-29641847Y466847D01*
X-29611554Y491708D01*
X-29576995Y510180D01*
X-29539499Y521555D01*
X-29494362Y526000D01*
X-28755638Y526000D01*
X-28710501Y521555D01*
G37*
G36*
X31289499Y521555D02*
G01*
X31326995Y510180D01*
X31361554Y491708D01*
X31391847Y466847D01*
X31416708Y436554D01*
X31435180Y401995D01*
X31446555Y364499D01*
X31451000Y319362D01*
X31451000Y-319362D01*
X31446555Y-364499D01*
X31435180Y-401995D01*
X31416708Y-436554D01*
X31391847Y-466847D01*
X31361554Y-491708D01*
X31326995Y-510180D01*
X31289499Y-521555D01*
X31244362Y-526000D01*
X30505638Y-526000D01*
X30460501Y-521555D01*
X30423005Y-510180D01*
X30388446Y-491708D01*
X30358153Y-466847D01*
X30333292Y-436554D01*
X30314820Y-401995D01*
X30303445Y-364499D01*
X30299000Y-319362D01*
X30299000Y319362D01*
X30303445Y364499D01*
X30314820Y401995D01*
X30333292Y436554D01*
X30358153Y466847D01*
X30388446Y491708D01*
X30423005Y510180D01*
X30460501Y521555D01*
X30505638Y526000D01*
X31244362Y526000D01*
X31289499Y521555D01*
G37*
G36*
X29539499Y521555D02*
G01*
X29576995Y510180D01*
X29611554Y491708D01*
X29641847Y466847D01*
X29666708Y436554D01*
X29685180Y401995D01*
X29696555Y364499D01*
X29701000Y319362D01*
X29701000Y-319362D01*
X29696555Y-364499D01*
X29685180Y-401995D01*
X29666708Y-436554D01*
X29641847Y-466847D01*
X29611554Y-491708D01*
X29576995Y-510180D01*
X29539499Y-521555D01*
X29494362Y-526000D01*
X28755638Y-526000D01*
X28710501Y-521555D01*
X28673005Y-510180D01*
X28638446Y-491708D01*
X28608153Y-466847D01*
X28583292Y-436554D01*
X28564820Y-401995D01*
X28553445Y-364499D01*
X28549000Y-319362D01*
X28549000Y319362D01*
X28553445Y364499D01*
X28564820Y401995D01*
X28583292Y436554D01*
X28608153Y466847D01*
X28638446Y491708D01*
X28673005Y510180D01*
X28710501Y521555D01*
X28755638Y526000D01*
X29494362Y526000D01*
X29539499Y521555D01*
G37*
G36*
X-30460501Y521555D02*
G01*
X-30423005Y510180D01*
X-30388446Y491708D01*
X-30358153Y466847D01*
X-30333292Y436554D01*
X-30314820Y401995D01*
X-30303445Y364499D01*
X-30299000Y319362D01*
X-30299000Y-319362D01*
X-30303445Y-364499D01*
X-30314820Y-401995D01*
X-30333292Y-436554D01*
X-30358153Y-466847D01*
X-30388446Y-491708D01*
X-30423005Y-510180D01*
X-30460501Y-521555D01*
X-30505638Y-526000D01*
X-31244362Y-526000D01*
X-31289499Y-521555D01*
X-31326995Y-510180D01*
X-31361554Y-491708D01*
X-31391847Y-466847D01*
X-31416708Y-436554D01*
X-31435180Y-401995D01*
X-31446555Y-364499D01*
X-31451000Y-319362D01*
X-31451000Y319362D01*
X-31446555Y364499D01*
X-31435180Y401995D01*
X-31416708Y436554D01*
X-31391847Y466847D01*
X-31361554Y491708D01*
X-31326995Y510180D01*
X-31289499Y521555D01*
X-31244362Y526000D01*
X-30505638Y526000D01*
X-30460501Y521555D01*
G37*
G36*
X-7199000Y74000D02*
G01*
X-8501000Y74000D01*
X-8501000Y1526000D01*
X-7199000Y1526000D01*
X-7199000Y74000D01*
G37*
G36*
X-9299000Y74000D02*
G01*
X-10601000Y74000D01*
X-10601000Y1526000D01*
X-9299000Y1526000D01*
X-9299000Y74000D01*
G37*
G36*
X-20324830Y749197D02*
G01*
X-20313125Y745646D01*
X-20302335Y739879D01*
X-20292881Y732119D01*
X-20285121Y722665D01*
X-20279354Y711875D01*
X-20275803Y700170D01*
X-20274000Y681862D01*
X-20274000Y318138D01*
X-20275803Y299830D01*
X-20279354Y288125D01*
X-20285121Y277335D01*
X-20292881Y267881D01*
X-20302335Y260121D01*
X-20313125Y254354D01*
X-20324830Y250803D01*
X-20343138Y249000D01*
X-21806862Y249000D01*
X-21825170Y250803D01*
X-21836875Y254354D01*
X-21847665Y260121D01*
X-21857119Y267881D01*
X-21864879Y277335D01*
X-21870646Y288125D01*
X-21874197Y299830D01*
X-21876000Y318138D01*
X-21876000Y681862D01*
X-21874197Y700170D01*
X-21870646Y711875D01*
X-21864879Y722665D01*
X-21857119Y732119D01*
X-21847665Y739879D01*
X-21836875Y745646D01*
X-21825170Y749197D01*
X-21806862Y751000D01*
X-20343138Y751000D01*
X-20324830Y749197D01*
G37*
G36*
X-11974830Y749197D02*
G01*
X-11963125Y745646D01*
X-11952335Y739879D01*
X-11942881Y732119D01*
X-11935121Y722665D01*
X-11929354Y711875D01*
X-11925803Y700170D01*
X-11924000Y681862D01*
X-11924000Y318138D01*
X-11925803Y299830D01*
X-11929354Y288125D01*
X-11935121Y277335D01*
X-11942881Y267881D01*
X-11952335Y260121D01*
X-11963125Y254354D01*
X-11974830Y250803D01*
X-11993138Y249000D01*
X-13456862Y249000D01*
X-13475170Y250803D01*
X-13486875Y254354D01*
X-13497665Y260121D01*
X-13507119Y267881D01*
X-13514879Y277335D01*
X-13520646Y288125D01*
X-13524197Y299830D01*
X-13526000Y318138D01*
X-13526000Y681862D01*
X-13524197Y700170D01*
X-13520646Y711875D01*
X-13514879Y722665D01*
X-13507119Y732119D01*
X-13497665Y739879D01*
X-13486875Y745646D01*
X-13475170Y749197D01*
X-13456862Y751000D01*
X-11993138Y751000D01*
X-11974830Y749197D01*
G37*
G36*
X-20324830Y1549197D02*
G01*
X-20313125Y1545646D01*
X-20302335Y1539879D01*
X-20292881Y1532119D01*
X-20285121Y1522665D01*
X-20279354Y1511875D01*
X-20275803Y1500170D01*
X-20274000Y1481862D01*
X-20274000Y1118138D01*
X-20275803Y1099830D01*
X-20279354Y1088125D01*
X-20285121Y1077335D01*
X-20292881Y1067881D01*
X-20302335Y1060121D01*
X-20313125Y1054354D01*
X-20324830Y1050803D01*
X-20343138Y1049000D01*
X-21806862Y1049000D01*
X-21825170Y1050803D01*
X-21836875Y1054354D01*
X-21847665Y1060121D01*
X-21857119Y1067881D01*
X-21864879Y1077335D01*
X-21870646Y1088125D01*
X-21874197Y1099830D01*
X-21876000Y1118138D01*
X-21876000Y1481862D01*
X-21874197Y1500170D01*
X-21870646Y1511875D01*
X-21864879Y1522665D01*
X-21857119Y1532119D01*
X-21847665Y1539879D01*
X-21836875Y1545646D01*
X-21825170Y1549197D01*
X-21806862Y1551000D01*
X-20343138Y1551000D01*
X-20324830Y1549197D01*
G37*
G36*
X-11974830Y1549197D02*
G01*
X-11963125Y1545646D01*
X-11952335Y1539879D01*
X-11942881Y1532119D01*
X-11935121Y1522665D01*
X-11929354Y1511875D01*
X-11925803Y1500170D01*
X-11924000Y1481862D01*
X-11924000Y1118138D01*
X-11925803Y1099830D01*
X-11929354Y1088125D01*
X-11935121Y1077335D01*
X-11942881Y1067881D01*
X-11952335Y1060121D01*
X-11963125Y1054354D01*
X-11974830Y1050803D01*
X-11993138Y1049000D01*
X-13456862Y1049000D01*
X-13475170Y1050803D01*
X-13486875Y1054354D01*
X-13497665Y1060121D01*
X-13507119Y1067881D01*
X-13514879Y1077335D01*
X-13520646Y1088125D01*
X-13524197Y1099830D01*
X-13526000Y1118138D01*
X-13526000Y1481862D01*
X-13524197Y1500170D01*
X-13520646Y1511875D01*
X-13514879Y1522665D01*
X-13507119Y1532119D01*
X-13497665Y1539879D01*
X-13486875Y1545646D01*
X-13475170Y1549197D01*
X-13456862Y1551000D01*
X-11993138Y1551000D01*
X-11974830Y1549197D01*
G37*
G36*
X31289499Y2521555D02*
G01*
X31326995Y2510180D01*
X31361554Y2491708D01*
X31391847Y2466847D01*
X31416708Y2436554D01*
X31435180Y2401995D01*
X31446555Y2364499D01*
X31451000Y2319362D01*
X31451000Y1680638D01*
X31446555Y1635501D01*
X31435180Y1598005D01*
X31416708Y1563446D01*
X31391847Y1533153D01*
X31361554Y1508292D01*
X31326995Y1489820D01*
X31289499Y1478445D01*
X31244362Y1474000D01*
X30505638Y1474000D01*
X30460501Y1478445D01*
X30423005Y1489820D01*
X30388446Y1508292D01*
X30358153Y1533153D01*
X30333292Y1563446D01*
X30314820Y1598005D01*
X30303445Y1635501D01*
X30299000Y1680638D01*
X30299000Y2319362D01*
X30303445Y2364499D01*
X30314820Y2401995D01*
X30333292Y2436554D01*
X30358153Y2466847D01*
X30388446Y2491708D01*
X30423005Y2510180D01*
X30460501Y2521555D01*
X30505638Y2526000D01*
X31244362Y2526000D01*
X31289499Y2521555D01*
G37*
G36*
X29539499Y2521555D02*
G01*
X29576995Y2510180D01*
X29611554Y2491708D01*
X29641847Y2466847D01*
X29666708Y2436554D01*
X29685180Y2401995D01*
X29696555Y2364499D01*
X29701000Y2319362D01*
X29701000Y1680638D01*
X29696555Y1635501D01*
X29685180Y1598005D01*
X29666708Y1563446D01*
X29641847Y1533153D01*
X29611554Y1508292D01*
X29576995Y1489820D01*
X29539499Y1478445D01*
X29494362Y1474000D01*
X28755638Y1474000D01*
X28710501Y1478445D01*
X28673005Y1489820D01*
X28638446Y1508292D01*
X28608153Y1533153D01*
X28583292Y1563446D01*
X28564820Y1598005D01*
X28553445Y1635501D01*
X28549000Y1680638D01*
X28549000Y2319362D01*
X28553445Y2364499D01*
X28564820Y2401995D01*
X28583292Y2436554D01*
X28608153Y2466847D01*
X28638446Y2491708D01*
X28673005Y2510180D01*
X28710501Y2521555D01*
X28755638Y2526000D01*
X29494362Y2526000D01*
X29539499Y2521555D01*
G37*
G36*
X-28710501Y2521555D02*
G01*
X-28673005Y2510180D01*
X-28638446Y2491708D01*
X-28608153Y2466847D01*
X-28583292Y2436554D01*
X-28564820Y2401995D01*
X-28553445Y2364499D01*
X-28549000Y2319362D01*
X-28549000Y1680638D01*
X-28553445Y1635501D01*
X-28564820Y1598005D01*
X-28583292Y1563446D01*
X-28608153Y1533153D01*
X-28638446Y1508292D01*
X-28673005Y1489820D01*
X-28710501Y1478445D01*
X-28755638Y1474000D01*
X-29494362Y1474000D01*
X-29539499Y1478445D01*
X-29576995Y1489820D01*
X-29611554Y1508292D01*
X-29641847Y1533153D01*
X-29666708Y1563446D01*
X-29685180Y1598005D01*
X-29696555Y1635501D01*
X-29701000Y1680638D01*
X-29701000Y2319362D01*
X-29696555Y2364499D01*
X-29685180Y2401995D01*
X-29666708Y2436554D01*
X-29641847Y2466847D01*
X-29611554Y2491708D01*
X-29576995Y2510180D01*
X-29539499Y2521555D01*
X-29494362Y2526000D01*
X-28755638Y2526000D01*
X-28710501Y2521555D01*
G37*
G36*
X-30460501Y2521555D02*
G01*
X-30423005Y2510180D01*
X-30388446Y2491708D01*
X-30358153Y2466847D01*
X-30333292Y2436554D01*
X-30314820Y2401995D01*
X-30303445Y2364499D01*
X-30299000Y2319362D01*
X-30299000Y1680638D01*
X-30303445Y1635501D01*
X-30314820Y1598005D01*
X-30333292Y1563446D01*
X-30358153Y1533153D01*
X-30388446Y1508292D01*
X-30423005Y1489820D01*
X-30460501Y1478445D01*
X-30505638Y1474000D01*
X-31244362Y1474000D01*
X-31289499Y1478445D01*
X-31326995Y1489820D01*
X-31361554Y1508292D01*
X-31391847Y1533153D01*
X-31416708Y1563446D01*
X-31435180Y1598005D01*
X-31446555Y1635501D01*
X-31451000Y1680638D01*
X-31451000Y2319362D01*
X-31446555Y2364499D01*
X-31435180Y2401995D01*
X-31416708Y2436554D01*
X-31391847Y2466847D01*
X-31361554Y2491708D01*
X-31326995Y2510180D01*
X-31289499Y2521555D01*
X-31244362Y2526000D01*
X-30505638Y2526000D01*
X-30460501Y2521555D01*
G37*
G36*
X-11974830Y2349197D02*
G01*
X-11963125Y2345646D01*
X-11952335Y2339879D01*
X-11942881Y2332119D01*
X-11935121Y2322665D01*
X-11929354Y2311875D01*
X-11925803Y2300170D01*
X-11924000Y2281862D01*
X-11924000Y1918138D01*
X-11925803Y1899830D01*
X-11929354Y1888125D01*
X-11935121Y1877335D01*
X-11942881Y1867881D01*
X-11952335Y1860121D01*
X-11963125Y1854354D01*
X-11974830Y1850803D01*
X-11993138Y1849000D01*
X-13456862Y1849000D01*
X-13475170Y1850803D01*
X-13486875Y1854354D01*
X-13497665Y1860121D01*
X-13507119Y1867881D01*
X-13514879Y1877335D01*
X-13520646Y1888125D01*
X-13524197Y1899830D01*
X-13526000Y1918138D01*
X-13526000Y2281862D01*
X-13524197Y2300170D01*
X-13520646Y2311875D01*
X-13514879Y2322665D01*
X-13507119Y2332119D01*
X-13497665Y2339879D01*
X-13486875Y2345646D01*
X-13475170Y2349197D01*
X-13456862Y2351000D01*
X-11993138Y2351000D01*
X-11974830Y2349197D01*
G37*
G36*
X-20324830Y2349197D02*
G01*
X-20313125Y2345646D01*
X-20302335Y2339879D01*
X-20292881Y2332119D01*
X-20285121Y2322665D01*
X-20279354Y2311875D01*
X-20275803Y2300170D01*
X-20274000Y2281862D01*
X-20274000Y1918138D01*
X-20275803Y1899830D01*
X-20279354Y1888125D01*
X-20285121Y1877335D01*
X-20292881Y1867881D01*
X-20302335Y1860121D01*
X-20313125Y1854354D01*
X-20324830Y1850803D01*
X-20343138Y1849000D01*
X-21806862Y1849000D01*
X-21825170Y1850803D01*
X-21836875Y1854354D01*
X-21847665Y1860121D01*
X-21857119Y1867881D01*
X-21864879Y1877335D01*
X-21870646Y1888125D01*
X-21874197Y1899830D01*
X-21876000Y1918138D01*
X-21876000Y2281862D01*
X-21874197Y2300170D01*
X-21870646Y2311875D01*
X-21864879Y2322665D01*
X-21857119Y2332119D01*
X-21847665Y2339879D01*
X-21836875Y2345646D01*
X-21825170Y2349197D01*
X-21806862Y2351000D01*
X-20343138Y2351000D01*
X-20324830Y2349197D01*
G37*
G36*
X-11974830Y3149197D02*
G01*
X-11963125Y3145646D01*
X-11952335Y3139879D01*
X-11942881Y3132119D01*
X-11935121Y3122665D01*
X-11929354Y3111875D01*
X-11925803Y3100170D01*
X-11924000Y3081862D01*
X-11924000Y2718138D01*
X-11925803Y2699830D01*
X-11929354Y2688125D01*
X-11935121Y2677335D01*
X-11942881Y2667881D01*
X-11952335Y2660121D01*
X-11963125Y2654354D01*
X-11974830Y2650803D01*
X-11993138Y2649000D01*
X-13456862Y2649000D01*
X-13475170Y2650803D01*
X-13486875Y2654354D01*
X-13497665Y2660121D01*
X-13507119Y2667881D01*
X-13514879Y2677335D01*
X-13520646Y2688125D01*
X-13524197Y2699830D01*
X-13526000Y2718138D01*
X-13526000Y3081862D01*
X-13524197Y3100170D01*
X-13520646Y3111875D01*
X-13514879Y3122665D01*
X-13507119Y3132119D01*
X-13497665Y3139879D01*
X-13486875Y3145646D01*
X-13475170Y3149197D01*
X-13456862Y3151000D01*
X-11993138Y3151000D01*
X-11974830Y3149197D01*
G37*
G36*
X-20324830Y3149197D02*
G01*
X-20313125Y3145646D01*
X-20302335Y3139879D01*
X-20292881Y3132119D01*
X-20285121Y3122665D01*
X-20279354Y3111875D01*
X-20275803Y3100170D01*
X-20274000Y3081862D01*
X-20274000Y2718138D01*
X-20275803Y2699830D01*
X-20279354Y2688125D01*
X-20285121Y2677335D01*
X-20292881Y2667881D01*
X-20302335Y2660121D01*
X-20313125Y2654354D01*
X-20324830Y2650803D01*
X-20343138Y2649000D01*
X-21806862Y2649000D01*
X-21825170Y2650803D01*
X-21836875Y2654354D01*
X-21847665Y2660121D01*
X-21857119Y2667881D01*
X-21864879Y2677335D01*
X-21870646Y2688125D01*
X-21874197Y2699830D01*
X-21876000Y2718138D01*
X-21876000Y3081862D01*
X-21874197Y3100170D01*
X-21870646Y3111875D01*
X-21864879Y3122665D01*
X-21857119Y3132119D01*
X-21847665Y3139879D01*
X-21836875Y3145646D01*
X-21825170Y3149197D01*
X-21806862Y3151000D01*
X-20343138Y3151000D01*
X-20324830Y3149197D01*
G37*
G36*
X-9299000Y2674000D02*
G01*
X-10601000Y2674000D01*
X-10601000Y4126000D01*
X-9299000Y4126000D01*
X-9299000Y2674000D01*
G37*
G36*
X-7199000Y2674000D02*
G01*
X-8501000Y2674000D01*
X-8501000Y4126000D01*
X-7199000Y4126000D01*
X-7199000Y2674000D01*
G37*
G36*
X-17899830Y5074197D02*
G01*
X-17888125Y5070646D01*
X-17877335Y5064879D01*
X-17867881Y5057119D01*
X-17860121Y5047665D01*
X-17854354Y5036875D01*
X-17850803Y5025170D01*
X-17849000Y5006862D01*
X-17849000Y3543138D01*
X-17850803Y3524830D01*
X-17854354Y3513125D01*
X-17860121Y3502335D01*
X-17867881Y3492881D01*
X-17877335Y3485121D01*
X-17888125Y3479354D01*
X-17899830Y3475803D01*
X-17918138Y3474000D01*
X-18281862Y3474000D01*
X-18300170Y3475803D01*
X-18311875Y3479354D01*
X-18322665Y3485121D01*
X-18332119Y3492881D01*
X-18339879Y3502335D01*
X-18345646Y3513125D01*
X-18349197Y3524830D01*
X-18351000Y3543138D01*
X-18351000Y5006862D01*
X-18349197Y5025170D01*
X-18345646Y5036875D01*
X-18339879Y5047665D01*
X-18332119Y5057119D01*
X-18322665Y5064879D01*
X-18311875Y5070646D01*
X-18300170Y5074197D01*
X-18281862Y5076000D01*
X-17918138Y5076000D01*
X-17899830Y5074197D01*
G37*
G36*
X-28710501Y4521555D02*
G01*
X-28673005Y4510180D01*
X-28638446Y4491708D01*
X-28608153Y4466847D01*
X-28583292Y4436554D01*
X-28564820Y4401995D01*
X-28553445Y4364499D01*
X-28549000Y4319362D01*
X-28549000Y3680638D01*
X-28553445Y3635501D01*
X-28564820Y3598005D01*
X-28583292Y3563446D01*
X-28608153Y3533153D01*
X-28638446Y3508292D01*
X-28673005Y3489820D01*
X-28710501Y3478445D01*
X-28755638Y3474000D01*
X-29494362Y3474000D01*
X-29539499Y3478445D01*
X-29576995Y3489820D01*
X-29611554Y3508292D01*
X-29641847Y3533153D01*
X-29666708Y3563446D01*
X-29685180Y3598005D01*
X-29696555Y3635501D01*
X-29701000Y3680638D01*
X-29701000Y4319362D01*
X-29696555Y4364499D01*
X-29685180Y4401995D01*
X-29666708Y4436554D01*
X-29641847Y4466847D01*
X-29611554Y4491708D01*
X-29576995Y4510180D01*
X-29539499Y4521555D01*
X-29494362Y4526000D01*
X-28755638Y4526000D01*
X-28710501Y4521555D01*
G37*
G36*
X-30460501Y4521555D02*
G01*
X-30423005Y4510180D01*
X-30388446Y4491708D01*
X-30358153Y4466847D01*
X-30333292Y4436554D01*
X-30314820Y4401995D01*
X-30303445Y4364499D01*
X-30299000Y4319362D01*
X-30299000Y3680638D01*
X-30303445Y3635501D01*
X-30314820Y3598005D01*
X-30333292Y3563446D01*
X-30358153Y3533153D01*
X-30388446Y3508292D01*
X-30423005Y3489820D01*
X-30460501Y3478445D01*
X-30505638Y3474000D01*
X-31244362Y3474000D01*
X-31289499Y3478445D01*
X-31326995Y3489820D01*
X-31361554Y3508292D01*
X-31391847Y3533153D01*
X-31416708Y3563446D01*
X-31435180Y3598005D01*
X-31446555Y3635501D01*
X-31451000Y3680638D01*
X-31451000Y4319362D01*
X-31446555Y4364499D01*
X-31435180Y4401995D01*
X-31416708Y4436554D01*
X-31391847Y4466847D01*
X-31361554Y4491708D01*
X-31326995Y4510180D01*
X-31289499Y4521555D01*
X-31244362Y4526000D01*
X-30505638Y4526000D01*
X-30460501Y4521555D01*
G37*
G36*
X-19499830Y5074197D02*
G01*
X-19488125Y5070646D01*
X-19477335Y5064879D01*
X-19467881Y5057119D01*
X-19460121Y5047665D01*
X-19454354Y5036875D01*
X-19450803Y5025170D01*
X-19449000Y5006862D01*
X-19449000Y3543138D01*
X-19450803Y3524830D01*
X-19454354Y3513125D01*
X-19460121Y3502335D01*
X-19467881Y3492881D01*
X-19477335Y3485121D01*
X-19488125Y3479354D01*
X-19499830Y3475803D01*
X-19518138Y3474000D01*
X-19881862Y3474000D01*
X-19900170Y3475803D01*
X-19911875Y3479354D01*
X-19922665Y3485121D01*
X-19932119Y3492881D01*
X-19939879Y3502335D01*
X-19945646Y3513125D01*
X-19949197Y3524830D01*
X-19951000Y3543138D01*
X-19951000Y5006862D01*
X-19949197Y5025170D01*
X-19945646Y5036875D01*
X-19939879Y5047665D01*
X-19932119Y5057119D01*
X-19922665Y5064879D01*
X-19911875Y5070646D01*
X-19900170Y5074197D01*
X-19881862Y5076000D01*
X-19518138Y5076000D01*
X-19499830Y5074197D01*
G37*
G36*
X-18699830Y5074197D02*
G01*
X-18688125Y5070646D01*
X-18677335Y5064879D01*
X-18667881Y5057119D01*
X-18660121Y5047665D01*
X-18654354Y5036875D01*
X-18650803Y5025170D01*
X-18649000Y5006862D01*
X-18649000Y3543138D01*
X-18650803Y3524830D01*
X-18654354Y3513125D01*
X-18660121Y3502335D01*
X-18667881Y3492881D01*
X-18677335Y3485121D01*
X-18688125Y3479354D01*
X-18699830Y3475803D01*
X-18718138Y3474000D01*
X-19081862Y3474000D01*
X-19100170Y3475803D01*
X-19111875Y3479354D01*
X-19122665Y3485121D01*
X-19132119Y3492881D01*
X-19139879Y3502335D01*
X-19145646Y3513125D01*
X-19149197Y3524830D01*
X-19151000Y3543138D01*
X-19151000Y5006862D01*
X-19149197Y5025170D01*
X-19145646Y5036875D01*
X-19139879Y5047665D01*
X-19132119Y5057119D01*
X-19122665Y5064879D01*
X-19111875Y5070646D01*
X-19100170Y5074197D01*
X-19081862Y5076000D01*
X-18718138Y5076000D01*
X-18699830Y5074197D01*
G37*
G36*
X-17099830Y5074197D02*
G01*
X-17088125Y5070646D01*
X-17077335Y5064879D01*
X-17067881Y5057119D01*
X-17060121Y5047665D01*
X-17054354Y5036875D01*
X-17050803Y5025170D01*
X-17049000Y5006862D01*
X-17049000Y3543138D01*
X-17050803Y3524830D01*
X-17054354Y3513125D01*
X-17060121Y3502335D01*
X-17067881Y3492881D01*
X-17077335Y3485121D01*
X-17088125Y3479354D01*
X-17099830Y3475803D01*
X-17118138Y3474000D01*
X-17481862Y3474000D01*
X-17500170Y3475803D01*
X-17511875Y3479354D01*
X-17522665Y3485121D01*
X-17532119Y3492881D01*
X-17539879Y3502335D01*
X-17545646Y3513125D01*
X-17549197Y3524830D01*
X-17551000Y3543138D01*
X-17551000Y5006862D01*
X-17549197Y5025170D01*
X-17545646Y5036875D01*
X-17539879Y5047665D01*
X-17532119Y5057119D01*
X-17522665Y5064879D01*
X-17511875Y5070646D01*
X-17500170Y5074197D01*
X-17481862Y5076000D01*
X-17118138Y5076000D01*
X-17099830Y5074197D01*
G37*
G36*
X-16299830Y5074197D02*
G01*
X-16288125Y5070646D01*
X-16277335Y5064879D01*
X-16267881Y5057119D01*
X-16260121Y5047665D01*
X-16254354Y5036875D01*
X-16250803Y5025170D01*
X-16249000Y5006862D01*
X-16249000Y3543138D01*
X-16250803Y3524830D01*
X-16254354Y3513125D01*
X-16260121Y3502335D01*
X-16267881Y3492881D01*
X-16277335Y3485121D01*
X-16288125Y3479354D01*
X-16299830Y3475803D01*
X-16318138Y3474000D01*
X-16681862Y3474000D01*
X-16700170Y3475803D01*
X-16711875Y3479354D01*
X-16722665Y3485121D01*
X-16732119Y3492881D01*
X-16739879Y3502335D01*
X-16745646Y3513125D01*
X-16749197Y3524830D01*
X-16751000Y3543138D01*
X-16751000Y5006862D01*
X-16749197Y5025170D01*
X-16745646Y5036875D01*
X-16739879Y5047665D01*
X-16732119Y5057119D01*
X-16722665Y5064879D01*
X-16711875Y5070646D01*
X-16700170Y5074197D01*
X-16681862Y5076000D01*
X-16318138Y5076000D01*
X-16299830Y5074197D01*
G37*
G36*
X-15499830Y5074197D02*
G01*
X-15488125Y5070646D01*
X-15477335Y5064879D01*
X-15467881Y5057119D01*
X-15460121Y5047665D01*
X-15454354Y5036875D01*
X-15450803Y5025170D01*
X-15449000Y5006862D01*
X-15449000Y3543138D01*
X-15450803Y3524830D01*
X-15454354Y3513125D01*
X-15460121Y3502335D01*
X-15467881Y3492881D01*
X-15477335Y3485121D01*
X-15488125Y3479354D01*
X-15499830Y3475803D01*
X-15518138Y3474000D01*
X-15881862Y3474000D01*
X-15900170Y3475803D01*
X-15911875Y3479354D01*
X-15922665Y3485121D01*
X-15932119Y3492881D01*
X-15939879Y3502335D01*
X-15945646Y3513125D01*
X-15949197Y3524830D01*
X-15951000Y3543138D01*
X-15951000Y5006862D01*
X-15949197Y5025170D01*
X-15945646Y5036875D01*
X-15939879Y5047665D01*
X-15932119Y5057119D01*
X-15922665Y5064879D01*
X-15911875Y5070646D01*
X-15900170Y5074197D01*
X-15881862Y5076000D01*
X-15518138Y5076000D01*
X-15499830Y5074197D01*
G37*
G36*
X-14699830Y5074197D02*
G01*
X-14688125Y5070646D01*
X-14677335Y5064879D01*
X-14667881Y5057119D01*
X-14660121Y5047665D01*
X-14654354Y5036875D01*
X-14650803Y5025170D01*
X-14649000Y5006862D01*
X-14649000Y3543138D01*
X-14650803Y3524830D01*
X-14654354Y3513125D01*
X-14660121Y3502335D01*
X-14667881Y3492881D01*
X-14677335Y3485121D01*
X-14688125Y3479354D01*
X-14699830Y3475803D01*
X-14718138Y3474000D01*
X-15081862Y3474000D01*
X-15100170Y3475803D01*
X-15111875Y3479354D01*
X-15122665Y3485121D01*
X-15132119Y3492881D01*
X-15139879Y3502335D01*
X-15145646Y3513125D01*
X-15149197Y3524830D01*
X-15151000Y3543138D01*
X-15151000Y5006862D01*
X-15149197Y5025170D01*
X-15145646Y5036875D01*
X-15139879Y5047665D01*
X-15132119Y5057119D01*
X-15122665Y5064879D01*
X-15111875Y5070646D01*
X-15100170Y5074197D01*
X-15081862Y5076000D01*
X-14718138Y5076000D01*
X-14699830Y5074197D01*
G37*
G36*
X-13899830Y5074197D02*
G01*
X-13888125Y5070646D01*
X-13877335Y5064879D01*
X-13867881Y5057119D01*
X-13860121Y5047665D01*
X-13854354Y5036875D01*
X-13850803Y5025170D01*
X-13849000Y5006862D01*
X-13849000Y3543138D01*
X-13850803Y3524830D01*
X-13854354Y3513125D01*
X-13860121Y3502335D01*
X-13867881Y3492881D01*
X-13877335Y3485121D01*
X-13888125Y3479354D01*
X-13899830Y3475803D01*
X-13918138Y3474000D01*
X-14281862Y3474000D01*
X-14300170Y3475803D01*
X-14311875Y3479354D01*
X-14322665Y3485121D01*
X-14332119Y3492881D01*
X-14339879Y3502335D01*
X-14345646Y3513125D01*
X-14349197Y3524830D01*
X-14351000Y3543138D01*
X-14351000Y5006862D01*
X-14349197Y5025170D01*
X-14345646Y5036875D01*
X-14339879Y5047665D01*
X-14332119Y5057119D01*
X-14322665Y5064879D01*
X-14311875Y5070646D01*
X-14300170Y5074197D01*
X-14281862Y5076000D01*
X-13918138Y5076000D01*
X-13899830Y5074197D01*
G37*
G36*
X29539499Y4521555D02*
G01*
X29576995Y4510180D01*
X29611554Y4491708D01*
X29641847Y4466847D01*
X29666708Y4436554D01*
X29685180Y4401995D01*
X29696555Y4364499D01*
X29701000Y4319362D01*
X29701000Y3680638D01*
X29696555Y3635501D01*
X29685180Y3598005D01*
X29666708Y3563446D01*
X29641847Y3533153D01*
X29611554Y3508292D01*
X29576995Y3489820D01*
X29539499Y3478445D01*
X29494362Y3474000D01*
X28755638Y3474000D01*
X28710501Y3478445D01*
X28673005Y3489820D01*
X28638446Y3508292D01*
X28608153Y3533153D01*
X28583292Y3563446D01*
X28564820Y3598005D01*
X28553445Y3635501D01*
X28549000Y3680638D01*
X28549000Y4319362D01*
X28553445Y4364499D01*
X28564820Y4401995D01*
X28583292Y4436554D01*
X28608153Y4466847D01*
X28638446Y4491708D01*
X28673005Y4510180D01*
X28710501Y4521555D01*
X28755638Y4526000D01*
X29494362Y4526000D01*
X29539499Y4521555D01*
G37*
G36*
X31289499Y4521555D02*
G01*
X31326995Y4510180D01*
X31361554Y4491708D01*
X31391847Y4466847D01*
X31416708Y4436554D01*
X31435180Y4401995D01*
X31446555Y4364499D01*
X31451000Y4319362D01*
X31451000Y3680638D01*
X31446555Y3635501D01*
X31435180Y3598005D01*
X31416708Y3563446D01*
X31391847Y3533153D01*
X31361554Y3508292D01*
X31326995Y3489820D01*
X31289499Y3478445D01*
X31244362Y3474000D01*
X30505638Y3474000D01*
X30460501Y3478445D01*
X30423005Y3489820D01*
X30388446Y3508292D01*
X30358153Y3533153D01*
X30333292Y3563446D01*
X30314820Y3598005D01*
X30303445Y3635501D01*
X30299000Y3680638D01*
X30299000Y4319362D01*
X30303445Y4364499D01*
X30314820Y4401995D01*
X30333292Y4436554D01*
X30358153Y4466847D01*
X30388446Y4491708D01*
X30423005Y4510180D01*
X30460501Y4521555D01*
X30505638Y4526000D01*
X31244362Y4526000D01*
X31289499Y4521555D01*
G37*
G36*
X-7463121Y5568044D02*
G01*
X-7440163Y5561079D01*
X-7418999Y5549767D01*
X-7400453Y5534547D01*
X-7385233Y5516001D01*
X-7373921Y5494837D01*
X-7366956Y5471879D01*
X-7364000Y5441860D01*
X-7364000Y4958140D01*
X-7366956Y4928121D01*
X-7373921Y4905163D01*
X-7385233Y4883999D01*
X-7400453Y4865453D01*
X-7418999Y4850233D01*
X-7440163Y4838921D01*
X-7463121Y4831956D01*
X-7493140Y4829000D01*
X-8336860Y4829000D01*
X-8366879Y4831956D01*
X-8389837Y4838921D01*
X-8411001Y4850233D01*
X-8429547Y4865453D01*
X-8444767Y4883999D01*
X-8456079Y4905163D01*
X-8463044Y4928121D01*
X-8466000Y4958140D01*
X-8466000Y5441860D01*
X-8463044Y5471879D01*
X-8456079Y5494837D01*
X-8444767Y5516001D01*
X-8429547Y5534547D01*
X-8411001Y5549767D01*
X-8389837Y5561079D01*
X-8366879Y5568044D01*
X-8336860Y5571000D01*
X-7493140Y5571000D01*
X-7463121Y5568044D01*
G37*
G36*
X-8833121Y5568044D02*
G01*
X-8810163Y5561079D01*
X-8788999Y5549767D01*
X-8770453Y5534547D01*
X-8755233Y5516001D01*
X-8743921Y5494837D01*
X-8736956Y5471879D01*
X-8734000Y5441860D01*
X-8734000Y4958140D01*
X-8736956Y4928121D01*
X-8743921Y4905163D01*
X-8755233Y4883999D01*
X-8770453Y4865453D01*
X-8788999Y4850233D01*
X-8810163Y4838921D01*
X-8833121Y4831956D01*
X-8863140Y4829000D01*
X-9706860Y4829000D01*
X-9736879Y4831956D01*
X-9759837Y4838921D01*
X-9781001Y4850233D01*
X-9799547Y4865453D01*
X-9814767Y4883999D01*
X-9826079Y4905163D01*
X-9833044Y4928121D01*
X-9836000Y4958140D01*
X-9836000Y5441860D01*
X-9833044Y5471879D01*
X-9826079Y5494837D01*
X-9814767Y5516001D01*
X-9799547Y5534547D01*
X-9781001Y5549767D01*
X-9759837Y5561079D01*
X-9736879Y5568044D01*
X-9706860Y5571000D01*
X-8863140Y5571000D01*
X-8833121Y5568044D01*
G37*
G36*
X29539499Y6521555D02*
G01*
X29576995Y6510180D01*
X29611554Y6491708D01*
X29641847Y6466847D01*
X29666708Y6436554D01*
X29685180Y6401995D01*
X29696555Y6364499D01*
X29701000Y6319362D01*
X29701000Y5680638D01*
X29696555Y5635501D01*
X29685180Y5598005D01*
X29666708Y5563446D01*
X29641847Y5533153D01*
X29611554Y5508292D01*
X29576995Y5489820D01*
X29539499Y5478445D01*
X29494362Y5474000D01*
X28755638Y5474000D01*
X28710501Y5478445D01*
X28673005Y5489820D01*
X28638446Y5508292D01*
X28608153Y5533153D01*
X28583292Y5563446D01*
X28564820Y5598005D01*
X28553445Y5635501D01*
X28549000Y5680638D01*
X28549000Y6319362D01*
X28553445Y6364499D01*
X28564820Y6401995D01*
X28583292Y6436554D01*
X28608153Y6466847D01*
X28638446Y6491708D01*
X28673005Y6510180D01*
X28710501Y6521555D01*
X28755638Y6526000D01*
X29494362Y6526000D01*
X29539499Y6521555D01*
G37*
G36*
X31289499Y6521555D02*
G01*
X31326995Y6510180D01*
X31361554Y6491708D01*
X31391847Y6466847D01*
X31416708Y6436554D01*
X31435180Y6401995D01*
X31446555Y6364499D01*
X31451000Y6319362D01*
X31451000Y5680638D01*
X31446555Y5635501D01*
X31435180Y5598005D01*
X31416708Y5563446D01*
X31391847Y5533153D01*
X31361554Y5508292D01*
X31326995Y5489820D01*
X31289499Y5478445D01*
X31244362Y5474000D01*
X30505638Y5474000D01*
X30460501Y5478445D01*
X30423005Y5489820D01*
X30388446Y5508292D01*
X30358153Y5533153D01*
X30333292Y5563446D01*
X30314820Y5598005D01*
X30303445Y5635501D01*
X30299000Y5680638D01*
X30299000Y6319362D01*
X30303445Y6364499D01*
X30314820Y6401995D01*
X30333292Y6436554D01*
X30358153Y6466847D01*
X30388446Y6491708D01*
X30423005Y6510180D01*
X30460501Y6521555D01*
X30505638Y6526000D01*
X31244362Y6526000D01*
X31289499Y6521555D01*
G37*
G36*
X-30460501Y6521555D02*
G01*
X-30423005Y6510180D01*
X-30388446Y6491708D01*
X-30358153Y6466847D01*
X-30333292Y6436554D01*
X-30314820Y6401995D01*
X-30303445Y6364499D01*
X-30299000Y6319362D01*
X-30299000Y5680638D01*
X-30303445Y5635501D01*
X-30314820Y5598005D01*
X-30333292Y5563446D01*
X-30358153Y5533153D01*
X-30388446Y5508292D01*
X-30423005Y5489820D01*
X-30460501Y5478445D01*
X-30505638Y5474000D01*
X-31244362Y5474000D01*
X-31289499Y5478445D01*
X-31326995Y5489820D01*
X-31361554Y5508292D01*
X-31391847Y5533153D01*
X-31416708Y5563446D01*
X-31435180Y5598005D01*
X-31446555Y5635501D01*
X-31451000Y5680638D01*
X-31451000Y6319362D01*
X-31446555Y6364499D01*
X-31435180Y6401995D01*
X-31416708Y6436554D01*
X-31391847Y6466847D01*
X-31361554Y6491708D01*
X-31326995Y6510180D01*
X-31289499Y6521555D01*
X-31244362Y6526000D01*
X-30505638Y6526000D01*
X-30460501Y6521555D01*
G37*
G36*
X-28710501Y6521555D02*
G01*
X-28673005Y6510180D01*
X-28638446Y6491708D01*
X-28608153Y6466847D01*
X-28583292Y6436554D01*
X-28564820Y6401995D01*
X-28553445Y6364499D01*
X-28549000Y6319362D01*
X-28549000Y5680638D01*
X-28553445Y5635501D01*
X-28564820Y5598005D01*
X-28583292Y5563446D01*
X-28608153Y5533153D01*
X-28638446Y5508292D01*
X-28673005Y5489820D01*
X-28710501Y5478445D01*
X-28755638Y5474000D01*
X-29494362Y5474000D01*
X-29539499Y5478445D01*
X-29576995Y5489820D01*
X-29611554Y5508292D01*
X-29641847Y5533153D01*
X-29666708Y5563446D01*
X-29685180Y5598005D01*
X-29696555Y5635501D01*
X-29701000Y5680638D01*
X-29701000Y6319362D01*
X-29696555Y6364499D01*
X-29685180Y6401995D01*
X-29666708Y6436554D01*
X-29641847Y6466847D01*
X-29611554Y6491708D01*
X-29576995Y6510180D01*
X-29539499Y6521555D01*
X-29494362Y6526000D01*
X-28755638Y6526000D01*
X-28710501Y6521555D01*
G37*
G36*
X-2886488Y7896073D02*
G01*
X-2737188Y7866376D01*
X-2573216Y7798456D01*
X-2425646Y7699853D01*
X-2300147Y7574354D01*
X-2201544Y7426784D01*
X-2133624Y7262812D01*
X-2122595Y7207362D01*
X-2115484Y7183922D01*
X-2103933Y7162311D01*
X-2088387Y7143369D01*
X-2069445Y7127824D01*
X-2047835Y7116273D01*
X-2024386Y7109160D01*
X-2000000Y7106758D01*
X-1975613Y7109160D01*
X-1952165Y7116273D01*
X-1930554Y7127824D01*
X-1911612Y7143370D01*
X-1896067Y7162312D01*
X-1884516Y7183922D01*
X-1877405Y7207362D01*
X-1866376Y7262812D01*
X-1798456Y7426784D01*
X-1699853Y7574354D01*
X-1574354Y7699853D01*
X-1426784Y7798456D01*
X-1262812Y7866376D01*
X-1113512Y7896073D01*
X-1088742Y7901000D01*
X-911258Y7901000D01*
X-886488Y7896073D01*
X-737188Y7866376D01*
X-573216Y7798456D01*
X-425646Y7699853D01*
X-300147Y7574354D01*
X-201544Y7426784D01*
X-133624Y7262812D01*
X-122595Y7207362D01*
X-115484Y7183922D01*
X-103933Y7162311D01*
X-88387Y7143369D01*
X-69445Y7127824D01*
X-47835Y7116273D01*
X-24386Y7109160D01*
X0Y7106758D01*
X24387Y7109160D01*
X47835Y7116273D01*
X69446Y7127824D01*
X88388Y7143370D01*
X103933Y7162312D01*
X115484Y7183922D01*
X122595Y7207362D01*
X133624Y7262812D01*
X201544Y7426784D01*
X300147Y7574354D01*
X425646Y7699853D01*
X573216Y7798456D01*
X737188Y7866376D01*
X886488Y7896073D01*
X911258Y7901000D01*
X1088742Y7901000D01*
X1113512Y7896073D01*
X1262812Y7866376D01*
X1426784Y7798456D01*
X1574354Y7699853D01*
X1699853Y7574354D01*
X1798456Y7426784D01*
X1866376Y7262812D01*
X1877405Y7207362D01*
X1884516Y7183922D01*
X1896067Y7162311D01*
X1911613Y7143369D01*
X1930555Y7127824D01*
X1952165Y7116273D01*
X1975614Y7109160D01*
X2000000Y7106758D01*
X2024387Y7109160D01*
X2047835Y7116273D01*
X2069446Y7127824D01*
X2088388Y7143370D01*
X2103933Y7162312D01*
X2115484Y7183922D01*
X2122595Y7207362D01*
X2133624Y7262812D01*
X2201544Y7426784D01*
X2300147Y7574354D01*
X2425646Y7699853D01*
X2573216Y7798456D01*
X2737188Y7866376D01*
X2886488Y7896073D01*
X2911258Y7901000D01*
X3088742Y7901000D01*
X3113512Y7896073D01*
X3262812Y7866376D01*
X3426784Y7798456D01*
X3574354Y7699853D01*
X3699853Y7574354D01*
X3798456Y7426784D01*
X3866376Y7262812D01*
X3901000Y7088741D01*
X3901000Y6911259D01*
X3866376Y6737188D01*
X3798456Y6573216D01*
X3699853Y6425646D01*
X3574354Y6300147D01*
X3426784Y6201544D01*
X3262812Y6133624D01*
X3113512Y6103927D01*
X3088742Y6099000D01*
X2911258Y6099000D01*
X2886488Y6103927D01*
X2737188Y6133624D01*
X2573216Y6201544D01*
X2425646Y6300147D01*
X2300147Y6425646D01*
X2201544Y6573216D01*
X2133624Y6737188D01*
X2122595Y6792638D01*
X2115484Y6816078D01*
X2103933Y6837689D01*
X2088387Y6856631D01*
X2069445Y6872176D01*
X2047835Y6883727D01*
X2024386Y6890840D01*
X2000000Y6893242D01*
X1975613Y6890840D01*
X1952165Y6883727D01*
X1930554Y6872176D01*
X1911612Y6856630D01*
X1896067Y6837688D01*
X1884516Y6816078D01*
X1877405Y6792638D01*
X1866376Y6737188D01*
X1798456Y6573216D01*
X1699853Y6425646D01*
X1574354Y6300147D01*
X1426784Y6201544D01*
X1262812Y6133624D01*
X1113512Y6103927D01*
X1088742Y6099000D01*
X911258Y6099000D01*
X886488Y6103927D01*
X737188Y6133624D01*
X573216Y6201544D01*
X425646Y6300147D01*
X300147Y6425646D01*
X201544Y6573216D01*
X133624Y6737188D01*
X122595Y6792638D01*
X115484Y6816078D01*
X103933Y6837689D01*
X88387Y6856631D01*
X69445Y6872176D01*
X47835Y6883727D01*
X24386Y6890840D01*
X0Y6893242D01*
X-24387Y6890840D01*
X-47835Y6883727D01*
X-69446Y6872176D01*
X-88388Y6856630D01*
X-103933Y6837688D01*
X-115484Y6816078D01*
X-122595Y6792638D01*
X-133624Y6737188D01*
X-201544Y6573216D01*
X-300147Y6425646D01*
X-425646Y6300147D01*
X-573216Y6201544D01*
X-737188Y6133624D01*
X-886488Y6103927D01*
X-911258Y6099000D01*
X-1088742Y6099000D01*
X-1113512Y6103927D01*
X-1262812Y6133624D01*
X-1426784Y6201544D01*
X-1574354Y6300147D01*
X-1699853Y6425646D01*
X-1798456Y6573216D01*
X-1866376Y6737188D01*
X-1877405Y6792638D01*
X-1884516Y6816078D01*
X-1896067Y6837689D01*
X-1911613Y6856631D01*
X-1930555Y6872176D01*
X-1952165Y6883727D01*
X-1975614Y6890840D01*
X-2000000Y6893242D01*
X-2024387Y6890840D01*
X-2047835Y6883727D01*
X-2069446Y6872176D01*
X-2088388Y6856630D01*
X-2103933Y6837688D01*
X-2115484Y6816078D01*
X-2122595Y6792638D01*
X-2133624Y6737188D01*
X-2201544Y6573216D01*
X-2300147Y6425646D01*
X-2425646Y6300147D01*
X-2573216Y6201544D01*
X-2737188Y6133624D01*
X-2886488Y6103927D01*
X-2911258Y6099000D01*
X-3088742Y6099000D01*
X-3113512Y6103927D01*
X-3262812Y6133624D01*
X-3426784Y6201544D01*
X-3574354Y6300147D01*
X-3699853Y6425646D01*
X-3798456Y6573216D01*
X-3866376Y6737188D01*
X-3901000Y6911259D01*
X-3901000Y7088741D01*
X-3866376Y7262812D01*
X-3798456Y7426784D01*
X-3699853Y7574354D01*
X-3574354Y7699853D01*
X-3426784Y7798456D01*
X-3262812Y7866376D01*
X-3113512Y7896073D01*
X-3088742Y7901000D01*
X-2911258Y7901000D01*
X-2886488Y7896073D01*
G37*
G36*
X-20535501Y7771555D02*
G01*
X-20498005Y7760180D01*
X-20463446Y7741708D01*
X-20433153Y7716847D01*
X-20408292Y7686554D01*
X-20389820Y7651995D01*
X-20378445Y7614499D01*
X-20374000Y7569362D01*
X-20374000Y6830638D01*
X-20378445Y6785501D01*
X-20389820Y6748005D01*
X-20408292Y6713446D01*
X-20433153Y6683153D01*
X-20463446Y6658292D01*
X-20498005Y6639820D01*
X-20535501Y6628445D01*
X-20580638Y6624000D01*
X-21219362Y6624000D01*
X-21264499Y6628445D01*
X-21301995Y6639820D01*
X-21336554Y6658292D01*
X-21366847Y6683153D01*
X-21391708Y6713446D01*
X-21410180Y6748005D01*
X-21421555Y6785501D01*
X-21426000Y6830638D01*
X-21426000Y7569362D01*
X-21421555Y7614499D01*
X-21410180Y7651995D01*
X-21391708Y7686554D01*
X-21366847Y7716847D01*
X-21336554Y7741708D01*
X-21301995Y7760180D01*
X-21264499Y7771555D01*
X-21219362Y7776000D01*
X-20580638Y7776000D01*
X-20535501Y7771555D01*
G37*
G36*
X-18535501Y7771555D02*
G01*
X-18498005Y7760180D01*
X-18463446Y7741708D01*
X-18433153Y7716847D01*
X-18408292Y7686554D01*
X-18389820Y7651995D01*
X-18378445Y7614499D01*
X-18374000Y7569362D01*
X-18374000Y6830638D01*
X-18378445Y6785501D01*
X-18389820Y6748005D01*
X-18408292Y6713446D01*
X-18433153Y6683153D01*
X-18463446Y6658292D01*
X-18498005Y6639820D01*
X-18535501Y6628445D01*
X-18580638Y6624000D01*
X-19219362Y6624000D01*
X-19264499Y6628445D01*
X-19301995Y6639820D01*
X-19336554Y6658292D01*
X-19366847Y6683153D01*
X-19391708Y6713446D01*
X-19410180Y6748005D01*
X-19421555Y6785501D01*
X-19426000Y6830638D01*
X-19426000Y7569362D01*
X-19421555Y7614499D01*
X-19410180Y7651995D01*
X-19391708Y7686554D01*
X-19366847Y7716847D01*
X-19336554Y7741708D01*
X-19301995Y7760180D01*
X-19264499Y7771555D01*
X-19219362Y7776000D01*
X-18580638Y7776000D01*
X-18535501Y7771555D01*
G37*
G36*
X-16635501Y7771555D02*
G01*
X-16598005Y7760180D01*
X-16563446Y7741708D01*
X-16533153Y7716847D01*
X-16508292Y7686554D01*
X-16489820Y7651995D01*
X-16478445Y7614499D01*
X-16474000Y7569362D01*
X-16474000Y6830638D01*
X-16478445Y6785501D01*
X-16489820Y6748005D01*
X-16508292Y6713446D01*
X-16533153Y6683153D01*
X-16563446Y6658292D01*
X-16598005Y6639820D01*
X-16635501Y6628445D01*
X-16680638Y6624000D01*
X-17319362Y6624000D01*
X-17364499Y6628445D01*
X-17401995Y6639820D01*
X-17436554Y6658292D01*
X-17466847Y6683153D01*
X-17491708Y6713446D01*
X-17510180Y6748005D01*
X-17521555Y6785501D01*
X-17526000Y6830638D01*
X-17526000Y7569362D01*
X-17521555Y7614499D01*
X-17510180Y7651995D01*
X-17491708Y7686554D01*
X-17466847Y7716847D01*
X-17436554Y7741708D01*
X-17401995Y7760180D01*
X-17364499Y7771555D01*
X-17319362Y7776000D01*
X-16680638Y7776000D01*
X-16635501Y7771555D01*
G37*
G36*
X-14535501Y7771555D02*
G01*
X-14498005Y7760180D01*
X-14463446Y7741708D01*
X-14433153Y7716847D01*
X-14408292Y7686554D01*
X-14389820Y7651995D01*
X-14378445Y7614499D01*
X-14374000Y7569362D01*
X-14374000Y6830638D01*
X-14378445Y6785501D01*
X-14389820Y6748005D01*
X-14408292Y6713446D01*
X-14433153Y6683153D01*
X-14463446Y6658292D01*
X-14498005Y6639820D01*
X-14535501Y6628445D01*
X-14580638Y6624000D01*
X-15219362Y6624000D01*
X-15264499Y6628445D01*
X-15301995Y6639820D01*
X-15336554Y6658292D01*
X-15366847Y6683153D01*
X-15391708Y6713446D01*
X-15410180Y6748005D01*
X-15421555Y6785501D01*
X-15426000Y6830638D01*
X-15426000Y7569362D01*
X-15421555Y7614499D01*
X-15410180Y7651995D01*
X-15391708Y7686554D01*
X-15366847Y7716847D01*
X-15336554Y7741708D01*
X-15301995Y7760180D01*
X-15264499Y7771555D01*
X-15219362Y7776000D01*
X-14580638Y7776000D01*
X-14535501Y7771555D01*
G37*
G36*
X-12535501Y7771555D02*
G01*
X-12498005Y7760180D01*
X-12463446Y7741708D01*
X-12433153Y7716847D01*
X-12408292Y7686554D01*
X-12389820Y7651995D01*
X-12378445Y7614499D01*
X-12374000Y7569362D01*
X-12374000Y6830638D01*
X-12378445Y6785501D01*
X-12389820Y6748005D01*
X-12408292Y6713446D01*
X-12433153Y6683153D01*
X-12463446Y6658292D01*
X-12498005Y6639820D01*
X-12535501Y6628445D01*
X-12580638Y6624000D01*
X-13219362Y6624000D01*
X-13264499Y6628445D01*
X-13301995Y6639820D01*
X-13336554Y6658292D01*
X-13366847Y6683153D01*
X-13391708Y6713446D01*
X-13410180Y6748005D01*
X-13421555Y6785501D01*
X-13426000Y6830638D01*
X-13426000Y7569362D01*
X-13421555Y7614499D01*
X-13410180Y7651995D01*
X-13391708Y7686554D01*
X-13366847Y7716847D01*
X-13336554Y7741708D01*
X-13301995Y7760180D01*
X-13264499Y7771555D01*
X-13219362Y7776000D01*
X-12580638Y7776000D01*
X-12535501Y7771555D01*
G37*
G36*
X29539499Y8521555D02*
G01*
X29576995Y8510180D01*
X29611554Y8491708D01*
X29641847Y8466847D01*
X29666708Y8436554D01*
X29685180Y8401995D01*
X29696555Y8364499D01*
X29701000Y8319362D01*
X29701000Y7680638D01*
X29696555Y7635501D01*
X29685180Y7598005D01*
X29666708Y7563446D01*
X29641847Y7533153D01*
X29611554Y7508292D01*
X29576995Y7489820D01*
X29539499Y7478445D01*
X29494362Y7474000D01*
X28755638Y7474000D01*
X28710501Y7478445D01*
X28673005Y7489820D01*
X28638446Y7508292D01*
X28608153Y7533153D01*
X28583292Y7563446D01*
X28564820Y7598005D01*
X28553445Y7635501D01*
X28549000Y7680638D01*
X28549000Y8319362D01*
X28553445Y8364499D01*
X28564820Y8401995D01*
X28583292Y8436554D01*
X28608153Y8466847D01*
X28638446Y8491708D01*
X28673005Y8510180D01*
X28710501Y8521555D01*
X28755638Y8526000D01*
X29494362Y8526000D01*
X29539499Y8521555D01*
G37*
G36*
X31289499Y8521555D02*
G01*
X31326995Y8510180D01*
X31361554Y8491708D01*
X31391847Y8466847D01*
X31416708Y8436554D01*
X31435180Y8401995D01*
X31446555Y8364499D01*
X31451000Y8319362D01*
X31451000Y7680638D01*
X31446555Y7635501D01*
X31435180Y7598005D01*
X31416708Y7563446D01*
X31391847Y7533153D01*
X31361554Y7508292D01*
X31326995Y7489820D01*
X31289499Y7478445D01*
X31244362Y7474000D01*
X30505638Y7474000D01*
X30460501Y7478445D01*
X30423005Y7489820D01*
X30388446Y7508292D01*
X30358153Y7533153D01*
X30333292Y7563446D01*
X30314820Y7598005D01*
X30303445Y7635501D01*
X30299000Y7680638D01*
X30299000Y8319362D01*
X30303445Y8364499D01*
X30314820Y8401995D01*
X30333292Y8436554D01*
X30358153Y8466847D01*
X30388446Y8491708D01*
X30423005Y8510180D01*
X30460501Y8521555D01*
X30505638Y8526000D01*
X31244362Y8526000D01*
X31289499Y8521555D01*
G37*
G36*
X-30460501Y8521555D02*
G01*
X-30423005Y8510180D01*
X-30388446Y8491708D01*
X-30358153Y8466847D01*
X-30333292Y8436554D01*
X-30314820Y8401995D01*
X-30303445Y8364499D01*
X-30299000Y8319362D01*
X-30299000Y7680638D01*
X-30303445Y7635501D01*
X-30314820Y7598005D01*
X-30333292Y7563446D01*
X-30358153Y7533153D01*
X-30388446Y7508292D01*
X-30423005Y7489820D01*
X-30460501Y7478445D01*
X-30505638Y7474000D01*
X-31244362Y7474000D01*
X-31289499Y7478445D01*
X-31326995Y7489820D01*
X-31361554Y7508292D01*
X-31391847Y7533153D01*
X-31416708Y7563446D01*
X-31435180Y7598005D01*
X-31446555Y7635501D01*
X-31451000Y7680638D01*
X-31451000Y8319362D01*
X-31446555Y8364499D01*
X-31435180Y8401995D01*
X-31416708Y8436554D01*
X-31391847Y8466847D01*
X-31361554Y8491708D01*
X-31326995Y8510180D01*
X-31289499Y8521555D01*
X-31244362Y8526000D01*
X-30505638Y8526000D01*
X-30460501Y8521555D01*
G37*
G36*
X-28710501Y8521555D02*
G01*
X-28673005Y8510180D01*
X-28638446Y8491708D01*
X-28608153Y8466847D01*
X-28583292Y8436554D01*
X-28564820Y8401995D01*
X-28553445Y8364499D01*
X-28549000Y8319362D01*
X-28549000Y7680638D01*
X-28553445Y7635501D01*
X-28564820Y7598005D01*
X-28583292Y7563446D01*
X-28608153Y7533153D01*
X-28638446Y7508292D01*
X-28673005Y7489820D01*
X-28710501Y7478445D01*
X-28755638Y7474000D01*
X-29494362Y7474000D01*
X-29539499Y7478445D01*
X-29576995Y7489820D01*
X-29611554Y7508292D01*
X-29641847Y7533153D01*
X-29666708Y7563446D01*
X-29685180Y7598005D01*
X-29696555Y7635501D01*
X-29701000Y7680638D01*
X-29701000Y8319362D01*
X-29696555Y8364499D01*
X-29685180Y8401995D01*
X-29666708Y8436554D01*
X-29641847Y8466847D01*
X-29611554Y8491708D01*
X-29576995Y8510180D01*
X-29539499Y8521555D01*
X-29494362Y8526000D01*
X-28755638Y8526000D01*
X-28710501Y8521555D01*
G37*
G36*
X-12535501Y9521555D02*
G01*
X-12498005Y9510180D01*
X-12463446Y9491708D01*
X-12433153Y9466847D01*
X-12408292Y9436554D01*
X-12389820Y9401995D01*
X-12378445Y9364499D01*
X-12374000Y9319362D01*
X-12374000Y8580638D01*
X-12378445Y8535501D01*
X-12389820Y8498005D01*
X-12408292Y8463446D01*
X-12433153Y8433153D01*
X-12463446Y8408292D01*
X-12498005Y8389820D01*
X-12535501Y8378445D01*
X-12580638Y8374000D01*
X-13219362Y8374000D01*
X-13264499Y8378445D01*
X-13301995Y8389820D01*
X-13336554Y8408292D01*
X-13366847Y8433153D01*
X-13391708Y8463446D01*
X-13410180Y8498005D01*
X-13421555Y8535501D01*
X-13426000Y8580638D01*
X-13426000Y9319362D01*
X-13421555Y9364499D01*
X-13410180Y9401995D01*
X-13391708Y9436554D01*
X-13366847Y9466847D01*
X-13336554Y9491708D01*
X-13301995Y9510180D01*
X-13264499Y9521555D01*
X-13219362Y9526000D01*
X-12580638Y9526000D01*
X-12535501Y9521555D01*
G37*
G36*
X-16635501Y9521555D02*
G01*
X-16598005Y9510180D01*
X-16563446Y9491708D01*
X-16533153Y9466847D01*
X-16508292Y9436554D01*
X-16489820Y9401995D01*
X-16478445Y9364499D01*
X-16474000Y9319362D01*
X-16474000Y8580638D01*
X-16478445Y8535501D01*
X-16489820Y8498005D01*
X-16508292Y8463446D01*
X-16533153Y8433153D01*
X-16563446Y8408292D01*
X-16598005Y8389820D01*
X-16635501Y8378445D01*
X-16680638Y8374000D01*
X-17319362Y8374000D01*
X-17364499Y8378445D01*
X-17401995Y8389820D01*
X-17436554Y8408292D01*
X-17466847Y8433153D01*
X-17491708Y8463446D01*
X-17510180Y8498005D01*
X-17521555Y8535501D01*
X-17526000Y8580638D01*
X-17526000Y9319362D01*
X-17521555Y9364499D01*
X-17510180Y9401995D01*
X-17491708Y9436554D01*
X-17466847Y9466847D01*
X-17436554Y9491708D01*
X-17401995Y9510180D01*
X-17364499Y9521555D01*
X-17319362Y9526000D01*
X-16680638Y9526000D01*
X-16635501Y9521555D01*
G37*
G36*
X-18535501Y9521555D02*
G01*
X-18498005Y9510180D01*
X-18463446Y9491708D01*
X-18433153Y9466847D01*
X-18408292Y9436554D01*
X-18389820Y9401995D01*
X-18378445Y9364499D01*
X-18374000Y9319362D01*
X-18374000Y8580638D01*
X-18378445Y8535501D01*
X-18389820Y8498005D01*
X-18408292Y8463446D01*
X-18433153Y8433153D01*
X-18463446Y8408292D01*
X-18498005Y8389820D01*
X-18535501Y8378445D01*
X-18580638Y8374000D01*
X-19219362Y8374000D01*
X-19264499Y8378445D01*
X-19301995Y8389820D01*
X-19336554Y8408292D01*
X-19366847Y8433153D01*
X-19391708Y8463446D01*
X-19410180Y8498005D01*
X-19421555Y8535501D01*
X-19426000Y8580638D01*
X-19426000Y9319362D01*
X-19421555Y9364499D01*
X-19410180Y9401995D01*
X-19391708Y9436554D01*
X-19366847Y9466847D01*
X-19336554Y9491708D01*
X-19301995Y9510180D01*
X-19264499Y9521555D01*
X-19219362Y9526000D01*
X-18580638Y9526000D01*
X-18535501Y9521555D01*
G37*
G36*
X-20535501Y9521555D02*
G01*
X-20498005Y9510180D01*
X-20463446Y9491708D01*
X-20433153Y9466847D01*
X-20408292Y9436554D01*
X-20389820Y9401995D01*
X-20378445Y9364499D01*
X-20374000Y9319362D01*
X-20374000Y8580638D01*
X-20378445Y8535501D01*
X-20389820Y8498005D01*
X-20408292Y8463446D01*
X-20433153Y8433153D01*
X-20463446Y8408292D01*
X-20498005Y8389820D01*
X-20535501Y8378445D01*
X-20580638Y8374000D01*
X-21219362Y8374000D01*
X-21264499Y8378445D01*
X-21301995Y8389820D01*
X-21336554Y8408292D01*
X-21366847Y8433153D01*
X-21391708Y8463446D01*
X-21410180Y8498005D01*
X-21421555Y8535501D01*
X-21426000Y8580638D01*
X-21426000Y9319362D01*
X-21421555Y9364499D01*
X-21410180Y9401995D01*
X-21391708Y9436554D01*
X-21366847Y9466847D01*
X-21336554Y9491708D01*
X-21301995Y9510180D01*
X-21264499Y9521555D01*
X-21219362Y9526000D01*
X-20580638Y9526000D01*
X-20535501Y9521555D01*
G37*
G36*
X-14535501Y9521555D02*
G01*
X-14498005Y9510180D01*
X-14463446Y9491708D01*
X-14433153Y9466847D01*
X-14408292Y9436554D01*
X-14389820Y9401995D01*
X-14378445Y9364499D01*
X-14374000Y9319362D01*
X-14374000Y8580638D01*
X-14378445Y8535501D01*
X-14389820Y8498005D01*
X-14408292Y8463446D01*
X-14433153Y8433153D01*
X-14463446Y8408292D01*
X-14498005Y8389820D01*
X-14535501Y8378445D01*
X-14580638Y8374000D01*
X-15219362Y8374000D01*
X-15264499Y8378445D01*
X-15301995Y8389820D01*
X-15336554Y8408292D01*
X-15366847Y8433153D01*
X-15391708Y8463446D01*
X-15410180Y8498005D01*
X-15421555Y8535501D01*
X-15426000Y8580638D01*
X-15426000Y9319362D01*
X-15421555Y9364499D01*
X-15410180Y9401995D01*
X-15391708Y9436554D01*
X-15366847Y9466847D01*
X-15336554Y9491708D01*
X-15301995Y9510180D01*
X-15264499Y9521555D01*
X-15219362Y9526000D01*
X-14580638Y9526000D01*
X-14535501Y9521555D01*
G37*
G36*
X-28710501Y10521555D02*
G01*
X-28673005Y10510180D01*
X-28638446Y10491708D01*
X-28608153Y10466847D01*
X-28583292Y10436554D01*
X-28564820Y10401995D01*
X-28553445Y10364499D01*
X-28549000Y10319362D01*
X-28549000Y9680638D01*
X-28553445Y9635501D01*
X-28564820Y9598005D01*
X-28583292Y9563446D01*
X-28608153Y9533153D01*
X-28638446Y9508292D01*
X-28673005Y9489820D01*
X-28710501Y9478445D01*
X-28755638Y9474000D01*
X-29494362Y9474000D01*
X-29539499Y9478445D01*
X-29576995Y9489820D01*
X-29611554Y9508292D01*
X-29641847Y9533153D01*
X-29666708Y9563446D01*
X-29685180Y9598005D01*
X-29696555Y9635501D01*
X-29701000Y9680638D01*
X-29701000Y10319362D01*
X-29696555Y10364499D01*
X-29685180Y10401995D01*
X-29666708Y10436554D01*
X-29641847Y10466847D01*
X-29611554Y10491708D01*
X-29576995Y10510180D01*
X-29539499Y10521555D01*
X-29494362Y10526000D01*
X-28755638Y10526000D01*
X-28710501Y10521555D01*
G37*
G36*
X-30460501Y10521555D02*
G01*
X-30423005Y10510180D01*
X-30388446Y10491708D01*
X-30358153Y10466847D01*
X-30333292Y10436554D01*
X-30314820Y10401995D01*
X-30303445Y10364499D01*
X-30299000Y10319362D01*
X-30299000Y9680638D01*
X-30303445Y9635501D01*
X-30314820Y9598005D01*
X-30333292Y9563446D01*
X-30358153Y9533153D01*
X-30388446Y9508292D01*
X-30423005Y9489820D01*
X-30460501Y9478445D01*
X-30505638Y9474000D01*
X-31244362Y9474000D01*
X-31289499Y9478445D01*
X-31326995Y9489820D01*
X-31361554Y9508292D01*
X-31391847Y9533153D01*
X-31416708Y9563446D01*
X-31435180Y9598005D01*
X-31446555Y9635501D01*
X-31451000Y9680638D01*
X-31451000Y10319362D01*
X-31446555Y10364499D01*
X-31435180Y10401995D01*
X-31416708Y10436554D01*
X-31391847Y10466847D01*
X-31361554Y10491708D01*
X-31326995Y10510180D01*
X-31289499Y10521555D01*
X-31244362Y10526000D01*
X-30505638Y10526000D01*
X-30460501Y10521555D01*
G37*
G36*
X29539499Y10521555D02*
G01*
X29576995Y10510180D01*
X29611554Y10491708D01*
X29641847Y10466847D01*
X29666708Y10436554D01*
X29685180Y10401995D01*
X29696555Y10364499D01*
X29701000Y10319362D01*
X29701000Y9680638D01*
X29696555Y9635501D01*
X29685180Y9598005D01*
X29666708Y9563446D01*
X29641847Y9533153D01*
X29611554Y9508292D01*
X29576995Y9489820D01*
X29539499Y9478445D01*
X29494362Y9474000D01*
X28755638Y9474000D01*
X28710501Y9478445D01*
X28673005Y9489820D01*
X28638446Y9508292D01*
X28608153Y9533153D01*
X28583292Y9563446D01*
X28564820Y9598005D01*
X28553445Y9635501D01*
X28549000Y9680638D01*
X28549000Y10319362D01*
X28553445Y10364499D01*
X28564820Y10401995D01*
X28583292Y10436554D01*
X28608153Y10466847D01*
X28638446Y10491708D01*
X28673005Y10510180D01*
X28710501Y10521555D01*
X28755638Y10526000D01*
X29494362Y10526000D01*
X29539499Y10521555D01*
G37*
G36*
X31289499Y10521555D02*
G01*
X31326995Y10510180D01*
X31361554Y10491708D01*
X31391847Y10466847D01*
X31416708Y10436554D01*
X31435180Y10401995D01*
X31446555Y10364499D01*
X31451000Y10319362D01*
X31451000Y9680638D01*
X31446555Y9635501D01*
X31435180Y9598005D01*
X31416708Y9563446D01*
X31391847Y9533153D01*
X31361554Y9508292D01*
X31326995Y9489820D01*
X31289499Y9478445D01*
X31244362Y9474000D01*
X30505638Y9474000D01*
X30460501Y9478445D01*
X30423005Y9489820D01*
X30388446Y9508292D01*
X30358153Y9533153D01*
X30333292Y9563446D01*
X30314820Y9598005D01*
X30303445Y9635501D01*
X30299000Y9680638D01*
X30299000Y10319362D01*
X30303445Y10364499D01*
X30314820Y10401995D01*
X30333292Y10436554D01*
X30358153Y10466847D01*
X30388446Y10491708D01*
X30423005Y10510180D01*
X30460501Y10521555D01*
X30505638Y10526000D01*
X31244362Y10526000D01*
X31289499Y10521555D01*
G37*
G36*
X1364499Y10771555D02*
G01*
X1401995Y10760180D01*
X1436554Y10741708D01*
X1466847Y10716847D01*
X1491708Y10686554D01*
X1510180Y10651995D01*
X1521555Y10614499D01*
X1526000Y10569362D01*
X1526000Y9830638D01*
X1521555Y9785501D01*
X1510180Y9748005D01*
X1491708Y9713446D01*
X1466847Y9683153D01*
X1436554Y9658292D01*
X1401995Y9639820D01*
X1364499Y9628445D01*
X1319362Y9624000D01*
X680638Y9624000D01*
X635501Y9628445D01*
X598005Y9639820D01*
X563446Y9658292D01*
X533153Y9683153D01*
X508292Y9713446D01*
X489820Y9748005D01*
X478445Y9785501D01*
X474000Y9830638D01*
X474000Y10569362D01*
X478445Y10614499D01*
X489820Y10651995D01*
X508292Y10686554D01*
X533153Y10716847D01*
X563446Y10741708D01*
X598005Y10760180D01*
X635501Y10771555D01*
X680638Y10776000D01*
X1319362Y10776000D01*
X1364499Y10771555D01*
G37*
G36*
X3364499Y10771555D02*
G01*
X3401995Y10760180D01*
X3436554Y10741708D01*
X3466847Y10716847D01*
X3491708Y10686554D01*
X3510180Y10651995D01*
X3521555Y10614499D01*
X3526000Y10569362D01*
X3526000Y9830638D01*
X3521555Y9785501D01*
X3510180Y9748005D01*
X3491708Y9713446D01*
X3466847Y9683153D01*
X3436554Y9658292D01*
X3401995Y9639820D01*
X3364499Y9628445D01*
X3319362Y9624000D01*
X2680638Y9624000D01*
X2635501Y9628445D01*
X2598005Y9639820D01*
X2563446Y9658292D01*
X2533153Y9683153D01*
X2508292Y9713446D01*
X2489820Y9748005D01*
X2478445Y9785501D01*
X2474000Y9830638D01*
X2474000Y10569362D01*
X2478445Y10614499D01*
X2489820Y10651995D01*
X2508292Y10686554D01*
X2533153Y10716847D01*
X2563446Y10741708D01*
X2598005Y10760180D01*
X2635501Y10771555D01*
X2680638Y10776000D01*
X3319362Y10776000D01*
X3364499Y10771555D01*
G37*
G36*
X-635501Y10771555D02*
G01*
X-598005Y10760180D01*
X-563446Y10741708D01*
X-533153Y10716847D01*
X-508292Y10686554D01*
X-489820Y10651995D01*
X-478445Y10614499D01*
X-474000Y10569362D01*
X-474000Y9830638D01*
X-478445Y9785501D01*
X-489820Y9748005D01*
X-508292Y9713446D01*
X-533153Y9683153D01*
X-563446Y9658292D01*
X-598005Y9639820D01*
X-635501Y9628445D01*
X-680638Y9624000D01*
X-1319362Y9624000D01*
X-1364499Y9628445D01*
X-1401995Y9639820D01*
X-1436554Y9658292D01*
X-1466847Y9683153D01*
X-1491708Y9713446D01*
X-1510180Y9748005D01*
X-1521555Y9785501D01*
X-1526000Y9830638D01*
X-1526000Y10569362D01*
X-1521555Y10614499D01*
X-1510180Y10651995D01*
X-1491708Y10686554D01*
X-1466847Y10716847D01*
X-1436554Y10741708D01*
X-1401995Y10760180D01*
X-1364499Y10771555D01*
X-1319362Y10776000D01*
X-680638Y10776000D01*
X-635501Y10771555D01*
G37*
G36*
X-2735501Y10771555D02*
G01*
X-2698005Y10760180D01*
X-2663446Y10741708D01*
X-2633153Y10716847D01*
X-2608292Y10686554D01*
X-2589820Y10651995D01*
X-2578445Y10614499D01*
X-2574000Y10569362D01*
X-2574000Y9830638D01*
X-2578445Y9785501D01*
X-2589820Y9748005D01*
X-2608292Y9713446D01*
X-2633153Y9683153D01*
X-2663446Y9658292D01*
X-2698005Y9639820D01*
X-2735501Y9628445D01*
X-2780638Y9624000D01*
X-3419362Y9624000D01*
X-3464499Y9628445D01*
X-3501995Y9639820D01*
X-3536554Y9658292D01*
X-3566847Y9683153D01*
X-3591708Y9713446D01*
X-3610180Y9748005D01*
X-3621555Y9785501D01*
X-3626000Y9830638D01*
X-3626000Y10569362D01*
X-3621555Y10614499D01*
X-3610180Y10651995D01*
X-3591708Y10686554D01*
X-3566847Y10716847D01*
X-3536554Y10741708D01*
X-3501995Y10760180D01*
X-3464499Y10771555D01*
X-3419362Y10776000D01*
X-2780638Y10776000D01*
X-2735501Y10771555D01*
G37*
G36*
X-2735501Y12521555D02*
G01*
X-2698005Y12510180D01*
X-2663446Y12491708D01*
X-2633153Y12466847D01*
X-2608292Y12436554D01*
X-2589820Y12401995D01*
X-2578445Y12364499D01*
X-2574000Y12319362D01*
X-2574000Y11580638D01*
X-2578445Y11535501D01*
X-2589820Y11498005D01*
X-2608292Y11463446D01*
X-2633153Y11433153D01*
X-2663446Y11408292D01*
X-2698005Y11389820D01*
X-2735501Y11378445D01*
X-2780638Y11374000D01*
X-3419362Y11374000D01*
X-3464499Y11378445D01*
X-3501995Y11389820D01*
X-3536554Y11408292D01*
X-3566847Y11433153D01*
X-3591708Y11463446D01*
X-3610180Y11498005D01*
X-3621555Y11535501D01*
X-3626000Y11580638D01*
X-3626000Y12319362D01*
X-3621555Y12364499D01*
X-3610180Y12401995D01*
X-3591708Y12436554D01*
X-3566847Y12466847D01*
X-3536554Y12491708D01*
X-3501995Y12510180D01*
X-3464499Y12521555D01*
X-3419362Y12526000D01*
X-2780638Y12526000D01*
X-2735501Y12521555D01*
G37*
G36*
X-635501Y12521555D02*
G01*
X-598005Y12510180D01*
X-563446Y12491708D01*
X-533153Y12466847D01*
X-508292Y12436554D01*
X-489820Y12401995D01*
X-478445Y12364499D01*
X-474000Y12319362D01*
X-474000Y11580638D01*
X-478445Y11535501D01*
X-489820Y11498005D01*
X-508292Y11463446D01*
X-533153Y11433153D01*
X-563446Y11408292D01*
X-598005Y11389820D01*
X-635501Y11378445D01*
X-680638Y11374000D01*
X-1319362Y11374000D01*
X-1364499Y11378445D01*
X-1401995Y11389820D01*
X-1436554Y11408292D01*
X-1466847Y11433153D01*
X-1491708Y11463446D01*
X-1510180Y11498005D01*
X-1521555Y11535501D01*
X-1526000Y11580638D01*
X-1526000Y12319362D01*
X-1521555Y12364499D01*
X-1510180Y12401995D01*
X-1491708Y12436554D01*
X-1466847Y12466847D01*
X-1436554Y12491708D01*
X-1401995Y12510180D01*
X-1364499Y12521555D01*
X-1319362Y12526000D01*
X-680638Y12526000D01*
X-635501Y12521555D01*
G37*
G36*
X3364499Y12521555D02*
G01*
X3401995Y12510180D01*
X3436554Y12491708D01*
X3466847Y12466847D01*
X3491708Y12436554D01*
X3510180Y12401995D01*
X3521555Y12364499D01*
X3526000Y12319362D01*
X3526000Y11580638D01*
X3521555Y11535501D01*
X3510180Y11498005D01*
X3491708Y11463446D01*
X3466847Y11433153D01*
X3436554Y11408292D01*
X3401995Y11389820D01*
X3364499Y11378445D01*
X3319362Y11374000D01*
X2680638Y11374000D01*
X2635501Y11378445D01*
X2598005Y11389820D01*
X2563446Y11408292D01*
X2533153Y11433153D01*
X2508292Y11463446D01*
X2489820Y11498005D01*
X2478445Y11535501D01*
X2474000Y11580638D01*
X2474000Y12319362D01*
X2478445Y12364499D01*
X2489820Y12401995D01*
X2508292Y12436554D01*
X2533153Y12466847D01*
X2563446Y12491708D01*
X2598005Y12510180D01*
X2635501Y12521555D01*
X2680638Y12526000D01*
X3319362Y12526000D01*
X3364499Y12521555D01*
G37*
G36*
X1364499Y12521555D02*
G01*
X1401995Y12510180D01*
X1436554Y12491708D01*
X1466847Y12466847D01*
X1491708Y12436554D01*
X1510180Y12401995D01*
X1521555Y12364499D01*
X1526000Y12319362D01*
X1526000Y11580638D01*
X1521555Y11535501D01*
X1510180Y11498005D01*
X1491708Y11463446D01*
X1466847Y11433153D01*
X1436554Y11408292D01*
X1401995Y11389820D01*
X1364499Y11378445D01*
X1319362Y11374000D01*
X680638Y11374000D01*
X635501Y11378445D01*
X598005Y11389820D01*
X563446Y11408292D01*
X533153Y11433153D01*
X508292Y11463446D01*
X489820Y11498005D01*
X478445Y11535501D01*
X474000Y11580638D01*
X474000Y12319362D01*
X478445Y12364499D01*
X489820Y12401995D01*
X508292Y12436554D01*
X533153Y12466847D01*
X563446Y12491708D01*
X598005Y12510180D01*
X635501Y12521555D01*
X680638Y12526000D01*
X1319362Y12526000D01*
X1364499Y12521555D01*
G37*
G36*
X31289499Y12521555D02*
G01*
X31326995Y12510180D01*
X31361554Y12491708D01*
X31391847Y12466847D01*
X31416708Y12436554D01*
X31435180Y12401995D01*
X31446555Y12364499D01*
X31451000Y12319362D01*
X31451000Y11680638D01*
X31446555Y11635501D01*
X31435180Y11598005D01*
X31416708Y11563446D01*
X31391847Y11533153D01*
X31361554Y11508292D01*
X31326995Y11489820D01*
X31289499Y11478445D01*
X31244362Y11474000D01*
X30505638Y11474000D01*
X30460501Y11478445D01*
X30423005Y11489820D01*
X30388446Y11508292D01*
X30358153Y11533153D01*
X30333292Y11563446D01*
X30314820Y11598005D01*
X30303445Y11635501D01*
X30299000Y11680638D01*
X30299000Y12319362D01*
X30303445Y12364499D01*
X30314820Y12401995D01*
X30333292Y12436554D01*
X30358153Y12466847D01*
X30388446Y12491708D01*
X30423005Y12510180D01*
X30460501Y12521555D01*
X30505638Y12526000D01*
X31244362Y12526000D01*
X31289499Y12521555D01*
G37*
G36*
X29539499Y12521555D02*
G01*
X29576995Y12510180D01*
X29611554Y12491708D01*
X29641847Y12466847D01*
X29666708Y12436554D01*
X29685180Y12401995D01*
X29696555Y12364499D01*
X29701000Y12319362D01*
X29701000Y11680638D01*
X29696555Y11635501D01*
X29685180Y11598005D01*
X29666708Y11563446D01*
X29641847Y11533153D01*
X29611554Y11508292D01*
X29576995Y11489820D01*
X29539499Y11478445D01*
X29494362Y11474000D01*
X28755638Y11474000D01*
X28710501Y11478445D01*
X28673005Y11489820D01*
X28638446Y11508292D01*
X28608153Y11533153D01*
X28583292Y11563446D01*
X28564820Y11598005D01*
X28553445Y11635501D01*
X28549000Y11680638D01*
X28549000Y12319362D01*
X28553445Y12364499D01*
X28564820Y12401995D01*
X28583292Y12436554D01*
X28608153Y12466847D01*
X28638446Y12491708D01*
X28673005Y12510180D01*
X28710501Y12521555D01*
X28755638Y12526000D01*
X29494362Y12526000D01*
X29539499Y12521555D01*
G37*
G36*
X-28710501Y12521555D02*
G01*
X-28673005Y12510180D01*
X-28638446Y12491708D01*
X-28608153Y12466847D01*
X-28583292Y12436554D01*
X-28564820Y12401995D01*
X-28553445Y12364499D01*
X-28549000Y12319362D01*
X-28549000Y11680638D01*
X-28553445Y11635501D01*
X-28564820Y11598005D01*
X-28583292Y11563446D01*
X-28608153Y11533153D01*
X-28638446Y11508292D01*
X-28673005Y11489820D01*
X-28710501Y11478445D01*
X-28755638Y11474000D01*
X-29494362Y11474000D01*
X-29539499Y11478445D01*
X-29576995Y11489820D01*
X-29611554Y11508292D01*
X-29641847Y11533153D01*
X-29666708Y11563446D01*
X-29685180Y11598005D01*
X-29696555Y11635501D01*
X-29701000Y11680638D01*
X-29701000Y12319362D01*
X-29696555Y12364499D01*
X-29685180Y12401995D01*
X-29666708Y12436554D01*
X-29641847Y12466847D01*
X-29611554Y12491708D01*
X-29576995Y12510180D01*
X-29539499Y12521555D01*
X-29494362Y12526000D01*
X-28755638Y12526000D01*
X-28710501Y12521555D01*
G37*
G36*
X-30460501Y12521555D02*
G01*
X-30423005Y12510180D01*
X-30388446Y12491708D01*
X-30358153Y12466847D01*
X-30333292Y12436554D01*
X-30314820Y12401995D01*
X-30303445Y12364499D01*
X-30299000Y12319362D01*
X-30299000Y11680638D01*
X-30303445Y11635501D01*
X-30314820Y11598005D01*
X-30333292Y11563446D01*
X-30358153Y11533153D01*
X-30388446Y11508292D01*
X-30423005Y11489820D01*
X-30460501Y11478445D01*
X-30505638Y11474000D01*
X-31244362Y11474000D01*
X-31289499Y11478445D01*
X-31326995Y11489820D01*
X-31361554Y11508292D01*
X-31391847Y11533153D01*
X-31416708Y11563446D01*
X-31435180Y11598005D01*
X-31446555Y11635501D01*
X-31451000Y11680638D01*
X-31451000Y12319362D01*
X-31446555Y12364499D01*
X-31435180Y12401995D01*
X-31416708Y12436554D01*
X-31391847Y12466847D01*
X-31361554Y12491708D01*
X-31326995Y12510180D01*
X-31289499Y12521555D01*
X-31244362Y12526000D01*
X-30505638Y12526000D01*
X-30460501Y12521555D01*
G37*
G36*
X-28710501Y14521555D02*
G01*
X-28673005Y14510180D01*
X-28638446Y14491708D01*
X-28608153Y14466847D01*
X-28583292Y14436554D01*
X-28564820Y14401995D01*
X-28553445Y14364499D01*
X-28549000Y14319362D01*
X-28549000Y13680638D01*
X-28553445Y13635501D01*
X-28564820Y13598005D01*
X-28583292Y13563446D01*
X-28608153Y13533153D01*
X-28638446Y13508292D01*
X-28673005Y13489820D01*
X-28710501Y13478445D01*
X-28755638Y13474000D01*
X-29494362Y13474000D01*
X-29539499Y13478445D01*
X-29576995Y13489820D01*
X-29611554Y13508292D01*
X-29641847Y13533153D01*
X-29666708Y13563446D01*
X-29685180Y13598005D01*
X-29696555Y13635501D01*
X-29701000Y13680638D01*
X-29701000Y14319362D01*
X-29696555Y14364499D01*
X-29685180Y14401995D01*
X-29666708Y14436554D01*
X-29641847Y14466847D01*
X-29611554Y14491708D01*
X-29576995Y14510180D01*
X-29539499Y14521555D01*
X-29494362Y14526000D01*
X-28755638Y14526000D01*
X-28710501Y14521555D01*
G37*
G36*
X-30460501Y14521555D02*
G01*
X-30423005Y14510180D01*
X-30388446Y14491708D01*
X-30358153Y14466847D01*
X-30333292Y14436554D01*
X-30314820Y14401995D01*
X-30303445Y14364499D01*
X-30299000Y14319362D01*
X-30299000Y13680638D01*
X-30303445Y13635501D01*
X-30314820Y13598005D01*
X-30333292Y13563446D01*
X-30358153Y13533153D01*
X-30388446Y13508292D01*
X-30423005Y13489820D01*
X-30460501Y13478445D01*
X-30505638Y13474000D01*
X-31244362Y13474000D01*
X-31289499Y13478445D01*
X-31326995Y13489820D01*
X-31361554Y13508292D01*
X-31391847Y13533153D01*
X-31416708Y13563446D01*
X-31435180Y13598005D01*
X-31446555Y13635501D01*
X-31451000Y13680638D01*
X-31451000Y14319362D01*
X-31446555Y14364499D01*
X-31435180Y14401995D01*
X-31416708Y14436554D01*
X-31391847Y14466847D01*
X-31361554Y14491708D01*
X-31326995Y14510180D01*
X-31289499Y14521555D01*
X-31244362Y14526000D01*
X-30505638Y14526000D01*
X-30460501Y14521555D01*
G37*
G36*
X29539499Y14521555D02*
G01*
X29576995Y14510180D01*
X29611554Y14491708D01*
X29641847Y14466847D01*
X29666708Y14436554D01*
X29685180Y14401995D01*
X29696555Y14364499D01*
X29701000Y14319362D01*
X29701000Y13680638D01*
X29696555Y13635501D01*
X29685180Y13598005D01*
X29666708Y13563446D01*
X29641847Y13533153D01*
X29611554Y13508292D01*
X29576995Y13489820D01*
X29539499Y13478445D01*
X29494362Y13474000D01*
X28755638Y13474000D01*
X28710501Y13478445D01*
X28673005Y13489820D01*
X28638446Y13508292D01*
X28608153Y13533153D01*
X28583292Y13563446D01*
X28564820Y13598005D01*
X28553445Y13635501D01*
X28549000Y13680638D01*
X28549000Y14319362D01*
X28553445Y14364499D01*
X28564820Y14401995D01*
X28583292Y14436554D01*
X28608153Y14466847D01*
X28638446Y14491708D01*
X28673005Y14510180D01*
X28710501Y14521555D01*
X28755638Y14526000D01*
X29494362Y14526000D01*
X29539499Y14521555D01*
G37*
G36*
X31289499Y14521555D02*
G01*
X31326995Y14510180D01*
X31361554Y14491708D01*
X31391847Y14466847D01*
X31416708Y14436554D01*
X31435180Y14401995D01*
X31446555Y14364499D01*
X31451000Y14319362D01*
X31451000Y13680638D01*
X31446555Y13635501D01*
X31435180Y13598005D01*
X31416708Y13563446D01*
X31391847Y13533153D01*
X31361554Y13508292D01*
X31326995Y13489820D01*
X31289499Y13478445D01*
X31244362Y13474000D01*
X30505638Y13474000D01*
X30460501Y13478445D01*
X30423005Y13489820D01*
X30388446Y13508292D01*
X30358153Y13533153D01*
X30333292Y13563446D01*
X30314820Y13598005D01*
X30303445Y13635501D01*
X30299000Y13680638D01*
X30299000Y14319362D01*
X30303445Y14364499D01*
X30314820Y14401995D01*
X30333292Y14436554D01*
X30358153Y14466847D01*
X30388446Y14491708D01*
X30423005Y14510180D01*
X30460501Y14521555D01*
X30505638Y14526000D01*
X31244362Y14526000D01*
X31289499Y14521555D01*
G37*
G36*
X-22519279Y18999826D02*
G01*
X-22419005Y18958291D01*
X-22419004Y18958290D01*
X-22328758Y18897990D01*
X-22252010Y18821242D01*
X-22252009Y18821240D01*
X-22191709Y18730995D01*
X-22160484Y18655611D01*
X-22148933Y18634000D01*
X-22133388Y18615059D01*
X-22114446Y18599513D01*
X-22092835Y18587962D01*
X-22069386Y18580849D01*
X-22045000Y18578447D01*
X-22020614Y18580849D01*
X-21997165Y18587962D01*
X-21975554Y18599513D01*
X-21956613Y18615058D01*
X-21941067Y18634000D01*
X-21929516Y18655611D01*
X-21898291Y18730995D01*
X-21837991Y18821240D01*
X-21837990Y18821242D01*
X-21761242Y18897990D01*
X-21670996Y18958290D01*
X-21670995Y18958291D01*
X-21570721Y18999826D01*
X-21464270Y19021000D01*
X-21355730Y19021000D01*
X-21249279Y18999826D01*
X-21149005Y18958291D01*
X-21149004Y18958290D01*
X-21058758Y18897990D01*
X-20982010Y18821242D01*
X-20982009Y18821240D01*
X-20921709Y18730995D01*
X-20890484Y18655611D01*
X-20878933Y18634000D01*
X-20863388Y18615059D01*
X-20844446Y18599513D01*
X-20822835Y18587962D01*
X-20799386Y18580849D01*
X-20775000Y18578447D01*
X-20750614Y18580849D01*
X-20727165Y18587962D01*
X-20705554Y18599513D01*
X-20686613Y18615058D01*
X-20671067Y18634000D01*
X-20659516Y18655611D01*
X-20628291Y18730995D01*
X-20567991Y18821240D01*
X-20567990Y18821242D01*
X-20491242Y18897990D01*
X-20400996Y18958290D01*
X-20400995Y18958291D01*
X-20300721Y18999826D01*
X-20194270Y19021000D01*
X-20085730Y19021000D01*
X-19979279Y18999826D01*
X-19879005Y18958291D01*
X-19879004Y18958290D01*
X-19788758Y18897990D01*
X-19712010Y18821242D01*
X-19712009Y18821240D01*
X-19651709Y18730995D01*
X-19620484Y18655611D01*
X-19608933Y18634000D01*
X-19593388Y18615059D01*
X-19574446Y18599513D01*
X-19552835Y18587962D01*
X-19529386Y18580849D01*
X-19505000Y18578447D01*
X-19480614Y18580849D01*
X-19457165Y18587962D01*
X-19435554Y18599513D01*
X-19416613Y18615058D01*
X-19401067Y18634000D01*
X-19389516Y18655611D01*
X-19358291Y18730995D01*
X-19297991Y18821240D01*
X-19297990Y18821242D01*
X-19221242Y18897990D01*
X-19130996Y18958290D01*
X-19130995Y18958291D01*
X-19030721Y18999826D01*
X-18924270Y19021000D01*
X-18815730Y19021000D01*
X-18709279Y18999826D01*
X-18609005Y18958291D01*
X-18609004Y18958290D01*
X-18518758Y18897990D01*
X-18442010Y18821242D01*
X-18442009Y18821240D01*
X-18381709Y18730995D01*
X-18350484Y18655611D01*
X-18338933Y18634000D01*
X-18323388Y18615059D01*
X-18304446Y18599513D01*
X-18282835Y18587962D01*
X-18259386Y18580849D01*
X-18235000Y18578447D01*
X-18210614Y18580849D01*
X-18187165Y18587962D01*
X-18165554Y18599513D01*
X-18146613Y18615058D01*
X-18131067Y18634000D01*
X-18119516Y18655611D01*
X-18088291Y18730995D01*
X-18027991Y18821240D01*
X-18027990Y18821242D01*
X-17951242Y18897990D01*
X-17860996Y18958290D01*
X-17860995Y18958291D01*
X-17760721Y18999826D01*
X-17654270Y19021000D01*
X-17545730Y19021000D01*
X-17439279Y18999826D01*
X-17339005Y18958291D01*
X-17339004Y18958290D01*
X-17248758Y18897990D01*
X-17172010Y18821242D01*
X-17172009Y18821240D01*
X-17111709Y18730995D01*
X-17070174Y18630721D01*
X-17049000Y18524270D01*
X-17049000Y18415730D01*
X-17070174Y18309279D01*
X-17111709Y18209005D01*
X-17111710Y18209004D01*
X-17172010Y18118758D01*
X-17248758Y18042010D01*
X-17280184Y18021012D01*
X-17341664Y17979932D01*
X-17360606Y17964386D01*
X-17376151Y17945444D01*
X-17387702Y17923833D01*
X-17394815Y17900385D01*
X-17397217Y17875998D01*
X-17394815Y17851612D01*
X-17387702Y17828163D01*
X-17376151Y17806553D01*
X-17360605Y17787611D01*
X-17341663Y17772066D01*
X-17320052Y17760515D01*
X-17296604Y17753402D01*
X-17272218Y17751000D01*
X-17049000Y17751000D01*
X-17049000Y16649000D01*
X-18151000Y16649000D01*
X-18151000Y16872218D01*
X-18153402Y16896604D01*
X-18160515Y16920053D01*
X-18172066Y16941664D01*
X-18187611Y16960606D01*
X-18206553Y16976151D01*
X-18228164Y16987702D01*
X-18251613Y16994815D01*
X-18275999Y16997217D01*
X-18300385Y16994815D01*
X-18323834Y16987702D01*
X-18345445Y16976151D01*
X-18364387Y16960606D01*
X-18379932Y16941664D01*
X-18421012Y16880184D01*
X-18442010Y16848758D01*
X-18518758Y16772010D01*
X-18564188Y16741655D01*
X-18609005Y16711709D01*
X-18709279Y16670174D01*
X-18815730Y16649000D01*
X-18924270Y16649000D01*
X-19030721Y16670174D01*
X-19130995Y16711709D01*
X-19175812Y16741655D01*
X-19221242Y16772010D01*
X-19297990Y16848758D01*
X-19329959Y16896604D01*
X-19358291Y16939005D01*
X-19389516Y17014389D01*
X-19401067Y17036000D01*
X-19416612Y17054941D01*
X-19435554Y17070487D01*
X-19457165Y17082038D01*
X-19480614Y17089151D01*
X-19505000Y17091553D01*
X-19529386Y17089151D01*
X-19552835Y17082038D01*
X-19574446Y17070487D01*
X-19593387Y17054942D01*
X-19608933Y17036000D01*
X-19620484Y17014389D01*
X-19651709Y16939005D01*
X-19680041Y16896604D01*
X-19712010Y16848758D01*
X-19788758Y16772010D01*
X-19834188Y16741655D01*
X-19879005Y16711709D01*
X-19979279Y16670174D01*
X-20085730Y16649000D01*
X-20194270Y16649000D01*
X-20300721Y16670174D01*
X-20400995Y16711709D01*
X-20445812Y16741655D01*
X-20491242Y16772010D01*
X-20567990Y16848758D01*
X-20599959Y16896604D01*
X-20628291Y16939005D01*
X-20659516Y17014389D01*
X-20671067Y17036000D01*
X-20686612Y17054941D01*
X-20705554Y17070487D01*
X-20727165Y17082038D01*
X-20750614Y17089151D01*
X-20775000Y17091553D01*
X-20799386Y17089151D01*
X-20822835Y17082038D01*
X-20844446Y17070487D01*
X-20863387Y17054942D01*
X-20878933Y17036000D01*
X-20890484Y17014389D01*
X-20921709Y16939005D01*
X-20950041Y16896604D01*
X-20982010Y16848758D01*
X-21058758Y16772010D01*
X-21104188Y16741655D01*
X-21149005Y16711709D01*
X-21249279Y16670174D01*
X-21355730Y16649000D01*
X-21464270Y16649000D01*
X-21570721Y16670174D01*
X-21670995Y16711709D01*
X-21715812Y16741655D01*
X-21761242Y16772010D01*
X-21837990Y16848758D01*
X-21869959Y16896604D01*
X-21898291Y16939005D01*
X-21929516Y17014389D01*
X-21941067Y17036000D01*
X-21956612Y17054941D01*
X-21975554Y17070487D01*
X-21997165Y17082038D01*
X-22020614Y17089151D01*
X-22045000Y17091553D01*
X-22069386Y17089151D01*
X-22092835Y17082038D01*
X-22114446Y17070487D01*
X-22133387Y17054942D01*
X-22148933Y17036000D01*
X-22160484Y17014389D01*
X-22191709Y16939005D01*
X-22220041Y16896604D01*
X-22252010Y16848758D01*
X-22328758Y16772010D01*
X-22374188Y16741655D01*
X-22419005Y16711709D01*
X-22519279Y16670174D01*
X-22625730Y16649000D01*
X-22734270Y16649000D01*
X-22840721Y16670174D01*
X-22940995Y16711709D01*
X-22985812Y16741655D01*
X-23031242Y16772010D01*
X-23107990Y16848758D01*
X-23139959Y16896604D01*
X-23168291Y16939005D01*
X-23209826Y17039279D01*
X-23231000Y17145730D01*
X-23231000Y17254270D01*
X-23209826Y17360721D01*
X-23168291Y17460995D01*
X-23107991Y17551240D01*
X-23107990Y17551242D01*
X-23031242Y17627990D01*
X-22940996Y17688290D01*
X-22940995Y17688291D01*
X-22865611Y17719516D01*
X-22844000Y17731067D01*
X-22825059Y17746612D01*
X-22809513Y17765554D01*
X-22797962Y17787165D01*
X-22790849Y17810614D01*
X-22788447Y17835000D01*
X-22571553Y17835000D01*
X-22569151Y17810614D01*
X-22562038Y17787165D01*
X-22550487Y17765554D01*
X-22534942Y17746613D01*
X-22516000Y17731067D01*
X-22494389Y17719516D01*
X-22419005Y17688291D01*
X-22419004Y17688290D01*
X-22328758Y17627990D01*
X-22252010Y17551242D01*
X-22252009Y17551240D01*
X-22191709Y17460995D01*
X-22160484Y17385611D01*
X-22148933Y17364000D01*
X-22133388Y17345059D01*
X-22114446Y17329513D01*
X-22092835Y17317962D01*
X-22069386Y17310849D01*
X-22045000Y17308447D01*
X-22020614Y17310849D01*
X-21997165Y17317962D01*
X-21975554Y17329513D01*
X-21956613Y17345058D01*
X-21941067Y17364000D01*
X-21929516Y17385611D01*
X-21898291Y17460995D01*
X-21837991Y17551240D01*
X-21837990Y17551242D01*
X-21761242Y17627990D01*
X-21670996Y17688290D01*
X-21670995Y17688291D01*
X-21595611Y17719516D01*
X-21574000Y17731067D01*
X-21555059Y17746612D01*
X-21539513Y17765554D01*
X-21527962Y17787165D01*
X-21520849Y17810614D01*
X-21518447Y17835000D01*
X-21301553Y17835000D01*
X-21299151Y17810614D01*
X-21292038Y17787165D01*
X-21280487Y17765554D01*
X-21264942Y17746613D01*
X-21246000Y17731067D01*
X-21224389Y17719516D01*
X-21149005Y17688291D01*
X-21149004Y17688290D01*
X-21058758Y17627990D01*
X-20982010Y17551242D01*
X-20982009Y17551240D01*
X-20921709Y17460995D01*
X-20890484Y17385611D01*
X-20878933Y17364000D01*
X-20863388Y17345059D01*
X-20844446Y17329513D01*
X-20822835Y17317962D01*
X-20799386Y17310849D01*
X-20775000Y17308447D01*
X-20750614Y17310849D01*
X-20727165Y17317962D01*
X-20705554Y17329513D01*
X-20686613Y17345058D01*
X-20671067Y17364000D01*
X-20659516Y17385611D01*
X-20628291Y17460995D01*
X-20567991Y17551240D01*
X-20567990Y17551242D01*
X-20491242Y17627990D01*
X-20400996Y17688290D01*
X-20400995Y17688291D01*
X-20325611Y17719516D01*
X-20304000Y17731067D01*
X-20285059Y17746612D01*
X-20269513Y17765554D01*
X-20257962Y17787165D01*
X-20250849Y17810614D01*
X-20248447Y17835000D01*
X-20031553Y17835000D01*
X-20029151Y17810614D01*
X-20022038Y17787165D01*
X-20010487Y17765554D01*
X-19994942Y17746613D01*
X-19976000Y17731067D01*
X-19954389Y17719516D01*
X-19879005Y17688291D01*
X-19879004Y17688290D01*
X-19788758Y17627990D01*
X-19712010Y17551242D01*
X-19712009Y17551240D01*
X-19651709Y17460995D01*
X-19620484Y17385611D01*
X-19608933Y17364000D01*
X-19593388Y17345059D01*
X-19574446Y17329513D01*
X-19552835Y17317962D01*
X-19529386Y17310849D01*
X-19505000Y17308447D01*
X-19480614Y17310849D01*
X-19457165Y17317962D01*
X-19435554Y17329513D01*
X-19416613Y17345058D01*
X-19401067Y17364000D01*
X-19389516Y17385611D01*
X-19358291Y17460995D01*
X-19297991Y17551240D01*
X-19297990Y17551242D01*
X-19221242Y17627990D01*
X-19130996Y17688290D01*
X-19130995Y17688291D01*
X-19055611Y17719516D01*
X-19034000Y17731067D01*
X-19015059Y17746612D01*
X-18999513Y17765554D01*
X-18987962Y17787165D01*
X-18980849Y17810614D01*
X-18978447Y17835000D01*
X-18761553Y17835000D01*
X-18759151Y17810614D01*
X-18752038Y17787165D01*
X-18740487Y17765554D01*
X-18724942Y17746613D01*
X-18706000Y17731067D01*
X-18684389Y17719516D01*
X-18609005Y17688291D01*
X-18609004Y17688290D01*
X-18518758Y17627990D01*
X-18442010Y17551242D01*
X-18442009Y17551240D01*
X-18379932Y17458336D01*
X-18364386Y17439394D01*
X-18345444Y17423849D01*
X-18323833Y17412298D01*
X-18300385Y17405185D01*
X-18275998Y17402783D01*
X-18251612Y17405185D01*
X-18228163Y17412298D01*
X-18206553Y17423849D01*
X-18187611Y17439395D01*
X-18172066Y17458337D01*
X-18160515Y17479948D01*
X-18153402Y17503396D01*
X-18151000Y17527782D01*
X-18151000Y17751000D01*
X-17927782Y17751000D01*
X-17903396Y17753402D01*
X-17879947Y17760515D01*
X-17858336Y17772066D01*
X-17839394Y17787611D01*
X-17823849Y17806553D01*
X-17812298Y17828164D01*
X-17805185Y17851613D01*
X-17802783Y17875999D01*
X-17805185Y17900385D01*
X-17812298Y17923834D01*
X-17823849Y17945445D01*
X-17839394Y17964387D01*
X-17858336Y17979932D01*
X-17919816Y18021012D01*
X-17951242Y18042010D01*
X-18027990Y18118758D01*
X-18088290Y18209004D01*
X-18088291Y18209005D01*
X-18119516Y18284389D01*
X-18131067Y18306000D01*
X-18146612Y18324941D01*
X-18165554Y18340487D01*
X-18187165Y18352038D01*
X-18210614Y18359151D01*
X-18235000Y18361553D01*
X-18259386Y18359151D01*
X-18282835Y18352038D01*
X-18304446Y18340487D01*
X-18323387Y18324942D01*
X-18338933Y18306000D01*
X-18350484Y18284389D01*
X-18381709Y18209005D01*
X-18381710Y18209004D01*
X-18442010Y18118758D01*
X-18518758Y18042010D01*
X-18564188Y18011655D01*
X-18609005Y17981709D01*
X-18684389Y17950484D01*
X-18706000Y17938933D01*
X-18724941Y17923388D01*
X-18740487Y17904446D01*
X-18752038Y17882835D01*
X-18759151Y17859386D01*
X-18761553Y17835000D01*
X-18978447Y17835000D01*
X-18980849Y17859386D01*
X-18987962Y17882835D01*
X-18999513Y17904446D01*
X-19015058Y17923387D01*
X-19034000Y17938933D01*
X-19055611Y17950484D01*
X-19130995Y17981709D01*
X-19175812Y18011655D01*
X-19221242Y18042010D01*
X-19297990Y18118758D01*
X-19358290Y18209004D01*
X-19358291Y18209005D01*
X-19389516Y18284389D01*
X-19401067Y18306000D01*
X-19416612Y18324941D01*
X-19435554Y18340487D01*
X-19457165Y18352038D01*
X-19480614Y18359151D01*
X-19505000Y18361553D01*
X-19529386Y18359151D01*
X-19552835Y18352038D01*
X-19574446Y18340487D01*
X-19593387Y18324942D01*
X-19608933Y18306000D01*
X-19620484Y18284389D01*
X-19651709Y18209005D01*
X-19651710Y18209004D01*
X-19712010Y18118758D01*
X-19788758Y18042010D01*
X-19834188Y18011655D01*
X-19879005Y17981709D01*
X-19954389Y17950484D01*
X-19976000Y17938933D01*
X-19994941Y17923388D01*
X-20010487Y17904446D01*
X-20022038Y17882835D01*
X-20029151Y17859386D01*
X-20031553Y17835000D01*
X-20248447Y17835000D01*
X-20250849Y17859386D01*
X-20257962Y17882835D01*
X-20269513Y17904446D01*
X-20285058Y17923387D01*
X-20304000Y17938933D01*
X-20325611Y17950484D01*
X-20400995Y17981709D01*
X-20445812Y18011655D01*
X-20491242Y18042010D01*
X-20567990Y18118758D01*
X-20628290Y18209004D01*
X-20628291Y18209005D01*
X-20659516Y18284389D01*
X-20671067Y18306000D01*
X-20686612Y18324941D01*
X-20705554Y18340487D01*
X-20727165Y18352038D01*
X-20750614Y18359151D01*
X-20775000Y18361553D01*
X-20799386Y18359151D01*
X-20822835Y18352038D01*
X-20844446Y18340487D01*
X-20863387Y18324942D01*
X-20878933Y18306000D01*
X-20890484Y18284389D01*
X-20921709Y18209005D01*
X-20921710Y18209004D01*
X-20982010Y18118758D01*
X-21058758Y18042010D01*
X-21104188Y18011655D01*
X-21149005Y17981709D01*
X-21224389Y17950484D01*
X-21246000Y17938933D01*
X-21264941Y17923388D01*
X-21280487Y17904446D01*
X-21292038Y17882835D01*
X-21299151Y17859386D01*
X-21301553Y17835000D01*
X-21518447Y17835000D01*
X-21520849Y17859386D01*
X-21527962Y17882835D01*
X-21539513Y17904446D01*
X-21555058Y17923387D01*
X-21574000Y17938933D01*
X-21595611Y17950484D01*
X-21670995Y17981709D01*
X-21715812Y18011655D01*
X-21761242Y18042010D01*
X-21837990Y18118758D01*
X-21898290Y18209004D01*
X-21898291Y18209005D01*
X-21929516Y18284389D01*
X-21941067Y18306000D01*
X-21956612Y18324941D01*
X-21975554Y18340487D01*
X-21997165Y18352038D01*
X-22020614Y18359151D01*
X-22045000Y18361553D01*
X-22069386Y18359151D01*
X-22092835Y18352038D01*
X-22114446Y18340487D01*
X-22133387Y18324942D01*
X-22148933Y18306000D01*
X-22160484Y18284389D01*
X-22191709Y18209005D01*
X-22191710Y18209004D01*
X-22252010Y18118758D01*
X-22328758Y18042010D01*
X-22374188Y18011655D01*
X-22419005Y17981709D01*
X-22494389Y17950484D01*
X-22516000Y17938933D01*
X-22534941Y17923388D01*
X-22550487Y17904446D01*
X-22562038Y17882835D01*
X-22569151Y17859386D01*
X-22571553Y17835000D01*
X-22788447Y17835000D01*
X-22790849Y17859386D01*
X-22797962Y17882835D01*
X-22809513Y17904446D01*
X-22825058Y17923387D01*
X-22844000Y17938933D01*
X-22865611Y17950484D01*
X-22940995Y17981709D01*
X-22985812Y18011655D01*
X-23031242Y18042010D01*
X-23107990Y18118758D01*
X-23168290Y18209004D01*
X-23168291Y18209005D01*
X-23209826Y18309279D01*
X-23231000Y18415730D01*
X-23231000Y18524270D01*
X-23209826Y18630721D01*
X-23168291Y18730995D01*
X-23107991Y18821240D01*
X-23107990Y18821242D01*
X-23031242Y18897990D01*
X-22940996Y18958290D01*
X-22940995Y18958291D01*
X-22840721Y18999826D01*
X-22734270Y19021000D01*
X-22625730Y19021000D01*
X-22519279Y18999826D01*
G37*
G36*
X601000Y18649000D02*
G01*
X-601000Y18649000D01*
X-601000Y19851000D01*
X601000Y19851000D01*
X601000Y18649000D01*
G37*
G36*
X601000Y20149000D02*
G01*
X-601000Y20149000D01*
X-601000Y21351000D01*
X601000Y21351000D01*
X601000Y20149000D01*
G37*
G36*
X-25574000Y26151000D02*
G01*
X-34426000Y26151000D01*
X-34426000Y27753000D01*
X-25574000Y27753000D01*
X-25574000Y26151000D01*
G37*
G36*
X33122000Y26151000D02*
G01*
X25574000Y26151000D01*
X25574000Y27753000D01*
X33122000Y27753000D01*
X33122000Y26151000D01*
G37*
G36*
X34426000Y26151000D02*
G01*
X33374000Y26151000D01*
X33374000Y27753000D01*
X34426000Y27753000D01*
X34426000Y26151000D01*
G37*
G36*
X4364499Y29696555D02*
G01*
X4401995Y29685180D01*
X4436554Y29666708D01*
X4466847Y29641847D01*
X4491708Y29611554D01*
X4510180Y29576995D01*
X4521555Y29539499D01*
X4526000Y29494362D01*
X4526000Y28755638D01*
X4521555Y28710501D01*
X4510180Y28673005D01*
X4491708Y28638446D01*
X4466847Y28608153D01*
X4436554Y28583292D01*
X4401995Y28564820D01*
X4364499Y28553445D01*
X4319362Y28549000D01*
X3680638Y28549000D01*
X3635501Y28553445D01*
X3598005Y28564820D01*
X3563446Y28583292D01*
X3533153Y28608153D01*
X3508292Y28638446D01*
X3489820Y28673005D01*
X3478445Y28710501D01*
X3474000Y28755638D01*
X3474000Y29494362D01*
X3478445Y29539499D01*
X3489820Y29576995D01*
X3508292Y29611554D01*
X3533153Y29641847D01*
X3563446Y29666708D01*
X3598005Y29685180D01*
X3635501Y29696555D01*
X3680638Y29701000D01*
X4319362Y29701000D01*
X4364499Y29696555D01*
G37*
G36*
X10364499Y29696555D02*
G01*
X10401995Y29685180D01*
X10436554Y29666708D01*
X10466847Y29641847D01*
X10491708Y29611554D01*
X10510180Y29576995D01*
X10521555Y29539499D01*
X10526000Y29494362D01*
X10526000Y28755638D01*
X10521555Y28710501D01*
X10510180Y28673005D01*
X10491708Y28638446D01*
X10466847Y28608153D01*
X10436554Y28583292D01*
X10401995Y28564820D01*
X10364499Y28553445D01*
X10319362Y28549000D01*
X9680638Y28549000D01*
X9635501Y28553445D01*
X9598005Y28564820D01*
X9563446Y28583292D01*
X9533153Y28608153D01*
X9508292Y28638446D01*
X9489820Y28673005D01*
X9478445Y28710501D01*
X9474000Y28755638D01*
X9474000Y29494362D01*
X9478445Y29539499D01*
X9489820Y29576995D01*
X9508292Y29611554D01*
X9533153Y29641847D01*
X9563446Y29666708D01*
X9598005Y29685180D01*
X9635501Y29696555D01*
X9680638Y29701000D01*
X10319362Y29701000D01*
X10364499Y29696555D01*
G37*
G36*
X14364499Y29696555D02*
G01*
X14401995Y29685180D01*
X14436554Y29666708D01*
X14466847Y29641847D01*
X14491708Y29611554D01*
X14510180Y29576995D01*
X14521555Y29539499D01*
X14526000Y29494362D01*
X14526000Y28755638D01*
X14521555Y28710501D01*
X14510180Y28673005D01*
X14491708Y28638446D01*
X14466847Y28608153D01*
X14436554Y28583292D01*
X14401995Y28564820D01*
X14364499Y28553445D01*
X14319362Y28549000D01*
X13680638Y28549000D01*
X13635501Y28553445D01*
X13598005Y28564820D01*
X13563446Y28583292D01*
X13533153Y28608153D01*
X13508292Y28638446D01*
X13489820Y28673005D01*
X13478445Y28710501D01*
X13474000Y28755638D01*
X13474000Y29494362D01*
X13478445Y29539499D01*
X13489820Y29576995D01*
X13508292Y29611554D01*
X13533153Y29641847D01*
X13563446Y29666708D01*
X13598005Y29685180D01*
X13635501Y29696555D01*
X13680638Y29701000D01*
X14319362Y29701000D01*
X14364499Y29696555D01*
G37*
G36*
X12364499Y29696555D02*
G01*
X12401995Y29685180D01*
X12436554Y29666708D01*
X12466847Y29641847D01*
X12491708Y29611554D01*
X12510180Y29576995D01*
X12521555Y29539499D01*
X12526000Y29494362D01*
X12526000Y28755638D01*
X12521555Y28710501D01*
X12510180Y28673005D01*
X12491708Y28638446D01*
X12466847Y28608153D01*
X12436554Y28583292D01*
X12401995Y28564820D01*
X12364499Y28553445D01*
X12319362Y28549000D01*
X11680638Y28549000D01*
X11635501Y28553445D01*
X11598005Y28564820D01*
X11563446Y28583292D01*
X11533153Y28608153D01*
X11508292Y28638446D01*
X11489820Y28673005D01*
X11478445Y28710501D01*
X11474000Y28755638D01*
X11474000Y29494362D01*
X11478445Y29539499D01*
X11489820Y29576995D01*
X11508292Y29611554D01*
X11533153Y29641847D01*
X11563446Y29666708D01*
X11598005Y29685180D01*
X11635501Y29696555D01*
X11680638Y29701000D01*
X12319362Y29701000D01*
X12364499Y29696555D01*
G37*
G36*
X-1635501Y29696555D02*
G01*
X-1598005Y29685180D01*
X-1563446Y29666708D01*
X-1533153Y29641847D01*
X-1508292Y29611554D01*
X-1489820Y29576995D01*
X-1478445Y29539499D01*
X-1474000Y29494362D01*
X-1474000Y28755638D01*
X-1478445Y28710501D01*
X-1489820Y28673005D01*
X-1508292Y28638446D01*
X-1533153Y28608153D01*
X-1563446Y28583292D01*
X-1598005Y28564820D01*
X-1635501Y28553445D01*
X-1680638Y28549000D01*
X-2319362Y28549000D01*
X-2364499Y28553445D01*
X-2401995Y28564820D01*
X-2436554Y28583292D01*
X-2466847Y28608153D01*
X-2491708Y28638446D01*
X-2510180Y28673005D01*
X-2521555Y28710501D01*
X-2526000Y28755638D01*
X-2526000Y29494362D01*
X-2521555Y29539499D01*
X-2510180Y29576995D01*
X-2491708Y29611554D01*
X-2466847Y29641847D01*
X-2436554Y29666708D01*
X-2401995Y29685180D01*
X-2364499Y29696555D01*
X-2319362Y29701000D01*
X-1680638Y29701000D01*
X-1635501Y29696555D01*
G37*
G36*
X-3635501Y29696555D02*
G01*
X-3598005Y29685180D01*
X-3563446Y29666708D01*
X-3533153Y29641847D01*
X-3508292Y29611554D01*
X-3489820Y29576995D01*
X-3478445Y29539499D01*
X-3474000Y29494362D01*
X-3474000Y28755638D01*
X-3478445Y28710501D01*
X-3489820Y28673005D01*
X-3508292Y28638446D01*
X-3533153Y28608153D01*
X-3563446Y28583292D01*
X-3598005Y28564820D01*
X-3635501Y28553445D01*
X-3680638Y28549000D01*
X-4319362Y28549000D01*
X-4364499Y28553445D01*
X-4401995Y28564820D01*
X-4436554Y28583292D01*
X-4466847Y28608153D01*
X-4491708Y28638446D01*
X-4510180Y28673005D01*
X-4521555Y28710501D01*
X-4526000Y28755638D01*
X-4526000Y29494362D01*
X-4521555Y29539499D01*
X-4510180Y29576995D01*
X-4491708Y29611554D01*
X-4466847Y29641847D01*
X-4436554Y29666708D01*
X-4401995Y29685180D01*
X-4364499Y29696555D01*
X-4319362Y29701000D01*
X-3680638Y29701000D01*
X-3635501Y29696555D01*
G37*
G36*
X8364499Y29696555D02*
G01*
X8401995Y29685180D01*
X8436554Y29666708D01*
X8466847Y29641847D01*
X8491708Y29611554D01*
X8510180Y29576995D01*
X8521555Y29539499D01*
X8526000Y29494362D01*
X8526000Y28755638D01*
X8521555Y28710501D01*
X8510180Y28673005D01*
X8491708Y28638446D01*
X8466847Y28608153D01*
X8436554Y28583292D01*
X8401995Y28564820D01*
X8364499Y28553445D01*
X8319362Y28549000D01*
X7680638Y28549000D01*
X7635501Y28553445D01*
X7598005Y28564820D01*
X7563446Y28583292D01*
X7533153Y28608153D01*
X7508292Y28638446D01*
X7489820Y28673005D01*
X7478445Y28710501D01*
X7474000Y28755638D01*
X7474000Y29494362D01*
X7478445Y29539499D01*
X7489820Y29576995D01*
X7508292Y29611554D01*
X7533153Y29641847D01*
X7563446Y29666708D01*
X7598005Y29685180D01*
X7635501Y29696555D01*
X7680638Y29701000D01*
X8319362Y29701000D01*
X8364499Y29696555D01*
G37*
G36*
X-5635501Y29696555D02*
G01*
X-5598005Y29685180D01*
X-5563446Y29666708D01*
X-5533153Y29641847D01*
X-5508292Y29611554D01*
X-5489820Y29576995D01*
X-5478445Y29539499D01*
X-5474000Y29494362D01*
X-5474000Y28755638D01*
X-5478445Y28710501D01*
X-5489820Y28673005D01*
X-5508292Y28638446D01*
X-5533153Y28608153D01*
X-5563446Y28583292D01*
X-5598005Y28564820D01*
X-5635501Y28553445D01*
X-5680638Y28549000D01*
X-6319362Y28549000D01*
X-6364499Y28553445D01*
X-6401995Y28564820D01*
X-6436554Y28583292D01*
X-6466847Y28608153D01*
X-6491708Y28638446D01*
X-6510180Y28673005D01*
X-6521555Y28710501D01*
X-6526000Y28755638D01*
X-6526000Y29494362D01*
X-6521555Y29539499D01*
X-6510180Y29576995D01*
X-6491708Y29611554D01*
X-6466847Y29641847D01*
X-6436554Y29666708D01*
X-6401995Y29685180D01*
X-6364499Y29696555D01*
X-6319362Y29701000D01*
X-5680638Y29701000D01*
X-5635501Y29696555D01*
G37*
G36*
X6364499Y29696555D02*
G01*
X6401995Y29685180D01*
X6436554Y29666708D01*
X6466847Y29641847D01*
X6491708Y29611554D01*
X6510180Y29576995D01*
X6521555Y29539499D01*
X6526000Y29494362D01*
X6526000Y28755638D01*
X6521555Y28710501D01*
X6510180Y28673005D01*
X6491708Y28638446D01*
X6466847Y28608153D01*
X6436554Y28583292D01*
X6401995Y28564820D01*
X6364499Y28553445D01*
X6319362Y28549000D01*
X5680638Y28549000D01*
X5635501Y28553445D01*
X5598005Y28564820D01*
X5563446Y28583292D01*
X5533153Y28608153D01*
X5508292Y28638446D01*
X5489820Y28673005D01*
X5478445Y28710501D01*
X5474000Y28755638D01*
X5474000Y29494362D01*
X5478445Y29539499D01*
X5489820Y29576995D01*
X5508292Y29611554D01*
X5533153Y29641847D01*
X5563446Y29666708D01*
X5598005Y29685180D01*
X5635501Y29696555D01*
X5680638Y29701000D01*
X6319362Y29701000D01*
X6364499Y29696555D01*
G37*
G36*
X-7635501Y29696555D02*
G01*
X-7598005Y29685180D01*
X-7563446Y29666708D01*
X-7533153Y29641847D01*
X-7508292Y29611554D01*
X-7489820Y29576995D01*
X-7478445Y29539499D01*
X-7474000Y29494362D01*
X-7474000Y28755638D01*
X-7478445Y28710501D01*
X-7489820Y28673005D01*
X-7508292Y28638446D01*
X-7533153Y28608153D01*
X-7563446Y28583292D01*
X-7598005Y28564820D01*
X-7635501Y28553445D01*
X-7680638Y28549000D01*
X-8319362Y28549000D01*
X-8364499Y28553445D01*
X-8401995Y28564820D01*
X-8436554Y28583292D01*
X-8466847Y28608153D01*
X-8491708Y28638446D01*
X-8510180Y28673005D01*
X-8521555Y28710501D01*
X-8526000Y28755638D01*
X-8526000Y29494362D01*
X-8521555Y29539499D01*
X-8510180Y29576995D01*
X-8491708Y29611554D01*
X-8466847Y29641847D01*
X-8436554Y29666708D01*
X-8401995Y29685180D01*
X-8364499Y29696555D01*
X-8319362Y29701000D01*
X-7680638Y29701000D01*
X-7635501Y29696555D01*
G37*
G36*
X-13635501Y29696555D02*
G01*
X-13598005Y29685180D01*
X-13563446Y29666708D01*
X-13533153Y29641847D01*
X-13508292Y29611554D01*
X-13489820Y29576995D01*
X-13478445Y29539499D01*
X-13474000Y29494362D01*
X-13474000Y28755638D01*
X-13478445Y28710501D01*
X-13489820Y28673005D01*
X-13508292Y28638446D01*
X-13533153Y28608153D01*
X-13563446Y28583292D01*
X-13598005Y28564820D01*
X-13635501Y28553445D01*
X-13680638Y28549000D01*
X-14319362Y28549000D01*
X-14364499Y28553445D01*
X-14401995Y28564820D01*
X-14436554Y28583292D01*
X-14466847Y28608153D01*
X-14491708Y28638446D01*
X-14510180Y28673005D01*
X-14521555Y28710501D01*
X-14526000Y28755638D01*
X-14526000Y29494362D01*
X-14521555Y29539499D01*
X-14510180Y29576995D01*
X-14491708Y29611554D01*
X-14466847Y29641847D01*
X-14436554Y29666708D01*
X-14401995Y29685180D01*
X-14364499Y29696555D01*
X-14319362Y29701000D01*
X-13680638Y29701000D01*
X-13635501Y29696555D01*
G37*
G36*
X2364499Y29696555D02*
G01*
X2401995Y29685180D01*
X2436554Y29666708D01*
X2466847Y29641847D01*
X2491708Y29611554D01*
X2510180Y29576995D01*
X2521555Y29539499D01*
X2526000Y29494362D01*
X2526000Y28755638D01*
X2521555Y28710501D01*
X2510180Y28673005D01*
X2491708Y28638446D01*
X2466847Y28608153D01*
X2436554Y28583292D01*
X2401995Y28564820D01*
X2364499Y28553445D01*
X2319362Y28549000D01*
X1680638Y28549000D01*
X1635501Y28553445D01*
X1598005Y28564820D01*
X1563446Y28583292D01*
X1533153Y28608153D01*
X1508292Y28638446D01*
X1489820Y28673005D01*
X1478445Y28710501D01*
X1474000Y28755638D01*
X1474000Y29494362D01*
X1478445Y29539499D01*
X1489820Y29576995D01*
X1508292Y29611554D01*
X1533153Y29641847D01*
X1563446Y29666708D01*
X1598005Y29685180D01*
X1635501Y29696555D01*
X1680638Y29701000D01*
X2319362Y29701000D01*
X2364499Y29696555D01*
G37*
G36*
X-9635501Y29696555D02*
G01*
X-9598005Y29685180D01*
X-9563446Y29666708D01*
X-9533153Y29641847D01*
X-9508292Y29611554D01*
X-9489820Y29576995D01*
X-9478445Y29539499D01*
X-9474000Y29494362D01*
X-9474000Y28755638D01*
X-9478445Y28710501D01*
X-9489820Y28673005D01*
X-9508292Y28638446D01*
X-9533153Y28608153D01*
X-9563446Y28583292D01*
X-9598005Y28564820D01*
X-9635501Y28553445D01*
X-9680638Y28549000D01*
X-10319362Y28549000D01*
X-10364499Y28553445D01*
X-10401995Y28564820D01*
X-10436554Y28583292D01*
X-10466847Y28608153D01*
X-10491708Y28638446D01*
X-10510180Y28673005D01*
X-10521555Y28710501D01*
X-10526000Y28755638D01*
X-10526000Y29494362D01*
X-10521555Y29539499D01*
X-10510180Y29576995D01*
X-10491708Y29611554D01*
X-10466847Y29641847D01*
X-10436554Y29666708D01*
X-10401995Y29685180D01*
X-10364499Y29696555D01*
X-10319362Y29701000D01*
X-9680638Y29701000D01*
X-9635501Y29696555D01*
G37*
G36*
X364499Y29696555D02*
G01*
X401995Y29685180D01*
X436554Y29666708D01*
X466847Y29641847D01*
X491708Y29611554D01*
X510180Y29576995D01*
X521555Y29539499D01*
X526000Y29494362D01*
X526000Y28755638D01*
X521555Y28710501D01*
X510180Y28673005D01*
X491708Y28638446D01*
X466847Y28608153D01*
X436554Y28583292D01*
X401995Y28564820D01*
X364499Y28553445D01*
X319362Y28549000D01*
X-319362Y28549000D01*
X-364499Y28553445D01*
X-401995Y28564820D01*
X-436554Y28583292D01*
X-466847Y28608153D01*
X-491708Y28638446D01*
X-510180Y28673005D01*
X-521555Y28710501D01*
X-526000Y28755638D01*
X-526000Y29494362D01*
X-521555Y29539499D01*
X-510180Y29576995D01*
X-491708Y29611554D01*
X-466847Y29641847D01*
X-436554Y29666708D01*
X-401995Y29685180D01*
X-364499Y29696555D01*
X-319362Y29701000D01*
X319362Y29701000D01*
X364499Y29696555D01*
G37*
G36*
X-11635501Y29696555D02*
G01*
X-11598005Y29685180D01*
X-11563446Y29666708D01*
X-11533153Y29641847D01*
X-11508292Y29611554D01*
X-11489820Y29576995D01*
X-11478445Y29539499D01*
X-11474000Y29494362D01*
X-11474000Y28755638D01*
X-11478445Y28710501D01*
X-11489820Y28673005D01*
X-11508292Y28638446D01*
X-11533153Y28608153D01*
X-11563446Y28583292D01*
X-11598005Y28564820D01*
X-11635501Y28553445D01*
X-11680638Y28549000D01*
X-12319362Y28549000D01*
X-12364499Y28553445D01*
X-12401995Y28564820D01*
X-12436554Y28583292D01*
X-12466847Y28608153D01*
X-12491708Y28638446D01*
X-12510180Y28673005D01*
X-12521555Y28710501D01*
X-12526000Y28755638D01*
X-12526000Y29494362D01*
X-12521555Y29539499D01*
X-12510180Y29576995D01*
X-12491708Y29611554D01*
X-12466847Y29641847D01*
X-12436554Y29666708D01*
X-12401995Y29685180D01*
X-12364499Y29696555D01*
X-12319362Y29701000D01*
X-11680638Y29701000D01*
X-11635501Y29696555D01*
G37*
G36*
X-13635501Y31446555D02*
G01*
X-13598005Y31435180D01*
X-13563446Y31416708D01*
X-13533153Y31391847D01*
X-13508292Y31361554D01*
X-13489820Y31326995D01*
X-13478445Y31289499D01*
X-13474000Y31244362D01*
X-13474000Y30505638D01*
X-13478445Y30460501D01*
X-13489820Y30423005D01*
X-13508292Y30388446D01*
X-13533153Y30358153D01*
X-13563446Y30333292D01*
X-13598005Y30314820D01*
X-13635501Y30303445D01*
X-13680638Y30299000D01*
X-14319362Y30299000D01*
X-14364499Y30303445D01*
X-14401995Y30314820D01*
X-14436554Y30333292D01*
X-14466847Y30358153D01*
X-14491708Y30388446D01*
X-14510180Y30423005D01*
X-14521555Y30460501D01*
X-14526000Y30505638D01*
X-14526000Y31244362D01*
X-14521555Y31289499D01*
X-14510180Y31326995D01*
X-14491708Y31361554D01*
X-14466847Y31391847D01*
X-14436554Y31416708D01*
X-14401995Y31435180D01*
X-14364499Y31446555D01*
X-14319362Y31451000D01*
X-13680638Y31451000D01*
X-13635501Y31446555D01*
G37*
G36*
X10364499Y31446555D02*
G01*
X10401995Y31435180D01*
X10436554Y31416708D01*
X10466847Y31391847D01*
X10491708Y31361554D01*
X10510180Y31326995D01*
X10521555Y31289499D01*
X10526000Y31244362D01*
X10526000Y30505638D01*
X10521555Y30460501D01*
X10510180Y30423005D01*
X10491708Y30388446D01*
X10466847Y30358153D01*
X10436554Y30333292D01*
X10401995Y30314820D01*
X10364499Y30303445D01*
X10319362Y30299000D01*
X9680638Y30299000D01*
X9635501Y30303445D01*
X9598005Y30314820D01*
X9563446Y30333292D01*
X9533153Y30358153D01*
X9508292Y30388446D01*
X9489820Y30423005D01*
X9478445Y30460501D01*
X9474000Y30505638D01*
X9474000Y31244362D01*
X9478445Y31289499D01*
X9489820Y31326995D01*
X9508292Y31361554D01*
X9533153Y31391847D01*
X9563446Y31416708D01*
X9598005Y31435180D01*
X9635501Y31446555D01*
X9680638Y31451000D01*
X10319362Y31451000D01*
X10364499Y31446555D01*
G37*
G36*
X364499Y31446555D02*
G01*
X401995Y31435180D01*
X436554Y31416708D01*
X466847Y31391847D01*
X491708Y31361554D01*
X510180Y31326995D01*
X521555Y31289499D01*
X526000Y31244362D01*
X526000Y30505638D01*
X521555Y30460501D01*
X510180Y30423005D01*
X491708Y30388446D01*
X466847Y30358153D01*
X436554Y30333292D01*
X401995Y30314820D01*
X364499Y30303445D01*
X319362Y30299000D01*
X-319362Y30299000D01*
X-364499Y30303445D01*
X-401995Y30314820D01*
X-436554Y30333292D01*
X-466847Y30358153D01*
X-491708Y30388446D01*
X-510180Y30423005D01*
X-521555Y30460501D01*
X-526000Y30505638D01*
X-526000Y31244362D01*
X-521555Y31289499D01*
X-510180Y31326995D01*
X-491708Y31361554D01*
X-466847Y31391847D01*
X-436554Y31416708D01*
X-401995Y31435180D01*
X-364499Y31446555D01*
X-319362Y31451000D01*
X319362Y31451000D01*
X364499Y31446555D01*
G37*
G36*
X-11635501Y31446555D02*
G01*
X-11598005Y31435180D01*
X-11563446Y31416708D01*
X-11533153Y31391847D01*
X-11508292Y31361554D01*
X-11489820Y31326995D01*
X-11478445Y31289499D01*
X-11474000Y31244362D01*
X-11474000Y30505638D01*
X-11478445Y30460501D01*
X-11489820Y30423005D01*
X-11508292Y30388446D01*
X-11533153Y30358153D01*
X-11563446Y30333292D01*
X-11598005Y30314820D01*
X-11635501Y30303445D01*
X-11680638Y30299000D01*
X-12319362Y30299000D01*
X-12364499Y30303445D01*
X-12401995Y30314820D01*
X-12436554Y30333292D01*
X-12466847Y30358153D01*
X-12491708Y30388446D01*
X-12510180Y30423005D01*
X-12521555Y30460501D01*
X-12526000Y30505638D01*
X-12526000Y31244362D01*
X-12521555Y31289499D01*
X-12510180Y31326995D01*
X-12491708Y31361554D01*
X-12466847Y31391847D01*
X-12436554Y31416708D01*
X-12401995Y31435180D01*
X-12364499Y31446555D01*
X-12319362Y31451000D01*
X-11680638Y31451000D01*
X-11635501Y31446555D01*
G37*
G36*
X-9635501Y31446555D02*
G01*
X-9598005Y31435180D01*
X-9563446Y31416708D01*
X-9533153Y31391847D01*
X-9508292Y31361554D01*
X-9489820Y31326995D01*
X-9478445Y31289499D01*
X-9474000Y31244362D01*
X-9474000Y30505638D01*
X-9478445Y30460501D01*
X-9489820Y30423005D01*
X-9508292Y30388446D01*
X-9533153Y30358153D01*
X-9563446Y30333292D01*
X-9598005Y30314820D01*
X-9635501Y30303445D01*
X-9680638Y30299000D01*
X-10319362Y30299000D01*
X-10364499Y30303445D01*
X-10401995Y30314820D01*
X-10436554Y30333292D01*
X-10466847Y30358153D01*
X-10491708Y30388446D01*
X-10510180Y30423005D01*
X-10521555Y30460501D01*
X-10526000Y30505638D01*
X-10526000Y31244362D01*
X-10521555Y31289499D01*
X-10510180Y31326995D01*
X-10491708Y31361554D01*
X-10466847Y31391847D01*
X-10436554Y31416708D01*
X-10401995Y31435180D01*
X-10364499Y31446555D01*
X-10319362Y31451000D01*
X-9680638Y31451000D01*
X-9635501Y31446555D01*
G37*
G36*
X2364499Y31446555D02*
G01*
X2401995Y31435180D01*
X2436554Y31416708D01*
X2466847Y31391847D01*
X2491708Y31361554D01*
X2510180Y31326995D01*
X2521555Y31289499D01*
X2526000Y31244362D01*
X2526000Y30505638D01*
X2521555Y30460501D01*
X2510180Y30423005D01*
X2491708Y30388446D01*
X2466847Y30358153D01*
X2436554Y30333292D01*
X2401995Y30314820D01*
X2364499Y30303445D01*
X2319362Y30299000D01*
X1680638Y30299000D01*
X1635501Y30303445D01*
X1598005Y30314820D01*
X1563446Y30333292D01*
X1533153Y30358153D01*
X1508292Y30388446D01*
X1489820Y30423005D01*
X1478445Y30460501D01*
X1474000Y30505638D01*
X1474000Y31244362D01*
X1478445Y31289499D01*
X1489820Y31326995D01*
X1508292Y31361554D01*
X1533153Y31391847D01*
X1563446Y31416708D01*
X1598005Y31435180D01*
X1635501Y31446555D01*
X1680638Y31451000D01*
X2319362Y31451000D01*
X2364499Y31446555D01*
G37*
G36*
X4364499Y31446555D02*
G01*
X4401995Y31435180D01*
X4436554Y31416708D01*
X4466847Y31391847D01*
X4491708Y31361554D01*
X4510180Y31326995D01*
X4521555Y31289499D01*
X4526000Y31244362D01*
X4526000Y30505638D01*
X4521555Y30460501D01*
X4510180Y30423005D01*
X4491708Y30388446D01*
X4466847Y30358153D01*
X4436554Y30333292D01*
X4401995Y30314820D01*
X4364499Y30303445D01*
X4319362Y30299000D01*
X3680638Y30299000D01*
X3635501Y30303445D01*
X3598005Y30314820D01*
X3563446Y30333292D01*
X3533153Y30358153D01*
X3508292Y30388446D01*
X3489820Y30423005D01*
X3478445Y30460501D01*
X3474000Y30505638D01*
X3474000Y31244362D01*
X3478445Y31289499D01*
X3489820Y31326995D01*
X3508292Y31361554D01*
X3533153Y31391847D01*
X3563446Y31416708D01*
X3598005Y31435180D01*
X3635501Y31446555D01*
X3680638Y31451000D01*
X4319362Y31451000D01*
X4364499Y31446555D01*
G37*
G36*
X-7635501Y31446555D02*
G01*
X-7598005Y31435180D01*
X-7563446Y31416708D01*
X-7533153Y31391847D01*
X-7508292Y31361554D01*
X-7489820Y31326995D01*
X-7478445Y31289499D01*
X-7474000Y31244362D01*
X-7474000Y30505638D01*
X-7478445Y30460501D01*
X-7489820Y30423005D01*
X-7508292Y30388446D01*
X-7533153Y30358153D01*
X-7563446Y30333292D01*
X-7598005Y30314820D01*
X-7635501Y30303445D01*
X-7680638Y30299000D01*
X-8319362Y30299000D01*
X-8364499Y30303445D01*
X-8401995Y30314820D01*
X-8436554Y30333292D01*
X-8466847Y30358153D01*
X-8491708Y30388446D01*
X-8510180Y30423005D01*
X-8521555Y30460501D01*
X-8526000Y30505638D01*
X-8526000Y31244362D01*
X-8521555Y31289499D01*
X-8510180Y31326995D01*
X-8491708Y31361554D01*
X-8466847Y31391847D01*
X-8436554Y31416708D01*
X-8401995Y31435180D01*
X-8364499Y31446555D01*
X-8319362Y31451000D01*
X-7680638Y31451000D01*
X-7635501Y31446555D01*
G37*
G36*
X6364499Y31446555D02*
G01*
X6401995Y31435180D01*
X6436554Y31416708D01*
X6466847Y31391847D01*
X6491708Y31361554D01*
X6510180Y31326995D01*
X6521555Y31289499D01*
X6526000Y31244362D01*
X6526000Y30505638D01*
X6521555Y30460501D01*
X6510180Y30423005D01*
X6491708Y30388446D01*
X6466847Y30358153D01*
X6436554Y30333292D01*
X6401995Y30314820D01*
X6364499Y30303445D01*
X6319362Y30299000D01*
X5680638Y30299000D01*
X5635501Y30303445D01*
X5598005Y30314820D01*
X5563446Y30333292D01*
X5533153Y30358153D01*
X5508292Y30388446D01*
X5489820Y30423005D01*
X5478445Y30460501D01*
X5474000Y30505638D01*
X5474000Y31244362D01*
X5478445Y31289499D01*
X5489820Y31326995D01*
X5508292Y31361554D01*
X5533153Y31391847D01*
X5563446Y31416708D01*
X5598005Y31435180D01*
X5635501Y31446555D01*
X5680638Y31451000D01*
X6319362Y31451000D01*
X6364499Y31446555D01*
G37*
G36*
X-5635501Y31446555D02*
G01*
X-5598005Y31435180D01*
X-5563446Y31416708D01*
X-5533153Y31391847D01*
X-5508292Y31361554D01*
X-5489820Y31326995D01*
X-5478445Y31289499D01*
X-5474000Y31244362D01*
X-5474000Y30505638D01*
X-5478445Y30460501D01*
X-5489820Y30423005D01*
X-5508292Y30388446D01*
X-5533153Y30358153D01*
X-5563446Y30333292D01*
X-5598005Y30314820D01*
X-5635501Y30303445D01*
X-5680638Y30299000D01*
X-6319362Y30299000D01*
X-6364499Y30303445D01*
X-6401995Y30314820D01*
X-6436554Y30333292D01*
X-6466847Y30358153D01*
X-6491708Y30388446D01*
X-6510180Y30423005D01*
X-6521555Y30460501D01*
X-6526000Y30505638D01*
X-6526000Y31244362D01*
X-6521555Y31289499D01*
X-6510180Y31326995D01*
X-6491708Y31361554D01*
X-6466847Y31391847D01*
X-6436554Y31416708D01*
X-6401995Y31435180D01*
X-6364499Y31446555D01*
X-6319362Y31451000D01*
X-5680638Y31451000D01*
X-5635501Y31446555D01*
G37*
G36*
X8364499Y31446555D02*
G01*
X8401995Y31435180D01*
X8436554Y31416708D01*
X8466847Y31391847D01*
X8491708Y31361554D01*
X8510180Y31326995D01*
X8521555Y31289499D01*
X8526000Y31244362D01*
X8526000Y30505638D01*
X8521555Y30460501D01*
X8510180Y30423005D01*
X8491708Y30388446D01*
X8466847Y30358153D01*
X8436554Y30333292D01*
X8401995Y30314820D01*
X8364499Y30303445D01*
X8319362Y30299000D01*
X7680638Y30299000D01*
X7635501Y30303445D01*
X7598005Y30314820D01*
X7563446Y30333292D01*
X7533153Y30358153D01*
X7508292Y30388446D01*
X7489820Y30423005D01*
X7478445Y30460501D01*
X7474000Y30505638D01*
X7474000Y31244362D01*
X7478445Y31289499D01*
X7489820Y31326995D01*
X7508292Y31361554D01*
X7533153Y31391847D01*
X7563446Y31416708D01*
X7598005Y31435180D01*
X7635501Y31446555D01*
X7680638Y31451000D01*
X8319362Y31451000D01*
X8364499Y31446555D01*
G37*
G36*
X-1635501Y31446555D02*
G01*
X-1598005Y31435180D01*
X-1563446Y31416708D01*
X-1533153Y31391847D01*
X-1508292Y31361554D01*
X-1489820Y31326995D01*
X-1478445Y31289499D01*
X-1474000Y31244362D01*
X-1474000Y30505638D01*
X-1478445Y30460501D01*
X-1489820Y30423005D01*
X-1508292Y30388446D01*
X-1533153Y30358153D01*
X-1563446Y30333292D01*
X-1598005Y30314820D01*
X-1635501Y30303445D01*
X-1680638Y30299000D01*
X-2319362Y30299000D01*
X-2364499Y30303445D01*
X-2401995Y30314820D01*
X-2436554Y30333292D01*
X-2466847Y30358153D01*
X-2491708Y30388446D01*
X-2510180Y30423005D01*
X-2521555Y30460501D01*
X-2526000Y30505638D01*
X-2526000Y31244362D01*
X-2521555Y31289499D01*
X-2510180Y31326995D01*
X-2491708Y31361554D01*
X-2466847Y31391847D01*
X-2436554Y31416708D01*
X-2401995Y31435180D01*
X-2364499Y31446555D01*
X-2319362Y31451000D01*
X-1680638Y31451000D01*
X-1635501Y31446555D01*
G37*
G36*
X-3635501Y31446555D02*
G01*
X-3598005Y31435180D01*
X-3563446Y31416708D01*
X-3533153Y31391847D01*
X-3508292Y31361554D01*
X-3489820Y31326995D01*
X-3478445Y31289499D01*
X-3474000Y31244362D01*
X-3474000Y30505638D01*
X-3478445Y30460501D01*
X-3489820Y30423005D01*
X-3508292Y30388446D01*
X-3533153Y30358153D01*
X-3563446Y30333292D01*
X-3598005Y30314820D01*
X-3635501Y30303445D01*
X-3680638Y30299000D01*
X-4319362Y30299000D01*
X-4364499Y30303445D01*
X-4401995Y30314820D01*
X-4436554Y30333292D01*
X-4466847Y30358153D01*
X-4491708Y30388446D01*
X-4510180Y30423005D01*
X-4521555Y30460501D01*
X-4526000Y30505638D01*
X-4526000Y31244362D01*
X-4521555Y31289499D01*
X-4510180Y31326995D01*
X-4491708Y31361554D01*
X-4466847Y31391847D01*
X-4436554Y31416708D01*
X-4401995Y31435180D01*
X-4364499Y31446555D01*
X-4319362Y31451000D01*
X-3680638Y31451000D01*
X-3635501Y31446555D01*
G37*
G36*
X14364499Y31446555D02*
G01*
X14401995Y31435180D01*
X14436554Y31416708D01*
X14466847Y31391847D01*
X14491708Y31361554D01*
X14510180Y31326995D01*
X14521555Y31289499D01*
X14526000Y31244362D01*
X14526000Y30505638D01*
X14521555Y30460501D01*
X14510180Y30423005D01*
X14491708Y30388446D01*
X14466847Y30358153D01*
X14436554Y30333292D01*
X14401995Y30314820D01*
X14364499Y30303445D01*
X14319362Y30299000D01*
X13680638Y30299000D01*
X13635501Y30303445D01*
X13598005Y30314820D01*
X13563446Y30333292D01*
X13533153Y30358153D01*
X13508292Y30388446D01*
X13489820Y30423005D01*
X13478445Y30460501D01*
X13474000Y30505638D01*
X13474000Y31244362D01*
X13478445Y31289499D01*
X13489820Y31326995D01*
X13508292Y31361554D01*
X13533153Y31391847D01*
X13563446Y31416708D01*
X13598005Y31435180D01*
X13635501Y31446555D01*
X13680638Y31451000D01*
X14319362Y31451000D01*
X14364499Y31446555D01*
G37*
G36*
X12364499Y31446555D02*
G01*
X12401995Y31435180D01*
X12436554Y31416708D01*
X12466847Y31391847D01*
X12491708Y31361554D01*
X12510180Y31326995D01*
X12521555Y31289499D01*
X12526000Y31244362D01*
X12526000Y30505638D01*
X12521555Y30460501D01*
X12510180Y30423005D01*
X12491708Y30388446D01*
X12466847Y30358153D01*
X12436554Y30333292D01*
X12401995Y30314820D01*
X12364499Y30303445D01*
X12319362Y30299000D01*
X11680638Y30299000D01*
X11635501Y30303445D01*
X11598005Y30314820D01*
X11563446Y30333292D01*
X11533153Y30358153D01*
X11508292Y30388446D01*
X11489820Y30423005D01*
X11478445Y30460501D01*
X11474000Y30505638D01*
X11474000Y31244362D01*
X11478445Y31289499D01*
X11489820Y31326995D01*
X11508292Y31361554D01*
X11533153Y31391847D01*
X11563446Y31416708D01*
X11598005Y31435180D01*
X11635501Y31446555D01*
X11680638Y31451000D01*
X12319362Y31451000D01*
X12364499Y31446555D01*
G37*
G36*
X-25574000Y32247000D02*
G01*
X-33122000Y32247000D01*
X-33122000Y33849000D01*
X-25574000Y33849000D01*
X-25574000Y32247000D01*
G37*
G36*
X34426000Y32247000D02*
G01*
X25574000Y32247000D01*
X25574000Y33849000D01*
X34426000Y33849000D01*
X34426000Y32247000D01*
G37*
G36*
X-33374000Y32247000D02*
G01*
X-34426000Y32247000D01*
X-34426000Y33849000D01*
X-33374000Y33849000D01*
X-33374000Y32247000D01*
G37*
M02*
