G04 #@! TF.GenerationSoftware,KiCad,Pcbnew,(5.1.5-0-10_14)*
G04 #@! TF.CreationDate,2021-01-17T15:29:47+09:00*
G04 #@! TF.ProjectId,LedClock,4c656443-6c6f-4636-9b2e-6b696361645f,1.0*
G04 #@! TF.SameCoordinates,Original*
G04 #@! TF.FileFunction,Paste,Top*
G04 #@! TF.FilePolarity,Positive*
%FSLAX46Y46*%
G04 Gerber Fmt 4.6, Leading zero omitted, Abs format (unit mm)*
G04 Created by KiCad (PCBNEW (5.1.5-0-10_14)) date 2021-01-17 15:29:47*
%MOMM*%
%LPD*%
G04 APERTURE LIST*
%ADD10C,1.200000*%
G04 APERTURE END LIST*
D10*
X-3195339Y38072680D03*
X-4786574Y37905434D03*
X-7161187Y37542153D03*
X-8726223Y37209494D03*
X-11027042Y36605248D03*
X-12548732Y36110820D03*
X-14782073Y35268863D03*
X-16243745Y34618084D03*
X-18375129Y33540000D03*
X-19760770Y32740000D03*
X-21774752Y31435799D03*
X-23069180Y30495342D03*
X-24959194Y28973566D03*
X-26148226Y27902957D03*
X-27846434Y26200806D03*
X-28917043Y25011774D03*
X-30424201Y23145248D03*
X-31364658Y21850820D03*
X-32660000Y19834871D03*
X-33460000Y18449230D03*
X-34551137Y16317927D03*
X-35201916Y14856255D03*
X-36064752Y12592958D03*
X-36559180Y11071268D03*
X-37187847Y8738813D03*
X-37520506Y7173777D03*
X-37897320Y4804661D03*
X-38064566Y3213426D03*
X-38200000Y800000D03*
X-38200000Y-800000D03*
X-38062680Y-3175339D03*
X-37895434Y-4766574D03*
X-37502153Y-7091187D03*
X-37169494Y-8656223D03*
X-36545248Y-10967042D03*
X-36050820Y-12488732D03*
X-35198863Y-14722073D03*
X-34548084Y-16183745D03*
X-33460000Y-18315129D03*
X-32660000Y-19700770D03*
X-31355799Y-21724752D03*
X-30415342Y-23019180D03*
X-28903566Y-24899194D03*
X-27832957Y-26088226D03*
X-26140806Y-27796434D03*
X-24951774Y-28867043D03*
X-23095248Y-30384201D03*
X-21800820Y-31324658D03*
X-19794871Y-32650000D03*
X-18409230Y-33450000D03*
X-16257927Y-34561137D03*
X-14796255Y-35211916D03*
X-12552958Y-36074752D03*
X-11031268Y-36569180D03*
X-8718813Y-37197847D03*
X-7153777Y-37530506D03*
X-4784661Y-37907320D03*
X-3193426Y-38074566D03*
X-800000Y-38200000D03*
X800000Y-38200000D03*
X3177249Y-38029685D03*
X4761678Y-37807008D03*
X7121187Y-37392153D03*
X8686223Y-37059494D03*
X11007042Y-36435248D03*
X12528732Y-35940820D03*
X14762073Y-35088863D03*
X16223745Y-34438084D03*
X18355129Y-33350000D03*
X19740770Y-32550000D03*
X21754752Y-31245799D03*
X23049180Y-30305342D03*
X24919194Y-28793566D03*
X26108226Y-27722957D03*
X27816434Y-26030806D03*
X28887043Y-24841774D03*
X30414201Y-22985248D03*
X31354658Y-21690820D03*
X32660000Y-19714871D03*
X33460000Y-18329230D03*
X34551137Y-16207927D03*
X35201916Y-14746255D03*
X36064752Y-12522958D03*
X36559180Y-11001268D03*
X37187847Y-8688813D03*
X37520506Y-7123777D03*
X37907320Y-4784661D03*
X38074566Y-3193426D03*
X38200000Y-800000D03*
X38200000Y800000D03*
X38082680Y3195339D03*
X37915434Y4786574D03*
X37542153Y7191187D03*
X37209494Y8756223D03*
X36557656Y11068861D03*
X36010424Y12572369D03*
X35118863Y14802073D03*
X34468084Y16263745D03*
X33390000Y18405129D03*
X32590000Y19790770D03*
X31295799Y21804752D03*
X30355342Y23099180D03*
X28863566Y24959194D03*
X27792957Y26148226D03*
X26100806Y27846434D03*
X24911774Y28917043D03*
X23065248Y30424201D03*
X21770820Y31364658D03*
X19774871Y32670000D03*
X18389230Y33470000D03*
X16247927Y34561137D03*
X14786255Y35211916D03*
X12552958Y36074752D03*
X11031268Y36569180D03*
X8698813Y37197847D03*
X7133777Y37530506D03*
X4764661Y37907320D03*
X3173426Y38074566D03*
X800000Y38200000D03*
X-800000Y38200000D03*
M02*
