G04 #@! TF.GenerationSoftware,KiCad,Pcbnew,(5.1.5-0-10_14)*
G04 #@! TF.CreationDate,2021-02-01T23:30:03+09:00*
G04 #@! TF.ProjectId,LedClock,4c656443-6c6f-4636-9b2e-6b696361645f,1.1*
G04 #@! TF.SameCoordinates,Original*
G04 #@! TF.FileFunction,Soldermask,Top*
G04 #@! TF.FilePolarity,Negative*
%FSLAX46Y46*%
G04 Gerber Fmt 4.6, Leading zero omitted, Abs format (unit mm)*
G04 Created by KiCad (PCBNEW (5.1.5-0-10_14)) date 2021-02-01 23:30:03*
%MOMM*%
%LPD*%
G04 APERTURE LIST*
%ADD10C,0.100000*%
G04 APERTURE END LIST*
D10*
G36*
X860721Y-29470174D02*
G01*
X960995Y-29511709D01*
X960996Y-29511710D01*
X1051242Y-29572010D01*
X1127990Y-29648758D01*
X1130611Y-29652681D01*
X1188291Y-29739005D01*
X1229826Y-29839279D01*
X1251000Y-29945730D01*
X1251000Y-30054270D01*
X1229826Y-30160721D01*
X1188291Y-30260995D01*
X1167210Y-30292545D01*
X1127990Y-30351242D01*
X1051242Y-30427990D01*
X1034936Y-30438885D01*
X960995Y-30488291D01*
X860721Y-30529826D01*
X754270Y-30551000D01*
X645730Y-30551000D01*
X539279Y-30529826D01*
X439005Y-30488291D01*
X365064Y-30438885D01*
X348758Y-30427990D01*
X272010Y-30351242D01*
X232790Y-30292545D01*
X211709Y-30260995D01*
X170174Y-30160721D01*
X149000Y-30054270D01*
X149000Y-29945730D01*
X170174Y-29839279D01*
X211709Y-29739005D01*
X269389Y-29652681D01*
X272010Y-29648758D01*
X348758Y-29572010D01*
X439004Y-29511710D01*
X439005Y-29511709D01*
X539279Y-29470174D01*
X645730Y-29449000D01*
X754270Y-29449000D01*
X860721Y-29470174D01*
G37*
G36*
X-539279Y-29470174D02*
G01*
X-439005Y-29511709D01*
X-439004Y-29511710D01*
X-348758Y-29572010D01*
X-272010Y-29648758D01*
X-269389Y-29652681D01*
X-211709Y-29739005D01*
X-170174Y-29839279D01*
X-149000Y-29945730D01*
X-149000Y-30054270D01*
X-170174Y-30160721D01*
X-211709Y-30260995D01*
X-232790Y-30292545D01*
X-272010Y-30351242D01*
X-348758Y-30427990D01*
X-365064Y-30438885D01*
X-439005Y-30488291D01*
X-539279Y-30529826D01*
X-645730Y-30551000D01*
X-754270Y-30551000D01*
X-860721Y-30529826D01*
X-960995Y-30488291D01*
X-1034936Y-30438885D01*
X-1051242Y-30427990D01*
X-1127990Y-30351242D01*
X-1167210Y-30292545D01*
X-1188291Y-30260995D01*
X-1229826Y-30160721D01*
X-1251000Y-30054270D01*
X-1251000Y-29945730D01*
X-1229826Y-29839279D01*
X-1188291Y-29739005D01*
X-1130611Y-29652681D01*
X-1127990Y-29648758D01*
X-1051242Y-29572010D01*
X-960996Y-29511710D01*
X-960995Y-29511709D01*
X-860721Y-29470174D01*
X-754270Y-29449000D01*
X-645730Y-29449000D01*
X-539279Y-29470174D01*
G37*
G36*
X-2274513Y-29379234D02*
G01*
X-2174239Y-29420769D01*
X-2129422Y-29450715D01*
X-2083992Y-29481070D01*
X-2007244Y-29557818D01*
X-1978913Y-29600219D01*
X-1946943Y-29648065D01*
X-1905408Y-29748339D01*
X-1884234Y-29854790D01*
X-1884234Y-29963330D01*
X-1905408Y-30069781D01*
X-1946943Y-30170055D01*
X-1946944Y-30170056D01*
X-2007244Y-30260302D01*
X-2083992Y-30337050D01*
X-2105229Y-30351240D01*
X-2174239Y-30397351D01*
X-2274513Y-30438886D01*
X-2380964Y-30460060D01*
X-2489504Y-30460060D01*
X-2595955Y-30438886D01*
X-2696229Y-30397351D01*
X-2765239Y-30351240D01*
X-2786476Y-30337050D01*
X-2863224Y-30260302D01*
X-2923524Y-30170056D01*
X-2923525Y-30170055D01*
X-2965060Y-30069781D01*
X-2986234Y-29963330D01*
X-2986234Y-29854790D01*
X-2965060Y-29748339D01*
X-2923525Y-29648065D01*
X-2891555Y-29600219D01*
X-2863224Y-29557818D01*
X-2786476Y-29481070D01*
X-2741046Y-29450715D01*
X-2696229Y-29420769D01*
X-2595955Y-29379234D01*
X-2489504Y-29358060D01*
X-2380964Y-29358060D01*
X-2274513Y-29379234D01*
G37*
G36*
X2623156Y-29377454D02*
G01*
X2723430Y-29418989D01*
X2751418Y-29437690D01*
X2813677Y-29479290D01*
X2890425Y-29556038D01*
X2901096Y-29572009D01*
X2950726Y-29646285D01*
X2992261Y-29746559D01*
X3013435Y-29853010D01*
X3013435Y-29961550D01*
X2992261Y-30068001D01*
X2950726Y-30168275D01*
X2949536Y-30170056D01*
X2890425Y-30258522D01*
X2813677Y-30335270D01*
X2789776Y-30351240D01*
X2723430Y-30395571D01*
X2623156Y-30437106D01*
X2516705Y-30458280D01*
X2408165Y-30458280D01*
X2301714Y-30437106D01*
X2201440Y-30395571D01*
X2135094Y-30351240D01*
X2111193Y-30335270D01*
X2034445Y-30258522D01*
X1975334Y-30170056D01*
X1974144Y-30168275D01*
X1932609Y-30068001D01*
X1911435Y-29961550D01*
X1911435Y-29853010D01*
X1932609Y-29746559D01*
X1974144Y-29646285D01*
X2023774Y-29572009D01*
X2034445Y-29556038D01*
X2111193Y-29479290D01*
X2173452Y-29437690D01*
X2201440Y-29418989D01*
X2301714Y-29377454D01*
X2408165Y-29356280D01*
X2516705Y-29356280D01*
X2623156Y-29377454D01*
G37*
G36*
X-3666844Y-29232894D02*
G01*
X-3566570Y-29274429D01*
X-3525075Y-29302155D01*
X-3476323Y-29334730D01*
X-3399575Y-29411478D01*
X-3383960Y-29434848D01*
X-3339274Y-29501725D01*
X-3297739Y-29601999D01*
X-3276565Y-29708450D01*
X-3276565Y-29816990D01*
X-3297739Y-29923441D01*
X-3339274Y-30023715D01*
X-3339275Y-30023716D01*
X-3399575Y-30113962D01*
X-3476323Y-30190710D01*
X-3521753Y-30221065D01*
X-3566570Y-30251011D01*
X-3666844Y-30292546D01*
X-3773295Y-30313720D01*
X-3881835Y-30313720D01*
X-3988286Y-30292546D01*
X-4088560Y-30251011D01*
X-4133377Y-30221065D01*
X-4178807Y-30190710D01*
X-4255555Y-30113962D01*
X-4315855Y-30023716D01*
X-4315856Y-30023715D01*
X-4357391Y-29923441D01*
X-4378565Y-29816990D01*
X-4378565Y-29708450D01*
X-4357391Y-29601999D01*
X-4315856Y-29501725D01*
X-4271170Y-29434848D01*
X-4255555Y-29411478D01*
X-4178807Y-29334730D01*
X-4130055Y-29302155D01*
X-4088560Y-29274429D01*
X-3988286Y-29232894D01*
X-3881835Y-29211720D01*
X-3773295Y-29211720D01*
X-3666844Y-29232894D01*
G37*
G36*
X4015487Y-29231114D02*
G01*
X4115761Y-29272649D01*
X4159920Y-29302155D01*
X4206008Y-29332950D01*
X4282756Y-29409698D01*
X4301460Y-29437691D01*
X4343057Y-29499945D01*
X4384592Y-29600219D01*
X4405766Y-29706670D01*
X4405766Y-29815210D01*
X4384592Y-29921661D01*
X4343057Y-30021935D01*
X4341867Y-30023716D01*
X4282756Y-30112182D01*
X4206008Y-30188930D01*
X4160578Y-30219285D01*
X4115761Y-30249231D01*
X4015487Y-30290766D01*
X3909036Y-30311940D01*
X3800496Y-30311940D01*
X3694045Y-30290766D01*
X3593771Y-30249231D01*
X3548954Y-30219285D01*
X3503524Y-30188930D01*
X3426776Y-30112182D01*
X3367665Y-30023716D01*
X3366475Y-30021935D01*
X3324940Y-29921661D01*
X3303766Y-29815210D01*
X3303766Y-29706670D01*
X3324940Y-29600219D01*
X3366475Y-29499945D01*
X3408072Y-29437691D01*
X3426776Y-29409698D01*
X3503524Y-29332950D01*
X3549612Y-29302155D01*
X3593771Y-29272649D01*
X3694045Y-29231114D01*
X3800496Y-29209940D01*
X3909036Y-29209940D01*
X4015487Y-29231114D01*
G37*
G36*
X5720326Y-28962134D02*
G01*
X5820600Y-29003669D01*
X5833764Y-29012465D01*
X5910847Y-29063970D01*
X5987595Y-29140718D01*
X6013271Y-29179145D01*
X6047896Y-29230965D01*
X6089431Y-29331239D01*
X6110605Y-29437690D01*
X6110605Y-29546230D01*
X6089431Y-29652681D01*
X6047896Y-29752955D01*
X6047895Y-29752956D01*
X5987595Y-29843202D01*
X5910847Y-29919950D01*
X5908286Y-29921661D01*
X5820600Y-29980251D01*
X5720326Y-30021786D01*
X5613875Y-30042960D01*
X5505335Y-30042960D01*
X5398884Y-30021786D01*
X5298610Y-29980251D01*
X5210924Y-29921661D01*
X5208363Y-29919950D01*
X5131615Y-29843202D01*
X5071315Y-29752956D01*
X5071314Y-29752955D01*
X5029779Y-29652681D01*
X5008605Y-29546230D01*
X5008605Y-29437690D01*
X5029779Y-29331239D01*
X5071314Y-29230965D01*
X5105939Y-29179145D01*
X5131615Y-29140718D01*
X5208363Y-29063970D01*
X5285446Y-29012465D01*
X5298610Y-29003669D01*
X5398884Y-28962134D01*
X5505335Y-28940960D01*
X5613875Y-28940960D01*
X5720326Y-28962134D01*
G37*
G36*
X-5390267Y-28959291D02*
G01*
X-5289993Y-29000826D01*
X-5273044Y-29012151D01*
X-5199746Y-29061127D01*
X-5122998Y-29137875D01*
X-5095422Y-29179146D01*
X-5062697Y-29228122D01*
X-5021162Y-29328396D01*
X-4999988Y-29434847D01*
X-4999988Y-29543387D01*
X-5021162Y-29649838D01*
X-5062697Y-29750112D01*
X-5092643Y-29794929D01*
X-5122998Y-29840359D01*
X-5199746Y-29917107D01*
X-5206562Y-29921661D01*
X-5289993Y-29977408D01*
X-5390267Y-30018943D01*
X-5496718Y-30040117D01*
X-5605258Y-30040117D01*
X-5711709Y-30018943D01*
X-5811983Y-29977408D01*
X-5895414Y-29921661D01*
X-5902230Y-29917107D01*
X-5978978Y-29840359D01*
X-6009333Y-29794929D01*
X-6039279Y-29750112D01*
X-6080814Y-29649838D01*
X-6101988Y-29543387D01*
X-6101988Y-29434847D01*
X-6080814Y-29328396D01*
X-6039279Y-29228122D01*
X-6006554Y-29179146D01*
X-5978978Y-29137875D01*
X-5902230Y-29061127D01*
X-5828932Y-29012151D01*
X-5811983Y-29000826D01*
X-5711709Y-28959291D01*
X-5605258Y-28938117D01*
X-5496718Y-28938117D01*
X-5390267Y-28959291D01*
G37*
G36*
X7089733Y-28671057D02*
G01*
X7190007Y-28712592D01*
X7190008Y-28712593D01*
X7280254Y-28772893D01*
X7357002Y-28849641D01*
X7357003Y-28849643D01*
X7417303Y-28939888D01*
X7458838Y-29040162D01*
X7480012Y-29146613D01*
X7480012Y-29255153D01*
X7458838Y-29361604D01*
X7417303Y-29461878D01*
X7404480Y-29481069D01*
X7357002Y-29552125D01*
X7280254Y-29628873D01*
X7234824Y-29659228D01*
X7190007Y-29689174D01*
X7089733Y-29730709D01*
X6983282Y-29751883D01*
X6874742Y-29751883D01*
X6768291Y-29730709D01*
X6668017Y-29689174D01*
X6623200Y-29659228D01*
X6577770Y-29628873D01*
X6501022Y-29552125D01*
X6453544Y-29481069D01*
X6440721Y-29461878D01*
X6399186Y-29361604D01*
X6378012Y-29255153D01*
X6378012Y-29146613D01*
X6399186Y-29040162D01*
X6440721Y-28939888D01*
X6501021Y-28849643D01*
X6501022Y-28849641D01*
X6577770Y-28772893D01*
X6668016Y-28712593D01*
X6668017Y-28712592D01*
X6768291Y-28671057D01*
X6874742Y-28649883D01*
X6983282Y-28649883D01*
X7089733Y-28671057D01*
G37*
G36*
X-6759674Y-28668214D02*
G01*
X-6659400Y-28709749D01*
X-6655144Y-28712593D01*
X-6569153Y-28770050D01*
X-6492405Y-28846798D01*
X-6477006Y-28869845D01*
X-6432104Y-28937045D01*
X-6390569Y-29037319D01*
X-6369395Y-29143770D01*
X-6369395Y-29252310D01*
X-6390569Y-29358761D01*
X-6432104Y-29459035D01*
X-6459439Y-29499944D01*
X-6492405Y-29549282D01*
X-6569153Y-29626030D01*
X-6609039Y-29652681D01*
X-6659400Y-29686331D01*
X-6759674Y-29727866D01*
X-6866125Y-29749040D01*
X-6974665Y-29749040D01*
X-7081116Y-29727866D01*
X-7181390Y-29686331D01*
X-7231751Y-29652681D01*
X-7271637Y-29626030D01*
X-7348385Y-29549282D01*
X-7381351Y-29499944D01*
X-7408686Y-29459035D01*
X-7450221Y-29358761D01*
X-7471395Y-29252310D01*
X-7471395Y-29143770D01*
X-7450221Y-29037319D01*
X-7408686Y-28937045D01*
X-7363784Y-28869845D01*
X-7348385Y-28846798D01*
X-7271637Y-28770050D01*
X-7185646Y-28712593D01*
X-7181390Y-28709749D01*
X-7081116Y-28668214D01*
X-6974665Y-28647040D01*
X-6866125Y-28647040D01*
X-6759674Y-28668214D01*
G37*
G36*
X8771823Y-28221643D02*
G01*
X8872097Y-28263178D01*
X8874189Y-28264576D01*
X8962344Y-28323479D01*
X9039092Y-28400227D01*
X9039093Y-28400229D01*
X9099393Y-28490474D01*
X9140928Y-28590748D01*
X9162102Y-28697199D01*
X9162102Y-28805739D01*
X9140928Y-28912190D01*
X9099393Y-29012464D01*
X9099392Y-29012465D01*
X9039092Y-29102711D01*
X8962344Y-29179459D01*
X8916914Y-29209814D01*
X8872097Y-29239760D01*
X8771823Y-29281295D01*
X8665372Y-29302469D01*
X8556832Y-29302469D01*
X8450381Y-29281295D01*
X8350107Y-29239760D01*
X8305290Y-29209814D01*
X8259860Y-29179459D01*
X8183112Y-29102711D01*
X8122812Y-29012465D01*
X8122811Y-29012464D01*
X8081276Y-28912190D01*
X8060102Y-28805739D01*
X8060102Y-28697199D01*
X8081276Y-28590748D01*
X8122811Y-28490474D01*
X8183111Y-28400229D01*
X8183112Y-28400227D01*
X8259860Y-28323479D01*
X8348015Y-28264576D01*
X8350107Y-28263178D01*
X8450381Y-28221643D01*
X8556832Y-28200469D01*
X8665372Y-28200469D01*
X8771823Y-28221643D01*
G37*
G36*
X-8436698Y-28221329D02*
G01*
X-8336424Y-28262864D01*
X-8333862Y-28264576D01*
X-8246177Y-28323165D01*
X-8169429Y-28399913D01*
X-8169218Y-28400229D01*
X-8109128Y-28490160D01*
X-8067593Y-28590434D01*
X-8046419Y-28696885D01*
X-8046419Y-28805425D01*
X-8067593Y-28911876D01*
X-8109128Y-29012150D01*
X-8127845Y-29040162D01*
X-8169429Y-29102397D01*
X-8246177Y-29179145D01*
X-8291607Y-29209500D01*
X-8336424Y-29239446D01*
X-8436698Y-29280981D01*
X-8543149Y-29302155D01*
X-8651689Y-29302155D01*
X-8758140Y-29280981D01*
X-8858414Y-29239446D01*
X-8903231Y-29209500D01*
X-8948661Y-29179145D01*
X-9025409Y-29102397D01*
X-9066993Y-29040162D01*
X-9085710Y-29012150D01*
X-9127245Y-28911876D01*
X-9148419Y-28805425D01*
X-9148419Y-28696885D01*
X-9127245Y-28590434D01*
X-9085710Y-28490160D01*
X-9025620Y-28400229D01*
X-9025409Y-28399913D01*
X-8948661Y-28323165D01*
X-8860976Y-28264576D01*
X-8858414Y-28262864D01*
X-8758140Y-28221329D01*
X-8651689Y-28200155D01*
X-8543149Y-28200155D01*
X-8436698Y-28221329D01*
G37*
G36*
X10103302Y-27789019D02*
G01*
X10203576Y-27830554D01*
X10203577Y-27830555D01*
X10293823Y-27890855D01*
X10370571Y-27967603D01*
X10370572Y-27967605D01*
X10430872Y-28057850D01*
X10472407Y-28158124D01*
X10493581Y-28264575D01*
X10493581Y-28373115D01*
X10472407Y-28479566D01*
X10430872Y-28579840D01*
X10430871Y-28579841D01*
X10370571Y-28670087D01*
X10293823Y-28746835D01*
X10259079Y-28770050D01*
X10203576Y-28807136D01*
X10103302Y-28848671D01*
X9996851Y-28869845D01*
X9888311Y-28869845D01*
X9781860Y-28848671D01*
X9681586Y-28807136D01*
X9626083Y-28770050D01*
X9591339Y-28746835D01*
X9514591Y-28670087D01*
X9454291Y-28579841D01*
X9454290Y-28579840D01*
X9412755Y-28479566D01*
X9391581Y-28373115D01*
X9391581Y-28264575D01*
X9412755Y-28158124D01*
X9454290Y-28057850D01*
X9514590Y-27967605D01*
X9514591Y-27967603D01*
X9591339Y-27890855D01*
X9681585Y-27830555D01*
X9681586Y-27830554D01*
X9781860Y-27789019D01*
X9888311Y-27767845D01*
X9996851Y-27767845D01*
X10103302Y-27789019D01*
G37*
G36*
X-9768177Y-27788705D02*
G01*
X-9667903Y-27830240D01*
X-9623086Y-27860186D01*
X-9577656Y-27890541D01*
X-9500908Y-27967289D01*
X-9500697Y-27967605D01*
X-9440607Y-28057536D01*
X-9399072Y-28157810D01*
X-9377898Y-28264261D01*
X-9377898Y-28372801D01*
X-9399072Y-28479252D01*
X-9440607Y-28579526D01*
X-9470553Y-28624343D01*
X-9500908Y-28669773D01*
X-9577656Y-28746521D01*
X-9612870Y-28770050D01*
X-9667903Y-28806822D01*
X-9768177Y-28848357D01*
X-9874628Y-28869531D01*
X-9983168Y-28869531D01*
X-10089619Y-28848357D01*
X-10189893Y-28806822D01*
X-10244926Y-28770050D01*
X-10280140Y-28746521D01*
X-10356888Y-28669773D01*
X-10387243Y-28624343D01*
X-10417189Y-28579526D01*
X-10458724Y-28479252D01*
X-10479898Y-28372801D01*
X-10479898Y-28264261D01*
X-10458724Y-28157810D01*
X-10417189Y-28057536D01*
X-10357099Y-27967605D01*
X-10356888Y-27967289D01*
X-10280140Y-27890541D01*
X-10234710Y-27860186D01*
X-10189893Y-27830240D01*
X-10089619Y-27788705D01*
X-9983168Y-27767531D01*
X-9874628Y-27767531D01*
X-9768177Y-27788705D01*
G37*
G36*
X-11394064Y-27166313D02*
G01*
X-11293790Y-27207848D01*
X-11293789Y-27207849D01*
X-11203543Y-27268149D01*
X-11126795Y-27344897D01*
X-11096440Y-27390327D01*
X-11066494Y-27435144D01*
X-11024959Y-27535418D01*
X-11003785Y-27641869D01*
X-11003785Y-27750409D01*
X-11024959Y-27856860D01*
X-11066494Y-27957134D01*
X-11073281Y-27967291D01*
X-11126795Y-28047381D01*
X-11203543Y-28124129D01*
X-11248973Y-28154484D01*
X-11293790Y-28184430D01*
X-11394064Y-28225965D01*
X-11500515Y-28247139D01*
X-11609055Y-28247139D01*
X-11715506Y-28225965D01*
X-11815780Y-28184430D01*
X-11860597Y-28154484D01*
X-11906027Y-28124129D01*
X-11982775Y-28047381D01*
X-12036289Y-27967291D01*
X-12043076Y-27957134D01*
X-12084611Y-27856860D01*
X-12105785Y-27750409D01*
X-12105785Y-27641869D01*
X-12084611Y-27535418D01*
X-12043076Y-27435144D01*
X-12013130Y-27390327D01*
X-11982775Y-27344897D01*
X-11906027Y-27268149D01*
X-11815781Y-27207849D01*
X-11815780Y-27207848D01*
X-11715506Y-27166313D01*
X-11609055Y-27145139D01*
X-11500515Y-27145139D01*
X-11394064Y-27166313D01*
G37*
G36*
X11726973Y-27163466D02*
G01*
X11827247Y-27205001D01*
X11831509Y-27207849D01*
X11917494Y-27265302D01*
X11994242Y-27342050D01*
X12024597Y-27387480D01*
X12054543Y-27432297D01*
X12096078Y-27532571D01*
X12117252Y-27639022D01*
X12117252Y-27747562D01*
X12096078Y-27854013D01*
X12054543Y-27954287D01*
X12045644Y-27967605D01*
X11994242Y-28044534D01*
X11917494Y-28121282D01*
X11872064Y-28151637D01*
X11827247Y-28181583D01*
X11726973Y-28223118D01*
X11620522Y-28244292D01*
X11511982Y-28244292D01*
X11405531Y-28223118D01*
X11305257Y-28181583D01*
X11260440Y-28151637D01*
X11215010Y-28121282D01*
X11138262Y-28044534D01*
X11086860Y-27967605D01*
X11077961Y-27954287D01*
X11036426Y-27854013D01*
X11015252Y-27747562D01*
X11015252Y-27639022D01*
X11036426Y-27532571D01*
X11077961Y-27432297D01*
X11107907Y-27387480D01*
X11138262Y-27342050D01*
X11215010Y-27265302D01*
X11300995Y-27207849D01*
X11305257Y-27205001D01*
X11405531Y-27163466D01*
X11511982Y-27142292D01*
X11620522Y-27142292D01*
X11726973Y-27163466D01*
G37*
G36*
X-12673027Y-26596882D02*
G01*
X-12572753Y-26638417D01*
X-12572752Y-26638418D01*
X-12482506Y-26698718D01*
X-12405758Y-26775466D01*
X-12405757Y-26775468D01*
X-12345457Y-26865713D01*
X-12303922Y-26965987D01*
X-12282748Y-27072438D01*
X-12282748Y-27180978D01*
X-12303922Y-27287429D01*
X-12345457Y-27387703D01*
X-12345458Y-27387704D01*
X-12405758Y-27477950D01*
X-12482506Y-27554698D01*
X-12527936Y-27585053D01*
X-12572753Y-27614999D01*
X-12673027Y-27656534D01*
X-12779478Y-27677708D01*
X-12888018Y-27677708D01*
X-12994469Y-27656534D01*
X-13094743Y-27614999D01*
X-13139560Y-27585053D01*
X-13184990Y-27554698D01*
X-13261738Y-27477950D01*
X-13322038Y-27387704D01*
X-13322039Y-27387703D01*
X-13363574Y-27287429D01*
X-13384748Y-27180978D01*
X-13384748Y-27072438D01*
X-13363574Y-26965987D01*
X-13322039Y-26865713D01*
X-13261739Y-26775468D01*
X-13261738Y-26775466D01*
X-13184990Y-26698718D01*
X-13094744Y-26638418D01*
X-13094743Y-26638417D01*
X-12994469Y-26596882D01*
X-12888018Y-26575708D01*
X-12779478Y-26575708D01*
X-12673027Y-26596882D01*
G37*
G36*
X13005936Y-26594035D02*
G01*
X13106210Y-26635570D01*
X13110472Y-26638418D01*
X13196457Y-26695871D01*
X13273205Y-26772619D01*
X13303560Y-26818049D01*
X13333506Y-26862866D01*
X13375041Y-26963140D01*
X13396215Y-27069591D01*
X13396215Y-27178131D01*
X13375041Y-27284582D01*
X13333506Y-27384856D01*
X13331603Y-27387704D01*
X13273205Y-27475103D01*
X13196457Y-27551851D01*
X13151027Y-27582206D01*
X13106210Y-27612152D01*
X13005936Y-27653687D01*
X12899485Y-27674861D01*
X12790945Y-27674861D01*
X12684494Y-27653687D01*
X12584220Y-27612152D01*
X12539403Y-27582206D01*
X12493973Y-27551851D01*
X12417225Y-27475103D01*
X12358827Y-27387704D01*
X12356924Y-27384856D01*
X12315389Y-27284582D01*
X12294215Y-27178131D01*
X12294215Y-27069591D01*
X12315389Y-26963140D01*
X12356924Y-26862866D01*
X12386870Y-26818049D01*
X12417225Y-26772619D01*
X12493973Y-26695871D01*
X12579958Y-26638418D01*
X12584220Y-26635570D01*
X12684494Y-26594035D01*
X12790945Y-26572861D01*
X12899485Y-26572861D01*
X13005936Y-26594035D01*
G37*
G36*
X-14222721Y-25805174D02*
G01*
X-14122447Y-25846709D01*
X-14122446Y-25846710D01*
X-14032200Y-25907010D01*
X-13955452Y-25983758D01*
X-13925097Y-26029188D01*
X-13895151Y-26074005D01*
X-13853616Y-26174279D01*
X-13832442Y-26280730D01*
X-13832442Y-26389270D01*
X-13853616Y-26495721D01*
X-13895151Y-26595995D01*
X-13921594Y-26635570D01*
X-13955452Y-26686242D01*
X-14032200Y-26762990D01*
X-14046611Y-26772619D01*
X-14122447Y-26823291D01*
X-14222721Y-26864826D01*
X-14329172Y-26886000D01*
X-14437712Y-26886000D01*
X-14544163Y-26864826D01*
X-14644437Y-26823291D01*
X-14720273Y-26772619D01*
X-14734684Y-26762990D01*
X-14811432Y-26686242D01*
X-14845290Y-26635570D01*
X-14871733Y-26595995D01*
X-14913268Y-26495721D01*
X-14934442Y-26389270D01*
X-14934442Y-26280730D01*
X-14913268Y-26174279D01*
X-14871733Y-26074005D01*
X-14841787Y-26029188D01*
X-14811432Y-25983758D01*
X-14734684Y-25907010D01*
X-14644438Y-25846710D01*
X-14644437Y-25846709D01*
X-14544163Y-25805174D01*
X-14437712Y-25784000D01*
X-14329172Y-25784000D01*
X-14222721Y-25805174D01*
G37*
G36*
X14554843Y-25805174D02*
G01*
X14655117Y-25846709D01*
X14655118Y-25846710D01*
X14745364Y-25907010D01*
X14822112Y-25983758D01*
X14852467Y-26029188D01*
X14882413Y-26074005D01*
X14923948Y-26174279D01*
X14945122Y-26280730D01*
X14945122Y-26389270D01*
X14923948Y-26495721D01*
X14882413Y-26595995D01*
X14855970Y-26635570D01*
X14822112Y-26686242D01*
X14745364Y-26762990D01*
X14730953Y-26772619D01*
X14655117Y-26823291D01*
X14554843Y-26864826D01*
X14448392Y-26886000D01*
X14339852Y-26886000D01*
X14233401Y-26864826D01*
X14133127Y-26823291D01*
X14057291Y-26772619D01*
X14042880Y-26762990D01*
X13966132Y-26686242D01*
X13932274Y-26635570D01*
X13905831Y-26595995D01*
X13864296Y-26495721D01*
X13843122Y-26389270D01*
X13843122Y-26280730D01*
X13864296Y-26174279D01*
X13905831Y-26074005D01*
X13935777Y-26029188D01*
X13966132Y-25983758D01*
X14042880Y-25907010D01*
X14133126Y-25846710D01*
X14133127Y-25846709D01*
X14233401Y-25805174D01*
X14339852Y-25784000D01*
X14448392Y-25784000D01*
X14554843Y-25805174D01*
G37*
G36*
X15767279Y-25105174D02*
G01*
X15867553Y-25146709D01*
X15867554Y-25146710D01*
X15957800Y-25207010D01*
X16034548Y-25283758D01*
X16034549Y-25283760D01*
X16094849Y-25374005D01*
X16136384Y-25474279D01*
X16157558Y-25580730D01*
X16157558Y-25689270D01*
X16136384Y-25795721D01*
X16094849Y-25895995D01*
X16087489Y-25907010D01*
X16034548Y-25986242D01*
X15957800Y-26062990D01*
X15912370Y-26093345D01*
X15867553Y-26123291D01*
X15767279Y-26164826D01*
X15660828Y-26186000D01*
X15552288Y-26186000D01*
X15445837Y-26164826D01*
X15345563Y-26123291D01*
X15300746Y-26093345D01*
X15255316Y-26062990D01*
X15178568Y-25986242D01*
X15125627Y-25907010D01*
X15118267Y-25895995D01*
X15076732Y-25795721D01*
X15055558Y-25689270D01*
X15055558Y-25580730D01*
X15076732Y-25474279D01*
X15118267Y-25374005D01*
X15178567Y-25283760D01*
X15178568Y-25283758D01*
X15255316Y-25207010D01*
X15345562Y-25146710D01*
X15345563Y-25146709D01*
X15445837Y-25105174D01*
X15552288Y-25084000D01*
X15660828Y-25084000D01*
X15767279Y-25105174D01*
G37*
G36*
X-15435157Y-25105174D02*
G01*
X-15334883Y-25146709D01*
X-15334882Y-25146710D01*
X-15244636Y-25207010D01*
X-15167888Y-25283758D01*
X-15167887Y-25283760D01*
X-15107587Y-25374005D01*
X-15066052Y-25474279D01*
X-15044878Y-25580730D01*
X-15044878Y-25689270D01*
X-15066052Y-25795721D01*
X-15107587Y-25895995D01*
X-15114947Y-25907010D01*
X-15167888Y-25986242D01*
X-15244636Y-26062990D01*
X-15290066Y-26093345D01*
X-15334883Y-26123291D01*
X-15435157Y-26164826D01*
X-15541608Y-26186000D01*
X-15650148Y-26186000D01*
X-15756599Y-26164826D01*
X-15856873Y-26123291D01*
X-15901690Y-26093345D01*
X-15947120Y-26062990D01*
X-16023868Y-25986242D01*
X-16076809Y-25907010D01*
X-16084169Y-25895995D01*
X-16125704Y-25795721D01*
X-16146878Y-25689270D01*
X-16146878Y-25580730D01*
X-16125704Y-25474279D01*
X-16084169Y-25374005D01*
X-16023869Y-25283760D01*
X-16023868Y-25283758D01*
X-15947120Y-25207010D01*
X-15856874Y-25146710D01*
X-15856873Y-25146709D01*
X-15756599Y-25105174D01*
X-15650148Y-25084000D01*
X-15541608Y-25084000D01*
X-15435157Y-25105174D01*
G37*
G36*
X-16893124Y-24158801D02*
G01*
X-16792850Y-24200336D01*
X-16767960Y-24216967D01*
X-16702603Y-24260637D01*
X-16625855Y-24337385D01*
X-16614742Y-24354017D01*
X-16565554Y-24427632D01*
X-16524019Y-24527906D01*
X-16502845Y-24634357D01*
X-16502845Y-24742897D01*
X-16524019Y-24849348D01*
X-16565554Y-24949622D01*
X-16565555Y-24949623D01*
X-16625855Y-25039869D01*
X-16702603Y-25116617D01*
X-16747639Y-25146709D01*
X-16792850Y-25176918D01*
X-16893124Y-25218453D01*
X-16999575Y-25239627D01*
X-17108115Y-25239627D01*
X-17214566Y-25218453D01*
X-17314840Y-25176918D01*
X-17360051Y-25146709D01*
X-17405087Y-25116617D01*
X-17481835Y-25039869D01*
X-17542135Y-24949623D01*
X-17542136Y-24949622D01*
X-17583671Y-24849348D01*
X-17604845Y-24742897D01*
X-17604845Y-24634357D01*
X-17583671Y-24527906D01*
X-17542136Y-24427632D01*
X-17492948Y-24354017D01*
X-17481835Y-24337385D01*
X-17405087Y-24260637D01*
X-17339730Y-24216967D01*
X-17314840Y-24200336D01*
X-17214566Y-24158801D01*
X-17108115Y-24137627D01*
X-16999575Y-24137627D01*
X-16893124Y-24158801D01*
G37*
G36*
X17224252Y-24154447D02*
G01*
X17324526Y-24195982D01*
X17349416Y-24212613D01*
X17414773Y-24256283D01*
X17491521Y-24333031D01*
X17502634Y-24349663D01*
X17551822Y-24423278D01*
X17593357Y-24523552D01*
X17614531Y-24630003D01*
X17614531Y-24738543D01*
X17593357Y-24844994D01*
X17551822Y-24945268D01*
X17548912Y-24949623D01*
X17491521Y-25035515D01*
X17414773Y-25112263D01*
X17408255Y-25116618D01*
X17324526Y-25172564D01*
X17224252Y-25214099D01*
X17117801Y-25235273D01*
X17009261Y-25235273D01*
X16902810Y-25214099D01*
X16802536Y-25172564D01*
X16718807Y-25116618D01*
X16712289Y-25112263D01*
X16635541Y-25035515D01*
X16578150Y-24949623D01*
X16575240Y-24945268D01*
X16533705Y-24844994D01*
X16512531Y-24738543D01*
X16512531Y-24630003D01*
X16533705Y-24523552D01*
X16575240Y-24423278D01*
X16624428Y-24349663D01*
X16635541Y-24333031D01*
X16712289Y-24256283D01*
X16777646Y-24212613D01*
X16802536Y-24195982D01*
X16902810Y-24154447D01*
X17009261Y-24133273D01*
X17117801Y-24133273D01*
X17224252Y-24154447D01*
G37*
G36*
X-18025748Y-23335901D02*
G01*
X-17925474Y-23377436D01*
X-17925473Y-23377437D01*
X-17835227Y-23437737D01*
X-17758479Y-23514485D01*
X-17758478Y-23514487D01*
X-17698178Y-23604732D01*
X-17656643Y-23705006D01*
X-17635469Y-23811457D01*
X-17635469Y-23919997D01*
X-17656643Y-24026448D01*
X-17698178Y-24126722D01*
X-17705465Y-24137627D01*
X-17758479Y-24216969D01*
X-17835227Y-24293717D01*
X-17880657Y-24324072D01*
X-17925474Y-24354018D01*
X-18025748Y-24395553D01*
X-18132199Y-24416727D01*
X-18240739Y-24416727D01*
X-18347190Y-24395553D01*
X-18447464Y-24354018D01*
X-18492281Y-24324072D01*
X-18537711Y-24293717D01*
X-18614459Y-24216969D01*
X-18667473Y-24137627D01*
X-18674760Y-24126722D01*
X-18716295Y-24026448D01*
X-18737469Y-23919997D01*
X-18737469Y-23811457D01*
X-18716295Y-23705006D01*
X-18674760Y-23604732D01*
X-18614460Y-23514487D01*
X-18614459Y-23514485D01*
X-18537711Y-23437737D01*
X-18447465Y-23377437D01*
X-18447464Y-23377436D01*
X-18347190Y-23335901D01*
X-18240739Y-23314727D01*
X-18132199Y-23314727D01*
X-18025748Y-23335901D01*
G37*
G36*
X18356876Y-23331547D02*
G01*
X18457150Y-23373082D01*
X18501967Y-23403028D01*
X18547397Y-23433383D01*
X18624145Y-23510131D01*
X18654500Y-23555561D01*
X18684446Y-23600378D01*
X18725981Y-23700652D01*
X18747155Y-23807103D01*
X18747155Y-23915643D01*
X18725981Y-24022094D01*
X18684446Y-24122368D01*
X18681536Y-24126723D01*
X18624145Y-24212615D01*
X18547397Y-24289363D01*
X18540879Y-24293718D01*
X18457150Y-24349664D01*
X18356876Y-24391199D01*
X18250425Y-24412373D01*
X18141885Y-24412373D01*
X18035434Y-24391199D01*
X17935160Y-24349664D01*
X17851431Y-24293718D01*
X17844913Y-24289363D01*
X17768165Y-24212615D01*
X17710774Y-24126723D01*
X17707864Y-24122368D01*
X17666329Y-24022094D01*
X17645155Y-23915643D01*
X17645155Y-23807103D01*
X17666329Y-23700652D01*
X17707864Y-23600378D01*
X17737810Y-23555561D01*
X17768165Y-23510131D01*
X17844913Y-23433383D01*
X17890343Y-23403028D01*
X17935160Y-23373082D01*
X18035434Y-23331547D01*
X18141885Y-23310373D01*
X18250425Y-23310373D01*
X18356876Y-23331547D01*
G37*
G36*
X-19375815Y-22238030D02*
G01*
X-19275541Y-22279565D01*
X-19275540Y-22279566D01*
X-19185294Y-22339866D01*
X-19108546Y-22416614D01*
X-19108545Y-22416616D01*
X-19048245Y-22506861D01*
X-19006710Y-22607135D01*
X-18985536Y-22713586D01*
X-18985536Y-22822126D01*
X-19006710Y-22928577D01*
X-19048245Y-23028851D01*
X-19048246Y-23028852D01*
X-19108546Y-23119098D01*
X-19185294Y-23195846D01*
X-19230724Y-23226201D01*
X-19275541Y-23256147D01*
X-19375815Y-23297682D01*
X-19482266Y-23318856D01*
X-19590806Y-23318856D01*
X-19697257Y-23297682D01*
X-19797531Y-23256147D01*
X-19842348Y-23226201D01*
X-19887778Y-23195846D01*
X-19964526Y-23119098D01*
X-20024826Y-23028852D01*
X-20024827Y-23028851D01*
X-20066362Y-22928577D01*
X-20087536Y-22822126D01*
X-20087536Y-22713586D01*
X-20066362Y-22607135D01*
X-20024827Y-22506861D01*
X-19964527Y-22416616D01*
X-19964526Y-22416614D01*
X-19887778Y-22339866D01*
X-19797532Y-22279566D01*
X-19797531Y-22279565D01*
X-19697257Y-22238030D01*
X-19590806Y-22216856D01*
X-19482266Y-22216856D01*
X-19375815Y-22238030D01*
G37*
G36*
X19713782Y-22229100D02*
G01*
X19814056Y-22270635D01*
X19827422Y-22279566D01*
X19904303Y-22330936D01*
X19981051Y-22407684D01*
X19981052Y-22407686D01*
X20041352Y-22497931D01*
X20082887Y-22598205D01*
X20104061Y-22704656D01*
X20104061Y-22813196D01*
X20082887Y-22919647D01*
X20041352Y-23019921D01*
X20041351Y-23019922D01*
X19981051Y-23110168D01*
X19904303Y-23186916D01*
X19858873Y-23217271D01*
X19814056Y-23247217D01*
X19713782Y-23288752D01*
X19607331Y-23309926D01*
X19498791Y-23309926D01*
X19392340Y-23288752D01*
X19292066Y-23247217D01*
X19247249Y-23217271D01*
X19201819Y-23186916D01*
X19125071Y-23110168D01*
X19064771Y-23019922D01*
X19064770Y-23019921D01*
X19023235Y-22919647D01*
X19002061Y-22813196D01*
X19002061Y-22704656D01*
X19023235Y-22598205D01*
X19064770Y-22497931D01*
X19125070Y-22407686D01*
X19125071Y-22407684D01*
X19201819Y-22330936D01*
X19278700Y-22279566D01*
X19292066Y-22270635D01*
X19392340Y-22229100D01*
X19498791Y-22207926D01*
X19607331Y-22207926D01*
X19713782Y-22229100D01*
G37*
G36*
X-20416218Y-21301248D02*
G01*
X-20315944Y-21342783D01*
X-20315943Y-21342784D01*
X-20225697Y-21403084D01*
X-20148949Y-21479832D01*
X-20148948Y-21479834D01*
X-20088648Y-21570079D01*
X-20047113Y-21670353D01*
X-20025939Y-21776804D01*
X-20025939Y-21885344D01*
X-20047113Y-21991795D01*
X-20088648Y-22092069D01*
X-20088649Y-22092070D01*
X-20148949Y-22182316D01*
X-20225697Y-22259064D01*
X-20243016Y-22270636D01*
X-20315944Y-22319365D01*
X-20416218Y-22360900D01*
X-20522669Y-22382074D01*
X-20631209Y-22382074D01*
X-20737660Y-22360900D01*
X-20837934Y-22319365D01*
X-20910862Y-22270636D01*
X-20928181Y-22259064D01*
X-21004929Y-22182316D01*
X-21065229Y-22092070D01*
X-21065230Y-22092069D01*
X-21106765Y-21991795D01*
X-21127939Y-21885344D01*
X-21127939Y-21776804D01*
X-21106765Y-21670353D01*
X-21065230Y-21570079D01*
X-21004930Y-21479834D01*
X-21004929Y-21479832D01*
X-20928181Y-21403084D01*
X-20837935Y-21342784D01*
X-20837934Y-21342783D01*
X-20737660Y-21301248D01*
X-20631209Y-21280074D01*
X-20522669Y-21280074D01*
X-20416218Y-21301248D01*
G37*
G36*
X20754185Y-21292318D02*
G01*
X20854459Y-21333853D01*
X20867825Y-21342784D01*
X20944706Y-21394154D01*
X21021454Y-21470902D01*
X21021455Y-21470904D01*
X21081755Y-21561149D01*
X21123290Y-21661423D01*
X21144464Y-21767874D01*
X21144464Y-21876414D01*
X21123290Y-21982865D01*
X21081755Y-22083139D01*
X21081754Y-22083140D01*
X21021454Y-22173386D01*
X20944706Y-22250134D01*
X20914024Y-22270635D01*
X20854459Y-22310435D01*
X20754185Y-22351970D01*
X20647734Y-22373144D01*
X20539194Y-22373144D01*
X20432743Y-22351970D01*
X20332469Y-22310435D01*
X20272904Y-22270635D01*
X20242222Y-22250134D01*
X20165474Y-22173386D01*
X20105174Y-22083140D01*
X20105173Y-22083139D01*
X20063638Y-21982865D01*
X20042464Y-21876414D01*
X20042464Y-21767874D01*
X20063638Y-21661423D01*
X20105173Y-21561149D01*
X20165473Y-21470904D01*
X20165474Y-21470902D01*
X20242222Y-21394154D01*
X20319103Y-21342784D01*
X20332469Y-21333853D01*
X20432743Y-21292318D01*
X20539194Y-21271144D01*
X20647734Y-21271144D01*
X20754185Y-21292318D01*
G37*
G36*
X-21651423Y-20063638D02*
G01*
X-21551149Y-20105173D01*
X-21551148Y-20105174D01*
X-21460902Y-20165474D01*
X-21384154Y-20242222D01*
X-21384153Y-20242224D01*
X-21323853Y-20332469D01*
X-21282318Y-20432743D01*
X-21261144Y-20539194D01*
X-21261144Y-20647734D01*
X-21282318Y-20754185D01*
X-21323853Y-20854459D01*
X-21323854Y-20854460D01*
X-21384154Y-20944706D01*
X-21460902Y-21021454D01*
X-21506332Y-21051809D01*
X-21551149Y-21081755D01*
X-21651423Y-21123290D01*
X-21757874Y-21144464D01*
X-21866414Y-21144464D01*
X-21972865Y-21123290D01*
X-22073139Y-21081755D01*
X-22117956Y-21051809D01*
X-22163386Y-21021454D01*
X-22240134Y-20944706D01*
X-22300434Y-20854460D01*
X-22300435Y-20854459D01*
X-22341970Y-20754185D01*
X-22363144Y-20647734D01*
X-22363144Y-20539194D01*
X-22341970Y-20432743D01*
X-22300435Y-20332469D01*
X-22240135Y-20242224D01*
X-22240134Y-20242222D01*
X-22163386Y-20165474D01*
X-22073140Y-20105174D01*
X-22073139Y-20105173D01*
X-21972865Y-20063638D01*
X-21866414Y-20042464D01*
X-21757874Y-20042464D01*
X-21651423Y-20063638D01*
G37*
G36*
X21981795Y-20057113D02*
G01*
X22082069Y-20098648D01*
X22126886Y-20128594D01*
X22172316Y-20158949D01*
X22249064Y-20235697D01*
X22249065Y-20235699D01*
X22309365Y-20325944D01*
X22350900Y-20426218D01*
X22372074Y-20532669D01*
X22372074Y-20641209D01*
X22350900Y-20747660D01*
X22309365Y-20847934D01*
X22309364Y-20847935D01*
X22249064Y-20938181D01*
X22172316Y-21014929D01*
X22162549Y-21021455D01*
X22082069Y-21075230D01*
X21981795Y-21116765D01*
X21875344Y-21137939D01*
X21766804Y-21137939D01*
X21660353Y-21116765D01*
X21560079Y-21075230D01*
X21479599Y-21021455D01*
X21469832Y-21014929D01*
X21393084Y-20938181D01*
X21332784Y-20847935D01*
X21332783Y-20847934D01*
X21291248Y-20747660D01*
X21270074Y-20641209D01*
X21270074Y-20532669D01*
X21291248Y-20426218D01*
X21332783Y-20325944D01*
X21393083Y-20235699D01*
X21393084Y-20235697D01*
X21469832Y-20158949D01*
X21515262Y-20128594D01*
X21560079Y-20098648D01*
X21660353Y-20057113D01*
X21766804Y-20035939D01*
X21875344Y-20035939D01*
X21981795Y-20057113D01*
G37*
G36*
X-22588205Y-19023235D02*
G01*
X-22487931Y-19064770D01*
X-22487930Y-19064771D01*
X-22397684Y-19125071D01*
X-22320936Y-19201819D01*
X-22320935Y-19201821D01*
X-22260635Y-19292066D01*
X-22219100Y-19392340D01*
X-22197926Y-19498791D01*
X-22197926Y-19607331D01*
X-22219100Y-19713782D01*
X-22260635Y-19814056D01*
X-22260636Y-19814057D01*
X-22320936Y-19904303D01*
X-22397684Y-19981051D01*
X-22443114Y-20011406D01*
X-22487931Y-20041352D01*
X-22588205Y-20082887D01*
X-22694656Y-20104061D01*
X-22803196Y-20104061D01*
X-22909647Y-20082887D01*
X-23009921Y-20041352D01*
X-23054738Y-20011406D01*
X-23100168Y-19981051D01*
X-23176916Y-19904303D01*
X-23237216Y-19814057D01*
X-23237217Y-19814056D01*
X-23278752Y-19713782D01*
X-23299926Y-19607331D01*
X-23299926Y-19498791D01*
X-23278752Y-19392340D01*
X-23237217Y-19292066D01*
X-23176917Y-19201821D01*
X-23176916Y-19201819D01*
X-23100168Y-19125071D01*
X-23009922Y-19064771D01*
X-23009921Y-19064770D01*
X-22909647Y-19023235D01*
X-22803196Y-19002061D01*
X-22694656Y-19002061D01*
X-22588205Y-19023235D01*
G37*
G36*
X22918577Y-19016710D02*
G01*
X23018851Y-19058245D01*
X23063668Y-19088191D01*
X23109098Y-19118546D01*
X23185846Y-19195294D01*
X23185847Y-19195296D01*
X23246147Y-19285541D01*
X23287682Y-19385815D01*
X23308856Y-19492266D01*
X23308856Y-19600806D01*
X23287682Y-19707257D01*
X23246147Y-19807531D01*
X23246146Y-19807532D01*
X23185846Y-19897778D01*
X23109098Y-19974526D01*
X23099331Y-19981052D01*
X23018851Y-20034827D01*
X22918577Y-20076362D01*
X22812126Y-20097536D01*
X22703586Y-20097536D01*
X22597135Y-20076362D01*
X22496861Y-20034827D01*
X22416381Y-19981052D01*
X22406614Y-19974526D01*
X22329866Y-19897778D01*
X22269566Y-19807532D01*
X22269565Y-19807531D01*
X22228030Y-19707257D01*
X22206856Y-19600806D01*
X22206856Y-19492266D01*
X22228030Y-19385815D01*
X22269565Y-19285541D01*
X22329865Y-19195296D01*
X22329866Y-19195294D01*
X22406614Y-19118546D01*
X22452044Y-19088191D01*
X22496861Y-19058245D01*
X22597135Y-19016710D01*
X22703586Y-18995536D01*
X22812126Y-18995536D01*
X22918577Y-19016710D01*
G37*
G36*
X24016448Y-17666643D02*
G01*
X24116722Y-17708178D01*
X24116723Y-17708179D01*
X24206969Y-17768479D01*
X24283717Y-17845227D01*
X24299769Y-17869251D01*
X24344018Y-17935474D01*
X24385553Y-18035748D01*
X24406727Y-18142199D01*
X24406727Y-18250739D01*
X24385553Y-18357190D01*
X24344018Y-18457464D01*
X24344017Y-18457465D01*
X24283717Y-18547711D01*
X24206969Y-18624459D01*
X24161539Y-18654814D01*
X24116722Y-18684760D01*
X24016448Y-18726295D01*
X23909997Y-18747469D01*
X23801457Y-18747469D01*
X23695006Y-18726295D01*
X23594732Y-18684760D01*
X23549915Y-18654814D01*
X23504485Y-18624459D01*
X23427737Y-18547711D01*
X23367437Y-18457465D01*
X23367436Y-18457464D01*
X23325901Y-18357190D01*
X23304727Y-18250739D01*
X23304727Y-18142199D01*
X23325901Y-18035748D01*
X23367436Y-17935474D01*
X23411685Y-17869251D01*
X23427737Y-17845227D01*
X23504485Y-17768479D01*
X23594731Y-17708179D01*
X23594732Y-17708178D01*
X23695006Y-17666643D01*
X23801457Y-17645469D01*
X23909997Y-17645469D01*
X24016448Y-17666643D01*
G37*
G36*
X-23690652Y-17666329D02*
G01*
X-23590378Y-17707864D01*
X-23589907Y-17708179D01*
X-23500131Y-17768165D01*
X-23423383Y-17844913D01*
X-23423172Y-17845229D01*
X-23363082Y-17935160D01*
X-23321547Y-18035434D01*
X-23300373Y-18141885D01*
X-23300373Y-18250425D01*
X-23321547Y-18356876D01*
X-23363082Y-18457150D01*
X-23393028Y-18501967D01*
X-23423383Y-18547397D01*
X-23500131Y-18624145D01*
X-23545561Y-18654500D01*
X-23590378Y-18684446D01*
X-23690652Y-18725981D01*
X-23797103Y-18747155D01*
X-23905643Y-18747155D01*
X-24012094Y-18725981D01*
X-24112368Y-18684446D01*
X-24157185Y-18654500D01*
X-24202615Y-18624145D01*
X-24279363Y-18547397D01*
X-24309718Y-18501967D01*
X-24339664Y-18457150D01*
X-24381199Y-18356876D01*
X-24402373Y-18250425D01*
X-24402373Y-18141885D01*
X-24381199Y-18035434D01*
X-24339664Y-17935160D01*
X-24279574Y-17845229D01*
X-24279363Y-17844913D01*
X-24202615Y-17768165D01*
X-24112839Y-17708179D01*
X-24112368Y-17707864D01*
X-24012094Y-17666329D01*
X-23905643Y-17645155D01*
X-23797103Y-17645155D01*
X-23690652Y-17666329D01*
G37*
G36*
X3697222Y-16209867D02*
G01*
X3838786Y-16252810D01*
X3969252Y-16322546D01*
X3999040Y-16346992D01*
X4083607Y-16416393D01*
X4153008Y-16500960D01*
X4177454Y-16530748D01*
X4247190Y-16661214D01*
X4290133Y-16802778D01*
X4290133Y-16802780D01*
X4301000Y-16913112D01*
X4301000Y-17486888D01*
X4300513Y-17491835D01*
X4290133Y-17597222D01*
X4247190Y-17738785D01*
X4247189Y-17738788D01*
X4231319Y-17768478D01*
X4177454Y-17869252D01*
X4140784Y-17913934D01*
X4083607Y-17983606D01*
X4020453Y-18035434D01*
X3969251Y-18077454D01*
X3969249Y-18077455D01*
X3848123Y-18142199D01*
X3838785Y-18147190D01*
X3697221Y-18190133D01*
X3550000Y-18204633D01*
X3402778Y-18190133D01*
X3261214Y-18147190D01*
X3251877Y-18142199D01*
X3130750Y-18077455D01*
X3130748Y-18077454D01*
X3079929Y-18035748D01*
X3016394Y-17983607D01*
X2922547Y-17869252D01*
X2922546Y-17869251D01*
X2868514Y-17768165D01*
X2852811Y-17738787D01*
X2843526Y-17708179D01*
X2809867Y-17597221D01*
X2802622Y-17523664D01*
X2799000Y-17486887D01*
X2799000Y-16913112D01*
X2809867Y-16802780D01*
X2809867Y-16802778D01*
X2852810Y-16661214D01*
X2922546Y-16530748D01*
X2955818Y-16490206D01*
X3016394Y-16416393D01*
X3100961Y-16346992D01*
X3130749Y-16322546D01*
X3261215Y-16252810D01*
X3402779Y-16209867D01*
X3550000Y-16195367D01*
X3697222Y-16209867D01*
G37*
G36*
X-3402778Y-16209867D02*
G01*
X-3261214Y-16252810D01*
X-3130748Y-16322546D01*
X-3100960Y-16346992D01*
X-3016393Y-16416393D01*
X-2946992Y-16500960D01*
X-2922546Y-16530748D01*
X-2852810Y-16661214D01*
X-2809867Y-16802778D01*
X-2809867Y-16802780D01*
X-2799000Y-16913112D01*
X-2799000Y-17486888D01*
X-2799487Y-17491835D01*
X-2809867Y-17597222D01*
X-2852810Y-17738785D01*
X-2852811Y-17738788D01*
X-2868681Y-17768478D01*
X-2922546Y-17869252D01*
X-2959216Y-17913934D01*
X-3016393Y-17983606D01*
X-3079547Y-18035434D01*
X-3130749Y-18077454D01*
X-3130751Y-18077455D01*
X-3251877Y-18142199D01*
X-3261215Y-18147190D01*
X-3402779Y-18190133D01*
X-3550000Y-18204633D01*
X-3697222Y-18190133D01*
X-3838786Y-18147190D01*
X-3848123Y-18142199D01*
X-3969250Y-18077455D01*
X-3969252Y-18077454D01*
X-4020071Y-18035748D01*
X-4083606Y-17983607D01*
X-4177453Y-17869252D01*
X-4177454Y-17869251D01*
X-4231486Y-17768165D01*
X-4247189Y-17738787D01*
X-4256474Y-17708179D01*
X-4290133Y-17597221D01*
X-4297378Y-17523664D01*
X-4301000Y-17486887D01*
X-4301000Y-16913112D01*
X-4290133Y-16802780D01*
X-4290133Y-16802778D01*
X-4247190Y-16661214D01*
X-4177454Y-16530748D01*
X-4144182Y-16490206D01*
X-4083606Y-16416393D01*
X-3999039Y-16346992D01*
X-3969251Y-16322546D01*
X-3838785Y-16252810D01*
X-3697221Y-16209867D01*
X-3550000Y-16195367D01*
X-3402778Y-16209867D01*
G37*
G36*
X24839348Y-16534019D02*
G01*
X24939622Y-16575554D01*
X24939623Y-16575555D01*
X25029869Y-16635855D01*
X25106617Y-16712603D01*
X25106618Y-16712605D01*
X25166918Y-16802850D01*
X25208453Y-16903124D01*
X25229627Y-17009575D01*
X25229627Y-17118115D01*
X25208453Y-17224566D01*
X25166918Y-17324840D01*
X25166917Y-17324841D01*
X25106617Y-17415087D01*
X25029869Y-17491835D01*
X24984439Y-17522190D01*
X24939622Y-17552136D01*
X24839348Y-17593671D01*
X24732897Y-17614845D01*
X24624357Y-17614845D01*
X24517906Y-17593671D01*
X24417632Y-17552136D01*
X24372815Y-17522190D01*
X24327385Y-17491835D01*
X24250637Y-17415087D01*
X24190337Y-17324841D01*
X24190336Y-17324840D01*
X24148801Y-17224566D01*
X24127627Y-17118115D01*
X24127627Y-17009575D01*
X24148801Y-16903124D01*
X24190336Y-16802850D01*
X24250636Y-16712605D01*
X24250637Y-16712603D01*
X24327385Y-16635855D01*
X24417631Y-16575555D01*
X24417632Y-16575554D01*
X24517906Y-16534019D01*
X24624357Y-16512845D01*
X24732897Y-16512845D01*
X24839348Y-16534019D01*
G37*
G36*
X-24513552Y-16533705D02*
G01*
X-24413278Y-16575240D01*
X-24412807Y-16575555D01*
X-24323031Y-16635541D01*
X-24246283Y-16712289D01*
X-24246072Y-16712605D01*
X-24185982Y-16802536D01*
X-24144447Y-16902810D01*
X-24123273Y-17009261D01*
X-24123273Y-17117801D01*
X-24144447Y-17224252D01*
X-24185982Y-17324526D01*
X-24215928Y-17369343D01*
X-24246283Y-17414773D01*
X-24323031Y-17491521D01*
X-24368461Y-17521876D01*
X-24413278Y-17551822D01*
X-24513552Y-17593357D01*
X-24620003Y-17614531D01*
X-24728543Y-17614531D01*
X-24834994Y-17593357D01*
X-24935268Y-17551822D01*
X-24980085Y-17521876D01*
X-25025515Y-17491521D01*
X-25102263Y-17414773D01*
X-25132618Y-17369343D01*
X-25162564Y-17324526D01*
X-25204099Y-17224252D01*
X-25225273Y-17117801D01*
X-25225273Y-17009261D01*
X-25204099Y-16902810D01*
X-25162564Y-16802536D01*
X-25102474Y-16712605D01*
X-25102263Y-16712289D01*
X-25025515Y-16635541D01*
X-24935739Y-16575555D01*
X-24935268Y-16575240D01*
X-24834994Y-16533705D01*
X-24728543Y-16512531D01*
X-24620003Y-16512531D01*
X-24513552Y-16533705D01*
G37*
G36*
X-25464279Y-15076732D02*
G01*
X-25364005Y-15118267D01*
X-25364004Y-15118268D01*
X-25273758Y-15178568D01*
X-25197010Y-15255316D01*
X-25197009Y-15255318D01*
X-25136709Y-15345563D01*
X-25095174Y-15445837D01*
X-25074000Y-15552288D01*
X-25074000Y-15660828D01*
X-25095174Y-15767279D01*
X-25136709Y-15867553D01*
X-25136710Y-15867554D01*
X-25197010Y-15957800D01*
X-25273758Y-16034548D01*
X-25319188Y-16064903D01*
X-25364005Y-16094849D01*
X-25464279Y-16136384D01*
X-25570730Y-16157558D01*
X-25679270Y-16157558D01*
X-25785721Y-16136384D01*
X-25885995Y-16094849D01*
X-25930812Y-16064903D01*
X-25976242Y-16034548D01*
X-26052990Y-15957800D01*
X-26113290Y-15867554D01*
X-26113291Y-15867553D01*
X-26154826Y-15767279D01*
X-26176000Y-15660828D01*
X-26176000Y-15552288D01*
X-26154826Y-15445837D01*
X-26113291Y-15345563D01*
X-26052991Y-15255318D01*
X-26052990Y-15255316D01*
X-25976242Y-15178568D01*
X-25885996Y-15118268D01*
X-25885995Y-15118267D01*
X-25785721Y-15076732D01*
X-25679270Y-15055558D01*
X-25570730Y-15055558D01*
X-25464279Y-15076732D01*
G37*
G36*
X25795721Y-15066052D02*
G01*
X25895995Y-15107587D01*
X25911980Y-15118268D01*
X25986242Y-15167888D01*
X26062990Y-15244636D01*
X26062991Y-15244638D01*
X26123291Y-15334883D01*
X26164826Y-15435157D01*
X26186000Y-15541608D01*
X26186000Y-15650148D01*
X26164826Y-15756599D01*
X26123291Y-15856873D01*
X26123290Y-15856874D01*
X26062990Y-15947120D01*
X25986242Y-16023868D01*
X25940812Y-16054223D01*
X25895995Y-16084169D01*
X25795721Y-16125704D01*
X25689270Y-16146878D01*
X25580730Y-16146878D01*
X25474279Y-16125704D01*
X25374005Y-16084169D01*
X25329188Y-16054223D01*
X25283758Y-16023868D01*
X25207010Y-15947120D01*
X25146710Y-15856874D01*
X25146709Y-15856873D01*
X25105174Y-15756599D01*
X25084000Y-15650148D01*
X25084000Y-15541608D01*
X25105174Y-15435157D01*
X25146709Y-15334883D01*
X25207009Y-15244638D01*
X25207010Y-15244636D01*
X25283758Y-15167888D01*
X25358020Y-15118268D01*
X25374005Y-15107587D01*
X25474279Y-15066052D01*
X25580730Y-15044878D01*
X25689270Y-15044878D01*
X25795721Y-15066052D01*
G37*
G36*
X-26164279Y-13864296D02*
G01*
X-26064005Y-13905831D01*
X-26064004Y-13905832D01*
X-25973758Y-13966132D01*
X-25897010Y-14042880D01*
X-25897009Y-14042882D01*
X-25836709Y-14133127D01*
X-25795174Y-14233401D01*
X-25774000Y-14339852D01*
X-25774000Y-14448392D01*
X-25795174Y-14554843D01*
X-25836709Y-14655117D01*
X-25836710Y-14655118D01*
X-25897010Y-14745364D01*
X-25973758Y-14822112D01*
X-26019188Y-14852467D01*
X-26064005Y-14882413D01*
X-26164279Y-14923948D01*
X-26270730Y-14945122D01*
X-26379270Y-14945122D01*
X-26485721Y-14923948D01*
X-26585995Y-14882413D01*
X-26630812Y-14852467D01*
X-26676242Y-14822112D01*
X-26752990Y-14745364D01*
X-26813290Y-14655118D01*
X-26813291Y-14655117D01*
X-26854826Y-14554843D01*
X-26876000Y-14448392D01*
X-26876000Y-14339852D01*
X-26854826Y-14233401D01*
X-26813291Y-14133127D01*
X-26752991Y-14042882D01*
X-26752990Y-14042880D01*
X-26676242Y-13966132D01*
X-26585996Y-13905832D01*
X-26585995Y-13905831D01*
X-26485721Y-13864296D01*
X-26379270Y-13843122D01*
X-26270730Y-13843122D01*
X-26164279Y-13864296D01*
G37*
G36*
X26495721Y-13853616D02*
G01*
X26595995Y-13895151D01*
X26611980Y-13905832D01*
X26686242Y-13955452D01*
X26762990Y-14032200D01*
X26762991Y-14032202D01*
X26823291Y-14122447D01*
X26864826Y-14222721D01*
X26886000Y-14329172D01*
X26886000Y-14437712D01*
X26864826Y-14544163D01*
X26823291Y-14644437D01*
X26823290Y-14644438D01*
X26762990Y-14734684D01*
X26686242Y-14811432D01*
X26640812Y-14841787D01*
X26595995Y-14871733D01*
X26495721Y-14913268D01*
X26389270Y-14934442D01*
X26280730Y-14934442D01*
X26174279Y-14913268D01*
X26074005Y-14871733D01*
X26029188Y-14841787D01*
X25983758Y-14811432D01*
X25907010Y-14734684D01*
X25846710Y-14644438D01*
X25846709Y-14644437D01*
X25805174Y-14544163D01*
X25784000Y-14437712D01*
X25784000Y-14329172D01*
X25805174Y-14222721D01*
X25846709Y-14122447D01*
X25907009Y-14032202D01*
X25907010Y-14032200D01*
X25983758Y-13955452D01*
X26058020Y-13905832D01*
X26074005Y-13895151D01*
X26174279Y-13853616D01*
X26280730Y-13832442D01*
X26389270Y-13832442D01*
X26495721Y-13853616D01*
G37*
G36*
X-26953140Y-12315389D02*
G01*
X-26852866Y-12356924D01*
X-26852865Y-12356925D01*
X-26762619Y-12417225D01*
X-26685871Y-12493973D01*
X-26685870Y-12493975D01*
X-26625570Y-12584220D01*
X-26584035Y-12684494D01*
X-26562861Y-12790945D01*
X-26562861Y-12899485D01*
X-26584035Y-13005936D01*
X-26625570Y-13106210D01*
X-26625571Y-13106211D01*
X-26685871Y-13196457D01*
X-26762619Y-13273205D01*
X-26808049Y-13303560D01*
X-26852866Y-13333506D01*
X-26953140Y-13375041D01*
X-27059591Y-13396215D01*
X-27168131Y-13396215D01*
X-27274582Y-13375041D01*
X-27374856Y-13333506D01*
X-27419673Y-13303560D01*
X-27465103Y-13273205D01*
X-27541851Y-13196457D01*
X-27602151Y-13106211D01*
X-27602152Y-13106210D01*
X-27643687Y-13005936D01*
X-27664861Y-12899485D01*
X-27664861Y-12790945D01*
X-27643687Y-12684494D01*
X-27602152Y-12584220D01*
X-27541852Y-12493975D01*
X-27541851Y-12493973D01*
X-27465103Y-12417225D01*
X-27374857Y-12356925D01*
X-27374856Y-12356924D01*
X-27274582Y-12315389D01*
X-27168131Y-12294215D01*
X-27059591Y-12294215D01*
X-26953140Y-12315389D01*
G37*
G36*
X27287429Y-12303922D02*
G01*
X27387703Y-12345457D01*
X27404866Y-12356925D01*
X27477950Y-12405758D01*
X27554698Y-12482506D01*
X27554699Y-12482508D01*
X27614999Y-12572753D01*
X27656534Y-12673027D01*
X27677708Y-12779478D01*
X27677708Y-12888018D01*
X27656534Y-12994469D01*
X27614999Y-13094743D01*
X27614998Y-13094744D01*
X27554698Y-13184990D01*
X27477950Y-13261738D01*
X27432520Y-13292093D01*
X27387703Y-13322039D01*
X27287429Y-13363574D01*
X27180978Y-13384748D01*
X27072438Y-13384748D01*
X26965987Y-13363574D01*
X26865713Y-13322039D01*
X26820896Y-13292093D01*
X26775466Y-13261738D01*
X26698718Y-13184990D01*
X26638418Y-13094744D01*
X26638417Y-13094743D01*
X26596882Y-12994469D01*
X26575708Y-12888018D01*
X26575708Y-12779478D01*
X26596882Y-12673027D01*
X26638417Y-12572753D01*
X26698717Y-12482508D01*
X26698718Y-12482506D01*
X26775466Y-12405758D01*
X26848550Y-12356925D01*
X26865713Y-12345457D01*
X26965987Y-12303922D01*
X27072438Y-12282748D01*
X27180978Y-12282748D01*
X27287429Y-12303922D01*
G37*
G36*
X-27522571Y-11036426D02*
G01*
X-27422297Y-11077961D01*
X-27422296Y-11077962D01*
X-27332050Y-11138262D01*
X-27255302Y-11215010D01*
X-27255301Y-11215012D01*
X-27195001Y-11305257D01*
X-27153466Y-11405531D01*
X-27132292Y-11511982D01*
X-27132292Y-11620522D01*
X-27153466Y-11726973D01*
X-27195001Y-11827247D01*
X-27195002Y-11827248D01*
X-27255302Y-11917494D01*
X-27332050Y-11994242D01*
X-27377480Y-12024597D01*
X-27422297Y-12054543D01*
X-27522571Y-12096078D01*
X-27629022Y-12117252D01*
X-27737562Y-12117252D01*
X-27844013Y-12096078D01*
X-27944287Y-12054543D01*
X-27989104Y-12024597D01*
X-28034534Y-11994242D01*
X-28111282Y-11917494D01*
X-28171582Y-11827248D01*
X-28171583Y-11827247D01*
X-28213118Y-11726973D01*
X-28234292Y-11620522D01*
X-28234292Y-11511982D01*
X-28213118Y-11405531D01*
X-28171583Y-11305257D01*
X-28111283Y-11215012D01*
X-28111282Y-11215010D01*
X-28034534Y-11138262D01*
X-27944288Y-11077962D01*
X-27944287Y-11077961D01*
X-27844013Y-11036426D01*
X-27737562Y-11015252D01*
X-27629022Y-11015252D01*
X-27522571Y-11036426D01*
G37*
G36*
X27856860Y-11024959D02*
G01*
X27957134Y-11066494D01*
X27974297Y-11077962D01*
X28047381Y-11126795D01*
X28124129Y-11203543D01*
X28124130Y-11203545D01*
X28184430Y-11293790D01*
X28225965Y-11394064D01*
X28247139Y-11500515D01*
X28247139Y-11609055D01*
X28225965Y-11715506D01*
X28184430Y-11815780D01*
X28184429Y-11815781D01*
X28124129Y-11906027D01*
X28047381Y-11982775D01*
X28001951Y-12013130D01*
X27957134Y-12043076D01*
X27856860Y-12084611D01*
X27750409Y-12105785D01*
X27641869Y-12105785D01*
X27535418Y-12084611D01*
X27435144Y-12043076D01*
X27390327Y-12013130D01*
X27344897Y-11982775D01*
X27268149Y-11906027D01*
X27207849Y-11815781D01*
X27207848Y-11815780D01*
X27166313Y-11715506D01*
X27145139Y-11609055D01*
X27145139Y-11500515D01*
X27166313Y-11394064D01*
X27207848Y-11293790D01*
X27268148Y-11203545D01*
X27268149Y-11203543D01*
X27344897Y-11126795D01*
X27417981Y-11077962D01*
X27435144Y-11066494D01*
X27535418Y-11024959D01*
X27641869Y-11003785D01*
X27750409Y-11003785D01*
X27856860Y-11024959D01*
G37*
G36*
X-28148124Y-9402755D02*
G01*
X-28047850Y-9444290D01*
X-28047849Y-9444291D01*
X-27957603Y-9504591D01*
X-27880855Y-9581339D01*
X-27880854Y-9581341D01*
X-27820554Y-9671586D01*
X-27779019Y-9771860D01*
X-27757845Y-9878311D01*
X-27757845Y-9986851D01*
X-27779019Y-10093302D01*
X-27820554Y-10193576D01*
X-27820555Y-10193577D01*
X-27880855Y-10283823D01*
X-27957603Y-10360571D01*
X-28003033Y-10390926D01*
X-28047850Y-10420872D01*
X-28148124Y-10462407D01*
X-28254575Y-10483581D01*
X-28363115Y-10483581D01*
X-28469566Y-10462407D01*
X-28569840Y-10420872D01*
X-28614657Y-10390926D01*
X-28660087Y-10360571D01*
X-28736835Y-10283823D01*
X-28797135Y-10193577D01*
X-28797136Y-10193576D01*
X-28838671Y-10093302D01*
X-28859845Y-9986851D01*
X-28859845Y-9878311D01*
X-28838671Y-9771860D01*
X-28797136Y-9671586D01*
X-28736836Y-9581341D01*
X-28736835Y-9581339D01*
X-28660087Y-9504591D01*
X-28569841Y-9444291D01*
X-28569840Y-9444290D01*
X-28469566Y-9402755D01*
X-28363115Y-9381581D01*
X-28254575Y-9381581D01*
X-28148124Y-9402755D01*
G37*
G36*
X28479252Y-9399072D02*
G01*
X28579526Y-9440607D01*
X28579527Y-9440608D01*
X28669773Y-9500908D01*
X28746521Y-9577656D01*
X28746522Y-9577658D01*
X28806822Y-9667903D01*
X28848357Y-9768177D01*
X28869531Y-9874628D01*
X28869531Y-9983168D01*
X28848357Y-10089619D01*
X28806822Y-10189893D01*
X28806821Y-10189894D01*
X28746521Y-10280140D01*
X28669773Y-10356888D01*
X28664261Y-10360571D01*
X28579526Y-10417189D01*
X28479252Y-10458724D01*
X28372801Y-10479898D01*
X28264261Y-10479898D01*
X28157810Y-10458724D01*
X28057536Y-10417189D01*
X27972801Y-10360571D01*
X27967289Y-10356888D01*
X27890541Y-10280140D01*
X27830241Y-10189894D01*
X27830240Y-10189893D01*
X27788705Y-10089619D01*
X27767531Y-9983168D01*
X27767531Y-9874628D01*
X27788705Y-9768177D01*
X27830240Y-9667903D01*
X27890540Y-9577658D01*
X27890541Y-9577656D01*
X27967289Y-9500908D01*
X28057535Y-9440608D01*
X28057536Y-9440607D01*
X28157810Y-9399072D01*
X28264261Y-9377898D01*
X28372801Y-9377898D01*
X28479252Y-9399072D01*
G37*
G36*
X-28580748Y-8071276D02*
G01*
X-28480474Y-8112811D01*
X-28435657Y-8142757D01*
X-28390227Y-8173112D01*
X-28313479Y-8249860D01*
X-28313478Y-8249862D01*
X-28253178Y-8340107D01*
X-28211643Y-8440381D01*
X-28190469Y-8546832D01*
X-28190469Y-8655372D01*
X-28211643Y-8761823D01*
X-28253178Y-8862097D01*
X-28253179Y-8862098D01*
X-28313479Y-8952344D01*
X-28390227Y-9029092D01*
X-28435657Y-9059447D01*
X-28480474Y-9089393D01*
X-28580748Y-9130928D01*
X-28687199Y-9152102D01*
X-28795739Y-9152102D01*
X-28902190Y-9130928D01*
X-29002464Y-9089393D01*
X-29047281Y-9059447D01*
X-29092711Y-9029092D01*
X-29169459Y-8952344D01*
X-29229759Y-8862098D01*
X-29229760Y-8862097D01*
X-29271295Y-8761823D01*
X-29292469Y-8655372D01*
X-29292469Y-8546832D01*
X-29271295Y-8440381D01*
X-29229760Y-8340107D01*
X-29169460Y-8249862D01*
X-29169459Y-8249860D01*
X-29092711Y-8173112D01*
X-29047281Y-8142757D01*
X-29002464Y-8112811D01*
X-28902190Y-8071276D01*
X-28795739Y-8050102D01*
X-28687199Y-8050102D01*
X-28580748Y-8071276D01*
G37*
G36*
X28911876Y-8067593D02*
G01*
X29012150Y-8109128D01*
X29056967Y-8139074D01*
X29102397Y-8169429D01*
X29179145Y-8246177D01*
X29179146Y-8246179D01*
X29239446Y-8336424D01*
X29280981Y-8436698D01*
X29302155Y-8543149D01*
X29302155Y-8651689D01*
X29280981Y-8758140D01*
X29239446Y-8858414D01*
X29239445Y-8858415D01*
X29179145Y-8948661D01*
X29102397Y-9025409D01*
X29096885Y-9029092D01*
X29012150Y-9085710D01*
X28911876Y-9127245D01*
X28805425Y-9148419D01*
X28696885Y-9148419D01*
X28590434Y-9127245D01*
X28490160Y-9085710D01*
X28405425Y-9029092D01*
X28399913Y-9025409D01*
X28323165Y-8948661D01*
X28262865Y-8858415D01*
X28262864Y-8858414D01*
X28221329Y-8758140D01*
X28200155Y-8651689D01*
X28200155Y-8543149D01*
X28221329Y-8436698D01*
X28262864Y-8336424D01*
X28323164Y-8246179D01*
X28323165Y-8246177D01*
X28399913Y-8169429D01*
X28445343Y-8139074D01*
X28490160Y-8109128D01*
X28590434Y-8067593D01*
X28696885Y-8046419D01*
X28805425Y-8046419D01*
X28911876Y-8067593D01*
G37*
G36*
X-2208019Y-6537468D02*
G01*
X-2025849Y-6612926D01*
X-1861900Y-6722473D01*
X-1722473Y-6861900D01*
X-1612926Y-7025849D01*
X-1537468Y-7208019D01*
X-1499000Y-7401410D01*
X-1499000Y-7598590D01*
X-1537468Y-7791981D01*
X-1612926Y-7974151D01*
X-1722473Y-8138100D01*
X-1861900Y-8277527D01*
X-2025849Y-8387074D01*
X-2208019Y-8462532D01*
X-2304715Y-8481766D01*
X-2401409Y-8501000D01*
X-2598591Y-8501000D01*
X-2695285Y-8481766D01*
X-2791981Y-8462532D01*
X-2974151Y-8387074D01*
X-3138100Y-8277527D01*
X-3277527Y-8138100D01*
X-3387074Y-7974151D01*
X-3462532Y-7791981D01*
X-3501000Y-7598590D01*
X-3501000Y-7401410D01*
X-3462532Y-7208019D01*
X-3387074Y-7025849D01*
X-3277527Y-6861900D01*
X-3138100Y-6722473D01*
X-2974151Y-6612926D01*
X-2791981Y-6537468D01*
X-2598591Y-6499000D01*
X-2401409Y-6499000D01*
X-2208019Y-6537468D01*
G37*
G36*
X291981Y-6537468D02*
G01*
X474151Y-6612926D01*
X638100Y-6722473D01*
X777527Y-6861900D01*
X887074Y-7025849D01*
X962532Y-7208019D01*
X1001000Y-7401410D01*
X1001000Y-7598590D01*
X962532Y-7791981D01*
X887074Y-7974151D01*
X777527Y-8138100D01*
X638100Y-8277527D01*
X474151Y-8387074D01*
X291981Y-8462532D01*
X195285Y-8481766D01*
X98591Y-8501000D01*
X-98591Y-8501000D01*
X-195285Y-8481766D01*
X-291981Y-8462532D01*
X-474151Y-8387074D01*
X-638100Y-8277527D01*
X-777527Y-8138100D01*
X-887074Y-7974151D01*
X-962532Y-7791981D01*
X-1001000Y-7598590D01*
X-1001000Y-7401410D01*
X-962532Y-7208019D01*
X-887074Y-7025849D01*
X-777527Y-6861900D01*
X-638100Y-6722473D01*
X-474151Y-6612926D01*
X-291981Y-6537468D01*
X-98591Y-6499000D01*
X98591Y-6499000D01*
X291981Y-6537468D01*
G37*
G36*
X2791981Y-6537468D02*
G01*
X2974151Y-6612926D01*
X3138100Y-6722473D01*
X3277527Y-6861900D01*
X3387074Y-7025849D01*
X3462532Y-7208019D01*
X3501000Y-7401410D01*
X3501000Y-7598590D01*
X3462532Y-7791981D01*
X3387074Y-7974151D01*
X3277527Y-8138100D01*
X3138100Y-8277527D01*
X2974151Y-8387074D01*
X2791981Y-8462532D01*
X2695285Y-8481766D01*
X2598591Y-8501000D01*
X2401409Y-8501000D01*
X2304715Y-8481766D01*
X2208019Y-8462532D01*
X2025849Y-8387074D01*
X1861900Y-8277527D01*
X1722473Y-8138100D01*
X1612926Y-7974151D01*
X1537468Y-7791981D01*
X1499000Y-7598590D01*
X1499000Y-7401410D01*
X1537468Y-7208019D01*
X1612926Y-7025849D01*
X1722473Y-6861900D01*
X1861900Y-6722473D01*
X2025849Y-6612926D01*
X2208019Y-6537468D01*
X2401409Y-6499000D01*
X2598591Y-6499000D01*
X2791981Y-6537468D01*
G37*
G36*
X29358761Y-6390569D02*
G01*
X29459035Y-6432104D01*
X29459036Y-6432105D01*
X29549282Y-6492405D01*
X29626030Y-6569153D01*
X29626031Y-6569155D01*
X29686331Y-6659400D01*
X29727866Y-6759674D01*
X29749040Y-6866125D01*
X29749040Y-6974665D01*
X29727866Y-7081116D01*
X29686331Y-7181390D01*
X29686330Y-7181391D01*
X29626030Y-7271637D01*
X29549282Y-7348385D01*
X29503852Y-7378740D01*
X29459035Y-7408686D01*
X29358761Y-7450221D01*
X29252310Y-7471395D01*
X29143770Y-7471395D01*
X29037319Y-7450221D01*
X28937045Y-7408686D01*
X28892228Y-7378740D01*
X28846798Y-7348385D01*
X28770050Y-7271637D01*
X28709750Y-7181391D01*
X28709749Y-7181390D01*
X28668214Y-7081116D01*
X28647040Y-6974665D01*
X28647040Y-6866125D01*
X28668214Y-6759674D01*
X28709749Y-6659400D01*
X28770049Y-6569155D01*
X28770050Y-6569153D01*
X28846798Y-6492405D01*
X28937044Y-6432105D01*
X28937045Y-6432104D01*
X29037319Y-6390569D01*
X29143770Y-6369395D01*
X29252310Y-6369395D01*
X29358761Y-6390569D01*
G37*
G36*
X-29040162Y-6379186D02*
G01*
X-28939888Y-6420721D01*
X-28922851Y-6432105D01*
X-28849641Y-6481022D01*
X-28772893Y-6557770D01*
X-28772892Y-6557772D01*
X-28712592Y-6648017D01*
X-28671057Y-6748291D01*
X-28649883Y-6854742D01*
X-28649883Y-6963282D01*
X-28671057Y-7069733D01*
X-28712592Y-7170007D01*
X-28712593Y-7170008D01*
X-28772893Y-7260254D01*
X-28849641Y-7337002D01*
X-28895071Y-7367357D01*
X-28939888Y-7397303D01*
X-29040162Y-7438838D01*
X-29146613Y-7460012D01*
X-29255153Y-7460012D01*
X-29361604Y-7438838D01*
X-29461878Y-7397303D01*
X-29506695Y-7367357D01*
X-29552125Y-7337002D01*
X-29628873Y-7260254D01*
X-29689173Y-7170008D01*
X-29689174Y-7170007D01*
X-29730709Y-7069733D01*
X-29751883Y-6963282D01*
X-29751883Y-6854742D01*
X-29730709Y-6748291D01*
X-29689174Y-6648017D01*
X-29628874Y-6557772D01*
X-29628873Y-6557770D01*
X-29552125Y-6481022D01*
X-29478915Y-6432105D01*
X-29461878Y-6420721D01*
X-29361604Y-6379186D01*
X-29255153Y-6358012D01*
X-29146613Y-6358012D01*
X-29040162Y-6379186D01*
G37*
G36*
X29649838Y-5021162D02*
G01*
X29750112Y-5062697D01*
X29750113Y-5062698D01*
X29840359Y-5122998D01*
X29917107Y-5199746D01*
X29917108Y-5199748D01*
X29977408Y-5289993D01*
X30018943Y-5390267D01*
X30040117Y-5496718D01*
X30040117Y-5605258D01*
X30018943Y-5711709D01*
X29977408Y-5811983D01*
X29977407Y-5811984D01*
X29917107Y-5902230D01*
X29840359Y-5978978D01*
X29794929Y-6009333D01*
X29750112Y-6039279D01*
X29649838Y-6080814D01*
X29543387Y-6101988D01*
X29434847Y-6101988D01*
X29328396Y-6080814D01*
X29228122Y-6039279D01*
X29183305Y-6009333D01*
X29137875Y-5978978D01*
X29061127Y-5902230D01*
X29000827Y-5811984D01*
X29000826Y-5811983D01*
X28959291Y-5711709D01*
X28938117Y-5605258D01*
X28938117Y-5496718D01*
X28959291Y-5390267D01*
X29000826Y-5289993D01*
X29061126Y-5199748D01*
X29061127Y-5199746D01*
X29137875Y-5122998D01*
X29228121Y-5062698D01*
X29228122Y-5062697D01*
X29328396Y-5021162D01*
X29434847Y-4999988D01*
X29543387Y-4999988D01*
X29649838Y-5021162D01*
G37*
G36*
X-29331239Y-5009779D02*
G01*
X-29230965Y-5051314D01*
X-29213928Y-5062698D01*
X-29140718Y-5111615D01*
X-29063970Y-5188363D01*
X-29063969Y-5188365D01*
X-29003669Y-5278610D01*
X-28962134Y-5378884D01*
X-28940960Y-5485335D01*
X-28940960Y-5593875D01*
X-28962134Y-5700326D01*
X-29003669Y-5800600D01*
X-29003670Y-5800601D01*
X-29063970Y-5890847D01*
X-29140718Y-5967595D01*
X-29186148Y-5997950D01*
X-29230965Y-6027896D01*
X-29331239Y-6069431D01*
X-29437690Y-6090605D01*
X-29546230Y-6090605D01*
X-29652681Y-6069431D01*
X-29752955Y-6027896D01*
X-29797772Y-5997950D01*
X-29843202Y-5967595D01*
X-29919950Y-5890847D01*
X-29980250Y-5800601D01*
X-29980251Y-5800600D01*
X-30021786Y-5700326D01*
X-30042960Y-5593875D01*
X-30042960Y-5485335D01*
X-30021786Y-5378884D01*
X-29980251Y-5278610D01*
X-29919951Y-5188365D01*
X-29919950Y-5188363D01*
X-29843202Y-5111615D01*
X-29769992Y-5062698D01*
X-29752955Y-5051314D01*
X-29652681Y-5009779D01*
X-29546230Y-4988605D01*
X-29437690Y-4988605D01*
X-29331239Y-5009779D01*
G37*
G36*
X-3910110Y-4474017D02*
G01*
X-3791636Y-4523091D01*
X-3685012Y-4594335D01*
X-3594335Y-4685012D01*
X-3523090Y-4791638D01*
X-3474017Y-4910110D01*
X-3449000Y-5035881D01*
X-3449000Y-5164119D01*
X-3453823Y-5188365D01*
X-3474017Y-5289890D01*
X-3523091Y-5408364D01*
X-3594335Y-5514988D01*
X-3685012Y-5605665D01*
X-3791636Y-5676909D01*
X-3791637Y-5676910D01*
X-3791638Y-5676910D01*
X-3910110Y-5725983D01*
X-4035881Y-5751000D01*
X-4164119Y-5751000D01*
X-4289890Y-5725983D01*
X-4408362Y-5676910D01*
X-4408363Y-5676910D01*
X-4408364Y-5676909D01*
X-4514988Y-5605665D01*
X-4605665Y-5514988D01*
X-4676909Y-5408364D01*
X-4725983Y-5289890D01*
X-4746177Y-5188365D01*
X-4751000Y-5164119D01*
X-4751000Y-5035881D01*
X-4725983Y-4910110D01*
X-4676910Y-4791638D01*
X-4605665Y-4685012D01*
X-4514988Y-4594335D01*
X-4408364Y-4523091D01*
X-4289890Y-4474017D01*
X-4164119Y-4449000D01*
X-4035881Y-4449000D01*
X-3910110Y-4474017D01*
G37*
G36*
X29923441Y-3297739D02*
G01*
X30023715Y-3339274D01*
X30023716Y-3339275D01*
X30113962Y-3399575D01*
X30190710Y-3476323D01*
X30190711Y-3476325D01*
X30251011Y-3566570D01*
X30292546Y-3666844D01*
X30313720Y-3773295D01*
X30313720Y-3881835D01*
X30292546Y-3988286D01*
X30251011Y-4088560D01*
X30251010Y-4088561D01*
X30190710Y-4178807D01*
X30113962Y-4255555D01*
X30068532Y-4285910D01*
X30023715Y-4315856D01*
X29923441Y-4357391D01*
X29816990Y-4378565D01*
X29708450Y-4378565D01*
X29601999Y-4357391D01*
X29501725Y-4315856D01*
X29456908Y-4285910D01*
X29411478Y-4255555D01*
X29334730Y-4178807D01*
X29274430Y-4088561D01*
X29274429Y-4088560D01*
X29232894Y-3988286D01*
X29211720Y-3881835D01*
X29211720Y-3773295D01*
X29232894Y-3666844D01*
X29274429Y-3566570D01*
X29334729Y-3476325D01*
X29334730Y-3476323D01*
X29411478Y-3399575D01*
X29501724Y-3339275D01*
X29501725Y-3339274D01*
X29601999Y-3297739D01*
X29708450Y-3276565D01*
X29816990Y-3276565D01*
X29923441Y-3297739D01*
G37*
G36*
X-29600219Y-3284940D02*
G01*
X-29499945Y-3326475D01*
X-29499944Y-3326476D01*
X-29409698Y-3386776D01*
X-29332950Y-3463524D01*
X-29332949Y-3463526D01*
X-29272649Y-3553771D01*
X-29231114Y-3654045D01*
X-29209940Y-3760496D01*
X-29209940Y-3869036D01*
X-29231114Y-3975487D01*
X-29272649Y-4075761D01*
X-29272650Y-4075762D01*
X-29332950Y-4166008D01*
X-29409698Y-4242756D01*
X-29428853Y-4255555D01*
X-29499945Y-4303057D01*
X-29600219Y-4344592D01*
X-29706670Y-4365766D01*
X-29815210Y-4365766D01*
X-29921661Y-4344592D01*
X-30021935Y-4303057D01*
X-30093027Y-4255555D01*
X-30112182Y-4242756D01*
X-30188930Y-4166008D01*
X-30249230Y-4075762D01*
X-30249231Y-4075761D01*
X-30290766Y-3975487D01*
X-30311940Y-3869036D01*
X-30311940Y-3760496D01*
X-30290766Y-3654045D01*
X-30249231Y-3553771D01*
X-30188931Y-3463526D01*
X-30188930Y-3463524D01*
X-30112182Y-3386776D01*
X-30021936Y-3326476D01*
X-30021935Y-3326475D01*
X-29921661Y-3284940D01*
X-29815210Y-3263766D01*
X-29706670Y-3263766D01*
X-29600219Y-3284940D01*
G37*
G36*
X1035787Y3414538D02*
G01*
X1217488Y3339275D01*
X1682029Y3146856D01*
X2263631Y2758242D01*
X2758242Y2263631D01*
X3146856Y1682029D01*
X3146856Y1682028D01*
X3414538Y1035787D01*
X3551000Y349744D01*
X3551000Y-349744D01*
X3414538Y-1035787D01*
X3414537Y-1035789D01*
X3146856Y-1682029D01*
X2758242Y-2263631D01*
X2263631Y-2758242D01*
X1682029Y-3146856D01*
X1399783Y-3263766D01*
X1035787Y-3414538D01*
X349744Y-3551000D01*
X-349744Y-3551000D01*
X-1035787Y-3414538D01*
X-1399783Y-3263766D01*
X-1682029Y-3146856D01*
X-2263631Y-2758242D01*
X-2758242Y-2263631D01*
X-3146856Y-1682029D01*
X-3414537Y-1035789D01*
X-3414538Y-1035787D01*
X-3551000Y-349744D01*
X-3551000Y349744D01*
X-3414538Y1035787D01*
X-3146856Y1682028D01*
X-3146856Y1682029D01*
X-2758242Y2263631D01*
X-2263631Y2758242D01*
X-1682029Y3146856D01*
X-1217488Y3339275D01*
X-1035787Y3414538D01*
X-349744Y3551000D01*
X349744Y3551000D01*
X1035787Y3414538D01*
G37*
G36*
X30069781Y-1905408D02*
G01*
X30170055Y-1946943D01*
X30170056Y-1946944D01*
X30260302Y-2007244D01*
X30337050Y-2083992D01*
X30337051Y-2083994D01*
X30397351Y-2174239D01*
X30438886Y-2274513D01*
X30460060Y-2380964D01*
X30460060Y-2489504D01*
X30438886Y-2595955D01*
X30397351Y-2696229D01*
X30397350Y-2696230D01*
X30337050Y-2786476D01*
X30260302Y-2863224D01*
X30214872Y-2893579D01*
X30170055Y-2923525D01*
X30069781Y-2965060D01*
X29963330Y-2986234D01*
X29854790Y-2986234D01*
X29748339Y-2965060D01*
X29648065Y-2923525D01*
X29603248Y-2893579D01*
X29557818Y-2863224D01*
X29481070Y-2786476D01*
X29420770Y-2696230D01*
X29420769Y-2696229D01*
X29379234Y-2595955D01*
X29358060Y-2489504D01*
X29358060Y-2380964D01*
X29379234Y-2274513D01*
X29420769Y-2174239D01*
X29481069Y-2083994D01*
X29481070Y-2083992D01*
X29557818Y-2007244D01*
X29648064Y-1946944D01*
X29648065Y-1946943D01*
X29748339Y-1905408D01*
X29854790Y-1884234D01*
X29963330Y-1884234D01*
X30069781Y-1905408D01*
G37*
G36*
X-29746559Y-1892609D02*
G01*
X-29646285Y-1934144D01*
X-29646284Y-1934145D01*
X-29556038Y-1994445D01*
X-29479290Y-2071193D01*
X-29479289Y-2071195D01*
X-29418989Y-2161440D01*
X-29377454Y-2261714D01*
X-29356280Y-2368165D01*
X-29356280Y-2476705D01*
X-29377454Y-2583156D01*
X-29418989Y-2683430D01*
X-29418990Y-2683431D01*
X-29479290Y-2773677D01*
X-29556038Y-2850425D01*
X-29575193Y-2863224D01*
X-29646285Y-2910726D01*
X-29746559Y-2952261D01*
X-29853010Y-2973435D01*
X-29961550Y-2973435D01*
X-30068001Y-2952261D01*
X-30168275Y-2910726D01*
X-30239367Y-2863224D01*
X-30258522Y-2850425D01*
X-30335270Y-2773677D01*
X-30395570Y-2683431D01*
X-30395571Y-2683430D01*
X-30437106Y-2583156D01*
X-30458280Y-2476705D01*
X-30458280Y-2368165D01*
X-30437106Y-2261714D01*
X-30395571Y-2161440D01*
X-30335271Y-2071195D01*
X-30335270Y-2071193D01*
X-30258522Y-1994445D01*
X-30168276Y-1934145D01*
X-30168275Y-1934144D01*
X-30068001Y-1892609D01*
X-29961550Y-1871435D01*
X-29853010Y-1871435D01*
X-29746559Y-1892609D01*
G37*
G36*
X-29839279Y-170174D02*
G01*
X-29739005Y-211709D01*
X-29739004Y-211710D01*
X-29648758Y-272010D01*
X-29572010Y-348758D01*
X-29541655Y-394188D01*
X-29511709Y-439005D01*
X-29470174Y-539279D01*
X-29449000Y-645730D01*
X-29449000Y-754270D01*
X-29470174Y-860721D01*
X-29511709Y-960995D01*
X-29511710Y-960996D01*
X-29572010Y-1051242D01*
X-29648758Y-1127990D01*
X-29694188Y-1158345D01*
X-29739005Y-1188291D01*
X-29839279Y-1229826D01*
X-29945730Y-1251000D01*
X-30054270Y-1251000D01*
X-30160721Y-1229826D01*
X-30260995Y-1188291D01*
X-30305812Y-1158345D01*
X-30351242Y-1127990D01*
X-30427990Y-1051242D01*
X-30488290Y-960996D01*
X-30488291Y-960995D01*
X-30529826Y-860721D01*
X-30551000Y-754270D01*
X-30551000Y-645730D01*
X-30529826Y-539279D01*
X-30488291Y-439005D01*
X-30458345Y-394188D01*
X-30427990Y-348758D01*
X-30351242Y-272010D01*
X-30260996Y-211710D01*
X-30260995Y-211709D01*
X-30160721Y-170174D01*
X-30054270Y-149000D01*
X-29945730Y-149000D01*
X-29839279Y-170174D01*
G37*
G36*
X30160721Y-170174D02*
G01*
X30260995Y-211709D01*
X30260996Y-211710D01*
X30351242Y-272010D01*
X30427990Y-348758D01*
X30458345Y-394188D01*
X30488291Y-439005D01*
X30529826Y-539279D01*
X30551000Y-645730D01*
X30551000Y-754270D01*
X30529826Y-860721D01*
X30488291Y-960995D01*
X30488290Y-960996D01*
X30427990Y-1051242D01*
X30351242Y-1127990D01*
X30305812Y-1158345D01*
X30260995Y-1188291D01*
X30160721Y-1229826D01*
X30054270Y-1251000D01*
X29945730Y-1251000D01*
X29839279Y-1229826D01*
X29739005Y-1188291D01*
X29694188Y-1158345D01*
X29648758Y-1127990D01*
X29572010Y-1051242D01*
X29511710Y-960996D01*
X29511709Y-960995D01*
X29470174Y-860721D01*
X29449000Y-754270D01*
X29449000Y-645730D01*
X29470174Y-539279D01*
X29511709Y-439005D01*
X29541655Y-394188D01*
X29572010Y-348758D01*
X29648758Y-272010D01*
X29739004Y-211710D01*
X29739005Y-211709D01*
X29839279Y-170174D01*
X29945730Y-149000D01*
X30054270Y-149000D01*
X30160721Y-170174D01*
G37*
G36*
X30160721Y1229826D02*
G01*
X30260995Y1188291D01*
X30260996Y1188290D01*
X30351242Y1127990D01*
X30427990Y1051242D01*
X30458345Y1005812D01*
X30488291Y960995D01*
X30529826Y860721D01*
X30551000Y754270D01*
X30551000Y645730D01*
X30529826Y539279D01*
X30488291Y439005D01*
X30488290Y439004D01*
X30427990Y348758D01*
X30351242Y272010D01*
X30305812Y241655D01*
X30260995Y211709D01*
X30160721Y170174D01*
X30054270Y149000D01*
X29945730Y149000D01*
X29839279Y170174D01*
X29739005Y211709D01*
X29694188Y241655D01*
X29648758Y272010D01*
X29572010Y348758D01*
X29511710Y439004D01*
X29511709Y439005D01*
X29470174Y539279D01*
X29449000Y645730D01*
X29449000Y754270D01*
X29470174Y860721D01*
X29511709Y960995D01*
X29541655Y1005812D01*
X29572010Y1051242D01*
X29648758Y1127990D01*
X29739004Y1188290D01*
X29739005Y1188291D01*
X29839279Y1229826D01*
X29945730Y1251000D01*
X30054270Y1251000D01*
X30160721Y1229826D01*
G37*
G36*
X-29839279Y1229826D02*
G01*
X-29739005Y1188291D01*
X-29739004Y1188290D01*
X-29648758Y1127990D01*
X-29572010Y1051242D01*
X-29541655Y1005812D01*
X-29511709Y960995D01*
X-29470174Y860721D01*
X-29449000Y754270D01*
X-29449000Y645730D01*
X-29470174Y539279D01*
X-29511709Y439005D01*
X-29511710Y439004D01*
X-29572010Y348758D01*
X-29648758Y272010D01*
X-29694188Y241655D01*
X-29739005Y211709D01*
X-29839279Y170174D01*
X-29945730Y149000D01*
X-30054270Y149000D01*
X-30160721Y170174D01*
X-30260995Y211709D01*
X-30305812Y241655D01*
X-30351242Y272010D01*
X-30427990Y348758D01*
X-30488290Y439004D01*
X-30488291Y439005D01*
X-30529826Y539279D01*
X-30551000Y645730D01*
X-30551000Y754270D01*
X-30529826Y860721D01*
X-30488291Y960995D01*
X-30458345Y1005812D01*
X-30427990Y1051242D01*
X-30351242Y1127990D01*
X-30260996Y1188290D01*
X-30260995Y1188291D01*
X-30160721Y1229826D01*
X-30054270Y1251000D01*
X-29945730Y1251000D01*
X-29839279Y1229826D01*
G37*
G36*
X30068001Y2962261D02*
G01*
X30168275Y2920726D01*
X30168276Y2920725D01*
X30258522Y2860425D01*
X30335270Y2783677D01*
X30335271Y2783675D01*
X30395571Y2693430D01*
X30437106Y2593156D01*
X30458280Y2486705D01*
X30458280Y2378165D01*
X30437106Y2271714D01*
X30395571Y2171440D01*
X30395570Y2171439D01*
X30335270Y2081193D01*
X30258522Y2004445D01*
X30213092Y1974090D01*
X30168275Y1944144D01*
X30068001Y1902609D01*
X29961550Y1881435D01*
X29853010Y1881435D01*
X29746559Y1902609D01*
X29646285Y1944144D01*
X29601468Y1974090D01*
X29556038Y2004445D01*
X29479290Y2081193D01*
X29418990Y2171439D01*
X29418989Y2171440D01*
X29377454Y2271714D01*
X29356280Y2378165D01*
X29356280Y2486705D01*
X29377454Y2593156D01*
X29418989Y2693430D01*
X29479289Y2783675D01*
X29479290Y2783677D01*
X29556038Y2860425D01*
X29646284Y2920725D01*
X29646285Y2920726D01*
X29746559Y2962261D01*
X29853010Y2983435D01*
X29961550Y2983435D01*
X30068001Y2962261D01*
G37*
G36*
X-29748339Y2965060D02*
G01*
X-29648065Y2923525D01*
X-29648064Y2923524D01*
X-29557818Y2863224D01*
X-29481070Y2786476D01*
X-29462205Y2758242D01*
X-29420769Y2696229D01*
X-29379234Y2595955D01*
X-29358060Y2489504D01*
X-29358060Y2380964D01*
X-29379234Y2274513D01*
X-29420769Y2174239D01*
X-29422640Y2171439D01*
X-29481070Y2083992D01*
X-29557818Y2007244D01*
X-29562007Y2004445D01*
X-29648065Y1946943D01*
X-29748339Y1905408D01*
X-29854790Y1884234D01*
X-29963330Y1884234D01*
X-30069781Y1905408D01*
X-30170055Y1946943D01*
X-30256113Y2004445D01*
X-30260302Y2007244D01*
X-30337050Y2083992D01*
X-30395480Y2171439D01*
X-30397351Y2174239D01*
X-30438886Y2274513D01*
X-30460060Y2380964D01*
X-30460060Y2489504D01*
X-30438886Y2595955D01*
X-30397351Y2696229D01*
X-30355915Y2758242D01*
X-30337050Y2786476D01*
X-30260302Y2863224D01*
X-30170056Y2923524D01*
X-30170055Y2923525D01*
X-30069781Y2965060D01*
X-29963330Y2986234D01*
X-29854790Y2986234D01*
X-29748339Y2965060D01*
G37*
G36*
X29921661Y4354592D02*
G01*
X30021935Y4313057D01*
X30021936Y4313056D01*
X30112182Y4252756D01*
X30188930Y4176008D01*
X30188931Y4176006D01*
X30249231Y4085761D01*
X30290766Y3985487D01*
X30311940Y3879036D01*
X30311940Y3770496D01*
X30290766Y3664045D01*
X30249231Y3563771D01*
X30219285Y3518954D01*
X30188930Y3473524D01*
X30112182Y3396776D01*
X30066752Y3366421D01*
X30021935Y3336475D01*
X29921661Y3294940D01*
X29815210Y3273766D01*
X29706670Y3273766D01*
X29600219Y3294940D01*
X29499945Y3336475D01*
X29455128Y3366421D01*
X29409698Y3396776D01*
X29332950Y3473524D01*
X29302595Y3518954D01*
X29272649Y3563771D01*
X29231114Y3664045D01*
X29209940Y3770496D01*
X29209940Y3879036D01*
X29231114Y3985487D01*
X29272649Y4085761D01*
X29332949Y4176006D01*
X29332950Y4176008D01*
X29409698Y4252756D01*
X29499944Y4313056D01*
X29499945Y4313057D01*
X29600219Y4354592D01*
X29706670Y4375766D01*
X29815210Y4375766D01*
X29921661Y4354592D01*
G37*
G36*
X-29601999Y4357391D02*
G01*
X-29501725Y4315856D01*
X-29501724Y4315855D01*
X-29411478Y4255555D01*
X-29334730Y4178807D01*
X-29304375Y4133377D01*
X-29274429Y4088560D01*
X-29232894Y3988286D01*
X-29211720Y3881835D01*
X-29211720Y3773295D01*
X-29232894Y3666844D01*
X-29274429Y3566570D01*
X-29276300Y3563770D01*
X-29334730Y3476323D01*
X-29411478Y3399575D01*
X-29415667Y3396776D01*
X-29501725Y3339274D01*
X-29601999Y3297739D01*
X-29708450Y3276565D01*
X-29816990Y3276565D01*
X-29923441Y3297739D01*
X-30023715Y3339274D01*
X-30109773Y3396776D01*
X-30113962Y3399575D01*
X-30190710Y3476323D01*
X-30249140Y3563770D01*
X-30251011Y3566570D01*
X-30292546Y3666844D01*
X-30313720Y3773295D01*
X-30313720Y3881835D01*
X-30292546Y3988286D01*
X-30251011Y4088560D01*
X-30221065Y4133377D01*
X-30190710Y4178807D01*
X-30113962Y4255555D01*
X-30023716Y4315855D01*
X-30023715Y4315856D01*
X-29923441Y4357391D01*
X-29816990Y4378565D01*
X-29708450Y4378565D01*
X-29601999Y4357391D01*
G37*
G36*
X4289890Y5725983D02*
G01*
X4408364Y5676909D01*
X4514988Y5605665D01*
X4605665Y5514988D01*
X4625479Y5485335D01*
X4676910Y5408362D01*
X4725983Y5289890D01*
X4751000Y5164119D01*
X4751000Y5035881D01*
X4741596Y4988605D01*
X4725983Y4910110D01*
X4676909Y4791636D01*
X4605665Y4685012D01*
X4514988Y4594335D01*
X4408364Y4523091D01*
X4408363Y4523090D01*
X4408362Y4523090D01*
X4289890Y4474017D01*
X4164119Y4449000D01*
X4035881Y4449000D01*
X3910110Y4474017D01*
X3791638Y4523090D01*
X3791637Y4523090D01*
X3791636Y4523091D01*
X3685012Y4594335D01*
X3594335Y4685012D01*
X3523091Y4791636D01*
X3474017Y4910110D01*
X3458404Y4988605D01*
X3449000Y5035881D01*
X3449000Y5164119D01*
X3474017Y5289890D01*
X3523090Y5408362D01*
X3574522Y5485335D01*
X3594335Y5514988D01*
X3685012Y5605665D01*
X3791636Y5676909D01*
X3910110Y5725983D01*
X4035881Y5751000D01*
X4164119Y5751000D01*
X4289890Y5725983D01*
G37*
G36*
X29652681Y6069431D02*
G01*
X29752955Y6027896D01*
X29752956Y6027895D01*
X29843202Y5967595D01*
X29919950Y5890847D01*
X29919951Y5890845D01*
X29980251Y5800600D01*
X30021786Y5700326D01*
X30042960Y5593875D01*
X30042960Y5485335D01*
X30021786Y5378884D01*
X29980251Y5278610D01*
X29980250Y5278609D01*
X29919950Y5188363D01*
X29843202Y5111615D01*
X29797772Y5081260D01*
X29752955Y5051314D01*
X29652681Y5009779D01*
X29546230Y4988605D01*
X29437690Y4988605D01*
X29331239Y5009779D01*
X29230965Y5051314D01*
X29186148Y5081260D01*
X29140718Y5111615D01*
X29063970Y5188363D01*
X29003670Y5278609D01*
X29003669Y5278610D01*
X28962134Y5378884D01*
X28940960Y5485335D01*
X28940960Y5593875D01*
X28962134Y5700326D01*
X29003669Y5800600D01*
X29063969Y5890845D01*
X29063970Y5890847D01*
X29140718Y5967595D01*
X29230964Y6027895D01*
X29230965Y6027896D01*
X29331239Y6069431D01*
X29437690Y6090605D01*
X29546230Y6090605D01*
X29652681Y6069431D01*
G37*
G36*
X-29328396Y6080814D02*
G01*
X-29228122Y6039279D01*
X-29211085Y6027895D01*
X-29137875Y5978978D01*
X-29061127Y5902230D01*
X-29061126Y5902228D01*
X-29000826Y5811983D01*
X-28959291Y5711709D01*
X-28938117Y5605258D01*
X-28938117Y5496718D01*
X-28959291Y5390267D01*
X-29000826Y5289993D01*
X-29000827Y5289992D01*
X-29061127Y5199746D01*
X-29137875Y5122998D01*
X-29183305Y5092643D01*
X-29228122Y5062697D01*
X-29328396Y5021162D01*
X-29434847Y4999988D01*
X-29543387Y4999988D01*
X-29649838Y5021162D01*
X-29750112Y5062697D01*
X-29794929Y5092643D01*
X-29840359Y5122998D01*
X-29917107Y5199746D01*
X-29977407Y5289992D01*
X-29977408Y5289993D01*
X-30018943Y5390267D01*
X-30040117Y5496718D01*
X-30040117Y5605258D01*
X-30018943Y5711709D01*
X-29977408Y5811983D01*
X-29917108Y5902228D01*
X-29917107Y5902230D01*
X-29840359Y5978978D01*
X-29767149Y6027895D01*
X-29750112Y6039279D01*
X-29649838Y6080814D01*
X-29543387Y6101988D01*
X-29434847Y6101988D01*
X-29328396Y6080814D01*
G37*
G36*
X29361604Y7438838D02*
G01*
X29461878Y7397303D01*
X29461879Y7397302D01*
X29552125Y7337002D01*
X29628873Y7260254D01*
X29628874Y7260252D01*
X29689174Y7170007D01*
X29730709Y7069733D01*
X29751883Y6963282D01*
X29751883Y6854742D01*
X29730709Y6748291D01*
X29689174Y6648017D01*
X29689173Y6648016D01*
X29628873Y6557770D01*
X29552125Y6481022D01*
X29506695Y6450667D01*
X29461878Y6420721D01*
X29361604Y6379186D01*
X29255153Y6358012D01*
X29146613Y6358012D01*
X29040162Y6379186D01*
X28939888Y6420721D01*
X28895071Y6450667D01*
X28849641Y6481022D01*
X28772893Y6557770D01*
X28712593Y6648016D01*
X28712592Y6648017D01*
X28671057Y6748291D01*
X28649883Y6854742D01*
X28649883Y6963282D01*
X28671057Y7069733D01*
X28712592Y7170007D01*
X28772892Y7260252D01*
X28772893Y7260254D01*
X28849641Y7337002D01*
X28939887Y7397302D01*
X28939888Y7397303D01*
X29040162Y7438838D01*
X29146613Y7460012D01*
X29255153Y7460012D01*
X29361604Y7438838D01*
G37*
G36*
X-29037319Y7450221D02*
G01*
X-28937045Y7408686D01*
X-28920008Y7397302D01*
X-28846798Y7348385D01*
X-28770050Y7271637D01*
X-28739695Y7226207D01*
X-28709749Y7181390D01*
X-28668214Y7081116D01*
X-28647040Y6974665D01*
X-28647040Y6866125D01*
X-28668214Y6759674D01*
X-28709749Y6659400D01*
X-28709750Y6659399D01*
X-28770050Y6569153D01*
X-28846798Y6492405D01*
X-28892228Y6462050D01*
X-28937045Y6432104D01*
X-29037319Y6390569D01*
X-29143770Y6369395D01*
X-29252310Y6369395D01*
X-29358761Y6390569D01*
X-29459035Y6432104D01*
X-29503852Y6462050D01*
X-29549282Y6492405D01*
X-29626030Y6569153D01*
X-29686330Y6659399D01*
X-29686331Y6659400D01*
X-29727866Y6759674D01*
X-29749040Y6866125D01*
X-29749040Y6974665D01*
X-29727866Y7081116D01*
X-29686331Y7181390D01*
X-29656385Y7226207D01*
X-29626030Y7271637D01*
X-29549282Y7348385D01*
X-29476072Y7397302D01*
X-29459035Y7408686D01*
X-29358761Y7450221D01*
X-29252310Y7471395D01*
X-29143770Y7471395D01*
X-29037319Y7450221D01*
G37*
G36*
X-2886488Y8946073D02*
G01*
X-2737188Y8916376D01*
X-2573216Y8848456D01*
X-2425646Y8749853D01*
X-2300147Y8624354D01*
X-2201544Y8476784D01*
X-2133624Y8312812D01*
X-2122595Y8257362D01*
X-2115484Y8233922D01*
X-2103933Y8212311D01*
X-2088387Y8193369D01*
X-2069445Y8177824D01*
X-2047835Y8166273D01*
X-2024386Y8159160D01*
X-2000000Y8156758D01*
X-1975613Y8159160D01*
X-1952165Y8166273D01*
X-1930554Y8177824D01*
X-1911612Y8193370D01*
X-1896067Y8212312D01*
X-1884516Y8233922D01*
X-1877405Y8257362D01*
X-1866376Y8312812D01*
X-1798456Y8476784D01*
X-1699853Y8624354D01*
X-1574354Y8749853D01*
X-1426784Y8848456D01*
X-1262812Y8916376D01*
X-1113512Y8946073D01*
X-1088742Y8951000D01*
X-911258Y8951000D01*
X-886488Y8946073D01*
X-737188Y8916376D01*
X-573216Y8848456D01*
X-425646Y8749853D01*
X-300147Y8624354D01*
X-201544Y8476784D01*
X-133624Y8312812D01*
X-122595Y8257362D01*
X-115484Y8233922D01*
X-103933Y8212311D01*
X-88387Y8193369D01*
X-69445Y8177824D01*
X-47835Y8166273D01*
X-24386Y8159160D01*
X0Y8156758D01*
X24387Y8159160D01*
X47835Y8166273D01*
X69446Y8177824D01*
X88388Y8193370D01*
X103933Y8212312D01*
X115484Y8233922D01*
X122595Y8257362D01*
X133624Y8312812D01*
X201544Y8476784D01*
X300147Y8624354D01*
X425646Y8749853D01*
X573216Y8848456D01*
X737188Y8916376D01*
X886488Y8946073D01*
X911258Y8951000D01*
X1088742Y8951000D01*
X1113512Y8946073D01*
X1262812Y8916376D01*
X1426784Y8848456D01*
X1574354Y8749853D01*
X1699853Y8624354D01*
X1798456Y8476784D01*
X1866376Y8312812D01*
X1877405Y8257362D01*
X1884516Y8233922D01*
X1896067Y8212311D01*
X1911613Y8193369D01*
X1930555Y8177824D01*
X1952165Y8166273D01*
X1975614Y8159160D01*
X2000000Y8156758D01*
X2024387Y8159160D01*
X2047835Y8166273D01*
X2069446Y8177824D01*
X2088388Y8193370D01*
X2103933Y8212312D01*
X2115484Y8233922D01*
X2122595Y8257362D01*
X2133624Y8312812D01*
X2201544Y8476784D01*
X2300147Y8624354D01*
X2425646Y8749853D01*
X2573216Y8848456D01*
X2737188Y8916376D01*
X2886488Y8946073D01*
X2911258Y8951000D01*
X3088742Y8951000D01*
X3113512Y8946073D01*
X3262812Y8916376D01*
X3426784Y8848456D01*
X3574354Y8749853D01*
X3699853Y8624354D01*
X3798456Y8476784D01*
X3866376Y8312812D01*
X3894748Y8170174D01*
X3898960Y8149000D01*
X3901000Y8138741D01*
X3901000Y7961259D01*
X3866376Y7787188D01*
X3798456Y7623216D01*
X3699853Y7475646D01*
X3574354Y7350147D01*
X3426784Y7251544D01*
X3262812Y7183624D01*
X3113512Y7153927D01*
X3088742Y7149000D01*
X2911258Y7149000D01*
X2886488Y7153927D01*
X2737188Y7183624D01*
X2573216Y7251544D01*
X2425646Y7350147D01*
X2300147Y7475646D01*
X2201544Y7623216D01*
X2133624Y7787188D01*
X2122595Y7842638D01*
X2115484Y7866078D01*
X2103933Y7887689D01*
X2088387Y7906631D01*
X2069445Y7922176D01*
X2047835Y7933727D01*
X2024386Y7940840D01*
X2000000Y7943242D01*
X1975613Y7940840D01*
X1952165Y7933727D01*
X1930554Y7922176D01*
X1911612Y7906630D01*
X1896067Y7887688D01*
X1884516Y7866078D01*
X1877405Y7842638D01*
X1866376Y7787188D01*
X1798456Y7623216D01*
X1699853Y7475646D01*
X1574354Y7350147D01*
X1426784Y7251544D01*
X1262812Y7183624D01*
X1113512Y7153927D01*
X1088742Y7149000D01*
X911258Y7149000D01*
X886488Y7153927D01*
X737188Y7183624D01*
X573216Y7251544D01*
X425646Y7350147D01*
X300147Y7475646D01*
X201544Y7623216D01*
X133624Y7787188D01*
X122595Y7842638D01*
X115484Y7866078D01*
X103933Y7887689D01*
X88387Y7906631D01*
X69445Y7922176D01*
X47835Y7933727D01*
X24386Y7940840D01*
X0Y7943242D01*
X-24387Y7940840D01*
X-47835Y7933727D01*
X-69446Y7922176D01*
X-88388Y7906630D01*
X-103933Y7887688D01*
X-115484Y7866078D01*
X-122595Y7842638D01*
X-133624Y7787188D01*
X-201544Y7623216D01*
X-300147Y7475646D01*
X-425646Y7350147D01*
X-573216Y7251544D01*
X-737188Y7183624D01*
X-886488Y7153927D01*
X-911258Y7149000D01*
X-1088742Y7149000D01*
X-1113512Y7153927D01*
X-1262812Y7183624D01*
X-1426784Y7251544D01*
X-1574354Y7350147D01*
X-1699853Y7475646D01*
X-1798456Y7623216D01*
X-1866376Y7787188D01*
X-1877405Y7842638D01*
X-1884516Y7866078D01*
X-1896067Y7887689D01*
X-1911613Y7906631D01*
X-1930555Y7922176D01*
X-1952165Y7933727D01*
X-1975614Y7940840D01*
X-2000000Y7943242D01*
X-2024387Y7940840D01*
X-2047835Y7933727D01*
X-2069446Y7922176D01*
X-2088388Y7906630D01*
X-2103933Y7887688D01*
X-2115484Y7866078D01*
X-2122595Y7842638D01*
X-2133624Y7787188D01*
X-2201544Y7623216D01*
X-2300147Y7475646D01*
X-2425646Y7350147D01*
X-2573216Y7251544D01*
X-2737188Y7183624D01*
X-2886488Y7153927D01*
X-2911258Y7149000D01*
X-3088742Y7149000D01*
X-3113512Y7153927D01*
X-3262812Y7183624D01*
X-3426784Y7251544D01*
X-3574354Y7350147D01*
X-3699853Y7475646D01*
X-3798456Y7623216D01*
X-3866376Y7787188D01*
X-3901000Y7961259D01*
X-3901000Y8138741D01*
X-3898959Y8149000D01*
X-3894748Y8170174D01*
X-3866376Y8312812D01*
X-3798456Y8476784D01*
X-3699853Y8624354D01*
X-3574354Y8749853D01*
X-3426784Y8848456D01*
X-3262812Y8916376D01*
X-3113512Y8946073D01*
X-3088742Y8951000D01*
X-2911258Y8951000D01*
X-2886488Y8946073D01*
G37*
G36*
X28912190Y9110928D02*
G01*
X29012464Y9069393D01*
X29012465Y9069392D01*
X29102711Y9009092D01*
X29179459Y8932344D01*
X29179460Y8932342D01*
X29239760Y8842097D01*
X29281295Y8741823D01*
X29302469Y8635372D01*
X29302469Y8526832D01*
X29281295Y8420381D01*
X29239760Y8320107D01*
X29234885Y8312811D01*
X29179459Y8229860D01*
X29102711Y8153112D01*
X29081203Y8138741D01*
X29012464Y8092811D01*
X28912190Y8051276D01*
X28805739Y8030102D01*
X28697199Y8030102D01*
X28590748Y8051276D01*
X28490474Y8092811D01*
X28421735Y8138741D01*
X28400227Y8153112D01*
X28323479Y8229860D01*
X28268053Y8312811D01*
X28263178Y8320107D01*
X28221643Y8420381D01*
X28200469Y8526832D01*
X28200469Y8635372D01*
X28221643Y8741823D01*
X28263178Y8842097D01*
X28323478Y8932342D01*
X28323479Y8932344D01*
X28400227Y9009092D01*
X28490473Y9069392D01*
X28490474Y9069393D01*
X28590748Y9110928D01*
X28697199Y9132102D01*
X28805739Y9132102D01*
X28912190Y9110928D01*
G37*
G36*
X-28590434Y9127245D02*
G01*
X-28490160Y9085710D01*
X-28445343Y9055764D01*
X-28399913Y9025409D01*
X-28323165Y8948661D01*
X-28312261Y8932342D01*
X-28262864Y8858414D01*
X-28221329Y8758140D01*
X-28200155Y8651689D01*
X-28200155Y8543149D01*
X-28221329Y8436698D01*
X-28262864Y8336424D01*
X-28278641Y8312812D01*
X-28323165Y8246177D01*
X-28399913Y8169429D01*
X-28445343Y8139074D01*
X-28490160Y8109128D01*
X-28590434Y8067593D01*
X-28696885Y8046419D01*
X-28805425Y8046419D01*
X-28911876Y8067593D01*
X-29012150Y8109128D01*
X-29056967Y8139074D01*
X-29102397Y8169429D01*
X-29179145Y8246177D01*
X-29223669Y8312812D01*
X-29239446Y8336424D01*
X-29280981Y8436698D01*
X-29302155Y8543149D01*
X-29302155Y8651689D01*
X-29280981Y8758140D01*
X-29239446Y8858414D01*
X-29190049Y8932342D01*
X-29179145Y8948661D01*
X-29102397Y9025409D01*
X-29056967Y9055764D01*
X-29012150Y9085710D01*
X-28911876Y9127245D01*
X-28805425Y9148419D01*
X-28696885Y9148419D01*
X-28590434Y9127245D01*
G37*
G36*
X6180721Y9229826D02*
G01*
X6280995Y9188291D01*
X6280996Y9188290D01*
X6371242Y9127990D01*
X6447990Y9051242D01*
X6478345Y9005812D01*
X6508291Y8960995D01*
X6539516Y8885611D01*
X6551067Y8864000D01*
X6566612Y8845059D01*
X6585554Y8829513D01*
X6607165Y8817962D01*
X6630614Y8810849D01*
X6655000Y8808447D01*
X6679386Y8810849D01*
X6702835Y8817962D01*
X6724446Y8829513D01*
X6743387Y8845058D01*
X6758933Y8864000D01*
X6770484Y8885611D01*
X6801709Y8960995D01*
X6831655Y9005812D01*
X6862010Y9051242D01*
X6938758Y9127990D01*
X7029004Y9188290D01*
X7029005Y9188291D01*
X7129279Y9229826D01*
X7235730Y9251000D01*
X7344270Y9251000D01*
X7450721Y9229826D01*
X7550995Y9188291D01*
X7550996Y9188290D01*
X7641242Y9127990D01*
X7717990Y9051242D01*
X7748345Y9005812D01*
X7778291Y8960995D01*
X7809516Y8885611D01*
X7821067Y8864000D01*
X7836612Y8845059D01*
X7855554Y8829513D01*
X7877165Y8817962D01*
X7900614Y8810849D01*
X7925000Y8808447D01*
X7949386Y8810849D01*
X7972835Y8817962D01*
X7994446Y8829513D01*
X8013387Y8845058D01*
X8028933Y8864000D01*
X8040484Y8885611D01*
X8071709Y8960995D01*
X8101655Y9005812D01*
X8132010Y9051242D01*
X8208758Y9127990D01*
X8299004Y9188290D01*
X8299005Y9188291D01*
X8399279Y9229826D01*
X8505730Y9251000D01*
X8614270Y9251000D01*
X8720721Y9229826D01*
X8820995Y9188291D01*
X8820996Y9188290D01*
X8911242Y9127990D01*
X8987990Y9051242D01*
X9018345Y9005812D01*
X9048291Y8960995D01*
X9079516Y8885611D01*
X9091067Y8864000D01*
X9106612Y8845059D01*
X9125554Y8829513D01*
X9147165Y8817962D01*
X9170614Y8810849D01*
X9195000Y8808447D01*
X9219386Y8810849D01*
X9242835Y8817962D01*
X9264446Y8829513D01*
X9283387Y8845058D01*
X9298933Y8864000D01*
X9310484Y8885611D01*
X9341709Y8960995D01*
X9371655Y9005812D01*
X9402010Y9051242D01*
X9478758Y9127990D01*
X9569004Y9188290D01*
X9569005Y9188291D01*
X9669279Y9229826D01*
X9775730Y9251000D01*
X9884270Y9251000D01*
X9990721Y9229826D01*
X10090995Y9188291D01*
X10090996Y9188290D01*
X10181242Y9127990D01*
X10257990Y9051242D01*
X10257991Y9051240D01*
X10320068Y8958336D01*
X10335614Y8939394D01*
X10354556Y8923849D01*
X10376167Y8912298D01*
X10399615Y8905185D01*
X10424002Y8902783D01*
X10448388Y8905185D01*
X10471837Y8912298D01*
X10493447Y8923849D01*
X10512389Y8939395D01*
X10527934Y8958337D01*
X10539485Y8979948D01*
X10546598Y9003396D01*
X10549000Y9027782D01*
X10549000Y9251000D01*
X11651000Y9251000D01*
X11651000Y8149000D01*
X10549000Y8149000D01*
X10549000Y8372218D01*
X10546598Y8396604D01*
X10539485Y8420053D01*
X10527934Y8441664D01*
X10512389Y8460606D01*
X10493447Y8476151D01*
X10471836Y8487702D01*
X10448387Y8494815D01*
X10424001Y8497217D01*
X10399615Y8494815D01*
X10376166Y8487702D01*
X10354555Y8476151D01*
X10335613Y8460606D01*
X10320068Y8441664D01*
X10278988Y8380184D01*
X10257990Y8348758D01*
X10181242Y8272010D01*
X10142583Y8246179D01*
X10090995Y8211709D01*
X9990721Y8170174D01*
X9884270Y8149000D01*
X9775730Y8149000D01*
X9669279Y8170174D01*
X9569005Y8211709D01*
X9517417Y8246179D01*
X9478758Y8272010D01*
X9402010Y8348758D01*
X9370041Y8396604D01*
X9341709Y8439005D01*
X9310484Y8514389D01*
X9298933Y8536000D01*
X9283388Y8554941D01*
X9264446Y8570487D01*
X9242835Y8582038D01*
X9219386Y8589151D01*
X9195000Y8591553D01*
X9170614Y8589151D01*
X9147165Y8582038D01*
X9125554Y8570487D01*
X9106613Y8554942D01*
X9091067Y8536000D01*
X9079516Y8514389D01*
X9048291Y8439005D01*
X9019959Y8396604D01*
X8987990Y8348758D01*
X8911242Y8272010D01*
X8872583Y8246179D01*
X8820995Y8211709D01*
X8720721Y8170174D01*
X8614270Y8149000D01*
X8505730Y8149000D01*
X8399279Y8170174D01*
X8299005Y8211709D01*
X8247417Y8246179D01*
X8208758Y8272010D01*
X8132010Y8348758D01*
X8100041Y8396604D01*
X8071709Y8439005D01*
X8040484Y8514389D01*
X8028933Y8536000D01*
X8013388Y8554941D01*
X7994446Y8570487D01*
X7972835Y8582038D01*
X7949386Y8589151D01*
X7925000Y8591553D01*
X7900614Y8589151D01*
X7877165Y8582038D01*
X7855554Y8570487D01*
X7836613Y8554942D01*
X7821067Y8536000D01*
X7809516Y8514389D01*
X7778291Y8439005D01*
X7749959Y8396604D01*
X7717990Y8348758D01*
X7641242Y8272010D01*
X7602583Y8246179D01*
X7550995Y8211709D01*
X7450721Y8170174D01*
X7344270Y8149000D01*
X7235730Y8149000D01*
X7129279Y8170174D01*
X7029005Y8211709D01*
X6977417Y8246179D01*
X6938758Y8272010D01*
X6862010Y8348758D01*
X6830041Y8396604D01*
X6801709Y8439005D01*
X6770484Y8514389D01*
X6758933Y8536000D01*
X6743388Y8554941D01*
X6724446Y8570487D01*
X6702835Y8582038D01*
X6679386Y8589151D01*
X6655000Y8591553D01*
X6630614Y8589151D01*
X6607165Y8582038D01*
X6585554Y8570487D01*
X6566613Y8554942D01*
X6551067Y8536000D01*
X6539516Y8514389D01*
X6508291Y8439005D01*
X6479959Y8396604D01*
X6447990Y8348758D01*
X6371242Y8272010D01*
X6332583Y8246179D01*
X6280995Y8211709D01*
X6180721Y8170174D01*
X6074270Y8149000D01*
X5965730Y8149000D01*
X5859279Y8170174D01*
X5759005Y8211709D01*
X5707417Y8246179D01*
X5668758Y8272010D01*
X5592010Y8348758D01*
X5560041Y8396604D01*
X5531709Y8439005D01*
X5490174Y8539279D01*
X5469000Y8645730D01*
X5469000Y8754270D01*
X5490174Y8860721D01*
X5531709Y8960995D01*
X5561655Y9005812D01*
X5592010Y9051242D01*
X5668758Y9127990D01*
X5759004Y9188290D01*
X5759005Y9188291D01*
X5859279Y9229826D01*
X5965730Y9251000D01*
X6074270Y9251000D01*
X6180721Y9229826D01*
G37*
G36*
X28479566Y10442407D02*
G01*
X28579840Y10400872D01*
X28579841Y10400871D01*
X28670087Y10340571D01*
X28746835Y10263823D01*
X28746836Y10263821D01*
X28807136Y10173576D01*
X28848671Y10073302D01*
X28869845Y9966851D01*
X28869845Y9858311D01*
X28848671Y9751860D01*
X28807136Y9651586D01*
X28807135Y9651585D01*
X28746835Y9561339D01*
X28670087Y9484591D01*
X28624657Y9454236D01*
X28579840Y9424290D01*
X28479566Y9382755D01*
X28373115Y9361581D01*
X28264575Y9361581D01*
X28158124Y9382755D01*
X28057850Y9424290D01*
X28013033Y9454236D01*
X27967603Y9484591D01*
X27890855Y9561339D01*
X27830555Y9651585D01*
X27830554Y9651586D01*
X27789019Y9751860D01*
X27767845Y9858311D01*
X27767845Y9966851D01*
X27789019Y10073302D01*
X27830554Y10173576D01*
X27890854Y10263821D01*
X27890855Y10263823D01*
X27967603Y10340571D01*
X28057849Y10400871D01*
X28057850Y10400872D01*
X28158124Y10442407D01*
X28264575Y10463581D01*
X28373115Y10463581D01*
X28479566Y10442407D01*
G37*
G36*
X-28157810Y10458724D02*
G01*
X-28057536Y10417189D01*
X-28012719Y10387243D01*
X-27967289Y10356888D01*
X-27890541Y10280140D01*
X-27879637Y10263821D01*
X-27830240Y10189893D01*
X-27788705Y10089619D01*
X-27767531Y9983168D01*
X-27767531Y9874628D01*
X-27788705Y9768177D01*
X-27830240Y9667903D01*
X-27860186Y9623086D01*
X-27890541Y9577656D01*
X-27967289Y9500908D01*
X-27991711Y9484590D01*
X-28057536Y9440607D01*
X-28157810Y9399072D01*
X-28264261Y9377898D01*
X-28372801Y9377898D01*
X-28479252Y9399072D01*
X-28579526Y9440607D01*
X-28645351Y9484590D01*
X-28669773Y9500908D01*
X-28746521Y9577656D01*
X-28776876Y9623086D01*
X-28806822Y9667903D01*
X-28848357Y9768177D01*
X-28869531Y9874628D01*
X-28869531Y9983168D01*
X-28848357Y10089619D01*
X-28806822Y10189893D01*
X-28757425Y10263821D01*
X-28746521Y10280140D01*
X-28669773Y10356888D01*
X-28624343Y10387243D01*
X-28579526Y10417189D01*
X-28479252Y10458724D01*
X-28372801Y10479898D01*
X-28264261Y10479898D01*
X-28157810Y10458724D01*
G37*
G36*
X27854013Y12076078D02*
G01*
X27954287Y12034543D01*
X27954288Y12034542D01*
X28044534Y11974242D01*
X28121282Y11897494D01*
X28121283Y11897492D01*
X28181583Y11807247D01*
X28223118Y11706973D01*
X28244292Y11600522D01*
X28244292Y11491982D01*
X28223118Y11385531D01*
X28181583Y11285257D01*
X28181582Y11285256D01*
X28121282Y11195010D01*
X28044534Y11118262D01*
X27999104Y11087907D01*
X27954287Y11057961D01*
X27854013Y11016426D01*
X27747562Y10995252D01*
X27639022Y10995252D01*
X27532571Y11016426D01*
X27432297Y11057961D01*
X27387480Y11087907D01*
X27342050Y11118262D01*
X27265302Y11195010D01*
X27205002Y11285256D01*
X27205001Y11285257D01*
X27163466Y11385531D01*
X27142292Y11491982D01*
X27142292Y11600522D01*
X27163466Y11706973D01*
X27205001Y11807247D01*
X27265301Y11897492D01*
X27265302Y11897494D01*
X27342050Y11974242D01*
X27432296Y12034542D01*
X27432297Y12034543D01*
X27532571Y12076078D01*
X27639022Y12097252D01*
X27747562Y12097252D01*
X27854013Y12076078D01*
G37*
G36*
X-27535418Y12084611D02*
G01*
X-27435144Y12043076D01*
X-27435143Y12043075D01*
X-27344897Y11982775D01*
X-27268149Y11906027D01*
X-27262446Y11897492D01*
X-27207848Y11815780D01*
X-27166313Y11715506D01*
X-27145139Y11609055D01*
X-27145139Y11500515D01*
X-27166313Y11394064D01*
X-27207848Y11293790D01*
X-27237794Y11248973D01*
X-27268149Y11203543D01*
X-27344897Y11126795D01*
X-27357668Y11118262D01*
X-27435144Y11066494D01*
X-27535418Y11024959D01*
X-27641869Y11003785D01*
X-27750409Y11003785D01*
X-27856860Y11024959D01*
X-27957134Y11066494D01*
X-28034610Y11118262D01*
X-28047381Y11126795D01*
X-28124129Y11203543D01*
X-28154484Y11248973D01*
X-28184430Y11293790D01*
X-28225965Y11394064D01*
X-28247139Y11500515D01*
X-28247139Y11609055D01*
X-28225965Y11715506D01*
X-28184430Y11815780D01*
X-28129832Y11897492D01*
X-28124129Y11906027D01*
X-28047381Y11982775D01*
X-27957135Y12043075D01*
X-27957134Y12043076D01*
X-27856860Y12084611D01*
X-27750409Y12105785D01*
X-27641869Y12105785D01*
X-27535418Y12084611D01*
G37*
G36*
X27284582Y13355041D02*
G01*
X27384856Y13313506D01*
X27384857Y13313505D01*
X27475103Y13253205D01*
X27551851Y13176457D01*
X27551852Y13176455D01*
X27612152Y13086210D01*
X27653687Y12985936D01*
X27674861Y12879485D01*
X27674861Y12770945D01*
X27653687Y12664494D01*
X27612152Y12564220D01*
X27612151Y12564219D01*
X27551851Y12473973D01*
X27475103Y12397225D01*
X27429673Y12366870D01*
X27384856Y12336924D01*
X27284582Y12295389D01*
X27178131Y12274215D01*
X27069591Y12274215D01*
X26963140Y12295389D01*
X26862866Y12336924D01*
X26818049Y12366870D01*
X26772619Y12397225D01*
X26695871Y12473973D01*
X26635571Y12564219D01*
X26635570Y12564220D01*
X26594035Y12664494D01*
X26572861Y12770945D01*
X26572861Y12879485D01*
X26594035Y12985936D01*
X26635570Y13086210D01*
X26695870Y13176455D01*
X26695871Y13176457D01*
X26772619Y13253205D01*
X26862865Y13313505D01*
X26862866Y13313506D01*
X26963140Y13355041D01*
X27069591Y13376215D01*
X27178131Y13376215D01*
X27284582Y13355041D01*
G37*
G36*
X-26965987Y13363574D02*
G01*
X-26865713Y13322039D01*
X-26865712Y13322038D01*
X-26775466Y13261738D01*
X-26698718Y13184990D01*
X-26693015Y13176455D01*
X-26638417Y13094743D01*
X-26596882Y12994469D01*
X-26575708Y12888018D01*
X-26575708Y12779478D01*
X-26596882Y12673027D01*
X-26638417Y12572753D01*
X-26668363Y12527936D01*
X-26698718Y12482506D01*
X-26775466Y12405758D01*
X-26788237Y12397225D01*
X-26865713Y12345457D01*
X-26965987Y12303922D01*
X-27072438Y12282748D01*
X-27180978Y12282748D01*
X-27287429Y12303922D01*
X-27387703Y12345457D01*
X-27465179Y12397225D01*
X-27477950Y12405758D01*
X-27554698Y12482506D01*
X-27585053Y12527936D01*
X-27614999Y12572753D01*
X-27656534Y12673027D01*
X-27677708Y12779478D01*
X-27677708Y12888018D01*
X-27656534Y12994469D01*
X-27614999Y13094743D01*
X-27560401Y13176455D01*
X-27554698Y13184990D01*
X-27477950Y13261738D01*
X-27387704Y13322038D01*
X-27387703Y13322039D01*
X-27287429Y13363574D01*
X-27180978Y13384748D01*
X-27072438Y13384748D01*
X-26965987Y13363574D01*
G37*
G36*
X26495721Y14903948D02*
G01*
X26595995Y14862413D01*
X26595996Y14862412D01*
X26686242Y14802112D01*
X26762990Y14725364D01*
X26762991Y14725362D01*
X26823291Y14635117D01*
X26864826Y14534843D01*
X26886000Y14428392D01*
X26886000Y14319852D01*
X26864826Y14213401D01*
X26823291Y14113127D01*
X26823290Y14113126D01*
X26762990Y14022880D01*
X26686242Y13946132D01*
X26640812Y13915777D01*
X26595995Y13885831D01*
X26495721Y13844296D01*
X26389270Y13823122D01*
X26280730Y13823122D01*
X26174279Y13844296D01*
X26074005Y13885831D01*
X26029188Y13915777D01*
X25983758Y13946132D01*
X25907010Y14022880D01*
X25846710Y14113126D01*
X25846709Y14113127D01*
X25805174Y14213401D01*
X25784000Y14319852D01*
X25784000Y14428392D01*
X25805174Y14534843D01*
X25846709Y14635117D01*
X25907009Y14725362D01*
X25907010Y14725364D01*
X25983758Y14802112D01*
X26074004Y14862412D01*
X26074005Y14862413D01*
X26174279Y14903948D01*
X26280730Y14925122D01*
X26389270Y14925122D01*
X26495721Y14903948D01*
G37*
G36*
X-26174279Y14913268D02*
G01*
X-26074005Y14871733D01*
X-26029188Y14841787D01*
X-25983758Y14811432D01*
X-25907010Y14734684D01*
X-25876655Y14689254D01*
X-25846709Y14644437D01*
X-25805174Y14544163D01*
X-25784000Y14437712D01*
X-25784000Y14329172D01*
X-25805174Y14222721D01*
X-25846709Y14122447D01*
X-25852937Y14113126D01*
X-25907010Y14032200D01*
X-25983758Y13955452D01*
X-25997708Y13946131D01*
X-26074005Y13895151D01*
X-26174279Y13853616D01*
X-26280730Y13832442D01*
X-26389270Y13832442D01*
X-26495721Y13853616D01*
X-26595995Y13895151D01*
X-26672292Y13946131D01*
X-26686242Y13955452D01*
X-26762990Y14032200D01*
X-26817063Y14113126D01*
X-26823291Y14122447D01*
X-26864826Y14222721D01*
X-26886000Y14329172D01*
X-26886000Y14437712D01*
X-26864826Y14544163D01*
X-26823291Y14644437D01*
X-26793345Y14689254D01*
X-26762990Y14734684D01*
X-26686242Y14811432D01*
X-26640812Y14841787D01*
X-26595995Y14871733D01*
X-26495721Y14913268D01*
X-26389270Y14934442D01*
X-26280730Y14934442D01*
X-26174279Y14913268D01*
G37*
G36*
X25795721Y16116384D02*
G01*
X25895995Y16074849D01*
X25895996Y16074848D01*
X25986242Y16014548D01*
X26062990Y15937800D01*
X26062991Y15937798D01*
X26123291Y15847553D01*
X26164826Y15747279D01*
X26186000Y15640828D01*
X26186000Y15532288D01*
X26164826Y15425837D01*
X26123291Y15325563D01*
X26123290Y15325562D01*
X26062990Y15235316D01*
X25986242Y15158568D01*
X25940812Y15128213D01*
X25895995Y15098267D01*
X25795721Y15056732D01*
X25689270Y15035558D01*
X25580730Y15035558D01*
X25474279Y15056732D01*
X25374005Y15098267D01*
X25329188Y15128213D01*
X25283758Y15158568D01*
X25207010Y15235316D01*
X25146710Y15325562D01*
X25146709Y15325563D01*
X25105174Y15425837D01*
X25084000Y15532288D01*
X25084000Y15640828D01*
X25105174Y15747279D01*
X25146709Y15847553D01*
X25207009Y15937798D01*
X25207010Y15937800D01*
X25283758Y16014548D01*
X25374004Y16074848D01*
X25374005Y16074849D01*
X25474279Y16116384D01*
X25580730Y16137558D01*
X25689270Y16137558D01*
X25795721Y16116384D01*
G37*
G36*
X-25474279Y16125704D02*
G01*
X-25374005Y16084169D01*
X-25329188Y16054223D01*
X-25283758Y16023868D01*
X-25207010Y15947120D01*
X-25176655Y15901690D01*
X-25146709Y15856873D01*
X-25105174Y15756599D01*
X-25084000Y15650148D01*
X-25084000Y15541608D01*
X-25105174Y15435157D01*
X-25146709Y15334883D01*
X-25152937Y15325562D01*
X-25207010Y15244636D01*
X-25283758Y15167888D01*
X-25297708Y15158567D01*
X-25374005Y15107587D01*
X-25474279Y15066052D01*
X-25580730Y15044878D01*
X-25689270Y15044878D01*
X-25795721Y15066052D01*
X-25895995Y15107587D01*
X-25972292Y15158567D01*
X-25986242Y15167888D01*
X-26062990Y15244636D01*
X-26117063Y15325562D01*
X-26123291Y15334883D01*
X-26164826Y15435157D01*
X-26186000Y15541608D01*
X-26186000Y15650148D01*
X-26164826Y15756599D01*
X-26123291Y15856873D01*
X-26093345Y15901690D01*
X-26062990Y15947120D01*
X-25986242Y16023868D01*
X-25940812Y16054223D01*
X-25895995Y16084169D01*
X-25795721Y16125704D01*
X-25689270Y16146878D01*
X-25580730Y16146878D01*
X-25474279Y16125704D01*
G37*
G36*
X-24527906Y17583671D02*
G01*
X-24427632Y17542136D01*
X-24427631Y17542135D01*
X-24337385Y17481835D01*
X-24260637Y17405087D01*
X-24260636Y17405085D01*
X-24200336Y17314840D01*
X-24158801Y17214566D01*
X-24137627Y17108115D01*
X-24137627Y16999575D01*
X-24158801Y16893124D01*
X-24200336Y16792850D01*
X-24200337Y16792849D01*
X-24260637Y16702603D01*
X-24337385Y16625855D01*
X-24382815Y16595500D01*
X-24427632Y16565554D01*
X-24527906Y16524019D01*
X-24634357Y16502845D01*
X-24742897Y16502845D01*
X-24849348Y16524019D01*
X-24949622Y16565554D01*
X-24994439Y16595500D01*
X-25039869Y16625855D01*
X-25116617Y16702603D01*
X-25176917Y16792849D01*
X-25176918Y16792850D01*
X-25218453Y16893124D01*
X-25239627Y16999575D01*
X-25239627Y17108115D01*
X-25218453Y17214566D01*
X-25176918Y17314840D01*
X-25116618Y17405085D01*
X-25116617Y17405087D01*
X-25039869Y17481835D01*
X-24949623Y17542135D01*
X-24949622Y17542136D01*
X-24849348Y17583671D01*
X-24742897Y17604845D01*
X-24634357Y17604845D01*
X-24527906Y17583671D01*
G37*
G36*
X24834994Y17593357D02*
G01*
X24935268Y17551822D01*
X24980085Y17521876D01*
X25025515Y17491521D01*
X25102263Y17414773D01*
X25102264Y17414771D01*
X25162564Y17324526D01*
X25204099Y17224252D01*
X25225273Y17117801D01*
X25225273Y17009261D01*
X25204099Y16902810D01*
X25162564Y16802536D01*
X25162563Y16802535D01*
X25102263Y16712289D01*
X25025515Y16635541D01*
X25011017Y16625854D01*
X24935268Y16575240D01*
X24834994Y16533705D01*
X24728543Y16512531D01*
X24620003Y16512531D01*
X24513552Y16533705D01*
X24413278Y16575240D01*
X24337529Y16625854D01*
X24323031Y16635541D01*
X24246283Y16712289D01*
X24185983Y16802535D01*
X24185982Y16802536D01*
X24144447Y16902810D01*
X24123273Y17009261D01*
X24123273Y17117801D01*
X24144447Y17224252D01*
X24185982Y17324526D01*
X24246282Y17414771D01*
X24246283Y17414773D01*
X24323031Y17491521D01*
X24368461Y17521876D01*
X24413278Y17551822D01*
X24513552Y17593357D01*
X24620003Y17614531D01*
X24728543Y17614531D01*
X24834994Y17593357D01*
G37*
G36*
X-23705006Y18716295D02*
G01*
X-23604732Y18674760D01*
X-23604731Y18674759D01*
X-23514485Y18614459D01*
X-23437737Y18537711D01*
X-23437736Y18537709D01*
X-23377436Y18447464D01*
X-23335901Y18347190D01*
X-23314727Y18240739D01*
X-23314727Y18132199D01*
X-23335901Y18025748D01*
X-23377436Y17925474D01*
X-23377437Y17925473D01*
X-23437737Y17835227D01*
X-23514485Y17758479D01*
X-23559915Y17728124D01*
X-23604732Y17698178D01*
X-23705006Y17656643D01*
X-23811457Y17635469D01*
X-23919997Y17635469D01*
X-24026448Y17656643D01*
X-24126722Y17698178D01*
X-24171539Y17728124D01*
X-24216969Y17758479D01*
X-24293717Y17835227D01*
X-24354017Y17925473D01*
X-24354018Y17925474D01*
X-24395553Y18025748D01*
X-24416727Y18132199D01*
X-24416727Y18240739D01*
X-24395553Y18347190D01*
X-24354018Y18447464D01*
X-24293718Y18537709D01*
X-24293717Y18537711D01*
X-24216969Y18614459D01*
X-24126723Y18674759D01*
X-24126722Y18674760D01*
X-24026448Y18716295D01*
X-23919997Y18737469D01*
X-23811457Y18737469D01*
X-23705006Y18716295D01*
G37*
G36*
X24012094Y18725981D02*
G01*
X24112368Y18684446D01*
X24157185Y18654500D01*
X24202615Y18624145D01*
X24279363Y18547397D01*
X24279364Y18547395D01*
X24339664Y18457150D01*
X24381199Y18356876D01*
X24402373Y18250425D01*
X24402373Y18141885D01*
X24381199Y18035434D01*
X24339664Y17935160D01*
X24339663Y17935159D01*
X24279363Y17844913D01*
X24202615Y17768165D01*
X24188117Y17758478D01*
X24112368Y17707864D01*
X24012094Y17666329D01*
X23905643Y17645155D01*
X23797103Y17645155D01*
X23690652Y17666329D01*
X23590378Y17707864D01*
X23514629Y17758478D01*
X23500131Y17768165D01*
X23423383Y17844913D01*
X23363083Y17935159D01*
X23363082Y17935160D01*
X23321547Y18035434D01*
X23300373Y18141885D01*
X23300373Y18250425D01*
X23321547Y18356876D01*
X23363082Y18457150D01*
X23423382Y18547395D01*
X23423383Y18547397D01*
X23500131Y18624145D01*
X23545561Y18654500D01*
X23590378Y18684446D01*
X23690652Y18725981D01*
X23797103Y18747155D01*
X23905643Y18747155D01*
X24012094Y18725981D01*
G37*
G36*
X601000Y18649000D02*
G01*
X-601000Y18649000D01*
X-601000Y19851000D01*
X601000Y19851000D01*
X601000Y18649000D01*
G37*
G36*
X-22617135Y20066362D02*
G01*
X-22516861Y20024827D01*
X-22516860Y20024826D01*
X-22426614Y19964526D01*
X-22349866Y19887778D01*
X-22349865Y19887776D01*
X-22289565Y19797531D01*
X-22248030Y19697257D01*
X-22226856Y19590806D01*
X-22226856Y19482266D01*
X-22248030Y19375815D01*
X-22289565Y19275541D01*
X-22289566Y19275540D01*
X-22349866Y19185294D01*
X-22426614Y19108546D01*
X-22472044Y19078191D01*
X-22516861Y19048245D01*
X-22617135Y19006710D01*
X-22723586Y18985536D01*
X-22832126Y18985536D01*
X-22938577Y19006710D01*
X-23038851Y19048245D01*
X-23083668Y19078191D01*
X-23129098Y19108546D01*
X-23205846Y19185294D01*
X-23266146Y19275540D01*
X-23266147Y19275541D01*
X-23307682Y19375815D01*
X-23328856Y19482266D01*
X-23328856Y19590806D01*
X-23307682Y19697257D01*
X-23266147Y19797531D01*
X-23205847Y19887776D01*
X-23205846Y19887778D01*
X-23129098Y19964526D01*
X-23038852Y20024826D01*
X-23038851Y20024827D01*
X-22938577Y20066362D01*
X-22832126Y20087536D01*
X-22723586Y20087536D01*
X-22617135Y20066362D01*
G37*
G36*
X22919647Y20072887D02*
G01*
X23019921Y20031352D01*
X23064738Y20001406D01*
X23110168Y19971051D01*
X23186916Y19894303D01*
X23186917Y19894301D01*
X23247217Y19804056D01*
X23288752Y19703782D01*
X23309926Y19597331D01*
X23309926Y19488791D01*
X23288752Y19382340D01*
X23247217Y19282066D01*
X23247216Y19282065D01*
X23186916Y19191819D01*
X23110168Y19115071D01*
X23100401Y19108545D01*
X23019921Y19054770D01*
X22919647Y19013235D01*
X22813196Y18992061D01*
X22704656Y18992061D01*
X22598205Y19013235D01*
X22497931Y19054770D01*
X22417451Y19108545D01*
X22407684Y19115071D01*
X22330936Y19191819D01*
X22270636Y19282065D01*
X22270635Y19282066D01*
X22229100Y19382340D01*
X22207926Y19488791D01*
X22207926Y19597331D01*
X22229100Y19703782D01*
X22270635Y19804056D01*
X22330935Y19894301D01*
X22330936Y19894303D01*
X22407684Y19971051D01*
X22453114Y20001406D01*
X22497931Y20031352D01*
X22598205Y20072887D01*
X22704656Y20094061D01*
X22813196Y20094061D01*
X22919647Y20072887D01*
G37*
G36*
X-21680353Y21106765D02*
G01*
X-21580079Y21065230D01*
X-21580078Y21065229D01*
X-21489832Y21004929D01*
X-21413084Y20928181D01*
X-21413083Y20928179D01*
X-21352783Y20837934D01*
X-21311248Y20737660D01*
X-21290074Y20631209D01*
X-21290074Y20522669D01*
X-21311248Y20416218D01*
X-21352783Y20315944D01*
X-21352784Y20315943D01*
X-21413084Y20225697D01*
X-21489832Y20148949D01*
X-21535262Y20118594D01*
X-21580079Y20088648D01*
X-21680353Y20047113D01*
X-21786804Y20025939D01*
X-21895344Y20025939D01*
X-22001795Y20047113D01*
X-22102069Y20088648D01*
X-22146886Y20118594D01*
X-22192316Y20148949D01*
X-22269064Y20225697D01*
X-22329364Y20315943D01*
X-22329365Y20315944D01*
X-22370900Y20416218D01*
X-22392074Y20522669D01*
X-22392074Y20631209D01*
X-22370900Y20737660D01*
X-22329365Y20837934D01*
X-22269065Y20928179D01*
X-22269064Y20928181D01*
X-22192316Y21004929D01*
X-22102070Y21065229D01*
X-22102069Y21065230D01*
X-22001795Y21106765D01*
X-21895344Y21127939D01*
X-21786804Y21127939D01*
X-21680353Y21106765D01*
G37*
G36*
X21982865Y21113290D02*
G01*
X22083139Y21071755D01*
X22127956Y21041809D01*
X22173386Y21011454D01*
X22250134Y20934706D01*
X22250135Y20934704D01*
X22310435Y20844459D01*
X22351970Y20744185D01*
X22373144Y20637734D01*
X22373144Y20529194D01*
X22351970Y20422743D01*
X22310435Y20322469D01*
X22310434Y20322468D01*
X22250134Y20232222D01*
X22173386Y20155474D01*
X22163619Y20148948D01*
X22083139Y20095173D01*
X21982865Y20053638D01*
X21876414Y20032464D01*
X21767874Y20032464D01*
X21661423Y20053638D01*
X21561149Y20095173D01*
X21480669Y20148948D01*
X21470902Y20155474D01*
X21394154Y20232222D01*
X21333854Y20322468D01*
X21333853Y20322469D01*
X21292318Y20422743D01*
X21271144Y20529194D01*
X21271144Y20637734D01*
X21292318Y20744185D01*
X21333853Y20844459D01*
X21394153Y20934704D01*
X21394154Y20934706D01*
X21470902Y21011454D01*
X21516332Y21041809D01*
X21561149Y21071755D01*
X21661423Y21113290D01*
X21767874Y21134464D01*
X21876414Y21134464D01*
X21982865Y21113290D01*
G37*
G36*
X601000Y20149000D02*
G01*
X-601000Y20149000D01*
X-601000Y21351000D01*
X601000Y21351000D01*
X601000Y20149000D01*
G37*
G36*
X-20442743Y22341970D02*
G01*
X-20342469Y22300435D01*
X-20342468Y22300434D01*
X-20252222Y22240134D01*
X-20175474Y22163386D01*
X-20175473Y22163384D01*
X-20115173Y22073139D01*
X-20073638Y21972865D01*
X-20052464Y21866414D01*
X-20052464Y21757874D01*
X-20073638Y21651423D01*
X-20115173Y21551149D01*
X-20115174Y21551148D01*
X-20175474Y21460902D01*
X-20252222Y21384154D01*
X-20297652Y21353799D01*
X-20342469Y21323853D01*
X-20442743Y21282318D01*
X-20549194Y21261144D01*
X-20657734Y21261144D01*
X-20764185Y21282318D01*
X-20864459Y21323853D01*
X-20909276Y21353799D01*
X-20954706Y21384154D01*
X-21031454Y21460902D01*
X-21091754Y21551148D01*
X-21091755Y21551149D01*
X-21133290Y21651423D01*
X-21154464Y21757874D01*
X-21154464Y21866414D01*
X-21133290Y21972865D01*
X-21091755Y22073139D01*
X-21031455Y22163384D01*
X-21031454Y22163386D01*
X-20954706Y22240134D01*
X-20864460Y22300434D01*
X-20864459Y22300435D01*
X-20764185Y22341970D01*
X-20657734Y22363144D01*
X-20549194Y22363144D01*
X-20442743Y22341970D01*
G37*
G36*
X20747660Y22353000D02*
G01*
X20847934Y22311465D01*
X20864443Y22300434D01*
X20938181Y22251164D01*
X21014929Y22174416D01*
X21014930Y22174414D01*
X21075230Y22084169D01*
X21116765Y21983895D01*
X21137939Y21877444D01*
X21137939Y21768904D01*
X21116765Y21662453D01*
X21075230Y21562179D01*
X21075229Y21562178D01*
X21014929Y21471932D01*
X20938181Y21395184D01*
X20892751Y21364829D01*
X20847934Y21334883D01*
X20747660Y21293348D01*
X20641209Y21272174D01*
X20532669Y21272174D01*
X20426218Y21293348D01*
X20325944Y21334883D01*
X20281127Y21364829D01*
X20235697Y21395184D01*
X20158949Y21471932D01*
X20098649Y21562178D01*
X20098648Y21562179D01*
X20057113Y21662453D01*
X20035939Y21768904D01*
X20035939Y21877444D01*
X20057113Y21983895D01*
X20098648Y22084169D01*
X20158948Y22174414D01*
X20158949Y22174416D01*
X20235697Y22251164D01*
X20309435Y22300434D01*
X20325944Y22311465D01*
X20426218Y22353000D01*
X20532669Y22374174D01*
X20641209Y22374174D01*
X20747660Y22353000D01*
G37*
G36*
X-19402340Y23278752D02*
G01*
X-19302066Y23237217D01*
X-19302065Y23237216D01*
X-19211819Y23176916D01*
X-19135071Y23100168D01*
X-19135070Y23100166D01*
X-19074770Y23009921D01*
X-19033235Y22909647D01*
X-19012061Y22803196D01*
X-19012061Y22694656D01*
X-19033235Y22588205D01*
X-19074770Y22487931D01*
X-19074771Y22487930D01*
X-19135071Y22397684D01*
X-19211819Y22320936D01*
X-19225995Y22311464D01*
X-19302066Y22260635D01*
X-19402340Y22219100D01*
X-19508791Y22197926D01*
X-19617331Y22197926D01*
X-19723782Y22219100D01*
X-19824056Y22260635D01*
X-19900127Y22311464D01*
X-19914303Y22320936D01*
X-19991051Y22397684D01*
X-20051351Y22487930D01*
X-20051352Y22487931D01*
X-20092887Y22588205D01*
X-20114061Y22694656D01*
X-20114061Y22803196D01*
X-20092887Y22909647D01*
X-20051352Y23009921D01*
X-19991052Y23100166D01*
X-19991051Y23100168D01*
X-19914303Y23176916D01*
X-19824057Y23237216D01*
X-19824056Y23237217D01*
X-19723782Y23278752D01*
X-19617331Y23299926D01*
X-19508791Y23299926D01*
X-19402340Y23278752D01*
G37*
G36*
X19707257Y23289782D02*
G01*
X19807531Y23248247D01*
X19824040Y23237216D01*
X19897778Y23187946D01*
X19974526Y23111198D01*
X19974527Y23111196D01*
X20034827Y23020951D01*
X20076362Y22920677D01*
X20097536Y22814226D01*
X20097536Y22705686D01*
X20076362Y22599235D01*
X20034827Y22498961D01*
X20034826Y22498960D01*
X19974526Y22408714D01*
X19897778Y22331966D01*
X19867096Y22311465D01*
X19807531Y22271665D01*
X19707257Y22230130D01*
X19600806Y22208956D01*
X19492266Y22208956D01*
X19385815Y22230130D01*
X19285541Y22271665D01*
X19225976Y22311465D01*
X19195294Y22331966D01*
X19118546Y22408714D01*
X19058246Y22498960D01*
X19058245Y22498961D01*
X19016710Y22599235D01*
X18995536Y22705686D01*
X18995536Y22814226D01*
X19016710Y22920677D01*
X19058245Y23020951D01*
X19118545Y23111196D01*
X19118546Y23111198D01*
X19195294Y23187946D01*
X19269032Y23237216D01*
X19285541Y23248247D01*
X19385815Y23289782D01*
X19492266Y23310956D01*
X19600806Y23310956D01*
X19707257Y23289782D01*
G37*
G36*
X-18055434Y24371199D02*
G01*
X-17955160Y24329664D01*
X-17930270Y24313033D01*
X-17864913Y24269363D01*
X-17788165Y24192615D01*
X-17777052Y24175983D01*
X-17727864Y24102368D01*
X-17686329Y24002094D01*
X-17665155Y23895643D01*
X-17665155Y23787103D01*
X-17686329Y23680652D01*
X-17727864Y23580378D01*
X-17727865Y23580377D01*
X-17788165Y23490131D01*
X-17864913Y23413383D01*
X-17910343Y23383028D01*
X-17955160Y23353082D01*
X-18055434Y23311547D01*
X-18161885Y23290373D01*
X-18270425Y23290373D01*
X-18376876Y23311547D01*
X-18477150Y23353082D01*
X-18521967Y23383028D01*
X-18567397Y23413383D01*
X-18644145Y23490131D01*
X-18704445Y23580377D01*
X-18704446Y23580378D01*
X-18745981Y23680652D01*
X-18767155Y23787103D01*
X-18767155Y23895643D01*
X-18745981Y24002094D01*
X-18704446Y24102368D01*
X-18655258Y24175983D01*
X-18644145Y24192615D01*
X-18567397Y24269363D01*
X-18502040Y24313033D01*
X-18477150Y24329664D01*
X-18376876Y24371199D01*
X-18270425Y24392373D01*
X-18161885Y24392373D01*
X-18055434Y24371199D01*
G37*
G36*
X18357190Y24385553D02*
G01*
X18457464Y24344018D01*
X18482354Y24327387D01*
X18547711Y24283717D01*
X18624459Y24206969D01*
X18624460Y24206967D01*
X18684760Y24116722D01*
X18726295Y24016448D01*
X18747469Y23909997D01*
X18747469Y23801457D01*
X18726295Y23695006D01*
X18684760Y23594732D01*
X18684759Y23594731D01*
X18624459Y23504485D01*
X18547711Y23427737D01*
X18526227Y23413382D01*
X18457464Y23367436D01*
X18357190Y23325901D01*
X18250739Y23304727D01*
X18142199Y23304727D01*
X18035748Y23325901D01*
X17935474Y23367436D01*
X17866711Y23413382D01*
X17845227Y23427737D01*
X17768479Y23504485D01*
X17708179Y23594731D01*
X17708178Y23594732D01*
X17666643Y23695006D01*
X17645469Y23801457D01*
X17645469Y23909997D01*
X17666643Y24016448D01*
X17708178Y24116722D01*
X17768478Y24206967D01*
X17768479Y24206969D01*
X17845227Y24283717D01*
X17910584Y24327387D01*
X17935474Y24344018D01*
X18035748Y24385553D01*
X18142199Y24406727D01*
X18250739Y24406727D01*
X18357190Y24385553D01*
G37*
G36*
X-16922810Y25194099D02*
G01*
X-16822536Y25152564D01*
X-16783843Y25126710D01*
X-16732289Y25092263D01*
X-16655541Y25015515D01*
X-16655540Y25015513D01*
X-16595240Y24925268D01*
X-16553705Y24824994D01*
X-16532531Y24718543D01*
X-16532531Y24610003D01*
X-16553705Y24503552D01*
X-16595240Y24403278D01*
X-16595241Y24403277D01*
X-16655541Y24313031D01*
X-16732289Y24236283D01*
X-16776161Y24206969D01*
X-16822536Y24175982D01*
X-16922810Y24134447D01*
X-17029261Y24113273D01*
X-17137801Y24113273D01*
X-17244252Y24134447D01*
X-17344526Y24175982D01*
X-17390901Y24206969D01*
X-17434773Y24236283D01*
X-17511521Y24313031D01*
X-17571821Y24403277D01*
X-17571822Y24403278D01*
X-17613357Y24503552D01*
X-17634531Y24610003D01*
X-17634531Y24718543D01*
X-17613357Y24824994D01*
X-17571822Y24925268D01*
X-17511522Y25015513D01*
X-17511521Y25015515D01*
X-17434773Y25092263D01*
X-17383219Y25126710D01*
X-17344526Y25152564D01*
X-17244252Y25194099D01*
X-17137801Y25215273D01*
X-17029261Y25215273D01*
X-16922810Y25194099D01*
G37*
G36*
X17224566Y25208453D02*
G01*
X17324840Y25166918D01*
X17369657Y25136972D01*
X17415087Y25106617D01*
X17491835Y25029869D01*
X17491836Y25029867D01*
X17552136Y24939622D01*
X17593671Y24839348D01*
X17614845Y24732897D01*
X17614845Y24624357D01*
X17593671Y24517906D01*
X17552136Y24417632D01*
X17552135Y24417631D01*
X17491835Y24327385D01*
X17415087Y24250637D01*
X17393603Y24236282D01*
X17324840Y24190336D01*
X17224566Y24148801D01*
X17118115Y24127627D01*
X17009575Y24127627D01*
X16903124Y24148801D01*
X16802850Y24190336D01*
X16734087Y24236282D01*
X16712603Y24250637D01*
X16635855Y24327385D01*
X16575555Y24417631D01*
X16575554Y24417632D01*
X16534019Y24517906D01*
X16512845Y24624357D01*
X16512845Y24732897D01*
X16534019Y24839348D01*
X16575554Y24939622D01*
X16635854Y25029867D01*
X16635855Y25029869D01*
X16712603Y25106617D01*
X16758033Y25136972D01*
X16802850Y25166918D01*
X16903124Y25208453D01*
X17009575Y25229627D01*
X17118115Y25229627D01*
X17224566Y25208453D01*
G37*
G36*
X-15455837Y26144826D02*
G01*
X-15355563Y26103291D01*
X-15355562Y26103290D01*
X-15265316Y26042990D01*
X-15188568Y25966242D01*
X-15158213Y25920812D01*
X-15128267Y25875995D01*
X-15086732Y25775721D01*
X-15065558Y25669270D01*
X-15065558Y25560730D01*
X-15086732Y25454279D01*
X-15128267Y25354005D01*
X-15128268Y25354004D01*
X-15188568Y25263758D01*
X-15265316Y25187010D01*
X-15295386Y25166918D01*
X-15355563Y25126709D01*
X-15455837Y25085174D01*
X-15562288Y25064000D01*
X-15670828Y25064000D01*
X-15777279Y25085174D01*
X-15877553Y25126709D01*
X-15937730Y25166918D01*
X-15967800Y25187010D01*
X-16044548Y25263758D01*
X-16104848Y25354004D01*
X-16104849Y25354005D01*
X-16146384Y25454279D01*
X-16167558Y25560730D01*
X-16167558Y25669270D01*
X-16146384Y25775721D01*
X-16104849Y25875995D01*
X-16074903Y25920812D01*
X-16044548Y25966242D01*
X-15967800Y26042990D01*
X-15877554Y26103290D01*
X-15877553Y26103291D01*
X-15777279Y26144826D01*
X-15670828Y26166000D01*
X-15562288Y26166000D01*
X-15455837Y26144826D01*
G37*
G36*
X15766599Y26154826D02*
G01*
X15866873Y26113291D01*
X15866874Y26113290D01*
X15957120Y26052990D01*
X16033868Y25976242D01*
X16040551Y25966240D01*
X16094169Y25885995D01*
X16135704Y25785721D01*
X16156878Y25679270D01*
X16156878Y25570730D01*
X16135704Y25464279D01*
X16094169Y25364005D01*
X16064223Y25319188D01*
X16033868Y25273758D01*
X15957120Y25197010D01*
X15942152Y25187009D01*
X15866873Y25136709D01*
X15766599Y25095174D01*
X15660148Y25074000D01*
X15551608Y25074000D01*
X15445157Y25095174D01*
X15344883Y25136709D01*
X15269604Y25187009D01*
X15254636Y25197010D01*
X15177888Y25273758D01*
X15147533Y25319188D01*
X15117587Y25364005D01*
X15076052Y25464279D01*
X15054878Y25570730D01*
X15054878Y25679270D01*
X15076052Y25785721D01*
X15117587Y25885995D01*
X15171205Y25966240D01*
X15177888Y25976242D01*
X15254636Y26052990D01*
X15344882Y26113290D01*
X15344883Y26113291D01*
X15445157Y26154826D01*
X15551608Y26176000D01*
X15660148Y26176000D01*
X15766599Y26154826D01*
G37*
G36*
X-14243401Y26844826D02*
G01*
X-14143127Y26803291D01*
X-14143126Y26803290D01*
X-14052880Y26742990D01*
X-13976132Y26666242D01*
X-13976131Y26666240D01*
X-13915831Y26575995D01*
X-13874296Y26475721D01*
X-13853122Y26369270D01*
X-13853122Y26260730D01*
X-13874296Y26154279D01*
X-13915831Y26054005D01*
X-13923191Y26042990D01*
X-13976132Y25963758D01*
X-14052880Y25887010D01*
X-14098310Y25856655D01*
X-14143127Y25826709D01*
X-14243401Y25785174D01*
X-14349852Y25764000D01*
X-14458392Y25764000D01*
X-14564843Y25785174D01*
X-14665117Y25826709D01*
X-14709934Y25856655D01*
X-14755364Y25887010D01*
X-14832112Y25963758D01*
X-14885053Y26042990D01*
X-14892413Y26054005D01*
X-14933948Y26154279D01*
X-14955122Y26260730D01*
X-14955122Y26369270D01*
X-14933948Y26475721D01*
X-14892413Y26575995D01*
X-14832113Y26666240D01*
X-14832112Y26666242D01*
X-14755364Y26742990D01*
X-14665118Y26803290D01*
X-14665117Y26803291D01*
X-14564843Y26844826D01*
X-14458392Y26866000D01*
X-14349852Y26866000D01*
X-14243401Y26844826D01*
G37*
G36*
X14554163Y26854826D02*
G01*
X14654437Y26813291D01*
X14654438Y26813290D01*
X14744684Y26752990D01*
X14821432Y26676242D01*
X14828115Y26666240D01*
X14881733Y26585995D01*
X14923268Y26485721D01*
X14944442Y26379270D01*
X14944442Y26270730D01*
X14923268Y26164279D01*
X14881733Y26064005D01*
X14874373Y26052990D01*
X14821432Y25973758D01*
X14744684Y25897010D01*
X14699254Y25866655D01*
X14654437Y25836709D01*
X14554163Y25795174D01*
X14447712Y25774000D01*
X14339172Y25774000D01*
X14232721Y25795174D01*
X14132447Y25836709D01*
X14087630Y25866655D01*
X14042200Y25897010D01*
X13965452Y25973758D01*
X13912511Y26052990D01*
X13905151Y26064005D01*
X13863616Y26164279D01*
X13842442Y26270730D01*
X13842442Y26379270D01*
X13863616Y26485721D01*
X13905151Y26585995D01*
X13958769Y26666240D01*
X13965452Y26676242D01*
X14042200Y26752990D01*
X14132446Y26813290D01*
X14132447Y26813291D01*
X14232721Y26854826D01*
X14339172Y26876000D01*
X14447712Y26876000D01*
X14554163Y26854826D01*
G37*
G36*
X-12694494Y27633687D02*
G01*
X-12594220Y27592152D01*
X-12594219Y27592151D01*
X-12503973Y27531851D01*
X-12427225Y27455103D01*
X-12396870Y27409673D01*
X-12366924Y27364856D01*
X-12325389Y27264582D01*
X-12304215Y27158131D01*
X-12304215Y27049591D01*
X-12325389Y26943140D01*
X-12366924Y26842866D01*
X-12386686Y26813290D01*
X-12427225Y26752619D01*
X-12503973Y26675871D01*
X-12518384Y26666242D01*
X-12594220Y26615570D01*
X-12694494Y26574035D01*
X-12800945Y26552861D01*
X-12909485Y26552861D01*
X-13015936Y26574035D01*
X-13116210Y26615570D01*
X-13192046Y26666242D01*
X-13206457Y26675871D01*
X-13283205Y26752619D01*
X-13323744Y26813290D01*
X-13343506Y26842866D01*
X-13385041Y26943140D01*
X-13406215Y27049591D01*
X-13406215Y27158131D01*
X-13385041Y27264582D01*
X-13343506Y27364856D01*
X-13313560Y27409673D01*
X-13283205Y27455103D01*
X-13206457Y27531851D01*
X-13116211Y27592151D01*
X-13116210Y27592152D01*
X-13015936Y27633687D01*
X-12909485Y27654861D01*
X-12800945Y27654861D01*
X-12694494Y27633687D01*
G37*
G36*
X13004469Y27646534D02*
G01*
X13104743Y27604999D01*
X13104744Y27604998D01*
X13194990Y27544698D01*
X13271738Y27467950D01*
X13302093Y27422520D01*
X13332039Y27377703D01*
X13373574Y27277429D01*
X13394748Y27170978D01*
X13394748Y27062438D01*
X13373574Y26955987D01*
X13332039Y26855713D01*
X13324764Y26844825D01*
X13271738Y26765466D01*
X13194990Y26688718D01*
X13176318Y26676242D01*
X13104743Y26628417D01*
X13004469Y26586882D01*
X12898018Y26565708D01*
X12789478Y26565708D01*
X12683027Y26586882D01*
X12582753Y26628417D01*
X12511178Y26676242D01*
X12492506Y26688718D01*
X12415758Y26765466D01*
X12362732Y26844825D01*
X12355457Y26855713D01*
X12313922Y26955987D01*
X12292748Y27062438D01*
X12292748Y27170978D01*
X12313922Y27277429D01*
X12355457Y27377703D01*
X12385403Y27422520D01*
X12415758Y27467950D01*
X12492506Y27544698D01*
X12582752Y27604998D01*
X12582753Y27604999D01*
X12683027Y27646534D01*
X12789478Y27667708D01*
X12898018Y27667708D01*
X13004469Y27646534D01*
G37*
G36*
X-11415531Y28203118D02*
G01*
X-11315257Y28161583D01*
X-11280148Y28138124D01*
X-11225010Y28101282D01*
X-11148262Y28024534D01*
X-11148261Y28024532D01*
X-11087961Y27934287D01*
X-11046426Y27834013D01*
X-11025252Y27727562D01*
X-11025252Y27619022D01*
X-11046426Y27512571D01*
X-11087961Y27412297D01*
X-11087962Y27412296D01*
X-11148262Y27322050D01*
X-11225010Y27245302D01*
X-11270440Y27214947D01*
X-11315257Y27185001D01*
X-11415531Y27143466D01*
X-11521982Y27122292D01*
X-11630522Y27122292D01*
X-11736973Y27143466D01*
X-11837247Y27185001D01*
X-11882064Y27214947D01*
X-11927494Y27245302D01*
X-12004242Y27322050D01*
X-12064542Y27412296D01*
X-12064543Y27412297D01*
X-12106078Y27512571D01*
X-12127252Y27619022D01*
X-12127252Y27727562D01*
X-12106078Y27834013D01*
X-12064543Y27934287D01*
X-12004243Y28024532D01*
X-12004242Y28024534D01*
X-11927494Y28101282D01*
X-11872356Y28138124D01*
X-11837247Y28161583D01*
X-11736973Y28203118D01*
X-11630522Y28224292D01*
X-11521982Y28224292D01*
X-11415531Y28203118D01*
G37*
G36*
X11725506Y28215965D02*
G01*
X11825780Y28174430D01*
X11870597Y28144484D01*
X11916027Y28114129D01*
X11992775Y28037381D01*
X11992776Y28037379D01*
X12053076Y27947134D01*
X12094611Y27846860D01*
X12115785Y27740409D01*
X12115785Y27631869D01*
X12094611Y27525418D01*
X12053076Y27425144D01*
X12053075Y27425143D01*
X11992775Y27334897D01*
X11916027Y27258149D01*
X11896800Y27245302D01*
X11825780Y27197848D01*
X11725506Y27156313D01*
X11619055Y27135139D01*
X11510515Y27135139D01*
X11404064Y27156313D01*
X11303790Y27197848D01*
X11232770Y27245302D01*
X11213543Y27258149D01*
X11136795Y27334897D01*
X11076495Y27425143D01*
X11076494Y27425144D01*
X11034959Y27525418D01*
X11013785Y27631869D01*
X11013785Y27740409D01*
X11034959Y27846860D01*
X11076494Y27947134D01*
X11136794Y28037379D01*
X11136795Y28037381D01*
X11213543Y28114129D01*
X11258973Y28144484D01*
X11303790Y28174430D01*
X11404064Y28215965D01*
X11510515Y28237139D01*
X11619055Y28237139D01*
X11725506Y28215965D01*
G37*
G36*
X-9791860Y28828671D02*
G01*
X-9691586Y28787136D01*
X-9651049Y28760050D01*
X-9601339Y28726835D01*
X-9524591Y28650087D01*
X-9494236Y28604657D01*
X-9464290Y28559840D01*
X-9422755Y28459566D01*
X-9401581Y28353115D01*
X-9401581Y28244575D01*
X-9422755Y28138124D01*
X-9464290Y28037850D01*
X-9473189Y28024532D01*
X-9524591Y27947603D01*
X-9601339Y27870855D01*
X-9637250Y27846860D01*
X-9691586Y27810554D01*
X-9791860Y27769019D01*
X-9898311Y27747845D01*
X-10006851Y27747845D01*
X-10113302Y27769019D01*
X-10213576Y27810554D01*
X-10267912Y27846860D01*
X-10303823Y27870855D01*
X-10380571Y27947603D01*
X-10431973Y28024532D01*
X-10440872Y28037850D01*
X-10482407Y28138124D01*
X-10503581Y28244575D01*
X-10503581Y28353115D01*
X-10482407Y28459566D01*
X-10440872Y28559840D01*
X-10410926Y28604657D01*
X-10380571Y28650087D01*
X-10303823Y28726835D01*
X-10254113Y28760050D01*
X-10213576Y28787136D01*
X-10113302Y28828671D01*
X-10006851Y28849845D01*
X-9898311Y28849845D01*
X-9791860Y28828671D01*
G37*
G36*
X10109619Y28838357D02*
G01*
X10209893Y28796822D01*
X10226480Y28785739D01*
X10300140Y28736521D01*
X10376888Y28659773D01*
X10407243Y28614343D01*
X10437189Y28569526D01*
X10478724Y28469252D01*
X10499898Y28362801D01*
X10499898Y28254261D01*
X10478724Y28147810D01*
X10437189Y28047536D01*
X10430402Y28037379D01*
X10376888Y27957289D01*
X10300140Y27880541D01*
X10285642Y27870854D01*
X10209893Y27820240D01*
X10109619Y27778705D01*
X10003168Y27757531D01*
X9894628Y27757531D01*
X9788177Y27778705D01*
X9687903Y27820240D01*
X9612154Y27870854D01*
X9597656Y27880541D01*
X9520908Y27957289D01*
X9467394Y28037379D01*
X9460607Y28047536D01*
X9419072Y28147810D01*
X9397898Y28254261D01*
X9397898Y28362801D01*
X9419072Y28469252D01*
X9460607Y28569526D01*
X9490553Y28614343D01*
X9520908Y28659773D01*
X9597656Y28736521D01*
X9671316Y28785739D01*
X9687903Y28796822D01*
X9788177Y28838357D01*
X9894628Y28859531D01*
X10003168Y28859531D01*
X10109619Y28838357D01*
G37*
G36*
X-8460381Y29261295D02*
G01*
X-8360107Y29219760D01*
X-8315290Y29189814D01*
X-8269860Y29159459D01*
X-8193112Y29082711D01*
X-8172008Y29051126D01*
X-8132811Y28992464D01*
X-8091276Y28892190D01*
X-8070102Y28785739D01*
X-8070102Y28677199D01*
X-8091276Y28570748D01*
X-8132811Y28470474D01*
X-8132812Y28470473D01*
X-8193112Y28380227D01*
X-8269860Y28303479D01*
X-8315290Y28273124D01*
X-8360107Y28243178D01*
X-8460381Y28201643D01*
X-8566832Y28180469D01*
X-8675372Y28180469D01*
X-8781823Y28201643D01*
X-8882097Y28243178D01*
X-8926914Y28273124D01*
X-8972344Y28303479D01*
X-9049092Y28380227D01*
X-9109392Y28470473D01*
X-9109393Y28470474D01*
X-9150928Y28570748D01*
X-9172102Y28677199D01*
X-9172102Y28785739D01*
X-9150928Y28892190D01*
X-9109393Y28992464D01*
X-9070196Y29051126D01*
X-9049092Y29082711D01*
X-8972344Y29159459D01*
X-8926914Y29189814D01*
X-8882097Y29219760D01*
X-8781823Y29261295D01*
X-8675372Y29282469D01*
X-8566832Y29282469D01*
X-8460381Y29261295D01*
G37*
G36*
X8778140Y29270981D02*
G01*
X8878414Y29229446D01*
X8895363Y29218121D01*
X8968661Y29169145D01*
X9045409Y29092397D01*
X9072985Y29051126D01*
X9105710Y29002150D01*
X9147245Y28901876D01*
X9168419Y28795425D01*
X9168419Y28686885D01*
X9147245Y28580434D01*
X9105710Y28480160D01*
X9105709Y28480159D01*
X9045409Y28389913D01*
X8968661Y28313165D01*
X8954163Y28303478D01*
X8878414Y28252864D01*
X8778140Y28211329D01*
X8671689Y28190155D01*
X8563149Y28190155D01*
X8456698Y28211329D01*
X8356424Y28252864D01*
X8280675Y28303478D01*
X8266177Y28313165D01*
X8189429Y28389913D01*
X8129129Y28480159D01*
X8129128Y28480160D01*
X8087593Y28580434D01*
X8066419Y28686885D01*
X8066419Y28795425D01*
X8087593Y28901876D01*
X8129128Y29002150D01*
X8161853Y29051126D01*
X8189429Y29092397D01*
X8266177Y29169145D01*
X8339475Y29218121D01*
X8356424Y29229446D01*
X8456698Y29270981D01*
X8563149Y29292155D01*
X8671689Y29292155D01*
X8778140Y29270981D01*
G37*
G36*
X7101116Y29717866D02*
G01*
X7201390Y29676331D01*
X7201391Y29676330D01*
X7291637Y29616030D01*
X7368385Y29539282D01*
X7393480Y29501725D01*
X7428686Y29449035D01*
X7470221Y29348761D01*
X7491395Y29242310D01*
X7491395Y29133770D01*
X7470221Y29027319D01*
X7428686Y28927045D01*
X7398740Y28882228D01*
X7368385Y28836798D01*
X7291637Y28760050D01*
X7256423Y28736521D01*
X7201390Y28699749D01*
X7101116Y28658214D01*
X6994665Y28637040D01*
X6886125Y28637040D01*
X6779674Y28658214D01*
X6679400Y28699749D01*
X6624367Y28736521D01*
X6589153Y28760050D01*
X6512405Y28836798D01*
X6482050Y28882228D01*
X6452104Y28927045D01*
X6410569Y29027319D01*
X6389395Y29133770D01*
X6389395Y29242310D01*
X6410569Y29348761D01*
X6452104Y29449035D01*
X6487310Y29501725D01*
X6512405Y29539282D01*
X6589153Y29616030D01*
X6679399Y29676330D01*
X6679400Y29676331D01*
X6779674Y29717866D01*
X6886125Y29739040D01*
X6994665Y29739040D01*
X7101116Y29717866D01*
G37*
G36*
X-6768291Y29720709D02*
G01*
X-6668017Y29679174D01*
X-6663761Y29676330D01*
X-6577770Y29618873D01*
X-6501022Y29542125D01*
X-6480699Y29511709D01*
X-6440721Y29451878D01*
X-6399186Y29351604D01*
X-6378012Y29245153D01*
X-6378012Y29136613D01*
X-6399186Y29030162D01*
X-6440721Y28929888D01*
X-6459438Y28901876D01*
X-6501022Y28839641D01*
X-6577770Y28762893D01*
X-6617237Y28736522D01*
X-6668017Y28702592D01*
X-6768291Y28661057D01*
X-6874742Y28639883D01*
X-6983282Y28639883D01*
X-7089733Y28661057D01*
X-7190007Y28702592D01*
X-7240787Y28736522D01*
X-7280254Y28762893D01*
X-7357002Y28839641D01*
X-7398586Y28901876D01*
X-7417303Y28929888D01*
X-7458838Y29030162D01*
X-7480012Y29136613D01*
X-7480012Y29245153D01*
X-7458838Y29351604D01*
X-7417303Y29451878D01*
X-7377325Y29511709D01*
X-7357002Y29542125D01*
X-7280254Y29618873D01*
X-7194263Y29676330D01*
X-7190007Y29679174D01*
X-7089733Y29720709D01*
X-6983282Y29741883D01*
X-6874742Y29741883D01*
X-6768291Y29720709D01*
G37*
G36*
X5731709Y30008943D02*
G01*
X5831983Y29967408D01*
X5864425Y29945731D01*
X5922230Y29907107D01*
X5998978Y29830359D01*
X5998979Y29830357D01*
X6059279Y29740112D01*
X6100814Y29639838D01*
X6121988Y29533387D01*
X6121988Y29424847D01*
X6100814Y29318396D01*
X6059279Y29218122D01*
X6059278Y29218121D01*
X5998978Y29127875D01*
X5922230Y29051127D01*
X5876800Y29020772D01*
X5831983Y28990826D01*
X5731709Y28949291D01*
X5625258Y28928117D01*
X5516718Y28928117D01*
X5410267Y28949291D01*
X5309993Y28990826D01*
X5265176Y29020772D01*
X5219746Y29051127D01*
X5142998Y29127875D01*
X5082698Y29218121D01*
X5082697Y29218122D01*
X5041162Y29318396D01*
X5019988Y29424847D01*
X5019988Y29533387D01*
X5041162Y29639838D01*
X5082697Y29740112D01*
X5142997Y29830357D01*
X5142998Y29830359D01*
X5219746Y29907107D01*
X5277551Y29945731D01*
X5309993Y29967408D01*
X5410267Y30008943D01*
X5516718Y30030117D01*
X5625258Y30030117D01*
X5731709Y30008943D01*
G37*
G36*
X-5398884Y30011786D02*
G01*
X-5298610Y29970251D01*
X-5294354Y29967407D01*
X-5208363Y29909950D01*
X-5131615Y29833202D01*
X-5129714Y29830357D01*
X-5071314Y29742955D01*
X-5029779Y29642681D01*
X-5008605Y29536230D01*
X-5008605Y29427690D01*
X-5029779Y29321239D01*
X-5071314Y29220965D01*
X-5078681Y29209940D01*
X-5131615Y29130718D01*
X-5208363Y29053970D01*
X-5248249Y29027319D01*
X-5298610Y28993669D01*
X-5398884Y28952134D01*
X-5505335Y28930960D01*
X-5613875Y28930960D01*
X-5720326Y28952134D01*
X-5820600Y28993669D01*
X-5870961Y29027319D01*
X-5910847Y29053970D01*
X-5987595Y29130718D01*
X-6040529Y29209940D01*
X-6047896Y29220965D01*
X-6089431Y29321239D01*
X-6110605Y29427690D01*
X-6110605Y29536230D01*
X-6089431Y29642681D01*
X-6047896Y29742955D01*
X-5989496Y29830357D01*
X-5987595Y29833202D01*
X-5910847Y29909950D01*
X-5824856Y29967407D01*
X-5820600Y29970251D01*
X-5720326Y30011786D01*
X-5613875Y30032960D01*
X-5505335Y30032960D01*
X-5398884Y30011786D01*
G37*
G36*
X-3654045Y30290766D02*
G01*
X-3553771Y30249231D01*
X-3553770Y30249230D01*
X-3463524Y30188930D01*
X-3386776Y30112182D01*
X-3386775Y30112180D01*
X-3326475Y30021935D01*
X-3284940Y29921661D01*
X-3263766Y29815210D01*
X-3263766Y29706670D01*
X-3284940Y29600219D01*
X-3326475Y29499945D01*
X-3356421Y29455128D01*
X-3386776Y29409698D01*
X-3463524Y29332950D01*
X-3481051Y29321239D01*
X-3553771Y29272649D01*
X-3654045Y29231114D01*
X-3760496Y29209940D01*
X-3869036Y29209940D01*
X-3975487Y29231114D01*
X-4075761Y29272649D01*
X-4148481Y29321239D01*
X-4166008Y29332950D01*
X-4242756Y29409698D01*
X-4273111Y29455128D01*
X-4303057Y29499945D01*
X-4344592Y29600219D01*
X-4365766Y29706670D01*
X-4365766Y29815210D01*
X-4344592Y29921661D01*
X-4303057Y30021935D01*
X-4242757Y30112180D01*
X-4242756Y30112182D01*
X-4166008Y30188930D01*
X-4075762Y30249230D01*
X-4075761Y30249231D01*
X-3975487Y30290766D01*
X-3869036Y30311940D01*
X-3760496Y30311940D01*
X-3654045Y30290766D01*
G37*
G36*
X4008286Y30292546D02*
G01*
X4108560Y30251011D01*
X4111225Y30249230D01*
X4198807Y30190710D01*
X4275555Y30113962D01*
X4305076Y30069781D01*
X4335856Y30023715D01*
X4377391Y29923441D01*
X4398565Y29816990D01*
X4398565Y29708450D01*
X4377391Y29601999D01*
X4335856Y29501725D01*
X4334666Y29499944D01*
X4275555Y29411478D01*
X4198807Y29334730D01*
X4178616Y29321239D01*
X4108560Y29274429D01*
X4008286Y29232894D01*
X3901835Y29211720D01*
X3793295Y29211720D01*
X3686844Y29232894D01*
X3586570Y29274429D01*
X3516514Y29321239D01*
X3496323Y29334730D01*
X3419575Y29411478D01*
X3360464Y29499944D01*
X3359274Y29501725D01*
X3317739Y29601999D01*
X3296565Y29708450D01*
X3296565Y29816990D01*
X3317739Y29923441D01*
X3359274Y30023715D01*
X3390054Y30069781D01*
X3419575Y30113962D01*
X3496323Y30190710D01*
X3583905Y30249230D01*
X3586570Y30251011D01*
X3686844Y30292546D01*
X3793295Y30313720D01*
X3901835Y30313720D01*
X4008286Y30292546D01*
G37*
G36*
X-2261714Y30437106D02*
G01*
X-2161440Y30395571D01*
X-2161439Y30395570D01*
X-2071193Y30335270D01*
X-1994445Y30258522D01*
X-1964090Y30213092D01*
X-1934144Y30168275D01*
X-1892609Y30068001D01*
X-1871435Y29961550D01*
X-1871435Y29853010D01*
X-1892609Y29746559D01*
X-1934144Y29646285D01*
X-1934145Y29646284D01*
X-1994445Y29556038D01*
X-2071193Y29479290D01*
X-2112217Y29451879D01*
X-2161440Y29418989D01*
X-2261714Y29377454D01*
X-2368165Y29356280D01*
X-2476705Y29356280D01*
X-2583156Y29377454D01*
X-2683430Y29418989D01*
X-2732653Y29451879D01*
X-2773677Y29479290D01*
X-2850425Y29556038D01*
X-2910725Y29646284D01*
X-2910726Y29646285D01*
X-2952261Y29746559D01*
X-2973435Y29853010D01*
X-2973435Y29961550D01*
X-2952261Y30068001D01*
X-2910726Y30168275D01*
X-2880780Y30213092D01*
X-2850425Y30258522D01*
X-2773677Y30335270D01*
X-2683431Y30395570D01*
X-2683430Y30395571D01*
X-2583156Y30437106D01*
X-2476705Y30458280D01*
X-2368165Y30458280D01*
X-2261714Y30437106D01*
G37*
G36*
X2615955Y30438886D02*
G01*
X2716229Y30397351D01*
X2718894Y30395570D01*
X2806476Y30337050D01*
X2883224Y30260302D01*
X2890621Y30249231D01*
X2943525Y30170055D01*
X2985060Y30069781D01*
X3006234Y29963330D01*
X3006234Y29854790D01*
X2985060Y29748339D01*
X2943525Y29648065D01*
X2938028Y29639838D01*
X2883224Y29557818D01*
X2806476Y29481070D01*
X2790170Y29470175D01*
X2716229Y29420769D01*
X2615955Y29379234D01*
X2509504Y29358060D01*
X2400964Y29358060D01*
X2294513Y29379234D01*
X2194239Y29420769D01*
X2120298Y29470175D01*
X2103992Y29481070D01*
X2027244Y29557818D01*
X1972440Y29639838D01*
X1966943Y29648065D01*
X1925408Y29748339D01*
X1904234Y29854790D01*
X1904234Y29963330D01*
X1925408Y30069781D01*
X1966943Y30170055D01*
X2019847Y30249231D01*
X2027244Y30260302D01*
X2103992Y30337050D01*
X2191574Y30395570D01*
X2194239Y30397351D01*
X2294513Y30438886D01*
X2400964Y30460060D01*
X2509504Y30460060D01*
X2615955Y30438886D01*
G37*
G36*
X-529279Y30529826D02*
G01*
X-429005Y30488291D01*
X-384188Y30458345D01*
X-338758Y30427990D01*
X-262010Y30351242D01*
X-251339Y30335271D01*
X-201709Y30260995D01*
X-160174Y30160721D01*
X-139000Y30054270D01*
X-139000Y29945730D01*
X-160174Y29839279D01*
X-201709Y29739005D01*
X-222125Y29708451D01*
X-262010Y29648758D01*
X-338758Y29572010D01*
X-359995Y29557820D01*
X-429005Y29511709D01*
X-529279Y29470174D01*
X-635730Y29449000D01*
X-744270Y29449000D01*
X-850721Y29470174D01*
X-950995Y29511709D01*
X-1020005Y29557820D01*
X-1041242Y29572010D01*
X-1117990Y29648758D01*
X-1157875Y29708451D01*
X-1178291Y29739005D01*
X-1219826Y29839279D01*
X-1241000Y29945730D01*
X-1241000Y30054270D01*
X-1219826Y30160721D01*
X-1178291Y30260995D01*
X-1128661Y30335271D01*
X-1117990Y30351242D01*
X-1041242Y30427990D01*
X-995812Y30458345D01*
X-950995Y30488291D01*
X-850721Y30529826D01*
X-744270Y30551000D01*
X-635730Y30551000D01*
X-529279Y30529826D01*
G37*
G36*
X870721Y30529826D02*
G01*
X970995Y30488291D01*
X1015812Y30458345D01*
X1061242Y30427990D01*
X1137990Y30351242D01*
X1148661Y30335271D01*
X1198291Y30260995D01*
X1239826Y30160721D01*
X1261000Y30054270D01*
X1261000Y29945730D01*
X1239826Y29839279D01*
X1198291Y29739005D01*
X1177875Y29708451D01*
X1137990Y29648758D01*
X1061242Y29572010D01*
X1040005Y29557820D01*
X970995Y29511709D01*
X870721Y29470174D01*
X764270Y29449000D01*
X655730Y29449000D01*
X549279Y29470174D01*
X449005Y29511709D01*
X379995Y29557820D01*
X358758Y29572010D01*
X282010Y29648758D01*
X242125Y29708451D01*
X221709Y29739005D01*
X180174Y29839279D01*
X159000Y29945730D01*
X159000Y30054270D01*
X180174Y30160721D01*
X221709Y30260995D01*
X271339Y30335271D01*
X282010Y30351242D01*
X358758Y30427990D01*
X404188Y30458345D01*
X449005Y30488291D01*
X549279Y30529826D01*
X655730Y30551000D01*
X764270Y30551000D01*
X870721Y30529826D01*
G37*
M02*
