G04 #@! TF.GenerationSoftware,KiCad,Pcbnew,(5.1.5-0-10_14)*
G04 #@! TF.CreationDate,2021-01-17T15:29:47+09:00*
G04 #@! TF.ProjectId,LedClock,4c656443-6c6f-4636-9b2e-6b696361645f,1.0*
G04 #@! TF.SameCoordinates,Original*
G04 #@! TF.FileFunction,Legend,Top*
G04 #@! TF.FilePolarity,Positive*
%FSLAX46Y46*%
G04 Gerber Fmt 4.6, Leading zero omitted, Abs format (unit mm)*
G04 Created by KiCad (PCBNEW (5.1.5-0-10_14)) date 2021-01-17 15:29:47*
%MOMM*%
%LPD*%
G04 APERTURE LIST*
%ADD10C,0.200000*%
%ADD11C,0.120000*%
%ADD12C,0.100000*%
G04 APERTURE END LIST*
D10*
X100000Y21700000D02*
G75*
G03X100000Y21700000I-100000J0D01*
G01*
D11*
X-800000Y20800000D02*
X-800000Y19200000D01*
X800000Y20800000D02*
X800000Y19200000D01*
D12*
X-2399721Y38156302D02*
X-2001912Y38198114D01*
X-5980000Y37780000D02*
X-5582191Y37821811D01*
X-6378669Y37708482D02*
X-5987410Y37791647D01*
X-9900000Y36960000D02*
X-9508741Y37043165D01*
X-10266197Y36852461D02*
X-9885774Y36976068D01*
X-13690000Y35740000D02*
X-13309577Y35863607D01*
X-14051236Y35594252D02*
X-13685818Y35756947D01*
X-17340000Y34130000D02*
X-16974582Y34292695D01*
X-17682309Y33940000D02*
X-17335898Y34140000D01*
X-20800000Y32140000D02*
X-20453590Y32340000D01*
X-21127539Y31906027D02*
X-20803932Y32141141D01*
X-24040000Y29790000D02*
X-23716393Y30025114D01*
X-24364679Y29508870D02*
X-24067421Y29776522D01*
X-27040000Y27100000D02*
X-26742742Y27367652D01*
X-27311130Y26795321D02*
X-27043478Y27092579D01*
X-29720000Y24120000D02*
X-29452348Y24417258D01*
X-29953973Y23792461D02*
X-29718859Y24116068D01*
X-32070000Y20880000D02*
X-31834886Y21203607D01*
X-32260000Y20527691D02*
X-32060000Y20874102D01*
X-34060000Y17410000D02*
X-33860000Y17756410D01*
X-34225748Y17048764D02*
X-34063053Y17414182D01*
X-35690000Y13760000D02*
X-35527305Y14125418D01*
X-35817539Y13353803D02*
X-35693932Y13734226D01*
X-36930000Y9930000D02*
X-36806393Y10310423D01*
X-37021518Y9521331D02*
X-36938353Y9912590D01*
X-37770000Y6000000D02*
X-37686835Y6391259D01*
X-37813698Y5600279D02*
X-37771886Y5998088D01*
X-38190000Y2020000D02*
X-38148189Y2417809D01*
X-38200000Y1600000D02*
X-38200000Y2000000D01*
X-38200000Y-2000000D02*
X-38200000Y-1600000D01*
X-38146302Y-2379721D02*
X-38188114Y-1981912D01*
X-37770000Y-5960000D02*
X-37811811Y-5562191D01*
X-37668482Y-6308669D02*
X-37751647Y-5917410D01*
X-36920000Y-9830000D02*
X-37003165Y-9438741D01*
X-36792461Y-10206197D02*
X-36916068Y-9825774D01*
X-35680000Y-13630000D02*
X-35803607Y-13249577D01*
X-35524252Y-13991236D02*
X-35686947Y-13625818D01*
X-34060000Y-17280000D02*
X-34222695Y-16914582D01*
X-33860000Y-17622309D02*
X-34060000Y-17275898D01*
X-32060000Y-20740000D02*
X-32260000Y-20393590D01*
X-31826027Y-21077539D02*
X-32061141Y-20753932D01*
X-29710000Y-23990000D02*
X-29945114Y-23666393D01*
X-29438870Y-24304679D02*
X-29706522Y-24007421D01*
X-27030000Y-26980000D02*
X-27297652Y-26682742D01*
X-26735321Y-27261130D02*
X-27032579Y-26993478D01*
X-24060000Y-29670000D02*
X-24357258Y-29402348D01*
X-23742461Y-29913973D02*
X-24066068Y-29678859D01*
X-20830000Y-32030000D02*
X-21153607Y-31794886D01*
X-20487691Y-32250000D02*
X-20834102Y-32050000D01*
X-17370000Y-34050000D02*
X-17716410Y-33850000D01*
X-16988764Y-34235748D02*
X-17354182Y-34073053D01*
X-13700000Y-35700000D02*
X-14065418Y-35537305D01*
X-13313803Y-35827539D02*
X-13694226Y-35703932D01*
X-9890000Y-36940000D02*
X-10270423Y-36816393D01*
X-9501331Y-37031518D02*
X-9892590Y-36948353D01*
X-5980000Y-37780000D02*
X-6371259Y-37696835D01*
X-5580279Y-37823698D02*
X-5978088Y-37781886D01*
X-2000000Y-38200000D02*
X-2397809Y-38158189D01*
X-1600000Y-38200000D02*
X-2000000Y-38200000D01*
X2000000Y-38200000D02*
X1600000Y-38200000D01*
X2385035Y-38141023D02*
X1988928Y-38196692D01*
X5950000Y-37640000D02*
X5553893Y-37695669D01*
X6338669Y-37558482D02*
X5947410Y-37641647D01*
X9860000Y-36810000D02*
X9468741Y-36893165D01*
X10246197Y-36682461D02*
X9865774Y-36806068D01*
X13670000Y-35570000D02*
X13289577Y-35693607D01*
X14031236Y-35414252D02*
X13665818Y-35576947D01*
X17320000Y-33950000D02*
X16954582Y-34112695D01*
X17662309Y-33750000D02*
X17315898Y-33950000D01*
X20780000Y-31950000D02*
X20433590Y-32150000D01*
X21107539Y-31716027D02*
X20783932Y-31951141D01*
X24020000Y-29600000D02*
X23696393Y-29835114D01*
X24324679Y-29328870D02*
X24027421Y-29596522D01*
X27000000Y-26920000D02*
X26702742Y-27187652D01*
X27281130Y-26625321D02*
X27013478Y-26922579D01*
X29690000Y-23950000D02*
X29422348Y-24247258D01*
X29943973Y-23632461D02*
X29708859Y-23956068D01*
X32060000Y-20720000D02*
X31824886Y-21043607D01*
X32260000Y-20407691D02*
X32060000Y-20754102D01*
X34060000Y-17290000D02*
X33860000Y-17636410D01*
X34225748Y-16938764D02*
X34063053Y-17304182D01*
X35690000Y-13650000D02*
X35527305Y-14015418D01*
X35817539Y-13283803D02*
X35693932Y-13664226D01*
X36930000Y-9860000D02*
X36806393Y-10240423D01*
X37021518Y-9471331D02*
X36938353Y-9862590D01*
X37770000Y-5950000D02*
X37686835Y-6341259D01*
X37823698Y-5580279D02*
X37781886Y-5978088D01*
X38200000Y-2000000D02*
X38158189Y-2397809D01*
X38200000Y-1600000D02*
X38200000Y-2000000D01*
X38200000Y2000000D02*
X38200000Y1600000D01*
X38166302Y2399721D02*
X38208114Y2001912D01*
X37790000Y5980000D02*
X37831811Y5582191D01*
X37708482Y6408669D02*
X37791647Y6017410D01*
X36960000Y9930000D02*
X37043165Y9538741D01*
X36831273Y10317107D02*
X36968081Y9941230D01*
X35600000Y13700000D02*
X35736808Y13324123D01*
X35444252Y14071236D02*
X35606947Y13705818D01*
X33980000Y17360000D02*
X34142695Y16994582D01*
X33790000Y17712309D02*
X33990000Y17365898D01*
X31990000Y20830000D02*
X32190000Y20483590D01*
X31766027Y21157539D02*
X32001141Y20833932D01*
X29650000Y24070000D02*
X29885114Y23746393D01*
X29398870Y24364679D02*
X29666522Y24067421D01*
X26990000Y27040000D02*
X27257652Y26742742D01*
X26695321Y27311130D02*
X26992579Y27043478D01*
X24020000Y29720000D02*
X24317258Y29452348D01*
X23712461Y29953973D02*
X24036068Y29718859D01*
X20800000Y32070000D02*
X21123607Y31834886D01*
X20467691Y32270000D02*
X20814102Y32070000D01*
X17350000Y34070000D02*
X17696410Y33870000D01*
X16978764Y34235748D02*
X17344182Y34073053D01*
X13690000Y35700000D02*
X14055418Y35537305D01*
X13313803Y35827539D02*
X13694226Y35703932D01*
X9890000Y36940000D02*
X10270423Y36816393D01*
X9481331Y37031518D02*
X9872590Y36948353D01*
X5960000Y37780000D02*
X6351259Y37696835D01*
X5560279Y37823698D02*
X5958088Y37781886D01*
X1980000Y38200000D02*
X2377809Y38158189D01*
X1600000Y38200000D02*
X2000000Y38200000D01*
X-2000000Y38200000D02*
X-1600000Y38200000D01*
M02*
