G04 #@! TF.GenerationSoftware,KiCad,Pcbnew,(5.1.5-0-10_14)*
G04 #@! TF.CreationDate,2021-02-01T23:30:03+09:00*
G04 #@! TF.ProjectId,LedClock,4c656443-6c6f-4636-9b2e-6b696361645f,1.1*
G04 #@! TF.SameCoordinates,Original*
G04 #@! TF.FileFunction,Soldermask,Bot*
G04 #@! TF.FilePolarity,Negative*
%FSLAX46Y46*%
G04 Gerber Fmt 4.6, Leading zero omitted, Abs format (unit mm)*
G04 Created by KiCad (PCBNEW (5.1.5-0-10_14)) date 2021-02-01 23:30:03*
%MOMM*%
%LPD*%
G04 APERTURE LIST*
%ADD10C,0.100000*%
G04 APERTURE END LIST*
D10*
G36*
X10864499Y-23803445D02*
G01*
X10901995Y-23814820D01*
X10936554Y-23833292D01*
X10966847Y-23858153D01*
X10991708Y-23888446D01*
X11010180Y-23923005D01*
X11021555Y-23960501D01*
X11026000Y-24005638D01*
X11026000Y-24744362D01*
X11021555Y-24789499D01*
X11010180Y-24826995D01*
X10991708Y-24861554D01*
X10966847Y-24891847D01*
X10936554Y-24916708D01*
X10901995Y-24935180D01*
X10864499Y-24946555D01*
X10819362Y-24951000D01*
X10180638Y-24951000D01*
X10135501Y-24946555D01*
X10098005Y-24935180D01*
X10063446Y-24916708D01*
X10033153Y-24891847D01*
X10008292Y-24861554D01*
X9989820Y-24826995D01*
X9978445Y-24789499D01*
X9974000Y-24744362D01*
X9974000Y-24005638D01*
X9978445Y-23960501D01*
X9989820Y-23923005D01*
X10008292Y-23888446D01*
X10033153Y-23858153D01*
X10063446Y-23833292D01*
X10098005Y-23814820D01*
X10135501Y-23803445D01*
X10180638Y-23799000D01*
X10819362Y-23799000D01*
X10864499Y-23803445D01*
G37*
G36*
X9364499Y-23803445D02*
G01*
X9401995Y-23814820D01*
X9436554Y-23833292D01*
X9466847Y-23858153D01*
X9491708Y-23888446D01*
X9510180Y-23923005D01*
X9521555Y-23960501D01*
X9526000Y-24005638D01*
X9526000Y-24744362D01*
X9521555Y-24789499D01*
X9510180Y-24826995D01*
X9491708Y-24861554D01*
X9466847Y-24891847D01*
X9436554Y-24916708D01*
X9401995Y-24935180D01*
X9364499Y-24946555D01*
X9319362Y-24951000D01*
X8680638Y-24951000D01*
X8635501Y-24946555D01*
X8598005Y-24935180D01*
X8563446Y-24916708D01*
X8533153Y-24891847D01*
X8508292Y-24861554D01*
X8489820Y-24826995D01*
X8478445Y-24789499D01*
X8474000Y-24744362D01*
X8474000Y-24005638D01*
X8478445Y-23960501D01*
X8489820Y-23923005D01*
X8508292Y-23888446D01*
X8533153Y-23858153D01*
X8563446Y-23833292D01*
X8598005Y-23814820D01*
X8635501Y-23803445D01*
X8680638Y-23799000D01*
X9319362Y-23799000D01*
X9364499Y-23803445D01*
G37*
G36*
X7864499Y-23803445D02*
G01*
X7901995Y-23814820D01*
X7936554Y-23833292D01*
X7966847Y-23858153D01*
X7991708Y-23888446D01*
X8010180Y-23923005D01*
X8021555Y-23960501D01*
X8026000Y-24005638D01*
X8026000Y-24744362D01*
X8021555Y-24789499D01*
X8010180Y-24826995D01*
X7991708Y-24861554D01*
X7966847Y-24891847D01*
X7936554Y-24916708D01*
X7901995Y-24935180D01*
X7864499Y-24946555D01*
X7819362Y-24951000D01*
X7180638Y-24951000D01*
X7135501Y-24946555D01*
X7098005Y-24935180D01*
X7063446Y-24916708D01*
X7033153Y-24891847D01*
X7008292Y-24861554D01*
X6989820Y-24826995D01*
X6978445Y-24789499D01*
X6974000Y-24744362D01*
X6974000Y-24005638D01*
X6978445Y-23960501D01*
X6989820Y-23923005D01*
X7008292Y-23888446D01*
X7033153Y-23858153D01*
X7063446Y-23833292D01*
X7098005Y-23814820D01*
X7135501Y-23803445D01*
X7180638Y-23799000D01*
X7819362Y-23799000D01*
X7864499Y-23803445D01*
G37*
G36*
X6364499Y-23803445D02*
G01*
X6401995Y-23814820D01*
X6436554Y-23833292D01*
X6466847Y-23858153D01*
X6491708Y-23888446D01*
X6510180Y-23923005D01*
X6521555Y-23960501D01*
X6526000Y-24005638D01*
X6526000Y-24744362D01*
X6521555Y-24789499D01*
X6510180Y-24826995D01*
X6491708Y-24861554D01*
X6466847Y-24891847D01*
X6436554Y-24916708D01*
X6401995Y-24935180D01*
X6364499Y-24946555D01*
X6319362Y-24951000D01*
X5680638Y-24951000D01*
X5635501Y-24946555D01*
X5598005Y-24935180D01*
X5563446Y-24916708D01*
X5533153Y-24891847D01*
X5508292Y-24861554D01*
X5489820Y-24826995D01*
X5478445Y-24789499D01*
X5474000Y-24744362D01*
X5474000Y-24005638D01*
X5478445Y-23960501D01*
X5489820Y-23923005D01*
X5508292Y-23888446D01*
X5533153Y-23858153D01*
X5563446Y-23833292D01*
X5598005Y-23814820D01*
X5635501Y-23803445D01*
X5680638Y-23799000D01*
X6319362Y-23799000D01*
X6364499Y-23803445D01*
G37*
G36*
X4864499Y-23803445D02*
G01*
X4901995Y-23814820D01*
X4936554Y-23833292D01*
X4966847Y-23858153D01*
X4991708Y-23888446D01*
X5010180Y-23923005D01*
X5021555Y-23960501D01*
X5026000Y-24005638D01*
X5026000Y-24744362D01*
X5021555Y-24789499D01*
X5010180Y-24826995D01*
X4991708Y-24861554D01*
X4966847Y-24891847D01*
X4936554Y-24916708D01*
X4901995Y-24935180D01*
X4864499Y-24946555D01*
X4819362Y-24951000D01*
X4180638Y-24951000D01*
X4135501Y-24946555D01*
X4098005Y-24935180D01*
X4063446Y-24916708D01*
X4033153Y-24891847D01*
X4008292Y-24861554D01*
X3989820Y-24826995D01*
X3978445Y-24789499D01*
X3974000Y-24744362D01*
X3974000Y-24005638D01*
X3978445Y-23960501D01*
X3989820Y-23923005D01*
X4008292Y-23888446D01*
X4033153Y-23858153D01*
X4063446Y-23833292D01*
X4098005Y-23814820D01*
X4135501Y-23803445D01*
X4180638Y-23799000D01*
X4819362Y-23799000D01*
X4864499Y-23803445D01*
G37*
G36*
X3364499Y-23803445D02*
G01*
X3401995Y-23814820D01*
X3436554Y-23833292D01*
X3466847Y-23858153D01*
X3491708Y-23888446D01*
X3510180Y-23923005D01*
X3521555Y-23960501D01*
X3526000Y-24005638D01*
X3526000Y-24744362D01*
X3521555Y-24789499D01*
X3510180Y-24826995D01*
X3491708Y-24861554D01*
X3466847Y-24891847D01*
X3436554Y-24916708D01*
X3401995Y-24935180D01*
X3364499Y-24946555D01*
X3319362Y-24951000D01*
X2680638Y-24951000D01*
X2635501Y-24946555D01*
X2598005Y-24935180D01*
X2563446Y-24916708D01*
X2533153Y-24891847D01*
X2508292Y-24861554D01*
X2489820Y-24826995D01*
X2478445Y-24789499D01*
X2474000Y-24744362D01*
X2474000Y-24005638D01*
X2478445Y-23960501D01*
X2489820Y-23923005D01*
X2508292Y-23888446D01*
X2533153Y-23858153D01*
X2563446Y-23833292D01*
X2598005Y-23814820D01*
X2635501Y-23803445D01*
X2680638Y-23799000D01*
X3319362Y-23799000D01*
X3364499Y-23803445D01*
G37*
G36*
X1864499Y-23803445D02*
G01*
X1901995Y-23814820D01*
X1936554Y-23833292D01*
X1966847Y-23858153D01*
X1991708Y-23888446D01*
X2010180Y-23923005D01*
X2021555Y-23960501D01*
X2026000Y-24005638D01*
X2026000Y-24744362D01*
X2021555Y-24789499D01*
X2010180Y-24826995D01*
X1991708Y-24861554D01*
X1966847Y-24891847D01*
X1936554Y-24916708D01*
X1901995Y-24935180D01*
X1864499Y-24946555D01*
X1819362Y-24951000D01*
X1180638Y-24951000D01*
X1135501Y-24946555D01*
X1098005Y-24935180D01*
X1063446Y-24916708D01*
X1033153Y-24891847D01*
X1008292Y-24861554D01*
X989820Y-24826995D01*
X978445Y-24789499D01*
X974000Y-24744362D01*
X974000Y-24005638D01*
X978445Y-23960501D01*
X989820Y-23923005D01*
X1008292Y-23888446D01*
X1033153Y-23858153D01*
X1063446Y-23833292D01*
X1098005Y-23814820D01*
X1135501Y-23803445D01*
X1180638Y-23799000D01*
X1819362Y-23799000D01*
X1864499Y-23803445D01*
G37*
G36*
X364499Y-23803445D02*
G01*
X401995Y-23814820D01*
X436554Y-23833292D01*
X466847Y-23858153D01*
X491708Y-23888446D01*
X510180Y-23923005D01*
X521555Y-23960501D01*
X526000Y-24005638D01*
X526000Y-24744362D01*
X521555Y-24789499D01*
X510180Y-24826995D01*
X491708Y-24861554D01*
X466847Y-24891847D01*
X436554Y-24916708D01*
X401995Y-24935180D01*
X364499Y-24946555D01*
X319362Y-24951000D01*
X-319362Y-24951000D01*
X-364499Y-24946555D01*
X-401995Y-24935180D01*
X-436554Y-24916708D01*
X-466847Y-24891847D01*
X-491708Y-24861554D01*
X-510180Y-24826995D01*
X-521555Y-24789499D01*
X-526000Y-24744362D01*
X-526000Y-24005638D01*
X-521555Y-23960501D01*
X-510180Y-23923005D01*
X-491708Y-23888446D01*
X-466847Y-23858153D01*
X-436554Y-23833292D01*
X-401995Y-23814820D01*
X-364499Y-23803445D01*
X-319362Y-23799000D01*
X319362Y-23799000D01*
X364499Y-23803445D01*
G37*
G36*
X-1135501Y-23803445D02*
G01*
X-1098005Y-23814820D01*
X-1063446Y-23833292D01*
X-1033153Y-23858153D01*
X-1008292Y-23888446D01*
X-989820Y-23923005D01*
X-978445Y-23960501D01*
X-974000Y-24005638D01*
X-974000Y-24744362D01*
X-978445Y-24789499D01*
X-989820Y-24826995D01*
X-1008292Y-24861554D01*
X-1033153Y-24891847D01*
X-1063446Y-24916708D01*
X-1098005Y-24935180D01*
X-1135501Y-24946555D01*
X-1180638Y-24951000D01*
X-1819362Y-24951000D01*
X-1864499Y-24946555D01*
X-1901995Y-24935180D01*
X-1936554Y-24916708D01*
X-1966847Y-24891847D01*
X-1991708Y-24861554D01*
X-2010180Y-24826995D01*
X-2021555Y-24789499D01*
X-2026000Y-24744362D01*
X-2026000Y-24005638D01*
X-2021555Y-23960501D01*
X-2010180Y-23923005D01*
X-1991708Y-23888446D01*
X-1966847Y-23858153D01*
X-1936554Y-23833292D01*
X-1901995Y-23814820D01*
X-1864499Y-23803445D01*
X-1819362Y-23799000D01*
X-1180638Y-23799000D01*
X-1135501Y-23803445D01*
G37*
G36*
X-2635501Y-23803445D02*
G01*
X-2598005Y-23814820D01*
X-2563446Y-23833292D01*
X-2533153Y-23858153D01*
X-2508292Y-23888446D01*
X-2489820Y-23923005D01*
X-2478445Y-23960501D01*
X-2474000Y-24005638D01*
X-2474000Y-24744362D01*
X-2478445Y-24789499D01*
X-2489820Y-24826995D01*
X-2508292Y-24861554D01*
X-2533153Y-24891847D01*
X-2563446Y-24916708D01*
X-2598005Y-24935180D01*
X-2635501Y-24946555D01*
X-2680638Y-24951000D01*
X-3319362Y-24951000D01*
X-3364499Y-24946555D01*
X-3401995Y-24935180D01*
X-3436554Y-24916708D01*
X-3466847Y-24891847D01*
X-3491708Y-24861554D01*
X-3510180Y-24826995D01*
X-3521555Y-24789499D01*
X-3526000Y-24744362D01*
X-3526000Y-24005638D01*
X-3521555Y-23960501D01*
X-3510180Y-23923005D01*
X-3491708Y-23888446D01*
X-3466847Y-23858153D01*
X-3436554Y-23833292D01*
X-3401995Y-23814820D01*
X-3364499Y-23803445D01*
X-3319362Y-23799000D01*
X-2680638Y-23799000D01*
X-2635501Y-23803445D01*
G37*
G36*
X-4135501Y-23803445D02*
G01*
X-4098005Y-23814820D01*
X-4063446Y-23833292D01*
X-4033153Y-23858153D01*
X-4008292Y-23888446D01*
X-3989820Y-23923005D01*
X-3978445Y-23960501D01*
X-3974000Y-24005638D01*
X-3974000Y-24744362D01*
X-3978445Y-24789499D01*
X-3989820Y-24826995D01*
X-4008292Y-24861554D01*
X-4033153Y-24891847D01*
X-4063446Y-24916708D01*
X-4098005Y-24935180D01*
X-4135501Y-24946555D01*
X-4180638Y-24951000D01*
X-4819362Y-24951000D01*
X-4864499Y-24946555D01*
X-4901995Y-24935180D01*
X-4936554Y-24916708D01*
X-4966847Y-24891847D01*
X-4991708Y-24861554D01*
X-5010180Y-24826995D01*
X-5021555Y-24789499D01*
X-5026000Y-24744362D01*
X-5026000Y-24005638D01*
X-5021555Y-23960501D01*
X-5010180Y-23923005D01*
X-4991708Y-23888446D01*
X-4966847Y-23858153D01*
X-4936554Y-23833292D01*
X-4901995Y-23814820D01*
X-4864499Y-23803445D01*
X-4819362Y-23799000D01*
X-4180638Y-23799000D01*
X-4135501Y-23803445D01*
G37*
G36*
X-5635501Y-23803445D02*
G01*
X-5598005Y-23814820D01*
X-5563446Y-23833292D01*
X-5533153Y-23858153D01*
X-5508292Y-23888446D01*
X-5489820Y-23923005D01*
X-5478445Y-23960501D01*
X-5474000Y-24005638D01*
X-5474000Y-24744362D01*
X-5478445Y-24789499D01*
X-5489820Y-24826995D01*
X-5508292Y-24861554D01*
X-5533153Y-24891847D01*
X-5563446Y-24916708D01*
X-5598005Y-24935180D01*
X-5635501Y-24946555D01*
X-5680638Y-24951000D01*
X-6319362Y-24951000D01*
X-6364499Y-24946555D01*
X-6401995Y-24935180D01*
X-6436554Y-24916708D01*
X-6466847Y-24891847D01*
X-6491708Y-24861554D01*
X-6510180Y-24826995D01*
X-6521555Y-24789499D01*
X-6526000Y-24744362D01*
X-6526000Y-24005638D01*
X-6521555Y-23960501D01*
X-6510180Y-23923005D01*
X-6491708Y-23888446D01*
X-6466847Y-23858153D01*
X-6436554Y-23833292D01*
X-6401995Y-23814820D01*
X-6364499Y-23803445D01*
X-6319362Y-23799000D01*
X-5680638Y-23799000D01*
X-5635501Y-23803445D01*
G37*
G36*
X-7135501Y-23803445D02*
G01*
X-7098005Y-23814820D01*
X-7063446Y-23833292D01*
X-7033153Y-23858153D01*
X-7008292Y-23888446D01*
X-6989820Y-23923005D01*
X-6978445Y-23960501D01*
X-6974000Y-24005638D01*
X-6974000Y-24744362D01*
X-6978445Y-24789499D01*
X-6989820Y-24826995D01*
X-7008292Y-24861554D01*
X-7033153Y-24891847D01*
X-7063446Y-24916708D01*
X-7098005Y-24935180D01*
X-7135501Y-24946555D01*
X-7180638Y-24951000D01*
X-7819362Y-24951000D01*
X-7864499Y-24946555D01*
X-7901995Y-24935180D01*
X-7936554Y-24916708D01*
X-7966847Y-24891847D01*
X-7991708Y-24861554D01*
X-8010180Y-24826995D01*
X-8021555Y-24789499D01*
X-8026000Y-24744362D01*
X-8026000Y-24005638D01*
X-8021555Y-23960501D01*
X-8010180Y-23923005D01*
X-7991708Y-23888446D01*
X-7966847Y-23858153D01*
X-7936554Y-23833292D01*
X-7901995Y-23814820D01*
X-7864499Y-23803445D01*
X-7819362Y-23799000D01*
X-7180638Y-23799000D01*
X-7135501Y-23803445D01*
G37*
G36*
X-8635501Y-23803445D02*
G01*
X-8598005Y-23814820D01*
X-8563446Y-23833292D01*
X-8533153Y-23858153D01*
X-8508292Y-23888446D01*
X-8489820Y-23923005D01*
X-8478445Y-23960501D01*
X-8474000Y-24005638D01*
X-8474000Y-24744362D01*
X-8478445Y-24789499D01*
X-8489820Y-24826995D01*
X-8508292Y-24861554D01*
X-8533153Y-24891847D01*
X-8563446Y-24916708D01*
X-8598005Y-24935180D01*
X-8635501Y-24946555D01*
X-8680638Y-24951000D01*
X-9319362Y-24951000D01*
X-9364499Y-24946555D01*
X-9401995Y-24935180D01*
X-9436554Y-24916708D01*
X-9466847Y-24891847D01*
X-9491708Y-24861554D01*
X-9510180Y-24826995D01*
X-9521555Y-24789499D01*
X-9526000Y-24744362D01*
X-9526000Y-24005638D01*
X-9521555Y-23960501D01*
X-9510180Y-23923005D01*
X-9491708Y-23888446D01*
X-9466847Y-23858153D01*
X-9436554Y-23833292D01*
X-9401995Y-23814820D01*
X-9364499Y-23803445D01*
X-9319362Y-23799000D01*
X-8680638Y-23799000D01*
X-8635501Y-23803445D01*
G37*
G36*
X-10135501Y-23803445D02*
G01*
X-10098005Y-23814820D01*
X-10063446Y-23833292D01*
X-10033153Y-23858153D01*
X-10008292Y-23888446D01*
X-9989820Y-23923005D01*
X-9978445Y-23960501D01*
X-9974000Y-24005638D01*
X-9974000Y-24744362D01*
X-9978445Y-24789499D01*
X-9989820Y-24826995D01*
X-10008292Y-24861554D01*
X-10033153Y-24891847D01*
X-10063446Y-24916708D01*
X-10098005Y-24935180D01*
X-10135501Y-24946555D01*
X-10180638Y-24951000D01*
X-10819362Y-24951000D01*
X-10864499Y-24946555D01*
X-10901995Y-24935180D01*
X-10936554Y-24916708D01*
X-10966847Y-24891847D01*
X-10991708Y-24861554D01*
X-11010180Y-24826995D01*
X-11021555Y-24789499D01*
X-11026000Y-24744362D01*
X-11026000Y-24005638D01*
X-11021555Y-23960501D01*
X-11010180Y-23923005D01*
X-10991708Y-23888446D01*
X-10966847Y-23858153D01*
X-10936554Y-23833292D01*
X-10901995Y-23814820D01*
X-10864499Y-23803445D01*
X-10819362Y-23799000D01*
X-10180638Y-23799000D01*
X-10135501Y-23803445D01*
G37*
G36*
X364499Y-22053445D02*
G01*
X401995Y-22064820D01*
X436554Y-22083292D01*
X466847Y-22108153D01*
X491708Y-22138446D01*
X510180Y-22173005D01*
X521555Y-22210501D01*
X526000Y-22255638D01*
X526000Y-22994362D01*
X521555Y-23039499D01*
X510180Y-23076995D01*
X491708Y-23111554D01*
X466847Y-23141847D01*
X436554Y-23166708D01*
X401995Y-23185180D01*
X364499Y-23196555D01*
X319362Y-23201000D01*
X-319362Y-23201000D01*
X-364499Y-23196555D01*
X-401995Y-23185180D01*
X-436554Y-23166708D01*
X-466847Y-23141847D01*
X-491708Y-23111554D01*
X-510180Y-23076995D01*
X-521555Y-23039499D01*
X-526000Y-22994362D01*
X-526000Y-22255638D01*
X-521555Y-22210501D01*
X-510180Y-22173005D01*
X-491708Y-22138446D01*
X-466847Y-22108153D01*
X-436554Y-22083292D01*
X-401995Y-22064820D01*
X-364499Y-22053445D01*
X-319362Y-22049000D01*
X319362Y-22049000D01*
X364499Y-22053445D01*
G37*
G36*
X-4135501Y-22053445D02*
G01*
X-4098005Y-22064820D01*
X-4063446Y-22083292D01*
X-4033153Y-22108153D01*
X-4008292Y-22138446D01*
X-3989820Y-22173005D01*
X-3978445Y-22210501D01*
X-3974000Y-22255638D01*
X-3974000Y-22994362D01*
X-3978445Y-23039499D01*
X-3989820Y-23076995D01*
X-4008292Y-23111554D01*
X-4033153Y-23141847D01*
X-4063446Y-23166708D01*
X-4098005Y-23185180D01*
X-4135501Y-23196555D01*
X-4180638Y-23201000D01*
X-4819362Y-23201000D01*
X-4864499Y-23196555D01*
X-4901995Y-23185180D01*
X-4936554Y-23166708D01*
X-4966847Y-23141847D01*
X-4991708Y-23111554D01*
X-5010180Y-23076995D01*
X-5021555Y-23039499D01*
X-5026000Y-22994362D01*
X-5026000Y-22255638D01*
X-5021555Y-22210501D01*
X-5010180Y-22173005D01*
X-4991708Y-22138446D01*
X-4966847Y-22108153D01*
X-4936554Y-22083292D01*
X-4901995Y-22064820D01*
X-4864499Y-22053445D01*
X-4819362Y-22049000D01*
X-4180638Y-22049000D01*
X-4135501Y-22053445D01*
G37*
G36*
X4864499Y-22053445D02*
G01*
X4901995Y-22064820D01*
X4936554Y-22083292D01*
X4966847Y-22108153D01*
X4991708Y-22138446D01*
X5010180Y-22173005D01*
X5021555Y-22210501D01*
X5026000Y-22255638D01*
X5026000Y-22994362D01*
X5021555Y-23039499D01*
X5010180Y-23076995D01*
X4991708Y-23111554D01*
X4966847Y-23141847D01*
X4936554Y-23166708D01*
X4901995Y-23185180D01*
X4864499Y-23196555D01*
X4819362Y-23201000D01*
X4180638Y-23201000D01*
X4135501Y-23196555D01*
X4098005Y-23185180D01*
X4063446Y-23166708D01*
X4033153Y-23141847D01*
X4008292Y-23111554D01*
X3989820Y-23076995D01*
X3978445Y-23039499D01*
X3974000Y-22994362D01*
X3974000Y-22255638D01*
X3978445Y-22210501D01*
X3989820Y-22173005D01*
X4008292Y-22138446D01*
X4033153Y-22108153D01*
X4063446Y-22083292D01*
X4098005Y-22064820D01*
X4135501Y-22053445D01*
X4180638Y-22049000D01*
X4819362Y-22049000D01*
X4864499Y-22053445D01*
G37*
G36*
X-2635501Y-22053445D02*
G01*
X-2598005Y-22064820D01*
X-2563446Y-22083292D01*
X-2533153Y-22108153D01*
X-2508292Y-22138446D01*
X-2489820Y-22173005D01*
X-2478445Y-22210501D01*
X-2474000Y-22255638D01*
X-2474000Y-22994362D01*
X-2478445Y-23039499D01*
X-2489820Y-23076995D01*
X-2508292Y-23111554D01*
X-2533153Y-23141847D01*
X-2563446Y-23166708D01*
X-2598005Y-23185180D01*
X-2635501Y-23196555D01*
X-2680638Y-23201000D01*
X-3319362Y-23201000D01*
X-3364499Y-23196555D01*
X-3401995Y-23185180D01*
X-3436554Y-23166708D01*
X-3466847Y-23141847D01*
X-3491708Y-23111554D01*
X-3510180Y-23076995D01*
X-3521555Y-23039499D01*
X-3526000Y-22994362D01*
X-3526000Y-22255638D01*
X-3521555Y-22210501D01*
X-3510180Y-22173005D01*
X-3491708Y-22138446D01*
X-3466847Y-22108153D01*
X-3436554Y-22083292D01*
X-3401995Y-22064820D01*
X-3364499Y-22053445D01*
X-3319362Y-22049000D01*
X-2680638Y-22049000D01*
X-2635501Y-22053445D01*
G37*
G36*
X3364499Y-22053445D02*
G01*
X3401995Y-22064820D01*
X3436554Y-22083292D01*
X3466847Y-22108153D01*
X3491708Y-22138446D01*
X3510180Y-22173005D01*
X3521555Y-22210501D01*
X3526000Y-22255638D01*
X3526000Y-22994362D01*
X3521555Y-23039499D01*
X3510180Y-23076995D01*
X3491708Y-23111554D01*
X3466847Y-23141847D01*
X3436554Y-23166708D01*
X3401995Y-23185180D01*
X3364499Y-23196555D01*
X3319362Y-23201000D01*
X2680638Y-23201000D01*
X2635501Y-23196555D01*
X2598005Y-23185180D01*
X2563446Y-23166708D01*
X2533153Y-23141847D01*
X2508292Y-23111554D01*
X2489820Y-23076995D01*
X2478445Y-23039499D01*
X2474000Y-22994362D01*
X2474000Y-22255638D01*
X2478445Y-22210501D01*
X2489820Y-22173005D01*
X2508292Y-22138446D01*
X2533153Y-22108153D01*
X2563446Y-22083292D01*
X2598005Y-22064820D01*
X2635501Y-22053445D01*
X2680638Y-22049000D01*
X3319362Y-22049000D01*
X3364499Y-22053445D01*
G37*
G36*
X-1135501Y-22053445D02*
G01*
X-1098005Y-22064820D01*
X-1063446Y-22083292D01*
X-1033153Y-22108153D01*
X-1008292Y-22138446D01*
X-989820Y-22173005D01*
X-978445Y-22210501D01*
X-974000Y-22255638D01*
X-974000Y-22994362D01*
X-978445Y-23039499D01*
X-989820Y-23076995D01*
X-1008292Y-23111554D01*
X-1033153Y-23141847D01*
X-1063446Y-23166708D01*
X-1098005Y-23185180D01*
X-1135501Y-23196555D01*
X-1180638Y-23201000D01*
X-1819362Y-23201000D01*
X-1864499Y-23196555D01*
X-1901995Y-23185180D01*
X-1936554Y-23166708D01*
X-1966847Y-23141847D01*
X-1991708Y-23111554D01*
X-2010180Y-23076995D01*
X-2021555Y-23039499D01*
X-2026000Y-22994362D01*
X-2026000Y-22255638D01*
X-2021555Y-22210501D01*
X-2010180Y-22173005D01*
X-1991708Y-22138446D01*
X-1966847Y-22108153D01*
X-1936554Y-22083292D01*
X-1901995Y-22064820D01*
X-1864499Y-22053445D01*
X-1819362Y-22049000D01*
X-1180638Y-22049000D01*
X-1135501Y-22053445D01*
G37*
G36*
X1864499Y-22053445D02*
G01*
X1901995Y-22064820D01*
X1936554Y-22083292D01*
X1966847Y-22108153D01*
X1991708Y-22138446D01*
X2010180Y-22173005D01*
X2021555Y-22210501D01*
X2026000Y-22255638D01*
X2026000Y-22994362D01*
X2021555Y-23039499D01*
X2010180Y-23076995D01*
X1991708Y-23111554D01*
X1966847Y-23141847D01*
X1936554Y-23166708D01*
X1901995Y-23185180D01*
X1864499Y-23196555D01*
X1819362Y-23201000D01*
X1180638Y-23201000D01*
X1135501Y-23196555D01*
X1098005Y-23185180D01*
X1063446Y-23166708D01*
X1033153Y-23141847D01*
X1008292Y-23111554D01*
X989820Y-23076995D01*
X978445Y-23039499D01*
X974000Y-22994362D01*
X974000Y-22255638D01*
X978445Y-22210501D01*
X989820Y-22173005D01*
X1008292Y-22138446D01*
X1033153Y-22108153D01*
X1063446Y-22083292D01*
X1098005Y-22064820D01*
X1135501Y-22053445D01*
X1180638Y-22049000D01*
X1819362Y-22049000D01*
X1864499Y-22053445D01*
G37*
G36*
X6364499Y-22053445D02*
G01*
X6401995Y-22064820D01*
X6436554Y-22083292D01*
X6466847Y-22108153D01*
X6491708Y-22138446D01*
X6510180Y-22173005D01*
X6521555Y-22210501D01*
X6526000Y-22255638D01*
X6526000Y-22994362D01*
X6521555Y-23039499D01*
X6510180Y-23076995D01*
X6491708Y-23111554D01*
X6466847Y-23141847D01*
X6436554Y-23166708D01*
X6401995Y-23185180D01*
X6364499Y-23196555D01*
X6319362Y-23201000D01*
X5680638Y-23201000D01*
X5635501Y-23196555D01*
X5598005Y-23185180D01*
X5563446Y-23166708D01*
X5533153Y-23141847D01*
X5508292Y-23111554D01*
X5489820Y-23076995D01*
X5478445Y-23039499D01*
X5474000Y-22994362D01*
X5474000Y-22255638D01*
X5478445Y-22210501D01*
X5489820Y-22173005D01*
X5508292Y-22138446D01*
X5533153Y-22108153D01*
X5563446Y-22083292D01*
X5598005Y-22064820D01*
X5635501Y-22053445D01*
X5680638Y-22049000D01*
X6319362Y-22049000D01*
X6364499Y-22053445D01*
G37*
G36*
X-5635501Y-22053445D02*
G01*
X-5598005Y-22064820D01*
X-5563446Y-22083292D01*
X-5533153Y-22108153D01*
X-5508292Y-22138446D01*
X-5489820Y-22173005D01*
X-5478445Y-22210501D01*
X-5474000Y-22255638D01*
X-5474000Y-22994362D01*
X-5478445Y-23039499D01*
X-5489820Y-23076995D01*
X-5508292Y-23111554D01*
X-5533153Y-23141847D01*
X-5563446Y-23166708D01*
X-5598005Y-23185180D01*
X-5635501Y-23196555D01*
X-5680638Y-23201000D01*
X-6319362Y-23201000D01*
X-6364499Y-23196555D01*
X-6401995Y-23185180D01*
X-6436554Y-23166708D01*
X-6466847Y-23141847D01*
X-6491708Y-23111554D01*
X-6510180Y-23076995D01*
X-6521555Y-23039499D01*
X-6526000Y-22994362D01*
X-6526000Y-22255638D01*
X-6521555Y-22210501D01*
X-6510180Y-22173005D01*
X-6491708Y-22138446D01*
X-6466847Y-22108153D01*
X-6436554Y-22083292D01*
X-6401995Y-22064820D01*
X-6364499Y-22053445D01*
X-6319362Y-22049000D01*
X-5680638Y-22049000D01*
X-5635501Y-22053445D01*
G37*
G36*
X7864499Y-22053445D02*
G01*
X7901995Y-22064820D01*
X7936554Y-22083292D01*
X7966847Y-22108153D01*
X7991708Y-22138446D01*
X8010180Y-22173005D01*
X8021555Y-22210501D01*
X8026000Y-22255638D01*
X8026000Y-22994362D01*
X8021555Y-23039499D01*
X8010180Y-23076995D01*
X7991708Y-23111554D01*
X7966847Y-23141847D01*
X7936554Y-23166708D01*
X7901995Y-23185180D01*
X7864499Y-23196555D01*
X7819362Y-23201000D01*
X7180638Y-23201000D01*
X7135501Y-23196555D01*
X7098005Y-23185180D01*
X7063446Y-23166708D01*
X7033153Y-23141847D01*
X7008292Y-23111554D01*
X6989820Y-23076995D01*
X6978445Y-23039499D01*
X6974000Y-22994362D01*
X6974000Y-22255638D01*
X6978445Y-22210501D01*
X6989820Y-22173005D01*
X7008292Y-22138446D01*
X7033153Y-22108153D01*
X7063446Y-22083292D01*
X7098005Y-22064820D01*
X7135501Y-22053445D01*
X7180638Y-22049000D01*
X7819362Y-22049000D01*
X7864499Y-22053445D01*
G37*
G36*
X-7135501Y-22053445D02*
G01*
X-7098005Y-22064820D01*
X-7063446Y-22083292D01*
X-7033153Y-22108153D01*
X-7008292Y-22138446D01*
X-6989820Y-22173005D01*
X-6978445Y-22210501D01*
X-6974000Y-22255638D01*
X-6974000Y-22994362D01*
X-6978445Y-23039499D01*
X-6989820Y-23076995D01*
X-7008292Y-23111554D01*
X-7033153Y-23141847D01*
X-7063446Y-23166708D01*
X-7098005Y-23185180D01*
X-7135501Y-23196555D01*
X-7180638Y-23201000D01*
X-7819362Y-23201000D01*
X-7864499Y-23196555D01*
X-7901995Y-23185180D01*
X-7936554Y-23166708D01*
X-7966847Y-23141847D01*
X-7991708Y-23111554D01*
X-8010180Y-23076995D01*
X-8021555Y-23039499D01*
X-8026000Y-22994362D01*
X-8026000Y-22255638D01*
X-8021555Y-22210501D01*
X-8010180Y-22173005D01*
X-7991708Y-22138446D01*
X-7966847Y-22108153D01*
X-7936554Y-22083292D01*
X-7901995Y-22064820D01*
X-7864499Y-22053445D01*
X-7819362Y-22049000D01*
X-7180638Y-22049000D01*
X-7135501Y-22053445D01*
G37*
G36*
X9364499Y-22053445D02*
G01*
X9401995Y-22064820D01*
X9436554Y-22083292D01*
X9466847Y-22108153D01*
X9491708Y-22138446D01*
X9510180Y-22173005D01*
X9521555Y-22210501D01*
X9526000Y-22255638D01*
X9526000Y-22994362D01*
X9521555Y-23039499D01*
X9510180Y-23076995D01*
X9491708Y-23111554D01*
X9466847Y-23141847D01*
X9436554Y-23166708D01*
X9401995Y-23185180D01*
X9364499Y-23196555D01*
X9319362Y-23201000D01*
X8680638Y-23201000D01*
X8635501Y-23196555D01*
X8598005Y-23185180D01*
X8563446Y-23166708D01*
X8533153Y-23141847D01*
X8508292Y-23111554D01*
X8489820Y-23076995D01*
X8478445Y-23039499D01*
X8474000Y-22994362D01*
X8474000Y-22255638D01*
X8478445Y-22210501D01*
X8489820Y-22173005D01*
X8508292Y-22138446D01*
X8533153Y-22108153D01*
X8563446Y-22083292D01*
X8598005Y-22064820D01*
X8635501Y-22053445D01*
X8680638Y-22049000D01*
X9319362Y-22049000D01*
X9364499Y-22053445D01*
G37*
G36*
X-8635501Y-22053445D02*
G01*
X-8598005Y-22064820D01*
X-8563446Y-22083292D01*
X-8533153Y-22108153D01*
X-8508292Y-22138446D01*
X-8489820Y-22173005D01*
X-8478445Y-22210501D01*
X-8474000Y-22255638D01*
X-8474000Y-22994362D01*
X-8478445Y-23039499D01*
X-8489820Y-23076995D01*
X-8508292Y-23111554D01*
X-8533153Y-23141847D01*
X-8563446Y-23166708D01*
X-8598005Y-23185180D01*
X-8635501Y-23196555D01*
X-8680638Y-23201000D01*
X-9319362Y-23201000D01*
X-9364499Y-23196555D01*
X-9401995Y-23185180D01*
X-9436554Y-23166708D01*
X-9466847Y-23141847D01*
X-9491708Y-23111554D01*
X-9510180Y-23076995D01*
X-9521555Y-23039499D01*
X-9526000Y-22994362D01*
X-9526000Y-22255638D01*
X-9521555Y-22210501D01*
X-9510180Y-22173005D01*
X-9491708Y-22138446D01*
X-9466847Y-22108153D01*
X-9436554Y-22083292D01*
X-9401995Y-22064820D01*
X-9364499Y-22053445D01*
X-9319362Y-22049000D01*
X-8680638Y-22049000D01*
X-8635501Y-22053445D01*
G37*
G36*
X10864499Y-22053445D02*
G01*
X10901995Y-22064820D01*
X10936554Y-22083292D01*
X10966847Y-22108153D01*
X10991708Y-22138446D01*
X11010180Y-22173005D01*
X11021555Y-22210501D01*
X11026000Y-22255638D01*
X11026000Y-22994362D01*
X11021555Y-23039499D01*
X11010180Y-23076995D01*
X10991708Y-23111554D01*
X10966847Y-23141847D01*
X10936554Y-23166708D01*
X10901995Y-23185180D01*
X10864499Y-23196555D01*
X10819362Y-23201000D01*
X10180638Y-23201000D01*
X10135501Y-23196555D01*
X10098005Y-23185180D01*
X10063446Y-23166708D01*
X10033153Y-23141847D01*
X10008292Y-23111554D01*
X9989820Y-23076995D01*
X9978445Y-23039499D01*
X9974000Y-22994362D01*
X9974000Y-22255638D01*
X9978445Y-22210501D01*
X9989820Y-22173005D01*
X10008292Y-22138446D01*
X10033153Y-22108153D01*
X10063446Y-22083292D01*
X10098005Y-22064820D01*
X10135501Y-22053445D01*
X10180638Y-22049000D01*
X10819362Y-22049000D01*
X10864499Y-22053445D01*
G37*
G36*
X-10135501Y-22053445D02*
G01*
X-10098005Y-22064820D01*
X-10063446Y-22083292D01*
X-10033153Y-22108153D01*
X-10008292Y-22138446D01*
X-9989820Y-22173005D01*
X-9978445Y-22210501D01*
X-9974000Y-22255638D01*
X-9974000Y-22994362D01*
X-9978445Y-23039499D01*
X-9989820Y-23076995D01*
X-10008292Y-23111554D01*
X-10033153Y-23141847D01*
X-10063446Y-23166708D01*
X-10098005Y-23185180D01*
X-10135501Y-23196555D01*
X-10180638Y-23201000D01*
X-10819362Y-23201000D01*
X-10864499Y-23196555D01*
X-10901995Y-23185180D01*
X-10936554Y-23166708D01*
X-10966847Y-23141847D01*
X-10991708Y-23111554D01*
X-11010180Y-23076995D01*
X-11021555Y-23039499D01*
X-11026000Y-22994362D01*
X-11026000Y-22255638D01*
X-11021555Y-22210501D01*
X-11010180Y-22173005D01*
X-10991708Y-22138446D01*
X-10966847Y-22108153D01*
X-10936554Y-22083292D01*
X-10901995Y-22064820D01*
X-10864499Y-22053445D01*
X-10819362Y-22049000D01*
X-10180638Y-22049000D01*
X-10135501Y-22053445D01*
G37*
G36*
X18622000Y-18849000D02*
G01*
X11074000Y-18849000D01*
X11074000Y-17247000D01*
X18622000Y-17247000D01*
X18622000Y-18849000D01*
G37*
G36*
X19926000Y-18849000D02*
G01*
X18874000Y-18849000D01*
X18874000Y-17247000D01*
X19926000Y-17247000D01*
X19926000Y-18849000D01*
G37*
G36*
X-11074000Y-18849000D02*
G01*
X-19926000Y-18849000D01*
X-19926000Y-17247000D01*
X-11074000Y-17247000D01*
X-11074000Y-18849000D01*
G37*
G36*
X3697222Y-16209867D02*
G01*
X3838786Y-16252810D01*
X3969252Y-16322546D01*
X3999040Y-16346992D01*
X4083607Y-16416393D01*
X4153008Y-16500960D01*
X4177454Y-16530748D01*
X4247190Y-16661214D01*
X4290133Y-16802778D01*
X4301000Y-16913113D01*
X4301000Y-17486887D01*
X4290133Y-17597222D01*
X4247190Y-17738786D01*
X4177454Y-17869252D01*
X4140784Y-17913934D01*
X4083607Y-17983606D01*
X4019415Y-18036286D01*
X3969251Y-18077454D01*
X3838785Y-18147190D01*
X3697221Y-18190133D01*
X3550000Y-18204633D01*
X3402778Y-18190133D01*
X3261214Y-18147190D01*
X3130748Y-18077454D01*
X3086066Y-18040784D01*
X3016394Y-17983607D01*
X2922547Y-17869252D01*
X2922546Y-17869251D01*
X2852810Y-17738785D01*
X2809867Y-17597221D01*
X2799000Y-17486886D01*
X2799000Y-16913113D01*
X2809867Y-16802778D01*
X2852810Y-16661214D01*
X2922546Y-16530748D01*
X2955818Y-16490206D01*
X3016394Y-16416393D01*
X3100961Y-16346992D01*
X3130749Y-16322546D01*
X3261215Y-16252810D01*
X3402779Y-16209867D01*
X3550000Y-16195367D01*
X3697222Y-16209867D01*
G37*
G36*
X-3402778Y-16209867D02*
G01*
X-3261214Y-16252810D01*
X-3130748Y-16322546D01*
X-3100960Y-16346992D01*
X-3016393Y-16416393D01*
X-2946992Y-16500960D01*
X-2922546Y-16530748D01*
X-2852810Y-16661214D01*
X-2809867Y-16802778D01*
X-2799000Y-16913113D01*
X-2799000Y-17486887D01*
X-2809867Y-17597222D01*
X-2852810Y-17738786D01*
X-2922546Y-17869252D01*
X-2959216Y-17913934D01*
X-3016393Y-17983606D01*
X-3080585Y-18036286D01*
X-3130749Y-18077454D01*
X-3261215Y-18147190D01*
X-3402779Y-18190133D01*
X-3550000Y-18204633D01*
X-3697222Y-18190133D01*
X-3838786Y-18147190D01*
X-3969252Y-18077454D01*
X-4013934Y-18040784D01*
X-4083606Y-17983607D01*
X-4177453Y-17869252D01*
X-4177454Y-17869251D01*
X-4247190Y-17738785D01*
X-4290133Y-17597221D01*
X-4301000Y-17486886D01*
X-4301000Y-16913113D01*
X-4290133Y-16802778D01*
X-4247190Y-16661214D01*
X-4177454Y-16530748D01*
X-4144182Y-16490206D01*
X-4083606Y-16416393D01*
X-3999039Y-16346992D01*
X-3969251Y-16322546D01*
X-3838785Y-16252810D01*
X-3697221Y-16209867D01*
X-3550000Y-16195367D01*
X-3402778Y-16209867D01*
G37*
G36*
X1801000Y-14601000D02*
G01*
X799000Y-14601000D01*
X799000Y-9999000D01*
X1801000Y-9999000D01*
X1801000Y-14601000D01*
G37*
G36*
X-799000Y-14601000D02*
G01*
X-1801000Y-14601000D01*
X-1801000Y-9999000D01*
X-799000Y-9999000D01*
X-799000Y-14601000D01*
G37*
G36*
X8275562Y-11528181D02*
G01*
X8310481Y-11538774D01*
X8342663Y-11555976D01*
X8370873Y-11579127D01*
X8394024Y-11607337D01*
X8411226Y-11639519D01*
X8421819Y-11674438D01*
X8426000Y-11716895D01*
X8426000Y-12858105D01*
X8421819Y-12900562D01*
X8411226Y-12935481D01*
X8394024Y-12967663D01*
X8370873Y-12995873D01*
X8342663Y-13019024D01*
X8310481Y-13036226D01*
X8275562Y-13046819D01*
X8233105Y-13051000D01*
X6766895Y-13051000D01*
X6724438Y-13046819D01*
X6689519Y-13036226D01*
X6657337Y-13019024D01*
X6629127Y-12995873D01*
X6605976Y-12967663D01*
X6588774Y-12935481D01*
X6578181Y-12900562D01*
X6574000Y-12858105D01*
X6574000Y-11716895D01*
X6578181Y-11674438D01*
X6588774Y-11639519D01*
X6605976Y-11607337D01*
X6629127Y-11579127D01*
X6657337Y-11555976D01*
X6689519Y-11538774D01*
X6724438Y-11528181D01*
X6766895Y-11524000D01*
X8233105Y-11524000D01*
X8275562Y-11528181D01*
G37*
G36*
X19926000Y-12753000D02*
G01*
X11074000Y-12753000D01*
X11074000Y-11151000D01*
X19926000Y-11151000D01*
X19926000Y-12753000D01*
G37*
G36*
X-11074000Y-12753000D02*
G01*
X-18622000Y-12753000D01*
X-18622000Y-11151000D01*
X-11074000Y-11151000D01*
X-11074000Y-12753000D01*
G37*
G36*
X-18874000Y-12753000D02*
G01*
X-19926000Y-12753000D01*
X-19926000Y-11151000D01*
X-18874000Y-11151000D01*
X-18874000Y-12753000D01*
G37*
G36*
X24789499Y-9978445D02*
G01*
X24826995Y-9989820D01*
X24861554Y-10008292D01*
X24891847Y-10033153D01*
X24916708Y-10063446D01*
X24935180Y-10098005D01*
X24946555Y-10135501D01*
X24951000Y-10180638D01*
X24951000Y-10819362D01*
X24946555Y-10864499D01*
X24935180Y-10901995D01*
X24916708Y-10936554D01*
X24891847Y-10966847D01*
X24861554Y-10991708D01*
X24826995Y-11010180D01*
X24789499Y-11021555D01*
X24744362Y-11026000D01*
X24005638Y-11026000D01*
X23960501Y-11021555D01*
X23923005Y-11010180D01*
X23888446Y-10991708D01*
X23858153Y-10966847D01*
X23833292Y-10936554D01*
X23814820Y-10901995D01*
X23803445Y-10864499D01*
X23799000Y-10819362D01*
X23799000Y-10180638D01*
X23803445Y-10135501D01*
X23814820Y-10098005D01*
X23833292Y-10063446D01*
X23858153Y-10033153D01*
X23888446Y-10008292D01*
X23923005Y-9989820D01*
X23960501Y-9978445D01*
X24005638Y-9974000D01*
X24744362Y-9974000D01*
X24789499Y-9978445D01*
G37*
G36*
X-23960501Y-9978445D02*
G01*
X-23923005Y-9989820D01*
X-23888446Y-10008292D01*
X-23858153Y-10033153D01*
X-23833292Y-10063446D01*
X-23814820Y-10098005D01*
X-23803445Y-10135501D01*
X-23799000Y-10180638D01*
X-23799000Y-10819362D01*
X-23803445Y-10864499D01*
X-23814820Y-10901995D01*
X-23833292Y-10936554D01*
X-23858153Y-10966847D01*
X-23888446Y-10991708D01*
X-23923005Y-11010180D01*
X-23960501Y-11021555D01*
X-24005638Y-11026000D01*
X-24744362Y-11026000D01*
X-24789499Y-11021555D01*
X-24826995Y-11010180D01*
X-24861554Y-10991708D01*
X-24891847Y-10966847D01*
X-24916708Y-10936554D01*
X-24935180Y-10901995D01*
X-24946555Y-10864499D01*
X-24951000Y-10819362D01*
X-24951000Y-10180638D01*
X-24946555Y-10135501D01*
X-24935180Y-10098005D01*
X-24916708Y-10063446D01*
X-24891847Y-10033153D01*
X-24861554Y-10008292D01*
X-24826995Y-9989820D01*
X-24789499Y-9978445D01*
X-24744362Y-9974000D01*
X-24005638Y-9974000D01*
X-23960501Y-9978445D01*
G37*
G36*
X23039499Y-9978445D02*
G01*
X23076995Y-9989820D01*
X23111554Y-10008292D01*
X23141847Y-10033153D01*
X23166708Y-10063446D01*
X23185180Y-10098005D01*
X23196555Y-10135501D01*
X23201000Y-10180638D01*
X23201000Y-10819362D01*
X23196555Y-10864499D01*
X23185180Y-10901995D01*
X23166708Y-10936554D01*
X23141847Y-10966847D01*
X23111554Y-10991708D01*
X23076995Y-11010180D01*
X23039499Y-11021555D01*
X22994362Y-11026000D01*
X22255638Y-11026000D01*
X22210501Y-11021555D01*
X22173005Y-11010180D01*
X22138446Y-10991708D01*
X22108153Y-10966847D01*
X22083292Y-10936554D01*
X22064820Y-10901995D01*
X22053445Y-10864499D01*
X22049000Y-10819362D01*
X22049000Y-10180638D01*
X22053445Y-10135501D01*
X22064820Y-10098005D01*
X22083292Y-10063446D01*
X22108153Y-10033153D01*
X22138446Y-10008292D01*
X22173005Y-9989820D01*
X22210501Y-9978445D01*
X22255638Y-9974000D01*
X22994362Y-9974000D01*
X23039499Y-9978445D01*
G37*
G36*
X-22210501Y-9978445D02*
G01*
X-22173005Y-9989820D01*
X-22138446Y-10008292D01*
X-22108153Y-10033153D01*
X-22083292Y-10063446D01*
X-22064820Y-10098005D01*
X-22053445Y-10135501D01*
X-22049000Y-10180638D01*
X-22049000Y-10819362D01*
X-22053445Y-10864499D01*
X-22064820Y-10901995D01*
X-22083292Y-10936554D01*
X-22108153Y-10966847D01*
X-22138446Y-10991708D01*
X-22173005Y-11010180D01*
X-22210501Y-11021555D01*
X-22255638Y-11026000D01*
X-22994362Y-11026000D01*
X-23039499Y-11021555D01*
X-23076995Y-11010180D01*
X-23111554Y-10991708D01*
X-23141847Y-10966847D01*
X-23166708Y-10936554D01*
X-23185180Y-10901995D01*
X-23196555Y-10864499D01*
X-23201000Y-10819362D01*
X-23201000Y-10180638D01*
X-23196555Y-10135501D01*
X-23185180Y-10098005D01*
X-23166708Y-10063446D01*
X-23141847Y-10033153D01*
X-23111554Y-10008292D01*
X-23076995Y-9989820D01*
X-23039499Y-9978445D01*
X-22994362Y-9974000D01*
X-22255638Y-9974000D01*
X-22210501Y-9978445D01*
G37*
G36*
X8275562Y-8553181D02*
G01*
X8310481Y-8563774D01*
X8342663Y-8580976D01*
X8370873Y-8604127D01*
X8394024Y-8632337D01*
X8411226Y-8664519D01*
X8421819Y-8699438D01*
X8426000Y-8741895D01*
X8426000Y-9883105D01*
X8421819Y-9925562D01*
X8411226Y-9960481D01*
X8394024Y-9992663D01*
X8370873Y-10020873D01*
X8342663Y-10044024D01*
X8310481Y-10061226D01*
X8275562Y-10071819D01*
X8233105Y-10076000D01*
X6766895Y-10076000D01*
X6724438Y-10071819D01*
X6689519Y-10061226D01*
X6657337Y-10044024D01*
X6629127Y-10020873D01*
X6605976Y-9992663D01*
X6588774Y-9960481D01*
X6578181Y-9925562D01*
X6574000Y-9883105D01*
X6574000Y-8741895D01*
X6578181Y-8699438D01*
X6588774Y-8664519D01*
X6605976Y-8632337D01*
X6629127Y-8604127D01*
X6657337Y-8580976D01*
X6689519Y-8563774D01*
X6724438Y-8553181D01*
X6766895Y-8549000D01*
X8233105Y-8549000D01*
X8275562Y-8553181D01*
G37*
G36*
X-7935501Y-8703445D02*
G01*
X-7898005Y-8714820D01*
X-7863446Y-8733292D01*
X-7833153Y-8758153D01*
X-7808292Y-8788446D01*
X-7789820Y-8823005D01*
X-7778445Y-8860501D01*
X-7774000Y-8905638D01*
X-7774000Y-9644362D01*
X-7778445Y-9689499D01*
X-7789820Y-9726995D01*
X-7808292Y-9761554D01*
X-7833153Y-9791847D01*
X-7863446Y-9816708D01*
X-7898005Y-9835180D01*
X-7935501Y-9846555D01*
X-7980638Y-9851000D01*
X-8619362Y-9851000D01*
X-8664499Y-9846555D01*
X-8701995Y-9835180D01*
X-8736554Y-9816708D01*
X-8766847Y-9791847D01*
X-8791708Y-9761554D01*
X-8810180Y-9726995D01*
X-8821555Y-9689499D01*
X-8826000Y-9644362D01*
X-8826000Y-8905638D01*
X-8821555Y-8860501D01*
X-8810180Y-8823005D01*
X-8791708Y-8788446D01*
X-8766847Y-8758153D01*
X-8736554Y-8733292D01*
X-8701995Y-8714820D01*
X-8664499Y-8703445D01*
X-8619362Y-8699000D01*
X-7980638Y-8699000D01*
X-7935501Y-8703445D01*
G37*
G36*
X-9435501Y-8703445D02*
G01*
X-9398005Y-8714820D01*
X-9363446Y-8733292D01*
X-9333153Y-8758153D01*
X-9308292Y-8788446D01*
X-9289820Y-8823005D01*
X-9278445Y-8860501D01*
X-9274000Y-8905638D01*
X-9274000Y-9644362D01*
X-9278445Y-9689499D01*
X-9289820Y-9726995D01*
X-9308292Y-9761554D01*
X-9333153Y-9791847D01*
X-9363446Y-9816708D01*
X-9398005Y-9835180D01*
X-9435501Y-9846555D01*
X-9480638Y-9851000D01*
X-10119362Y-9851000D01*
X-10164499Y-9846555D01*
X-10201995Y-9835180D01*
X-10236554Y-9816708D01*
X-10266847Y-9791847D01*
X-10291708Y-9761554D01*
X-10310180Y-9726995D01*
X-10321555Y-9689499D01*
X-10326000Y-9644362D01*
X-10326000Y-8905638D01*
X-10321555Y-8860501D01*
X-10310180Y-8823005D01*
X-10291708Y-8788446D01*
X-10266847Y-8758153D01*
X-10236554Y-8733292D01*
X-10201995Y-8714820D01*
X-10164499Y-8703445D01*
X-10119362Y-8699000D01*
X-9480638Y-8699000D01*
X-9435501Y-8703445D01*
G37*
G36*
X-23960501Y-8478445D02*
G01*
X-23923005Y-8489820D01*
X-23888446Y-8508292D01*
X-23858153Y-8533153D01*
X-23833292Y-8563446D01*
X-23814820Y-8598005D01*
X-23803445Y-8635501D01*
X-23799000Y-8680638D01*
X-23799000Y-9319362D01*
X-23803445Y-9364499D01*
X-23814820Y-9401995D01*
X-23833292Y-9436554D01*
X-23858153Y-9466847D01*
X-23888446Y-9491708D01*
X-23923005Y-9510180D01*
X-23960501Y-9521555D01*
X-24005638Y-9526000D01*
X-24744362Y-9526000D01*
X-24789499Y-9521555D01*
X-24826995Y-9510180D01*
X-24861554Y-9491708D01*
X-24891847Y-9466847D01*
X-24916708Y-9436554D01*
X-24935180Y-9401995D01*
X-24946555Y-9364499D01*
X-24951000Y-9319362D01*
X-24951000Y-8680638D01*
X-24946555Y-8635501D01*
X-24935180Y-8598005D01*
X-24916708Y-8563446D01*
X-24891847Y-8533153D01*
X-24861554Y-8508292D01*
X-24826995Y-8489820D01*
X-24789499Y-8478445D01*
X-24744362Y-8474000D01*
X-24005638Y-8474000D01*
X-23960501Y-8478445D01*
G37*
G36*
X-22210501Y-8478445D02*
G01*
X-22173005Y-8489820D01*
X-22138446Y-8508292D01*
X-22108153Y-8533153D01*
X-22083292Y-8563446D01*
X-22064820Y-8598005D01*
X-22053445Y-8635501D01*
X-22049000Y-8680638D01*
X-22049000Y-9319362D01*
X-22053445Y-9364499D01*
X-22064820Y-9401995D01*
X-22083292Y-9436554D01*
X-22108153Y-9466847D01*
X-22138446Y-9491708D01*
X-22173005Y-9510180D01*
X-22210501Y-9521555D01*
X-22255638Y-9526000D01*
X-22994362Y-9526000D01*
X-23039499Y-9521555D01*
X-23076995Y-9510180D01*
X-23111554Y-9491708D01*
X-23141847Y-9466847D01*
X-23166708Y-9436554D01*
X-23185180Y-9401995D01*
X-23196555Y-9364499D01*
X-23201000Y-9319362D01*
X-23201000Y-8680638D01*
X-23196555Y-8635501D01*
X-23185180Y-8598005D01*
X-23166708Y-8563446D01*
X-23141847Y-8533153D01*
X-23111554Y-8508292D01*
X-23076995Y-8489820D01*
X-23039499Y-8478445D01*
X-22994362Y-8474000D01*
X-22255638Y-8474000D01*
X-22210501Y-8478445D01*
G37*
G36*
X23039499Y-8478445D02*
G01*
X23076995Y-8489820D01*
X23111554Y-8508292D01*
X23141847Y-8533153D01*
X23166708Y-8563446D01*
X23185180Y-8598005D01*
X23196555Y-8635501D01*
X23201000Y-8680638D01*
X23201000Y-9319362D01*
X23196555Y-9364499D01*
X23185180Y-9401995D01*
X23166708Y-9436554D01*
X23141847Y-9466847D01*
X23111554Y-9491708D01*
X23076995Y-9510180D01*
X23039499Y-9521555D01*
X22994362Y-9526000D01*
X22255638Y-9526000D01*
X22210501Y-9521555D01*
X22173005Y-9510180D01*
X22138446Y-9491708D01*
X22108153Y-9466847D01*
X22083292Y-9436554D01*
X22064820Y-9401995D01*
X22053445Y-9364499D01*
X22049000Y-9319362D01*
X22049000Y-8680638D01*
X22053445Y-8635501D01*
X22064820Y-8598005D01*
X22083292Y-8563446D01*
X22108153Y-8533153D01*
X22138446Y-8508292D01*
X22173005Y-8489820D01*
X22210501Y-8478445D01*
X22255638Y-8474000D01*
X22994362Y-8474000D01*
X23039499Y-8478445D01*
G37*
G36*
X24789499Y-8478445D02*
G01*
X24826995Y-8489820D01*
X24861554Y-8508292D01*
X24891847Y-8533153D01*
X24916708Y-8563446D01*
X24935180Y-8598005D01*
X24946555Y-8635501D01*
X24951000Y-8680638D01*
X24951000Y-9319362D01*
X24946555Y-9364499D01*
X24935180Y-9401995D01*
X24916708Y-9436554D01*
X24891847Y-9466847D01*
X24861554Y-9491708D01*
X24826995Y-9510180D01*
X24789499Y-9521555D01*
X24744362Y-9526000D01*
X24005638Y-9526000D01*
X23960501Y-9521555D01*
X23923005Y-9510180D01*
X23888446Y-9491708D01*
X23858153Y-9466847D01*
X23833292Y-9436554D01*
X23814820Y-9401995D01*
X23803445Y-9364499D01*
X23799000Y-9319362D01*
X23799000Y-8680638D01*
X23803445Y-8635501D01*
X23814820Y-8598005D01*
X23833292Y-8563446D01*
X23858153Y-8533153D01*
X23888446Y-8508292D01*
X23923005Y-8489820D01*
X23960501Y-8478445D01*
X24005638Y-8474000D01*
X24744362Y-8474000D01*
X24789499Y-8478445D01*
G37*
G36*
X-17060501Y-7678445D02*
G01*
X-17023005Y-7689820D01*
X-16988446Y-7708292D01*
X-16958153Y-7733153D01*
X-16933292Y-7763446D01*
X-16914820Y-7798005D01*
X-16903445Y-7835501D01*
X-16899000Y-7880638D01*
X-16899000Y-8519362D01*
X-16903445Y-8564499D01*
X-16914820Y-8601995D01*
X-16933292Y-8636554D01*
X-16958153Y-8666847D01*
X-16988446Y-8691708D01*
X-17023005Y-8710180D01*
X-17060501Y-8721555D01*
X-17105638Y-8726000D01*
X-17844362Y-8726000D01*
X-17889499Y-8721555D01*
X-17926995Y-8710180D01*
X-17961554Y-8691708D01*
X-17991847Y-8666847D01*
X-18016708Y-8636554D01*
X-18035180Y-8601995D01*
X-18046555Y-8564499D01*
X-18051000Y-8519362D01*
X-18051000Y-7880638D01*
X-18046555Y-7835501D01*
X-18035180Y-7798005D01*
X-18016708Y-7763446D01*
X-17991847Y-7733153D01*
X-17961554Y-7708292D01*
X-17926995Y-7689820D01*
X-17889499Y-7678445D01*
X-17844362Y-7674000D01*
X-17105638Y-7674000D01*
X-17060501Y-7678445D01*
G37*
G36*
X-15310501Y-7678445D02*
G01*
X-15273005Y-7689820D01*
X-15238446Y-7708292D01*
X-15208153Y-7733153D01*
X-15183292Y-7763446D01*
X-15164820Y-7798005D01*
X-15153445Y-7835501D01*
X-15149000Y-7880638D01*
X-15149000Y-8519362D01*
X-15153445Y-8564499D01*
X-15164820Y-8601995D01*
X-15183292Y-8636554D01*
X-15208153Y-8666847D01*
X-15238446Y-8691708D01*
X-15273005Y-8710180D01*
X-15310501Y-8721555D01*
X-15355638Y-8726000D01*
X-16094362Y-8726000D01*
X-16139499Y-8721555D01*
X-16176995Y-8710180D01*
X-16211554Y-8691708D01*
X-16241847Y-8666847D01*
X-16266708Y-8636554D01*
X-16285180Y-8601995D01*
X-16296555Y-8564499D01*
X-16301000Y-8519362D01*
X-16301000Y-7880638D01*
X-16296555Y-7835501D01*
X-16285180Y-7798005D01*
X-16266708Y-7763446D01*
X-16241847Y-7733153D01*
X-16211554Y-7708292D01*
X-16176995Y-7689820D01*
X-16139499Y-7678445D01*
X-16094362Y-7674000D01*
X-15355638Y-7674000D01*
X-15310501Y-7678445D01*
G37*
G36*
X-2208019Y-6537468D02*
G01*
X-2025849Y-6612926D01*
X-1861900Y-6722473D01*
X-1722473Y-6861900D01*
X-1617955Y-7018323D01*
X-1612925Y-7025851D01*
X-1607708Y-7038446D01*
X-1537468Y-7208019D01*
X-1499000Y-7401410D01*
X-1499000Y-7598590D01*
X-1537468Y-7791981D01*
X-1546717Y-7814309D01*
X-1609900Y-7966847D01*
X-1612926Y-7974151D01*
X-1722473Y-8138100D01*
X-1861900Y-8277527D01*
X-2025849Y-8387074D01*
X-2208019Y-8462532D01*
X-2304715Y-8481766D01*
X-2401409Y-8501000D01*
X-2598591Y-8501000D01*
X-2695285Y-8481766D01*
X-2791981Y-8462532D01*
X-2974151Y-8387074D01*
X-3138100Y-8277527D01*
X-3277527Y-8138100D01*
X-3387074Y-7974151D01*
X-3390099Y-7966847D01*
X-3453283Y-7814309D01*
X-3462532Y-7791981D01*
X-3501000Y-7598590D01*
X-3501000Y-7401410D01*
X-3462532Y-7208019D01*
X-3392292Y-7038446D01*
X-3387075Y-7025851D01*
X-3382045Y-7018323D01*
X-3277527Y-6861900D01*
X-3138100Y-6722473D01*
X-2974151Y-6612926D01*
X-2791981Y-6537468D01*
X-2598591Y-6499000D01*
X-2401409Y-6499000D01*
X-2208019Y-6537468D01*
G37*
G36*
X291981Y-6537468D02*
G01*
X474151Y-6612926D01*
X638100Y-6722473D01*
X777527Y-6861900D01*
X882045Y-7018323D01*
X887075Y-7025851D01*
X892292Y-7038446D01*
X962532Y-7208019D01*
X1001000Y-7401410D01*
X1001000Y-7598590D01*
X962532Y-7791981D01*
X953283Y-7814309D01*
X890100Y-7966847D01*
X887074Y-7974151D01*
X777527Y-8138100D01*
X638100Y-8277527D01*
X474151Y-8387074D01*
X291981Y-8462532D01*
X195285Y-8481766D01*
X98591Y-8501000D01*
X-98591Y-8501000D01*
X-195285Y-8481766D01*
X-291981Y-8462532D01*
X-474151Y-8387074D01*
X-638100Y-8277527D01*
X-777527Y-8138100D01*
X-887074Y-7974151D01*
X-890099Y-7966847D01*
X-953283Y-7814309D01*
X-962532Y-7791981D01*
X-1001000Y-7598590D01*
X-1001000Y-7401410D01*
X-962532Y-7208019D01*
X-892292Y-7038446D01*
X-887075Y-7025851D01*
X-882045Y-7018323D01*
X-777527Y-6861900D01*
X-638100Y-6722473D01*
X-474151Y-6612926D01*
X-291981Y-6537468D01*
X-98591Y-6499000D01*
X98591Y-6499000D01*
X291981Y-6537468D01*
G37*
G36*
X2791981Y-6537468D02*
G01*
X2974151Y-6612926D01*
X3138100Y-6722473D01*
X3277527Y-6861900D01*
X3382045Y-7018323D01*
X3387075Y-7025851D01*
X3392292Y-7038446D01*
X3462532Y-7208019D01*
X3501000Y-7401410D01*
X3501000Y-7598590D01*
X3462532Y-7791981D01*
X3453283Y-7814309D01*
X3390100Y-7966847D01*
X3387074Y-7974151D01*
X3277527Y-8138100D01*
X3138100Y-8277527D01*
X2974151Y-8387074D01*
X2791981Y-8462532D01*
X2695285Y-8481766D01*
X2598591Y-8501000D01*
X2401409Y-8501000D01*
X2304715Y-8481766D01*
X2208019Y-8462532D01*
X2025849Y-8387074D01*
X1861900Y-8277527D01*
X1722473Y-8138100D01*
X1612926Y-7974151D01*
X1609901Y-7966847D01*
X1546717Y-7814309D01*
X1537468Y-7791981D01*
X1499000Y-7598590D01*
X1499000Y-7401410D01*
X1537468Y-7208019D01*
X1607708Y-7038446D01*
X1612925Y-7025851D01*
X1617955Y-7018323D01*
X1722473Y-6861900D01*
X1861900Y-6722473D01*
X2025849Y-6612926D01*
X2208019Y-6537468D01*
X2401409Y-6499000D01*
X2598591Y-6499000D01*
X2791981Y-6537468D01*
G37*
G36*
X-9435501Y-6953445D02*
G01*
X-9398005Y-6964820D01*
X-9363446Y-6983292D01*
X-9333153Y-7008153D01*
X-9308292Y-7038446D01*
X-9289820Y-7073005D01*
X-9278445Y-7110501D01*
X-9274000Y-7155638D01*
X-9274000Y-7894362D01*
X-9278445Y-7939499D01*
X-9289820Y-7976995D01*
X-9308292Y-8011554D01*
X-9333153Y-8041847D01*
X-9363446Y-8066708D01*
X-9398005Y-8085180D01*
X-9435501Y-8096555D01*
X-9480638Y-8101000D01*
X-10119362Y-8101000D01*
X-10164499Y-8096555D01*
X-10201995Y-8085180D01*
X-10236554Y-8066708D01*
X-10266847Y-8041847D01*
X-10291708Y-8011554D01*
X-10310180Y-7976995D01*
X-10321555Y-7939499D01*
X-10326000Y-7894362D01*
X-10326000Y-7155638D01*
X-10321555Y-7110501D01*
X-10310180Y-7073005D01*
X-10291708Y-7038446D01*
X-10266847Y-7008153D01*
X-10236554Y-6983292D01*
X-10201995Y-6964820D01*
X-10164499Y-6953445D01*
X-10119362Y-6949000D01*
X-9480638Y-6949000D01*
X-9435501Y-6953445D01*
G37*
G36*
X-7935501Y-6953445D02*
G01*
X-7898005Y-6964820D01*
X-7863446Y-6983292D01*
X-7833153Y-7008153D01*
X-7808292Y-7038446D01*
X-7789820Y-7073005D01*
X-7778445Y-7110501D01*
X-7774000Y-7155638D01*
X-7774000Y-7894362D01*
X-7778445Y-7939499D01*
X-7789820Y-7976995D01*
X-7808292Y-8011554D01*
X-7833153Y-8041847D01*
X-7863446Y-8066708D01*
X-7898005Y-8085180D01*
X-7935501Y-8096555D01*
X-7980638Y-8101000D01*
X-8619362Y-8101000D01*
X-8664499Y-8096555D01*
X-8701995Y-8085180D01*
X-8736554Y-8066708D01*
X-8766847Y-8041847D01*
X-8791708Y-8011554D01*
X-8810180Y-7976995D01*
X-8821555Y-7939499D01*
X-8826000Y-7894362D01*
X-8826000Y-7155638D01*
X-8821555Y-7110501D01*
X-8810180Y-7073005D01*
X-8791708Y-7038446D01*
X-8766847Y-7008153D01*
X-8736554Y-6983292D01*
X-8701995Y-6964820D01*
X-8664499Y-6953445D01*
X-8619362Y-6949000D01*
X-7980638Y-6949000D01*
X-7935501Y-6953445D01*
G37*
G36*
X-23960501Y-6978445D02*
G01*
X-23923005Y-6989820D01*
X-23888446Y-7008292D01*
X-23858153Y-7033153D01*
X-23833292Y-7063446D01*
X-23814820Y-7098005D01*
X-23803445Y-7135501D01*
X-23799000Y-7180638D01*
X-23799000Y-7819362D01*
X-23803445Y-7864499D01*
X-23814820Y-7901995D01*
X-23833292Y-7936554D01*
X-23858153Y-7966847D01*
X-23888446Y-7991708D01*
X-23923005Y-8010180D01*
X-23960501Y-8021555D01*
X-24005638Y-8026000D01*
X-24744362Y-8026000D01*
X-24789499Y-8021555D01*
X-24826995Y-8010180D01*
X-24861554Y-7991708D01*
X-24891847Y-7966847D01*
X-24916708Y-7936554D01*
X-24935180Y-7901995D01*
X-24946555Y-7864499D01*
X-24951000Y-7819362D01*
X-24951000Y-7180638D01*
X-24946555Y-7135501D01*
X-24935180Y-7098005D01*
X-24916708Y-7063446D01*
X-24891847Y-7033153D01*
X-24861554Y-7008292D01*
X-24826995Y-6989820D01*
X-24789499Y-6978445D01*
X-24744362Y-6974000D01*
X-24005638Y-6974000D01*
X-23960501Y-6978445D01*
G37*
G36*
X-22210501Y-6978445D02*
G01*
X-22173005Y-6989820D01*
X-22138446Y-7008292D01*
X-22108153Y-7033153D01*
X-22083292Y-7063446D01*
X-22064820Y-7098005D01*
X-22053445Y-7135501D01*
X-22049000Y-7180638D01*
X-22049000Y-7819362D01*
X-22053445Y-7864499D01*
X-22064820Y-7901995D01*
X-22083292Y-7936554D01*
X-22108153Y-7966847D01*
X-22138446Y-7991708D01*
X-22173005Y-8010180D01*
X-22210501Y-8021555D01*
X-22255638Y-8026000D01*
X-22994362Y-8026000D01*
X-23039499Y-8021555D01*
X-23076995Y-8010180D01*
X-23111554Y-7991708D01*
X-23141847Y-7966847D01*
X-23166708Y-7936554D01*
X-23185180Y-7901995D01*
X-23196555Y-7864499D01*
X-23201000Y-7819362D01*
X-23201000Y-7180638D01*
X-23196555Y-7135501D01*
X-23185180Y-7098005D01*
X-23166708Y-7063446D01*
X-23141847Y-7033153D01*
X-23111554Y-7008292D01*
X-23076995Y-6989820D01*
X-23039499Y-6978445D01*
X-22994362Y-6974000D01*
X-22255638Y-6974000D01*
X-22210501Y-6978445D01*
G37*
G36*
X23039499Y-6978445D02*
G01*
X23076995Y-6989820D01*
X23111554Y-7008292D01*
X23141847Y-7033153D01*
X23166708Y-7063446D01*
X23185180Y-7098005D01*
X23196555Y-7135501D01*
X23201000Y-7180638D01*
X23201000Y-7819362D01*
X23196555Y-7864499D01*
X23185180Y-7901995D01*
X23166708Y-7936554D01*
X23141847Y-7966847D01*
X23111554Y-7991708D01*
X23076995Y-8010180D01*
X23039499Y-8021555D01*
X22994362Y-8026000D01*
X22255638Y-8026000D01*
X22210501Y-8021555D01*
X22173005Y-8010180D01*
X22138446Y-7991708D01*
X22108153Y-7966847D01*
X22083292Y-7936554D01*
X22064820Y-7901995D01*
X22053445Y-7864499D01*
X22049000Y-7819362D01*
X22049000Y-7180638D01*
X22053445Y-7135501D01*
X22064820Y-7098005D01*
X22083292Y-7063446D01*
X22108153Y-7033153D01*
X22138446Y-7008292D01*
X22173005Y-6989820D01*
X22210501Y-6978445D01*
X22255638Y-6974000D01*
X22994362Y-6974000D01*
X23039499Y-6978445D01*
G37*
G36*
X24789499Y-6978445D02*
G01*
X24826995Y-6989820D01*
X24861554Y-7008292D01*
X24891847Y-7033153D01*
X24916708Y-7063446D01*
X24935180Y-7098005D01*
X24946555Y-7135501D01*
X24951000Y-7180638D01*
X24951000Y-7819362D01*
X24946555Y-7864499D01*
X24935180Y-7901995D01*
X24916708Y-7936554D01*
X24891847Y-7966847D01*
X24861554Y-7991708D01*
X24826995Y-8010180D01*
X24789499Y-8021555D01*
X24744362Y-8026000D01*
X24005638Y-8026000D01*
X23960501Y-8021555D01*
X23923005Y-8010180D01*
X23888446Y-7991708D01*
X23858153Y-7966847D01*
X23833292Y-7936554D01*
X23814820Y-7901995D01*
X23803445Y-7864499D01*
X23799000Y-7819362D01*
X23799000Y-7180638D01*
X23803445Y-7135501D01*
X23814820Y-7098005D01*
X23833292Y-7063446D01*
X23858153Y-7033153D01*
X23888446Y-7008292D01*
X23923005Y-6989820D01*
X23960501Y-6978445D01*
X24005638Y-6974000D01*
X24744362Y-6974000D01*
X24789499Y-6978445D01*
G37*
G36*
X-13499830Y-5275803D02*
G01*
X-13488125Y-5279354D01*
X-13477335Y-5285121D01*
X-13467881Y-5292881D01*
X-13460121Y-5302335D01*
X-13454354Y-5313125D01*
X-13450803Y-5324830D01*
X-13449000Y-5343138D01*
X-13449000Y-6806862D01*
X-13450803Y-6825170D01*
X-13454354Y-6836875D01*
X-13460121Y-6847665D01*
X-13467881Y-6857119D01*
X-13477335Y-6864879D01*
X-13488125Y-6870646D01*
X-13499830Y-6874197D01*
X-13518138Y-6876000D01*
X-13881862Y-6876000D01*
X-13900170Y-6874197D01*
X-13911875Y-6870646D01*
X-13922665Y-6864879D01*
X-13932119Y-6857119D01*
X-13939879Y-6847665D01*
X-13945646Y-6836875D01*
X-13949197Y-6825170D01*
X-13951000Y-6806862D01*
X-13951000Y-5343138D01*
X-13949197Y-5324830D01*
X-13945646Y-5313125D01*
X-13939879Y-5302335D01*
X-13932119Y-5292881D01*
X-13922665Y-5285121D01*
X-13911875Y-5279354D01*
X-13900170Y-5275803D01*
X-13881862Y-5274000D01*
X-13518138Y-5274000D01*
X-13499830Y-5275803D01*
G37*
G36*
X-14299830Y-5275803D02*
G01*
X-14288125Y-5279354D01*
X-14277335Y-5285121D01*
X-14267881Y-5292881D01*
X-14260121Y-5302335D01*
X-14254354Y-5313125D01*
X-14250803Y-5324830D01*
X-14249000Y-5343138D01*
X-14249000Y-6806862D01*
X-14250803Y-6825170D01*
X-14254354Y-6836875D01*
X-14260121Y-6847665D01*
X-14267881Y-6857119D01*
X-14277335Y-6864879D01*
X-14288125Y-6870646D01*
X-14299830Y-6874197D01*
X-14318138Y-6876000D01*
X-14681862Y-6876000D01*
X-14700170Y-6874197D01*
X-14711875Y-6870646D01*
X-14722665Y-6864879D01*
X-14732119Y-6857119D01*
X-14739879Y-6847665D01*
X-14745646Y-6836875D01*
X-14749197Y-6825170D01*
X-14751000Y-6806862D01*
X-14751000Y-5343138D01*
X-14749197Y-5324830D01*
X-14745646Y-5313125D01*
X-14739879Y-5302335D01*
X-14732119Y-5292881D01*
X-14722665Y-5285121D01*
X-14711875Y-5279354D01*
X-14700170Y-5275803D01*
X-14681862Y-5274000D01*
X-14318138Y-5274000D01*
X-14299830Y-5275803D01*
G37*
G36*
X-12699830Y-5275803D02*
G01*
X-12688125Y-5279354D01*
X-12677335Y-5285121D01*
X-12667881Y-5292881D01*
X-12660121Y-5302335D01*
X-12654354Y-5313125D01*
X-12650803Y-5324830D01*
X-12649000Y-5343138D01*
X-12649000Y-6806862D01*
X-12650803Y-6825170D01*
X-12654354Y-6836875D01*
X-12660121Y-6847665D01*
X-12667881Y-6857119D01*
X-12677335Y-6864879D01*
X-12688125Y-6870646D01*
X-12699830Y-6874197D01*
X-12718138Y-6876000D01*
X-13081862Y-6876000D01*
X-13100170Y-6874197D01*
X-13111875Y-6870646D01*
X-13122665Y-6864879D01*
X-13132119Y-6857119D01*
X-13139879Y-6847665D01*
X-13145646Y-6836875D01*
X-13149197Y-6825170D01*
X-13151000Y-6806862D01*
X-13151000Y-5343138D01*
X-13149197Y-5324830D01*
X-13145646Y-5313125D01*
X-13139879Y-5302335D01*
X-13132119Y-5292881D01*
X-13122665Y-5285121D01*
X-13111875Y-5279354D01*
X-13100170Y-5275803D01*
X-13081862Y-5274000D01*
X-12718138Y-5274000D01*
X-12699830Y-5275803D01*
G37*
G36*
X-15099830Y-5275803D02*
G01*
X-15088125Y-5279354D01*
X-15077335Y-5285121D01*
X-15067881Y-5292881D01*
X-15060121Y-5302335D01*
X-15054354Y-5313125D01*
X-15050803Y-5324830D01*
X-15049000Y-5343138D01*
X-15049000Y-6806862D01*
X-15050803Y-6825170D01*
X-15054354Y-6836875D01*
X-15060121Y-6847665D01*
X-15067881Y-6857119D01*
X-15077335Y-6864879D01*
X-15088125Y-6870646D01*
X-15099830Y-6874197D01*
X-15118138Y-6876000D01*
X-15481862Y-6876000D01*
X-15500170Y-6874197D01*
X-15511875Y-6870646D01*
X-15522665Y-6864879D01*
X-15532119Y-6857119D01*
X-15539879Y-6847665D01*
X-15545646Y-6836875D01*
X-15549197Y-6825170D01*
X-15551000Y-6806862D01*
X-15551000Y-5343138D01*
X-15549197Y-5324830D01*
X-15545646Y-5313125D01*
X-15539879Y-5302335D01*
X-15532119Y-5292881D01*
X-15522665Y-5285121D01*
X-15511875Y-5279354D01*
X-15500170Y-5275803D01*
X-15481862Y-5274000D01*
X-15118138Y-5274000D01*
X-15099830Y-5275803D01*
G37*
G36*
X-15899830Y-5275803D02*
G01*
X-15888125Y-5279354D01*
X-15877335Y-5285121D01*
X-15867881Y-5292881D01*
X-15860121Y-5302335D01*
X-15854354Y-5313125D01*
X-15850803Y-5324830D01*
X-15849000Y-5343138D01*
X-15849000Y-6806862D01*
X-15850803Y-6825170D01*
X-15854354Y-6836875D01*
X-15860121Y-6847665D01*
X-15867881Y-6857119D01*
X-15877335Y-6864879D01*
X-15888125Y-6870646D01*
X-15899830Y-6874197D01*
X-15918138Y-6876000D01*
X-16281862Y-6876000D01*
X-16300170Y-6874197D01*
X-16311875Y-6870646D01*
X-16322665Y-6864879D01*
X-16332119Y-6857119D01*
X-16339879Y-6847665D01*
X-16345646Y-6836875D01*
X-16349197Y-6825170D01*
X-16351000Y-6806862D01*
X-16351000Y-5343138D01*
X-16349197Y-5324830D01*
X-16345646Y-5313125D01*
X-16339879Y-5302335D01*
X-16332119Y-5292881D01*
X-16322665Y-5285121D01*
X-16311875Y-5279354D01*
X-16300170Y-5275803D01*
X-16281862Y-5274000D01*
X-15918138Y-5274000D01*
X-15899830Y-5275803D01*
G37*
G36*
X-16699830Y-5275803D02*
G01*
X-16688125Y-5279354D01*
X-16677335Y-5285121D01*
X-16667881Y-5292881D01*
X-16660121Y-5302335D01*
X-16654354Y-5313125D01*
X-16650803Y-5324830D01*
X-16649000Y-5343138D01*
X-16649000Y-6806862D01*
X-16650803Y-6825170D01*
X-16654354Y-6836875D01*
X-16660121Y-6847665D01*
X-16667881Y-6857119D01*
X-16677335Y-6864879D01*
X-16688125Y-6870646D01*
X-16699830Y-6874197D01*
X-16718138Y-6876000D01*
X-17081862Y-6876000D01*
X-17100170Y-6874197D01*
X-17111875Y-6870646D01*
X-17122665Y-6864879D01*
X-17132119Y-6857119D01*
X-17139879Y-6847665D01*
X-17145646Y-6836875D01*
X-17149197Y-6825170D01*
X-17151000Y-6806862D01*
X-17151000Y-5343138D01*
X-17149197Y-5324830D01*
X-17145646Y-5313125D01*
X-17139879Y-5302335D01*
X-17132119Y-5292881D01*
X-17122665Y-5285121D01*
X-17111875Y-5279354D01*
X-17100170Y-5275803D01*
X-17081862Y-5274000D01*
X-16718138Y-5274000D01*
X-16699830Y-5275803D01*
G37*
G36*
X-17499830Y-5275803D02*
G01*
X-17488125Y-5279354D01*
X-17477335Y-5285121D01*
X-17467881Y-5292881D01*
X-17460121Y-5302335D01*
X-17454354Y-5313125D01*
X-17450803Y-5324830D01*
X-17449000Y-5343138D01*
X-17449000Y-6806862D01*
X-17450803Y-6825170D01*
X-17454354Y-6836875D01*
X-17460121Y-6847665D01*
X-17467881Y-6857119D01*
X-17477335Y-6864879D01*
X-17488125Y-6870646D01*
X-17499830Y-6874197D01*
X-17518138Y-6876000D01*
X-17881862Y-6876000D01*
X-17900170Y-6874197D01*
X-17911875Y-6870646D01*
X-17922665Y-6864879D01*
X-17932119Y-6857119D01*
X-17939879Y-6847665D01*
X-17945646Y-6836875D01*
X-17949197Y-6825170D01*
X-17951000Y-6806862D01*
X-17951000Y-5343138D01*
X-17949197Y-5324830D01*
X-17945646Y-5313125D01*
X-17939879Y-5302335D01*
X-17932119Y-5292881D01*
X-17922665Y-5285121D01*
X-17911875Y-5279354D01*
X-17900170Y-5275803D01*
X-17881862Y-5274000D01*
X-17518138Y-5274000D01*
X-17499830Y-5275803D01*
G37*
G36*
X-18299830Y-5275803D02*
G01*
X-18288125Y-5279354D01*
X-18277335Y-5285121D01*
X-18267881Y-5292881D01*
X-18260121Y-5302335D01*
X-18254354Y-5313125D01*
X-18250803Y-5324830D01*
X-18249000Y-5343138D01*
X-18249000Y-6806862D01*
X-18250803Y-6825170D01*
X-18254354Y-6836875D01*
X-18260121Y-6847665D01*
X-18267881Y-6857119D01*
X-18277335Y-6864879D01*
X-18288125Y-6870646D01*
X-18299830Y-6874197D01*
X-18318138Y-6876000D01*
X-18681862Y-6876000D01*
X-18700170Y-6874197D01*
X-18711875Y-6870646D01*
X-18722665Y-6864879D01*
X-18732119Y-6857119D01*
X-18739879Y-6847665D01*
X-18745646Y-6836875D01*
X-18749197Y-6825170D01*
X-18751000Y-6806862D01*
X-18751000Y-5343138D01*
X-18749197Y-5324830D01*
X-18745646Y-5313125D01*
X-18739879Y-5302335D01*
X-18732119Y-5292881D01*
X-18722665Y-5285121D01*
X-18711875Y-5279354D01*
X-18700170Y-5275803D01*
X-18681862Y-5274000D01*
X-18318138Y-5274000D01*
X-18299830Y-5275803D01*
G37*
G36*
X-23960501Y-5478445D02*
G01*
X-23923005Y-5489820D01*
X-23888446Y-5508292D01*
X-23858153Y-5533153D01*
X-23833292Y-5563446D01*
X-23814820Y-5598005D01*
X-23803445Y-5635501D01*
X-23799000Y-5680638D01*
X-23799000Y-6319362D01*
X-23803445Y-6364499D01*
X-23814820Y-6401995D01*
X-23833292Y-6436554D01*
X-23858153Y-6466847D01*
X-23888446Y-6491708D01*
X-23923005Y-6510180D01*
X-23960501Y-6521555D01*
X-24005638Y-6526000D01*
X-24744362Y-6526000D01*
X-24789499Y-6521555D01*
X-24826995Y-6510180D01*
X-24861554Y-6491708D01*
X-24891847Y-6466847D01*
X-24916708Y-6436554D01*
X-24935180Y-6401995D01*
X-24946555Y-6364499D01*
X-24951000Y-6319362D01*
X-24951000Y-5680638D01*
X-24946555Y-5635501D01*
X-24935180Y-5598005D01*
X-24916708Y-5563446D01*
X-24891847Y-5533153D01*
X-24861554Y-5508292D01*
X-24826995Y-5489820D01*
X-24789499Y-5478445D01*
X-24744362Y-5474000D01*
X-24005638Y-5474000D01*
X-23960501Y-5478445D01*
G37*
G36*
X-22210501Y-5478445D02*
G01*
X-22173005Y-5489820D01*
X-22138446Y-5508292D01*
X-22108153Y-5533153D01*
X-22083292Y-5563446D01*
X-22064820Y-5598005D01*
X-22053445Y-5635501D01*
X-22049000Y-5680638D01*
X-22049000Y-6319362D01*
X-22053445Y-6364499D01*
X-22064820Y-6401995D01*
X-22083292Y-6436554D01*
X-22108153Y-6466847D01*
X-22138446Y-6491708D01*
X-22173005Y-6510180D01*
X-22210501Y-6521555D01*
X-22255638Y-6526000D01*
X-22994362Y-6526000D01*
X-23039499Y-6521555D01*
X-23076995Y-6510180D01*
X-23111554Y-6491708D01*
X-23141847Y-6466847D01*
X-23166708Y-6436554D01*
X-23185180Y-6401995D01*
X-23196555Y-6364499D01*
X-23201000Y-6319362D01*
X-23201000Y-5680638D01*
X-23196555Y-5635501D01*
X-23185180Y-5598005D01*
X-23166708Y-5563446D01*
X-23141847Y-5533153D01*
X-23111554Y-5508292D01*
X-23076995Y-5489820D01*
X-23039499Y-5478445D01*
X-22994362Y-5474000D01*
X-22255638Y-5474000D01*
X-22210501Y-5478445D01*
G37*
G36*
X23039499Y-5478445D02*
G01*
X23076995Y-5489820D01*
X23111554Y-5508292D01*
X23141847Y-5533153D01*
X23166708Y-5563446D01*
X23185180Y-5598005D01*
X23196555Y-5635501D01*
X23201000Y-5680638D01*
X23201000Y-6319362D01*
X23196555Y-6364499D01*
X23185180Y-6401995D01*
X23166708Y-6436554D01*
X23141847Y-6466847D01*
X23111554Y-6491708D01*
X23076995Y-6510180D01*
X23039499Y-6521555D01*
X22994362Y-6526000D01*
X22255638Y-6526000D01*
X22210501Y-6521555D01*
X22173005Y-6510180D01*
X22138446Y-6491708D01*
X22108153Y-6466847D01*
X22083292Y-6436554D01*
X22064820Y-6401995D01*
X22053445Y-6364499D01*
X22049000Y-6319362D01*
X22049000Y-5680638D01*
X22053445Y-5635501D01*
X22064820Y-5598005D01*
X22083292Y-5563446D01*
X22108153Y-5533153D01*
X22138446Y-5508292D01*
X22173005Y-5489820D01*
X22210501Y-5478445D01*
X22255638Y-5474000D01*
X22994362Y-5474000D01*
X23039499Y-5478445D01*
G37*
G36*
X24789499Y-5478445D02*
G01*
X24826995Y-5489820D01*
X24861554Y-5508292D01*
X24891847Y-5533153D01*
X24916708Y-5563446D01*
X24935180Y-5598005D01*
X24946555Y-5635501D01*
X24951000Y-5680638D01*
X24951000Y-6319362D01*
X24946555Y-6364499D01*
X24935180Y-6401995D01*
X24916708Y-6436554D01*
X24891847Y-6466847D01*
X24861554Y-6491708D01*
X24826995Y-6510180D01*
X24789499Y-6521555D01*
X24744362Y-6526000D01*
X24005638Y-6526000D01*
X23960501Y-6521555D01*
X23923005Y-6510180D01*
X23888446Y-6491708D01*
X23858153Y-6466847D01*
X23833292Y-6436554D01*
X23814820Y-6401995D01*
X23803445Y-6364499D01*
X23799000Y-6319362D01*
X23799000Y-5680638D01*
X23803445Y-5635501D01*
X23814820Y-5598005D01*
X23833292Y-5563446D01*
X23858153Y-5533153D01*
X23888446Y-5508292D01*
X23923005Y-5489820D01*
X23960501Y-5478445D01*
X24005638Y-5474000D01*
X24744362Y-5474000D01*
X24789499Y-5478445D01*
G37*
G36*
X-3910110Y-4474017D02*
G01*
X-3876050Y-4488125D01*
X-3791636Y-4523091D01*
X-3751340Y-4550016D01*
X-3685012Y-4594335D01*
X-3594335Y-4685012D01*
X-3523090Y-4791638D01*
X-3474017Y-4910110D01*
X-3450965Y-5026000D01*
X-3449000Y-5035882D01*
X-3449000Y-5164118D01*
X-3474017Y-5289890D01*
X-3523091Y-5408364D01*
X-3594335Y-5514988D01*
X-3685012Y-5605665D01*
X-3791636Y-5676909D01*
X-3791637Y-5676910D01*
X-3791638Y-5676910D01*
X-3910110Y-5725983D01*
X-4035881Y-5751000D01*
X-4164119Y-5751000D01*
X-4289890Y-5725983D01*
X-4408362Y-5676910D01*
X-4408363Y-5676910D01*
X-4408364Y-5676909D01*
X-4514988Y-5605665D01*
X-4605665Y-5514988D01*
X-4676909Y-5408364D01*
X-4725983Y-5289890D01*
X-4751000Y-5164118D01*
X-4751000Y-5035882D01*
X-4749034Y-5026000D01*
X-4725983Y-4910110D01*
X-4676910Y-4791638D01*
X-4605665Y-4685012D01*
X-4514988Y-4594335D01*
X-4448660Y-4550016D01*
X-4408364Y-4523091D01*
X-4323949Y-4488125D01*
X-4289890Y-4474017D01*
X-4164119Y-4449000D01*
X-4035881Y-4449000D01*
X-3910110Y-4474017D01*
G37*
G36*
X23039499Y-3978445D02*
G01*
X23076995Y-3989820D01*
X23111554Y-4008292D01*
X23141847Y-4033153D01*
X23166708Y-4063446D01*
X23185180Y-4098005D01*
X23196555Y-4135501D01*
X23201000Y-4180638D01*
X23201000Y-4819362D01*
X23196555Y-4864499D01*
X23185180Y-4901995D01*
X23166708Y-4936554D01*
X23141847Y-4966847D01*
X23111554Y-4991708D01*
X23076995Y-5010180D01*
X23039499Y-5021555D01*
X22994362Y-5026000D01*
X22255638Y-5026000D01*
X22210501Y-5021555D01*
X22173005Y-5010180D01*
X22138446Y-4991708D01*
X22108153Y-4966847D01*
X22083292Y-4936554D01*
X22064820Y-4901995D01*
X22053445Y-4864499D01*
X22049000Y-4819362D01*
X22049000Y-4180638D01*
X22053445Y-4135501D01*
X22064820Y-4098005D01*
X22083292Y-4063446D01*
X22108153Y-4033153D01*
X22138446Y-4008292D01*
X22173005Y-3989820D01*
X22210501Y-3978445D01*
X22255638Y-3974000D01*
X22994362Y-3974000D01*
X23039499Y-3978445D01*
G37*
G36*
X24789499Y-3978445D02*
G01*
X24826995Y-3989820D01*
X24861554Y-4008292D01*
X24891847Y-4033153D01*
X24916708Y-4063446D01*
X24935180Y-4098005D01*
X24946555Y-4135501D01*
X24951000Y-4180638D01*
X24951000Y-4819362D01*
X24946555Y-4864499D01*
X24935180Y-4901995D01*
X24916708Y-4936554D01*
X24891847Y-4966847D01*
X24861554Y-4991708D01*
X24826995Y-5010180D01*
X24789499Y-5021555D01*
X24744362Y-5026000D01*
X24005638Y-5026000D01*
X23960501Y-5021555D01*
X23923005Y-5010180D01*
X23888446Y-4991708D01*
X23858153Y-4966847D01*
X23833292Y-4936554D01*
X23814820Y-4901995D01*
X23803445Y-4864499D01*
X23799000Y-4819362D01*
X23799000Y-4180638D01*
X23803445Y-4135501D01*
X23814820Y-4098005D01*
X23833292Y-4063446D01*
X23858153Y-4033153D01*
X23888446Y-4008292D01*
X23923005Y-3989820D01*
X23960501Y-3978445D01*
X24005638Y-3974000D01*
X24744362Y-3974000D01*
X24789499Y-3978445D01*
G37*
G36*
X9864499Y-3878445D02*
G01*
X9901995Y-3889820D01*
X9936554Y-3908292D01*
X9966847Y-3933153D01*
X9991708Y-3963446D01*
X10010180Y-3998005D01*
X10021555Y-4035501D01*
X10026000Y-4080638D01*
X10026000Y-4819362D01*
X10021555Y-4864499D01*
X10010180Y-4901995D01*
X9991708Y-4936554D01*
X9966847Y-4966847D01*
X9936554Y-4991708D01*
X9901995Y-5010180D01*
X9864499Y-5021555D01*
X9819362Y-5026000D01*
X9180638Y-5026000D01*
X9135501Y-5021555D01*
X9098005Y-5010180D01*
X9063446Y-4991708D01*
X9033153Y-4966847D01*
X9008292Y-4936554D01*
X8989820Y-4901995D01*
X8978445Y-4864499D01*
X8974000Y-4819362D01*
X8974000Y-4080638D01*
X8978445Y-4035501D01*
X8989820Y-3998005D01*
X9008292Y-3963446D01*
X9033153Y-3933153D01*
X9063446Y-3908292D01*
X9098005Y-3889820D01*
X9135501Y-3878445D01*
X9180638Y-3874000D01*
X9819362Y-3874000D01*
X9864499Y-3878445D01*
G37*
G36*
X12864499Y-3878445D02*
G01*
X12901995Y-3889820D01*
X12936554Y-3908292D01*
X12966847Y-3933153D01*
X12991708Y-3963446D01*
X13010180Y-3998005D01*
X13021555Y-4035501D01*
X13026000Y-4080638D01*
X13026000Y-4819362D01*
X13021555Y-4864499D01*
X13010180Y-4901995D01*
X12991708Y-4936554D01*
X12966847Y-4966847D01*
X12936554Y-4991708D01*
X12901995Y-5010180D01*
X12864499Y-5021555D01*
X12819362Y-5026000D01*
X12180638Y-5026000D01*
X12135501Y-5021555D01*
X12098005Y-5010180D01*
X12063446Y-4991708D01*
X12033153Y-4966847D01*
X12008292Y-4936554D01*
X11989820Y-4901995D01*
X11978445Y-4864499D01*
X11974000Y-4819362D01*
X11974000Y-4080638D01*
X11978445Y-4035501D01*
X11989820Y-3998005D01*
X12008292Y-3963446D01*
X12033153Y-3933153D01*
X12063446Y-3908292D01*
X12098005Y-3889820D01*
X12135501Y-3878445D01*
X12180638Y-3874000D01*
X12819362Y-3874000D01*
X12864499Y-3878445D01*
G37*
G36*
X-22210501Y-3978445D02*
G01*
X-22173005Y-3989820D01*
X-22138446Y-4008292D01*
X-22108153Y-4033153D01*
X-22083292Y-4063446D01*
X-22064820Y-4098005D01*
X-22053445Y-4135501D01*
X-22049000Y-4180638D01*
X-22049000Y-4819362D01*
X-22053445Y-4864499D01*
X-22064820Y-4901995D01*
X-22083292Y-4936554D01*
X-22108153Y-4966847D01*
X-22138446Y-4991708D01*
X-22173005Y-5010180D01*
X-22210501Y-5021555D01*
X-22255638Y-5026000D01*
X-22994362Y-5026000D01*
X-23039499Y-5021555D01*
X-23076995Y-5010180D01*
X-23111554Y-4991708D01*
X-23141847Y-4966847D01*
X-23166708Y-4936554D01*
X-23185180Y-4901995D01*
X-23196555Y-4864499D01*
X-23201000Y-4819362D01*
X-23201000Y-4180638D01*
X-23196555Y-4135501D01*
X-23185180Y-4098005D01*
X-23166708Y-4063446D01*
X-23141847Y-4033153D01*
X-23111554Y-4008292D01*
X-23076995Y-3989820D01*
X-23039499Y-3978445D01*
X-22994362Y-3974000D01*
X-22255638Y-3974000D01*
X-22210501Y-3978445D01*
G37*
G36*
X-23960501Y-3978445D02*
G01*
X-23923005Y-3989820D01*
X-23888446Y-4008292D01*
X-23858153Y-4033153D01*
X-23833292Y-4063446D01*
X-23814820Y-4098005D01*
X-23803445Y-4135501D01*
X-23799000Y-4180638D01*
X-23799000Y-4819362D01*
X-23803445Y-4864499D01*
X-23814820Y-4901995D01*
X-23833292Y-4936554D01*
X-23858153Y-4966847D01*
X-23888446Y-4991708D01*
X-23923005Y-5010180D01*
X-23960501Y-5021555D01*
X-24005638Y-5026000D01*
X-24744362Y-5026000D01*
X-24789499Y-5021555D01*
X-24826995Y-5010180D01*
X-24861554Y-4991708D01*
X-24891847Y-4966847D01*
X-24916708Y-4936554D01*
X-24935180Y-4901995D01*
X-24946555Y-4864499D01*
X-24951000Y-4819362D01*
X-24951000Y-4180638D01*
X-24946555Y-4135501D01*
X-24935180Y-4098005D01*
X-24916708Y-4063446D01*
X-24891847Y-4033153D01*
X-24861554Y-4008292D01*
X-24826995Y-3989820D01*
X-24789499Y-3978445D01*
X-24744362Y-3974000D01*
X-24005638Y-3974000D01*
X-23960501Y-3978445D01*
G37*
G36*
X-10774830Y-4450803D02*
G01*
X-10763125Y-4454354D01*
X-10752335Y-4460121D01*
X-10742881Y-4467881D01*
X-10735121Y-4477335D01*
X-10729354Y-4488125D01*
X-10725803Y-4499830D01*
X-10724000Y-4518138D01*
X-10724000Y-4881862D01*
X-10725803Y-4900170D01*
X-10729354Y-4911875D01*
X-10735121Y-4922665D01*
X-10742881Y-4932119D01*
X-10752335Y-4939879D01*
X-10763125Y-4945646D01*
X-10774830Y-4949197D01*
X-10793138Y-4951000D01*
X-12256862Y-4951000D01*
X-12275170Y-4949197D01*
X-12286875Y-4945646D01*
X-12297665Y-4939879D01*
X-12307119Y-4932119D01*
X-12314879Y-4922665D01*
X-12320646Y-4911875D01*
X-12324197Y-4900170D01*
X-12326000Y-4881862D01*
X-12326000Y-4518138D01*
X-12324197Y-4499830D01*
X-12320646Y-4488125D01*
X-12314879Y-4477335D01*
X-12307119Y-4467881D01*
X-12297665Y-4460121D01*
X-12286875Y-4454354D01*
X-12275170Y-4450803D01*
X-12256862Y-4449000D01*
X-10793138Y-4449000D01*
X-10774830Y-4450803D01*
G37*
G36*
X-19124830Y-4450803D02*
G01*
X-19113125Y-4454354D01*
X-19102335Y-4460121D01*
X-19092881Y-4467881D01*
X-19085121Y-4477335D01*
X-19079354Y-4488125D01*
X-19075803Y-4499830D01*
X-19074000Y-4518138D01*
X-19074000Y-4881862D01*
X-19075803Y-4900170D01*
X-19079354Y-4911875D01*
X-19085121Y-4922665D01*
X-19092881Y-4932119D01*
X-19102335Y-4939879D01*
X-19113125Y-4945646D01*
X-19124830Y-4949197D01*
X-19143138Y-4951000D01*
X-20606862Y-4951000D01*
X-20625170Y-4949197D01*
X-20636875Y-4945646D01*
X-20647665Y-4939879D01*
X-20657119Y-4932119D01*
X-20664879Y-4922665D01*
X-20670646Y-4911875D01*
X-20674197Y-4900170D01*
X-20676000Y-4881862D01*
X-20676000Y-4518138D01*
X-20674197Y-4499830D01*
X-20670646Y-4488125D01*
X-20664879Y-4477335D01*
X-20657119Y-4467881D01*
X-20647665Y-4460121D01*
X-20636875Y-4454354D01*
X-20625170Y-4450803D01*
X-20606862Y-4449000D01*
X-19143138Y-4449000D01*
X-19124830Y-4450803D01*
G37*
G36*
X-10774830Y-3650803D02*
G01*
X-10763125Y-3654354D01*
X-10752335Y-3660121D01*
X-10742881Y-3667881D01*
X-10735121Y-3677335D01*
X-10729354Y-3688125D01*
X-10725803Y-3699830D01*
X-10724000Y-3718138D01*
X-10724000Y-4081862D01*
X-10725803Y-4100170D01*
X-10729354Y-4111875D01*
X-10735121Y-4122665D01*
X-10742881Y-4132119D01*
X-10752335Y-4139879D01*
X-10763125Y-4145646D01*
X-10774830Y-4149197D01*
X-10793138Y-4151000D01*
X-12256862Y-4151000D01*
X-12275170Y-4149197D01*
X-12286875Y-4145646D01*
X-12297665Y-4139879D01*
X-12307119Y-4132119D01*
X-12314879Y-4122665D01*
X-12320646Y-4111875D01*
X-12324197Y-4100170D01*
X-12326000Y-4081862D01*
X-12326000Y-3718138D01*
X-12324197Y-3699830D01*
X-12320646Y-3688125D01*
X-12314879Y-3677335D01*
X-12307119Y-3667881D01*
X-12297665Y-3660121D01*
X-12286875Y-3654354D01*
X-12275170Y-3650803D01*
X-12256862Y-3649000D01*
X-10793138Y-3649000D01*
X-10774830Y-3650803D01*
G37*
G36*
X-19124830Y-3650803D02*
G01*
X-19113125Y-3654354D01*
X-19102335Y-3660121D01*
X-19092881Y-3667881D01*
X-19085121Y-3677335D01*
X-19079354Y-3688125D01*
X-19075803Y-3699830D01*
X-19074000Y-3718138D01*
X-19074000Y-4081862D01*
X-19075803Y-4100170D01*
X-19079354Y-4111875D01*
X-19085121Y-4122665D01*
X-19092881Y-4132119D01*
X-19102335Y-4139879D01*
X-19113125Y-4145646D01*
X-19124830Y-4149197D01*
X-19143138Y-4151000D01*
X-20606862Y-4151000D01*
X-20625170Y-4149197D01*
X-20636875Y-4145646D01*
X-20647665Y-4139879D01*
X-20657119Y-4132119D01*
X-20664879Y-4122665D01*
X-20670646Y-4111875D01*
X-20674197Y-4100170D01*
X-20676000Y-4081862D01*
X-20676000Y-3718138D01*
X-20674197Y-3699830D01*
X-20670646Y-3688125D01*
X-20664879Y-3677335D01*
X-20657119Y-3667881D01*
X-20647665Y-3660121D01*
X-20636875Y-3654354D01*
X-20625170Y-3650803D01*
X-20606862Y-3649000D01*
X-19143138Y-3649000D01*
X-19124830Y-3650803D01*
G37*
G36*
X-7263121Y-3031956D02*
G01*
X-7240163Y-3038921D01*
X-7218999Y-3050233D01*
X-7200453Y-3065453D01*
X-7185233Y-3083999D01*
X-7173921Y-3105163D01*
X-7166956Y-3128121D01*
X-7164000Y-3158140D01*
X-7164000Y-3641860D01*
X-7166956Y-3671879D01*
X-7173921Y-3694837D01*
X-7185233Y-3716001D01*
X-7200453Y-3734547D01*
X-7218999Y-3749767D01*
X-7240163Y-3761079D01*
X-7263121Y-3768044D01*
X-7293140Y-3771000D01*
X-8136860Y-3771000D01*
X-8166879Y-3768044D01*
X-8189837Y-3761079D01*
X-8211001Y-3749767D01*
X-8229547Y-3734547D01*
X-8244767Y-3716001D01*
X-8256079Y-3694837D01*
X-8263044Y-3671879D01*
X-8266000Y-3641860D01*
X-8266000Y-3158140D01*
X-8263044Y-3128121D01*
X-8256079Y-3105163D01*
X-8244767Y-3083999D01*
X-8229547Y-3065453D01*
X-8211001Y-3050233D01*
X-8189837Y-3038921D01*
X-8166879Y-3031956D01*
X-8136860Y-3029000D01*
X-7293140Y-3029000D01*
X-7263121Y-3031956D01*
G37*
G36*
X-8633121Y-3031956D02*
G01*
X-8610163Y-3038921D01*
X-8588999Y-3050233D01*
X-8570453Y-3065453D01*
X-8555233Y-3083999D01*
X-8543921Y-3105163D01*
X-8536956Y-3128121D01*
X-8534000Y-3158140D01*
X-8534000Y-3641860D01*
X-8536956Y-3671879D01*
X-8543921Y-3694837D01*
X-8555233Y-3716001D01*
X-8570453Y-3734547D01*
X-8588999Y-3749767D01*
X-8610163Y-3761079D01*
X-8633121Y-3768044D01*
X-8663140Y-3771000D01*
X-9506860Y-3771000D01*
X-9536879Y-3768044D01*
X-9559837Y-3761079D01*
X-9581001Y-3749767D01*
X-9599547Y-3734547D01*
X-9614767Y-3716001D01*
X-9626079Y-3694837D01*
X-9633044Y-3671879D01*
X-9636000Y-3641860D01*
X-9636000Y-3158140D01*
X-9633044Y-3128121D01*
X-9626079Y-3105163D01*
X-9614767Y-3083999D01*
X-9599547Y-3065453D01*
X-9581001Y-3050233D01*
X-9559837Y-3038921D01*
X-9536879Y-3031956D01*
X-9506860Y-3029000D01*
X-8663140Y-3029000D01*
X-8633121Y-3031956D01*
G37*
G36*
X1035787Y3414538D02*
G01*
X1035790Y3414537D01*
X1035789Y3414537D01*
X1682029Y3146856D01*
X2263631Y2758242D01*
X2758242Y2263631D01*
X3146856Y1682029D01*
X3232277Y1475803D01*
X3414538Y1035787D01*
X3551000Y349744D01*
X3551000Y-349744D01*
X3414538Y-1035787D01*
X3414537Y-1035789D01*
X3146856Y-1682029D01*
X2758242Y-2263631D01*
X2263631Y-2758242D01*
X1682029Y-3146856D01*
X1370247Y-3276000D01*
X1035787Y-3414538D01*
X349744Y-3551000D01*
X-349744Y-3551000D01*
X-1035787Y-3414538D01*
X-1370247Y-3276000D01*
X-1682029Y-3146856D01*
X-2263631Y-2758242D01*
X-2758242Y-2263631D01*
X-3146856Y-1682029D01*
X-3414537Y-1035789D01*
X-3414538Y-1035787D01*
X-3551000Y-349744D01*
X-3551000Y349744D01*
X-3414538Y1035787D01*
X-3232277Y1475803D01*
X-3146856Y1682029D01*
X-2758242Y2263631D01*
X-2263631Y2758242D01*
X-1682029Y3146856D01*
X-1035789Y3414537D01*
X-1035790Y3414537D01*
X-1035787Y3414538D01*
X-349744Y3551000D01*
X349744Y3551000D01*
X1035787Y3414538D01*
G37*
G36*
X-22210501Y-2478445D02*
G01*
X-22173005Y-2489820D01*
X-22138446Y-2508292D01*
X-22108153Y-2533153D01*
X-22083292Y-2563446D01*
X-22064820Y-2598005D01*
X-22053445Y-2635501D01*
X-22049000Y-2680638D01*
X-22049000Y-3319362D01*
X-22053445Y-3364499D01*
X-22064820Y-3401995D01*
X-22083292Y-3436554D01*
X-22108153Y-3466847D01*
X-22138446Y-3491708D01*
X-22173005Y-3510180D01*
X-22210501Y-3521555D01*
X-22255638Y-3526000D01*
X-22994362Y-3526000D01*
X-23039499Y-3521555D01*
X-23076995Y-3510180D01*
X-23111554Y-3491708D01*
X-23141847Y-3466847D01*
X-23166708Y-3436554D01*
X-23185180Y-3401995D01*
X-23196555Y-3364499D01*
X-23201000Y-3319362D01*
X-23201000Y-2680638D01*
X-23196555Y-2635501D01*
X-23185180Y-2598005D01*
X-23166708Y-2563446D01*
X-23141847Y-2533153D01*
X-23111554Y-2508292D01*
X-23076995Y-2489820D01*
X-23039499Y-2478445D01*
X-22994362Y-2474000D01*
X-22255638Y-2474000D01*
X-22210501Y-2478445D01*
G37*
G36*
X-23960501Y-2478445D02*
G01*
X-23923005Y-2489820D01*
X-23888446Y-2508292D01*
X-23858153Y-2533153D01*
X-23833292Y-2563446D01*
X-23814820Y-2598005D01*
X-23803445Y-2635501D01*
X-23799000Y-2680638D01*
X-23799000Y-3319362D01*
X-23803445Y-3364499D01*
X-23814820Y-3401995D01*
X-23833292Y-3436554D01*
X-23858153Y-3466847D01*
X-23888446Y-3491708D01*
X-23923005Y-3510180D01*
X-23960501Y-3521555D01*
X-24005638Y-3526000D01*
X-24744362Y-3526000D01*
X-24789499Y-3521555D01*
X-24826995Y-3510180D01*
X-24861554Y-3491708D01*
X-24891847Y-3466847D01*
X-24916708Y-3436554D01*
X-24935180Y-3401995D01*
X-24946555Y-3364499D01*
X-24951000Y-3319362D01*
X-24951000Y-2680638D01*
X-24946555Y-2635501D01*
X-24935180Y-2598005D01*
X-24916708Y-2563446D01*
X-24891847Y-2533153D01*
X-24861554Y-2508292D01*
X-24826995Y-2489820D01*
X-24789499Y-2478445D01*
X-24744362Y-2474000D01*
X-24005638Y-2474000D01*
X-23960501Y-2478445D01*
G37*
G36*
X23039499Y-2478445D02*
G01*
X23076995Y-2489820D01*
X23111554Y-2508292D01*
X23141847Y-2533153D01*
X23166708Y-2563446D01*
X23185180Y-2598005D01*
X23196555Y-2635501D01*
X23201000Y-2680638D01*
X23201000Y-3319362D01*
X23196555Y-3364499D01*
X23185180Y-3401995D01*
X23166708Y-3436554D01*
X23141847Y-3466847D01*
X23111554Y-3491708D01*
X23076995Y-3510180D01*
X23039499Y-3521555D01*
X22994362Y-3526000D01*
X22255638Y-3526000D01*
X22210501Y-3521555D01*
X22173005Y-3510180D01*
X22138446Y-3491708D01*
X22108153Y-3466847D01*
X22083292Y-3436554D01*
X22064820Y-3401995D01*
X22053445Y-3364499D01*
X22049000Y-3319362D01*
X22049000Y-2680638D01*
X22053445Y-2635501D01*
X22064820Y-2598005D01*
X22083292Y-2563446D01*
X22108153Y-2533153D01*
X22138446Y-2508292D01*
X22173005Y-2489820D01*
X22210501Y-2478445D01*
X22255638Y-2474000D01*
X22994362Y-2474000D01*
X23039499Y-2478445D01*
G37*
G36*
X24789499Y-2478445D02*
G01*
X24826995Y-2489820D01*
X24861554Y-2508292D01*
X24891847Y-2533153D01*
X24916708Y-2563446D01*
X24935180Y-2598005D01*
X24946555Y-2635501D01*
X24951000Y-2680638D01*
X24951000Y-3319362D01*
X24946555Y-3364499D01*
X24935180Y-3401995D01*
X24916708Y-3436554D01*
X24891847Y-3466847D01*
X24861554Y-3491708D01*
X24826995Y-3510180D01*
X24789499Y-3521555D01*
X24744362Y-3526000D01*
X24005638Y-3526000D01*
X23960501Y-3521555D01*
X23923005Y-3510180D01*
X23888446Y-3491708D01*
X23858153Y-3466847D01*
X23833292Y-3436554D01*
X23814820Y-3401995D01*
X23803445Y-3364499D01*
X23799000Y-3319362D01*
X23799000Y-2680638D01*
X23803445Y-2635501D01*
X23814820Y-2598005D01*
X23833292Y-2563446D01*
X23858153Y-2533153D01*
X23888446Y-2508292D01*
X23923005Y-2489820D01*
X23960501Y-2478445D01*
X24005638Y-2474000D01*
X24744362Y-2474000D01*
X24789499Y-2478445D01*
G37*
G36*
X-19124830Y-2850803D02*
G01*
X-19113125Y-2854354D01*
X-19102335Y-2860121D01*
X-19092881Y-2867881D01*
X-19085121Y-2877335D01*
X-19079354Y-2888125D01*
X-19075803Y-2899830D01*
X-19074000Y-2918138D01*
X-19074000Y-3281862D01*
X-19075803Y-3300170D01*
X-19079354Y-3311875D01*
X-19085121Y-3322665D01*
X-19092881Y-3332119D01*
X-19102335Y-3339879D01*
X-19113125Y-3345646D01*
X-19124830Y-3349197D01*
X-19143138Y-3351000D01*
X-20606862Y-3351000D01*
X-20625170Y-3349197D01*
X-20636875Y-3345646D01*
X-20647665Y-3339879D01*
X-20657119Y-3332119D01*
X-20664879Y-3322665D01*
X-20670646Y-3311875D01*
X-20674197Y-3300170D01*
X-20676000Y-3281862D01*
X-20676000Y-2918138D01*
X-20674197Y-2899830D01*
X-20670646Y-2888125D01*
X-20664879Y-2877335D01*
X-20657119Y-2867881D01*
X-20647665Y-2860121D01*
X-20636875Y-2854354D01*
X-20625170Y-2850803D01*
X-20606862Y-2849000D01*
X-19143138Y-2849000D01*
X-19124830Y-2850803D01*
G37*
G36*
X-10774830Y-2850803D02*
G01*
X-10763125Y-2854354D01*
X-10752335Y-2860121D01*
X-10742881Y-2867881D01*
X-10735121Y-2877335D01*
X-10729354Y-2888125D01*
X-10725803Y-2899830D01*
X-10724000Y-2918138D01*
X-10724000Y-3281862D01*
X-10725803Y-3300170D01*
X-10729354Y-3311875D01*
X-10735121Y-3322665D01*
X-10742881Y-3332119D01*
X-10752335Y-3339879D01*
X-10763125Y-3345646D01*
X-10774830Y-3349197D01*
X-10793138Y-3351000D01*
X-12256862Y-3351000D01*
X-12275170Y-3349197D01*
X-12286875Y-3345646D01*
X-12297665Y-3339879D01*
X-12307119Y-3332119D01*
X-12314879Y-3322665D01*
X-12320646Y-3311875D01*
X-12324197Y-3300170D01*
X-12326000Y-3281862D01*
X-12326000Y-2918138D01*
X-12324197Y-2899830D01*
X-12320646Y-2888125D01*
X-12314879Y-2877335D01*
X-12307119Y-2867881D01*
X-12297665Y-2860121D01*
X-12286875Y-2854354D01*
X-12275170Y-2850803D01*
X-12256862Y-2849000D01*
X-10793138Y-2849000D01*
X-10774830Y-2850803D01*
G37*
G36*
X9864499Y-2128445D02*
G01*
X9901995Y-2139820D01*
X9936554Y-2158292D01*
X9966847Y-2183153D01*
X9991708Y-2213446D01*
X10010180Y-2248005D01*
X10021555Y-2285501D01*
X10026000Y-2330638D01*
X10026000Y-3069362D01*
X10021555Y-3114499D01*
X10010180Y-3151995D01*
X9991708Y-3186554D01*
X9966847Y-3216847D01*
X9936554Y-3241708D01*
X9901995Y-3260180D01*
X9864499Y-3271555D01*
X9819362Y-3276000D01*
X9180638Y-3276000D01*
X9135501Y-3271555D01*
X9098005Y-3260180D01*
X9063446Y-3241708D01*
X9033153Y-3216847D01*
X9008292Y-3186554D01*
X8989820Y-3151995D01*
X8978445Y-3114499D01*
X8974000Y-3069362D01*
X8974000Y-2330638D01*
X8978445Y-2285501D01*
X8989820Y-2248005D01*
X9008292Y-2213446D01*
X9033153Y-2183153D01*
X9063446Y-2158292D01*
X9098005Y-2139820D01*
X9135501Y-2128445D01*
X9180638Y-2124000D01*
X9819362Y-2124000D01*
X9864499Y-2128445D01*
G37*
G36*
X12864499Y-2128445D02*
G01*
X12901995Y-2139820D01*
X12936554Y-2158292D01*
X12966847Y-2183153D01*
X12991708Y-2213446D01*
X13010180Y-2248005D01*
X13021555Y-2285501D01*
X13026000Y-2330638D01*
X13026000Y-3069362D01*
X13021555Y-3114499D01*
X13010180Y-3151995D01*
X12991708Y-3186554D01*
X12966847Y-3216847D01*
X12936554Y-3241708D01*
X12901995Y-3260180D01*
X12864499Y-3271555D01*
X12819362Y-3276000D01*
X12180638Y-3276000D01*
X12135501Y-3271555D01*
X12098005Y-3260180D01*
X12063446Y-3241708D01*
X12033153Y-3216847D01*
X12008292Y-3186554D01*
X11989820Y-3151995D01*
X11978445Y-3114499D01*
X11974000Y-3069362D01*
X11974000Y-2330638D01*
X11978445Y-2285501D01*
X11989820Y-2248005D01*
X12008292Y-2213446D01*
X12033153Y-2183153D01*
X12063446Y-2158292D01*
X12098005Y-2139820D01*
X12135501Y-2128445D01*
X12180638Y-2124000D01*
X12819362Y-2124000D01*
X12864499Y-2128445D01*
G37*
G36*
X-19124830Y-2050803D02*
G01*
X-19113125Y-2054354D01*
X-19102335Y-2060121D01*
X-19092881Y-2067881D01*
X-19085121Y-2077335D01*
X-19079354Y-2088125D01*
X-19075803Y-2099830D01*
X-19074000Y-2118138D01*
X-19074000Y-2481862D01*
X-19075803Y-2500170D01*
X-19079354Y-2511875D01*
X-19085121Y-2522665D01*
X-19092881Y-2532119D01*
X-19102335Y-2539879D01*
X-19113125Y-2545646D01*
X-19124830Y-2549197D01*
X-19143138Y-2551000D01*
X-20606862Y-2551000D01*
X-20625170Y-2549197D01*
X-20636875Y-2545646D01*
X-20647665Y-2539879D01*
X-20657119Y-2532119D01*
X-20664879Y-2522665D01*
X-20670646Y-2511875D01*
X-20674197Y-2500170D01*
X-20676000Y-2481862D01*
X-20676000Y-2118138D01*
X-20674197Y-2099830D01*
X-20670646Y-2088125D01*
X-20664879Y-2077335D01*
X-20657119Y-2067881D01*
X-20647665Y-2060121D01*
X-20636875Y-2054354D01*
X-20625170Y-2050803D01*
X-20606862Y-2049000D01*
X-19143138Y-2049000D01*
X-19124830Y-2050803D01*
G37*
G36*
X-10774830Y-2050803D02*
G01*
X-10763125Y-2054354D01*
X-10752335Y-2060121D01*
X-10742881Y-2067881D01*
X-10735121Y-2077335D01*
X-10729354Y-2088125D01*
X-10725803Y-2099830D01*
X-10724000Y-2118138D01*
X-10724000Y-2481862D01*
X-10725803Y-2500170D01*
X-10729354Y-2511875D01*
X-10735121Y-2522665D01*
X-10742881Y-2532119D01*
X-10752335Y-2539879D01*
X-10763125Y-2545646D01*
X-10774830Y-2549197D01*
X-10793138Y-2551000D01*
X-12256862Y-2551000D01*
X-12275170Y-2549197D01*
X-12286875Y-2545646D01*
X-12297665Y-2539879D01*
X-12307119Y-2532119D01*
X-12314879Y-2522665D01*
X-12320646Y-2511875D01*
X-12324197Y-2500170D01*
X-12326000Y-2481862D01*
X-12326000Y-2118138D01*
X-12324197Y-2099830D01*
X-12320646Y-2088125D01*
X-12314879Y-2077335D01*
X-12307119Y-2067881D01*
X-12297665Y-2060121D01*
X-12286875Y-2054354D01*
X-12275170Y-2050803D01*
X-12256862Y-2049000D01*
X-10793138Y-2049000D01*
X-10774830Y-2050803D01*
G37*
G36*
X-8499000Y-2326000D02*
G01*
X-9801000Y-2326000D01*
X-9801000Y-874000D01*
X-8499000Y-874000D01*
X-8499000Y-2326000D01*
G37*
G36*
X-6399000Y-2326000D02*
G01*
X-7701000Y-2326000D01*
X-7701000Y-874000D01*
X-6399000Y-874000D01*
X-6399000Y-2326000D01*
G37*
G36*
X-22210501Y-978445D02*
G01*
X-22173005Y-989820D01*
X-22138446Y-1008292D01*
X-22108153Y-1033153D01*
X-22083292Y-1063446D01*
X-22064820Y-1098005D01*
X-22053445Y-1135501D01*
X-22049000Y-1180638D01*
X-22049000Y-1819362D01*
X-22053445Y-1864499D01*
X-22064820Y-1901995D01*
X-22083292Y-1936554D01*
X-22108153Y-1966847D01*
X-22138446Y-1991708D01*
X-22173005Y-2010180D01*
X-22210501Y-2021555D01*
X-22255638Y-2026000D01*
X-22994362Y-2026000D01*
X-23039499Y-2021555D01*
X-23076995Y-2010180D01*
X-23111554Y-1991708D01*
X-23141847Y-1966847D01*
X-23166708Y-1936554D01*
X-23185180Y-1901995D01*
X-23196555Y-1864499D01*
X-23201000Y-1819362D01*
X-23201000Y-1180638D01*
X-23196555Y-1135501D01*
X-23185180Y-1098005D01*
X-23166708Y-1063446D01*
X-23141847Y-1033153D01*
X-23111554Y-1008292D01*
X-23076995Y-989820D01*
X-23039499Y-978445D01*
X-22994362Y-974000D01*
X-22255638Y-974000D01*
X-22210501Y-978445D01*
G37*
G36*
X23039499Y-978445D02*
G01*
X23076995Y-989820D01*
X23111554Y-1008292D01*
X23141847Y-1033153D01*
X23166708Y-1063446D01*
X23185180Y-1098005D01*
X23196555Y-1135501D01*
X23201000Y-1180638D01*
X23201000Y-1819362D01*
X23196555Y-1864499D01*
X23185180Y-1901995D01*
X23166708Y-1936554D01*
X23141847Y-1966847D01*
X23111554Y-1991708D01*
X23076995Y-2010180D01*
X23039499Y-2021555D01*
X22994362Y-2026000D01*
X22255638Y-2026000D01*
X22210501Y-2021555D01*
X22173005Y-2010180D01*
X22138446Y-1991708D01*
X22108153Y-1966847D01*
X22083292Y-1936554D01*
X22064820Y-1901995D01*
X22053445Y-1864499D01*
X22049000Y-1819362D01*
X22049000Y-1180638D01*
X22053445Y-1135501D01*
X22064820Y-1098005D01*
X22083292Y-1063446D01*
X22108153Y-1033153D01*
X22138446Y-1008292D01*
X22173005Y-989820D01*
X22210501Y-978445D01*
X22255638Y-974000D01*
X22994362Y-974000D01*
X23039499Y-978445D01*
G37*
G36*
X24789499Y-978445D02*
G01*
X24826995Y-989820D01*
X24861554Y-1008292D01*
X24891847Y-1033153D01*
X24916708Y-1063446D01*
X24935180Y-1098005D01*
X24946555Y-1135501D01*
X24951000Y-1180638D01*
X24951000Y-1819362D01*
X24946555Y-1864499D01*
X24935180Y-1901995D01*
X24916708Y-1936554D01*
X24891847Y-1966847D01*
X24861554Y-1991708D01*
X24826995Y-2010180D01*
X24789499Y-2021555D01*
X24744362Y-2026000D01*
X24005638Y-2026000D01*
X23960501Y-2021555D01*
X23923005Y-2010180D01*
X23888446Y-1991708D01*
X23858153Y-1966847D01*
X23833292Y-1936554D01*
X23814820Y-1901995D01*
X23803445Y-1864499D01*
X23799000Y-1819362D01*
X23799000Y-1180638D01*
X23803445Y-1135501D01*
X23814820Y-1098005D01*
X23833292Y-1063446D01*
X23858153Y-1033153D01*
X23888446Y-1008292D01*
X23923005Y-989820D01*
X23960501Y-978445D01*
X24005638Y-974000D01*
X24744362Y-974000D01*
X24789499Y-978445D01*
G37*
G36*
X-23960501Y-978445D02*
G01*
X-23923005Y-989820D01*
X-23888446Y-1008292D01*
X-23858153Y-1033153D01*
X-23833292Y-1063446D01*
X-23814820Y-1098005D01*
X-23803445Y-1135501D01*
X-23799000Y-1180638D01*
X-23799000Y-1819362D01*
X-23803445Y-1864499D01*
X-23814820Y-1901995D01*
X-23833292Y-1936554D01*
X-23858153Y-1966847D01*
X-23888446Y-1991708D01*
X-23923005Y-2010180D01*
X-23960501Y-2021555D01*
X-24005638Y-2026000D01*
X-24744362Y-2026000D01*
X-24789499Y-2021555D01*
X-24826995Y-2010180D01*
X-24861554Y-1991708D01*
X-24891847Y-1966847D01*
X-24916708Y-1936554D01*
X-24935180Y-1901995D01*
X-24946555Y-1864499D01*
X-24951000Y-1819362D01*
X-24951000Y-1180638D01*
X-24946555Y-1135501D01*
X-24935180Y-1098005D01*
X-24916708Y-1063446D01*
X-24891847Y-1033153D01*
X-24861554Y-1008292D01*
X-24826995Y-989820D01*
X-24789499Y-978445D01*
X-24744362Y-974000D01*
X-24005638Y-974000D01*
X-23960501Y-978445D01*
G37*
G36*
X-10774830Y-1250803D02*
G01*
X-10763125Y-1254354D01*
X-10752335Y-1260121D01*
X-10742881Y-1267881D01*
X-10735121Y-1277335D01*
X-10729354Y-1288125D01*
X-10725803Y-1299830D01*
X-10724000Y-1318138D01*
X-10724000Y-1681862D01*
X-10725803Y-1700170D01*
X-10729354Y-1711875D01*
X-10735121Y-1722665D01*
X-10742881Y-1732119D01*
X-10752335Y-1739879D01*
X-10763125Y-1745646D01*
X-10774830Y-1749197D01*
X-10793138Y-1751000D01*
X-12256862Y-1751000D01*
X-12275170Y-1749197D01*
X-12286875Y-1745646D01*
X-12297665Y-1739879D01*
X-12307119Y-1732119D01*
X-12314879Y-1722665D01*
X-12320646Y-1711875D01*
X-12324197Y-1700170D01*
X-12326000Y-1681862D01*
X-12326000Y-1318138D01*
X-12324197Y-1299830D01*
X-12320646Y-1288125D01*
X-12314879Y-1277335D01*
X-12307119Y-1267881D01*
X-12297665Y-1260121D01*
X-12286875Y-1254354D01*
X-12275170Y-1250803D01*
X-12256862Y-1249000D01*
X-10793138Y-1249000D01*
X-10774830Y-1250803D01*
G37*
G36*
X-19124830Y-1250803D02*
G01*
X-19113125Y-1254354D01*
X-19102335Y-1260121D01*
X-19092881Y-1267881D01*
X-19085121Y-1277335D01*
X-19079354Y-1288125D01*
X-19075803Y-1299830D01*
X-19074000Y-1318138D01*
X-19074000Y-1681862D01*
X-19075803Y-1700170D01*
X-19079354Y-1711875D01*
X-19085121Y-1722665D01*
X-19092881Y-1732119D01*
X-19102335Y-1739879D01*
X-19113125Y-1745646D01*
X-19124830Y-1749197D01*
X-19143138Y-1751000D01*
X-20606862Y-1751000D01*
X-20625170Y-1749197D01*
X-20636875Y-1745646D01*
X-20647665Y-1739879D01*
X-20657119Y-1732119D01*
X-20664879Y-1722665D01*
X-20670646Y-1711875D01*
X-20674197Y-1700170D01*
X-20676000Y-1681862D01*
X-20676000Y-1318138D01*
X-20674197Y-1299830D01*
X-20670646Y-1288125D01*
X-20664879Y-1277335D01*
X-20657119Y-1267881D01*
X-20647665Y-1260121D01*
X-20636875Y-1254354D01*
X-20625170Y-1250803D01*
X-20606862Y-1249000D01*
X-19143138Y-1249000D01*
X-19124830Y-1250803D01*
G37*
G36*
X12051000Y1960999D02*
G01*
X12053402Y1936613D01*
X12060515Y1913164D01*
X12072066Y1891553D01*
X12087611Y1872611D01*
X12106553Y1857066D01*
X12108607Y1855968D01*
X12071994Y1801049D01*
X12060465Y1779426D01*
X12053376Y1755970D01*
X12051000Y1731712D01*
X12051000Y1705949D01*
X12029690Y1699485D01*
X12008079Y1687934D01*
X11989137Y1672389D01*
X11973520Y1653338D01*
X11734852Y1295336D01*
X11728507Y1283435D01*
X11719996Y1273053D01*
X11571994Y1051050D01*
X11560465Y1029427D01*
X11553376Y1005971D01*
X11551000Y981713D01*
X11551000Y-1501000D01*
X10449000Y-1501000D01*
X10449000Y981713D01*
X10446598Y1006099D01*
X10439485Y1029548D01*
X10428006Y1051050D01*
X10280004Y1273053D01*
X10271500Y1283437D01*
X10265148Y1295336D01*
X10026480Y1653338D01*
X10010955Y1672296D01*
X9992029Y1687861D01*
X9970431Y1699435D01*
X9949000Y1705961D01*
X9949000Y1731712D01*
X9946598Y1756098D01*
X9939485Y1779547D01*
X9928006Y1801049D01*
X9891393Y1855968D01*
X9893447Y1857066D01*
X9912389Y1872611D01*
X9927934Y1891553D01*
X9939485Y1913164D01*
X9946598Y1936613D01*
X9949000Y1960999D01*
X9949000Y5811000D01*
X12051000Y5811000D01*
X12051000Y1960999D01*
G37*
G36*
X10051000Y-1501000D02*
G01*
X8949000Y-1501000D01*
X8949000Y1101000D01*
X10051000Y1101000D01*
X10051000Y-1501000D01*
G37*
G36*
X13051000Y-1501000D02*
G01*
X11949000Y-1501000D01*
X11949000Y1101000D01*
X13051000Y1101000D01*
X13051000Y-1501000D01*
G37*
G36*
X-10774830Y-450803D02*
G01*
X-10763125Y-454354D01*
X-10752335Y-460121D01*
X-10742881Y-467881D01*
X-10735121Y-477335D01*
X-10729354Y-488125D01*
X-10725803Y-499830D01*
X-10724000Y-518138D01*
X-10724000Y-881862D01*
X-10725803Y-900170D01*
X-10729354Y-911875D01*
X-10735121Y-922665D01*
X-10742881Y-932119D01*
X-10752335Y-939879D01*
X-10763125Y-945646D01*
X-10774830Y-949197D01*
X-10793138Y-951000D01*
X-12256862Y-951000D01*
X-12275170Y-949197D01*
X-12286875Y-945646D01*
X-12297665Y-939879D01*
X-12307119Y-932119D01*
X-12314879Y-922665D01*
X-12320646Y-911875D01*
X-12324197Y-900170D01*
X-12326000Y-881862D01*
X-12326000Y-518138D01*
X-12324197Y-499830D01*
X-12320646Y-488125D01*
X-12314879Y-477335D01*
X-12307119Y-467881D01*
X-12297665Y-460121D01*
X-12286875Y-454354D01*
X-12275170Y-450803D01*
X-12256862Y-449000D01*
X-10793138Y-449000D01*
X-10774830Y-450803D01*
G37*
G36*
X-19124830Y-450803D02*
G01*
X-19113125Y-454354D01*
X-19102335Y-460121D01*
X-19092881Y-467881D01*
X-19085121Y-477335D01*
X-19079354Y-488125D01*
X-19075803Y-499830D01*
X-19074000Y-518138D01*
X-19074000Y-881862D01*
X-19075803Y-900170D01*
X-19079354Y-911875D01*
X-19085121Y-922665D01*
X-19092881Y-932119D01*
X-19102335Y-939879D01*
X-19113125Y-945646D01*
X-19124830Y-949197D01*
X-19143138Y-951000D01*
X-20606862Y-951000D01*
X-20625170Y-949197D01*
X-20636875Y-945646D01*
X-20647665Y-939879D01*
X-20657119Y-932119D01*
X-20664879Y-922665D01*
X-20670646Y-911875D01*
X-20674197Y-900170D01*
X-20676000Y-881862D01*
X-20676000Y-518138D01*
X-20674197Y-499830D01*
X-20670646Y-488125D01*
X-20664879Y-477335D01*
X-20657119Y-467881D01*
X-20647665Y-460121D01*
X-20636875Y-454354D01*
X-20625170Y-450803D01*
X-20606862Y-449000D01*
X-19143138Y-449000D01*
X-19124830Y-450803D01*
G37*
G36*
X-23960501Y521555D02*
G01*
X-23923005Y510180D01*
X-23888446Y491708D01*
X-23858153Y466847D01*
X-23833292Y436554D01*
X-23814820Y401995D01*
X-23803445Y364499D01*
X-23799000Y319362D01*
X-23799000Y-319362D01*
X-23803445Y-364499D01*
X-23814820Y-401995D01*
X-23833292Y-436554D01*
X-23858153Y-466847D01*
X-23888446Y-491708D01*
X-23923005Y-510180D01*
X-23960501Y-521555D01*
X-24005638Y-526000D01*
X-24744362Y-526000D01*
X-24789499Y-521555D01*
X-24826995Y-510180D01*
X-24861554Y-491708D01*
X-24891847Y-466847D01*
X-24916708Y-436554D01*
X-24935180Y-401995D01*
X-24946555Y-364499D01*
X-24951000Y-319362D01*
X-24951000Y319362D01*
X-24946555Y364499D01*
X-24935180Y401995D01*
X-24916708Y436554D01*
X-24891847Y466847D01*
X-24861554Y491708D01*
X-24826995Y510180D01*
X-24789499Y521555D01*
X-24744362Y526000D01*
X-24005638Y526000D01*
X-23960501Y521555D01*
G37*
G36*
X24789499Y521555D02*
G01*
X24826995Y510180D01*
X24861554Y491708D01*
X24891847Y466847D01*
X24916708Y436554D01*
X24935180Y401995D01*
X24946555Y364499D01*
X24951000Y319362D01*
X24951000Y-319362D01*
X24946555Y-364499D01*
X24935180Y-401995D01*
X24916708Y-436554D01*
X24891847Y-466847D01*
X24861554Y-491708D01*
X24826995Y-510180D01*
X24789499Y-521555D01*
X24744362Y-526000D01*
X24005638Y-526000D01*
X23960501Y-521555D01*
X23923005Y-510180D01*
X23888446Y-491708D01*
X23858153Y-466847D01*
X23833292Y-436554D01*
X23814820Y-401995D01*
X23803445Y-364499D01*
X23799000Y-319362D01*
X23799000Y319362D01*
X23803445Y364499D01*
X23814820Y401995D01*
X23833292Y436554D01*
X23858153Y466847D01*
X23888446Y491708D01*
X23923005Y510180D01*
X23960501Y521555D01*
X24005638Y526000D01*
X24744362Y526000D01*
X24789499Y521555D01*
G37*
G36*
X23039499Y521555D02*
G01*
X23076995Y510180D01*
X23111554Y491708D01*
X23141847Y466847D01*
X23166708Y436554D01*
X23185180Y401995D01*
X23196555Y364499D01*
X23201000Y319362D01*
X23201000Y-319362D01*
X23196555Y-364499D01*
X23185180Y-401995D01*
X23166708Y-436554D01*
X23141847Y-466847D01*
X23111554Y-491708D01*
X23076995Y-510180D01*
X23039499Y-521555D01*
X22994362Y-526000D01*
X22255638Y-526000D01*
X22210501Y-521555D01*
X22173005Y-510180D01*
X22138446Y-491708D01*
X22108153Y-466847D01*
X22083292Y-436554D01*
X22064820Y-401995D01*
X22053445Y-364499D01*
X22049000Y-319362D01*
X22049000Y319362D01*
X22053445Y364499D01*
X22064820Y401995D01*
X22083292Y436554D01*
X22108153Y466847D01*
X22138446Y491708D01*
X22173005Y510180D01*
X22210501Y521555D01*
X22255638Y526000D01*
X22994362Y526000D01*
X23039499Y521555D01*
G37*
G36*
X-22210501Y521555D02*
G01*
X-22173005Y510180D01*
X-22138446Y491708D01*
X-22108153Y466847D01*
X-22083292Y436554D01*
X-22064820Y401995D01*
X-22053445Y364499D01*
X-22049000Y319362D01*
X-22049000Y-319362D01*
X-22053445Y-364499D01*
X-22064820Y-401995D01*
X-22083292Y-436554D01*
X-22108153Y-466847D01*
X-22138446Y-491708D01*
X-22173005Y-510180D01*
X-22210501Y-521555D01*
X-22255638Y-526000D01*
X-22994362Y-526000D01*
X-23039499Y-521555D01*
X-23076995Y-510180D01*
X-23111554Y-491708D01*
X-23141847Y-466847D01*
X-23166708Y-436554D01*
X-23185180Y-401995D01*
X-23196555Y-364499D01*
X-23201000Y-319362D01*
X-23201000Y319362D01*
X-23196555Y364499D01*
X-23185180Y401995D01*
X-23166708Y436554D01*
X-23141847Y466847D01*
X-23111554Y491708D01*
X-23076995Y510180D01*
X-23039499Y521555D01*
X-22994362Y526000D01*
X-22255638Y526000D01*
X-22210501Y521555D01*
G37*
G36*
X-19124830Y349197D02*
G01*
X-19113125Y345646D01*
X-19102335Y339879D01*
X-19092881Y332119D01*
X-19085121Y322665D01*
X-19079354Y311875D01*
X-19075803Y300170D01*
X-19074000Y281862D01*
X-19074000Y-81862D01*
X-19075803Y-100170D01*
X-19079354Y-111875D01*
X-19085121Y-122665D01*
X-19092881Y-132119D01*
X-19102335Y-139879D01*
X-19113125Y-145646D01*
X-19124830Y-149197D01*
X-19143138Y-151000D01*
X-20606862Y-151000D01*
X-20625170Y-149197D01*
X-20636875Y-145646D01*
X-20647665Y-139879D01*
X-20657119Y-132119D01*
X-20664879Y-122665D01*
X-20670646Y-111875D01*
X-20674197Y-100170D01*
X-20676000Y-81862D01*
X-20676000Y281862D01*
X-20674197Y300170D01*
X-20670646Y311875D01*
X-20664879Y322665D01*
X-20657119Y332119D01*
X-20647665Y339879D01*
X-20636875Y345646D01*
X-20625170Y349197D01*
X-20606862Y351000D01*
X-19143138Y351000D01*
X-19124830Y349197D01*
G37*
G36*
X-10774830Y349197D02*
G01*
X-10763125Y345646D01*
X-10752335Y339879D01*
X-10742881Y332119D01*
X-10735121Y322665D01*
X-10729354Y311875D01*
X-10725803Y300170D01*
X-10724000Y281862D01*
X-10724000Y-81862D01*
X-10725803Y-100170D01*
X-10729354Y-111875D01*
X-10735121Y-122665D01*
X-10742881Y-132119D01*
X-10752335Y-139879D01*
X-10763125Y-145646D01*
X-10774830Y-149197D01*
X-10793138Y-151000D01*
X-12256862Y-151000D01*
X-12275170Y-149197D01*
X-12286875Y-145646D01*
X-12297665Y-139879D01*
X-12307119Y-132119D01*
X-12314879Y-122665D01*
X-12320646Y-111875D01*
X-12324197Y-100170D01*
X-12326000Y-81862D01*
X-12326000Y281862D01*
X-12324197Y300170D01*
X-12320646Y311875D01*
X-12314879Y322665D01*
X-12307119Y332119D01*
X-12297665Y339879D01*
X-12286875Y345646D01*
X-12275170Y349197D01*
X-12256862Y351000D01*
X-10793138Y351000D01*
X-10774830Y349197D01*
G37*
G36*
X-6399000Y274000D02*
G01*
X-7701000Y274000D01*
X-7701000Y1726000D01*
X-6399000Y1726000D01*
X-6399000Y274000D01*
G37*
G36*
X-8499000Y274000D02*
G01*
X-9801000Y274000D01*
X-9801000Y1726000D01*
X-8499000Y1726000D01*
X-8499000Y274000D01*
G37*
G36*
X-10774830Y1149197D02*
G01*
X-10763125Y1145646D01*
X-10752335Y1139879D01*
X-10742881Y1132119D01*
X-10735121Y1122665D01*
X-10729354Y1111875D01*
X-10725803Y1100170D01*
X-10724000Y1081862D01*
X-10724000Y718138D01*
X-10725803Y699830D01*
X-10729354Y688125D01*
X-10735121Y677335D01*
X-10742881Y667881D01*
X-10752335Y660121D01*
X-10763125Y654354D01*
X-10774830Y650803D01*
X-10793138Y649000D01*
X-12256862Y649000D01*
X-12275170Y650803D01*
X-12286875Y654354D01*
X-12297665Y660121D01*
X-12307119Y667881D01*
X-12314879Y677335D01*
X-12320646Y688125D01*
X-12324197Y699830D01*
X-12326000Y718138D01*
X-12326000Y1081862D01*
X-12324197Y1100170D01*
X-12320646Y1111875D01*
X-12314879Y1122665D01*
X-12307119Y1132119D01*
X-12297665Y1139879D01*
X-12286875Y1145646D01*
X-12275170Y1149197D01*
X-12256862Y1151000D01*
X-10793138Y1151000D01*
X-10774830Y1149197D01*
G37*
G36*
X-19124830Y1149197D02*
G01*
X-19113125Y1145646D01*
X-19102335Y1139879D01*
X-19092881Y1132119D01*
X-19085121Y1122665D01*
X-19079354Y1111875D01*
X-19075803Y1100170D01*
X-19074000Y1081862D01*
X-19074000Y718138D01*
X-19075803Y699830D01*
X-19079354Y688125D01*
X-19085121Y677335D01*
X-19092881Y667881D01*
X-19102335Y660121D01*
X-19113125Y654354D01*
X-19124830Y650803D01*
X-19143138Y649000D01*
X-20606862Y649000D01*
X-20625170Y650803D01*
X-20636875Y654354D01*
X-20647665Y660121D01*
X-20657119Y667881D01*
X-20664879Y677335D01*
X-20670646Y688125D01*
X-20674197Y699830D01*
X-20676000Y718138D01*
X-20676000Y1081862D01*
X-20674197Y1100170D01*
X-20670646Y1111875D01*
X-20664879Y1122665D01*
X-20657119Y1132119D01*
X-20647665Y1139879D01*
X-20636875Y1145646D01*
X-20625170Y1149197D01*
X-20606862Y1151000D01*
X-19143138Y1151000D01*
X-19124830Y1149197D01*
G37*
G36*
X24789499Y2021555D02*
G01*
X24826995Y2010180D01*
X24861554Y1991708D01*
X24891847Y1966847D01*
X24916708Y1936554D01*
X24935180Y1901995D01*
X24946555Y1864499D01*
X24951000Y1819362D01*
X24951000Y1180638D01*
X24946555Y1135501D01*
X24935180Y1098005D01*
X24916708Y1063446D01*
X24891847Y1033153D01*
X24861554Y1008292D01*
X24826995Y989820D01*
X24789499Y978445D01*
X24744362Y974000D01*
X24005638Y974000D01*
X23960501Y978445D01*
X23923005Y989820D01*
X23888446Y1008292D01*
X23858153Y1033153D01*
X23833292Y1063446D01*
X23814820Y1098005D01*
X23803445Y1135501D01*
X23799000Y1180638D01*
X23799000Y1819362D01*
X23803445Y1864499D01*
X23814820Y1901995D01*
X23833292Y1936554D01*
X23858153Y1966847D01*
X23888446Y1991708D01*
X23923005Y2010180D01*
X23960501Y2021555D01*
X24005638Y2026000D01*
X24744362Y2026000D01*
X24789499Y2021555D01*
G37*
G36*
X-23960501Y2021555D02*
G01*
X-23923005Y2010180D01*
X-23888446Y1991708D01*
X-23858153Y1966847D01*
X-23833292Y1936554D01*
X-23814820Y1901995D01*
X-23803445Y1864499D01*
X-23799000Y1819362D01*
X-23799000Y1180638D01*
X-23803445Y1135501D01*
X-23814820Y1098005D01*
X-23833292Y1063446D01*
X-23858153Y1033153D01*
X-23888446Y1008292D01*
X-23923005Y989820D01*
X-23960501Y978445D01*
X-24005638Y974000D01*
X-24744362Y974000D01*
X-24789499Y978445D01*
X-24826995Y989820D01*
X-24861554Y1008292D01*
X-24891847Y1033153D01*
X-24916708Y1063446D01*
X-24935180Y1098005D01*
X-24946555Y1135501D01*
X-24951000Y1180638D01*
X-24951000Y1819362D01*
X-24946555Y1864499D01*
X-24935180Y1901995D01*
X-24916708Y1936554D01*
X-24891847Y1966847D01*
X-24861554Y1991708D01*
X-24826995Y2010180D01*
X-24789499Y2021555D01*
X-24744362Y2026000D01*
X-24005638Y2026000D01*
X-23960501Y2021555D01*
G37*
G36*
X23039499Y2021555D02*
G01*
X23076995Y2010180D01*
X23111554Y1991708D01*
X23141847Y1966847D01*
X23166708Y1936554D01*
X23185180Y1901995D01*
X23196555Y1864499D01*
X23201000Y1819362D01*
X23201000Y1180638D01*
X23196555Y1135501D01*
X23185180Y1098005D01*
X23166708Y1063446D01*
X23141847Y1033153D01*
X23111554Y1008292D01*
X23076995Y989820D01*
X23039499Y978445D01*
X22994362Y974000D01*
X22255638Y974000D01*
X22210501Y978445D01*
X22173005Y989820D01*
X22138446Y1008292D01*
X22108153Y1033153D01*
X22083292Y1063446D01*
X22064820Y1098005D01*
X22053445Y1135501D01*
X22049000Y1180638D01*
X22049000Y1819362D01*
X22053445Y1864499D01*
X22064820Y1901995D01*
X22083292Y1936554D01*
X22108153Y1966847D01*
X22138446Y1991708D01*
X22173005Y2010180D01*
X22210501Y2021555D01*
X22255638Y2026000D01*
X22994362Y2026000D01*
X23039499Y2021555D01*
G37*
G36*
X-22210501Y2021555D02*
G01*
X-22173005Y2010180D01*
X-22138446Y1991708D01*
X-22108153Y1966847D01*
X-22083292Y1936554D01*
X-22064820Y1901995D01*
X-22053445Y1864499D01*
X-22049000Y1819362D01*
X-22049000Y1180638D01*
X-22053445Y1135501D01*
X-22064820Y1098005D01*
X-22083292Y1063446D01*
X-22108153Y1033153D01*
X-22138446Y1008292D01*
X-22173005Y989820D01*
X-22210501Y978445D01*
X-22255638Y974000D01*
X-22994362Y974000D01*
X-23039499Y978445D01*
X-23076995Y989820D01*
X-23111554Y1008292D01*
X-23141847Y1033153D01*
X-23166708Y1063446D01*
X-23185180Y1098005D01*
X-23196555Y1135501D01*
X-23201000Y1180638D01*
X-23201000Y1819362D01*
X-23196555Y1864499D01*
X-23185180Y1901995D01*
X-23166708Y1936554D01*
X-23141847Y1966847D01*
X-23111554Y1991708D01*
X-23076995Y2010180D01*
X-23039499Y2021555D01*
X-22994362Y2026000D01*
X-22255638Y2026000D01*
X-22210501Y2021555D01*
G37*
G36*
X-15899830Y3074197D02*
G01*
X-15888125Y3070646D01*
X-15877335Y3064879D01*
X-15867881Y3057119D01*
X-15860121Y3047665D01*
X-15854354Y3036875D01*
X-15850803Y3025170D01*
X-15849000Y3006862D01*
X-15849000Y1543138D01*
X-15850803Y1524830D01*
X-15854354Y1513125D01*
X-15860121Y1502335D01*
X-15867881Y1492881D01*
X-15877335Y1485121D01*
X-15888125Y1479354D01*
X-15899830Y1475803D01*
X-15918138Y1474000D01*
X-16281862Y1474000D01*
X-16300170Y1475803D01*
X-16311875Y1479354D01*
X-16322665Y1485121D01*
X-16332119Y1492881D01*
X-16339879Y1502335D01*
X-16345646Y1513125D01*
X-16349197Y1524830D01*
X-16351000Y1543138D01*
X-16351000Y3006862D01*
X-16349197Y3025170D01*
X-16345646Y3036875D01*
X-16339879Y3047665D01*
X-16332119Y3057119D01*
X-16322665Y3064879D01*
X-16311875Y3070646D01*
X-16300170Y3074197D01*
X-16281862Y3076000D01*
X-15918138Y3076000D01*
X-15899830Y3074197D01*
G37*
G36*
X-13499830Y3074197D02*
G01*
X-13488125Y3070646D01*
X-13477335Y3064879D01*
X-13467881Y3057119D01*
X-13460121Y3047665D01*
X-13454354Y3036875D01*
X-13450803Y3025170D01*
X-13449000Y3006862D01*
X-13449000Y1543138D01*
X-13450803Y1524830D01*
X-13454354Y1513125D01*
X-13460121Y1502335D01*
X-13467881Y1492881D01*
X-13477335Y1485121D01*
X-13488125Y1479354D01*
X-13499830Y1475803D01*
X-13518138Y1474000D01*
X-13881862Y1474000D01*
X-13900170Y1475803D01*
X-13911875Y1479354D01*
X-13922665Y1485121D01*
X-13932119Y1492881D01*
X-13939879Y1502335D01*
X-13945646Y1513125D01*
X-13949197Y1524830D01*
X-13951000Y1543138D01*
X-13951000Y3006862D01*
X-13949197Y3025170D01*
X-13945646Y3036875D01*
X-13939879Y3047665D01*
X-13932119Y3057119D01*
X-13922665Y3064879D01*
X-13911875Y3070646D01*
X-13900170Y3074197D01*
X-13881862Y3076000D01*
X-13518138Y3076000D01*
X-13499830Y3074197D01*
G37*
G36*
X-14299830Y3074197D02*
G01*
X-14288125Y3070646D01*
X-14277335Y3064879D01*
X-14267881Y3057119D01*
X-14260121Y3047665D01*
X-14254354Y3036875D01*
X-14250803Y3025170D01*
X-14249000Y3006862D01*
X-14249000Y1543138D01*
X-14250803Y1524830D01*
X-14254354Y1513125D01*
X-14260121Y1502335D01*
X-14267881Y1492881D01*
X-14277335Y1485121D01*
X-14288125Y1479354D01*
X-14299830Y1475803D01*
X-14318138Y1474000D01*
X-14681862Y1474000D01*
X-14700170Y1475803D01*
X-14711875Y1479354D01*
X-14722665Y1485121D01*
X-14732119Y1492881D01*
X-14739879Y1502335D01*
X-14745646Y1513125D01*
X-14749197Y1524830D01*
X-14751000Y1543138D01*
X-14751000Y3006862D01*
X-14749197Y3025170D01*
X-14745646Y3036875D01*
X-14739879Y3047665D01*
X-14732119Y3057119D01*
X-14722665Y3064879D01*
X-14711875Y3070646D01*
X-14700170Y3074197D01*
X-14681862Y3076000D01*
X-14318138Y3076000D01*
X-14299830Y3074197D01*
G37*
G36*
X-15099830Y3074197D02*
G01*
X-15088125Y3070646D01*
X-15077335Y3064879D01*
X-15067881Y3057119D01*
X-15060121Y3047665D01*
X-15054354Y3036875D01*
X-15050803Y3025170D01*
X-15049000Y3006862D01*
X-15049000Y1543138D01*
X-15050803Y1524830D01*
X-15054354Y1513125D01*
X-15060121Y1502335D01*
X-15067881Y1492881D01*
X-15077335Y1485121D01*
X-15088125Y1479354D01*
X-15099830Y1475803D01*
X-15118138Y1474000D01*
X-15481862Y1474000D01*
X-15500170Y1475803D01*
X-15511875Y1479354D01*
X-15522665Y1485121D01*
X-15532119Y1492881D01*
X-15539879Y1502335D01*
X-15545646Y1513125D01*
X-15549197Y1524830D01*
X-15551000Y1543138D01*
X-15551000Y3006862D01*
X-15549197Y3025170D01*
X-15545646Y3036875D01*
X-15539879Y3047665D01*
X-15532119Y3057119D01*
X-15522665Y3064879D01*
X-15511875Y3070646D01*
X-15500170Y3074197D01*
X-15481862Y3076000D01*
X-15118138Y3076000D01*
X-15099830Y3074197D01*
G37*
G36*
X-16699830Y3074197D02*
G01*
X-16688125Y3070646D01*
X-16677335Y3064879D01*
X-16667881Y3057119D01*
X-16660121Y3047665D01*
X-16654354Y3036875D01*
X-16650803Y3025170D01*
X-16649000Y3006862D01*
X-16649000Y1543138D01*
X-16650803Y1524830D01*
X-16654354Y1513125D01*
X-16660121Y1502335D01*
X-16667881Y1492881D01*
X-16677335Y1485121D01*
X-16688125Y1479354D01*
X-16699830Y1475803D01*
X-16718138Y1474000D01*
X-17081862Y1474000D01*
X-17100170Y1475803D01*
X-17111875Y1479354D01*
X-17122665Y1485121D01*
X-17132119Y1492881D01*
X-17139879Y1502335D01*
X-17145646Y1513125D01*
X-17149197Y1524830D01*
X-17151000Y1543138D01*
X-17151000Y3006862D01*
X-17149197Y3025170D01*
X-17145646Y3036875D01*
X-17139879Y3047665D01*
X-17132119Y3057119D01*
X-17122665Y3064879D01*
X-17111875Y3070646D01*
X-17100170Y3074197D01*
X-17081862Y3076000D01*
X-16718138Y3076000D01*
X-16699830Y3074197D01*
G37*
G36*
X-17499830Y3074197D02*
G01*
X-17488125Y3070646D01*
X-17477335Y3064879D01*
X-17467881Y3057119D01*
X-17460121Y3047665D01*
X-17454354Y3036875D01*
X-17450803Y3025170D01*
X-17449000Y3006862D01*
X-17449000Y1543138D01*
X-17450803Y1524830D01*
X-17454354Y1513125D01*
X-17460121Y1502335D01*
X-17467881Y1492881D01*
X-17477335Y1485121D01*
X-17488125Y1479354D01*
X-17499830Y1475803D01*
X-17518138Y1474000D01*
X-17881862Y1474000D01*
X-17900170Y1475803D01*
X-17911875Y1479354D01*
X-17922665Y1485121D01*
X-17932119Y1492881D01*
X-17939879Y1502335D01*
X-17945646Y1513125D01*
X-17949197Y1524830D01*
X-17951000Y1543138D01*
X-17951000Y3006862D01*
X-17949197Y3025170D01*
X-17945646Y3036875D01*
X-17939879Y3047665D01*
X-17932119Y3057119D01*
X-17922665Y3064879D01*
X-17911875Y3070646D01*
X-17900170Y3074197D01*
X-17881862Y3076000D01*
X-17518138Y3076000D01*
X-17499830Y3074197D01*
G37*
G36*
X-18299830Y3074197D02*
G01*
X-18288125Y3070646D01*
X-18277335Y3064879D01*
X-18267881Y3057119D01*
X-18260121Y3047665D01*
X-18254354Y3036875D01*
X-18250803Y3025170D01*
X-18249000Y3006862D01*
X-18249000Y1543138D01*
X-18250803Y1524830D01*
X-18254354Y1513125D01*
X-18260121Y1502335D01*
X-18267881Y1492881D01*
X-18277335Y1485121D01*
X-18288125Y1479354D01*
X-18299830Y1475803D01*
X-18318138Y1474000D01*
X-18681862Y1474000D01*
X-18700170Y1475803D01*
X-18711875Y1479354D01*
X-18722665Y1485121D01*
X-18732119Y1492881D01*
X-18739879Y1502335D01*
X-18745646Y1513125D01*
X-18749197Y1524830D01*
X-18751000Y1543138D01*
X-18751000Y3006862D01*
X-18749197Y3025170D01*
X-18745646Y3036875D01*
X-18739879Y3047665D01*
X-18732119Y3057119D01*
X-18722665Y3064879D01*
X-18711875Y3070646D01*
X-18700170Y3074197D01*
X-18681862Y3076000D01*
X-18318138Y3076000D01*
X-18299830Y3074197D01*
G37*
G36*
X-12699830Y3074197D02*
G01*
X-12688125Y3070646D01*
X-12677335Y3064879D01*
X-12667881Y3057119D01*
X-12660121Y3047665D01*
X-12654354Y3036875D01*
X-12650803Y3025170D01*
X-12649000Y3006862D01*
X-12649000Y1543138D01*
X-12650803Y1524830D01*
X-12654354Y1513125D01*
X-12660121Y1502335D01*
X-12667881Y1492881D01*
X-12677335Y1485121D01*
X-12688125Y1479354D01*
X-12699830Y1475803D01*
X-12718138Y1474000D01*
X-13081862Y1474000D01*
X-13100170Y1475803D01*
X-13111875Y1479354D01*
X-13122665Y1485121D01*
X-13132119Y1492881D01*
X-13139879Y1502335D01*
X-13145646Y1513125D01*
X-13149197Y1524830D01*
X-13151000Y1543138D01*
X-13151000Y3006862D01*
X-13149197Y3025170D01*
X-13145646Y3036875D01*
X-13139879Y3047665D01*
X-13132119Y3057119D01*
X-13122665Y3064879D01*
X-13111875Y3070646D01*
X-13100170Y3074197D01*
X-13081862Y3076000D01*
X-12718138Y3076000D01*
X-12699830Y3074197D01*
G37*
G36*
X-6663121Y3168044D02*
G01*
X-6640163Y3161079D01*
X-6618999Y3149767D01*
X-6600453Y3134547D01*
X-6585233Y3116001D01*
X-6573921Y3094837D01*
X-6566956Y3071879D01*
X-6564000Y3041860D01*
X-6564000Y2558140D01*
X-6566956Y2528121D01*
X-6573921Y2505163D01*
X-6585233Y2483999D01*
X-6600453Y2465453D01*
X-6618999Y2450233D01*
X-6640163Y2438921D01*
X-6663121Y2431956D01*
X-6693140Y2429000D01*
X-7536860Y2429000D01*
X-7566879Y2431956D01*
X-7589837Y2438921D01*
X-7611001Y2450233D01*
X-7629547Y2465453D01*
X-7644767Y2483999D01*
X-7656079Y2505163D01*
X-7663044Y2528121D01*
X-7666000Y2558140D01*
X-7666000Y3041860D01*
X-7663044Y3071879D01*
X-7656079Y3094837D01*
X-7644767Y3116001D01*
X-7629547Y3134547D01*
X-7611001Y3149767D01*
X-7589837Y3161079D01*
X-7566879Y3168044D01*
X-7536860Y3171000D01*
X-6693140Y3171000D01*
X-6663121Y3168044D01*
G37*
G36*
X-8033121Y3168044D02*
G01*
X-8010163Y3161079D01*
X-7988999Y3149767D01*
X-7970453Y3134547D01*
X-7955233Y3116001D01*
X-7943921Y3094837D01*
X-7936956Y3071879D01*
X-7934000Y3041860D01*
X-7934000Y2558140D01*
X-7936956Y2528121D01*
X-7943921Y2505163D01*
X-7955233Y2483999D01*
X-7970453Y2465453D01*
X-7988999Y2450233D01*
X-8010163Y2438921D01*
X-8033121Y2431956D01*
X-8063140Y2429000D01*
X-8906860Y2429000D01*
X-8936879Y2431956D01*
X-8959837Y2438921D01*
X-8981001Y2450233D01*
X-8999547Y2465453D01*
X-9014767Y2483999D01*
X-9026079Y2505163D01*
X-9033044Y2528121D01*
X-9036000Y2558140D01*
X-9036000Y3041860D01*
X-9033044Y3071879D01*
X-9026079Y3094837D01*
X-9014767Y3116001D01*
X-8999547Y3134547D01*
X-8981001Y3149767D01*
X-8959837Y3161079D01*
X-8936879Y3168044D01*
X-8906860Y3171000D01*
X-8063140Y3171000D01*
X-8033121Y3168044D01*
G37*
G36*
X-22210501Y3521555D02*
G01*
X-22173005Y3510180D01*
X-22138446Y3491708D01*
X-22108153Y3466847D01*
X-22083292Y3436554D01*
X-22064820Y3401995D01*
X-22053445Y3364499D01*
X-22049000Y3319362D01*
X-22049000Y2680638D01*
X-22053445Y2635501D01*
X-22064820Y2598005D01*
X-22083292Y2563446D01*
X-22108153Y2533153D01*
X-22138446Y2508292D01*
X-22173005Y2489820D01*
X-22210501Y2478445D01*
X-22255638Y2474000D01*
X-22994362Y2474000D01*
X-23039499Y2478445D01*
X-23076995Y2489820D01*
X-23111554Y2508292D01*
X-23141847Y2533153D01*
X-23166708Y2563446D01*
X-23185180Y2598005D01*
X-23196555Y2635501D01*
X-23201000Y2680638D01*
X-23201000Y3319362D01*
X-23196555Y3364499D01*
X-23185180Y3401995D01*
X-23166708Y3436554D01*
X-23141847Y3466847D01*
X-23111554Y3491708D01*
X-23076995Y3510180D01*
X-23039499Y3521555D01*
X-22994362Y3526000D01*
X-22255638Y3526000D01*
X-22210501Y3521555D01*
G37*
G36*
X23039499Y3521555D02*
G01*
X23076995Y3510180D01*
X23111554Y3491708D01*
X23141847Y3466847D01*
X23166708Y3436554D01*
X23185180Y3401995D01*
X23196555Y3364499D01*
X23201000Y3319362D01*
X23201000Y2680638D01*
X23196555Y2635501D01*
X23185180Y2598005D01*
X23166708Y2563446D01*
X23141847Y2533153D01*
X23111554Y2508292D01*
X23076995Y2489820D01*
X23039499Y2478445D01*
X22994362Y2474000D01*
X22255638Y2474000D01*
X22210501Y2478445D01*
X22173005Y2489820D01*
X22138446Y2508292D01*
X22108153Y2533153D01*
X22083292Y2563446D01*
X22064820Y2598005D01*
X22053445Y2635501D01*
X22049000Y2680638D01*
X22049000Y3319362D01*
X22053445Y3364499D01*
X22064820Y3401995D01*
X22083292Y3436554D01*
X22108153Y3466847D01*
X22138446Y3491708D01*
X22173005Y3510180D01*
X22210501Y3521555D01*
X22255638Y3526000D01*
X22994362Y3526000D01*
X23039499Y3521555D01*
G37*
G36*
X-23960501Y3521555D02*
G01*
X-23923005Y3510180D01*
X-23888446Y3491708D01*
X-23858153Y3466847D01*
X-23833292Y3436554D01*
X-23814820Y3401995D01*
X-23803445Y3364499D01*
X-23799000Y3319362D01*
X-23799000Y2680638D01*
X-23803445Y2635501D01*
X-23814820Y2598005D01*
X-23833292Y2563446D01*
X-23858153Y2533153D01*
X-23888446Y2508292D01*
X-23923005Y2489820D01*
X-23960501Y2478445D01*
X-24005638Y2474000D01*
X-24744362Y2474000D01*
X-24789499Y2478445D01*
X-24826995Y2489820D01*
X-24861554Y2508292D01*
X-24891847Y2533153D01*
X-24916708Y2563446D01*
X-24935180Y2598005D01*
X-24946555Y2635501D01*
X-24951000Y2680638D01*
X-24951000Y3319362D01*
X-24946555Y3364499D01*
X-24935180Y3401995D01*
X-24916708Y3436554D01*
X-24891847Y3466847D01*
X-24861554Y3491708D01*
X-24826995Y3510180D01*
X-24789499Y3521555D01*
X-24744362Y3526000D01*
X-24005638Y3526000D01*
X-23960501Y3521555D01*
G37*
G36*
X24789499Y3521555D02*
G01*
X24826995Y3510180D01*
X24861554Y3491708D01*
X24891847Y3466847D01*
X24916708Y3436554D01*
X24935180Y3401995D01*
X24946555Y3364499D01*
X24951000Y3319362D01*
X24951000Y2680638D01*
X24946555Y2635501D01*
X24935180Y2598005D01*
X24916708Y2563446D01*
X24891847Y2533153D01*
X24861554Y2508292D01*
X24826995Y2489820D01*
X24789499Y2478445D01*
X24744362Y2474000D01*
X24005638Y2474000D01*
X23960501Y2478445D01*
X23923005Y2489820D01*
X23888446Y2508292D01*
X23858153Y2533153D01*
X23833292Y2563446D01*
X23814820Y2598005D01*
X23803445Y2635501D01*
X23799000Y2680638D01*
X23799000Y3319362D01*
X23803445Y3364499D01*
X23814820Y3401995D01*
X23833292Y3436554D01*
X23858153Y3466847D01*
X23888446Y3491708D01*
X23923005Y3510180D01*
X23960501Y3521555D01*
X24005638Y3526000D01*
X24744362Y3526000D01*
X24789499Y3521555D01*
G37*
G36*
X23039499Y5021555D02*
G01*
X23076995Y5010180D01*
X23111554Y4991708D01*
X23141847Y4966847D01*
X23166708Y4936554D01*
X23185180Y4901995D01*
X23196555Y4864499D01*
X23201000Y4819362D01*
X23201000Y4180638D01*
X23196555Y4135501D01*
X23185180Y4098005D01*
X23166708Y4063446D01*
X23141847Y4033153D01*
X23111554Y4008292D01*
X23076995Y3989820D01*
X23039499Y3978445D01*
X22994362Y3974000D01*
X22255638Y3974000D01*
X22210501Y3978445D01*
X22173005Y3989820D01*
X22138446Y4008292D01*
X22108153Y4033153D01*
X22083292Y4063446D01*
X22064820Y4098005D01*
X22053445Y4135501D01*
X22049000Y4180638D01*
X22049000Y4819362D01*
X22053445Y4864499D01*
X22064820Y4901995D01*
X22083292Y4936554D01*
X22108153Y4966847D01*
X22138446Y4991708D01*
X22173005Y5010180D01*
X22210501Y5021555D01*
X22255638Y5026000D01*
X22994362Y5026000D01*
X23039499Y5021555D01*
G37*
G36*
X24789499Y5021555D02*
G01*
X24826995Y5010180D01*
X24861554Y4991708D01*
X24891847Y4966847D01*
X24916708Y4936554D01*
X24935180Y4901995D01*
X24946555Y4864499D01*
X24951000Y4819362D01*
X24951000Y4180638D01*
X24946555Y4135501D01*
X24935180Y4098005D01*
X24916708Y4063446D01*
X24891847Y4033153D01*
X24861554Y4008292D01*
X24826995Y3989820D01*
X24789499Y3978445D01*
X24744362Y3974000D01*
X24005638Y3974000D01*
X23960501Y3978445D01*
X23923005Y3989820D01*
X23888446Y4008292D01*
X23858153Y4033153D01*
X23833292Y4063446D01*
X23814820Y4098005D01*
X23803445Y4135501D01*
X23799000Y4180638D01*
X23799000Y4819362D01*
X23803445Y4864499D01*
X23814820Y4901995D01*
X23833292Y4936554D01*
X23858153Y4966847D01*
X23888446Y4991708D01*
X23923005Y5010180D01*
X23960501Y5021555D01*
X24005638Y5026000D01*
X24744362Y5026000D01*
X24789499Y5021555D01*
G37*
G36*
X-23960501Y5021555D02*
G01*
X-23923005Y5010180D01*
X-23888446Y4991708D01*
X-23858153Y4966847D01*
X-23833292Y4936554D01*
X-23814820Y4901995D01*
X-23803445Y4864499D01*
X-23799000Y4819362D01*
X-23799000Y4180638D01*
X-23803445Y4135501D01*
X-23814820Y4098005D01*
X-23833292Y4063446D01*
X-23858153Y4033153D01*
X-23888446Y4008292D01*
X-23923005Y3989820D01*
X-23960501Y3978445D01*
X-24005638Y3974000D01*
X-24744362Y3974000D01*
X-24789499Y3978445D01*
X-24826995Y3989820D01*
X-24861554Y4008292D01*
X-24891847Y4033153D01*
X-24916708Y4063446D01*
X-24935180Y4098005D01*
X-24946555Y4135501D01*
X-24951000Y4180638D01*
X-24951000Y4819362D01*
X-24946555Y4864499D01*
X-24935180Y4901995D01*
X-24916708Y4936554D01*
X-24891847Y4966847D01*
X-24861554Y4991708D01*
X-24826995Y5010180D01*
X-24789499Y5021555D01*
X-24744362Y5026000D01*
X-24005638Y5026000D01*
X-23960501Y5021555D01*
G37*
G36*
X-22210501Y5021555D02*
G01*
X-22173005Y5010180D01*
X-22138446Y4991708D01*
X-22108153Y4966847D01*
X-22083292Y4936554D01*
X-22064820Y4901995D01*
X-22053445Y4864499D01*
X-22049000Y4819362D01*
X-22049000Y4180638D01*
X-22053445Y4135501D01*
X-22064820Y4098005D01*
X-22083292Y4063446D01*
X-22108153Y4033153D01*
X-22138446Y4008292D01*
X-22173005Y3989820D01*
X-22210501Y3978445D01*
X-22255638Y3974000D01*
X-22994362Y3974000D01*
X-23039499Y3978445D01*
X-23076995Y3989820D01*
X-23111554Y4008292D01*
X-23141847Y4033153D01*
X-23166708Y4063446D01*
X-23185180Y4098005D01*
X-23196555Y4135501D01*
X-23201000Y4180638D01*
X-23201000Y4819362D01*
X-23196555Y4864499D01*
X-23185180Y4901995D01*
X-23166708Y4936554D01*
X-23141847Y4966847D01*
X-23111554Y4991708D01*
X-23076995Y5010180D01*
X-23039499Y5021555D01*
X-22994362Y5026000D01*
X-22255638Y5026000D01*
X-22210501Y5021555D01*
G37*
G36*
X4289890Y5725983D02*
G01*
X4399362Y5680638D01*
X4408364Y5676909D01*
X4514988Y5605665D01*
X4605665Y5514988D01*
X4638475Y5465885D01*
X4676910Y5408362D01*
X4725983Y5289890D01*
X4751000Y5164119D01*
X4751000Y5035881D01*
X4733712Y4948969D01*
X4725983Y4910110D01*
X4676909Y4791636D01*
X4605665Y4685012D01*
X4514988Y4594335D01*
X4408364Y4523091D01*
X4408363Y4523090D01*
X4408362Y4523090D01*
X4289890Y4474017D01*
X4164119Y4449000D01*
X4035881Y4449000D01*
X3910110Y4474017D01*
X3791638Y4523090D01*
X3791637Y4523090D01*
X3791636Y4523091D01*
X3685012Y4594335D01*
X3594335Y4685012D01*
X3523091Y4791636D01*
X3474017Y4910110D01*
X3466288Y4948969D01*
X3449000Y5035881D01*
X3449000Y5164119D01*
X3474017Y5289890D01*
X3523090Y5408362D01*
X3561526Y5465885D01*
X3594335Y5514988D01*
X3685012Y5605665D01*
X3791636Y5676909D01*
X3800639Y5680638D01*
X3910110Y5725983D01*
X4035881Y5751000D01*
X4164119Y5751000D01*
X4289890Y5725983D01*
G37*
G36*
X-12885501Y6496555D02*
G01*
X-12848005Y6485180D01*
X-12813446Y6466708D01*
X-12783153Y6441847D01*
X-12758292Y6411554D01*
X-12739820Y6376995D01*
X-12728445Y6339499D01*
X-12724000Y6294362D01*
X-12724000Y5555638D01*
X-12728445Y5510501D01*
X-12739820Y5473005D01*
X-12758292Y5438446D01*
X-12783153Y5408153D01*
X-12813446Y5383292D01*
X-12848005Y5364820D01*
X-12885501Y5353445D01*
X-12930638Y5349000D01*
X-13569362Y5349000D01*
X-13614499Y5353445D01*
X-13651995Y5364820D01*
X-13686554Y5383292D01*
X-13716847Y5408153D01*
X-13741708Y5438446D01*
X-13760180Y5473005D01*
X-13771555Y5510501D01*
X-13776000Y5555638D01*
X-13776000Y6294362D01*
X-13771555Y6339499D01*
X-13760180Y6376995D01*
X-13741708Y6411554D01*
X-13716847Y6441847D01*
X-13686554Y6466708D01*
X-13651995Y6485180D01*
X-13614499Y6496555D01*
X-13569362Y6501000D01*
X-12930638Y6501000D01*
X-12885501Y6496555D01*
G37*
G36*
X-11385501Y6496555D02*
G01*
X-11348005Y6485180D01*
X-11313446Y6466708D01*
X-11283153Y6441847D01*
X-11258292Y6411554D01*
X-11239820Y6376995D01*
X-11228445Y6339499D01*
X-11224000Y6294362D01*
X-11224000Y5555638D01*
X-11228445Y5510501D01*
X-11239820Y5473005D01*
X-11258292Y5438446D01*
X-11283153Y5408153D01*
X-11313446Y5383292D01*
X-11348005Y5364820D01*
X-11385501Y5353445D01*
X-11430638Y5349000D01*
X-12069362Y5349000D01*
X-12114499Y5353445D01*
X-12151995Y5364820D01*
X-12186554Y5383292D01*
X-12216847Y5408153D01*
X-12241708Y5438446D01*
X-12260180Y5473005D01*
X-12271555Y5510501D01*
X-12276000Y5555638D01*
X-12276000Y6294362D01*
X-12271555Y6339499D01*
X-12260180Y6376995D01*
X-12241708Y6411554D01*
X-12216847Y6441847D01*
X-12186554Y6466708D01*
X-12151995Y6485180D01*
X-12114499Y6496555D01*
X-12069362Y6501000D01*
X-11430638Y6501000D01*
X-11385501Y6496555D01*
G37*
G36*
X-9885501Y6496555D02*
G01*
X-9848005Y6485180D01*
X-9813446Y6466708D01*
X-9783153Y6441847D01*
X-9758292Y6411554D01*
X-9739820Y6376995D01*
X-9728445Y6339499D01*
X-9724000Y6294362D01*
X-9724000Y5555638D01*
X-9728445Y5510501D01*
X-9739820Y5473005D01*
X-9758292Y5438446D01*
X-9783153Y5408153D01*
X-9813446Y5383292D01*
X-9848005Y5364820D01*
X-9885501Y5353445D01*
X-9930638Y5349000D01*
X-10569362Y5349000D01*
X-10614499Y5353445D01*
X-10651995Y5364820D01*
X-10686554Y5383292D01*
X-10716847Y5408153D01*
X-10741708Y5438446D01*
X-10760180Y5473005D01*
X-10771555Y5510501D01*
X-10776000Y5555638D01*
X-10776000Y6294362D01*
X-10771555Y6339499D01*
X-10760180Y6376995D01*
X-10741708Y6411554D01*
X-10716847Y6441847D01*
X-10686554Y6466708D01*
X-10651995Y6485180D01*
X-10614499Y6496555D01*
X-10569362Y6501000D01*
X-9930638Y6501000D01*
X-9885501Y6496555D01*
G37*
G36*
X-8385501Y6496555D02*
G01*
X-8348005Y6485180D01*
X-8313446Y6466708D01*
X-8283153Y6441847D01*
X-8258292Y6411554D01*
X-8239820Y6376995D01*
X-8228445Y6339499D01*
X-8224000Y6294362D01*
X-8224000Y5555638D01*
X-8228445Y5510501D01*
X-8239820Y5473005D01*
X-8258292Y5438446D01*
X-8283153Y5408153D01*
X-8313446Y5383292D01*
X-8348005Y5364820D01*
X-8385501Y5353445D01*
X-8430638Y5349000D01*
X-9069362Y5349000D01*
X-9114499Y5353445D01*
X-9151995Y5364820D01*
X-9186554Y5383292D01*
X-9216847Y5408153D01*
X-9241708Y5438446D01*
X-9260180Y5473005D01*
X-9271555Y5510501D01*
X-9276000Y5555638D01*
X-9276000Y6294362D01*
X-9271555Y6339499D01*
X-9260180Y6376995D01*
X-9241708Y6411554D01*
X-9216847Y6441847D01*
X-9186554Y6466708D01*
X-9151995Y6485180D01*
X-9114499Y6496555D01*
X-9069362Y6501000D01*
X-8430638Y6501000D01*
X-8385501Y6496555D01*
G37*
G36*
X-6885501Y6496555D02*
G01*
X-6848005Y6485180D01*
X-6813446Y6466708D01*
X-6783153Y6441847D01*
X-6758292Y6411554D01*
X-6739820Y6376995D01*
X-6728445Y6339499D01*
X-6724000Y6294362D01*
X-6724000Y5555638D01*
X-6728445Y5510501D01*
X-6739820Y5473005D01*
X-6758292Y5438446D01*
X-6783153Y5408153D01*
X-6813446Y5383292D01*
X-6848005Y5364820D01*
X-6885501Y5353445D01*
X-6930638Y5349000D01*
X-7569362Y5349000D01*
X-7614499Y5353445D01*
X-7651995Y5364820D01*
X-7686554Y5383292D01*
X-7716847Y5408153D01*
X-7741708Y5438446D01*
X-7760180Y5473005D01*
X-7771555Y5510501D01*
X-7776000Y5555638D01*
X-7776000Y6294362D01*
X-7771555Y6339499D01*
X-7760180Y6376995D01*
X-7741708Y6411554D01*
X-7716847Y6441847D01*
X-7686554Y6466708D01*
X-7651995Y6485180D01*
X-7614499Y6496555D01*
X-7569362Y6501000D01*
X-6930638Y6501000D01*
X-6885501Y6496555D01*
G37*
G36*
X-23960501Y6521555D02*
G01*
X-23923005Y6510180D01*
X-23888446Y6491708D01*
X-23858153Y6466847D01*
X-23833292Y6436554D01*
X-23814820Y6401995D01*
X-23803445Y6364499D01*
X-23799000Y6319362D01*
X-23799000Y5680638D01*
X-23803445Y5635501D01*
X-23814820Y5598005D01*
X-23833292Y5563446D01*
X-23858153Y5533153D01*
X-23888446Y5508292D01*
X-23923005Y5489820D01*
X-23960501Y5478445D01*
X-24005638Y5474000D01*
X-24744362Y5474000D01*
X-24789499Y5478445D01*
X-24826995Y5489820D01*
X-24861554Y5508292D01*
X-24891847Y5533153D01*
X-24916708Y5563446D01*
X-24935180Y5598005D01*
X-24946555Y5635501D01*
X-24951000Y5680638D01*
X-24951000Y6319362D01*
X-24946555Y6364499D01*
X-24935180Y6401995D01*
X-24916708Y6436554D01*
X-24891847Y6466847D01*
X-24861554Y6491708D01*
X-24826995Y6510180D01*
X-24789499Y6521555D01*
X-24744362Y6526000D01*
X-24005638Y6526000D01*
X-23960501Y6521555D01*
G37*
G36*
X-22210501Y6521555D02*
G01*
X-22173005Y6510180D01*
X-22138446Y6491708D01*
X-22108153Y6466847D01*
X-22083292Y6436554D01*
X-22064820Y6401995D01*
X-22053445Y6364499D01*
X-22049000Y6319362D01*
X-22049000Y5680638D01*
X-22053445Y5635501D01*
X-22064820Y5598005D01*
X-22083292Y5563446D01*
X-22108153Y5533153D01*
X-22138446Y5508292D01*
X-22173005Y5489820D01*
X-22210501Y5478445D01*
X-22255638Y5474000D01*
X-22994362Y5474000D01*
X-23039499Y5478445D01*
X-23076995Y5489820D01*
X-23111554Y5508292D01*
X-23141847Y5533153D01*
X-23166708Y5563446D01*
X-23185180Y5598005D01*
X-23196555Y5635501D01*
X-23201000Y5680638D01*
X-23201000Y6319362D01*
X-23196555Y6364499D01*
X-23185180Y6401995D01*
X-23166708Y6436554D01*
X-23141847Y6466847D01*
X-23111554Y6491708D01*
X-23076995Y6510180D01*
X-23039499Y6521555D01*
X-22994362Y6526000D01*
X-22255638Y6526000D01*
X-22210501Y6521555D01*
G37*
G36*
X23039499Y6521555D02*
G01*
X23076995Y6510180D01*
X23111554Y6491708D01*
X23141847Y6466847D01*
X23166708Y6436554D01*
X23185180Y6401995D01*
X23196555Y6364499D01*
X23201000Y6319362D01*
X23201000Y5680638D01*
X23196555Y5635501D01*
X23185180Y5598005D01*
X23166708Y5563446D01*
X23141847Y5533153D01*
X23111554Y5508292D01*
X23076995Y5489820D01*
X23039499Y5478445D01*
X22994362Y5474000D01*
X22255638Y5474000D01*
X22210501Y5478445D01*
X22173005Y5489820D01*
X22138446Y5508292D01*
X22108153Y5533153D01*
X22083292Y5563446D01*
X22064820Y5598005D01*
X22053445Y5635501D01*
X22049000Y5680638D01*
X22049000Y6319362D01*
X22053445Y6364499D01*
X22064820Y6401995D01*
X22083292Y6436554D01*
X22108153Y6466847D01*
X22138446Y6491708D01*
X22173005Y6510180D01*
X22210501Y6521555D01*
X22255638Y6526000D01*
X22994362Y6526000D01*
X23039499Y6521555D01*
G37*
G36*
X24789499Y6521555D02*
G01*
X24826995Y6510180D01*
X24861554Y6491708D01*
X24891847Y6466847D01*
X24916708Y6436554D01*
X24935180Y6401995D01*
X24946555Y6364499D01*
X24951000Y6319362D01*
X24951000Y5680638D01*
X24946555Y5635501D01*
X24935180Y5598005D01*
X24916708Y5563446D01*
X24891847Y5533153D01*
X24861554Y5508292D01*
X24826995Y5489820D01*
X24789499Y5478445D01*
X24744362Y5474000D01*
X24005638Y5474000D01*
X23960501Y5478445D01*
X23923005Y5489820D01*
X23888446Y5508292D01*
X23858153Y5533153D01*
X23833292Y5563446D01*
X23814820Y5598005D01*
X23803445Y5635501D01*
X23799000Y5680638D01*
X23799000Y6319362D01*
X23803445Y6364499D01*
X23814820Y6401995D01*
X23833292Y6436554D01*
X23858153Y6466847D01*
X23888446Y6491708D01*
X23923005Y6510180D01*
X23960501Y6521555D01*
X24005638Y6526000D01*
X24744362Y6526000D01*
X24789499Y6521555D01*
G37*
G36*
X23039499Y8021555D02*
G01*
X23076995Y8010180D01*
X23111554Y7991708D01*
X23141847Y7966847D01*
X23166708Y7936554D01*
X23185180Y7901995D01*
X23196555Y7864499D01*
X23201000Y7819362D01*
X23201000Y7180638D01*
X23196555Y7135501D01*
X23185180Y7098005D01*
X23166708Y7063446D01*
X23141847Y7033153D01*
X23111554Y7008292D01*
X23076995Y6989820D01*
X23039499Y6978445D01*
X22994362Y6974000D01*
X22255638Y6974000D01*
X22210501Y6978445D01*
X22173005Y6989820D01*
X22138446Y7008292D01*
X22108153Y7033153D01*
X22083292Y7063446D01*
X22064820Y7098005D01*
X22053445Y7135501D01*
X22049000Y7180638D01*
X22049000Y7819362D01*
X22053445Y7864499D01*
X22064820Y7901995D01*
X22083292Y7936554D01*
X22108153Y7966847D01*
X22138446Y7991708D01*
X22173005Y8010180D01*
X22210501Y8021555D01*
X22255638Y8026000D01*
X22994362Y8026000D01*
X23039499Y8021555D01*
G37*
G36*
X-22210501Y8021555D02*
G01*
X-22173005Y8010180D01*
X-22138446Y7991708D01*
X-22108153Y7966847D01*
X-22083292Y7936554D01*
X-22064820Y7901995D01*
X-22053445Y7864499D01*
X-22049000Y7819362D01*
X-22049000Y7180638D01*
X-22053445Y7135501D01*
X-22064820Y7098005D01*
X-22083292Y7063446D01*
X-22108153Y7033153D01*
X-22138446Y7008292D01*
X-22173005Y6989820D01*
X-22210501Y6978445D01*
X-22255638Y6974000D01*
X-22994362Y6974000D01*
X-23039499Y6978445D01*
X-23076995Y6989820D01*
X-23111554Y7008292D01*
X-23141847Y7033153D01*
X-23166708Y7063446D01*
X-23185180Y7098005D01*
X-23196555Y7135501D01*
X-23201000Y7180638D01*
X-23201000Y7819362D01*
X-23196555Y7864499D01*
X-23185180Y7901995D01*
X-23166708Y7936554D01*
X-23141847Y7966847D01*
X-23111554Y7991708D01*
X-23076995Y8010180D01*
X-23039499Y8021555D01*
X-22994362Y8026000D01*
X-22255638Y8026000D01*
X-22210501Y8021555D01*
G37*
G36*
X-23960501Y8021555D02*
G01*
X-23923005Y8010180D01*
X-23888446Y7991708D01*
X-23858153Y7966847D01*
X-23833292Y7936554D01*
X-23814820Y7901995D01*
X-23803445Y7864499D01*
X-23799000Y7819362D01*
X-23799000Y7180638D01*
X-23803445Y7135501D01*
X-23814820Y7098005D01*
X-23833292Y7063446D01*
X-23858153Y7033153D01*
X-23888446Y7008292D01*
X-23923005Y6989820D01*
X-23960501Y6978445D01*
X-24005638Y6974000D01*
X-24744362Y6974000D01*
X-24789499Y6978445D01*
X-24826995Y6989820D01*
X-24861554Y7008292D01*
X-24891847Y7033153D01*
X-24916708Y7063446D01*
X-24935180Y7098005D01*
X-24946555Y7135501D01*
X-24951000Y7180638D01*
X-24951000Y7819362D01*
X-24946555Y7864499D01*
X-24935180Y7901995D01*
X-24916708Y7936554D01*
X-24891847Y7966847D01*
X-24861554Y7991708D01*
X-24826995Y8010180D01*
X-24789499Y8021555D01*
X-24744362Y8026000D01*
X-24005638Y8026000D01*
X-23960501Y8021555D01*
G37*
G36*
X24789499Y8021555D02*
G01*
X24826995Y8010180D01*
X24861554Y7991708D01*
X24891847Y7966847D01*
X24916708Y7936554D01*
X24935180Y7901995D01*
X24946555Y7864499D01*
X24951000Y7819362D01*
X24951000Y7180638D01*
X24946555Y7135501D01*
X24935180Y7098005D01*
X24916708Y7063446D01*
X24891847Y7033153D01*
X24861554Y7008292D01*
X24826995Y6989820D01*
X24789499Y6978445D01*
X24744362Y6974000D01*
X24005638Y6974000D01*
X23960501Y6978445D01*
X23923005Y6989820D01*
X23888446Y7008292D01*
X23858153Y7033153D01*
X23833292Y7063446D01*
X23814820Y7098005D01*
X23803445Y7135501D01*
X23799000Y7180638D01*
X23799000Y7819362D01*
X23803445Y7864499D01*
X23814820Y7901995D01*
X23833292Y7936554D01*
X23858153Y7966847D01*
X23888446Y7991708D01*
X23923005Y8010180D01*
X23960501Y8021555D01*
X24005638Y8026000D01*
X24744362Y8026000D01*
X24789499Y8021555D01*
G37*
G36*
X-6885501Y8246555D02*
G01*
X-6848005Y8235180D01*
X-6813446Y8216708D01*
X-6783153Y8191847D01*
X-6758292Y8161554D01*
X-6739820Y8126995D01*
X-6728445Y8089499D01*
X-6724000Y8044362D01*
X-6724000Y7305638D01*
X-6728445Y7260501D01*
X-6739820Y7223005D01*
X-6758292Y7188446D01*
X-6783153Y7158153D01*
X-6813446Y7133292D01*
X-6848005Y7114820D01*
X-6885501Y7103445D01*
X-6930638Y7099000D01*
X-7569362Y7099000D01*
X-7614499Y7103445D01*
X-7651995Y7114820D01*
X-7686554Y7133292D01*
X-7716847Y7158153D01*
X-7741708Y7188446D01*
X-7760180Y7223005D01*
X-7771555Y7260501D01*
X-7776000Y7305638D01*
X-7776000Y8044362D01*
X-7771555Y8089499D01*
X-7760180Y8126995D01*
X-7741708Y8161554D01*
X-7716847Y8191847D01*
X-7686554Y8216708D01*
X-7651995Y8235180D01*
X-7614499Y8246555D01*
X-7569362Y8251000D01*
X-6930638Y8251000D01*
X-6885501Y8246555D01*
G37*
G36*
X-8385501Y8246555D02*
G01*
X-8348005Y8235180D01*
X-8313446Y8216708D01*
X-8283153Y8191847D01*
X-8258292Y8161554D01*
X-8239820Y8126995D01*
X-8228445Y8089499D01*
X-8224000Y8044362D01*
X-8224000Y7305638D01*
X-8228445Y7260501D01*
X-8239820Y7223005D01*
X-8258292Y7188446D01*
X-8283153Y7158153D01*
X-8313446Y7133292D01*
X-8348005Y7114820D01*
X-8385501Y7103445D01*
X-8430638Y7099000D01*
X-9069362Y7099000D01*
X-9114499Y7103445D01*
X-9151995Y7114820D01*
X-9186554Y7133292D01*
X-9216847Y7158153D01*
X-9241708Y7188446D01*
X-9260180Y7223005D01*
X-9271555Y7260501D01*
X-9276000Y7305638D01*
X-9276000Y8044362D01*
X-9271555Y8089499D01*
X-9260180Y8126995D01*
X-9241708Y8161554D01*
X-9216847Y8191847D01*
X-9186554Y8216708D01*
X-9151995Y8235180D01*
X-9114499Y8246555D01*
X-9069362Y8251000D01*
X-8430638Y8251000D01*
X-8385501Y8246555D01*
G37*
G36*
X-9885501Y8246555D02*
G01*
X-9848005Y8235180D01*
X-9813446Y8216708D01*
X-9783153Y8191847D01*
X-9758292Y8161554D01*
X-9739820Y8126995D01*
X-9728445Y8089499D01*
X-9724000Y8044362D01*
X-9724000Y7305638D01*
X-9728445Y7260501D01*
X-9739820Y7223005D01*
X-9758292Y7188446D01*
X-9783153Y7158153D01*
X-9813446Y7133292D01*
X-9848005Y7114820D01*
X-9885501Y7103445D01*
X-9930638Y7099000D01*
X-10569362Y7099000D01*
X-10614499Y7103445D01*
X-10651995Y7114820D01*
X-10686554Y7133292D01*
X-10716847Y7158153D01*
X-10741708Y7188446D01*
X-10760180Y7223005D01*
X-10771555Y7260501D01*
X-10776000Y7305638D01*
X-10776000Y8044362D01*
X-10771555Y8089499D01*
X-10760180Y8126995D01*
X-10741708Y8161554D01*
X-10716847Y8191847D01*
X-10686554Y8216708D01*
X-10651995Y8235180D01*
X-10614499Y8246555D01*
X-10569362Y8251000D01*
X-9930638Y8251000D01*
X-9885501Y8246555D01*
G37*
G36*
X-11385501Y8246555D02*
G01*
X-11348005Y8235180D01*
X-11313446Y8216708D01*
X-11283153Y8191847D01*
X-11258292Y8161554D01*
X-11239820Y8126995D01*
X-11228445Y8089499D01*
X-11224000Y8044362D01*
X-11224000Y7305638D01*
X-11228445Y7260501D01*
X-11239820Y7223005D01*
X-11258292Y7188446D01*
X-11283153Y7158153D01*
X-11313446Y7133292D01*
X-11348005Y7114820D01*
X-11385501Y7103445D01*
X-11430638Y7099000D01*
X-12069362Y7099000D01*
X-12114499Y7103445D01*
X-12151995Y7114820D01*
X-12186554Y7133292D01*
X-12216847Y7158153D01*
X-12241708Y7188446D01*
X-12260180Y7223005D01*
X-12271555Y7260501D01*
X-12276000Y7305638D01*
X-12276000Y8044362D01*
X-12271555Y8089499D01*
X-12260180Y8126995D01*
X-12241708Y8161554D01*
X-12216847Y8191847D01*
X-12186554Y8216708D01*
X-12151995Y8235180D01*
X-12114499Y8246555D01*
X-12069362Y8251000D01*
X-11430638Y8251000D01*
X-11385501Y8246555D01*
G37*
G36*
X-12885501Y8246555D02*
G01*
X-12848005Y8235180D01*
X-12813446Y8216708D01*
X-12783153Y8191847D01*
X-12758292Y8161554D01*
X-12739820Y8126995D01*
X-12728445Y8089499D01*
X-12724000Y8044362D01*
X-12724000Y7305638D01*
X-12728445Y7260501D01*
X-12739820Y7223005D01*
X-12758292Y7188446D01*
X-12783153Y7158153D01*
X-12813446Y7133292D01*
X-12848005Y7114820D01*
X-12885501Y7103445D01*
X-12930638Y7099000D01*
X-13569362Y7099000D01*
X-13614499Y7103445D01*
X-13651995Y7114820D01*
X-13686554Y7133292D01*
X-13716847Y7158153D01*
X-13741708Y7188446D01*
X-13760180Y7223005D01*
X-13771555Y7260501D01*
X-13776000Y7305638D01*
X-13776000Y8044362D01*
X-13771555Y8089499D01*
X-13760180Y8126995D01*
X-13741708Y8161554D01*
X-13716847Y8191847D01*
X-13686554Y8216708D01*
X-13651995Y8235180D01*
X-13614499Y8246555D01*
X-13569362Y8251000D01*
X-12930638Y8251000D01*
X-12885501Y8246555D01*
G37*
G36*
X-2886488Y8946073D02*
G01*
X-2737188Y8916376D01*
X-2573216Y8848456D01*
X-2425646Y8749853D01*
X-2300147Y8624354D01*
X-2201544Y8476784D01*
X-2133624Y8312812D01*
X-2122595Y8257362D01*
X-2115484Y8233922D01*
X-2103933Y8212311D01*
X-2088387Y8193369D01*
X-2069445Y8177824D01*
X-2047835Y8166273D01*
X-2024386Y8159160D01*
X-2000000Y8156758D01*
X-1975613Y8159160D01*
X-1952165Y8166273D01*
X-1930554Y8177824D01*
X-1911612Y8193370D01*
X-1896067Y8212312D01*
X-1884516Y8233922D01*
X-1877405Y8257362D01*
X-1866376Y8312812D01*
X-1798456Y8476784D01*
X-1699853Y8624354D01*
X-1574354Y8749853D01*
X-1426784Y8848456D01*
X-1262812Y8916376D01*
X-1113512Y8946073D01*
X-1088742Y8951000D01*
X-911258Y8951000D01*
X-886488Y8946073D01*
X-737188Y8916376D01*
X-573216Y8848456D01*
X-425646Y8749853D01*
X-300147Y8624354D01*
X-201544Y8476784D01*
X-133624Y8312812D01*
X-122595Y8257362D01*
X-115484Y8233922D01*
X-103933Y8212311D01*
X-88387Y8193369D01*
X-69445Y8177824D01*
X-47835Y8166273D01*
X-24386Y8159160D01*
X0Y8156758D01*
X24387Y8159160D01*
X47835Y8166273D01*
X69446Y8177824D01*
X88388Y8193370D01*
X103933Y8212312D01*
X115484Y8233922D01*
X122595Y8257362D01*
X133624Y8312812D01*
X201544Y8476784D01*
X300147Y8624354D01*
X425646Y8749853D01*
X573216Y8848456D01*
X737188Y8916376D01*
X886488Y8946073D01*
X911258Y8951000D01*
X1088742Y8951000D01*
X1113512Y8946073D01*
X1262812Y8916376D01*
X1426784Y8848456D01*
X1574354Y8749853D01*
X1699853Y8624354D01*
X1798456Y8476784D01*
X1866376Y8312812D01*
X1877405Y8257362D01*
X1884516Y8233922D01*
X1896067Y8212311D01*
X1911613Y8193369D01*
X1930555Y8177824D01*
X1952165Y8166273D01*
X1975614Y8159160D01*
X2000000Y8156758D01*
X2024387Y8159160D01*
X2047835Y8166273D01*
X2069446Y8177824D01*
X2088388Y8193370D01*
X2103933Y8212312D01*
X2115484Y8233922D01*
X2122595Y8257362D01*
X2133624Y8312812D01*
X2201544Y8476784D01*
X2300147Y8624354D01*
X2425646Y8749853D01*
X2573216Y8848456D01*
X2737188Y8916376D01*
X2886488Y8946073D01*
X2911258Y8951000D01*
X3088742Y8951000D01*
X3113512Y8946073D01*
X3262812Y8916376D01*
X3426784Y8848456D01*
X3574354Y8749853D01*
X3699853Y8624354D01*
X3798456Y8476784D01*
X3866376Y8312812D01*
X3894748Y8170174D01*
X3901000Y8138742D01*
X3901000Y7961258D01*
X3897416Y7943242D01*
X3866376Y7787188D01*
X3798456Y7623216D01*
X3699853Y7475646D01*
X3574354Y7350147D01*
X3426784Y7251544D01*
X3262812Y7183624D01*
X3134757Y7158153D01*
X3088742Y7149000D01*
X2911258Y7149000D01*
X2865243Y7158153D01*
X2737188Y7183624D01*
X2573216Y7251544D01*
X2425646Y7350147D01*
X2300147Y7475646D01*
X2201544Y7623216D01*
X2133624Y7787188D01*
X2122595Y7842638D01*
X2115484Y7866078D01*
X2103933Y7887689D01*
X2088387Y7906631D01*
X2069445Y7922176D01*
X2047835Y7933727D01*
X2024386Y7940840D01*
X2000000Y7943242D01*
X1975613Y7940840D01*
X1952165Y7933727D01*
X1930554Y7922176D01*
X1911612Y7906630D01*
X1896067Y7887688D01*
X1884516Y7866078D01*
X1877405Y7842638D01*
X1866376Y7787188D01*
X1798456Y7623216D01*
X1699853Y7475646D01*
X1574354Y7350147D01*
X1426784Y7251544D01*
X1262812Y7183624D01*
X1134757Y7158153D01*
X1088742Y7149000D01*
X911258Y7149000D01*
X865243Y7158153D01*
X737188Y7183624D01*
X573216Y7251544D01*
X425646Y7350147D01*
X300147Y7475646D01*
X201544Y7623216D01*
X133624Y7787188D01*
X122595Y7842638D01*
X115484Y7866078D01*
X103933Y7887689D01*
X88387Y7906631D01*
X69445Y7922176D01*
X47835Y7933727D01*
X24386Y7940840D01*
X0Y7943242D01*
X-24387Y7940840D01*
X-47835Y7933727D01*
X-69446Y7922176D01*
X-88388Y7906630D01*
X-103933Y7887688D01*
X-115484Y7866078D01*
X-122595Y7842638D01*
X-133624Y7787188D01*
X-201544Y7623216D01*
X-300147Y7475646D01*
X-425646Y7350147D01*
X-573216Y7251544D01*
X-737188Y7183624D01*
X-865243Y7158153D01*
X-911258Y7149000D01*
X-1088742Y7149000D01*
X-1134757Y7158153D01*
X-1262812Y7183624D01*
X-1426784Y7251544D01*
X-1574354Y7350147D01*
X-1699853Y7475646D01*
X-1798456Y7623216D01*
X-1866376Y7787188D01*
X-1877405Y7842638D01*
X-1884516Y7866078D01*
X-1896067Y7887689D01*
X-1911613Y7906631D01*
X-1930555Y7922176D01*
X-1952165Y7933727D01*
X-1975614Y7940840D01*
X-2000000Y7943242D01*
X-2024387Y7940840D01*
X-2047835Y7933727D01*
X-2069446Y7922176D01*
X-2088388Y7906630D01*
X-2103933Y7887688D01*
X-2115484Y7866078D01*
X-2122595Y7842638D01*
X-2133624Y7787188D01*
X-2201544Y7623216D01*
X-2300147Y7475646D01*
X-2425646Y7350147D01*
X-2573216Y7251544D01*
X-2737188Y7183624D01*
X-2865243Y7158153D01*
X-2911258Y7149000D01*
X-3088742Y7149000D01*
X-3134757Y7158153D01*
X-3262812Y7183624D01*
X-3426784Y7251544D01*
X-3574354Y7350147D01*
X-3699853Y7475646D01*
X-3798456Y7623216D01*
X-3866376Y7787188D01*
X-3897416Y7943242D01*
X-3901000Y7961258D01*
X-3901000Y8138742D01*
X-3894748Y8170174D01*
X-3866376Y8312812D01*
X-3798456Y8476784D01*
X-3699853Y8624354D01*
X-3574354Y8749853D01*
X-3426784Y8848456D01*
X-3262812Y8916376D01*
X-3113512Y8946073D01*
X-3088742Y8951000D01*
X-2911258Y8951000D01*
X-2886488Y8946073D01*
G37*
G36*
X6180721Y9229826D02*
G01*
X6280995Y9188291D01*
X6280996Y9188290D01*
X6371242Y9127990D01*
X6447990Y9051242D01*
X6447991Y9051240D01*
X6508291Y8960995D01*
X6539516Y8885611D01*
X6551067Y8864000D01*
X6566612Y8845059D01*
X6585554Y8829513D01*
X6607165Y8817962D01*
X6630614Y8810849D01*
X6655000Y8808447D01*
X6679386Y8810849D01*
X6702835Y8817962D01*
X6724446Y8829513D01*
X6743387Y8845058D01*
X6758933Y8864000D01*
X6770484Y8885611D01*
X6801709Y8960995D01*
X6862009Y9051240D01*
X6862010Y9051242D01*
X6938758Y9127990D01*
X7029004Y9188290D01*
X7029005Y9188291D01*
X7129279Y9229826D01*
X7235730Y9251000D01*
X7344270Y9251000D01*
X7450721Y9229826D01*
X7550995Y9188291D01*
X7550996Y9188290D01*
X7641242Y9127990D01*
X7717990Y9051242D01*
X7717991Y9051240D01*
X7778291Y8960995D01*
X7809516Y8885611D01*
X7821067Y8864000D01*
X7836612Y8845059D01*
X7855554Y8829513D01*
X7877165Y8817962D01*
X7900614Y8810849D01*
X7925000Y8808447D01*
X7949386Y8810849D01*
X7972835Y8817962D01*
X7994446Y8829513D01*
X8013387Y8845058D01*
X8028933Y8864000D01*
X8040484Y8885611D01*
X8071709Y8960995D01*
X8132009Y9051240D01*
X8132010Y9051242D01*
X8208758Y9127990D01*
X8299004Y9188290D01*
X8299005Y9188291D01*
X8399279Y9229826D01*
X8505730Y9251000D01*
X8614270Y9251000D01*
X8720721Y9229826D01*
X8820995Y9188291D01*
X8820996Y9188290D01*
X8911242Y9127990D01*
X8987990Y9051242D01*
X8987991Y9051240D01*
X9048291Y8960995D01*
X9079516Y8885611D01*
X9091067Y8864000D01*
X9106612Y8845059D01*
X9125554Y8829513D01*
X9147165Y8817962D01*
X9170614Y8810849D01*
X9195000Y8808447D01*
X9219386Y8810849D01*
X9242835Y8817962D01*
X9264446Y8829513D01*
X9283387Y8845058D01*
X9298933Y8864000D01*
X9310484Y8885611D01*
X9341709Y8960995D01*
X9402009Y9051240D01*
X9402010Y9051242D01*
X9478758Y9127990D01*
X9569004Y9188290D01*
X9569005Y9188291D01*
X9669279Y9229826D01*
X9775730Y9251000D01*
X9884270Y9251000D01*
X9990721Y9229826D01*
X10090995Y9188291D01*
X10090996Y9188290D01*
X10181242Y9127990D01*
X10257990Y9051242D01*
X10257991Y9051240D01*
X10320068Y8958336D01*
X10335614Y8939394D01*
X10354556Y8923849D01*
X10376167Y8912298D01*
X10399615Y8905185D01*
X10424002Y8902783D01*
X10448388Y8905185D01*
X10471837Y8912298D01*
X10493447Y8923849D01*
X10512389Y8939395D01*
X10527934Y8958337D01*
X10539485Y8979948D01*
X10546598Y9003396D01*
X10549000Y9027782D01*
X10549000Y9251000D01*
X11651000Y9251000D01*
X11651000Y8149000D01*
X10549000Y8149000D01*
X10549000Y8372218D01*
X10546598Y8396604D01*
X10539485Y8420053D01*
X10527934Y8441664D01*
X10512389Y8460606D01*
X10493447Y8476151D01*
X10471836Y8487702D01*
X10448387Y8494815D01*
X10424001Y8497217D01*
X10399615Y8494815D01*
X10376166Y8487702D01*
X10354555Y8476151D01*
X10335613Y8460606D01*
X10320068Y8441664D01*
X10278988Y8380184D01*
X10257990Y8348758D01*
X10181242Y8272010D01*
X10149798Y8251000D01*
X10090995Y8211709D01*
X9990721Y8170174D01*
X9884270Y8149000D01*
X9775730Y8149000D01*
X9669279Y8170174D01*
X9569005Y8211709D01*
X9510202Y8251000D01*
X9478758Y8272010D01*
X9402010Y8348758D01*
X9370041Y8396604D01*
X9341709Y8439005D01*
X9310484Y8514389D01*
X9298933Y8536000D01*
X9283388Y8554941D01*
X9264446Y8570487D01*
X9242835Y8582038D01*
X9219386Y8589151D01*
X9195000Y8591553D01*
X9170614Y8589151D01*
X9147165Y8582038D01*
X9125554Y8570487D01*
X9106613Y8554942D01*
X9091067Y8536000D01*
X9079516Y8514389D01*
X9048291Y8439005D01*
X9019959Y8396604D01*
X8987990Y8348758D01*
X8911242Y8272010D01*
X8879798Y8251000D01*
X8820995Y8211709D01*
X8720721Y8170174D01*
X8614270Y8149000D01*
X8505730Y8149000D01*
X8399279Y8170174D01*
X8299005Y8211709D01*
X8240202Y8251000D01*
X8208758Y8272010D01*
X8132010Y8348758D01*
X8100041Y8396604D01*
X8071709Y8439005D01*
X8040484Y8514389D01*
X8028933Y8536000D01*
X8013388Y8554941D01*
X7994446Y8570487D01*
X7972835Y8582038D01*
X7949386Y8589151D01*
X7925000Y8591553D01*
X7900614Y8589151D01*
X7877165Y8582038D01*
X7855554Y8570487D01*
X7836613Y8554942D01*
X7821067Y8536000D01*
X7809516Y8514389D01*
X7778291Y8439005D01*
X7749959Y8396604D01*
X7717990Y8348758D01*
X7641242Y8272010D01*
X7609798Y8251000D01*
X7550995Y8211709D01*
X7450721Y8170174D01*
X7344270Y8149000D01*
X7235730Y8149000D01*
X7129279Y8170174D01*
X7029005Y8211709D01*
X6970202Y8251000D01*
X6938758Y8272010D01*
X6862010Y8348758D01*
X6830041Y8396604D01*
X6801709Y8439005D01*
X6770484Y8514389D01*
X6758933Y8536000D01*
X6743388Y8554941D01*
X6724446Y8570487D01*
X6702835Y8582038D01*
X6679386Y8589151D01*
X6655000Y8591553D01*
X6630614Y8589151D01*
X6607165Y8582038D01*
X6585554Y8570487D01*
X6566613Y8554942D01*
X6551067Y8536000D01*
X6539516Y8514389D01*
X6508291Y8439005D01*
X6479959Y8396604D01*
X6447990Y8348758D01*
X6371242Y8272010D01*
X6339798Y8251000D01*
X6280995Y8211709D01*
X6180721Y8170174D01*
X6074270Y8149000D01*
X5965730Y8149000D01*
X5859279Y8170174D01*
X5759005Y8211709D01*
X5700202Y8251000D01*
X5668758Y8272010D01*
X5592010Y8348758D01*
X5560041Y8396604D01*
X5531709Y8439005D01*
X5490174Y8539279D01*
X5469000Y8645730D01*
X5469000Y8754270D01*
X5490174Y8860721D01*
X5531709Y8960995D01*
X5592009Y9051240D01*
X5592010Y9051242D01*
X5668758Y9127990D01*
X5759004Y9188290D01*
X5759005Y9188291D01*
X5859279Y9229826D01*
X5965730Y9251000D01*
X6074270Y9251000D01*
X6180721Y9229826D01*
G37*
G36*
X-23960501Y9521555D02*
G01*
X-23923005Y9510180D01*
X-23888446Y9491708D01*
X-23858153Y9466847D01*
X-23833292Y9436554D01*
X-23814820Y9401995D01*
X-23803445Y9364499D01*
X-23799000Y9319362D01*
X-23799000Y8680638D01*
X-23803445Y8635501D01*
X-23814820Y8598005D01*
X-23833292Y8563446D01*
X-23858153Y8533153D01*
X-23888446Y8508292D01*
X-23923005Y8489820D01*
X-23960501Y8478445D01*
X-24005638Y8474000D01*
X-24744362Y8474000D01*
X-24789499Y8478445D01*
X-24826995Y8489820D01*
X-24861554Y8508292D01*
X-24891847Y8533153D01*
X-24916708Y8563446D01*
X-24935180Y8598005D01*
X-24946555Y8635501D01*
X-24951000Y8680638D01*
X-24951000Y9319362D01*
X-24946555Y9364499D01*
X-24935180Y9401995D01*
X-24916708Y9436554D01*
X-24891847Y9466847D01*
X-24861554Y9491708D01*
X-24826995Y9510180D01*
X-24789499Y9521555D01*
X-24744362Y9526000D01*
X-24005638Y9526000D01*
X-23960501Y9521555D01*
G37*
G36*
X-22210501Y9521555D02*
G01*
X-22173005Y9510180D01*
X-22138446Y9491708D01*
X-22108153Y9466847D01*
X-22083292Y9436554D01*
X-22064820Y9401995D01*
X-22053445Y9364499D01*
X-22049000Y9319362D01*
X-22049000Y8680638D01*
X-22053445Y8635501D01*
X-22064820Y8598005D01*
X-22083292Y8563446D01*
X-22108153Y8533153D01*
X-22138446Y8508292D01*
X-22173005Y8489820D01*
X-22210501Y8478445D01*
X-22255638Y8474000D01*
X-22994362Y8474000D01*
X-23039499Y8478445D01*
X-23076995Y8489820D01*
X-23111554Y8508292D01*
X-23141847Y8533153D01*
X-23166708Y8563446D01*
X-23185180Y8598005D01*
X-23196555Y8635501D01*
X-23201000Y8680638D01*
X-23201000Y9319362D01*
X-23196555Y9364499D01*
X-23185180Y9401995D01*
X-23166708Y9436554D01*
X-23141847Y9466847D01*
X-23111554Y9491708D01*
X-23076995Y9510180D01*
X-23039499Y9521555D01*
X-22994362Y9526000D01*
X-22255638Y9526000D01*
X-22210501Y9521555D01*
G37*
G36*
X23039499Y9521555D02*
G01*
X23076995Y9510180D01*
X23111554Y9491708D01*
X23141847Y9466847D01*
X23166708Y9436554D01*
X23185180Y9401995D01*
X23196555Y9364499D01*
X23201000Y9319362D01*
X23201000Y8680638D01*
X23196555Y8635501D01*
X23185180Y8598005D01*
X23166708Y8563446D01*
X23141847Y8533153D01*
X23111554Y8508292D01*
X23076995Y8489820D01*
X23039499Y8478445D01*
X22994362Y8474000D01*
X22255638Y8474000D01*
X22210501Y8478445D01*
X22173005Y8489820D01*
X22138446Y8508292D01*
X22108153Y8533153D01*
X22083292Y8563446D01*
X22064820Y8598005D01*
X22053445Y8635501D01*
X22049000Y8680638D01*
X22049000Y9319362D01*
X22053445Y9364499D01*
X22064820Y9401995D01*
X22083292Y9436554D01*
X22108153Y9466847D01*
X22138446Y9491708D01*
X22173005Y9510180D01*
X22210501Y9521555D01*
X22255638Y9526000D01*
X22994362Y9526000D01*
X23039499Y9521555D01*
G37*
G36*
X24789499Y9521555D02*
G01*
X24826995Y9510180D01*
X24861554Y9491708D01*
X24891847Y9466847D01*
X24916708Y9436554D01*
X24935180Y9401995D01*
X24946555Y9364499D01*
X24951000Y9319362D01*
X24951000Y8680638D01*
X24946555Y8635501D01*
X24935180Y8598005D01*
X24916708Y8563446D01*
X24891847Y8533153D01*
X24861554Y8508292D01*
X24826995Y8489820D01*
X24789499Y8478445D01*
X24744362Y8474000D01*
X24005638Y8474000D01*
X23960501Y8478445D01*
X23923005Y8489820D01*
X23888446Y8508292D01*
X23858153Y8533153D01*
X23833292Y8563446D01*
X23814820Y8598005D01*
X23803445Y8635501D01*
X23799000Y8680638D01*
X23799000Y9319362D01*
X23803445Y9364499D01*
X23814820Y9401995D01*
X23833292Y9436554D01*
X23858153Y9466847D01*
X23888446Y9491708D01*
X23923005Y9510180D01*
X23960501Y9521555D01*
X24005638Y9526000D01*
X24744362Y9526000D01*
X24789499Y9521555D01*
G37*
G36*
X-22210501Y11021555D02*
G01*
X-22173005Y11010180D01*
X-22138446Y10991708D01*
X-22108153Y10966847D01*
X-22083292Y10936554D01*
X-22064820Y10901995D01*
X-22053445Y10864499D01*
X-22049000Y10819362D01*
X-22049000Y10180638D01*
X-22053445Y10135501D01*
X-22064820Y10098005D01*
X-22083292Y10063446D01*
X-22108153Y10033153D01*
X-22138446Y10008292D01*
X-22173005Y9989820D01*
X-22210501Y9978445D01*
X-22255638Y9974000D01*
X-22994362Y9974000D01*
X-23039499Y9978445D01*
X-23076995Y9989820D01*
X-23111554Y10008292D01*
X-23141847Y10033153D01*
X-23166708Y10063446D01*
X-23185180Y10098005D01*
X-23196555Y10135501D01*
X-23201000Y10180638D01*
X-23201000Y10819362D01*
X-23196555Y10864499D01*
X-23185180Y10901995D01*
X-23166708Y10936554D01*
X-23141847Y10966847D01*
X-23111554Y10991708D01*
X-23076995Y11010180D01*
X-23039499Y11021555D01*
X-22994362Y11026000D01*
X-22255638Y11026000D01*
X-22210501Y11021555D01*
G37*
G36*
X-23960501Y11021555D02*
G01*
X-23923005Y11010180D01*
X-23888446Y10991708D01*
X-23858153Y10966847D01*
X-23833292Y10936554D01*
X-23814820Y10901995D01*
X-23803445Y10864499D01*
X-23799000Y10819362D01*
X-23799000Y10180638D01*
X-23803445Y10135501D01*
X-23814820Y10098005D01*
X-23833292Y10063446D01*
X-23858153Y10033153D01*
X-23888446Y10008292D01*
X-23923005Y9989820D01*
X-23960501Y9978445D01*
X-24005638Y9974000D01*
X-24744362Y9974000D01*
X-24789499Y9978445D01*
X-24826995Y9989820D01*
X-24861554Y10008292D01*
X-24891847Y10033153D01*
X-24916708Y10063446D01*
X-24935180Y10098005D01*
X-24946555Y10135501D01*
X-24951000Y10180638D01*
X-24951000Y10819362D01*
X-24946555Y10864499D01*
X-24935180Y10901995D01*
X-24916708Y10936554D01*
X-24891847Y10966847D01*
X-24861554Y10991708D01*
X-24826995Y11010180D01*
X-24789499Y11021555D01*
X-24744362Y11026000D01*
X-24005638Y11026000D01*
X-23960501Y11021555D01*
G37*
G36*
X24789499Y11021555D02*
G01*
X24826995Y11010180D01*
X24861554Y10991708D01*
X24891847Y10966847D01*
X24916708Y10936554D01*
X24935180Y10901995D01*
X24946555Y10864499D01*
X24951000Y10819362D01*
X24951000Y10180638D01*
X24946555Y10135501D01*
X24935180Y10098005D01*
X24916708Y10063446D01*
X24891847Y10033153D01*
X24861554Y10008292D01*
X24826995Y9989820D01*
X24789499Y9978445D01*
X24744362Y9974000D01*
X24005638Y9974000D01*
X23960501Y9978445D01*
X23923005Y9989820D01*
X23888446Y10008292D01*
X23858153Y10033153D01*
X23833292Y10063446D01*
X23814820Y10098005D01*
X23803445Y10135501D01*
X23799000Y10180638D01*
X23799000Y10819362D01*
X23803445Y10864499D01*
X23814820Y10901995D01*
X23833292Y10936554D01*
X23858153Y10966847D01*
X23888446Y10991708D01*
X23923005Y11010180D01*
X23960501Y11021555D01*
X24005638Y11026000D01*
X24744362Y11026000D01*
X24789499Y11021555D01*
G37*
G36*
X23039499Y11021555D02*
G01*
X23076995Y11010180D01*
X23111554Y10991708D01*
X23141847Y10966847D01*
X23166708Y10936554D01*
X23185180Y10901995D01*
X23196555Y10864499D01*
X23201000Y10819362D01*
X23201000Y10180638D01*
X23196555Y10135501D01*
X23185180Y10098005D01*
X23166708Y10063446D01*
X23141847Y10033153D01*
X23111554Y10008292D01*
X23076995Y9989820D01*
X23039499Y9978445D01*
X22994362Y9974000D01*
X22255638Y9974000D01*
X22210501Y9978445D01*
X22173005Y9989820D01*
X22138446Y10008292D01*
X22108153Y10033153D01*
X22083292Y10063446D01*
X22064820Y10098005D01*
X22053445Y10135501D01*
X22049000Y10180638D01*
X22049000Y10819362D01*
X22053445Y10864499D01*
X22064820Y10901995D01*
X22083292Y10936554D01*
X22108153Y10966847D01*
X22138446Y10991708D01*
X22173005Y11010180D01*
X22210501Y11021555D01*
X22255638Y11026000D01*
X22994362Y11026000D01*
X23039499Y11021555D01*
G37*
G36*
X-635501Y12071555D02*
G01*
X-598005Y12060180D01*
X-563446Y12041708D01*
X-533153Y12016847D01*
X-508292Y11986554D01*
X-489820Y11951995D01*
X-478445Y11914499D01*
X-474000Y11869362D01*
X-474000Y11130638D01*
X-478445Y11085501D01*
X-489820Y11048005D01*
X-508292Y11013446D01*
X-533153Y10983153D01*
X-563446Y10958292D01*
X-598005Y10939820D01*
X-635501Y10928445D01*
X-680638Y10924000D01*
X-1319362Y10924000D01*
X-1364499Y10928445D01*
X-1401995Y10939820D01*
X-1436554Y10958292D01*
X-1466847Y10983153D01*
X-1491708Y11013446D01*
X-1510180Y11048005D01*
X-1521555Y11085501D01*
X-1526000Y11130638D01*
X-1526000Y11869362D01*
X-1521555Y11914499D01*
X-1510180Y11951995D01*
X-1491708Y11986554D01*
X-1466847Y12016847D01*
X-1436554Y12041708D01*
X-1401995Y12060180D01*
X-1364499Y12071555D01*
X-1319362Y12076000D01*
X-680638Y12076000D01*
X-635501Y12071555D01*
G37*
G36*
X1364499Y12071555D02*
G01*
X1401995Y12060180D01*
X1436554Y12041708D01*
X1466847Y12016847D01*
X1491708Y11986554D01*
X1510180Y11951995D01*
X1521555Y11914499D01*
X1526000Y11869362D01*
X1526000Y11130638D01*
X1521555Y11085501D01*
X1510180Y11048005D01*
X1491708Y11013446D01*
X1466847Y10983153D01*
X1436554Y10958292D01*
X1401995Y10939820D01*
X1364499Y10928445D01*
X1319362Y10924000D01*
X680638Y10924000D01*
X635501Y10928445D01*
X598005Y10939820D01*
X563446Y10958292D01*
X533153Y10983153D01*
X508292Y11013446D01*
X489820Y11048005D01*
X478445Y11085501D01*
X474000Y11130638D01*
X474000Y11869362D01*
X478445Y11914499D01*
X489820Y11951995D01*
X508292Y11986554D01*
X533153Y12016847D01*
X563446Y12041708D01*
X598005Y12060180D01*
X635501Y12071555D01*
X680638Y12076000D01*
X1319362Y12076000D01*
X1364499Y12071555D01*
G37*
G36*
X-2635501Y12071555D02*
G01*
X-2598005Y12060180D01*
X-2563446Y12041708D01*
X-2533153Y12016847D01*
X-2508292Y11986554D01*
X-2489820Y11951995D01*
X-2478445Y11914499D01*
X-2474000Y11869362D01*
X-2474000Y11130638D01*
X-2478445Y11085501D01*
X-2489820Y11048005D01*
X-2508292Y11013446D01*
X-2533153Y10983153D01*
X-2563446Y10958292D01*
X-2598005Y10939820D01*
X-2635501Y10928445D01*
X-2680638Y10924000D01*
X-3319362Y10924000D01*
X-3364499Y10928445D01*
X-3401995Y10939820D01*
X-3436554Y10958292D01*
X-3466847Y10983153D01*
X-3491708Y11013446D01*
X-3510180Y11048005D01*
X-3521555Y11085501D01*
X-3526000Y11130638D01*
X-3526000Y11869362D01*
X-3521555Y11914499D01*
X-3510180Y11951995D01*
X-3491708Y11986554D01*
X-3466847Y12016847D01*
X-3436554Y12041708D01*
X-3401995Y12060180D01*
X-3364499Y12071555D01*
X-3319362Y12076000D01*
X-2680638Y12076000D01*
X-2635501Y12071555D01*
G37*
G36*
X3364499Y12071555D02*
G01*
X3401995Y12060180D01*
X3436554Y12041708D01*
X3466847Y12016847D01*
X3491708Y11986554D01*
X3510180Y11951995D01*
X3521555Y11914499D01*
X3526000Y11869362D01*
X3526000Y11130638D01*
X3521555Y11085501D01*
X3510180Y11048005D01*
X3491708Y11013446D01*
X3466847Y10983153D01*
X3436554Y10958292D01*
X3401995Y10939820D01*
X3364499Y10928445D01*
X3319362Y10924000D01*
X2680638Y10924000D01*
X2635501Y10928445D01*
X2598005Y10939820D01*
X2563446Y10958292D01*
X2533153Y10983153D01*
X2508292Y11013446D01*
X2489820Y11048005D01*
X2478445Y11085501D01*
X2474000Y11130638D01*
X2474000Y11869362D01*
X2478445Y11914499D01*
X2489820Y11951995D01*
X2508292Y11986554D01*
X2533153Y12016847D01*
X2563446Y12041708D01*
X2598005Y12060180D01*
X2635501Y12071555D01*
X2680638Y12076000D01*
X3319362Y12076000D01*
X3364499Y12071555D01*
G37*
G36*
X-11074000Y11151000D02*
G01*
X-19926000Y11151000D01*
X-19926000Y12753000D01*
X-11074000Y12753000D01*
X-11074000Y11151000D01*
G37*
G36*
X19926000Y11151000D02*
G01*
X18874000Y11151000D01*
X18874000Y12753000D01*
X19926000Y12753000D01*
X19926000Y11151000D01*
G37*
G36*
X18622000Y11151000D02*
G01*
X11074000Y11151000D01*
X11074000Y12753000D01*
X18622000Y12753000D01*
X18622000Y11151000D01*
G37*
G36*
X3364499Y13821555D02*
G01*
X3401995Y13810180D01*
X3436554Y13791708D01*
X3466847Y13766847D01*
X3491708Y13736554D01*
X3510180Y13701995D01*
X3521555Y13664499D01*
X3526000Y13619362D01*
X3526000Y12880638D01*
X3521555Y12835501D01*
X3510180Y12798005D01*
X3491708Y12763446D01*
X3466847Y12733153D01*
X3436554Y12708292D01*
X3401995Y12689820D01*
X3364499Y12678445D01*
X3319362Y12674000D01*
X2680638Y12674000D01*
X2635501Y12678445D01*
X2598005Y12689820D01*
X2563446Y12708292D01*
X2533153Y12733153D01*
X2508292Y12763446D01*
X2489820Y12798005D01*
X2478445Y12835501D01*
X2474000Y12880638D01*
X2474000Y13619362D01*
X2478445Y13664499D01*
X2489820Y13701995D01*
X2508292Y13736554D01*
X2533153Y13766847D01*
X2563446Y13791708D01*
X2598005Y13810180D01*
X2635501Y13821555D01*
X2680638Y13826000D01*
X3319362Y13826000D01*
X3364499Y13821555D01*
G37*
G36*
X1364499Y13821555D02*
G01*
X1401995Y13810180D01*
X1436554Y13791708D01*
X1466847Y13766847D01*
X1491708Y13736554D01*
X1510180Y13701995D01*
X1521555Y13664499D01*
X1526000Y13619362D01*
X1526000Y12880638D01*
X1521555Y12835501D01*
X1510180Y12798005D01*
X1491708Y12763446D01*
X1466847Y12733153D01*
X1436554Y12708292D01*
X1401995Y12689820D01*
X1364499Y12678445D01*
X1319362Y12674000D01*
X680638Y12674000D01*
X635501Y12678445D01*
X598005Y12689820D01*
X563446Y12708292D01*
X533153Y12733153D01*
X508292Y12763446D01*
X489820Y12798005D01*
X478445Y12835501D01*
X474000Y12880638D01*
X474000Y13619362D01*
X478445Y13664499D01*
X489820Y13701995D01*
X508292Y13736554D01*
X533153Y13766847D01*
X563446Y13791708D01*
X598005Y13810180D01*
X635501Y13821555D01*
X680638Y13826000D01*
X1319362Y13826000D01*
X1364499Y13821555D01*
G37*
G36*
X-635501Y13821555D02*
G01*
X-598005Y13810180D01*
X-563446Y13791708D01*
X-533153Y13766847D01*
X-508292Y13736554D01*
X-489820Y13701995D01*
X-478445Y13664499D01*
X-474000Y13619362D01*
X-474000Y12880638D01*
X-478445Y12835501D01*
X-489820Y12798005D01*
X-508292Y12763446D01*
X-533153Y12733153D01*
X-563446Y12708292D01*
X-598005Y12689820D01*
X-635501Y12678445D01*
X-680638Y12674000D01*
X-1319362Y12674000D01*
X-1364499Y12678445D01*
X-1401995Y12689820D01*
X-1436554Y12708292D01*
X-1466847Y12733153D01*
X-1491708Y12763446D01*
X-1510180Y12798005D01*
X-1521555Y12835501D01*
X-1526000Y12880638D01*
X-1526000Y13619362D01*
X-1521555Y13664499D01*
X-1510180Y13701995D01*
X-1491708Y13736554D01*
X-1466847Y13766847D01*
X-1436554Y13791708D01*
X-1401995Y13810180D01*
X-1364499Y13821555D01*
X-1319362Y13826000D01*
X-680638Y13826000D01*
X-635501Y13821555D01*
G37*
G36*
X-2635501Y13821555D02*
G01*
X-2598005Y13810180D01*
X-2563446Y13791708D01*
X-2533153Y13766847D01*
X-2508292Y13736554D01*
X-2489820Y13701995D01*
X-2478445Y13664499D01*
X-2474000Y13619362D01*
X-2474000Y12880638D01*
X-2478445Y12835501D01*
X-2489820Y12798005D01*
X-2508292Y12763446D01*
X-2533153Y12733153D01*
X-2563446Y12708292D01*
X-2598005Y12689820D01*
X-2635501Y12678445D01*
X-2680638Y12674000D01*
X-3319362Y12674000D01*
X-3364499Y12678445D01*
X-3401995Y12689820D01*
X-3436554Y12708292D01*
X-3466847Y12733153D01*
X-3491708Y12763446D01*
X-3510180Y12798005D01*
X-3521555Y12835501D01*
X-3526000Y12880638D01*
X-3526000Y13619362D01*
X-3521555Y13664499D01*
X-3510180Y13701995D01*
X-3491708Y13736554D01*
X-3466847Y13766847D01*
X-3436554Y13791708D01*
X-3401995Y13810180D01*
X-3364499Y13821555D01*
X-3319362Y13826000D01*
X-2680638Y13826000D01*
X-2635501Y13821555D01*
G37*
G36*
X19926000Y17247000D02*
G01*
X11074000Y17247000D01*
X11074000Y18849000D01*
X19926000Y18849000D01*
X19926000Y17247000D01*
G37*
G36*
X-18874000Y17247000D02*
G01*
X-19926000Y17247000D01*
X-19926000Y18849000D01*
X-18874000Y18849000D01*
X-18874000Y17247000D01*
G37*
G36*
X-11074000Y17247000D02*
G01*
X-18622000Y17247000D01*
X-18622000Y18849000D01*
X-11074000Y18849000D01*
X-11074000Y17247000D01*
G37*
G36*
X601000Y18649000D02*
G01*
X-601000Y18649000D01*
X-601000Y19851000D01*
X601000Y19851000D01*
X601000Y18649000D01*
G37*
G36*
X601000Y20149000D02*
G01*
X-601000Y20149000D01*
X-601000Y21351000D01*
X601000Y21351000D01*
X601000Y20149000D01*
G37*
G36*
X10864499Y23196555D02*
G01*
X10901995Y23185180D01*
X10936554Y23166708D01*
X10966847Y23141847D01*
X10991708Y23111554D01*
X11010180Y23076995D01*
X11021555Y23039499D01*
X11026000Y22994362D01*
X11026000Y22255638D01*
X11021555Y22210501D01*
X11010180Y22173005D01*
X10991708Y22138446D01*
X10966847Y22108153D01*
X10936554Y22083292D01*
X10901995Y22064820D01*
X10864499Y22053445D01*
X10819362Y22049000D01*
X10180638Y22049000D01*
X10135501Y22053445D01*
X10098005Y22064820D01*
X10063446Y22083292D01*
X10033153Y22108153D01*
X10008292Y22138446D01*
X9989820Y22173005D01*
X9978445Y22210501D01*
X9974000Y22255638D01*
X9974000Y22994362D01*
X9978445Y23039499D01*
X9989820Y23076995D01*
X10008292Y23111554D01*
X10033153Y23141847D01*
X10063446Y23166708D01*
X10098005Y23185180D01*
X10135501Y23196555D01*
X10180638Y23201000D01*
X10819362Y23201000D01*
X10864499Y23196555D01*
G37*
G36*
X9364499Y23196555D02*
G01*
X9401995Y23185180D01*
X9436554Y23166708D01*
X9466847Y23141847D01*
X9491708Y23111554D01*
X9510180Y23076995D01*
X9521555Y23039499D01*
X9526000Y22994362D01*
X9526000Y22255638D01*
X9521555Y22210501D01*
X9510180Y22173005D01*
X9491708Y22138446D01*
X9466847Y22108153D01*
X9436554Y22083292D01*
X9401995Y22064820D01*
X9364499Y22053445D01*
X9319362Y22049000D01*
X8680638Y22049000D01*
X8635501Y22053445D01*
X8598005Y22064820D01*
X8563446Y22083292D01*
X8533153Y22108153D01*
X8508292Y22138446D01*
X8489820Y22173005D01*
X8478445Y22210501D01*
X8474000Y22255638D01*
X8474000Y22994362D01*
X8478445Y23039499D01*
X8489820Y23076995D01*
X8508292Y23111554D01*
X8533153Y23141847D01*
X8563446Y23166708D01*
X8598005Y23185180D01*
X8635501Y23196555D01*
X8680638Y23201000D01*
X9319362Y23201000D01*
X9364499Y23196555D01*
G37*
G36*
X7864499Y23196555D02*
G01*
X7901995Y23185180D01*
X7936554Y23166708D01*
X7966847Y23141847D01*
X7991708Y23111554D01*
X8010180Y23076995D01*
X8021555Y23039499D01*
X8026000Y22994362D01*
X8026000Y22255638D01*
X8021555Y22210501D01*
X8010180Y22173005D01*
X7991708Y22138446D01*
X7966847Y22108153D01*
X7936554Y22083292D01*
X7901995Y22064820D01*
X7864499Y22053445D01*
X7819362Y22049000D01*
X7180638Y22049000D01*
X7135501Y22053445D01*
X7098005Y22064820D01*
X7063446Y22083292D01*
X7033153Y22108153D01*
X7008292Y22138446D01*
X6989820Y22173005D01*
X6978445Y22210501D01*
X6974000Y22255638D01*
X6974000Y22994362D01*
X6978445Y23039499D01*
X6989820Y23076995D01*
X7008292Y23111554D01*
X7033153Y23141847D01*
X7063446Y23166708D01*
X7098005Y23185180D01*
X7135501Y23196555D01*
X7180638Y23201000D01*
X7819362Y23201000D01*
X7864499Y23196555D01*
G37*
G36*
X6364499Y23196555D02*
G01*
X6401995Y23185180D01*
X6436554Y23166708D01*
X6466847Y23141847D01*
X6491708Y23111554D01*
X6510180Y23076995D01*
X6521555Y23039499D01*
X6526000Y22994362D01*
X6526000Y22255638D01*
X6521555Y22210501D01*
X6510180Y22173005D01*
X6491708Y22138446D01*
X6466847Y22108153D01*
X6436554Y22083292D01*
X6401995Y22064820D01*
X6364499Y22053445D01*
X6319362Y22049000D01*
X5680638Y22049000D01*
X5635501Y22053445D01*
X5598005Y22064820D01*
X5563446Y22083292D01*
X5533153Y22108153D01*
X5508292Y22138446D01*
X5489820Y22173005D01*
X5478445Y22210501D01*
X5474000Y22255638D01*
X5474000Y22994362D01*
X5478445Y23039499D01*
X5489820Y23076995D01*
X5508292Y23111554D01*
X5533153Y23141847D01*
X5563446Y23166708D01*
X5598005Y23185180D01*
X5635501Y23196555D01*
X5680638Y23201000D01*
X6319362Y23201000D01*
X6364499Y23196555D01*
G37*
G36*
X4864499Y23196555D02*
G01*
X4901995Y23185180D01*
X4936554Y23166708D01*
X4966847Y23141847D01*
X4991708Y23111554D01*
X5010180Y23076995D01*
X5021555Y23039499D01*
X5026000Y22994362D01*
X5026000Y22255638D01*
X5021555Y22210501D01*
X5010180Y22173005D01*
X4991708Y22138446D01*
X4966847Y22108153D01*
X4936554Y22083292D01*
X4901995Y22064820D01*
X4864499Y22053445D01*
X4819362Y22049000D01*
X4180638Y22049000D01*
X4135501Y22053445D01*
X4098005Y22064820D01*
X4063446Y22083292D01*
X4033153Y22108153D01*
X4008292Y22138446D01*
X3989820Y22173005D01*
X3978445Y22210501D01*
X3974000Y22255638D01*
X3974000Y22994362D01*
X3978445Y23039499D01*
X3989820Y23076995D01*
X4008292Y23111554D01*
X4033153Y23141847D01*
X4063446Y23166708D01*
X4098005Y23185180D01*
X4135501Y23196555D01*
X4180638Y23201000D01*
X4819362Y23201000D01*
X4864499Y23196555D01*
G37*
G36*
X3364499Y23196555D02*
G01*
X3401995Y23185180D01*
X3436554Y23166708D01*
X3466847Y23141847D01*
X3491708Y23111554D01*
X3510180Y23076995D01*
X3521555Y23039499D01*
X3526000Y22994362D01*
X3526000Y22255638D01*
X3521555Y22210501D01*
X3510180Y22173005D01*
X3491708Y22138446D01*
X3466847Y22108153D01*
X3436554Y22083292D01*
X3401995Y22064820D01*
X3364499Y22053445D01*
X3319362Y22049000D01*
X2680638Y22049000D01*
X2635501Y22053445D01*
X2598005Y22064820D01*
X2563446Y22083292D01*
X2533153Y22108153D01*
X2508292Y22138446D01*
X2489820Y22173005D01*
X2478445Y22210501D01*
X2474000Y22255638D01*
X2474000Y22994362D01*
X2478445Y23039499D01*
X2489820Y23076995D01*
X2508292Y23111554D01*
X2533153Y23141847D01*
X2563446Y23166708D01*
X2598005Y23185180D01*
X2635501Y23196555D01*
X2680638Y23201000D01*
X3319362Y23201000D01*
X3364499Y23196555D01*
G37*
G36*
X1864499Y23196555D02*
G01*
X1901995Y23185180D01*
X1936554Y23166708D01*
X1966847Y23141847D01*
X1991708Y23111554D01*
X2010180Y23076995D01*
X2021555Y23039499D01*
X2026000Y22994362D01*
X2026000Y22255638D01*
X2021555Y22210501D01*
X2010180Y22173005D01*
X1991708Y22138446D01*
X1966847Y22108153D01*
X1936554Y22083292D01*
X1901995Y22064820D01*
X1864499Y22053445D01*
X1819362Y22049000D01*
X1180638Y22049000D01*
X1135501Y22053445D01*
X1098005Y22064820D01*
X1063446Y22083292D01*
X1033153Y22108153D01*
X1008292Y22138446D01*
X989820Y22173005D01*
X978445Y22210501D01*
X974000Y22255638D01*
X974000Y22994362D01*
X978445Y23039499D01*
X989820Y23076995D01*
X1008292Y23111554D01*
X1033153Y23141847D01*
X1063446Y23166708D01*
X1098005Y23185180D01*
X1135501Y23196555D01*
X1180638Y23201000D01*
X1819362Y23201000D01*
X1864499Y23196555D01*
G37*
G36*
X364499Y23196555D02*
G01*
X401995Y23185180D01*
X436554Y23166708D01*
X466847Y23141847D01*
X491708Y23111554D01*
X510180Y23076995D01*
X521555Y23039499D01*
X526000Y22994362D01*
X526000Y22255638D01*
X521555Y22210501D01*
X510180Y22173005D01*
X491708Y22138446D01*
X466847Y22108153D01*
X436554Y22083292D01*
X401995Y22064820D01*
X364499Y22053445D01*
X319362Y22049000D01*
X-319362Y22049000D01*
X-364499Y22053445D01*
X-401995Y22064820D01*
X-436554Y22083292D01*
X-466847Y22108153D01*
X-491708Y22138446D01*
X-510180Y22173005D01*
X-521555Y22210501D01*
X-526000Y22255638D01*
X-526000Y22994362D01*
X-521555Y23039499D01*
X-510180Y23076995D01*
X-491708Y23111554D01*
X-466847Y23141847D01*
X-436554Y23166708D01*
X-401995Y23185180D01*
X-364499Y23196555D01*
X-319362Y23201000D01*
X319362Y23201000D01*
X364499Y23196555D01*
G37*
G36*
X-1135501Y23196555D02*
G01*
X-1098005Y23185180D01*
X-1063446Y23166708D01*
X-1033153Y23141847D01*
X-1008292Y23111554D01*
X-989820Y23076995D01*
X-978445Y23039499D01*
X-974000Y22994362D01*
X-974000Y22255638D01*
X-978445Y22210501D01*
X-989820Y22173005D01*
X-1008292Y22138446D01*
X-1033153Y22108153D01*
X-1063446Y22083292D01*
X-1098005Y22064820D01*
X-1135501Y22053445D01*
X-1180638Y22049000D01*
X-1819362Y22049000D01*
X-1864499Y22053445D01*
X-1901995Y22064820D01*
X-1936554Y22083292D01*
X-1966847Y22108153D01*
X-1991708Y22138446D01*
X-2010180Y22173005D01*
X-2021555Y22210501D01*
X-2026000Y22255638D01*
X-2026000Y22994362D01*
X-2021555Y23039499D01*
X-2010180Y23076995D01*
X-1991708Y23111554D01*
X-1966847Y23141847D01*
X-1936554Y23166708D01*
X-1901995Y23185180D01*
X-1864499Y23196555D01*
X-1819362Y23201000D01*
X-1180638Y23201000D01*
X-1135501Y23196555D01*
G37*
G36*
X-2635501Y23196555D02*
G01*
X-2598005Y23185180D01*
X-2563446Y23166708D01*
X-2533153Y23141847D01*
X-2508292Y23111554D01*
X-2489820Y23076995D01*
X-2478445Y23039499D01*
X-2474000Y22994362D01*
X-2474000Y22255638D01*
X-2478445Y22210501D01*
X-2489820Y22173005D01*
X-2508292Y22138446D01*
X-2533153Y22108153D01*
X-2563446Y22083292D01*
X-2598005Y22064820D01*
X-2635501Y22053445D01*
X-2680638Y22049000D01*
X-3319362Y22049000D01*
X-3364499Y22053445D01*
X-3401995Y22064820D01*
X-3436554Y22083292D01*
X-3466847Y22108153D01*
X-3491708Y22138446D01*
X-3510180Y22173005D01*
X-3521555Y22210501D01*
X-3526000Y22255638D01*
X-3526000Y22994362D01*
X-3521555Y23039499D01*
X-3510180Y23076995D01*
X-3491708Y23111554D01*
X-3466847Y23141847D01*
X-3436554Y23166708D01*
X-3401995Y23185180D01*
X-3364499Y23196555D01*
X-3319362Y23201000D01*
X-2680638Y23201000D01*
X-2635501Y23196555D01*
G37*
G36*
X-4135501Y23196555D02*
G01*
X-4098005Y23185180D01*
X-4063446Y23166708D01*
X-4033153Y23141847D01*
X-4008292Y23111554D01*
X-3989820Y23076995D01*
X-3978445Y23039499D01*
X-3974000Y22994362D01*
X-3974000Y22255638D01*
X-3978445Y22210501D01*
X-3989820Y22173005D01*
X-4008292Y22138446D01*
X-4033153Y22108153D01*
X-4063446Y22083292D01*
X-4098005Y22064820D01*
X-4135501Y22053445D01*
X-4180638Y22049000D01*
X-4819362Y22049000D01*
X-4864499Y22053445D01*
X-4901995Y22064820D01*
X-4936554Y22083292D01*
X-4966847Y22108153D01*
X-4991708Y22138446D01*
X-5010180Y22173005D01*
X-5021555Y22210501D01*
X-5026000Y22255638D01*
X-5026000Y22994362D01*
X-5021555Y23039499D01*
X-5010180Y23076995D01*
X-4991708Y23111554D01*
X-4966847Y23141847D01*
X-4936554Y23166708D01*
X-4901995Y23185180D01*
X-4864499Y23196555D01*
X-4819362Y23201000D01*
X-4180638Y23201000D01*
X-4135501Y23196555D01*
G37*
G36*
X-5635501Y23196555D02*
G01*
X-5598005Y23185180D01*
X-5563446Y23166708D01*
X-5533153Y23141847D01*
X-5508292Y23111554D01*
X-5489820Y23076995D01*
X-5478445Y23039499D01*
X-5474000Y22994362D01*
X-5474000Y22255638D01*
X-5478445Y22210501D01*
X-5489820Y22173005D01*
X-5508292Y22138446D01*
X-5533153Y22108153D01*
X-5563446Y22083292D01*
X-5598005Y22064820D01*
X-5635501Y22053445D01*
X-5680638Y22049000D01*
X-6319362Y22049000D01*
X-6364499Y22053445D01*
X-6401995Y22064820D01*
X-6436554Y22083292D01*
X-6466847Y22108153D01*
X-6491708Y22138446D01*
X-6510180Y22173005D01*
X-6521555Y22210501D01*
X-6526000Y22255638D01*
X-6526000Y22994362D01*
X-6521555Y23039499D01*
X-6510180Y23076995D01*
X-6491708Y23111554D01*
X-6466847Y23141847D01*
X-6436554Y23166708D01*
X-6401995Y23185180D01*
X-6364499Y23196555D01*
X-6319362Y23201000D01*
X-5680638Y23201000D01*
X-5635501Y23196555D01*
G37*
G36*
X-7135501Y23196555D02*
G01*
X-7098005Y23185180D01*
X-7063446Y23166708D01*
X-7033153Y23141847D01*
X-7008292Y23111554D01*
X-6989820Y23076995D01*
X-6978445Y23039499D01*
X-6974000Y22994362D01*
X-6974000Y22255638D01*
X-6978445Y22210501D01*
X-6989820Y22173005D01*
X-7008292Y22138446D01*
X-7033153Y22108153D01*
X-7063446Y22083292D01*
X-7098005Y22064820D01*
X-7135501Y22053445D01*
X-7180638Y22049000D01*
X-7819362Y22049000D01*
X-7864499Y22053445D01*
X-7901995Y22064820D01*
X-7936554Y22083292D01*
X-7966847Y22108153D01*
X-7991708Y22138446D01*
X-8010180Y22173005D01*
X-8021555Y22210501D01*
X-8026000Y22255638D01*
X-8026000Y22994362D01*
X-8021555Y23039499D01*
X-8010180Y23076995D01*
X-7991708Y23111554D01*
X-7966847Y23141847D01*
X-7936554Y23166708D01*
X-7901995Y23185180D01*
X-7864499Y23196555D01*
X-7819362Y23201000D01*
X-7180638Y23201000D01*
X-7135501Y23196555D01*
G37*
G36*
X-8635501Y23196555D02*
G01*
X-8598005Y23185180D01*
X-8563446Y23166708D01*
X-8533153Y23141847D01*
X-8508292Y23111554D01*
X-8489820Y23076995D01*
X-8478445Y23039499D01*
X-8474000Y22994362D01*
X-8474000Y22255638D01*
X-8478445Y22210501D01*
X-8489820Y22173005D01*
X-8508292Y22138446D01*
X-8533153Y22108153D01*
X-8563446Y22083292D01*
X-8598005Y22064820D01*
X-8635501Y22053445D01*
X-8680638Y22049000D01*
X-9319362Y22049000D01*
X-9364499Y22053445D01*
X-9401995Y22064820D01*
X-9436554Y22083292D01*
X-9466847Y22108153D01*
X-9491708Y22138446D01*
X-9510180Y22173005D01*
X-9521555Y22210501D01*
X-9526000Y22255638D01*
X-9526000Y22994362D01*
X-9521555Y23039499D01*
X-9510180Y23076995D01*
X-9491708Y23111554D01*
X-9466847Y23141847D01*
X-9436554Y23166708D01*
X-9401995Y23185180D01*
X-9364499Y23196555D01*
X-9319362Y23201000D01*
X-8680638Y23201000D01*
X-8635501Y23196555D01*
G37*
G36*
X-10135501Y23196555D02*
G01*
X-10098005Y23185180D01*
X-10063446Y23166708D01*
X-10033153Y23141847D01*
X-10008292Y23111554D01*
X-9989820Y23076995D01*
X-9978445Y23039499D01*
X-9974000Y22994362D01*
X-9974000Y22255638D01*
X-9978445Y22210501D01*
X-9989820Y22173005D01*
X-10008292Y22138446D01*
X-10033153Y22108153D01*
X-10063446Y22083292D01*
X-10098005Y22064820D01*
X-10135501Y22053445D01*
X-10180638Y22049000D01*
X-10819362Y22049000D01*
X-10864499Y22053445D01*
X-10901995Y22064820D01*
X-10936554Y22083292D01*
X-10966847Y22108153D01*
X-10991708Y22138446D01*
X-11010180Y22173005D01*
X-11021555Y22210501D01*
X-11026000Y22255638D01*
X-11026000Y22994362D01*
X-11021555Y23039499D01*
X-11010180Y23076995D01*
X-10991708Y23111554D01*
X-10966847Y23141847D01*
X-10936554Y23166708D01*
X-10901995Y23185180D01*
X-10864499Y23196555D01*
X-10819362Y23201000D01*
X-10180638Y23201000D01*
X-10135501Y23196555D01*
G37*
G36*
X-10135501Y24946555D02*
G01*
X-10098005Y24935180D01*
X-10063446Y24916708D01*
X-10033153Y24891847D01*
X-10008292Y24861554D01*
X-9989820Y24826995D01*
X-9978445Y24789499D01*
X-9974000Y24744362D01*
X-9974000Y24005638D01*
X-9978445Y23960501D01*
X-9989820Y23923005D01*
X-10008292Y23888446D01*
X-10033153Y23858153D01*
X-10063446Y23833292D01*
X-10098005Y23814820D01*
X-10135501Y23803445D01*
X-10180638Y23799000D01*
X-10819362Y23799000D01*
X-10864499Y23803445D01*
X-10901995Y23814820D01*
X-10936554Y23833292D01*
X-10966847Y23858153D01*
X-10991708Y23888446D01*
X-11010180Y23923005D01*
X-11021555Y23960501D01*
X-11026000Y24005638D01*
X-11026000Y24744362D01*
X-11021555Y24789499D01*
X-11010180Y24826995D01*
X-10991708Y24861554D01*
X-10966847Y24891847D01*
X-10936554Y24916708D01*
X-10901995Y24935180D01*
X-10864499Y24946555D01*
X-10819362Y24951000D01*
X-10180638Y24951000D01*
X-10135501Y24946555D01*
G37*
G36*
X10864499Y24946555D02*
G01*
X10901995Y24935180D01*
X10936554Y24916708D01*
X10966847Y24891847D01*
X10991708Y24861554D01*
X11010180Y24826995D01*
X11021555Y24789499D01*
X11026000Y24744362D01*
X11026000Y24005638D01*
X11021555Y23960501D01*
X11010180Y23923005D01*
X10991708Y23888446D01*
X10966847Y23858153D01*
X10936554Y23833292D01*
X10901995Y23814820D01*
X10864499Y23803445D01*
X10819362Y23799000D01*
X10180638Y23799000D01*
X10135501Y23803445D01*
X10098005Y23814820D01*
X10063446Y23833292D01*
X10033153Y23858153D01*
X10008292Y23888446D01*
X9989820Y23923005D01*
X9978445Y23960501D01*
X9974000Y24005638D01*
X9974000Y24744362D01*
X9978445Y24789499D01*
X9989820Y24826995D01*
X10008292Y24861554D01*
X10033153Y24891847D01*
X10063446Y24916708D01*
X10098005Y24935180D01*
X10135501Y24946555D01*
X10180638Y24951000D01*
X10819362Y24951000D01*
X10864499Y24946555D01*
G37*
G36*
X-8635501Y24946555D02*
G01*
X-8598005Y24935180D01*
X-8563446Y24916708D01*
X-8533153Y24891847D01*
X-8508292Y24861554D01*
X-8489820Y24826995D01*
X-8478445Y24789499D01*
X-8474000Y24744362D01*
X-8474000Y24005638D01*
X-8478445Y23960501D01*
X-8489820Y23923005D01*
X-8508292Y23888446D01*
X-8533153Y23858153D01*
X-8563446Y23833292D01*
X-8598005Y23814820D01*
X-8635501Y23803445D01*
X-8680638Y23799000D01*
X-9319362Y23799000D01*
X-9364499Y23803445D01*
X-9401995Y23814820D01*
X-9436554Y23833292D01*
X-9466847Y23858153D01*
X-9491708Y23888446D01*
X-9510180Y23923005D01*
X-9521555Y23960501D01*
X-9526000Y24005638D01*
X-9526000Y24744362D01*
X-9521555Y24789499D01*
X-9510180Y24826995D01*
X-9491708Y24861554D01*
X-9466847Y24891847D01*
X-9436554Y24916708D01*
X-9401995Y24935180D01*
X-9364499Y24946555D01*
X-9319362Y24951000D01*
X-8680638Y24951000D01*
X-8635501Y24946555D01*
G37*
G36*
X9364499Y24946555D02*
G01*
X9401995Y24935180D01*
X9436554Y24916708D01*
X9466847Y24891847D01*
X9491708Y24861554D01*
X9510180Y24826995D01*
X9521555Y24789499D01*
X9526000Y24744362D01*
X9526000Y24005638D01*
X9521555Y23960501D01*
X9510180Y23923005D01*
X9491708Y23888446D01*
X9466847Y23858153D01*
X9436554Y23833292D01*
X9401995Y23814820D01*
X9364499Y23803445D01*
X9319362Y23799000D01*
X8680638Y23799000D01*
X8635501Y23803445D01*
X8598005Y23814820D01*
X8563446Y23833292D01*
X8533153Y23858153D01*
X8508292Y23888446D01*
X8489820Y23923005D01*
X8478445Y23960501D01*
X8474000Y24005638D01*
X8474000Y24744362D01*
X8478445Y24789499D01*
X8489820Y24826995D01*
X8508292Y24861554D01*
X8533153Y24891847D01*
X8563446Y24916708D01*
X8598005Y24935180D01*
X8635501Y24946555D01*
X8680638Y24951000D01*
X9319362Y24951000D01*
X9364499Y24946555D01*
G37*
G36*
X-7135501Y24946555D02*
G01*
X-7098005Y24935180D01*
X-7063446Y24916708D01*
X-7033153Y24891847D01*
X-7008292Y24861554D01*
X-6989820Y24826995D01*
X-6978445Y24789499D01*
X-6974000Y24744362D01*
X-6974000Y24005638D01*
X-6978445Y23960501D01*
X-6989820Y23923005D01*
X-7008292Y23888446D01*
X-7033153Y23858153D01*
X-7063446Y23833292D01*
X-7098005Y23814820D01*
X-7135501Y23803445D01*
X-7180638Y23799000D01*
X-7819362Y23799000D01*
X-7864499Y23803445D01*
X-7901995Y23814820D01*
X-7936554Y23833292D01*
X-7966847Y23858153D01*
X-7991708Y23888446D01*
X-8010180Y23923005D01*
X-8021555Y23960501D01*
X-8026000Y24005638D01*
X-8026000Y24744362D01*
X-8021555Y24789499D01*
X-8010180Y24826995D01*
X-7991708Y24861554D01*
X-7966847Y24891847D01*
X-7936554Y24916708D01*
X-7901995Y24935180D01*
X-7864499Y24946555D01*
X-7819362Y24951000D01*
X-7180638Y24951000D01*
X-7135501Y24946555D01*
G37*
G36*
X7864499Y24946555D02*
G01*
X7901995Y24935180D01*
X7936554Y24916708D01*
X7966847Y24891847D01*
X7991708Y24861554D01*
X8010180Y24826995D01*
X8021555Y24789499D01*
X8026000Y24744362D01*
X8026000Y24005638D01*
X8021555Y23960501D01*
X8010180Y23923005D01*
X7991708Y23888446D01*
X7966847Y23858153D01*
X7936554Y23833292D01*
X7901995Y23814820D01*
X7864499Y23803445D01*
X7819362Y23799000D01*
X7180638Y23799000D01*
X7135501Y23803445D01*
X7098005Y23814820D01*
X7063446Y23833292D01*
X7033153Y23858153D01*
X7008292Y23888446D01*
X6989820Y23923005D01*
X6978445Y23960501D01*
X6974000Y24005638D01*
X6974000Y24744362D01*
X6978445Y24789499D01*
X6989820Y24826995D01*
X7008292Y24861554D01*
X7033153Y24891847D01*
X7063446Y24916708D01*
X7098005Y24935180D01*
X7135501Y24946555D01*
X7180638Y24951000D01*
X7819362Y24951000D01*
X7864499Y24946555D01*
G37*
G36*
X-5635501Y24946555D02*
G01*
X-5598005Y24935180D01*
X-5563446Y24916708D01*
X-5533153Y24891847D01*
X-5508292Y24861554D01*
X-5489820Y24826995D01*
X-5478445Y24789499D01*
X-5474000Y24744362D01*
X-5474000Y24005638D01*
X-5478445Y23960501D01*
X-5489820Y23923005D01*
X-5508292Y23888446D01*
X-5533153Y23858153D01*
X-5563446Y23833292D01*
X-5598005Y23814820D01*
X-5635501Y23803445D01*
X-5680638Y23799000D01*
X-6319362Y23799000D01*
X-6364499Y23803445D01*
X-6401995Y23814820D01*
X-6436554Y23833292D01*
X-6466847Y23858153D01*
X-6491708Y23888446D01*
X-6510180Y23923005D01*
X-6521555Y23960501D01*
X-6526000Y24005638D01*
X-6526000Y24744362D01*
X-6521555Y24789499D01*
X-6510180Y24826995D01*
X-6491708Y24861554D01*
X-6466847Y24891847D01*
X-6436554Y24916708D01*
X-6401995Y24935180D01*
X-6364499Y24946555D01*
X-6319362Y24951000D01*
X-5680638Y24951000D01*
X-5635501Y24946555D01*
G37*
G36*
X6364499Y24946555D02*
G01*
X6401995Y24935180D01*
X6436554Y24916708D01*
X6466847Y24891847D01*
X6491708Y24861554D01*
X6510180Y24826995D01*
X6521555Y24789499D01*
X6526000Y24744362D01*
X6526000Y24005638D01*
X6521555Y23960501D01*
X6510180Y23923005D01*
X6491708Y23888446D01*
X6466847Y23858153D01*
X6436554Y23833292D01*
X6401995Y23814820D01*
X6364499Y23803445D01*
X6319362Y23799000D01*
X5680638Y23799000D01*
X5635501Y23803445D01*
X5598005Y23814820D01*
X5563446Y23833292D01*
X5533153Y23858153D01*
X5508292Y23888446D01*
X5489820Y23923005D01*
X5478445Y23960501D01*
X5474000Y24005638D01*
X5474000Y24744362D01*
X5478445Y24789499D01*
X5489820Y24826995D01*
X5508292Y24861554D01*
X5533153Y24891847D01*
X5563446Y24916708D01*
X5598005Y24935180D01*
X5635501Y24946555D01*
X5680638Y24951000D01*
X6319362Y24951000D01*
X6364499Y24946555D01*
G37*
G36*
X-4135501Y24946555D02*
G01*
X-4098005Y24935180D01*
X-4063446Y24916708D01*
X-4033153Y24891847D01*
X-4008292Y24861554D01*
X-3989820Y24826995D01*
X-3978445Y24789499D01*
X-3974000Y24744362D01*
X-3974000Y24005638D01*
X-3978445Y23960501D01*
X-3989820Y23923005D01*
X-4008292Y23888446D01*
X-4033153Y23858153D01*
X-4063446Y23833292D01*
X-4098005Y23814820D01*
X-4135501Y23803445D01*
X-4180638Y23799000D01*
X-4819362Y23799000D01*
X-4864499Y23803445D01*
X-4901995Y23814820D01*
X-4936554Y23833292D01*
X-4966847Y23858153D01*
X-4991708Y23888446D01*
X-5010180Y23923005D01*
X-5021555Y23960501D01*
X-5026000Y24005638D01*
X-5026000Y24744362D01*
X-5021555Y24789499D01*
X-5010180Y24826995D01*
X-4991708Y24861554D01*
X-4966847Y24891847D01*
X-4936554Y24916708D01*
X-4901995Y24935180D01*
X-4864499Y24946555D01*
X-4819362Y24951000D01*
X-4180638Y24951000D01*
X-4135501Y24946555D01*
G37*
G36*
X4864499Y24946555D02*
G01*
X4901995Y24935180D01*
X4936554Y24916708D01*
X4966847Y24891847D01*
X4991708Y24861554D01*
X5010180Y24826995D01*
X5021555Y24789499D01*
X5026000Y24744362D01*
X5026000Y24005638D01*
X5021555Y23960501D01*
X5010180Y23923005D01*
X4991708Y23888446D01*
X4966847Y23858153D01*
X4936554Y23833292D01*
X4901995Y23814820D01*
X4864499Y23803445D01*
X4819362Y23799000D01*
X4180638Y23799000D01*
X4135501Y23803445D01*
X4098005Y23814820D01*
X4063446Y23833292D01*
X4033153Y23858153D01*
X4008292Y23888446D01*
X3989820Y23923005D01*
X3978445Y23960501D01*
X3974000Y24005638D01*
X3974000Y24744362D01*
X3978445Y24789499D01*
X3989820Y24826995D01*
X4008292Y24861554D01*
X4033153Y24891847D01*
X4063446Y24916708D01*
X4098005Y24935180D01*
X4135501Y24946555D01*
X4180638Y24951000D01*
X4819362Y24951000D01*
X4864499Y24946555D01*
G37*
G36*
X-2635501Y24946555D02*
G01*
X-2598005Y24935180D01*
X-2563446Y24916708D01*
X-2533153Y24891847D01*
X-2508292Y24861554D01*
X-2489820Y24826995D01*
X-2478445Y24789499D01*
X-2474000Y24744362D01*
X-2474000Y24005638D01*
X-2478445Y23960501D01*
X-2489820Y23923005D01*
X-2508292Y23888446D01*
X-2533153Y23858153D01*
X-2563446Y23833292D01*
X-2598005Y23814820D01*
X-2635501Y23803445D01*
X-2680638Y23799000D01*
X-3319362Y23799000D01*
X-3364499Y23803445D01*
X-3401995Y23814820D01*
X-3436554Y23833292D01*
X-3466847Y23858153D01*
X-3491708Y23888446D01*
X-3510180Y23923005D01*
X-3521555Y23960501D01*
X-3526000Y24005638D01*
X-3526000Y24744362D01*
X-3521555Y24789499D01*
X-3510180Y24826995D01*
X-3491708Y24861554D01*
X-3466847Y24891847D01*
X-3436554Y24916708D01*
X-3401995Y24935180D01*
X-3364499Y24946555D01*
X-3319362Y24951000D01*
X-2680638Y24951000D01*
X-2635501Y24946555D01*
G37*
G36*
X3364499Y24946555D02*
G01*
X3401995Y24935180D01*
X3436554Y24916708D01*
X3466847Y24891847D01*
X3491708Y24861554D01*
X3510180Y24826995D01*
X3521555Y24789499D01*
X3526000Y24744362D01*
X3526000Y24005638D01*
X3521555Y23960501D01*
X3510180Y23923005D01*
X3491708Y23888446D01*
X3466847Y23858153D01*
X3436554Y23833292D01*
X3401995Y23814820D01*
X3364499Y23803445D01*
X3319362Y23799000D01*
X2680638Y23799000D01*
X2635501Y23803445D01*
X2598005Y23814820D01*
X2563446Y23833292D01*
X2533153Y23858153D01*
X2508292Y23888446D01*
X2489820Y23923005D01*
X2478445Y23960501D01*
X2474000Y24005638D01*
X2474000Y24744362D01*
X2478445Y24789499D01*
X2489820Y24826995D01*
X2508292Y24861554D01*
X2533153Y24891847D01*
X2563446Y24916708D01*
X2598005Y24935180D01*
X2635501Y24946555D01*
X2680638Y24951000D01*
X3319362Y24951000D01*
X3364499Y24946555D01*
G37*
G36*
X-1135501Y24946555D02*
G01*
X-1098005Y24935180D01*
X-1063446Y24916708D01*
X-1033153Y24891847D01*
X-1008292Y24861554D01*
X-989820Y24826995D01*
X-978445Y24789499D01*
X-974000Y24744362D01*
X-974000Y24005638D01*
X-978445Y23960501D01*
X-989820Y23923005D01*
X-1008292Y23888446D01*
X-1033153Y23858153D01*
X-1063446Y23833292D01*
X-1098005Y23814820D01*
X-1135501Y23803445D01*
X-1180638Y23799000D01*
X-1819362Y23799000D01*
X-1864499Y23803445D01*
X-1901995Y23814820D01*
X-1936554Y23833292D01*
X-1966847Y23858153D01*
X-1991708Y23888446D01*
X-2010180Y23923005D01*
X-2021555Y23960501D01*
X-2026000Y24005638D01*
X-2026000Y24744362D01*
X-2021555Y24789499D01*
X-2010180Y24826995D01*
X-1991708Y24861554D01*
X-1966847Y24891847D01*
X-1936554Y24916708D01*
X-1901995Y24935180D01*
X-1864499Y24946555D01*
X-1819362Y24951000D01*
X-1180638Y24951000D01*
X-1135501Y24946555D01*
G37*
G36*
X1864499Y24946555D02*
G01*
X1901995Y24935180D01*
X1936554Y24916708D01*
X1966847Y24891847D01*
X1991708Y24861554D01*
X2010180Y24826995D01*
X2021555Y24789499D01*
X2026000Y24744362D01*
X2026000Y24005638D01*
X2021555Y23960501D01*
X2010180Y23923005D01*
X1991708Y23888446D01*
X1966847Y23858153D01*
X1936554Y23833292D01*
X1901995Y23814820D01*
X1864499Y23803445D01*
X1819362Y23799000D01*
X1180638Y23799000D01*
X1135501Y23803445D01*
X1098005Y23814820D01*
X1063446Y23833292D01*
X1033153Y23858153D01*
X1008292Y23888446D01*
X989820Y23923005D01*
X978445Y23960501D01*
X974000Y24005638D01*
X974000Y24744362D01*
X978445Y24789499D01*
X989820Y24826995D01*
X1008292Y24861554D01*
X1033153Y24891847D01*
X1063446Y24916708D01*
X1098005Y24935180D01*
X1135501Y24946555D01*
X1180638Y24951000D01*
X1819362Y24951000D01*
X1864499Y24946555D01*
G37*
G36*
X364499Y24946555D02*
G01*
X401995Y24935180D01*
X436554Y24916708D01*
X466847Y24891847D01*
X491708Y24861554D01*
X510180Y24826995D01*
X521555Y24789499D01*
X526000Y24744362D01*
X526000Y24005638D01*
X521555Y23960501D01*
X510180Y23923005D01*
X491708Y23888446D01*
X466847Y23858153D01*
X436554Y23833292D01*
X401995Y23814820D01*
X364499Y23803445D01*
X319362Y23799000D01*
X-319362Y23799000D01*
X-364499Y23803445D01*
X-401995Y23814820D01*
X-436554Y23833292D01*
X-466847Y23858153D01*
X-491708Y23888446D01*
X-510180Y23923005D01*
X-521555Y23960501D01*
X-526000Y24005638D01*
X-526000Y24744362D01*
X-521555Y24789499D01*
X-510180Y24826995D01*
X-491708Y24861554D01*
X-466847Y24891847D01*
X-436554Y24916708D01*
X-401995Y24935180D01*
X-364499Y24946555D01*
X-319362Y24951000D01*
X319362Y24951000D01*
X364499Y24946555D01*
G37*
M02*
