G04 #@! TF.GenerationSoftware,KiCad,Pcbnew,(5.1.5-0-10_14)*
G04 #@! TF.CreationDate,2021-01-17T15:29:47+09:00*
G04 #@! TF.ProjectId,LedClock,4c656443-6c6f-4636-9b2e-6b696361645f,1.0*
G04 #@! TF.SameCoordinates,Original*
G04 #@! TF.FileFunction,Legend,Bot*
G04 #@! TF.FilePolarity,Positive*
%FSLAX46Y46*%
G04 Gerber Fmt 4.6, Leading zero omitted, Abs format (unit mm)*
G04 Created by KiCad (PCBNEW (5.1.5-0-10_14)) date 2021-01-17 15:29:47*
%MOMM*%
%LPD*%
G04 APERTURE LIST*
%ADD10C,0.150000*%
%ADD11C,0.120000*%
%ADD12C,0.200000*%
G04 APERTURE END LIST*
D10*
X18071428Y372619D02*
X18547619Y372619D01*
X18547619Y1372619D01*
X17738095Y896428D02*
X17404761Y896428D01*
X17261904Y372619D02*
X17738095Y372619D01*
X17738095Y1372619D01*
X17261904Y1372619D01*
X16833333Y372619D02*
X16833333Y1372619D01*
X16595238Y1372619D01*
X16452380Y1325000D01*
X16357142Y1229761D01*
X16309523Y1134523D01*
X16261904Y944047D01*
X16261904Y801190D01*
X16309523Y610714D01*
X16357142Y515476D01*
X16452380Y420238D01*
X16595238Y372619D01*
X16833333Y372619D01*
X14500000Y467857D02*
X14547619Y420238D01*
X14690476Y372619D01*
X14785714Y372619D01*
X14928571Y420238D01*
X15023809Y515476D01*
X15071428Y610714D01*
X15119047Y801190D01*
X15119047Y944047D01*
X15071428Y1134523D01*
X15023809Y1229761D01*
X14928571Y1325000D01*
X14785714Y1372619D01*
X14690476Y1372619D01*
X14547619Y1325000D01*
X14500000Y1277380D01*
X13928571Y372619D02*
X14023809Y420238D01*
X14071428Y515476D01*
X14071428Y1372619D01*
X13404761Y372619D02*
X13500000Y420238D01*
X13547619Y467857D01*
X13595238Y563095D01*
X13595238Y848809D01*
X13547619Y944047D01*
X13500000Y991666D01*
X13404761Y1039285D01*
X13261904Y1039285D01*
X13166666Y991666D01*
X13119047Y944047D01*
X13071428Y848809D01*
X13071428Y563095D01*
X13119047Y467857D01*
X13166666Y420238D01*
X13261904Y372619D01*
X13404761Y372619D01*
X12214285Y420238D02*
X12309523Y372619D01*
X12500000Y372619D01*
X12595238Y420238D01*
X12642857Y467857D01*
X12690476Y563095D01*
X12690476Y848809D01*
X12642857Y944047D01*
X12595238Y991666D01*
X12500000Y1039285D01*
X12309523Y1039285D01*
X12214285Y991666D01*
X11785714Y372619D02*
X11785714Y1372619D01*
X11690476Y753571D02*
X11404761Y372619D01*
X11404761Y1039285D02*
X11785714Y658333D01*
X16523809Y-277380D02*
X16190476Y-1277380D01*
X15857142Y-277380D01*
X15000000Y-1277380D02*
X15571428Y-1277380D01*
X15285714Y-1277380D02*
X15285714Y-277380D01*
X15380952Y-420238D01*
X15476190Y-515476D01*
X15571428Y-563095D01*
X14571428Y-1182142D02*
X14523809Y-1229761D01*
X14571428Y-1277380D01*
X14619047Y-1229761D01*
X14571428Y-1182142D01*
X14571428Y-1277380D01*
X13904761Y-277380D02*
X13809523Y-277380D01*
X13714285Y-325000D01*
X13666666Y-372619D01*
X13619047Y-467857D01*
X13571428Y-658333D01*
X13571428Y-896428D01*
X13619047Y-1086904D01*
X13666666Y-1182142D01*
X13714285Y-1229761D01*
X13809523Y-1277380D01*
X13904761Y-1277380D01*
X14000000Y-1229761D01*
X14047619Y-1182142D01*
X14095238Y-1086904D01*
X14142857Y-896428D01*
X14142857Y-658333D01*
X14095238Y-467857D01*
X14047619Y-372619D01*
X14000000Y-325000D01*
X13904761Y-277380D01*
D11*
X-16840000Y16070000D02*
X-16840000Y17200000D01*
X-17600000Y16070000D02*
X-16840000Y16070000D01*
X-16905000Y18777530D02*
X-16905000Y19600000D01*
X-16905000Y17960000D02*
X-16905000Y18162470D01*
X-17036529Y17960000D02*
X-16905000Y17960000D01*
X-18306529Y17960000D02*
X-18163471Y17960000D01*
X-18360000Y17763471D02*
X-18360000Y17906529D01*
X-18360000Y16070000D02*
X-18360000Y16636529D01*
X-16905000Y19600000D02*
X-23375000Y19600000D01*
X-18360000Y16070000D02*
X-23375000Y16070000D01*
X-23375000Y17507530D02*
X-23375000Y18162470D01*
X-23375000Y18777530D02*
X-23375000Y19600000D01*
X-23375000Y16070000D02*
X-23375000Y16892470D01*
D12*
X-7829289Y4370711D02*
G75*
G03X-7829289Y4370711I-70711J0D01*
G01*
D11*
X-9200000Y3750000D02*
X-8600000Y3750000D01*
X-10200000Y1600000D02*
X-10200000Y2600000D01*
X-8600000Y450000D02*
X-9200000Y450000D01*
X-7600000Y2600000D02*
X-7600000Y1600000D01*
D12*
X-11400000Y2900000D02*
G75*
G03X-11400000Y2900000I-100000J0D01*
G01*
D11*
X-17900000Y-20760000D02*
X-16700000Y-20760000D01*
X-17900000Y-16760000D02*
X-17900000Y-20760000D01*
X-13100000Y-20760000D02*
X-13100000Y-18060000D01*
X-14300000Y-20760000D02*
X-13100000Y-20760000D01*
D12*
X-25670000Y25800000D02*
G75*
G03X-25670000Y25800000I-100000J0D01*
G01*
D10*
X-25025000Y27675000D02*
X-25400000Y27675000D01*
X-25025000Y32325000D02*
X-25400000Y32325000D01*
X-34975000Y32325000D02*
X-34650000Y32325000D01*
X-34975000Y27675000D02*
X-34650000Y27675000D01*
X-25025000Y27675000D02*
X-25025000Y32325000D01*
X-34975000Y27675000D02*
X-34975000Y32325000D01*
D12*
X-25670000Y-34200000D02*
G75*
G03X-25670000Y-34200000I-100000J0D01*
G01*
D10*
X-25025000Y-32325000D02*
X-25400000Y-32325000D01*
X-25025000Y-27675000D02*
X-25400000Y-27675000D01*
X-34975000Y-27675000D02*
X-34650000Y-27675000D01*
X-34975000Y-32325000D02*
X-34650000Y-32325000D01*
X-25025000Y-32325000D02*
X-25025000Y-27675000D01*
X-34975000Y-32325000D02*
X-34975000Y-27675000D01*
D12*
X25870000Y-25800000D02*
G75*
G03X25870000Y-25800000I-100000J0D01*
G01*
D10*
X25025000Y-27675000D02*
X25400000Y-27675000D01*
X25025000Y-32325000D02*
X25400000Y-32325000D01*
X34975000Y-32325000D02*
X34650000Y-32325000D01*
X34975000Y-27675000D02*
X34650000Y-27675000D01*
X25025000Y-27675000D02*
X25025000Y-32325000D01*
X34975000Y-27675000D02*
X34975000Y-32325000D01*
D12*
X25870000Y34200000D02*
G75*
G03X25870000Y34200000I-100000J0D01*
G01*
D10*
X25025000Y32325000D02*
X25400000Y32325000D01*
X25025000Y27675000D02*
X25400000Y27675000D01*
X34975000Y27675000D02*
X34650000Y27675000D01*
X34975000Y32325000D02*
X34650000Y32325000D01*
X25025000Y32325000D02*
X25025000Y27675000D01*
X34975000Y32325000D02*
X34975000Y27675000D01*
D11*
X-6200000Y-6300000D02*
X-6200000Y5900000D01*
X6200000Y-6300000D02*
X-6200000Y-6300000D01*
X6200000Y5900000D02*
X6200000Y-6300000D01*
X-6200000Y5900000D02*
X6200000Y5900000D01*
X2490000Y10903733D02*
X2490000Y11246267D01*
X3510000Y10903733D02*
X3510000Y11246267D01*
X490000Y10903733D02*
X490000Y11246267D01*
X1510000Y10903733D02*
X1510000Y11246267D01*
X-1510000Y10903733D02*
X-1510000Y11246267D01*
X-490000Y10903733D02*
X-490000Y11246267D01*
X-3610000Y10903733D02*
X-3610000Y11246267D01*
X-2590000Y10903733D02*
X-2590000Y11246267D01*
X-7490000Y-9203733D02*
X-7490000Y-9546267D01*
X-8510000Y-9203733D02*
X-8510000Y-9546267D01*
X-5490000Y-9203733D02*
X-5490000Y-9546267D01*
X-6510000Y-9203733D02*
X-6510000Y-9546267D01*
X-15410000Y7903733D02*
X-15410000Y8246267D01*
X-14390000Y7903733D02*
X-14390000Y8246267D01*
X-21410000Y7903733D02*
X-21410000Y8246267D01*
X-20390000Y7903733D02*
X-20390000Y8246267D01*
X-19410000Y7903733D02*
X-19410000Y8246267D01*
X-18390000Y7903733D02*
X-18390000Y8246267D01*
X-17510000Y7903733D02*
X-17510000Y8246267D01*
X-16490000Y7903733D02*
X-16490000Y8246267D01*
X-2510000Y29828733D02*
X-2510000Y30171267D01*
X-1490000Y29828733D02*
X-1490000Y30171267D01*
X-4510000Y29828733D02*
X-4510000Y30171267D01*
X-3490000Y29828733D02*
X-3490000Y30171267D01*
X-6510000Y29828733D02*
X-6510000Y30171267D01*
X-5490000Y29828733D02*
X-5490000Y30171267D01*
X-8510000Y29828733D02*
X-8510000Y30171267D01*
X-7490000Y29828733D02*
X-7490000Y30171267D01*
X-10510000Y29828733D02*
X-10510000Y30171267D01*
X-9490000Y29828733D02*
X-9490000Y30171267D01*
X-12510000Y29828733D02*
X-12510000Y30171267D01*
X-11490000Y29828733D02*
X-11490000Y30171267D01*
X-14510000Y29828733D02*
X-14510000Y30171267D01*
X-13490000Y29828733D02*
X-13490000Y30171267D01*
X-29828733Y13490000D02*
X-30171267Y13490000D01*
X-29828733Y14510000D02*
X-30171267Y14510000D01*
X-29828733Y11490000D02*
X-30171267Y11490000D01*
X-29828733Y12510000D02*
X-30171267Y12510000D01*
X-29828733Y9490000D02*
X-30171267Y9490000D01*
X-29828733Y10510000D02*
X-30171267Y10510000D01*
X-29828733Y7490000D02*
X-30171267Y7490000D01*
X-29828733Y8510000D02*
X-30171267Y8510000D01*
X-29828733Y5490000D02*
X-30171267Y5490000D01*
X-29828733Y6510000D02*
X-30171267Y6510000D01*
X-29828733Y3490000D02*
X-30171267Y3490000D01*
X-29828733Y4510000D02*
X-30171267Y4510000D01*
X-29828733Y1490000D02*
X-30171267Y1490000D01*
X-29828733Y2510000D02*
X-30171267Y2510000D01*
X-29828733Y-510000D02*
X-30171267Y-510000D01*
X-29828733Y510000D02*
X-30171267Y510000D01*
X-29828733Y-2510000D02*
X-30171267Y-2510000D01*
X-29828733Y-1490000D02*
X-30171267Y-1490000D01*
X-29828733Y-4510000D02*
X-30171267Y-4510000D01*
X-29828733Y-3490000D02*
X-30171267Y-3490000D01*
X-29828733Y-6510000D02*
X-30171267Y-6510000D01*
X-29828733Y-5490000D02*
X-30171267Y-5490000D01*
X-29828733Y-8510000D02*
X-30171267Y-8510000D01*
X-29828733Y-7490000D02*
X-30171267Y-7490000D01*
X-29828733Y-10510000D02*
X-30171267Y-10510000D01*
X-29828733Y-9490000D02*
X-30171267Y-9490000D01*
X-29828733Y-12510000D02*
X-30171267Y-12510000D01*
X-29828733Y-11490000D02*
X-30171267Y-11490000D01*
X-29828733Y-14510000D02*
X-30171267Y-14510000D01*
X-29828733Y-13490000D02*
X-30171267Y-13490000D01*
X-13490000Y-29828733D02*
X-13490000Y-30171267D01*
X-14510000Y-29828733D02*
X-14510000Y-30171267D01*
X-11490000Y-29828733D02*
X-11490000Y-30171267D01*
X-12510000Y-29828733D02*
X-12510000Y-30171267D01*
X-9490000Y-29828733D02*
X-9490000Y-30171267D01*
X-10510000Y-29828733D02*
X-10510000Y-30171267D01*
X-7490000Y-29828733D02*
X-7490000Y-30171267D01*
X-8510000Y-29828733D02*
X-8510000Y-30171267D01*
X-5490000Y-29828733D02*
X-5490000Y-30171267D01*
X-6510000Y-29828733D02*
X-6510000Y-30171267D01*
X-3490000Y-29828733D02*
X-3490000Y-30171267D01*
X-4510000Y-29828733D02*
X-4510000Y-30171267D01*
X-1490000Y-29828733D02*
X-1490000Y-30171267D01*
X-2510000Y-29828733D02*
X-2510000Y-30171267D01*
X510000Y-29828733D02*
X510000Y-30171267D01*
X-510000Y-29828733D02*
X-510000Y-30171267D01*
X2510000Y-29828733D02*
X2510000Y-30171267D01*
X1490000Y-29828733D02*
X1490000Y-30171267D01*
X4510000Y-29828733D02*
X4510000Y-30171267D01*
X3490000Y-29828733D02*
X3490000Y-30171267D01*
X6510000Y-29828733D02*
X6510000Y-30171267D01*
X5490000Y-29828733D02*
X5490000Y-30171267D01*
X8510000Y-29828733D02*
X8510000Y-30171267D01*
X7490000Y-29828733D02*
X7490000Y-30171267D01*
X10510000Y-29828733D02*
X10510000Y-30171267D01*
X9490000Y-29828733D02*
X9490000Y-30171267D01*
X12510000Y-29828733D02*
X12510000Y-30171267D01*
X11490000Y-29828733D02*
X11490000Y-30171267D01*
X14510000Y-29828733D02*
X14510000Y-30171267D01*
X13490000Y-29828733D02*
X13490000Y-30171267D01*
X29828733Y-13490000D02*
X30171267Y-13490000D01*
X29828733Y-14510000D02*
X30171267Y-14510000D01*
X29828733Y-11490000D02*
X30171267Y-11490000D01*
X29828733Y-12510000D02*
X30171267Y-12510000D01*
X29828733Y-9490000D02*
X30171267Y-9490000D01*
X29828733Y-10510000D02*
X30171267Y-10510000D01*
X29828733Y-7490000D02*
X30171267Y-7490000D01*
X29828733Y-8510000D02*
X30171267Y-8510000D01*
X29828733Y-5490000D02*
X30171267Y-5490000D01*
X29828733Y-6510000D02*
X30171267Y-6510000D01*
X29828733Y-3490000D02*
X30171267Y-3490000D01*
X29828733Y-4510000D02*
X30171267Y-4510000D01*
X29828733Y-1490000D02*
X30171267Y-1490000D01*
X29828733Y-2510000D02*
X30171267Y-2510000D01*
X29828733Y510000D02*
X30171267Y510000D01*
X29828733Y-510000D02*
X30171267Y-510000D01*
X29828733Y2510000D02*
X30171267Y2510000D01*
X29828733Y1490000D02*
X30171267Y1490000D01*
X29828733Y4510000D02*
X30171267Y4510000D01*
X29828733Y3490000D02*
X30171267Y3490000D01*
X29828733Y6510000D02*
X30171267Y6510000D01*
X29828733Y5490000D02*
X30171267Y5490000D01*
X29828733Y8510000D02*
X30171267Y8510000D01*
X29828733Y7490000D02*
X30171267Y7490000D01*
X29828733Y10510000D02*
X30171267Y10510000D01*
X29828733Y9490000D02*
X30171267Y9490000D01*
X29828733Y12510000D02*
X30171267Y12510000D01*
X29828733Y11490000D02*
X30171267Y11490000D01*
X29828733Y14510000D02*
X30171267Y14510000D01*
X29828733Y13490000D02*
X30171267Y13490000D01*
X13490000Y29828733D02*
X13490000Y30171267D01*
X14510000Y29828733D02*
X14510000Y30171267D01*
X11490000Y29828733D02*
X11490000Y30171267D01*
X12510000Y29828733D02*
X12510000Y30171267D01*
X9490000Y29828733D02*
X9490000Y30171267D01*
X10510000Y29828733D02*
X10510000Y30171267D01*
X7490000Y29828733D02*
X7490000Y30171267D01*
X8510000Y29828733D02*
X8510000Y30171267D01*
X5490000Y29828733D02*
X5490000Y30171267D01*
X6510000Y29828733D02*
X6510000Y30171267D01*
X3490000Y29828733D02*
X3490000Y30171267D01*
X4510000Y29828733D02*
X4510000Y30171267D01*
X1490000Y29828733D02*
X1490000Y30171267D01*
X2510000Y29828733D02*
X2510000Y30171267D01*
X-510000Y29828733D02*
X-510000Y30171267D01*
X510000Y29828733D02*
X510000Y30171267D01*
X-9090000Y-17910436D02*
X-9090000Y-19114564D01*
X-10910000Y-17910436D02*
X-10910000Y-19114564D01*
X-20590000Y-7503733D02*
X-20590000Y-7846267D01*
X-21610000Y-7503733D02*
X-21610000Y-7846267D01*
X-12390000Y8246267D02*
X-12390000Y7903733D01*
X-13410000Y8246267D02*
X-13410000Y7903733D01*
X-9350000Y-650000D02*
X-9050000Y-650000D01*
X-9350000Y-1350000D02*
X-9050000Y-1350000D01*
X-8450000Y4850000D02*
X-8750000Y4850000D01*
X-8450000Y5550000D02*
X-8750000Y5550000D01*
X-17510000Y-13796267D02*
X-17510000Y-13453733D01*
X-16490000Y-13796267D02*
X-16490000Y-13453733D01*
X-14510000Y-13796267D02*
X-14510000Y-13453733D01*
X-13490000Y-13796267D02*
X-13490000Y-13453733D01*
D10*
X95238Y21952380D02*
X190476Y22000000D01*
X285714Y22095238D01*
X428571Y22238095D01*
X523809Y22285714D01*
X619047Y22285714D01*
X571428Y22047619D02*
X666666Y22095238D01*
X761904Y22190476D01*
X809523Y22380952D01*
X809523Y22714285D01*
X761904Y22904761D01*
X666666Y23000000D01*
X571428Y23047619D01*
X380952Y23047619D01*
X285714Y23000000D01*
X190476Y22904761D01*
X142857Y22714285D01*
X142857Y22380952D01*
X190476Y22190476D01*
X285714Y22095238D01*
X380952Y22047619D01*
X571428Y22047619D01*
X-809523Y22047619D02*
X-238095Y22047619D01*
X-523809Y22047619D02*
X-523809Y23047619D01*
X-428571Y22904761D01*
X-333333Y22809523D01*
X-238095Y22761904D01*
X-16452619Y18168333D02*
X-15738333Y18168333D01*
X-15595476Y18215952D01*
X-15500238Y18311190D01*
X-15452619Y18454047D01*
X-15452619Y18549285D01*
X-16357380Y17739761D02*
X-16405000Y17692142D01*
X-16452619Y17596904D01*
X-16452619Y17358809D01*
X-16405000Y17263571D01*
X-16357380Y17215952D01*
X-16262142Y17168333D01*
X-16166904Y17168333D01*
X-16024047Y17215952D01*
X-15452619Y17787380D01*
X-15452619Y17168333D01*
X-11547619Y6309523D02*
X-10547619Y5642857D01*
X-11547619Y5642857D02*
X-10547619Y6309523D01*
X-10547619Y4738095D02*
X-10547619Y5309523D01*
X-10547619Y5023809D02*
X-11547619Y5023809D01*
X-11404761Y5119047D01*
X-11309523Y5214285D01*
X-11261904Y5309523D01*
X-16138095Y6347619D02*
X-16138095Y5538095D01*
X-16185714Y5442857D01*
X-16233333Y5395238D01*
X-16328571Y5347619D01*
X-16519047Y5347619D01*
X-16614285Y5395238D01*
X-16661904Y5442857D01*
X-16709523Y5538095D01*
X-16709523Y6347619D01*
X-17614285Y6347619D02*
X-17423809Y6347619D01*
X-17328571Y6300000D01*
X-17280952Y6252380D01*
X-17185714Y6109523D01*
X-17138095Y5919047D01*
X-17138095Y5538095D01*
X-17185714Y5442857D01*
X-17233333Y5395238D01*
X-17328571Y5347619D01*
X-17519047Y5347619D01*
X-17614285Y5395238D01*
X-17661904Y5442857D01*
X-17709523Y5538095D01*
X-17709523Y5776190D01*
X-17661904Y5871428D01*
X-17614285Y5919047D01*
X-17519047Y5966666D01*
X-17328571Y5966666D01*
X-17233333Y5919047D01*
X-17185714Y5871428D01*
X-17138095Y5776190D01*
X-19347619Y-18668095D02*
X-18538095Y-18668095D01*
X-18442857Y-18715714D01*
X-18395238Y-18763333D01*
X-18347619Y-18858571D01*
X-18347619Y-19049047D01*
X-18395238Y-19144285D01*
X-18442857Y-19191904D01*
X-18538095Y-19239523D01*
X-19347619Y-19239523D01*
X-19347619Y-20191904D02*
X-19347619Y-19715714D01*
X-18871428Y-19668095D01*
X-18919047Y-19715714D01*
X-18966666Y-19810952D01*
X-18966666Y-20049047D01*
X-18919047Y-20144285D01*
X-18871428Y-20191904D01*
X-18776190Y-20239523D01*
X-18538095Y-20239523D01*
X-18442857Y-20191904D01*
X-18395238Y-20144285D01*
X-18347619Y-20049047D01*
X-18347619Y-19810952D01*
X-18395238Y-19715714D01*
X-18442857Y-19668095D01*
X-24647619Y30761904D02*
X-23838095Y30761904D01*
X-23742857Y30714285D01*
X-23695238Y30666666D01*
X-23647619Y30571428D01*
X-23647619Y30380952D01*
X-23695238Y30285714D01*
X-23742857Y30238095D01*
X-23838095Y30190476D01*
X-24647619Y30190476D01*
X-24314285Y29285714D02*
X-23647619Y29285714D01*
X-24695238Y29523809D02*
X-23980952Y29761904D01*
X-23980952Y29142857D01*
X-24647619Y-29238095D02*
X-23838095Y-29238095D01*
X-23742857Y-29285714D01*
X-23695238Y-29333333D01*
X-23647619Y-29428571D01*
X-23647619Y-29619047D01*
X-23695238Y-29714285D01*
X-23742857Y-29761904D01*
X-23838095Y-29809523D01*
X-24647619Y-29809523D01*
X-24647619Y-30190476D02*
X-24647619Y-30809523D01*
X-24266666Y-30476190D01*
X-24266666Y-30619047D01*
X-24219047Y-30714285D01*
X-24171428Y-30761904D01*
X-24076190Y-30809523D01*
X-23838095Y-30809523D01*
X-23742857Y-30761904D01*
X-23695238Y-30714285D01*
X-23647619Y-30619047D01*
X-23647619Y-30333333D01*
X-23695238Y-30238095D01*
X-23742857Y-30190476D01*
X23552380Y-29238095D02*
X24361904Y-29238095D01*
X24457142Y-29285714D01*
X24504761Y-29333333D01*
X24552380Y-29428571D01*
X24552380Y-29619047D01*
X24504761Y-29714285D01*
X24457142Y-29761904D01*
X24361904Y-29809523D01*
X23552380Y-29809523D01*
X23647619Y-30238095D02*
X23600000Y-30285714D01*
X23552380Y-30380952D01*
X23552380Y-30619047D01*
X23600000Y-30714285D01*
X23647619Y-30761904D01*
X23742857Y-30809523D01*
X23838095Y-30809523D01*
X23980952Y-30761904D01*
X24552380Y-30190476D01*
X24552380Y-30809523D01*
X23552380Y30761904D02*
X24361904Y30761904D01*
X24457142Y30714285D01*
X24504761Y30666666D01*
X24552380Y30571428D01*
X24552380Y30380952D01*
X24504761Y30285714D01*
X24457142Y30238095D01*
X24361904Y30190476D01*
X23552380Y30190476D01*
X24552380Y29190476D02*
X24552380Y29761904D01*
X24552380Y29476190D02*
X23552380Y29476190D01*
X23695238Y29571428D01*
X23790476Y29666666D01*
X23838095Y29761904D01*
X1333333Y4595238D02*
X1190476Y4547619D01*
X952380Y4547619D01*
X857142Y4595238D01*
X809523Y4642857D01*
X761904Y4738095D01*
X761904Y4833333D01*
X809523Y4928571D01*
X857142Y4976190D01*
X952380Y5023809D01*
X1142857Y5071428D01*
X1238095Y5119047D01*
X1285714Y5166666D01*
X1333333Y5261904D01*
X1333333Y5357142D01*
X1285714Y5452380D01*
X1238095Y5500000D01*
X1142857Y5547619D01*
X904761Y5547619D01*
X761904Y5500000D01*
X428571Y5547619D02*
X190476Y4547619D01*
X0Y5261904D01*
X-190476Y4547619D01*
X-428571Y5547619D01*
X-1333333Y4547619D02*
X-761904Y4547619D01*
X-1047619Y4547619D02*
X-1047619Y5547619D01*
X-952380Y5404761D01*
X-857142Y5309523D01*
X-761904Y5261904D01*
X-3190476Y8814285D02*
X-3190476Y8147619D01*
X-2952380Y9195238D02*
X-2714285Y8480952D01*
X-3333333Y8480952D01*
X-666666Y9147619D02*
X-1285714Y9147619D01*
X-952380Y8766666D01*
X-1095238Y8766666D01*
X-1190476Y8719047D01*
X-1238095Y8671428D01*
X-1285714Y8576190D01*
X-1285714Y8338095D01*
X-1238095Y8242857D01*
X-1190476Y8195238D01*
X-1095238Y8147619D01*
X-809523Y8147619D01*
X-714285Y8195238D01*
X-666666Y8242857D01*
X1285714Y9052380D02*
X1238095Y9100000D01*
X1142857Y9147619D01*
X904761Y9147619D01*
X809523Y9100000D01*
X761904Y9052380D01*
X714285Y8957142D01*
X714285Y8861904D01*
X761904Y8719047D01*
X1333333Y8147619D01*
X714285Y8147619D01*
X2714285Y8147619D02*
X3285714Y8147619D01*
X3000000Y8147619D02*
X3000000Y9147619D01*
X3095238Y9004761D01*
X3190476Y8909523D01*
X3285714Y8861904D01*
X2428571Y-9228571D02*
X2285714Y-9276190D01*
X2238095Y-9323809D01*
X2190476Y-9419047D01*
X2190476Y-9561904D01*
X2238095Y-9657142D01*
X2285714Y-9704761D01*
X2380952Y-9752380D01*
X2761904Y-9752380D01*
X2761904Y-8752380D01*
X2428571Y-8752380D01*
X2333333Y-8800000D01*
X2285714Y-8847619D01*
X2238095Y-8942857D01*
X2238095Y-9038095D01*
X2285714Y-9133333D01*
X2333333Y-9180952D01*
X2428571Y-9228571D01*
X2761904Y-9228571D01*
X-309523Y-9657142D02*
X-261904Y-9704761D01*
X-119047Y-9752380D01*
X-23809Y-9752380D01*
X119047Y-9704761D01*
X214285Y-9609523D01*
X261904Y-9514285D01*
X309523Y-9323809D01*
X309523Y-9180952D01*
X261904Y-8990476D01*
X214285Y-8895238D01*
X119047Y-8800000D01*
X-23809Y-8752380D01*
X-119047Y-8752380D01*
X-261904Y-8800000D01*
X-309523Y-8847619D01*
X-2261904Y-9466666D02*
X-2738095Y-9466666D01*
X-2166666Y-9752380D02*
X-2500000Y-8752380D01*
X-2833333Y-9752380D01*
X3452380Y15142857D02*
X2976190Y15476190D01*
X3452380Y15714285D02*
X2452380Y15714285D01*
X2452380Y15333333D01*
X2500000Y15238095D01*
X2547619Y15190476D01*
X2642857Y15142857D01*
X2785714Y15142857D01*
X2880952Y15190476D01*
X2928571Y15238095D01*
X2976190Y15333333D01*
X2976190Y15714285D01*
X2452380Y14809523D02*
X2452380Y14142857D01*
X3452380Y14571428D01*
X2452380Y13571428D02*
X2452380Y13476190D01*
X2500000Y13380952D01*
X2547619Y13333333D01*
X2642857Y13285714D01*
X2833333Y13238095D01*
X3071428Y13238095D01*
X3261904Y13285714D01*
X3357142Y13333333D01*
X3404761Y13380952D01*
X3452380Y13476190D01*
X3452380Y13571428D01*
X3404761Y13666666D01*
X3357142Y13714285D01*
X3261904Y13761904D01*
X3071428Y13809523D01*
X2833333Y13809523D01*
X2642857Y13761904D01*
X2547619Y13714285D01*
X2500000Y13666666D01*
X2452380Y13571428D01*
X1452380Y15142857D02*
X976190Y15476190D01*
X1452380Y15714285D02*
X452380Y15714285D01*
X452380Y15333333D01*
X500000Y15238095D01*
X547619Y15190476D01*
X642857Y15142857D01*
X785714Y15142857D01*
X880952Y15190476D01*
X928571Y15238095D01*
X976190Y15333333D01*
X976190Y15714285D01*
X452380Y14285714D02*
X452380Y14476190D01*
X500000Y14571428D01*
X547619Y14619047D01*
X690476Y14714285D01*
X880952Y14761904D01*
X1261904Y14761904D01*
X1357142Y14714285D01*
X1404761Y14666666D01*
X1452380Y14571428D01*
X1452380Y14380952D01*
X1404761Y14285714D01*
X1357142Y14238095D01*
X1261904Y14190476D01*
X1023809Y14190476D01*
X928571Y14238095D01*
X880952Y14285714D01*
X833333Y14380952D01*
X833333Y14571428D01*
X880952Y14666666D01*
X928571Y14714285D01*
X1023809Y14761904D01*
X1452380Y13714285D02*
X1452380Y13523809D01*
X1404761Y13428571D01*
X1357142Y13380952D01*
X1214285Y13285714D01*
X1023809Y13238095D01*
X642857Y13238095D01*
X547619Y13285714D01*
X499999Y13333333D01*
X452380Y13428571D01*
X452380Y13619047D01*
X499999Y13714285D01*
X547619Y13761904D01*
X642857Y13809523D01*
X880952Y13809523D01*
X976190Y13761904D01*
X1023809Y13714285D01*
X1071428Y13619047D01*
X1071428Y13428571D01*
X1023809Y13333333D01*
X976190Y13285714D01*
X880952Y13238095D01*
X-547619Y15142857D02*
X-1023809Y15476190D01*
X-547619Y15714285D02*
X-1547619Y15714285D01*
X-1547619Y15333333D01*
X-1500000Y15238095D01*
X-1452380Y15190476D01*
X-1357142Y15142857D01*
X-1214285Y15142857D01*
X-1119047Y15190476D01*
X-1071428Y15238095D01*
X-1023809Y15333333D01*
X-1023809Y15714285D01*
X-1547619Y14285714D02*
X-1547619Y14476190D01*
X-1500000Y14571428D01*
X-1452380Y14619047D01*
X-1309523Y14714285D01*
X-1119047Y14761904D01*
X-738095Y14761904D01*
X-642857Y14714285D01*
X-595238Y14666666D01*
X-547619Y14571428D01*
X-547619Y14380952D01*
X-595238Y14285714D01*
X-642857Y14238095D01*
X-738095Y14190476D01*
X-976190Y14190476D01*
X-1071428Y14238095D01*
X-1119047Y14285714D01*
X-1166666Y14380952D01*
X-1166666Y14571428D01*
X-1119047Y14666666D01*
X-1071428Y14714285D01*
X-976190Y14761904D01*
X-1119047Y13619047D02*
X-1166666Y13714285D01*
X-1214285Y13761904D01*
X-1309523Y13809523D01*
X-1357142Y13809523D01*
X-1452380Y13761904D01*
X-1500000Y13714285D01*
X-1547619Y13619047D01*
X-1547619Y13428571D01*
X-1500000Y13333333D01*
X-1452380Y13285714D01*
X-1357142Y13238095D01*
X-1309523Y13238095D01*
X-1214285Y13285714D01*
X-1166666Y13333333D01*
X-1119047Y13428571D01*
X-1119047Y13619047D01*
X-1071428Y13714285D01*
X-1023809Y13761904D01*
X-928571Y13809523D01*
X-738095Y13809523D01*
X-642857Y13761904D01*
X-595238Y13714285D01*
X-547619Y13619047D01*
X-547619Y13428571D01*
X-595238Y13333333D01*
X-642857Y13285714D01*
X-738095Y13238095D01*
X-928571Y13238095D01*
X-1023809Y13285714D01*
X-1071428Y13333333D01*
X-1119047Y13428571D01*
X-2547619Y15142857D02*
X-3023809Y15476190D01*
X-2547619Y15714285D02*
X-3547619Y15714285D01*
X-3547619Y15333333D01*
X-3500000Y15238095D01*
X-3452380Y15190476D01*
X-3357142Y15142857D01*
X-3214285Y15142857D01*
X-3119047Y15190476D01*
X-3071428Y15238095D01*
X-3023809Y15333333D01*
X-3023809Y15714285D01*
X-3547619Y14285714D02*
X-3547619Y14476190D01*
X-3500000Y14571428D01*
X-3452380Y14619047D01*
X-3309523Y14714285D01*
X-3119047Y14761904D01*
X-2738095Y14761904D01*
X-2642857Y14714285D01*
X-2595238Y14666666D01*
X-2547619Y14571428D01*
X-2547619Y14380952D01*
X-2595238Y14285714D01*
X-2642857Y14238095D01*
X-2738095Y14190476D01*
X-2976190Y14190476D01*
X-3071428Y14238095D01*
X-3119047Y14285714D01*
X-3166666Y14380952D01*
X-3166666Y14571428D01*
X-3119047Y14666666D01*
X-3071428Y14714285D01*
X-2976190Y14761904D01*
X-3547619Y13857142D02*
X-3547619Y13190476D01*
X-2547619Y13619047D01*
X-7547619Y-11857142D02*
X-8023809Y-11523809D01*
X-7547619Y-11285714D02*
X-8547619Y-11285714D01*
X-8547619Y-11666666D01*
X-8500000Y-11761904D01*
X-8452380Y-11809523D01*
X-8357142Y-11857142D01*
X-8214285Y-11857142D01*
X-8119047Y-11809523D01*
X-8071428Y-11761904D01*
X-8023809Y-11666666D01*
X-8023809Y-11285714D01*
X-8547619Y-12714285D02*
X-8547619Y-12523809D01*
X-8500000Y-12428571D01*
X-8452380Y-12380952D01*
X-8309523Y-12285714D01*
X-8119047Y-12238095D01*
X-7738095Y-12238095D01*
X-7642857Y-12285714D01*
X-7595238Y-12333333D01*
X-7547619Y-12428571D01*
X-7547619Y-12619047D01*
X-7595238Y-12714285D01*
X-7642857Y-12761904D01*
X-7738095Y-12809523D01*
X-7976190Y-12809523D01*
X-8071428Y-12761904D01*
X-8119047Y-12714285D01*
X-8166666Y-12619047D01*
X-8166666Y-12428571D01*
X-8119047Y-12333333D01*
X-8071428Y-12285714D01*
X-7976190Y-12238095D01*
X-8547619Y-13666666D02*
X-8547619Y-13476190D01*
X-8500000Y-13380952D01*
X-8452380Y-13333333D01*
X-8309523Y-13238095D01*
X-8119047Y-13190476D01*
X-7738095Y-13190476D01*
X-7642857Y-13238095D01*
X-7595238Y-13285714D01*
X-7547619Y-13380952D01*
X-7547619Y-13571428D01*
X-7595238Y-13666666D01*
X-7642857Y-13714285D01*
X-7738095Y-13761904D01*
X-7976190Y-13761904D01*
X-8071428Y-13714285D01*
X-8119047Y-13666666D01*
X-8166666Y-13571428D01*
X-8166666Y-13380952D01*
X-8119047Y-13285714D01*
X-8071428Y-13238095D01*
X-7976190Y-13190476D01*
X-5547619Y-11857142D02*
X-6023809Y-11523809D01*
X-5547619Y-11285714D02*
X-6547619Y-11285714D01*
X-6547619Y-11666666D01*
X-6500000Y-11761904D01*
X-6452380Y-11809523D01*
X-6357142Y-11857142D01*
X-6214285Y-11857142D01*
X-6119047Y-11809523D01*
X-6071428Y-11761904D01*
X-6023809Y-11666666D01*
X-6023809Y-11285714D01*
X-6547619Y-12714285D02*
X-6547619Y-12523809D01*
X-6500000Y-12428571D01*
X-6452380Y-12380952D01*
X-6309523Y-12285714D01*
X-6119047Y-12238095D01*
X-5738095Y-12238095D01*
X-5642857Y-12285714D01*
X-5595238Y-12333333D01*
X-5547619Y-12428571D01*
X-5547619Y-12619047D01*
X-5595238Y-12714285D01*
X-5642857Y-12761904D01*
X-5738095Y-12809523D01*
X-5976190Y-12809523D01*
X-6071428Y-12761904D01*
X-6119047Y-12714285D01*
X-6166666Y-12619047D01*
X-6166666Y-12428571D01*
X-6119047Y-12333333D01*
X-6071428Y-12285714D01*
X-5976190Y-12238095D01*
X-6547619Y-13714285D02*
X-6547619Y-13238095D01*
X-6071428Y-13190476D01*
X-6119047Y-13238095D01*
X-6166666Y-13333333D01*
X-6166666Y-13571428D01*
X-6119047Y-13666666D01*
X-6071428Y-13714285D01*
X-5976190Y-13761904D01*
X-5738095Y-13761904D01*
X-5642857Y-13714285D01*
X-5595238Y-13666666D01*
X-5547619Y-13571428D01*
X-5547619Y-13333333D01*
X-5595238Y-13238095D01*
X-5642857Y-13190476D01*
X-14447619Y11842857D02*
X-14923809Y12176190D01*
X-14447619Y12414285D02*
X-15447619Y12414285D01*
X-15447619Y12033333D01*
X-15400000Y11938095D01*
X-15352380Y11890476D01*
X-15257142Y11842857D01*
X-15114285Y11842857D01*
X-15019047Y11890476D01*
X-14971428Y11938095D01*
X-14923809Y12033333D01*
X-14923809Y12414285D01*
X-15447619Y10985714D02*
X-15447619Y11176190D01*
X-15400000Y11271428D01*
X-15352380Y11319047D01*
X-15209523Y11414285D01*
X-15019047Y11461904D01*
X-14638095Y11461904D01*
X-14542857Y11414285D01*
X-14495238Y11366666D01*
X-14447619Y11271428D01*
X-14447619Y11080952D01*
X-14495238Y10985714D01*
X-14542857Y10938095D01*
X-14638095Y10890476D01*
X-14876190Y10890476D01*
X-14971428Y10938095D01*
X-15019047Y10985714D01*
X-15066666Y11080952D01*
X-15066666Y11271428D01*
X-15019047Y11366666D01*
X-14971428Y11414285D01*
X-14876190Y11461904D01*
X-15114285Y10033333D02*
X-14447619Y10033333D01*
X-15495238Y10271428D02*
X-14780952Y10509523D01*
X-14780952Y9890476D01*
X-20447619Y11842857D02*
X-20923809Y12176190D01*
X-20447619Y12414285D02*
X-21447619Y12414285D01*
X-21447619Y12033333D01*
X-21400000Y11938095D01*
X-21352380Y11890476D01*
X-21257142Y11842857D01*
X-21114285Y11842857D01*
X-21019047Y11890476D01*
X-20971428Y11938095D01*
X-20923809Y12033333D01*
X-20923809Y12414285D01*
X-21447619Y10985714D02*
X-21447619Y11176190D01*
X-21400000Y11271428D01*
X-21352380Y11319047D01*
X-21209523Y11414285D01*
X-21019047Y11461904D01*
X-20638095Y11461904D01*
X-20542857Y11414285D01*
X-20495238Y11366666D01*
X-20447619Y11271428D01*
X-20447619Y11080952D01*
X-20495238Y10985714D01*
X-20542857Y10938095D01*
X-20638095Y10890476D01*
X-20876190Y10890476D01*
X-20971428Y10938095D01*
X-21019047Y10985714D01*
X-21066666Y11080952D01*
X-21066666Y11271428D01*
X-21019047Y11366666D01*
X-20971428Y11414285D01*
X-20876190Y11461904D01*
X-21447619Y10557142D02*
X-21447619Y9938095D01*
X-21066666Y10271428D01*
X-21066666Y10128571D01*
X-21019047Y10033333D01*
X-20971428Y9985714D01*
X-20876190Y9938095D01*
X-20638095Y9938095D01*
X-20542857Y9985714D01*
X-20495238Y10033333D01*
X-20447619Y10128571D01*
X-20447619Y10414285D01*
X-20495238Y10509523D01*
X-20542857Y10557142D01*
X-18447619Y11842857D02*
X-18923809Y12176190D01*
X-18447619Y12414285D02*
X-19447619Y12414285D01*
X-19447619Y12033333D01*
X-19400000Y11938095D01*
X-19352380Y11890476D01*
X-19257142Y11842857D01*
X-19114285Y11842857D01*
X-19019047Y11890476D01*
X-18971428Y11938095D01*
X-18923809Y12033333D01*
X-18923809Y12414285D01*
X-19447619Y10985714D02*
X-19447619Y11176190D01*
X-19400000Y11271428D01*
X-19352380Y11319047D01*
X-19209523Y11414285D01*
X-19019047Y11461904D01*
X-18638095Y11461904D01*
X-18542857Y11414285D01*
X-18495238Y11366666D01*
X-18447619Y11271428D01*
X-18447619Y11080952D01*
X-18495238Y10985714D01*
X-18542857Y10938095D01*
X-18638095Y10890476D01*
X-18876190Y10890476D01*
X-18971428Y10938095D01*
X-19019047Y10985714D01*
X-19066666Y11080952D01*
X-19066666Y11271428D01*
X-19019047Y11366666D01*
X-18971428Y11414285D01*
X-18876190Y11461904D01*
X-19352380Y10509523D02*
X-19400000Y10461904D01*
X-19447619Y10366666D01*
X-19447619Y10128571D01*
X-19400000Y10033333D01*
X-19352380Y9985714D01*
X-19257142Y9938095D01*
X-19161904Y9938095D01*
X-19019047Y9985714D01*
X-18447619Y10557142D01*
X-18447619Y9938095D01*
X-16547619Y11842857D02*
X-17023809Y12176190D01*
X-16547619Y12414285D02*
X-17547619Y12414285D01*
X-17547619Y12033333D01*
X-17500000Y11938095D01*
X-17452380Y11890476D01*
X-17357142Y11842857D01*
X-17214285Y11842857D01*
X-17119047Y11890476D01*
X-17071428Y11938095D01*
X-17023809Y12033333D01*
X-17023809Y12414285D01*
X-17547619Y10985714D02*
X-17547619Y11176190D01*
X-17500000Y11271428D01*
X-17452380Y11319047D01*
X-17309523Y11414285D01*
X-17119047Y11461904D01*
X-16738095Y11461904D01*
X-16642857Y11414285D01*
X-16595238Y11366666D01*
X-16547619Y11271428D01*
X-16547619Y11080952D01*
X-16595238Y10985714D01*
X-16642857Y10938095D01*
X-16738095Y10890476D01*
X-16976190Y10890476D01*
X-17071428Y10938095D01*
X-17119047Y10985714D01*
X-17166666Y11080952D01*
X-17166666Y11271428D01*
X-17119047Y11366666D01*
X-17071428Y11414285D01*
X-16976190Y11461904D01*
X-16547619Y9938095D02*
X-16547619Y10509523D01*
X-16547619Y10223809D02*
X-17547619Y10223809D01*
X-17404761Y10319047D01*
X-17309523Y10414285D01*
X-17261904Y10509523D01*
X-1547619Y27642857D02*
X-2023809Y27976190D01*
X-1547619Y28214285D02*
X-2547619Y28214285D01*
X-2547619Y27833333D01*
X-2500000Y27738095D01*
X-2452380Y27690476D01*
X-2357142Y27642857D01*
X-2214285Y27642857D01*
X-2119047Y27690476D01*
X-2071428Y27738095D01*
X-2023809Y27833333D01*
X-2023809Y28214285D01*
X-2547619Y26785714D02*
X-2547619Y26976190D01*
X-2500000Y27071428D01*
X-2452380Y27119047D01*
X-2309523Y27214285D01*
X-2119047Y27261904D01*
X-1738095Y27261904D01*
X-1642857Y27214285D01*
X-1595238Y27166666D01*
X-1547619Y27071428D01*
X-1547619Y26880952D01*
X-1595238Y26785714D01*
X-1642857Y26738095D01*
X-1738095Y26690476D01*
X-1976190Y26690476D01*
X-2071428Y26738095D01*
X-2119047Y26785714D01*
X-2166666Y26880952D01*
X-2166666Y27071428D01*
X-2119047Y27166666D01*
X-2071428Y27214285D01*
X-1976190Y27261904D01*
X-2547619Y26071428D02*
X-2547619Y25976190D01*
X-2500000Y25880952D01*
X-2452380Y25833333D01*
X-2357142Y25785714D01*
X-2166666Y25738095D01*
X-1928571Y25738095D01*
X-1738095Y25785714D01*
X-1642857Y25833333D01*
X-1595238Y25880952D01*
X-1547619Y25976190D01*
X-1547619Y26071428D01*
X-1595238Y26166666D01*
X-1642857Y26214285D01*
X-1738095Y26261904D01*
X-1928571Y26309523D01*
X-2166666Y26309523D01*
X-2357142Y26261904D01*
X-2452380Y26214285D01*
X-2500000Y26166666D01*
X-2547619Y26071428D01*
X-3547619Y27642857D02*
X-4023809Y27976190D01*
X-3547619Y28214285D02*
X-4547619Y28214285D01*
X-4547619Y27833333D01*
X-4500000Y27738095D01*
X-4452380Y27690476D01*
X-4357142Y27642857D01*
X-4214285Y27642857D01*
X-4119047Y27690476D01*
X-4071428Y27738095D01*
X-4023809Y27833333D01*
X-4023809Y28214285D01*
X-4547619Y26738095D02*
X-4547619Y27214285D01*
X-4071428Y27261904D01*
X-4119047Y27214285D01*
X-4166666Y27119047D01*
X-4166666Y26880952D01*
X-4119047Y26785714D01*
X-4071428Y26738095D01*
X-3976190Y26690476D01*
X-3738095Y26690476D01*
X-3642857Y26738095D01*
X-3595238Y26785714D01*
X-3547619Y26880952D01*
X-3547619Y27119047D01*
X-3595238Y27214285D01*
X-3642857Y27261904D01*
X-3547619Y26214285D02*
X-3547619Y26023809D01*
X-3595238Y25928571D01*
X-3642857Y25880952D01*
X-3785714Y25785714D01*
X-3976190Y25738095D01*
X-4357142Y25738095D01*
X-4452380Y25785714D01*
X-4500000Y25833333D01*
X-4547619Y25928571D01*
X-4547619Y26119047D01*
X-4500000Y26214285D01*
X-4452380Y26261904D01*
X-4357142Y26309523D01*
X-4119047Y26309523D01*
X-4023809Y26261904D01*
X-3976190Y26214285D01*
X-3928571Y26119047D01*
X-3928571Y25928571D01*
X-3976190Y25833333D01*
X-4023809Y25785714D01*
X-4119047Y25738095D01*
X-5547619Y27642857D02*
X-6023809Y27976190D01*
X-5547619Y28214285D02*
X-6547619Y28214285D01*
X-6547619Y27833333D01*
X-6500000Y27738095D01*
X-6452380Y27690476D01*
X-6357142Y27642857D01*
X-6214285Y27642857D01*
X-6119047Y27690476D01*
X-6071428Y27738095D01*
X-6023809Y27833333D01*
X-6023809Y28214285D01*
X-6547619Y26738095D02*
X-6547619Y27214285D01*
X-6071428Y27261904D01*
X-6119047Y27214285D01*
X-6166666Y27119047D01*
X-6166666Y26880952D01*
X-6119047Y26785714D01*
X-6071428Y26738095D01*
X-5976190Y26690476D01*
X-5738095Y26690476D01*
X-5642857Y26738095D01*
X-5595238Y26785714D01*
X-5547619Y26880952D01*
X-5547619Y27119047D01*
X-5595238Y27214285D01*
X-5642857Y27261904D01*
X-6119047Y26119047D02*
X-6166666Y26214285D01*
X-6214285Y26261904D01*
X-6309523Y26309523D01*
X-6357142Y26309523D01*
X-6452380Y26261904D01*
X-6500000Y26214285D01*
X-6547619Y26119047D01*
X-6547619Y25928571D01*
X-6500000Y25833333D01*
X-6452380Y25785714D01*
X-6357142Y25738095D01*
X-6309523Y25738095D01*
X-6214285Y25785714D01*
X-6166666Y25833333D01*
X-6119047Y25928571D01*
X-6119047Y26119047D01*
X-6071428Y26214285D01*
X-6023809Y26261904D01*
X-5928571Y26309523D01*
X-5738095Y26309523D01*
X-5642857Y26261904D01*
X-5595238Y26214285D01*
X-5547619Y26119047D01*
X-5547619Y25928571D01*
X-5595238Y25833333D01*
X-5642857Y25785714D01*
X-5738095Y25738095D01*
X-5928571Y25738095D01*
X-6023809Y25785714D01*
X-6071428Y25833333D01*
X-6119047Y25928571D01*
X-7547619Y27642857D02*
X-8023809Y27976190D01*
X-7547619Y28214285D02*
X-8547619Y28214285D01*
X-8547619Y27833333D01*
X-8500000Y27738095D01*
X-8452380Y27690476D01*
X-8357142Y27642857D01*
X-8214285Y27642857D01*
X-8119047Y27690476D01*
X-8071428Y27738095D01*
X-8023809Y27833333D01*
X-8023809Y28214285D01*
X-8547619Y26738095D02*
X-8547619Y27214285D01*
X-8071428Y27261904D01*
X-8119047Y27214285D01*
X-8166666Y27119047D01*
X-8166666Y26880952D01*
X-8119047Y26785714D01*
X-8071428Y26738095D01*
X-7976190Y26690476D01*
X-7738095Y26690476D01*
X-7642857Y26738095D01*
X-7595238Y26785714D01*
X-7547619Y26880952D01*
X-7547619Y27119047D01*
X-7595238Y27214285D01*
X-7642857Y27261904D01*
X-8547619Y26357142D02*
X-8547619Y25690476D01*
X-7547619Y26119047D01*
X-9547619Y27642857D02*
X-10023809Y27976190D01*
X-9547619Y28214285D02*
X-10547619Y28214285D01*
X-10547619Y27833333D01*
X-10500000Y27738095D01*
X-10452380Y27690476D01*
X-10357142Y27642857D01*
X-10214285Y27642857D01*
X-10119047Y27690476D01*
X-10071428Y27738095D01*
X-10023809Y27833333D01*
X-10023809Y28214285D01*
X-10547619Y26738095D02*
X-10547619Y27214285D01*
X-10071428Y27261904D01*
X-10119047Y27214285D01*
X-10166666Y27119047D01*
X-10166666Y26880952D01*
X-10119047Y26785714D01*
X-10071428Y26738095D01*
X-9976190Y26690476D01*
X-9738095Y26690476D01*
X-9642857Y26738095D01*
X-9595238Y26785714D01*
X-9547619Y26880952D01*
X-9547619Y27119047D01*
X-9595238Y27214285D01*
X-9642857Y27261904D01*
X-10547619Y25833333D02*
X-10547619Y26023809D01*
X-10500000Y26119047D01*
X-10452380Y26166666D01*
X-10309523Y26261904D01*
X-10119047Y26309523D01*
X-9738095Y26309523D01*
X-9642857Y26261904D01*
X-9595238Y26214285D01*
X-9547619Y26119047D01*
X-9547619Y25928571D01*
X-9595238Y25833333D01*
X-9642857Y25785714D01*
X-9738095Y25738095D01*
X-9976190Y25738095D01*
X-10071428Y25785714D01*
X-10119047Y25833333D01*
X-10166666Y25928571D01*
X-10166666Y26119047D01*
X-10119047Y26214285D01*
X-10071428Y26261904D01*
X-9976190Y26309523D01*
X-11547619Y27642857D02*
X-12023809Y27976190D01*
X-11547619Y28214285D02*
X-12547619Y28214285D01*
X-12547619Y27833333D01*
X-12500000Y27738095D01*
X-12452380Y27690476D01*
X-12357142Y27642857D01*
X-12214285Y27642857D01*
X-12119047Y27690476D01*
X-12071428Y27738095D01*
X-12023809Y27833333D01*
X-12023809Y28214285D01*
X-12547619Y26738095D02*
X-12547619Y27214285D01*
X-12071428Y27261904D01*
X-12119047Y27214285D01*
X-12166666Y27119047D01*
X-12166666Y26880952D01*
X-12119047Y26785714D01*
X-12071428Y26738095D01*
X-11976190Y26690476D01*
X-11738095Y26690476D01*
X-11642857Y26738095D01*
X-11595238Y26785714D01*
X-11547619Y26880952D01*
X-11547619Y27119047D01*
X-11595238Y27214285D01*
X-11642857Y27261904D01*
X-12547619Y25785714D02*
X-12547619Y26261904D01*
X-12071428Y26309523D01*
X-12119047Y26261904D01*
X-12166666Y26166666D01*
X-12166666Y25928571D01*
X-12119047Y25833333D01*
X-12071428Y25785714D01*
X-11976190Y25738095D01*
X-11738095Y25738095D01*
X-11642857Y25785714D01*
X-11595238Y25833333D01*
X-11547619Y25928571D01*
X-11547619Y26166666D01*
X-11595238Y26261904D01*
X-11642857Y26309523D01*
X-13547619Y27642857D02*
X-14023809Y27976190D01*
X-13547619Y28214285D02*
X-14547619Y28214285D01*
X-14547619Y27833333D01*
X-14500000Y27738095D01*
X-14452380Y27690476D01*
X-14357142Y27642857D01*
X-14214285Y27642857D01*
X-14119047Y27690476D01*
X-14071428Y27738095D01*
X-14023809Y27833333D01*
X-14023809Y28214285D01*
X-14547619Y26738095D02*
X-14547619Y27214285D01*
X-14071428Y27261904D01*
X-14119047Y27214285D01*
X-14166666Y27119047D01*
X-14166666Y26880952D01*
X-14119047Y26785714D01*
X-14071428Y26738095D01*
X-13976190Y26690476D01*
X-13738095Y26690476D01*
X-13642857Y26738095D01*
X-13595238Y26785714D01*
X-13547619Y26880952D01*
X-13547619Y27119047D01*
X-13595238Y27214285D01*
X-13642857Y27261904D01*
X-14214285Y25833333D02*
X-13547619Y25833333D01*
X-14595238Y26071428D02*
X-13880952Y26309523D01*
X-13880952Y25690476D01*
X-32357142Y13547619D02*
X-32023809Y14023809D01*
X-31785714Y13547619D02*
X-31785714Y14547619D01*
X-32166666Y14547619D01*
X-32261904Y14500000D01*
X-32309523Y14452380D01*
X-32357142Y14357142D01*
X-32357142Y14214285D01*
X-32309523Y14119047D01*
X-32261904Y14071428D01*
X-32166666Y14023809D01*
X-31785714Y14023809D01*
X-33261904Y14547619D02*
X-32785714Y14547619D01*
X-32738095Y14071428D01*
X-32785714Y14119047D01*
X-32880952Y14166666D01*
X-33119047Y14166666D01*
X-33214285Y14119047D01*
X-33261904Y14071428D01*
X-33309523Y13976190D01*
X-33309523Y13738095D01*
X-33261904Y13642857D01*
X-33214285Y13595238D01*
X-33119047Y13547619D01*
X-32880952Y13547619D01*
X-32785714Y13595238D01*
X-32738095Y13642857D01*
X-33642857Y14547619D02*
X-34261904Y14547619D01*
X-33928571Y14166666D01*
X-34071428Y14166666D01*
X-34166666Y14119047D01*
X-34214285Y14071428D01*
X-34261904Y13976190D01*
X-34261904Y13738095D01*
X-34214285Y13642857D01*
X-34166666Y13595238D01*
X-34071428Y13547619D01*
X-33785714Y13547619D01*
X-33690476Y13595238D01*
X-33642857Y13642857D01*
X-32357142Y11547619D02*
X-32023809Y12023809D01*
X-31785714Y11547619D02*
X-31785714Y12547619D01*
X-32166666Y12547619D01*
X-32261904Y12500000D01*
X-32309523Y12452380D01*
X-32357142Y12357142D01*
X-32357142Y12214285D01*
X-32309523Y12119047D01*
X-32261904Y12071428D01*
X-32166666Y12023809D01*
X-31785714Y12023809D01*
X-33261904Y12547619D02*
X-32785714Y12547619D01*
X-32738095Y12071428D01*
X-32785714Y12119047D01*
X-32880952Y12166666D01*
X-33119047Y12166666D01*
X-33214285Y12119047D01*
X-33261904Y12071428D01*
X-33309523Y11976190D01*
X-33309523Y11738095D01*
X-33261904Y11642857D01*
X-33214285Y11595238D01*
X-33119047Y11547619D01*
X-32880952Y11547619D01*
X-32785714Y11595238D01*
X-32738095Y11642857D01*
X-33690476Y12452380D02*
X-33738095Y12500000D01*
X-33833333Y12547619D01*
X-34071428Y12547619D01*
X-34166666Y12500000D01*
X-34214285Y12452380D01*
X-34261904Y12357142D01*
X-34261904Y12261904D01*
X-34214285Y12119047D01*
X-33642857Y11547619D01*
X-34261904Y11547619D01*
X-32357142Y9547619D02*
X-32023809Y10023809D01*
X-31785714Y9547619D02*
X-31785714Y10547619D01*
X-32166666Y10547619D01*
X-32261904Y10500000D01*
X-32309523Y10452380D01*
X-32357142Y10357142D01*
X-32357142Y10214285D01*
X-32309523Y10119047D01*
X-32261904Y10071428D01*
X-32166666Y10023809D01*
X-31785714Y10023809D01*
X-33261904Y10547619D02*
X-32785714Y10547619D01*
X-32738095Y10071428D01*
X-32785714Y10119047D01*
X-32880952Y10166666D01*
X-33119047Y10166666D01*
X-33214285Y10119047D01*
X-33261904Y10071428D01*
X-33309523Y9976190D01*
X-33309523Y9738095D01*
X-33261904Y9642857D01*
X-33214285Y9595238D01*
X-33119047Y9547619D01*
X-32880952Y9547619D01*
X-32785714Y9595238D01*
X-32738095Y9642857D01*
X-34261904Y9547619D02*
X-33690476Y9547619D01*
X-33976190Y9547619D02*
X-33976190Y10547619D01*
X-33880952Y10404761D01*
X-33785714Y10309523D01*
X-33690476Y10261904D01*
X-32357142Y7547619D02*
X-32023809Y8023809D01*
X-31785714Y7547619D02*
X-31785714Y8547619D01*
X-32166666Y8547619D01*
X-32261904Y8500000D01*
X-32309523Y8452380D01*
X-32357142Y8357142D01*
X-32357142Y8214285D01*
X-32309523Y8119047D01*
X-32261904Y8071428D01*
X-32166666Y8023809D01*
X-31785714Y8023809D01*
X-33261904Y8547619D02*
X-32785714Y8547619D01*
X-32738095Y8071428D01*
X-32785714Y8119047D01*
X-32880952Y8166666D01*
X-33119047Y8166666D01*
X-33214285Y8119047D01*
X-33261904Y8071428D01*
X-33309523Y7976190D01*
X-33309523Y7738095D01*
X-33261904Y7642857D01*
X-33214285Y7595238D01*
X-33119047Y7547619D01*
X-32880952Y7547619D01*
X-32785714Y7595238D01*
X-32738095Y7642857D01*
X-33928571Y8547619D02*
X-34023809Y8547619D01*
X-34119047Y8500000D01*
X-34166666Y8452380D01*
X-34214285Y8357142D01*
X-34261904Y8166666D01*
X-34261904Y7928571D01*
X-34214285Y7738095D01*
X-34166666Y7642857D01*
X-34119047Y7595238D01*
X-34023809Y7547619D01*
X-33928571Y7547619D01*
X-33833333Y7595238D01*
X-33785714Y7642857D01*
X-33738095Y7738095D01*
X-33690476Y7928571D01*
X-33690476Y8166666D01*
X-33738095Y8357142D01*
X-33785714Y8452380D01*
X-33833333Y8500000D01*
X-33928571Y8547619D01*
X-32357142Y5547619D02*
X-32023809Y6023809D01*
X-31785714Y5547619D02*
X-31785714Y6547619D01*
X-32166666Y6547619D01*
X-32261904Y6500000D01*
X-32309523Y6452380D01*
X-32357142Y6357142D01*
X-32357142Y6214285D01*
X-32309523Y6119047D01*
X-32261904Y6071428D01*
X-32166666Y6023809D01*
X-31785714Y6023809D01*
X-33214285Y6214285D02*
X-33214285Y5547619D01*
X-32976190Y6595238D02*
X-32738095Y5880952D01*
X-33357142Y5880952D01*
X-33785714Y5547619D02*
X-33976190Y5547619D01*
X-34071428Y5595238D01*
X-34119047Y5642857D01*
X-34214285Y5785714D01*
X-34261904Y5976190D01*
X-34261904Y6357142D01*
X-34214285Y6452380D01*
X-34166666Y6500000D01*
X-34071428Y6547619D01*
X-33880952Y6547619D01*
X-33785714Y6500000D01*
X-33738095Y6452380D01*
X-33690476Y6357142D01*
X-33690476Y6119047D01*
X-33738095Y6023809D01*
X-33785714Y5976190D01*
X-33880952Y5928571D01*
X-34071428Y5928571D01*
X-34166666Y5976190D01*
X-34214285Y6023809D01*
X-34261904Y6119047D01*
X-32357142Y3547619D02*
X-32023809Y4023809D01*
X-31785714Y3547619D02*
X-31785714Y4547619D01*
X-32166666Y4547619D01*
X-32261904Y4500000D01*
X-32309523Y4452380D01*
X-32357142Y4357142D01*
X-32357142Y4214285D01*
X-32309523Y4119047D01*
X-32261904Y4071428D01*
X-32166666Y4023809D01*
X-31785714Y4023809D01*
X-33214285Y4214285D02*
X-33214285Y3547619D01*
X-32976190Y4595238D02*
X-32738095Y3880952D01*
X-33357142Y3880952D01*
X-33880952Y4119047D02*
X-33785714Y4166666D01*
X-33738095Y4214285D01*
X-33690476Y4309523D01*
X-33690476Y4357142D01*
X-33738095Y4452380D01*
X-33785714Y4500000D01*
X-33880952Y4547619D01*
X-34071428Y4547619D01*
X-34166666Y4500000D01*
X-34214285Y4452380D01*
X-34261904Y4357142D01*
X-34261904Y4309523D01*
X-34214285Y4214285D01*
X-34166666Y4166666D01*
X-34071428Y4119047D01*
X-33880952Y4119047D01*
X-33785714Y4071428D01*
X-33738095Y4023809D01*
X-33690476Y3928571D01*
X-33690476Y3738095D01*
X-33738095Y3642857D01*
X-33785714Y3595238D01*
X-33880952Y3547619D01*
X-34071428Y3547619D01*
X-34166666Y3595238D01*
X-34214285Y3642857D01*
X-34261904Y3738095D01*
X-34261904Y3928571D01*
X-34214285Y4023809D01*
X-34166666Y4071428D01*
X-34071428Y4119047D01*
X-32357142Y1547619D02*
X-32023809Y2023809D01*
X-31785714Y1547619D02*
X-31785714Y2547619D01*
X-32166666Y2547619D01*
X-32261904Y2500000D01*
X-32309523Y2452380D01*
X-32357142Y2357142D01*
X-32357142Y2214285D01*
X-32309523Y2119047D01*
X-32261904Y2071428D01*
X-32166666Y2023809D01*
X-31785714Y2023809D01*
X-33214285Y2214285D02*
X-33214285Y1547619D01*
X-32976190Y2595238D02*
X-32738095Y1880952D01*
X-33357142Y1880952D01*
X-33642857Y2547619D02*
X-34309523Y2547619D01*
X-33880952Y1547619D01*
X-32357142Y-452380D02*
X-32023809Y23809D01*
X-31785714Y-452380D02*
X-31785714Y547619D01*
X-32166666Y547619D01*
X-32261904Y500000D01*
X-32309523Y452380D01*
X-32357142Y357142D01*
X-32357142Y214285D01*
X-32309523Y119047D01*
X-32261904Y71428D01*
X-32166666Y23809D01*
X-31785714Y23809D01*
X-33214285Y214285D02*
X-33214285Y-452380D01*
X-32976190Y595238D02*
X-32738095Y-119047D01*
X-33357142Y-119047D01*
X-34166666Y547619D02*
X-33976190Y547619D01*
X-33880952Y500000D01*
X-33833333Y452380D01*
X-33738095Y309523D01*
X-33690476Y119047D01*
X-33690476Y-261904D01*
X-33738095Y-357142D01*
X-33785714Y-404761D01*
X-33880952Y-452380D01*
X-34071428Y-452380D01*
X-34166666Y-404761D01*
X-34214285Y-357142D01*
X-34261904Y-261904D01*
X-34261904Y-23809D01*
X-34214285Y71428D01*
X-34166666Y119047D01*
X-34071428Y166666D01*
X-33880952Y166666D01*
X-33785714Y119047D01*
X-33738095Y71428D01*
X-33690476Y-23809D01*
X-32357142Y-2452380D02*
X-32023809Y-1976190D01*
X-31785714Y-2452380D02*
X-31785714Y-1452380D01*
X-32166666Y-1452380D01*
X-32261904Y-1500000D01*
X-32309523Y-1547619D01*
X-32357142Y-1642857D01*
X-32357142Y-1785714D01*
X-32309523Y-1880952D01*
X-32261904Y-1928571D01*
X-32166666Y-1976190D01*
X-31785714Y-1976190D01*
X-33214285Y-1785714D02*
X-33214285Y-2452380D01*
X-32976190Y-1404761D02*
X-32738095Y-2119047D01*
X-33357142Y-2119047D01*
X-34214285Y-1452380D02*
X-33738095Y-1452380D01*
X-33690476Y-1928571D01*
X-33738095Y-1880952D01*
X-33833333Y-1833333D01*
X-34071428Y-1833333D01*
X-34166666Y-1880952D01*
X-34214285Y-1928571D01*
X-34261904Y-2023809D01*
X-34261904Y-2261904D01*
X-34214285Y-2357142D01*
X-34166666Y-2404761D01*
X-34071428Y-2452380D01*
X-33833333Y-2452380D01*
X-33738095Y-2404761D01*
X-33690476Y-2357142D01*
X-32357142Y-4452380D02*
X-32023809Y-3976190D01*
X-31785714Y-4452380D02*
X-31785714Y-3452380D01*
X-32166666Y-3452380D01*
X-32261904Y-3500000D01*
X-32309523Y-3547619D01*
X-32357142Y-3642857D01*
X-32357142Y-3785714D01*
X-32309523Y-3880952D01*
X-32261904Y-3928571D01*
X-32166666Y-3976190D01*
X-31785714Y-3976190D01*
X-33214285Y-3785714D02*
X-33214285Y-4452380D01*
X-32976190Y-3404761D02*
X-32738095Y-4119047D01*
X-33357142Y-4119047D01*
X-34166666Y-3785714D02*
X-34166666Y-4452380D01*
X-33928571Y-3404761D02*
X-33690476Y-4119047D01*
X-34309523Y-4119047D01*
X-32357142Y-6452380D02*
X-32023809Y-5976190D01*
X-31785714Y-6452380D02*
X-31785714Y-5452380D01*
X-32166666Y-5452380D01*
X-32261904Y-5500000D01*
X-32309523Y-5547619D01*
X-32357142Y-5642857D01*
X-32357142Y-5785714D01*
X-32309523Y-5880952D01*
X-32261904Y-5928571D01*
X-32166666Y-5976190D01*
X-31785714Y-5976190D01*
X-33214285Y-5785714D02*
X-33214285Y-6452380D01*
X-32976190Y-5404761D02*
X-32738095Y-6119047D01*
X-33357142Y-6119047D01*
X-33642857Y-5452380D02*
X-34261904Y-5452380D01*
X-33928571Y-5833333D01*
X-34071428Y-5833333D01*
X-34166666Y-5880952D01*
X-34214285Y-5928571D01*
X-34261904Y-6023809D01*
X-34261904Y-6261904D01*
X-34214285Y-6357142D01*
X-34166666Y-6404761D01*
X-34071428Y-6452380D01*
X-33785714Y-6452380D01*
X-33690476Y-6404761D01*
X-33642857Y-6357142D01*
X-32357142Y-8452380D02*
X-32023809Y-7976190D01*
X-31785714Y-8452380D02*
X-31785714Y-7452380D01*
X-32166666Y-7452380D01*
X-32261904Y-7500000D01*
X-32309523Y-7547619D01*
X-32357142Y-7642857D01*
X-32357142Y-7785714D01*
X-32309523Y-7880952D01*
X-32261904Y-7928571D01*
X-32166666Y-7976190D01*
X-31785714Y-7976190D01*
X-33214285Y-7785714D02*
X-33214285Y-8452380D01*
X-32976190Y-7404761D02*
X-32738095Y-8119047D01*
X-33357142Y-8119047D01*
X-33690476Y-7547619D02*
X-33738095Y-7500000D01*
X-33833333Y-7452380D01*
X-34071428Y-7452380D01*
X-34166666Y-7500000D01*
X-34214285Y-7547619D01*
X-34261904Y-7642857D01*
X-34261904Y-7738095D01*
X-34214285Y-7880952D01*
X-33642857Y-8452380D01*
X-34261904Y-8452380D01*
X-32357142Y-10452380D02*
X-32023809Y-9976190D01*
X-31785714Y-10452380D02*
X-31785714Y-9452380D01*
X-32166666Y-9452380D01*
X-32261904Y-9500000D01*
X-32309523Y-9547619D01*
X-32357142Y-9642857D01*
X-32357142Y-9785714D01*
X-32309523Y-9880952D01*
X-32261904Y-9928571D01*
X-32166666Y-9976190D01*
X-31785714Y-9976190D01*
X-33214285Y-9785714D02*
X-33214285Y-10452380D01*
X-32976190Y-9404761D02*
X-32738095Y-10119047D01*
X-33357142Y-10119047D01*
X-34261904Y-10452380D02*
X-33690476Y-10452380D01*
X-33976190Y-10452380D02*
X-33976190Y-9452380D01*
X-33880952Y-9595238D01*
X-33785714Y-9690476D01*
X-33690476Y-9738095D01*
X-32357142Y-12452380D02*
X-32023809Y-11976190D01*
X-31785714Y-12452380D02*
X-31785714Y-11452380D01*
X-32166666Y-11452380D01*
X-32261904Y-11500000D01*
X-32309523Y-11547619D01*
X-32357142Y-11642857D01*
X-32357142Y-11785714D01*
X-32309523Y-11880952D01*
X-32261904Y-11928571D01*
X-32166666Y-11976190D01*
X-31785714Y-11976190D01*
X-33214285Y-11785714D02*
X-33214285Y-12452380D01*
X-32976190Y-11404761D02*
X-32738095Y-12119047D01*
X-33357142Y-12119047D01*
X-33928571Y-11452380D02*
X-34023809Y-11452380D01*
X-34119047Y-11500000D01*
X-34166666Y-11547619D01*
X-34214285Y-11642857D01*
X-34261904Y-11833333D01*
X-34261904Y-12071428D01*
X-34214285Y-12261904D01*
X-34166666Y-12357142D01*
X-34119047Y-12404761D01*
X-34023809Y-12452380D01*
X-33928571Y-12452380D01*
X-33833333Y-12404761D01*
X-33785714Y-12357142D01*
X-33738095Y-12261904D01*
X-33690476Y-12071428D01*
X-33690476Y-11833333D01*
X-33738095Y-11642857D01*
X-33785714Y-11547619D01*
X-33833333Y-11500000D01*
X-33928571Y-11452380D01*
X-32357142Y-14452380D02*
X-32023809Y-13976190D01*
X-31785714Y-14452380D02*
X-31785714Y-13452380D01*
X-32166666Y-13452380D01*
X-32261904Y-13500000D01*
X-32309523Y-13547619D01*
X-32357142Y-13642857D01*
X-32357142Y-13785714D01*
X-32309523Y-13880952D01*
X-32261904Y-13928571D01*
X-32166666Y-13976190D01*
X-31785714Y-13976190D01*
X-32690476Y-13452380D02*
X-33309523Y-13452380D01*
X-32976190Y-13833333D01*
X-33119047Y-13833333D01*
X-33214285Y-13880952D01*
X-33261904Y-13928571D01*
X-33309523Y-14023809D01*
X-33309523Y-14261904D01*
X-33261904Y-14357142D01*
X-33214285Y-14404761D01*
X-33119047Y-14452380D01*
X-32833333Y-14452380D01*
X-32738095Y-14404761D01*
X-32690476Y-14357142D01*
X-33785714Y-14452380D02*
X-33976190Y-14452380D01*
X-34071428Y-14404761D01*
X-34119047Y-14357142D01*
X-34214285Y-14214285D01*
X-34261904Y-14023809D01*
X-34261904Y-13642857D01*
X-34214285Y-13547619D01*
X-34166666Y-13500000D01*
X-34071428Y-13452380D01*
X-33880952Y-13452380D01*
X-33785714Y-13500000D01*
X-33738095Y-13547619D01*
X-33690476Y-13642857D01*
X-33690476Y-13880952D01*
X-33738095Y-13976190D01*
X-33785714Y-14023809D01*
X-33880952Y-14071428D01*
X-34071428Y-14071428D01*
X-34166666Y-14023809D01*
X-34214285Y-13976190D01*
X-34261904Y-13880952D01*
X-13547619Y-32357142D02*
X-14023809Y-32023809D01*
X-13547619Y-31785714D02*
X-14547619Y-31785714D01*
X-14547619Y-32166666D01*
X-14500000Y-32261904D01*
X-14452380Y-32309523D01*
X-14357142Y-32357142D01*
X-14214285Y-32357142D01*
X-14119047Y-32309523D01*
X-14071428Y-32261904D01*
X-14023809Y-32166666D01*
X-14023809Y-31785714D01*
X-14547619Y-32690476D02*
X-14547619Y-33309523D01*
X-14166666Y-32976190D01*
X-14166666Y-33119047D01*
X-14119047Y-33214285D01*
X-14071428Y-33261904D01*
X-13976190Y-33309523D01*
X-13738095Y-33309523D01*
X-13642857Y-33261904D01*
X-13595238Y-33214285D01*
X-13547619Y-33119047D01*
X-13547619Y-32833333D01*
X-13595238Y-32738095D01*
X-13642857Y-32690476D01*
X-14119047Y-33880952D02*
X-14166666Y-33785714D01*
X-14214285Y-33738095D01*
X-14309523Y-33690476D01*
X-14357142Y-33690476D01*
X-14452380Y-33738095D01*
X-14500000Y-33785714D01*
X-14547619Y-33880952D01*
X-14547619Y-34071428D01*
X-14500000Y-34166666D01*
X-14452380Y-34214285D01*
X-14357142Y-34261904D01*
X-14309523Y-34261904D01*
X-14214285Y-34214285D01*
X-14166666Y-34166666D01*
X-14119047Y-34071428D01*
X-14119047Y-33880952D01*
X-14071428Y-33785714D01*
X-14023809Y-33738095D01*
X-13928571Y-33690476D01*
X-13738095Y-33690476D01*
X-13642857Y-33738095D01*
X-13595238Y-33785714D01*
X-13547619Y-33880952D01*
X-13547619Y-34071428D01*
X-13595238Y-34166666D01*
X-13642857Y-34214285D01*
X-13738095Y-34261904D01*
X-13928571Y-34261904D01*
X-14023809Y-34214285D01*
X-14071428Y-34166666D01*
X-14119047Y-34071428D01*
X-11547619Y-32357142D02*
X-12023809Y-32023809D01*
X-11547619Y-31785714D02*
X-12547619Y-31785714D01*
X-12547619Y-32166666D01*
X-12500000Y-32261904D01*
X-12452380Y-32309523D01*
X-12357142Y-32357142D01*
X-12214285Y-32357142D01*
X-12119047Y-32309523D01*
X-12071428Y-32261904D01*
X-12023809Y-32166666D01*
X-12023809Y-31785714D01*
X-12547619Y-32690476D02*
X-12547619Y-33309523D01*
X-12166666Y-32976190D01*
X-12166666Y-33119047D01*
X-12119047Y-33214285D01*
X-12071428Y-33261904D01*
X-11976190Y-33309523D01*
X-11738095Y-33309523D01*
X-11642857Y-33261904D01*
X-11595238Y-33214285D01*
X-11547619Y-33119047D01*
X-11547619Y-32833333D01*
X-11595238Y-32738095D01*
X-11642857Y-32690476D01*
X-12547619Y-33642857D02*
X-12547619Y-34309523D01*
X-11547619Y-33880952D01*
X-9547619Y-32357142D02*
X-10023809Y-32023809D01*
X-9547619Y-31785714D02*
X-10547619Y-31785714D01*
X-10547619Y-32166666D01*
X-10500000Y-32261904D01*
X-10452380Y-32309523D01*
X-10357142Y-32357142D01*
X-10214285Y-32357142D01*
X-10119047Y-32309523D01*
X-10071428Y-32261904D01*
X-10023809Y-32166666D01*
X-10023809Y-31785714D01*
X-10547619Y-32690476D02*
X-10547619Y-33309523D01*
X-10166666Y-32976190D01*
X-10166666Y-33119047D01*
X-10119047Y-33214285D01*
X-10071428Y-33261904D01*
X-9976190Y-33309523D01*
X-9738095Y-33309523D01*
X-9642857Y-33261904D01*
X-9595238Y-33214285D01*
X-9547619Y-33119047D01*
X-9547619Y-32833333D01*
X-9595238Y-32738095D01*
X-9642857Y-32690476D01*
X-10547619Y-34166666D02*
X-10547619Y-33976190D01*
X-10500000Y-33880952D01*
X-10452380Y-33833333D01*
X-10309523Y-33738095D01*
X-10119047Y-33690476D01*
X-9738095Y-33690476D01*
X-9642857Y-33738095D01*
X-9595238Y-33785714D01*
X-9547619Y-33880952D01*
X-9547619Y-34071428D01*
X-9595238Y-34166666D01*
X-9642857Y-34214285D01*
X-9738095Y-34261904D01*
X-9976190Y-34261904D01*
X-10071428Y-34214285D01*
X-10119047Y-34166666D01*
X-10166666Y-34071428D01*
X-10166666Y-33880952D01*
X-10119047Y-33785714D01*
X-10071428Y-33738095D01*
X-9976190Y-33690476D01*
X-7547619Y-32357142D02*
X-8023809Y-32023809D01*
X-7547619Y-31785714D02*
X-8547619Y-31785714D01*
X-8547619Y-32166666D01*
X-8500000Y-32261904D01*
X-8452380Y-32309523D01*
X-8357142Y-32357142D01*
X-8214285Y-32357142D01*
X-8119047Y-32309523D01*
X-8071428Y-32261904D01*
X-8023809Y-32166666D01*
X-8023809Y-31785714D01*
X-8547619Y-32690476D02*
X-8547619Y-33309523D01*
X-8166666Y-32976190D01*
X-8166666Y-33119047D01*
X-8119047Y-33214285D01*
X-8071428Y-33261904D01*
X-7976190Y-33309523D01*
X-7738095Y-33309523D01*
X-7642857Y-33261904D01*
X-7595238Y-33214285D01*
X-7547619Y-33119047D01*
X-7547619Y-32833333D01*
X-7595238Y-32738095D01*
X-7642857Y-32690476D01*
X-8547619Y-34214285D02*
X-8547619Y-33738095D01*
X-8071428Y-33690476D01*
X-8119047Y-33738095D01*
X-8166666Y-33833333D01*
X-8166666Y-34071428D01*
X-8119047Y-34166666D01*
X-8071428Y-34214285D01*
X-7976190Y-34261904D01*
X-7738095Y-34261904D01*
X-7642857Y-34214285D01*
X-7595238Y-34166666D01*
X-7547619Y-34071428D01*
X-7547619Y-33833333D01*
X-7595238Y-33738095D01*
X-7642857Y-33690476D01*
X-5547619Y-32357142D02*
X-6023809Y-32023809D01*
X-5547619Y-31785714D02*
X-6547619Y-31785714D01*
X-6547619Y-32166666D01*
X-6500000Y-32261904D01*
X-6452380Y-32309523D01*
X-6357142Y-32357142D01*
X-6214285Y-32357142D01*
X-6119047Y-32309523D01*
X-6071428Y-32261904D01*
X-6023809Y-32166666D01*
X-6023809Y-31785714D01*
X-6547619Y-32690476D02*
X-6547619Y-33309523D01*
X-6166666Y-32976190D01*
X-6166666Y-33119047D01*
X-6119047Y-33214285D01*
X-6071428Y-33261904D01*
X-5976190Y-33309523D01*
X-5738095Y-33309523D01*
X-5642857Y-33261904D01*
X-5595238Y-33214285D01*
X-5547619Y-33119047D01*
X-5547619Y-32833333D01*
X-5595238Y-32738095D01*
X-5642857Y-32690476D01*
X-6214285Y-34166666D02*
X-5547619Y-34166666D01*
X-6595238Y-33928571D02*
X-5880952Y-33690476D01*
X-5880952Y-34309523D01*
X-3547619Y-32357142D02*
X-4023809Y-32023809D01*
X-3547619Y-31785714D02*
X-4547619Y-31785714D01*
X-4547619Y-32166666D01*
X-4500000Y-32261904D01*
X-4452380Y-32309523D01*
X-4357142Y-32357142D01*
X-4214285Y-32357142D01*
X-4119047Y-32309523D01*
X-4071428Y-32261904D01*
X-4023809Y-32166666D01*
X-4023809Y-31785714D01*
X-4547619Y-32690476D02*
X-4547619Y-33309523D01*
X-4166666Y-32976190D01*
X-4166666Y-33119047D01*
X-4119047Y-33214285D01*
X-4071428Y-33261904D01*
X-3976190Y-33309523D01*
X-3738095Y-33309523D01*
X-3642857Y-33261904D01*
X-3595238Y-33214285D01*
X-3547619Y-33119047D01*
X-3547619Y-32833333D01*
X-3595238Y-32738095D01*
X-3642857Y-32690476D01*
X-4547619Y-33642857D02*
X-4547619Y-34261904D01*
X-4166666Y-33928571D01*
X-4166666Y-34071428D01*
X-4119047Y-34166666D01*
X-4071428Y-34214285D01*
X-3976190Y-34261904D01*
X-3738095Y-34261904D01*
X-3642857Y-34214285D01*
X-3595238Y-34166666D01*
X-3547619Y-34071428D01*
X-3547619Y-33785714D01*
X-3595238Y-33690476D01*
X-3642857Y-33642857D01*
X-1547619Y-32357142D02*
X-2023809Y-32023809D01*
X-1547619Y-31785714D02*
X-2547619Y-31785714D01*
X-2547619Y-32166666D01*
X-2500000Y-32261904D01*
X-2452380Y-32309523D01*
X-2357142Y-32357142D01*
X-2214285Y-32357142D01*
X-2119047Y-32309523D01*
X-2071428Y-32261904D01*
X-2023809Y-32166666D01*
X-2023809Y-31785714D01*
X-2547619Y-32690476D02*
X-2547619Y-33309523D01*
X-2166666Y-32976190D01*
X-2166666Y-33119047D01*
X-2119047Y-33214285D01*
X-2071428Y-33261904D01*
X-1976190Y-33309523D01*
X-1738095Y-33309523D01*
X-1642857Y-33261904D01*
X-1595238Y-33214285D01*
X-1547619Y-33119047D01*
X-1547619Y-32833333D01*
X-1595238Y-32738095D01*
X-1642857Y-32690476D01*
X-2452380Y-33690476D02*
X-2500000Y-33738095D01*
X-2547619Y-33833333D01*
X-2547619Y-34071428D01*
X-2500000Y-34166666D01*
X-2452380Y-34214285D01*
X-2357142Y-34261904D01*
X-2261904Y-34261904D01*
X-2119047Y-34214285D01*
X-1547619Y-33642857D01*
X-1547619Y-34261904D01*
X452380Y-32357142D02*
X-23809Y-32023809D01*
X452380Y-31785714D02*
X-547619Y-31785714D01*
X-547619Y-32166666D01*
X-499999Y-32261904D01*
X-452380Y-32309523D01*
X-357142Y-32357142D01*
X-214285Y-32357142D01*
X-119047Y-32309523D01*
X-71428Y-32261904D01*
X-23809Y-32166666D01*
X-23809Y-31785714D01*
X-547619Y-32690476D02*
X-547619Y-33309523D01*
X-166666Y-32976190D01*
X-166666Y-33119047D01*
X-119047Y-33214285D01*
X-71428Y-33261904D01*
X23809Y-33309523D01*
X261904Y-33309523D01*
X357142Y-33261904D01*
X404761Y-33214285D01*
X452380Y-33119047D01*
X452380Y-32833333D01*
X404761Y-32738095D01*
X357142Y-32690476D01*
X452380Y-34261904D02*
X452380Y-33690476D01*
X452380Y-33976190D02*
X-547619Y-33976190D01*
X-404761Y-33880952D01*
X-309523Y-33785714D01*
X-261904Y-33690476D01*
X2452380Y-32357142D02*
X1976190Y-32023809D01*
X2452380Y-31785714D02*
X1452380Y-31785714D01*
X1452380Y-32166666D01*
X1500000Y-32261904D01*
X1547619Y-32309523D01*
X1642857Y-32357142D01*
X1785714Y-32357142D01*
X1880952Y-32309523D01*
X1928571Y-32261904D01*
X1976190Y-32166666D01*
X1976190Y-31785714D01*
X1452380Y-32690476D02*
X1452380Y-33309523D01*
X1833333Y-32976190D01*
X1833333Y-33119047D01*
X1880952Y-33214285D01*
X1928571Y-33261904D01*
X2023809Y-33309523D01*
X2261904Y-33309523D01*
X2357142Y-33261904D01*
X2404761Y-33214285D01*
X2452380Y-33119047D01*
X2452380Y-32833333D01*
X2404761Y-32738095D01*
X2357142Y-32690476D01*
X1452380Y-33928571D02*
X1452380Y-34023809D01*
X1500000Y-34119047D01*
X1547619Y-34166666D01*
X1642857Y-34214285D01*
X1833333Y-34261904D01*
X2071428Y-34261904D01*
X2261904Y-34214285D01*
X2357142Y-34166666D01*
X2404761Y-34119047D01*
X2452380Y-34023809D01*
X2452380Y-33928571D01*
X2404761Y-33833333D01*
X2357142Y-33785714D01*
X2261904Y-33738095D01*
X2071428Y-33690476D01*
X1833333Y-33690476D01*
X1642857Y-33738095D01*
X1547619Y-33785714D01*
X1500000Y-33833333D01*
X1452380Y-33928571D01*
X4452380Y-32357142D02*
X3976190Y-32023809D01*
X4452380Y-31785714D02*
X3452380Y-31785714D01*
X3452380Y-32166666D01*
X3500000Y-32261904D01*
X3547619Y-32309523D01*
X3642857Y-32357142D01*
X3785714Y-32357142D01*
X3880952Y-32309523D01*
X3928571Y-32261904D01*
X3976190Y-32166666D01*
X3976190Y-31785714D01*
X3547619Y-32738095D02*
X3500000Y-32785714D01*
X3452380Y-32880952D01*
X3452380Y-33119047D01*
X3500000Y-33214285D01*
X3547619Y-33261904D01*
X3642857Y-33309523D01*
X3738095Y-33309523D01*
X3880952Y-33261904D01*
X4452380Y-32690476D01*
X4452380Y-33309523D01*
X4452380Y-33785714D02*
X4452380Y-33976190D01*
X4404761Y-34071428D01*
X4357142Y-34119047D01*
X4214285Y-34214285D01*
X4023809Y-34261904D01*
X3642857Y-34261904D01*
X3547619Y-34214285D01*
X3500000Y-34166666D01*
X3452380Y-34071428D01*
X3452380Y-33880952D01*
X3500000Y-33785714D01*
X3547619Y-33738095D01*
X3642857Y-33690476D01*
X3880952Y-33690476D01*
X3976190Y-33738095D01*
X4023809Y-33785714D01*
X4071428Y-33880952D01*
X4071428Y-34071428D01*
X4023809Y-34166666D01*
X3976190Y-34214285D01*
X3880952Y-34261904D01*
X6452380Y-32357142D02*
X5976190Y-32023809D01*
X6452380Y-31785714D02*
X5452380Y-31785714D01*
X5452380Y-32166666D01*
X5500000Y-32261904D01*
X5547619Y-32309523D01*
X5642857Y-32357142D01*
X5785714Y-32357142D01*
X5880952Y-32309523D01*
X5928571Y-32261904D01*
X5976190Y-32166666D01*
X5976190Y-31785714D01*
X5547619Y-32738095D02*
X5500000Y-32785714D01*
X5452380Y-32880952D01*
X5452380Y-33119047D01*
X5500000Y-33214285D01*
X5547619Y-33261904D01*
X5642857Y-33309523D01*
X5738095Y-33309523D01*
X5880952Y-33261904D01*
X6452380Y-32690476D01*
X6452380Y-33309523D01*
X5880952Y-33880952D02*
X5833333Y-33785714D01*
X5785714Y-33738095D01*
X5690476Y-33690476D01*
X5642857Y-33690476D01*
X5547619Y-33738095D01*
X5500000Y-33785714D01*
X5452380Y-33880952D01*
X5452380Y-34071428D01*
X5500000Y-34166666D01*
X5547619Y-34214285D01*
X5642857Y-34261904D01*
X5690476Y-34261904D01*
X5785714Y-34214285D01*
X5833333Y-34166666D01*
X5880952Y-34071428D01*
X5880952Y-33880952D01*
X5928571Y-33785714D01*
X5976190Y-33738095D01*
X6071428Y-33690476D01*
X6261904Y-33690476D01*
X6357142Y-33738095D01*
X6404761Y-33785714D01*
X6452380Y-33880952D01*
X6452380Y-34071428D01*
X6404761Y-34166666D01*
X6357142Y-34214285D01*
X6261904Y-34261904D01*
X6071428Y-34261904D01*
X5976190Y-34214285D01*
X5928571Y-34166666D01*
X5880952Y-34071428D01*
X8452380Y-32357142D02*
X7976190Y-32023809D01*
X8452380Y-31785714D02*
X7452380Y-31785714D01*
X7452380Y-32166666D01*
X7500000Y-32261904D01*
X7547619Y-32309523D01*
X7642857Y-32357142D01*
X7785714Y-32357142D01*
X7880952Y-32309523D01*
X7928571Y-32261904D01*
X7976190Y-32166666D01*
X7976190Y-31785714D01*
X7547619Y-32738095D02*
X7500000Y-32785714D01*
X7452380Y-32880952D01*
X7452380Y-33119047D01*
X7500000Y-33214285D01*
X7547619Y-33261904D01*
X7642857Y-33309523D01*
X7738095Y-33309523D01*
X7880952Y-33261904D01*
X8452380Y-32690476D01*
X8452380Y-33309523D01*
X7452380Y-33642857D02*
X7452380Y-34309523D01*
X8452380Y-33880952D01*
X10452380Y-32357142D02*
X9976190Y-32023809D01*
X10452380Y-31785714D02*
X9452380Y-31785714D01*
X9452380Y-32166666D01*
X9500000Y-32261904D01*
X9547619Y-32309523D01*
X9642857Y-32357142D01*
X9785714Y-32357142D01*
X9880952Y-32309523D01*
X9928571Y-32261904D01*
X9976190Y-32166666D01*
X9976190Y-31785714D01*
X9547619Y-32738095D02*
X9500000Y-32785714D01*
X9452380Y-32880952D01*
X9452380Y-33119047D01*
X9500000Y-33214285D01*
X9547619Y-33261904D01*
X9642857Y-33309523D01*
X9738095Y-33309523D01*
X9880952Y-33261904D01*
X10452380Y-32690476D01*
X10452380Y-33309523D01*
X9452380Y-34166666D02*
X9452380Y-33976190D01*
X9500000Y-33880952D01*
X9547619Y-33833333D01*
X9690476Y-33738095D01*
X9880952Y-33690476D01*
X10261904Y-33690476D01*
X10357142Y-33738095D01*
X10404761Y-33785714D01*
X10452380Y-33880952D01*
X10452380Y-34071428D01*
X10404761Y-34166666D01*
X10357142Y-34214285D01*
X10261904Y-34261904D01*
X10023809Y-34261904D01*
X9928571Y-34214285D01*
X9880952Y-34166666D01*
X9833333Y-34071428D01*
X9833333Y-33880952D01*
X9880952Y-33785714D01*
X9928571Y-33738095D01*
X10023809Y-33690476D01*
X12452380Y-32357142D02*
X11976190Y-32023809D01*
X12452380Y-31785714D02*
X11452380Y-31785714D01*
X11452380Y-32166666D01*
X11500000Y-32261904D01*
X11547619Y-32309523D01*
X11642857Y-32357142D01*
X11785714Y-32357142D01*
X11880952Y-32309523D01*
X11928571Y-32261904D01*
X11976190Y-32166666D01*
X11976190Y-31785714D01*
X11547619Y-32738095D02*
X11500000Y-32785714D01*
X11452380Y-32880952D01*
X11452380Y-33119047D01*
X11500000Y-33214285D01*
X11547619Y-33261904D01*
X11642857Y-33309523D01*
X11738095Y-33309523D01*
X11880952Y-33261904D01*
X12452380Y-32690476D01*
X12452380Y-33309523D01*
X11452380Y-34214285D02*
X11452380Y-33738095D01*
X11928571Y-33690476D01*
X11880952Y-33738095D01*
X11833333Y-33833333D01*
X11833333Y-34071428D01*
X11880952Y-34166666D01*
X11928571Y-34214285D01*
X12023809Y-34261904D01*
X12261904Y-34261904D01*
X12357142Y-34214285D01*
X12404761Y-34166666D01*
X12452380Y-34071428D01*
X12452380Y-33833333D01*
X12404761Y-33738095D01*
X12357142Y-33690476D01*
X14452380Y-32357142D02*
X13976190Y-32023809D01*
X14452380Y-31785714D02*
X13452380Y-31785714D01*
X13452380Y-32166666D01*
X13500000Y-32261904D01*
X13547619Y-32309523D01*
X13642857Y-32357142D01*
X13785714Y-32357142D01*
X13880952Y-32309523D01*
X13928571Y-32261904D01*
X13976190Y-32166666D01*
X13976190Y-31785714D01*
X13547619Y-32738095D02*
X13500000Y-32785714D01*
X13452380Y-32880952D01*
X13452380Y-33119047D01*
X13500000Y-33214285D01*
X13547619Y-33261904D01*
X13642857Y-33309523D01*
X13738095Y-33309523D01*
X13880952Y-33261904D01*
X14452380Y-32690476D01*
X14452380Y-33309523D01*
X13785714Y-34166666D02*
X14452380Y-34166666D01*
X13404761Y-33928571D02*
X14119047Y-33690476D01*
X14119047Y-34309523D01*
X27642857Y-14452380D02*
X27976190Y-13976190D01*
X28214285Y-14452380D02*
X28214285Y-13452380D01*
X27833333Y-13452380D01*
X27738095Y-13500000D01*
X27690476Y-13547619D01*
X27642857Y-13642857D01*
X27642857Y-13785714D01*
X27690476Y-13880952D01*
X27738095Y-13928571D01*
X27833333Y-13976190D01*
X28214285Y-13976190D01*
X27261904Y-13547619D02*
X27214285Y-13500000D01*
X27119047Y-13452380D01*
X26880952Y-13452380D01*
X26785714Y-13500000D01*
X26738095Y-13547619D01*
X26690476Y-13642857D01*
X26690476Y-13738095D01*
X26738095Y-13880952D01*
X27309523Y-14452380D01*
X26690476Y-14452380D01*
X26357142Y-13452380D02*
X25738095Y-13452380D01*
X26071428Y-13833333D01*
X25928571Y-13833333D01*
X25833333Y-13880952D01*
X25785714Y-13928571D01*
X25738095Y-14023809D01*
X25738095Y-14261904D01*
X25785714Y-14357142D01*
X25833333Y-14404761D01*
X25928571Y-14452380D01*
X26214285Y-14452380D01*
X26309523Y-14404761D01*
X26357142Y-14357142D01*
X27642857Y-12452380D02*
X27976190Y-11976190D01*
X28214285Y-12452380D02*
X28214285Y-11452380D01*
X27833333Y-11452380D01*
X27738095Y-11500000D01*
X27690476Y-11547619D01*
X27642857Y-11642857D01*
X27642857Y-11785714D01*
X27690476Y-11880952D01*
X27738095Y-11928571D01*
X27833333Y-11976190D01*
X28214285Y-11976190D01*
X27261904Y-11547619D02*
X27214285Y-11500000D01*
X27119047Y-11452380D01*
X26880952Y-11452380D01*
X26785714Y-11500000D01*
X26738095Y-11547619D01*
X26690476Y-11642857D01*
X26690476Y-11738095D01*
X26738095Y-11880952D01*
X27309523Y-12452380D01*
X26690476Y-12452380D01*
X26309523Y-11547619D02*
X26261904Y-11500000D01*
X26166666Y-11452380D01*
X25928571Y-11452380D01*
X25833333Y-11500000D01*
X25785714Y-11547619D01*
X25738095Y-11642857D01*
X25738095Y-11738095D01*
X25785714Y-11880952D01*
X26357142Y-12452380D01*
X25738095Y-12452380D01*
X27642857Y-10452380D02*
X27976190Y-9976190D01*
X28214285Y-10452380D02*
X28214285Y-9452380D01*
X27833333Y-9452380D01*
X27738095Y-9500000D01*
X27690476Y-9547619D01*
X27642857Y-9642857D01*
X27642857Y-9785714D01*
X27690476Y-9880952D01*
X27738095Y-9928571D01*
X27833333Y-9976190D01*
X28214285Y-9976190D01*
X27261904Y-9547619D02*
X27214285Y-9500000D01*
X27119047Y-9452380D01*
X26880952Y-9452380D01*
X26785714Y-9500000D01*
X26738095Y-9547619D01*
X26690476Y-9642857D01*
X26690476Y-9738095D01*
X26738095Y-9880952D01*
X27309523Y-10452380D01*
X26690476Y-10452380D01*
X25738095Y-10452380D02*
X26309523Y-10452380D01*
X26023809Y-10452380D02*
X26023809Y-9452380D01*
X26119047Y-9595238D01*
X26214285Y-9690476D01*
X26309523Y-9738095D01*
X27642857Y-8452380D02*
X27976190Y-7976190D01*
X28214285Y-8452380D02*
X28214285Y-7452380D01*
X27833333Y-7452380D01*
X27738095Y-7500000D01*
X27690476Y-7547619D01*
X27642857Y-7642857D01*
X27642857Y-7785714D01*
X27690476Y-7880952D01*
X27738095Y-7928571D01*
X27833333Y-7976190D01*
X28214285Y-7976190D01*
X27261904Y-7547619D02*
X27214285Y-7500000D01*
X27119047Y-7452380D01*
X26880952Y-7452380D01*
X26785714Y-7500000D01*
X26738095Y-7547619D01*
X26690476Y-7642857D01*
X26690476Y-7738095D01*
X26738095Y-7880952D01*
X27309523Y-8452380D01*
X26690476Y-8452380D01*
X26071428Y-7452380D02*
X25976190Y-7452380D01*
X25880952Y-7500000D01*
X25833333Y-7547619D01*
X25785714Y-7642857D01*
X25738095Y-7833333D01*
X25738095Y-8071428D01*
X25785714Y-8261904D01*
X25833333Y-8357142D01*
X25880952Y-8404761D01*
X25976190Y-8452380D01*
X26071428Y-8452380D01*
X26166666Y-8404761D01*
X26214285Y-8357142D01*
X26261904Y-8261904D01*
X26309523Y-8071428D01*
X26309523Y-7833333D01*
X26261904Y-7642857D01*
X26214285Y-7547619D01*
X26166666Y-7500000D01*
X26071428Y-7452380D01*
X27642857Y-6452380D02*
X27976190Y-5976190D01*
X28214285Y-6452380D02*
X28214285Y-5452380D01*
X27833333Y-5452380D01*
X27738095Y-5500000D01*
X27690476Y-5547619D01*
X27642857Y-5642857D01*
X27642857Y-5785714D01*
X27690476Y-5880952D01*
X27738095Y-5928571D01*
X27833333Y-5976190D01*
X28214285Y-5976190D01*
X26690476Y-6452380D02*
X27261904Y-6452380D01*
X26976190Y-6452380D02*
X26976190Y-5452380D01*
X27071428Y-5595238D01*
X27166666Y-5690476D01*
X27261904Y-5738095D01*
X26214285Y-6452380D02*
X26023809Y-6452380D01*
X25928571Y-6404761D01*
X25880952Y-6357142D01*
X25785714Y-6214285D01*
X25738095Y-6023809D01*
X25738095Y-5642857D01*
X25785714Y-5547619D01*
X25833333Y-5500000D01*
X25928571Y-5452380D01*
X26119047Y-5452380D01*
X26214285Y-5500000D01*
X26261904Y-5547619D01*
X26309523Y-5642857D01*
X26309523Y-5880952D01*
X26261904Y-5976190D01*
X26214285Y-6023809D01*
X26119047Y-6071428D01*
X25928571Y-6071428D01*
X25833333Y-6023809D01*
X25785714Y-5976190D01*
X25738095Y-5880952D01*
X27642857Y-4452380D02*
X27976190Y-3976190D01*
X28214285Y-4452380D02*
X28214285Y-3452380D01*
X27833333Y-3452380D01*
X27738095Y-3500000D01*
X27690476Y-3547619D01*
X27642857Y-3642857D01*
X27642857Y-3785714D01*
X27690476Y-3880952D01*
X27738095Y-3928571D01*
X27833333Y-3976190D01*
X28214285Y-3976190D01*
X26690476Y-4452380D02*
X27261904Y-4452380D01*
X26976190Y-4452380D02*
X26976190Y-3452380D01*
X27071428Y-3595238D01*
X27166666Y-3690476D01*
X27261904Y-3738095D01*
X26119047Y-3880952D02*
X26214285Y-3833333D01*
X26261904Y-3785714D01*
X26309523Y-3690476D01*
X26309523Y-3642857D01*
X26261904Y-3547619D01*
X26214285Y-3500000D01*
X26119047Y-3452380D01*
X25928571Y-3452380D01*
X25833333Y-3500000D01*
X25785714Y-3547619D01*
X25738095Y-3642857D01*
X25738095Y-3690476D01*
X25785714Y-3785714D01*
X25833333Y-3833333D01*
X25928571Y-3880952D01*
X26119047Y-3880952D01*
X26214285Y-3928571D01*
X26261904Y-3976190D01*
X26309523Y-4071428D01*
X26309523Y-4261904D01*
X26261904Y-4357142D01*
X26214285Y-4404761D01*
X26119047Y-4452380D01*
X25928571Y-4452380D01*
X25833333Y-4404761D01*
X25785714Y-4357142D01*
X25738095Y-4261904D01*
X25738095Y-4071428D01*
X25785714Y-3976190D01*
X25833333Y-3928571D01*
X25928571Y-3880952D01*
X27642857Y-2452380D02*
X27976190Y-1976190D01*
X28214285Y-2452380D02*
X28214285Y-1452380D01*
X27833333Y-1452380D01*
X27738095Y-1500000D01*
X27690476Y-1547619D01*
X27642857Y-1642857D01*
X27642857Y-1785714D01*
X27690476Y-1880952D01*
X27738095Y-1928571D01*
X27833333Y-1976190D01*
X28214285Y-1976190D01*
X26690476Y-2452380D02*
X27261904Y-2452380D01*
X26976190Y-2452380D02*
X26976190Y-1452380D01*
X27071428Y-1595238D01*
X27166666Y-1690476D01*
X27261904Y-1738095D01*
X26357142Y-1452380D02*
X25690476Y-1452380D01*
X26119047Y-2452380D01*
X27642857Y-452380D02*
X27976190Y23809D01*
X28214285Y-452380D02*
X28214285Y547619D01*
X27833333Y547619D01*
X27738095Y500000D01*
X27690476Y452380D01*
X27642857Y357142D01*
X27642857Y214285D01*
X27690476Y119047D01*
X27738095Y71428D01*
X27833333Y23809D01*
X28214285Y23809D01*
X26690476Y-452380D02*
X27261904Y-452380D01*
X26976190Y-452380D02*
X26976190Y547619D01*
X27071428Y404761D01*
X27166666Y309523D01*
X27261904Y261904D01*
X25833333Y547619D02*
X26023809Y547619D01*
X26119047Y500000D01*
X26166666Y452380D01*
X26261904Y309523D01*
X26309523Y119047D01*
X26309523Y-261904D01*
X26261904Y-357142D01*
X26214285Y-404761D01*
X26119047Y-452380D01*
X25928571Y-452380D01*
X25833333Y-404761D01*
X25785714Y-357142D01*
X25738095Y-261904D01*
X25738095Y-23809D01*
X25785714Y71428D01*
X25833333Y119047D01*
X25928571Y166666D01*
X26119047Y166666D01*
X26214285Y119047D01*
X26261904Y71428D01*
X26309523Y-23809D01*
X27642857Y1547619D02*
X27976190Y2023809D01*
X28214285Y1547619D02*
X28214285Y2547619D01*
X27833333Y2547619D01*
X27738095Y2500000D01*
X27690476Y2452380D01*
X27642857Y2357142D01*
X27642857Y2214285D01*
X27690476Y2119047D01*
X27738095Y2071428D01*
X27833333Y2023809D01*
X28214285Y2023809D01*
X26690476Y1547619D02*
X27261904Y1547619D01*
X26976190Y1547619D02*
X26976190Y2547619D01*
X27071428Y2404761D01*
X27166666Y2309523D01*
X27261904Y2261904D01*
X25785714Y2547619D02*
X26261904Y2547619D01*
X26309523Y2071428D01*
X26261904Y2119047D01*
X26166666Y2166666D01*
X25928571Y2166666D01*
X25833333Y2119047D01*
X25785714Y2071428D01*
X25738095Y1976190D01*
X25738095Y1738095D01*
X25785714Y1642857D01*
X25833333Y1595238D01*
X25928571Y1547619D01*
X26166666Y1547619D01*
X26261904Y1595238D01*
X26309523Y1642857D01*
X27642857Y3547619D02*
X27976190Y4023809D01*
X28214285Y3547619D02*
X28214285Y4547619D01*
X27833333Y4547619D01*
X27738095Y4500000D01*
X27690476Y4452380D01*
X27642857Y4357142D01*
X27642857Y4214285D01*
X27690476Y4119047D01*
X27738095Y4071428D01*
X27833333Y4023809D01*
X28214285Y4023809D01*
X26690476Y3547619D02*
X27261904Y3547619D01*
X26976190Y3547619D02*
X26976190Y4547619D01*
X27071428Y4404761D01*
X27166666Y4309523D01*
X27261904Y4261904D01*
X25833333Y4214285D02*
X25833333Y3547619D01*
X26071428Y4595238D02*
X26309523Y3880952D01*
X25690476Y3880952D01*
X27642857Y5547619D02*
X27976190Y6023809D01*
X28214285Y5547619D02*
X28214285Y6547619D01*
X27833333Y6547619D01*
X27738095Y6500000D01*
X27690476Y6452380D01*
X27642857Y6357142D01*
X27642857Y6214285D01*
X27690476Y6119047D01*
X27738095Y6071428D01*
X27833333Y6023809D01*
X28214285Y6023809D01*
X26690476Y5547619D02*
X27261904Y5547619D01*
X26976190Y5547619D02*
X26976190Y6547619D01*
X27071428Y6404761D01*
X27166666Y6309523D01*
X27261904Y6261904D01*
X26357142Y6547619D02*
X25738095Y6547619D01*
X26071428Y6166666D01*
X25928571Y6166666D01*
X25833333Y6119047D01*
X25785714Y6071428D01*
X25738095Y5976190D01*
X25738095Y5738095D01*
X25785714Y5642857D01*
X25833333Y5595238D01*
X25928571Y5547619D01*
X26214285Y5547619D01*
X26309523Y5595238D01*
X26357142Y5642857D01*
X27642857Y7547619D02*
X27976190Y8023809D01*
X28214285Y7547619D02*
X28214285Y8547619D01*
X27833333Y8547619D01*
X27738095Y8500000D01*
X27690476Y8452380D01*
X27642857Y8357142D01*
X27642857Y8214285D01*
X27690476Y8119047D01*
X27738095Y8071428D01*
X27833333Y8023809D01*
X28214285Y8023809D01*
X26690476Y7547619D02*
X27261904Y7547619D01*
X26976190Y7547619D02*
X26976190Y8547619D01*
X27071428Y8404761D01*
X27166666Y8309523D01*
X27261904Y8261904D01*
X26309523Y8452380D02*
X26261904Y8500000D01*
X26166666Y8547619D01*
X25928571Y8547619D01*
X25833333Y8500000D01*
X25785714Y8452380D01*
X25738095Y8357142D01*
X25738095Y8261904D01*
X25785714Y8119047D01*
X26357142Y7547619D01*
X25738095Y7547619D01*
X27642857Y9547619D02*
X27976190Y10023809D01*
X28214285Y9547619D02*
X28214285Y10547619D01*
X27833333Y10547619D01*
X27738095Y10500000D01*
X27690476Y10452380D01*
X27642857Y10357142D01*
X27642857Y10214285D01*
X27690476Y10119047D01*
X27738095Y10071428D01*
X27833333Y10023809D01*
X28214285Y10023809D01*
X26690476Y9547619D02*
X27261904Y9547619D01*
X26976190Y9547619D02*
X26976190Y10547619D01*
X27071428Y10404761D01*
X27166666Y10309523D01*
X27261904Y10261904D01*
X25738095Y9547619D02*
X26309523Y9547619D01*
X26023809Y9547619D02*
X26023809Y10547619D01*
X26119047Y10404761D01*
X26214285Y10309523D01*
X26309523Y10261904D01*
X27642857Y11547619D02*
X27976190Y12023809D01*
X28214285Y11547619D02*
X28214285Y12547619D01*
X27833333Y12547619D01*
X27738095Y12500000D01*
X27690476Y12452380D01*
X27642857Y12357142D01*
X27642857Y12214285D01*
X27690476Y12119047D01*
X27738095Y12071428D01*
X27833333Y12023809D01*
X28214285Y12023809D01*
X26690476Y11547619D02*
X27261904Y11547619D01*
X26976190Y11547619D02*
X26976190Y12547619D01*
X27071428Y12404761D01*
X27166666Y12309523D01*
X27261904Y12261904D01*
X26071428Y12547619D02*
X25976190Y12547619D01*
X25880952Y12500000D01*
X25833333Y12452380D01*
X25785714Y12357142D01*
X25738095Y12166666D01*
X25738095Y11928571D01*
X25785714Y11738095D01*
X25833333Y11642857D01*
X25880952Y11595238D01*
X25976190Y11547619D01*
X26071428Y11547619D01*
X26166666Y11595238D01*
X26214285Y11642857D01*
X26261904Y11738095D01*
X26309523Y11928571D01*
X26309523Y12166666D01*
X26261904Y12357142D01*
X26214285Y12452380D01*
X26166666Y12500000D01*
X26071428Y12547619D01*
X27166666Y13547619D02*
X27500000Y14023809D01*
X27738095Y13547619D02*
X27738095Y14547619D01*
X27357142Y14547619D01*
X27261904Y14500000D01*
X27214285Y14452380D01*
X27166666Y14357142D01*
X27166666Y14214285D01*
X27214285Y14119047D01*
X27261904Y14071428D01*
X27357142Y14023809D01*
X27738095Y14023809D01*
X26690476Y13547619D02*
X26500000Y13547619D01*
X26404761Y13595238D01*
X26357142Y13642857D01*
X26261904Y13785714D01*
X26214285Y13976190D01*
X26214285Y14357142D01*
X26261904Y14452380D01*
X26309523Y14500000D01*
X26404761Y14547619D01*
X26595238Y14547619D01*
X26690476Y14500000D01*
X26738095Y14452380D01*
X26785714Y14357142D01*
X26785714Y14119047D01*
X26738095Y14023809D01*
X26690476Y13976190D01*
X26595238Y13928571D01*
X26404761Y13928571D01*
X26309523Y13976190D01*
X26261904Y14023809D01*
X26214285Y14119047D01*
X14452380Y27166666D02*
X13976190Y27500000D01*
X14452380Y27738095D02*
X13452380Y27738095D01*
X13452380Y27357142D01*
X13500000Y27261904D01*
X13547619Y27214285D01*
X13642857Y27166666D01*
X13785714Y27166666D01*
X13880952Y27214285D01*
X13928571Y27261904D01*
X13976190Y27357142D01*
X13976190Y27738095D01*
X13880952Y26595238D02*
X13833333Y26690476D01*
X13785714Y26738095D01*
X13690476Y26785714D01*
X13642857Y26785714D01*
X13547619Y26738095D01*
X13500000Y26690476D01*
X13452380Y26595238D01*
X13452380Y26404761D01*
X13500000Y26309523D01*
X13547619Y26261904D01*
X13642857Y26214285D01*
X13690476Y26214285D01*
X13785714Y26261904D01*
X13833333Y26309523D01*
X13880952Y26404761D01*
X13880952Y26595238D01*
X13928571Y26690476D01*
X13976190Y26738095D01*
X14071428Y26785714D01*
X14261904Y26785714D01*
X14357142Y26738095D01*
X14404761Y26690476D01*
X14452380Y26595238D01*
X14452380Y26404761D01*
X14404761Y26309523D01*
X14357142Y26261904D01*
X14261904Y26214285D01*
X14071428Y26214285D01*
X13976190Y26261904D01*
X13928571Y26309523D01*
X13880952Y26404761D01*
X12452380Y27166666D02*
X11976190Y27500000D01*
X12452380Y27738095D02*
X11452380Y27738095D01*
X11452380Y27357142D01*
X11500000Y27261904D01*
X11547619Y27214285D01*
X11642857Y27166666D01*
X11785714Y27166666D01*
X11880952Y27214285D01*
X11928571Y27261904D01*
X11976190Y27357142D01*
X11976190Y27738095D01*
X11452380Y26833333D02*
X11452380Y26166666D01*
X12452380Y26595238D01*
X10452380Y27166666D02*
X9976190Y27500000D01*
X10452380Y27738095D02*
X9452380Y27738095D01*
X9452380Y27357142D01*
X9500000Y27261904D01*
X9547619Y27214285D01*
X9642857Y27166666D01*
X9785714Y27166666D01*
X9880952Y27214285D01*
X9928571Y27261904D01*
X9976190Y27357142D01*
X9976190Y27738095D01*
X9452380Y26309523D02*
X9452380Y26500000D01*
X9500000Y26595238D01*
X9547619Y26642857D01*
X9690476Y26738095D01*
X9880952Y26785714D01*
X10261904Y26785714D01*
X10357142Y26738095D01*
X10404761Y26690476D01*
X10452380Y26595238D01*
X10452380Y26404761D01*
X10404761Y26309523D01*
X10357142Y26261904D01*
X10261904Y26214285D01*
X10023809Y26214285D01*
X9928571Y26261904D01*
X9880952Y26309523D01*
X9833333Y26404761D01*
X9833333Y26595238D01*
X9880952Y26690476D01*
X9928571Y26738095D01*
X10023809Y26785714D01*
X8452380Y27166666D02*
X7976190Y27500000D01*
X8452380Y27738095D02*
X7452380Y27738095D01*
X7452380Y27357142D01*
X7500000Y27261904D01*
X7547619Y27214285D01*
X7642857Y27166666D01*
X7785714Y27166666D01*
X7880952Y27214285D01*
X7928571Y27261904D01*
X7976190Y27357142D01*
X7976190Y27738095D01*
X7452380Y26261904D02*
X7452380Y26738095D01*
X7928571Y26785714D01*
X7880952Y26738095D01*
X7833333Y26642857D01*
X7833333Y26404761D01*
X7880952Y26309523D01*
X7928571Y26261904D01*
X8023809Y26214285D01*
X8261904Y26214285D01*
X8357142Y26261904D01*
X8404761Y26309523D01*
X8452380Y26404761D01*
X8452380Y26642857D01*
X8404761Y26738095D01*
X8357142Y26785714D01*
X6452380Y27166666D02*
X5976190Y27500000D01*
X6452380Y27738095D02*
X5452380Y27738095D01*
X5452380Y27357142D01*
X5500000Y27261904D01*
X5547619Y27214285D01*
X5642857Y27166666D01*
X5785714Y27166666D01*
X5880952Y27214285D01*
X5928571Y27261904D01*
X5976190Y27357142D01*
X5976190Y27738095D01*
X5785714Y26309523D02*
X6452380Y26309523D01*
X5404761Y26547619D02*
X6119047Y26785714D01*
X6119047Y26166666D01*
X4452380Y27291666D02*
X3976190Y27625000D01*
X4452380Y27863095D02*
X3452380Y27863095D01*
X3452380Y27482142D01*
X3500000Y27386904D01*
X3547619Y27339285D01*
X3642857Y27291666D01*
X3785714Y27291666D01*
X3880952Y27339285D01*
X3928571Y27386904D01*
X3976190Y27482142D01*
X3976190Y27863095D01*
X3452380Y26958333D02*
X3452380Y26339285D01*
X3833333Y26672619D01*
X3833333Y26529761D01*
X3880952Y26434523D01*
X3928571Y26386904D01*
X4023809Y26339285D01*
X4261904Y26339285D01*
X4357142Y26386904D01*
X4404761Y26434523D01*
X4452380Y26529761D01*
X4452380Y26815476D01*
X4404761Y26910714D01*
X4357142Y26958333D01*
X2452380Y27291666D02*
X1976190Y27625000D01*
X2452380Y27863095D02*
X1452380Y27863095D01*
X1452380Y27482142D01*
X1500000Y27386904D01*
X1547619Y27339285D01*
X1642857Y27291666D01*
X1785714Y27291666D01*
X1880952Y27339285D01*
X1928571Y27386904D01*
X1976190Y27482142D01*
X1976190Y27863095D01*
X1547619Y26910714D02*
X1500000Y26863095D01*
X1452380Y26767857D01*
X1452380Y26529761D01*
X1500000Y26434523D01*
X1547619Y26386904D01*
X1642857Y26339285D01*
X1738095Y26339285D01*
X1880952Y26386904D01*
X2452380Y26958333D01*
X2452380Y26339285D01*
X452380Y27291666D02*
X-23809Y27625000D01*
X452380Y27863095D02*
X-547619Y27863095D01*
X-547619Y27482142D01*
X-500000Y27386904D01*
X-452380Y27339285D01*
X-357142Y27291666D01*
X-214285Y27291666D01*
X-119047Y27339285D01*
X-71428Y27386904D01*
X-23809Y27482142D01*
X-23809Y27863095D01*
X452380Y26339285D02*
X452380Y26910714D01*
X452380Y26625000D02*
X-547619Y26625000D01*
X-404761Y26720238D01*
X-309523Y26815476D01*
X-261904Y26910714D01*
X333333Y-20452380D02*
X333333Y-21166666D01*
X380952Y-21309523D01*
X476190Y-21404761D01*
X619047Y-21452380D01*
X714285Y-21452380D01*
X-666666Y-21452380D02*
X-95238Y-21452380D01*
X-380952Y-21452380D02*
X-380952Y-20452380D01*
X-285714Y-20595238D01*
X-190476Y-20690476D01*
X-95238Y-20738095D01*
X3071428Y-10835595D02*
X3071428Y-11597500D01*
X3452380Y-11216547D02*
X2690476Y-11216547D01*
X2452380Y-12549880D02*
X2452380Y-12073690D01*
X2928571Y-12026071D01*
X2880952Y-12073690D01*
X2833333Y-12168928D01*
X2833333Y-12407023D01*
X2880952Y-12502261D01*
X2928571Y-12549880D01*
X3023809Y-12597500D01*
X3261904Y-12597500D01*
X3357142Y-12549880D01*
X3404761Y-12502261D01*
X3452380Y-12407023D01*
X3452380Y-12168928D01*
X3404761Y-12073690D01*
X3357142Y-12026071D01*
X2452380Y-12883214D02*
X3452380Y-13216547D01*
X2452380Y-13549880D01*
X-3500000Y-11859404D02*
X-3547619Y-11764166D01*
X-3547619Y-11621309D01*
X-3500000Y-11478452D01*
X-3404761Y-11383214D01*
X-3309523Y-11335595D01*
X-3119047Y-11287976D01*
X-2976190Y-11287976D01*
X-2785714Y-11335595D01*
X-2690476Y-11383214D01*
X-2595238Y-11478452D01*
X-2547619Y-11621309D01*
X-2547619Y-11716547D01*
X-2595238Y-11859404D01*
X-2642857Y-11907023D01*
X-2976190Y-11907023D01*
X-2976190Y-11716547D01*
X-2547619Y-12335595D02*
X-3547619Y-12335595D01*
X-2547619Y-12907023D01*
X-3547619Y-12907023D01*
X-2547619Y-13383214D02*
X-3547619Y-13383214D01*
X-3547619Y-13621309D01*
X-3500000Y-13764166D01*
X-3404761Y-13859404D01*
X-3309523Y-13907023D01*
X-3119047Y-13954642D01*
X-2976190Y-13954642D01*
X-2785714Y-13907023D01*
X-2690476Y-13859404D01*
X-2595238Y-13764166D01*
X-2547619Y-13621309D01*
X-2547619Y-13383214D01*
X-10071428Y-14666666D02*
X-10071428Y-14333333D01*
X-9547619Y-14333333D02*
X-10547619Y-14333333D01*
X-10547619Y-14809523D01*
X-9547619Y-15714285D02*
X-9547619Y-15142857D01*
X-9547619Y-15428571D02*
X-10547619Y-15428571D01*
X-10404761Y-15333333D01*
X-10309523Y-15238095D01*
X-10261904Y-15142857D01*
X-20642857Y-10333333D02*
X-20595238Y-10285714D01*
X-20547619Y-10142857D01*
X-20547619Y-10047619D01*
X-20595238Y-9904761D01*
X-20690476Y-9809523D01*
X-20785714Y-9761904D01*
X-20976190Y-9714285D01*
X-21119047Y-9714285D01*
X-21309523Y-9761904D01*
X-21404761Y-9809523D01*
X-21500000Y-9904761D01*
X-21547619Y-10047619D01*
X-21547619Y-10142857D01*
X-21500000Y-10285714D01*
X-21452380Y-10333333D01*
X-21547619Y-11190476D02*
X-21547619Y-11000000D01*
X-21500000Y-10904761D01*
X-21452380Y-10857142D01*
X-21309523Y-10761904D01*
X-21119047Y-10714285D01*
X-20738095Y-10714285D01*
X-20642857Y-10761904D01*
X-20595238Y-10809523D01*
X-20547619Y-10904761D01*
X-20547619Y-11095238D01*
X-20595238Y-11190476D01*
X-20642857Y-11238095D01*
X-20738095Y-11285714D01*
X-20976190Y-11285714D01*
X-21071428Y-11238095D01*
X-21119047Y-11190476D01*
X-21166666Y-11095238D01*
X-21166666Y-10904761D01*
X-21119047Y-10809523D01*
X-21071428Y-10761904D01*
X-20976190Y-10714285D01*
X-12542857Y10941666D02*
X-12495238Y10989285D01*
X-12447619Y11132142D01*
X-12447619Y11227380D01*
X-12495238Y11370238D01*
X-12590476Y11465476D01*
X-12685714Y11513095D01*
X-12876190Y11560714D01*
X-13019047Y11560714D01*
X-13209523Y11513095D01*
X-13304761Y11465476D01*
X-13400000Y11370238D01*
X-13447619Y11227380D01*
X-13447619Y11132142D01*
X-13400000Y10989285D01*
X-13352380Y10941666D01*
X-13447619Y10036904D02*
X-13447619Y10513095D01*
X-12971428Y10560714D01*
X-13019047Y10513095D01*
X-13066666Y10417857D01*
X-13066666Y10179761D01*
X-13019047Y10084523D01*
X-12971428Y10036904D01*
X-12876190Y9989285D01*
X-12638095Y9989285D01*
X-12542857Y10036904D01*
X-12495238Y10084523D01*
X-12447619Y10179761D01*
X-12447619Y10417857D01*
X-12495238Y10513095D01*
X-12542857Y10560714D01*
X-9033333Y-2527142D02*
X-8985714Y-2574761D01*
X-8842857Y-2622380D01*
X-8747619Y-2622380D01*
X-8604761Y-2574761D01*
X-8509523Y-2479523D01*
X-8461904Y-2384285D01*
X-8414285Y-2193809D01*
X-8414285Y-2050952D01*
X-8461904Y-1860476D01*
X-8509523Y-1765238D01*
X-8604761Y-1670000D01*
X-8747619Y-1622380D01*
X-8842857Y-1622380D01*
X-8985714Y-1670000D01*
X-9033333Y-1717619D01*
X-9890476Y-1955714D02*
X-9890476Y-2622380D01*
X-9652380Y-1574761D02*
X-9414285Y-2289047D01*
X-10033333Y-2289047D01*
X-8433333Y6012857D02*
X-8385714Y5965238D01*
X-8242857Y5917619D01*
X-8147619Y5917619D01*
X-8004761Y5965238D01*
X-7909523Y6060476D01*
X-7861904Y6155714D01*
X-7814285Y6346190D01*
X-7814285Y6489047D01*
X-7861904Y6679523D01*
X-7909523Y6774761D01*
X-8004761Y6870000D01*
X-8147619Y6917619D01*
X-8242857Y6917619D01*
X-8385714Y6870000D01*
X-8433333Y6822380D01*
X-8766666Y6917619D02*
X-9385714Y6917619D01*
X-9052380Y6536666D01*
X-9195238Y6536666D01*
X-9290476Y6489047D01*
X-9338095Y6441428D01*
X-9385714Y6346190D01*
X-9385714Y6108095D01*
X-9338095Y6012857D01*
X-9290476Y5965238D01*
X-9195238Y5917619D01*
X-8909523Y5917619D01*
X-8814285Y5965238D01*
X-8766666Y6012857D01*
X-16642857Y-10833333D02*
X-16595238Y-10785714D01*
X-16547619Y-10642857D01*
X-16547619Y-10547619D01*
X-16595238Y-10404761D01*
X-16690476Y-10309523D01*
X-16785714Y-10261904D01*
X-16976190Y-10214285D01*
X-17119047Y-10214285D01*
X-17309523Y-10261904D01*
X-17404761Y-10309523D01*
X-17500000Y-10404761D01*
X-17547619Y-10547619D01*
X-17547619Y-10642857D01*
X-17500000Y-10785714D01*
X-17452380Y-10833333D01*
X-17452380Y-11214285D02*
X-17500000Y-11261904D01*
X-17547619Y-11357142D01*
X-17547619Y-11595238D01*
X-17500000Y-11690476D01*
X-17452380Y-11738095D01*
X-17357142Y-11785714D01*
X-17261904Y-11785714D01*
X-17119047Y-11738095D01*
X-16547619Y-11166666D01*
X-16547619Y-11785714D01*
X-13642857Y-10833333D02*
X-13595238Y-10785714D01*
X-13547619Y-10642857D01*
X-13547619Y-10547619D01*
X-13595238Y-10404761D01*
X-13690476Y-10309523D01*
X-13785714Y-10261904D01*
X-13976190Y-10214285D01*
X-14119047Y-10214285D01*
X-14309523Y-10261904D01*
X-14404761Y-10309523D01*
X-14500000Y-10404761D01*
X-14547619Y-10547619D01*
X-14547619Y-10642857D01*
X-14500000Y-10785714D01*
X-14452380Y-10833333D01*
X-13547619Y-11785714D02*
X-13547619Y-11214285D01*
X-13547619Y-11500000D02*
X-14547619Y-11500000D01*
X-14404761Y-11404761D01*
X-14309523Y-11309523D01*
X-14261904Y-11214285D01*
M02*
