G04 #@! TF.GenerationSoftware,KiCad,Pcbnew,(5.1.5-0-10_14)*
G04 #@! TF.CreationDate,2021-02-01T23:30:03+09:00*
G04 #@! TF.ProjectId,LedClock,4c656443-6c6f-4636-9b2e-6b696361645f,1.1*
G04 #@! TF.SameCoordinates,Original*
G04 #@! TF.FileFunction,Copper,L1,Top*
G04 #@! TF.FilePolarity,Positive*
%FSLAX46Y46*%
G04 Gerber Fmt 4.6, Leading zero omitted, Abs format (unit mm)*
G04 Created by KiCad (PCBNEW (5.1.5-0-10_14)) date 2021-02-01 23:30:03*
%MOMM*%
%LPD*%
G04 APERTURE LIST*
%ADD10O,1.000000X1.000000*%
%ADD11R,1.000000X1.000000*%
%ADD12O,1.400000X1.900000*%
%ADD13C,1.200000*%
%ADD14C,1.700000*%
%ADD15C,1.900000*%
%ADD16R,1.100000X1.100000*%
%ADD17C,1.000000*%
%ADD18C,0.609600*%
%ADD19C,0.254000*%
G04 APERTURE END LIST*
D10*
X6020000Y8700000D03*
X7290000Y8700000D03*
X8560000Y8700000D03*
X9830000Y8700000D03*
D11*
X11100000Y8700000D03*
D12*
X3550000Y-17200000D03*
X-3550000Y-17200000D03*
D13*
X-4100000Y-5100000D03*
X4100000Y5100000D03*
D14*
X-3000000Y8050000D03*
X-1000000Y8050000D03*
X1000000Y8050000D03*
X3000000Y8050000D03*
D15*
X0Y-7500000D03*
X2500000Y-7500000D03*
X-2500000Y-7500000D03*
D16*
X0Y19250000D03*
X0Y20750000D03*
D17*
X-2422435Y29907280D03*
X-3814766Y29760940D03*
X-5559605Y29481960D03*
X-6929012Y29190883D03*
X-8621102Y28731469D03*
X-9952581Y28298845D03*
X-11576252Y27673292D03*
X-12855215Y27103861D03*
X-14404122Y26315000D03*
X-15616558Y25615000D03*
X-17083531Y24664273D03*
X-18216155Y23841373D03*
X-19563061Y22748926D03*
X-20603464Y21812144D03*
X-21841074Y20576939D03*
X-22777856Y19536536D03*
X-23865727Y18186469D03*
X-24688627Y17053845D03*
X-25635000Y15595878D03*
X-26335000Y14383442D03*
X-27126708Y12833748D03*
X-27696139Y11554785D03*
X-28318531Y9928898D03*
X-28751155Y8597419D03*
X-29198040Y6920395D03*
X-29489117Y5550988D03*
X-29762720Y3827565D03*
X-29909060Y2435234D03*
X-30000000Y700000D03*
X-30000000Y-700000D03*
X-29907280Y-2422435D03*
X-29760940Y-3814766D03*
X-29491960Y-5539605D03*
X-29200883Y-6909012D03*
X-28741469Y-8601102D03*
X-28308845Y-9932581D03*
X-27683292Y-11566252D03*
X-27113861Y-12845215D03*
X-26325000Y-14394122D03*
X-25625000Y-15606558D03*
X-24674273Y-17063531D03*
X-23851373Y-18196155D03*
X-22748926Y-19553061D03*
X-21812144Y-20593464D03*
X-20576939Y-21831074D03*
X-19536536Y-22767856D03*
X-18186469Y-23865727D03*
X-17053845Y-24688627D03*
X-15595878Y-25635000D03*
X-14383442Y-26335000D03*
X-12833748Y-27126708D03*
X-11554785Y-27696139D03*
X-9928898Y-28318531D03*
X-8597419Y-28751155D03*
X-6920395Y-29198040D03*
X-5550988Y-29489117D03*
X-3827565Y-29762720D03*
X-2435234Y-29909060D03*
X-700000Y-30000000D03*
X700000Y-30000000D03*
X2462435Y-29907280D03*
X3854766Y-29760940D03*
X5559605Y-29491960D03*
X6929012Y-29200883D03*
X8611102Y-28751469D03*
X9942581Y-28318845D03*
X11566252Y-27693292D03*
X12845215Y-27123861D03*
X14394122Y-26335000D03*
X15606558Y-25635000D03*
X17063531Y-24684273D03*
X18196155Y-23861373D03*
X19553061Y-22758926D03*
X20593464Y-21822144D03*
X21821074Y-20586939D03*
X22757856Y-19546536D03*
X23855727Y-18196469D03*
X24678627Y-17063845D03*
X25635000Y-15595878D03*
X26335000Y-14383442D03*
X27126708Y-12833748D03*
X27696139Y-11554785D03*
X28318531Y-9928898D03*
X28751155Y-8597419D03*
X29198040Y-6920395D03*
X29489117Y-5550988D03*
X29762720Y-3827565D03*
X29909060Y-2435234D03*
X30000000Y-700000D03*
X30000000Y700000D03*
X29907280Y2432435D03*
X29760940Y3824766D03*
X29491960Y5539605D03*
X29200883Y6909012D03*
X28751469Y8581102D03*
X28318845Y9912581D03*
X27693292Y11546252D03*
X27123861Y12825215D03*
X26335000Y14374122D03*
X25635000Y15586558D03*
X24674273Y17063531D03*
X23851373Y18196155D03*
X22758926Y19543061D03*
X21822144Y20583464D03*
X20586939Y21823174D03*
X19546536Y22759956D03*
X18196469Y23855727D03*
X17063845Y24678627D03*
X15605878Y25625000D03*
X14393442Y26325000D03*
X12843748Y27116708D03*
X11564785Y27686139D03*
X9948898Y28308531D03*
X8617419Y28741155D03*
X6940395Y29188040D03*
X5570988Y29479117D03*
X3847565Y29762720D03*
X2455234Y29909060D03*
X710000Y30000000D03*
X-690000Y30000000D03*
D18*
X-6990000Y9243900D03*
X-17673300Y-21141700D03*
X-13225000Y14550000D03*
X11459000Y-16781200D03*
X10615600Y18846200D03*
X-11257500Y16762700D03*
X-10583700Y-18218800D03*
X0Y25750000D03*
X1500000Y25750000D03*
X3000000Y25750000D03*
X4500000Y25750000D03*
X6000000Y25750000D03*
X7500000Y25750000D03*
X13000000Y24375000D03*
X12000000Y24375000D03*
X24375000Y12000000D03*
X24375000Y13000000D03*
X25750000Y7500000D03*
X25750000Y6000000D03*
X25750000Y4500000D03*
X25750000Y3000000D03*
X25750000Y1500000D03*
X25750000Y0D03*
X25750000Y-1500000D03*
X25750000Y-3000000D03*
X25750000Y-4500000D03*
X25750000Y-6000000D03*
X25750000Y-7500000D03*
X24375000Y-13000000D03*
X24375000Y-12000000D03*
X12000000Y-24375000D03*
X13000000Y-24375000D03*
X7500000Y-25750000D03*
X6000000Y-25750000D03*
X4500000Y-25750000D03*
X3000000Y-25750000D03*
X1500000Y-25750000D03*
X0Y-25750000D03*
X-1500000Y-25750000D03*
X-3000000Y-25750000D03*
X-4500000Y-25750000D03*
X-6000000Y-25750000D03*
X-7500000Y-25750000D03*
X-13000000Y-24375000D03*
X-12000000Y-24375000D03*
X-24375000Y-12000000D03*
X-24375000Y-13000000D03*
X-25750000Y-7500000D03*
X-25750000Y-6000000D03*
X-25750000Y-4500000D03*
X-25750000Y-3000000D03*
X-25750000Y-1500000D03*
X-25750000Y0D03*
X-25750000Y1500000D03*
X-25750000Y3000000D03*
X-25750000Y4500000D03*
X-25750000Y6000000D03*
X-25750000Y7500000D03*
X-24375000Y13000000D03*
X-24375000Y12000000D03*
X-12000000Y24375000D03*
X-13000000Y24375000D03*
X-7500000Y25750000D03*
X-6000000Y25750000D03*
X-4500000Y25750000D03*
X-3000000Y25750000D03*
X-1500000Y25750000D03*
X-18427400Y456500D03*
X-10269700Y-1874400D03*
X-16964200Y-3903800D03*
X9657700Y12144200D03*
X-11925000Y-10688800D03*
X-10014300Y12510900D03*
X-16470300Y-1562400D03*
X-11910900Y-9703400D03*
X12495400Y10231600D03*
X12575000Y-15064800D03*
X-15334800Y796400D03*
X-15170200Y-9664600D03*
X-17121300Y-2201100D03*
X-11525000Y-5416400D03*
X-13903500Y-320400D03*
X-8877000Y4358300D03*
X14710800Y21353800D03*
X6854000Y21610500D03*
X16514600Y22442600D03*
X11543600Y22442600D03*
X-14532000Y-19771500D03*
X-1715800Y-21574100D03*
X-19844000Y1933400D03*
D19*
X3000000Y9243900D02*
X-6990000Y9243900D01*
X3550000Y-17200000D02*
X2519500Y-17200000D01*
X0Y-14680500D02*
X-2519500Y-17200000D01*
X0Y-7500000D02*
X0Y-14680500D01*
X0Y-14680500D02*
X2519500Y-17200000D01*
X3000000Y9243900D02*
X3000000Y8050000D01*
X11100000Y8700000D02*
X9786800Y10013200D01*
X9786800Y10013200D02*
X3769300Y10013200D01*
X3769300Y10013200D02*
X3000000Y9243900D01*
X-4580500Y-17200000D02*
X-6247300Y-18866800D01*
X-6247300Y-18866800D02*
X-13821600Y-18866800D01*
X-13821600Y-18866800D02*
X-14009600Y-18678800D01*
X-14009600Y-18678800D02*
X-15210400Y-18678800D01*
X-15210400Y-18678800D02*
X-17673300Y-21141700D01*
X-3550000Y-17200000D02*
X-2519500Y-17200000D01*
X-3550000Y-17200000D02*
X-4580500Y-17200000D01*
X-13182400Y16762700D02*
X-13182400Y14592600D01*
X-13182400Y14592600D02*
X-13225000Y14550000D01*
X-13182400Y16762700D02*
X-11257500Y16762700D01*
X-21841100Y20893700D02*
X-17313400Y20893700D01*
X-17313400Y20893700D02*
X-13182400Y16762700D01*
X21821100Y-20903600D02*
X21079300Y-20161800D01*
X21079300Y-20161800D02*
X21079300Y-20161700D01*
X21079300Y-20161700D02*
X14839500Y-20161700D01*
X14839500Y-20161700D02*
X11459000Y-16781200D01*
X21821100Y-20903600D02*
X21821100Y-21823200D01*
X21821100Y-21823200D02*
X20885400Y-22758900D01*
X20885400Y-22758900D02*
X19553100Y-22758900D01*
X21821100Y-20586900D02*
X21821100Y-20903600D01*
X10615600Y18846200D02*
X17609900Y18846200D01*
X17609900Y18846200D02*
X20586900Y21823200D01*
X20586900Y21823200D02*
X21811100Y21823200D01*
X21811100Y21823200D02*
X22758900Y20875400D01*
X22758900Y20875400D02*
X22758900Y19543100D01*
X-21841100Y20893700D02*
X-21841100Y21803200D01*
X-21841100Y21803200D02*
X-20895400Y22748900D01*
X-20895400Y22748900D02*
X-19563100Y22748900D01*
X-21841100Y20576900D02*
X-21841100Y20893700D01*
X-10583700Y-18218800D02*
X-16964600Y-18218800D01*
X-16964600Y-18218800D02*
X-20576900Y-21831100D01*
X-20576900Y-21831100D02*
X-21803200Y-21831100D01*
X-21803200Y-21831100D02*
X-22748900Y-20885400D01*
X-22748900Y-20885400D02*
X-22748900Y-19553100D01*
X-2422400Y29907300D02*
X-1499500Y30830200D01*
X-1499500Y30830200D02*
X-120200Y30830200D01*
X-120200Y30830200D02*
X710000Y30000000D01*
X-5559600Y29482000D02*
X-4450400Y30591100D01*
X-4450400Y30591100D02*
X-3106300Y30591100D01*
X-3106300Y30591100D02*
X-2922400Y30407300D01*
X-2922400Y30407300D02*
X-2422400Y29907300D01*
X-8621100Y28731500D02*
X-7331500Y30021100D01*
X-7331500Y30021100D02*
X-6098700Y30021100D01*
X-6098700Y30021100D02*
X-5559600Y29482000D01*
X-11576300Y27673300D02*
X-11576300Y27903900D01*
X-11576300Y27903900D02*
X-10248700Y29231500D01*
X-10248700Y29231500D02*
X-9121100Y29231500D01*
X-9121100Y29231500D02*
X-8621100Y28731500D01*
X-14404100Y26315000D02*
X-14404100Y27022100D01*
X-14404100Y27022100D02*
X-13252900Y28173300D01*
X-13252900Y28173300D02*
X-12076300Y28173300D01*
X-12076300Y28173300D02*
X-11576300Y27673300D01*
X-17083500Y24664300D02*
X-17083500Y25371400D01*
X-17083500Y25371400D02*
X-15639900Y26815000D01*
X-15639900Y26815000D02*
X-14904100Y26815000D01*
X-14904100Y26815000D02*
X-14404100Y26315000D01*
X-19563100Y22748900D02*
X-19563100Y23723200D01*
X-19563100Y23723200D02*
X-18122000Y25164300D01*
X-18122000Y25164300D02*
X-17583500Y25164300D01*
X-17583500Y25164300D02*
X-17083500Y24664300D01*
X-23865700Y18186500D02*
X-23865700Y19677400D01*
X-23865700Y19677400D02*
X-22966200Y20576900D01*
X-22966200Y20576900D02*
X-21841100Y20576900D01*
X-25635000Y15595900D02*
X-25635000Y17336200D01*
X-25635000Y17336200D02*
X-24784700Y18186500D01*
X-24784700Y18186500D02*
X-23865700Y18186500D01*
X-27126700Y12833700D02*
X-27165200Y12872200D01*
X-27165200Y12872200D02*
X-27165200Y14772800D01*
X-27165200Y14772800D02*
X-26342100Y15595900D01*
X-26342100Y15595900D02*
X-25635000Y15595900D01*
X-28318500Y9928900D02*
X-28318500Y10636000D01*
X-28318500Y10636000D02*
X-28526300Y10843800D01*
X-28526300Y10843800D02*
X-28526300Y12141200D01*
X-28526300Y12141200D02*
X-27833800Y12833700D01*
X-27833800Y12833700D02*
X-27126700Y12833700D01*
X-29198000Y6920400D02*
X-29581400Y7303700D01*
X-29581400Y7303700D02*
X-29581400Y9373200D01*
X-29581400Y9373200D02*
X-29025600Y9928900D01*
X-29025600Y9928900D02*
X-28318500Y9928900D01*
X-29762700Y3827600D02*
X-30319300Y4384200D01*
X-30319300Y4384200D02*
X-30319300Y6506200D01*
X-30319300Y6506200D02*
X-29905100Y6920400D01*
X-29905100Y6920400D02*
X-29198000Y6920400D01*
X-30000000Y700000D02*
X-30739300Y1439300D01*
X-30739300Y1439300D02*
X-30739300Y2851000D01*
X-30739300Y2851000D02*
X-29762700Y3827600D01*
X-29907300Y-2422400D02*
X-30830200Y-1499500D01*
X-30830200Y-1499500D02*
X-30830200Y-130200D01*
X-30830200Y-130200D02*
X-30000000Y700000D01*
X-29492000Y-5539600D02*
X-30591100Y-4440400D01*
X-30591100Y-4440400D02*
X-30591100Y-3106300D01*
X-30591100Y-3106300D02*
X-30407300Y-2922400D01*
X-30407300Y-2922400D02*
X-29907300Y-2422400D01*
X-28741500Y-8601100D02*
X-30031100Y-7311500D01*
X-30031100Y-7311500D02*
X-30031100Y-6078700D01*
X-30031100Y-6078700D02*
X-29492000Y-5539600D01*
X-28741500Y-8601100D02*
X-29241500Y-9101100D01*
X-29241500Y-9101100D02*
X-29241500Y-10715200D01*
X-29241500Y-10715200D02*
X-28390400Y-11566300D01*
X-28390400Y-11566300D02*
X-27683300Y-11566300D01*
X-26325000Y-14394100D02*
X-26793700Y-14394100D01*
X-26793700Y-14394100D02*
X-28183300Y-13004500D01*
X-28183300Y-13004500D02*
X-28183300Y-12066300D01*
X-28183300Y-12066300D02*
X-27683300Y-11566300D01*
X-24674300Y-17063500D02*
X-25396700Y-17063500D01*
X-25396700Y-17063500D02*
X-26825000Y-15635300D01*
X-26825000Y-15635300D02*
X-26825000Y-14894100D01*
X-26825000Y-14894100D02*
X-26325000Y-14394100D01*
X-24674300Y-17063500D02*
X-25174300Y-17563500D01*
X-25174300Y-17563500D02*
X-25174300Y-18102000D01*
X-25174300Y-18102000D02*
X-23723200Y-19553100D01*
X-23723200Y-19553100D02*
X-22748900Y-19553100D01*
X-18186500Y-23865700D02*
X-19667400Y-23865700D01*
X-19667400Y-23865700D02*
X-20576900Y-22956200D01*
X-20576900Y-22956200D02*
X-20576900Y-21831100D01*
X-15595900Y-25635000D02*
X-17336200Y-25635000D01*
X-17336200Y-25635000D02*
X-18186500Y-24784700D01*
X-18186500Y-24784700D02*
X-18186500Y-23865700D01*
X-12833700Y-27126700D02*
X-13540900Y-27126700D01*
X-13540900Y-27126700D02*
X-13579300Y-27165200D01*
X-13579300Y-27165200D02*
X-14772800Y-27165200D01*
X-14772800Y-27165200D02*
X-15595900Y-26342100D01*
X-15595900Y-26342100D02*
X-15595900Y-25635000D01*
X-9928900Y-28318500D02*
X-10428900Y-28818500D01*
X-10428900Y-28818500D02*
X-11849000Y-28818500D01*
X-11849000Y-28818500D02*
X-12833700Y-27833800D01*
X-12833700Y-27833800D02*
X-12833700Y-27126700D01*
X-6920400Y-29198000D02*
X-7420400Y-29698000D01*
X-7420400Y-29698000D02*
X-9256500Y-29698000D01*
X-9256500Y-29698000D02*
X-9928900Y-29025600D01*
X-9928900Y-29025600D02*
X-9928900Y-28318500D01*
X-3827600Y-29762700D02*
X-4384200Y-30319300D01*
X-4384200Y-30319300D02*
X-6506200Y-30319300D01*
X-6506200Y-30319300D02*
X-6920400Y-29905100D01*
X-6920400Y-29905100D02*
X-6920400Y-29198000D01*
X-700000Y-30000000D02*
X-1439300Y-30739300D01*
X-1439300Y-30739300D02*
X-2851000Y-30739300D01*
X-2851000Y-30739300D02*
X-3827600Y-29762700D01*
X2462400Y-29907300D02*
X1539500Y-30830200D01*
X1539500Y-30830200D02*
X130200Y-30830200D01*
X130200Y-30830200D02*
X-700000Y-30000000D01*
X5559600Y-29492000D02*
X4460400Y-30591100D01*
X4460400Y-30591100D02*
X3146300Y-30591100D01*
X3146300Y-30591100D02*
X2962400Y-30407300D01*
X2962400Y-30407300D02*
X2462400Y-29907300D01*
X8611100Y-28751500D02*
X7331500Y-30031100D01*
X7331500Y-30031100D02*
X6098700Y-30031100D01*
X6098700Y-30031100D02*
X5559600Y-29492000D01*
X11566300Y-27693300D02*
X11566300Y-28400400D01*
X11566300Y-28400400D02*
X10715200Y-29251500D01*
X10715200Y-29251500D02*
X9111100Y-29251500D01*
X9111100Y-29251500D02*
X8611100Y-28751500D01*
X14394100Y-26335000D02*
X14394100Y-27042100D01*
X14394100Y-27042100D02*
X13242900Y-28193300D01*
X13242900Y-28193300D02*
X12066300Y-28193300D01*
X12066300Y-28193300D02*
X11566300Y-27693300D01*
X17063500Y-24684300D02*
X17063500Y-25406700D01*
X17063500Y-25406700D02*
X15635300Y-26835000D01*
X15635300Y-26835000D02*
X14894100Y-26835000D01*
X14894100Y-26835000D02*
X14394100Y-26335000D01*
X19553100Y-22758900D02*
X19553100Y-23733200D01*
X19553100Y-23733200D02*
X18102000Y-25184300D01*
X18102000Y-25184300D02*
X17563500Y-25184300D01*
X17563500Y-25184300D02*
X17063500Y-24684300D01*
X23855700Y-18196500D02*
X23855700Y-19677400D01*
X23855700Y-19677400D02*
X22946200Y-20586900D01*
X22946200Y-20586900D02*
X21821100Y-20586900D01*
X25635000Y-15595900D02*
X25635000Y-17336200D01*
X25635000Y-17336200D02*
X24774700Y-18196500D01*
X24774700Y-18196500D02*
X23855700Y-18196500D01*
X25635000Y-15595900D02*
X26351300Y-15595900D01*
X26351300Y-15595900D02*
X27626700Y-14320400D01*
X27626700Y-14320400D02*
X27626700Y-13333700D01*
X27626700Y-13333700D02*
X27126700Y-12833700D01*
X28318500Y-9928900D02*
X28818500Y-10428900D01*
X28818500Y-10428900D02*
X28818500Y-11849000D01*
X28818500Y-11849000D02*
X27833800Y-12833700D01*
X27833800Y-12833700D02*
X27126700Y-12833700D01*
X29198000Y-6920400D02*
X29581400Y-7303700D01*
X29581400Y-7303700D02*
X29581400Y-9373200D01*
X29581400Y-9373200D02*
X29025600Y-9928900D01*
X29025600Y-9928900D02*
X28318500Y-9928900D01*
X29762700Y-3827600D02*
X30319300Y-4384200D01*
X30319300Y-4384200D02*
X30319300Y-6506200D01*
X30319300Y-6506200D02*
X29905100Y-6920400D01*
X29905100Y-6920400D02*
X29198000Y-6920400D01*
X30000000Y-700000D02*
X30739300Y-1439300D01*
X30739300Y-1439300D02*
X30739300Y-2851000D01*
X30739300Y-2851000D02*
X29762700Y-3827600D01*
X29907300Y2432400D02*
X30830200Y1509500D01*
X30830200Y1509500D02*
X30830200Y130200D01*
X30830200Y130200D02*
X30000000Y-700000D01*
X29492000Y5539600D02*
X30591100Y4440400D01*
X30591100Y4440400D02*
X30591100Y3116300D01*
X30591100Y3116300D02*
X30407300Y2932400D01*
X30407300Y2932400D02*
X29907300Y2432400D01*
X28751500Y8581100D02*
X30031100Y7301500D01*
X30031100Y7301500D02*
X30031100Y6078700D01*
X30031100Y6078700D02*
X29492000Y5539600D01*
X27693300Y11546300D02*
X28400400Y11546300D01*
X28400400Y11546300D02*
X29251500Y10695200D01*
X29251500Y10695200D02*
X29251500Y9081100D01*
X29251500Y9081100D02*
X28751500Y8581100D01*
X26335000Y14374100D02*
X27042100Y14374100D01*
X27042100Y14374100D02*
X28193300Y13222900D01*
X28193300Y13222900D02*
X28193300Y12046300D01*
X28193300Y12046300D02*
X27693300Y11546300D01*
X24674300Y17063500D02*
X25386700Y17063500D01*
X25386700Y17063500D02*
X26835000Y15615300D01*
X26835000Y15615300D02*
X26835000Y14874100D01*
X26835000Y14874100D02*
X26335000Y14374100D01*
X22758900Y19543100D02*
X23733200Y19543100D01*
X23733200Y19543100D02*
X25174300Y18102000D01*
X25174300Y18102000D02*
X25174300Y17563500D01*
X25174300Y17563500D02*
X24674300Y17063500D01*
X18196500Y23855700D02*
X19679500Y23855700D01*
X19679500Y23855700D02*
X20586900Y22948300D01*
X20586900Y22948300D02*
X20586900Y21823200D01*
X15605900Y25625000D02*
X17346200Y25625000D01*
X17346200Y25625000D02*
X18196500Y24774700D01*
X18196500Y24774700D02*
X18196500Y23855700D01*
X12843700Y27116700D02*
X13343700Y27616700D01*
X13343700Y27616700D02*
X14321300Y27616700D01*
X14321300Y27616700D02*
X15605900Y26332100D01*
X15605900Y26332100D02*
X15605900Y25625000D01*
X9948900Y28308500D02*
X10448900Y28808500D01*
X10448900Y28808500D02*
X11859000Y28808500D01*
X11859000Y28808500D02*
X12843700Y27823800D01*
X12843700Y27823800D02*
X12843700Y27116700D01*
X6940400Y29188000D02*
X7323700Y29571400D01*
X7323700Y29571400D02*
X9393200Y29571400D01*
X9393200Y29571400D02*
X9948900Y29015600D01*
X9948900Y29015600D02*
X9948900Y28308500D01*
X3847600Y29762700D02*
X4394200Y30309300D01*
X4394200Y30309300D02*
X6526200Y30309300D01*
X6526200Y30309300D02*
X6940400Y29895100D01*
X6940400Y29895100D02*
X6940400Y29188000D01*
X710000Y30000000D02*
X1449300Y30739300D01*
X1449300Y30739300D02*
X2871000Y30739300D01*
X2871000Y30739300D02*
X3847600Y29762700D01*
X0Y25750000D02*
X0Y29310000D01*
X0Y29310000D02*
X-690000Y30000000D01*
X1500000Y25750000D02*
X1500000Y28953800D01*
X1500000Y28953800D02*
X2455200Y29909100D01*
X3000000Y25750000D02*
X3000000Y26908100D01*
X3000000Y26908100D02*
X5571000Y29479100D01*
X4500000Y25750000D02*
X6991200Y28241200D01*
X6991200Y28241200D02*
X8117400Y28241200D01*
X8117400Y28241200D02*
X8617400Y28741200D01*
X6000000Y25750000D02*
X7436100Y27186100D01*
X7436100Y27186100D02*
X11064800Y27186100D01*
X11064800Y27186100D02*
X11564800Y27686100D01*
X7500000Y25750000D02*
X13818400Y25750000D01*
X13818400Y25750000D02*
X14393400Y26325000D01*
X13000000Y24375000D02*
X16760200Y24375000D01*
X16760200Y24375000D02*
X17063800Y24678600D01*
X12000000Y24375000D02*
X12931600Y23443400D01*
X12931600Y23443400D02*
X16754900Y23443400D01*
X16754900Y23443400D02*
X17438300Y22760000D01*
X17438300Y22760000D02*
X19546500Y22760000D01*
X24375000Y12000000D02*
X21822100Y14552900D01*
X21822100Y14552900D02*
X21822100Y20583500D01*
X23851400Y18196200D02*
X23844100Y18188900D01*
X23844100Y18188900D02*
X23844100Y13530900D01*
X23844100Y13530900D02*
X24375000Y13000000D01*
X25750000Y7500000D02*
X25135000Y8115000D01*
X25135000Y8115000D02*
X25135000Y15086600D01*
X25135000Y15086600D02*
X25635000Y15586600D01*
X25750000Y6000000D02*
X26623900Y6873900D01*
X26623900Y6873900D02*
X26623900Y12325200D01*
X26623900Y12325200D02*
X27123900Y12825200D01*
X25750000Y4500000D02*
X27818800Y6568900D01*
X27818800Y6568900D02*
X27818800Y9412600D01*
X27818800Y9412600D02*
X28318800Y9912600D01*
X25750000Y3000000D02*
X25750000Y3458100D01*
X25750000Y3458100D02*
X29200900Y6909000D01*
X25750000Y1500000D02*
X27436200Y1500000D01*
X27436200Y1500000D02*
X29760900Y3824800D01*
X25750000Y0D02*
X29300000Y0D01*
X29300000Y0D02*
X30000000Y700000D01*
X25750000Y-1500000D02*
X28973800Y-1500000D01*
X28973800Y-1500000D02*
X29909100Y-2435200D01*
X25750000Y-3000000D02*
X26938100Y-3000000D01*
X26938100Y-3000000D02*
X29489100Y-5551000D01*
X25750000Y-4500000D02*
X28251200Y-7001200D01*
X28251200Y-7001200D02*
X28251200Y-8097400D01*
X28251200Y-8097400D02*
X28751200Y-8597400D01*
X25750000Y-6000000D02*
X26385000Y-6635000D01*
X26385000Y-6635000D02*
X26385000Y-10243600D01*
X26385000Y-10243600D02*
X27196100Y-11054800D01*
X27196100Y-11054800D02*
X27696100Y-11554800D01*
X25750000Y-7500000D02*
X25750000Y-13798400D01*
X25750000Y-13798400D02*
X26335000Y-14383400D01*
X24375000Y-13000000D02*
X24375000Y-16760200D01*
X24375000Y-16760200D02*
X24678600Y-17063800D01*
X24375000Y-12000000D02*
X22757900Y-13617100D01*
X22757900Y-13617100D02*
X22757900Y-19546500D01*
X12000000Y-24375000D02*
X14552900Y-21822100D01*
X14552900Y-21822100D02*
X20593500Y-21822100D01*
X18196200Y-23861400D02*
X18188900Y-23854100D01*
X18188900Y-23854100D02*
X13520900Y-23854100D01*
X13520900Y-23854100D02*
X13000000Y-24375000D01*
X7500000Y-25750000D02*
X8115000Y-25135000D01*
X8115000Y-25135000D02*
X15106600Y-25135000D01*
X15106600Y-25135000D02*
X15606600Y-25635000D01*
X6000000Y-25750000D02*
X6873900Y-26623900D01*
X6873900Y-26623900D02*
X12345200Y-26623900D01*
X12345200Y-26623900D02*
X12845200Y-27123900D01*
X4500000Y-25750000D02*
X6568900Y-27818800D01*
X6568900Y-27818800D02*
X9442600Y-27818800D01*
X9442600Y-27818800D02*
X9942600Y-28318800D01*
X3000000Y-25750000D02*
X3478100Y-25750000D01*
X3478100Y-25750000D02*
X6929000Y-29200900D01*
X1500000Y-25750000D02*
X1500000Y-27406200D01*
X1500000Y-27406200D02*
X3854800Y-29760900D01*
X0Y-25750000D02*
X0Y-29300000D01*
X0Y-29300000D02*
X700000Y-30000000D01*
X-1500000Y-25750000D02*
X-1500000Y-28973800D01*
X-1500000Y-28973800D02*
X-2435200Y-29909100D01*
X-3000000Y-25750000D02*
X-3000000Y-26938100D01*
X-3000000Y-26938100D02*
X-5551000Y-29489100D01*
X-4500000Y-25750000D02*
X-7001200Y-28251200D01*
X-7001200Y-28251200D02*
X-8097400Y-28251200D01*
X-8097400Y-28251200D02*
X-8597400Y-28751200D01*
X-6000000Y-25750000D02*
X-6635000Y-26385000D01*
X-6635000Y-26385000D02*
X-10243600Y-26385000D01*
X-10243600Y-26385000D02*
X-11054800Y-27196100D01*
X-11054800Y-27196100D02*
X-11554800Y-27696100D01*
X-7500000Y-25750000D02*
X-13798400Y-25750000D01*
X-13798400Y-25750000D02*
X-14383400Y-26335000D01*
X-13000000Y-24375000D02*
X-13313600Y-24688600D01*
X-13313600Y-24688600D02*
X-17053800Y-24688600D01*
X-19536500Y-22767900D02*
X-13607100Y-22767900D01*
X-13607100Y-22767900D02*
X-12000000Y-24375000D01*
X-24375000Y-12000000D02*
X-21812100Y-14562900D01*
X-21812100Y-14562900D02*
X-21812100Y-20593500D01*
X-23851400Y-18196200D02*
X-23844100Y-18188900D01*
X-23844100Y-18188900D02*
X-23844100Y-13530900D01*
X-23844100Y-13530900D02*
X-24375000Y-13000000D01*
X-25750000Y-7500000D02*
X-25125000Y-8125000D01*
X-25125000Y-8125000D02*
X-25125000Y-15106600D01*
X-25125000Y-15106600D02*
X-25625000Y-15606600D01*
X-25750000Y-6000000D02*
X-26613900Y-6863900D01*
X-26613900Y-6863900D02*
X-26613900Y-12345200D01*
X-26613900Y-12345200D02*
X-27113900Y-12845200D01*
X-25750000Y-4500000D02*
X-27808800Y-6558800D01*
X-27808800Y-6558800D02*
X-27808800Y-9432600D01*
X-27808800Y-9432600D02*
X-28308800Y-9932600D01*
X-25750000Y-3000000D02*
X-25750000Y-3458100D01*
X-25750000Y-3458100D02*
X-29200900Y-6909000D01*
X-25750000Y-1500000D02*
X-27446200Y-1500000D01*
X-27446200Y-1500000D02*
X-29760900Y-3814800D01*
X-25750000Y0D02*
X-29300000Y0D01*
X-29300000Y0D02*
X-30000000Y-700000D01*
X-25750000Y1500000D02*
X-28973800Y1500000D01*
X-28973800Y1500000D02*
X-29909100Y2435200D01*
X-25750000Y3000000D02*
X-26938100Y3000000D01*
X-26938100Y3000000D02*
X-29489100Y5551000D01*
X-25750000Y4500000D02*
X-28251200Y7001200D01*
X-28251200Y7001200D02*
X-28251200Y8097400D01*
X-28251200Y8097400D02*
X-28751200Y8597400D01*
X-25750000Y6000000D02*
X-26385000Y6635000D01*
X-26385000Y6635000D02*
X-26385000Y10243600D01*
X-26385000Y10243600D02*
X-27196100Y11054800D01*
X-27196100Y11054800D02*
X-27696100Y11554800D01*
X-25750000Y7500000D02*
X-25750000Y13798400D01*
X-25750000Y13798400D02*
X-26335000Y14383400D01*
X-24375000Y13000000D02*
X-24375000Y16740200D01*
X-24375000Y16740200D02*
X-24688600Y17053800D01*
X-24375000Y12000000D02*
X-22777900Y13597100D01*
X-22777900Y13597100D02*
X-22777900Y19536500D01*
X-12000000Y24375000D02*
X-14562900Y21812100D01*
X-14562900Y21812100D02*
X-20603500Y21812100D01*
X-18216200Y23841400D02*
X-17509000Y23841400D01*
X-17509000Y23841400D02*
X-17501700Y23834100D01*
X-17501700Y23834100D02*
X-13540900Y23834100D01*
X-13540900Y23834100D02*
X-13000000Y24375000D01*
X-7500000Y25750000D02*
X-8135000Y25115000D01*
X-8135000Y25115000D02*
X-15116600Y25115000D01*
X-15116600Y25115000D02*
X-15616600Y25615000D01*
X-6000000Y25750000D02*
X-6853900Y26603900D01*
X-6853900Y26603900D02*
X-12355200Y26603900D01*
X-12355200Y26603900D02*
X-12855200Y27103900D01*
X-4500000Y25750000D02*
X-6548800Y27798800D01*
X-6548800Y27798800D02*
X-9452600Y27798800D01*
X-9452600Y27798800D02*
X-9952600Y28298800D01*
X-3000000Y25750000D02*
X-3488100Y25750000D01*
X-3488100Y25750000D02*
X-6929000Y29190900D01*
X-1500000Y25750000D02*
X-1500000Y27446200D01*
X-1500000Y27446200D02*
X-3814800Y29760900D01*
X6020000Y8700000D02*
X5189500Y8700000D01*
X-18427400Y456500D02*
X-12518300Y6365600D01*
X-12518300Y6365600D02*
X3685600Y6365600D01*
X3685600Y6365600D02*
X5189500Y7869500D01*
X5189500Y7869500D02*
X5189500Y8700000D01*
X-10269700Y-1874400D02*
X-8263100Y-3881000D01*
X-8263100Y-3881000D02*
X1549600Y-3881000D01*
X1549600Y-3881000D02*
X9830000Y4399400D01*
X9830000Y4399400D02*
X9830000Y8700000D01*
X-880500Y19250000D02*
X-4800700Y19250000D01*
X-4800700Y19250000D02*
X-21526700Y2524000D01*
X-21526700Y2524000D02*
X-21526700Y658700D01*
X-21526700Y658700D02*
X-16964200Y-3903800D01*
X0Y19250000D02*
X-880500Y19250000D01*
X-10014300Y12510900D02*
X-9647600Y12144200D01*
X-9647600Y12144200D02*
X9657700Y12144200D01*
X-10014300Y12510900D02*
X-10869900Y12510900D01*
X-10869900Y12510900D02*
X-21021200Y2359600D01*
X-21021200Y2359600D02*
X-21021200Y1377200D01*
X-21021200Y1377200D02*
X-18081600Y-1562400D01*
X-18081600Y-1562400D02*
X-16470300Y-1562400D01*
X-16470300Y-1562400D02*
X-12551300Y-5481400D01*
X-12551300Y-5481400D02*
X-12551300Y-10062500D01*
X-12551300Y-10062500D02*
X-11925000Y-10688800D01*
X-10018700Y-6051600D02*
X-10018700Y-7811200D01*
X-10018700Y-7811200D02*
X-11910900Y-9703400D01*
X-10018700Y-6051600D02*
X48300Y-6051600D01*
X48300Y-6051600D02*
X1805100Y-4294800D01*
X-15334800Y796400D02*
X-15334800Y-959600D01*
X-15334800Y-959600D02*
X-12987100Y-3307300D01*
X-12987100Y-3307300D02*
X-12656600Y-3307300D01*
X-12656600Y-3307300D02*
X-10018700Y-5945200D01*
X-10018700Y-5945200D02*
X-10018700Y-6051600D01*
X1805100Y-4294800D02*
X12575000Y-15064800D01*
X1805100Y-4294800D02*
X12495400Y6395500D01*
X12495400Y6395500D02*
X12495400Y10231600D01*
X-17121300Y-2201100D02*
X-15170200Y-4152200D01*
X-15170200Y-4152200D02*
X-15170200Y-9664600D01*
X-11525000Y-5416400D02*
X-16688800Y-252600D01*
X-16688800Y-252600D02*
X-18650600Y-252600D01*
X-18650600Y-252600D02*
X-20501200Y1598000D01*
X-20501200Y1598000D02*
X-20501200Y2198500D01*
X-20501200Y2198500D02*
X-14649700Y8050000D01*
X-14649700Y8050000D02*
X-3000000Y8050000D01*
X-8877000Y4358300D02*
X-9224800Y4358300D01*
X-9224800Y4358300D02*
X-13903500Y-320400D01*
X6854000Y21610500D02*
X14454100Y21610500D01*
X14454100Y21610500D02*
X14710800Y21353800D01*
X11543600Y22442600D02*
X16514600Y22442600D01*
X-1715800Y-21574100D02*
X-3518400Y-19771500D01*
X-3518400Y-19771500D02*
X-14532000Y-19771500D01*
X7290000Y8700000D02*
X6434400Y9555600D01*
X6434400Y9555600D02*
X5398200Y9555600D01*
X5398200Y9555600D02*
X4477600Y8635000D01*
X4477600Y8635000D02*
X4477600Y7816000D01*
X4477600Y7816000D02*
X3502300Y6840700D01*
X3502300Y6840700D02*
X-14936700Y6840700D01*
X-14936700Y6840700D02*
X-19844000Y1933400D01*
M02*
